<svg xmlns="http://www.w3.org/2000/svg" width="325.251" height="242" viewBox="0 0 325.251 242"><defs><style>.a{fill:#e4e6ea;}.b{fill:#2e6cb9;}.c,.g,.h,.i,.j{fill:#2e3e5a;}.d{fill:#96b7df;}.e{fill:#fff;}.f{fill:#788295;}.g,.h{font-size:11px;}.g,.j,.k{font-family:OpenSans-Semibold, Open Sans;font-weight:600;}.h{font-family:OpenSans-Italic, Open Sans;font-style:italic;}.i{font-size:10px;font-family:OpenSans, Open Sans;}.j,.k{font-size:12px;}.k{fill:#333;}</style></defs><g transform="translate(-314.768 -1501.237)"><path class="a" d="M-.5-.5H324.751v242H-.5ZM323.751.5H.5v240H323.751Z" transform="translate(315.268 1501.737)"/><g transform="translate(2805 442.682)"><path class="b" d="M-2304.453,1265.158h39.685v-36.021h-39.685Z"/></g><g transform="translate(2805 442.682)"><path class="c" d="M-2284.235,1229.092h-.75v-11.815h.75Z"/><path class="c" d="M-2284.235,1241h-.75v-11.9h.75Z"/></g><g transform="translate(2805 442.682)"><path class="d" d="M-2377.183,1265.158h39.685V1099.3h-39.685Z"/></g><g transform="translate(2805 442.682)"><path class="c" d="M-2356.965,1113.047h-.75v-27.492h.75Z"/></g><g transform="translate(2805 442.682)"><path class="b" d="M-2421.382,1265.158h39.685V1124.505h-39.685Z"/></g><path class="c" d="M-2401.54,1124.466v-11.821" transform="translate(2805 442.682)"/><path class="c" d="M-2401.165,1124.466h-.75v-11.821h.75Z" transform="translate(2805 442.682)"/><path class="e" d="M-2401.165,1136.365h-.75v-11.9h.75Z" transform="translate(2805 442.682)"/><g transform="translate(2805 442.682)"><path class="c" d="M-2351.849,1085.93h-11.339v-.75h11.339Z"/></g><g transform="translate(2805 442.682)"><path class="c" d="M-2351.849,1113.9h-11.339v-.75h11.339Z"/></g><g transform="translate(2805 442.682)"><path class="c" d="M-2235.073,1241.048h-11.339v-.75h11.339Z"/></g><g transform="translate(2805 442.682)"><path class="e" d="M-2395.685,1136.43h-11.339v-.75h11.339Z"/></g><path class="c" d="M-2395.685,1112.279h-11.339" transform="translate(2805 442.682)"/><path class="c" d="M-2395.685,1112.654h-11.339v-.75h11.339Z" transform="translate(2805 442.682)"/><g transform="translate(2805 442.682)"><path class="c" d="M-2278.941,1217.652h-11.338v-.75h11.338Z"/></g><g transform="translate(2805 442.682)"><path class="e" d="M-2278.941,1241.372h-11.338v-.75h11.338Z"/></g><path class="f" d="M-2190.731,1265.713h-261.5v-.5h261.5Z" transform="translate(2805 442.682)"/><g transform="translate(2805 442.682)"><path class="d" d="M-2260.866,1265.158h39.685v-10.817h-39.685Z"/></g><g transform="translate(2805 442.682)"><path class="c" d="M-2240.648,1265.555h-.75v-24.96h.75Z"/></g><path class="a" d="M-.5-.5H89v60H-.5ZM88,.5H.5v58H88Z" transform="translate(526.519 1524.237)"/><g transform="translate(2805 442.682)"><path class="d" d="M-2267.8,1131.622h22.677v-17.008H-2267.8Z"/></g><g transform="translate(2805 442.682)"><path class="b" d="M-2267.8,1106.774h22.677v-17.008H-2267.8Z"/></g><text class="g" transform="translate(380.168 1714.612)"><tspan x="-20.485" y="12">Success</tspan></text><text class="h" transform="translate(343.538 1623.907) rotate(-90)"><tspan x="-41.132" y="0">% of participants</tspan></text><text class="i" transform="translate(565.168 1532.852)"><tspan x="0" y="11">Desktop</tspan></text><text class="i" transform="translate(565.168 1557.852)"><tspan x="0" y="11">Mobile</tspan></text><text class="g" transform="translate(504.087 1712.732)"><tspan x="-9.185" y="12">Fail</tspan></text><text class="j" transform="translate(384.019 1532.372)"><tspan x="-12.021" y="13">80%</tspan></text><text class="j" transform="translate(428.019 1508.372)"><tspan x="-12.021" y="13">94%</tspan></text><text class="k" transform="translate(500.89 1638.372)"><tspan x="-12.021" y="13">20%</tspan></text><text class="k" transform="translate(545.019 1664.372)"><tspan x="-8.596" y="13">6%</tspan></text></g></svg>