<svg xmlns="http://www.w3.org/2000/svg" width="855.407" height="232.505" viewBox="0 0 855.407 232.505"><defs><style>.a,.h,.i{fill:#2e3e5a;}.a{font-size:10px;font-family:OpenSans, Open Sans;}.b{fill:#ffd964;}.c{fill:#ffecb1;}.d{fill:#2e6cb9;}.e{fill:#96b7df;}.f{fill:#e4e6ea;}.g{fill:#5a667d;}.h,.i,.j{font-size:12px;}.h{font-family:OpenSans-Italic, Open Sans;font-style:italic;}.i,.j{font-family:OpenSans-Semibold, Open Sans;font-weight:600;}.j{fill:#fff;}</style></defs><g transform="translate(-316.121 -1817.637)"><text class="a" transform="translate(1090.527 1829.076)"><tspan x="0" y="0">Strongly disagree</tspan></text><text class="a" transform="translate(1090.527 1856.136)"><tspan x="0" y="0">Disagree</tspan></text><text class="a" transform="translate(1090.527 1883.197)"><tspan x="0" y="0">Neither</tspan></text><text class="a" transform="translate(1090.527 1910.256)"><tspan x="0" y="0">Agree</tspan></text><text class="a" transform="translate(1090.527 1937.317)"><tspan x="0" y="0">Strongly agree</tspan></text><rect class="b" width="37.838" height="15.41" transform="translate(1041.447 1926.469)"/><rect class="c" width="37.838" height="15.41" transform="translate(1041.447 1899.293)"/><rect class="d" width="37.838" height="15.41" transform="translate(1041.447 1817.762)"/><rect class="e" width="37.838" height="15.41" transform="translate(1041.447 1844.938)"/><rect class="f" width="37.838" height="15.41" transform="translate(1041.447 1872.116)"/><path class="g" d="M684.74.125H0v-.25H684.74Z" transform="translate(316.121 1817.762)"/><path class="g" d="M684.74.125H0v-.25H684.74Z" transform="translate(316.121 1877.536)"/><path class="g" d="M684.74.125H0v-.25H684.74Z" transform="translate(316.121 1995.703)"/><path class="g" d="M684.74.125H0v-.25H684.74Z" transform="translate(316.121 1935.906)"/><path class="g" d="M684.74.125H0v-.25H684.74Z" transform="translate(316.121 2050.018)"/><text class="h" transform="translate(481.204 1842.834)"><tspan x="-130.119" y="0" xml:space="preserve">The information on this  </tspan><tspan x="-158.238" y="17">website is easy to understand.</tspan></text><text class="h" transform="translate(481.204 1909.721)"><tspan x="-139.318" y="0">This website is easy to use.</tspan></text><text class="h" transform="translate(481.204 1961)"><tspan x="-148.506" y="0" xml:space="preserve">It is easy to navigate within  </tspan><tspan x="-62.326" y="17">the website.</tspan></text><text class="h" transform="translate(481.204 2020.752)"><tspan x="-127.852" y="0" xml:space="preserve">The information on the  </tspan><tspan x="-117.457" y="17">website is trustworthy.</tspan></text><rect class="d" width="35.087" height="30.818" transform="translate(492.356 1832.22)"/><rect class="e" width="23.391" height="30.818" transform="translate(527.443 1832.22)"/><rect class="c" width="46.276" height="30.818" transform="translate(803.558 1832.22)"/><rect class="f" width="252.725" height="30.818" transform="translate(550.834 1832.22)"/><rect class="b" width="151.025" height="30.818" transform="translate(849.835 1832.22)"/><text class="i" transform="translate(957.492 1851.282)"><tspan x="0" y="0">30%</tspan></text><text class="i" transform="translate(763.159 1851.282)"><tspan x="0" y="0">50%</tspan></text><text class="i" transform="translate(817.72 1851.282)"><tspan x="0" y="0">9%</tspan></text><text class="j" transform="translate(500.846 1851.282)"><tspan x="0" y="0">7%</tspan></text><text class="i" transform="translate(529.587 1851.282)"><tspan x="0" y="0">5%</tspan></text><rect class="b" width="147.466" height="30.817" transform="translate(853.395 1890.992)"/><rect class="f" width="249.166" height="30.817" transform="translate(553.377 1890.992)"/><rect class="c" width="50.851" height="30.817" transform="translate(802.542 1890.992)"/><rect class="e" width="25.426" height="30.817" transform="translate(527.951 1890.992)"/><rect class="d" width="35.595" height="30.817" transform="translate(492.356 1890.992)"/><text class="i" transform="translate(957.492 1910.051)"><tspan x="0" y="0">29%</tspan></text><text class="i" transform="translate(761.797 1910.051)"><tspan x="0" y="0">49%</tspan></text><text class="i" transform="translate(816.664 1910.051)"><tspan x="0" y="0">10%</tspan></text><text class="j" transform="translate(500.842 1910.051)"><tspan x="0" y="0">7%</tspan></text><text class="i" transform="translate(530.943 1910.051)"><tspan x="0" y="0">5%</tspan></text><rect class="b" width="137.297" height="30.817" transform="translate(863.564 1950.43)"/><rect class="f" width="238.997" height="30.817" transform="translate(553.377 1950.43)"/><rect class="c" width="71.192" height="30.817" transform="translate(792.374 1950.43)"/><rect class="e" width="25.426" height="30.817" transform="translate(527.951 1950.43)"/><rect class="d" width="35.595" height="30.817" transform="translate(492.356 1950.43)"/><text class="i" transform="translate(957.492 1969.488)"><tspan x="0" y="0">27%</tspan></text><text class="i" transform="translate(752.285 1969.488)"><tspan x="0" y="0">47%</tspan></text><text class="i" transform="translate(824.816 1969.488)"><tspan x="0" y="0">14%</tspan></text><text class="j" transform="translate(500.842 1969.488)"><tspan x="0" y="0">7%</tspan></text><text class="i" transform="translate(530.943 1969.488)"><tspan x="0" y="0">5%</tspan></text><rect class="b" width="172.89" height="30.817" transform="translate(827.97 2009.507)"/><rect class="f" width="208.487" height="30.817" transform="translate(527.951 2009.507)"/><rect class="c" width="91.532" height="30.817" transform="translate(736.437 2009.507)"/><rect class="e" width="10.171" height="30.817" transform="translate(517.78 2009.507)"/><path class="d" d="M0,0H25.424V30.817H0Z" transform="translate(492.356 2009.507)"/><text class="i" transform="translate(957.492 2028.566)"><tspan x="0" y="0">34%</tspan></text><text class="i" transform="translate(697.928 2028.566)"><tspan x="0" y="0">41%</tspan></text><text class="i" transform="translate(793.562 2028.566)"><tspan x="0" y="0">18%</tspan></text><text class="j" transform="translate(496.081 2028.566)"><tspan x="0" y="0">5%</tspan></text><text class="i" transform="translate(519.505 2028.566)"><tspan x="0" y="0">2</tspan></text></g></svg>