<svg xmlns="http://www.w3.org/2000/svg" width="554.631" height="255.748" viewBox="0 0 554.631 255.748"><defs><style>.a{fill:#2e6cb9;}.b{fill:#96b7df;}.c{fill:#c8d9ee;}.d{fill:#ffecb1;}.e{fill:#ffd964;}.f,.g{fill:#fff;}.f,.j{font-size:26px;font-family:OpenSans, Open Sans;}.g{font-size:73px;}.g,.h,.i{font-family:OpenSans-Semibold, Open Sans;font-weight:600;}.h,.i,.j{fill:#2e3e5a;}.h{font-size:48px;}.i{font-size:28px;}</style></defs><g transform="translate(-316.961 -2397.118)"><g transform="translate(2802 442.682)"><rect class="a" width="277.321" height="255.731" transform="translate(-2485.039 1954.453)"/><rect class="b" width="138.663" height="255.731" transform="translate(-2207.706 1954.453)"/><rect class="c" width="138.66" height="63.934" transform="translate(-2069.068 1954.436)"/><rect class="d" width="138.66" height="63.934" transform="translate(-2069.068 2018.841)"/><rect class="e" width="138.66" height="127.867" transform="translate(-2069.068 2082.316)"/><text class="f" transform="translate(-2474.948 1963.801)"><tspan x="0" y="28">NSW</tspan></text><text class="g" transform="translate(-2226.326 2186.142)"><tspan x="-146.25" y="0">59%</tspan></text><text class="h" transform="translate(-2080.563 2188.441)"><tspan x="-96.164" y="0">21%</tspan></text><text class="i" transform="translate(-1945.336 2188.441)"><tspan x="-56.096" y="0">10%</tspan></text><text class="i" transform="translate(-1945.336 2061.082)"><tspan x="-40.113" y="0">5%</tspan></text><text class="i" transform="translate(-1945.336 1997.527)"><tspan x="-40.113" y="0">5%</tspan></text><text class="j" transform="translate(-2195.714 1963.801)"><tspan x="0" y="28">VIC</tspan></text><text class="j" transform="translate(-2058.732 1967.801)"><tspan x="0" y="28">ACT</tspan></text><text class="j" transform="translate(-2058.732 2031.355)"><tspan x="0" y="28">QLD</tspan></text><text class="j" transform="translate(-2058.732 2092.61)"><tspan x="0" y="28">WA</tspan></text></g></g></svg>