<svg xmlns="http://www.w3.org/2000/svg" width="947.88" height="158.422" viewBox="0 0 947.88 158.422"><defs><style>.a{fill:#2e6cb9;}.b,.e,.f{fill:#2e3e5a;}.c{fill:#6c97ce;}.d{fill:#ffd964;}.e{font-size:72px;font-family:OpenSans-Bold, Open Sans;font-weight:700;}.f{font-size:17px;font-family:OpenSans, Open Sans;}</style></defs><g transform="translate(-313.597 -1269.829)"><g transform="translate(2805 441.682)"><circle class="a" cx="5" cy="5" r="5" transform="translate(-2367.408 868.184)"/></g><g transform="translate(2805 442.682)"><path class="b" d="M-2327.452,875.271c-.006-4.7,4.49-8.524,10.044-8.532s10.06,3.8,10.067,8.5Zm4.287-15.623a5.746,5.746,0,0,1,5.8-5.691,5.746,5.746,0,0,1,5.69,5.675,5.746,5.746,0,0,1-5.8,5.691A5.746,5.746,0,0,1-2323.165,859.648Z"/><path class="b" d="M-2352.7,875.308c-.007-4.7,4.489-8.525,10.043-8.533s10.061,3.8,10.067,8.5Zm4.286-15.623a5.746,5.746,0,0,1,5.8-5.691,5.746,5.746,0,0,1,5.69,5.674,5.745,5.745,0,0,1-5.8,5.691A5.745,5.745,0,0,1-2348.418,859.685Z"/></g><g transform="translate(2805 442.682)"><path class="c" d="M-2276.946,875.2c-.007-4.7,4.489-8.524,10.043-8.532s10.061,3.8,10.068,8.5Zm4.286-15.622a5.746,5.746,0,0,1,5.8-5.691,5.746,5.746,0,0,1,5.691,5.674,5.747,5.747,0,0,1-5.8,5.691A5.746,5.746,0,0,1-2272.66,859.575Z"/><path class="c" d="M-2302.2,875.234c-.007-4.7,4.49-8.524,10.043-8.532s10.061,3.8,10.068,8.5Zm4.286-15.622a5.746,5.746,0,0,1,5.8-5.691,5.746,5.746,0,0,1,5.691,5.674,5.747,5.747,0,0,1-5.8,5.691A5.747,5.747,0,0,1-2297.913,859.612Z"/><path class="c" d="M-2251.693,875.16c-.007-4.7,4.489-8.524,10.043-8.532s10.061,3.8,10.068,8.5Zm4.286-15.622a5.746,5.746,0,0,1,5.8-5.691,5.746,5.746,0,0,1,5.691,5.674,5.747,5.747,0,0,1-5.8,5.691A5.746,5.746,0,0,1-2247.407,859.538Z"/><path class="c" d="M-2150.682,875.013c-.007-4.7,4.489-8.524,10.043-8.532s10.061,3.8,10.068,8.5Zm4.286-15.623a5.746,5.746,0,0,1,5.8-5.69,5.746,5.746,0,0,1,5.691,5.674,5.747,5.747,0,0,1-5.8,5.691A5.747,5.747,0,0,1-2146.4,859.39Z"/><path class="c" d="M-2175.935,875.05c-.006-4.7,4.49-8.524,10.044-8.533s10.06,3.8,10.067,8.5Zm4.286-15.623a5.748,5.748,0,0,1,5.8-5.691,5.746,5.746,0,0,1,5.69,5.675,5.745,5.745,0,0,1-5.8,5.69A5.747,5.747,0,0,1-2171.649,859.427Z"/><path class="c" d="M-2201.187,875.086c-.007-4.7,4.489-8.524,10.043-8.532s10.061,3.8,10.067,8.5Zm4.286-15.622a5.746,5.746,0,0,1,5.8-5.691,5.746,5.746,0,0,1,5.69,5.674,5.745,5.745,0,0,1-5.8,5.691A5.745,5.745,0,0,1-2196.9,859.464Z"/><path class="c" d="M-2226.44,875.123c-.007-4.7,4.489-8.524,10.043-8.532s10.061,3.8,10.068,8.5Zm4.286-15.622a5.746,5.746,0,0,1,5.8-5.691,5.746,5.746,0,0,1,5.691,5.674,5.746,5.746,0,0,1-5.8,5.691A5.746,5.746,0,0,1-2222.154,859.5Z"/><path class="c" d="M-2125.429,874.976c-.007-4.7,4.489-8.524,10.043-8.532s10.061,3.8,10.068,8.5Zm4.286-15.622a5.746,5.746,0,0,1,5.8-5.691,5.746,5.746,0,0,1,5.691,5.674,5.747,5.747,0,0,1-5.8,5.691A5.747,5.747,0,0,1-2121.143,859.354Z"/><path class="c" d="M-2024.418,874.829c-.006-4.7,4.49-8.525,10.044-8.533s10.06,3.8,10.067,8.5Zm4.286-15.623a5.748,5.748,0,0,1,5.8-5.691,5.747,5.747,0,0,1,5.69,5.674,5.745,5.745,0,0,1-5.8,5.691A5.747,5.747,0,0,1-2020.132,859.206Z"/><path class="c" d="M-2049.67,874.865c-.007-4.7,4.489-8.524,10.043-8.532s10.061,3.8,10.067,8.5Zm4.286-15.622a5.746,5.746,0,0,1,5.8-5.691,5.745,5.745,0,0,1,5.69,5.674,5.745,5.745,0,0,1-5.8,5.691A5.745,5.745,0,0,1-2045.384,859.243Z"/><path class="c" d="M-2074.923,874.9c-.007-4.7,4.489-8.524,10.043-8.532s10.061,3.8,10.068,8.5Zm4.286-15.622a5.746,5.746,0,0,1,5.8-5.691,5.746,5.746,0,0,1,5.691,5.674,5.747,5.747,0,0,1-5.8,5.691A5.746,5.746,0,0,1-2070.637,859.28Z"/><path class="c" d="M-2100.176,874.939c-.007-4.7,4.489-8.524,10.043-8.532s10.061,3.8,10.068,8.5Zm4.286-15.622a5.745,5.745,0,0,1,5.8-5.691,5.746,5.746,0,0,1,5.691,5.674,5.747,5.747,0,0,1-5.8,5.691A5.746,5.746,0,0,1-2095.89,859.317Z"/><path class="c" d="M-1999.165,874.792c-.007-4.7,4.489-8.524,10.043-8.532s10.061,3.8,10.068,8.5Zm4.286-15.623a5.747,5.747,0,0,1,5.8-5.691,5.747,5.747,0,0,1,5.691,5.675,5.747,5.747,0,0,1-5.8,5.691A5.747,5.747,0,0,1-1994.879,859.169Z"/><path class="c" d="M-1898.153,874.644c-.007-4.7,4.489-8.524,10.043-8.532s10.061,3.8,10.067,8.5Zm4.286-15.622a5.746,5.746,0,0,1,5.8-5.691,5.745,5.745,0,0,1,5.69,5.674,5.745,5.745,0,0,1-5.8,5.691A5.745,5.745,0,0,1-1893.867,859.022Z"/><path class="c" d="M-1923.406,874.681c-.007-4.7,4.489-8.524,10.043-8.532s10.061,3.8,10.068,8.5Zm4.286-15.622a5.746,5.746,0,0,1,5.8-5.691,5.746,5.746,0,0,1,5.691,5.674,5.747,5.747,0,0,1-5.8,5.691A5.746,5.746,0,0,1-1919.12,859.059Z"/><path class="c" d="M-1948.659,874.718c-.007-4.7,4.489-8.524,10.043-8.532s10.061,3.8,10.068,8.5Zm4.286-15.622a5.746,5.746,0,0,1,5.8-5.691,5.746,5.746,0,0,1,5.691,5.674,5.748,5.748,0,0,1-5.8,5.691A5.746,5.746,0,0,1-1944.373,859.1Z"/><path class="c" d="M-1973.912,874.755c-.007-4.7,4.489-8.524,10.043-8.532s10.061,3.8,10.068,8.5Zm4.286-15.622a5.746,5.746,0,0,1,5.8-5.691,5.746,5.746,0,0,1,5.691,5.674,5.747,5.747,0,0,1-5.8,5.691A5.747,5.747,0,0,1-1969.626,859.133Z"/><path class="c" d="M-1872.9,874.607c-.006-4.7,4.49-8.524,10.043-8.532s10.061,3.8,10.068,8.5Zm4.286-15.622a5.748,5.748,0,0,1,5.8-5.691,5.747,5.747,0,0,1,5.69,5.674,5.745,5.745,0,0,1-5.8,5.691A5.747,5.747,0,0,1-1868.615,858.985Z"/><path class="c" d="M-1771.889,874.46c-.007-4.7,4.489-8.524,10.043-8.532s10.061,3.8,10.068,8.5Zm4.286-15.622a5.745,5.745,0,0,1,5.8-5.691,5.747,5.747,0,0,1,5.691,5.674,5.748,5.748,0,0,1-5.8,5.691A5.746,5.746,0,0,1-1767.6,858.838Z"/><path class="c" d="M-1797.142,874.5c-.007-4.7,4.489-8.524,10.043-8.532s10.061,3.8,10.068,8.5Zm4.286-15.622a5.745,5.745,0,0,1,5.8-5.691,5.746,5.746,0,0,1,5.691,5.674,5.747,5.747,0,0,1-5.8,5.691A5.747,5.747,0,0,1-1792.856,858.875Z"/><path class="c" d="M-1822.4,874.534c-.007-4.7,4.489-8.524,10.043-8.532s10.061,3.8,10.068,8.5Zm4.286-15.623a5.746,5.746,0,0,1,5.8-5.69,5.746,5.746,0,0,1,5.691,5.674,5.747,5.747,0,0,1-5.8,5.691A5.747,5.747,0,0,1-1818.109,858.911Z"/><path class="c" d="M-1847.648,874.571c-.007-4.7,4.489-8.524,10.043-8.533s10.061,3.8,10.068,8.5Zm4.286-15.623a5.747,5.747,0,0,1,5.8-5.691,5.747,5.747,0,0,1,5.691,5.675,5.745,5.745,0,0,1-5.8,5.69A5.746,5.746,0,0,1-1843.362,858.948Z"/><path class="c" d="M-1746.636,874.423c-.007-4.7,4.489-8.524,10.043-8.532s10.06,3.8,10.067,8.5Zm4.286-15.622a5.746,5.746,0,0,1,5.8-5.691,5.745,5.745,0,0,1,5.69,5.674,5.745,5.745,0,0,1-5.8,5.691A5.745,5.745,0,0,1-1742.35,858.8Z"/><path class="c" d="M-2276.9,910.308c-.007-4.7,4.489-8.524,10.043-8.532s10.061,3.8,10.068,8.5Zm4.286-15.622a5.746,5.746,0,0,1,5.8-5.691,5.746,5.746,0,0,1,5.691,5.674,5.747,5.747,0,0,1-5.8,5.691A5.746,5.746,0,0,1-2272.615,894.686Z"/><path class="c" d="M-2302.154,910.345c-.007-4.7,4.489-8.524,10.043-8.532s10.061,3.8,10.068,8.5Zm4.286-15.622a5.746,5.746,0,0,1,5.8-5.691,5.746,5.746,0,0,1,5.691,5.674,5.747,5.747,0,0,1-5.8,5.691A5.747,5.747,0,0,1-2297.868,894.723Z"/><path class="c" d="M-2327.407,910.382c-.007-4.7,4.489-8.524,10.043-8.532s10.061,3.8,10.068,8.5Zm4.286-15.623a5.748,5.748,0,0,1,5.8-5.691,5.747,5.747,0,0,1,5.691,5.675,5.745,5.745,0,0,1-5.8,5.69A5.746,5.746,0,0,1-2323.121,894.759Z"/><path class="c" d="M-2352.66,910.418c-.006-4.7,4.49-8.524,10.044-8.532s10.06,3.8,10.067,8.5Zm4.286-15.622a5.748,5.748,0,0,1,5.8-5.691,5.747,5.747,0,0,1,5.69,5.674,5.745,5.745,0,0,1-5.8,5.691A5.747,5.747,0,0,1-2348.374,894.8Z"/><path class="c" d="M-2251.648,910.271c-.007-4.7,4.489-8.524,10.043-8.532s10.061,3.8,10.068,8.5Zm4.286-15.622a5.745,5.745,0,0,1,5.8-5.691,5.747,5.747,0,0,1,5.691,5.674,5.747,5.747,0,0,1-5.8,5.691A5.746,5.746,0,0,1-2247.362,894.649Z"/><path class="c" d="M-2150.637,910.124c-.007-4.7,4.489-8.524,10.043-8.532s10.061,3.8,10.068,8.5Zm4.286-15.623a5.746,5.746,0,0,1,5.8-5.69,5.746,5.746,0,0,1,5.691,5.674,5.748,5.748,0,0,1-5.8,5.691A5.747,5.747,0,0,1-2146.351,894.5Z"/><path class="c" d="M-2175.89,910.161c-.007-4.7,4.489-8.524,10.043-8.533s10.061,3.8,10.068,8.5Zm4.286-15.623a5.747,5.747,0,0,1,5.8-5.691,5.747,5.747,0,0,1,5.691,5.675,5.745,5.745,0,0,1-5.8,5.69A5.746,5.746,0,0,1-2171.6,894.538Z"/><path class="c" d="M-2201.143,910.2c-.006-4.7,4.49-8.524,10.043-8.532s10.061,3.8,10.068,8.5Zm4.286-15.622a5.748,5.748,0,0,1,5.8-5.691,5.747,5.747,0,0,1,5.69,5.674,5.745,5.745,0,0,1-5.8,5.691A5.746,5.746,0,0,1-2196.857,894.575Z"/><path class="c" d="M-2226.4,910.234c-.007-4.7,4.489-8.524,10.043-8.532s10.061,3.8,10.067,8.5Zm4.286-15.622a5.746,5.746,0,0,1,5.8-5.691,5.746,5.746,0,0,1,5.69,5.674,5.745,5.745,0,0,1-5.8,5.691A5.745,5.745,0,0,1-2222.109,894.612Z"/><path class="c" d="M-2125.384,910.087c-.007-4.7,4.489-8.524,10.043-8.532s10.061,3.8,10.068,8.5Zm4.286-15.622a5.745,5.745,0,0,1,5.8-5.691,5.746,5.746,0,0,1,5.691,5.674,5.747,5.747,0,0,1-5.8,5.691A5.747,5.747,0,0,1-2121.1,894.465Z"/><path class="c" d="M-2024.373,909.939c-.007-4.7,4.489-8.524,10.043-8.532s10.061,3.8,10.068,8.5Zm4.286-15.622a5.748,5.748,0,0,1,5.8-5.691,5.747,5.747,0,0,1,5.691,5.674,5.746,5.746,0,0,1-5.8,5.691A5.746,5.746,0,0,1-2020.087,894.317Z"/><path class="c" d="M-2049.626,909.976c-.006-4.7,4.49-8.524,10.043-8.532s10.061,3.8,10.068,8.5Zm4.286-15.622a5.747,5.747,0,0,1,5.8-5.691,5.746,5.746,0,0,1,5.691,5.674,5.745,5.745,0,0,1-5.8,5.691A5.746,5.746,0,0,1-2045.34,894.354Z"/><path class="c" d="M-2074.878,910.013c-.007-4.7,4.489-8.524,10.043-8.532s10.06,3.8,10.067,8.5Zm4.286-15.622a5.745,5.745,0,0,1,5.8-5.691,5.745,5.745,0,0,1,5.69,5.674,5.746,5.746,0,0,1-5.8,5.691A5.746,5.746,0,0,1-2070.592,894.391Z"/><path class="c" d="M-2100.131,910.05c-.007-4.7,4.489-8.524,10.043-8.532s10.061,3.8,10.068,8.5Zm4.286-15.622a5.745,5.745,0,0,1,5.8-5.691,5.747,5.747,0,0,1,5.691,5.674,5.748,5.748,0,0,1-5.8,5.691A5.745,5.745,0,0,1-2095.845,894.428Z"/><path class="c" d="M-1999.12,909.9c-.007-4.7,4.489-8.524,10.043-8.533s10.061,3.8,10.068,8.5Zm4.286-15.623a5.747,5.747,0,0,1,5.8-5.691,5.747,5.747,0,0,1,5.691,5.675,5.746,5.746,0,0,1-5.8,5.69A5.746,5.746,0,0,1-1994.834,894.28Z"/><path class="c" d="M-1898.109,909.755c-.007-4.7,4.49-8.524,10.043-8.532s10.061,3.8,10.068,8.5Zm4.286-15.622a5.747,5.747,0,0,1,5.8-5.691,5.746,5.746,0,0,1,5.691,5.674,5.745,5.745,0,0,1-5.8,5.691A5.746,5.746,0,0,1-1893.823,894.133Z"/><path class="c" d="M-1923.361,909.792c-.007-4.7,4.489-8.524,10.043-8.532s10.06,3.8,10.067,8.5Zm4.286-15.622a5.745,5.745,0,0,1,5.8-5.691,5.745,5.745,0,0,1,5.69,5.674,5.746,5.746,0,0,1-5.8,5.691A5.745,5.745,0,0,1-1919.075,894.17Z"/><path class="c" d="M-1948.614,909.829c-.007-4.7,4.489-8.524,10.043-8.532s10.061,3.8,10.067,8.5Zm4.286-15.622a5.745,5.745,0,0,1,5.8-5.691,5.745,5.745,0,0,1,5.69,5.674,5.746,5.746,0,0,1-5.8,5.691A5.745,5.745,0,0,1-1944.328,894.207Z"/><path class="c" d="M-1973.867,909.866c-.007-4.7,4.489-8.524,10.043-8.532s10.061,3.8,10.068,8.5Zm4.286-15.622a5.746,5.746,0,0,1,5.8-5.691,5.746,5.746,0,0,1,5.691,5.674,5.748,5.748,0,0,1-5.8,5.691A5.747,5.747,0,0,1-1969.581,894.244Z"/><path class="c" d="M-1872.856,909.718c-.007-4.7,4.489-8.524,10.043-8.532s10.061,3.8,10.068,8.5Zm4.286-15.622a5.747,5.747,0,0,1,5.8-5.691,5.747,5.747,0,0,1,5.691,5.674,5.746,5.746,0,0,1-5.8,5.691A5.746,5.746,0,0,1-1868.57,894.1Z"/><path class="c" d="M-1771.845,909.571c-.006-4.7,4.49-8.524,10.044-8.532s10.06,3.8,10.067,8.5Zm4.286-15.622a5.746,5.746,0,0,1,5.8-5.691,5.745,5.745,0,0,1,5.69,5.674,5.746,5.746,0,0,1-5.8,5.691A5.747,5.747,0,0,1-1767.559,893.949Z"/><path class="c" d="M-1797.1,909.608c-.007-4.7,4.489-8.524,10.043-8.532s10.061,3.8,10.067,8.5Zm4.286-15.622a5.745,5.745,0,0,1,5.8-5.691,5.745,5.745,0,0,1,5.69,5.674,5.746,5.746,0,0,1-5.8,5.691A5.746,5.746,0,0,1-1792.811,893.986Z"/><path class="c" d="M-1822.35,909.645c-.007-4.7,4.489-8.524,10.043-8.532s10.061,3.8,10.068,8.5Zm4.286-15.623a5.745,5.745,0,0,1,5.8-5.69,5.746,5.746,0,0,1,5.691,5.674,5.747,5.747,0,0,1-5.8,5.691A5.747,5.747,0,0,1-1818.064,894.022Z"/><path class="c" d="M-1847.6,909.682c-.007-4.7,4.489-8.524,10.043-8.533s10.061,3.8,10.068,8.5Zm4.286-15.623a5.747,5.747,0,0,1,5.8-5.691,5.747,5.747,0,0,1,5.691,5.675,5.746,5.746,0,0,1-5.8,5.69A5.746,5.746,0,0,1-1843.317,894.059Z"/><path class="c" d="M-1746.592,909.534c-.007-4.7,4.489-8.524,10.043-8.532s10.061,3.8,10.068,8.5Zm4.286-15.622a5.747,5.747,0,0,1,5.8-5.691,5.746,5.746,0,0,1,5.691,5.674,5.746,5.746,0,0,1-5.8,5.691A5.746,5.746,0,0,1-1742.306,893.912Z"/><path class="c" d="M-2276.857,945.419c-.007-4.7,4.489-8.524,10.043-8.532s10.061,3.8,10.067,8.5Zm4.286-15.622a5.745,5.745,0,0,1,5.8-5.691,5.745,5.745,0,0,1,5.69,5.674,5.746,5.746,0,0,1-5.8,5.691A5.746,5.746,0,0,1-2272.571,929.8Z"/><path class="c" d="M-2302.11,945.456c-.007-4.7,4.489-8.524,10.043-8.532s10.061,3.8,10.068,8.5Zm4.286-15.622a5.745,5.745,0,0,1,5.8-5.691,5.746,5.746,0,0,1,5.691,5.674,5.747,5.747,0,0,1-5.8,5.691A5.747,5.747,0,0,1-2297.824,929.834Z"/><path class="c" d="M-2327.363,945.493c-.007-4.7,4.489-8.524,10.043-8.533s10.061,3.8,10.068,8.5Zm4.286-15.623a5.747,5.747,0,0,1,5.8-5.691,5.747,5.747,0,0,1,5.691,5.675,5.746,5.746,0,0,1-5.8,5.69A5.745,5.745,0,0,1-2323.077,929.87Z"/><path class="c" d="M-2352.616,945.529c-.007-4.7,4.489-8.524,10.043-8.532s10.061,3.8,10.068,8.5Zm4.286-15.622a5.748,5.748,0,0,1,5.8-5.691,5.747,5.747,0,0,1,5.691,5.674,5.746,5.746,0,0,1-5.8,5.691A5.746,5.746,0,0,1-2348.33,929.907Z"/><path class="c" d="M-2251.6,945.382c-.006-4.7,4.49-8.524,10.044-8.532s10.06,3.8,10.067,8.5Zm4.287-15.622a5.745,5.745,0,0,1,5.8-5.691,5.746,5.746,0,0,1,5.69,5.674,5.746,5.746,0,0,1-5.8,5.691A5.746,5.746,0,0,1-2247.318,929.76Z"/><path class="c" d="M-2150.593,945.235c-.007-4.7,4.489-8.524,10.043-8.532s10.061,3.8,10.068,8.5Zm4.286-15.623a5.744,5.744,0,0,1,5.8-5.69,5.746,5.746,0,0,1,5.691,5.674,5.748,5.748,0,0,1-5.8,5.691A5.747,5.747,0,0,1-2146.307,929.612Z"/><path class="c" d="M-2175.846,945.272c-.007-4.7,4.489-8.524,10.043-8.533s10.061,3.8,10.068,8.5Zm4.286-15.623a5.747,5.747,0,0,1,5.8-5.691,5.747,5.747,0,0,1,5.691,5.675,5.746,5.746,0,0,1-5.8,5.69A5.746,5.746,0,0,1-2171.56,929.649Z"/><path class="c" d="M-2201.1,945.308c-.007-4.7,4.489-8.524,10.043-8.532s10.061,3.8,10.068,8.5Zm4.286-15.622a5.747,5.747,0,0,1,5.8-5.691,5.746,5.746,0,0,1,5.691,5.674,5.745,5.745,0,0,1-5.8,5.691A5.746,5.746,0,0,1-2196.813,929.686Z"/><path class="c" d="M-2226.352,945.345c-.007-4.7,4.49-8.524,10.043-8.532s10.061,3.8,10.068,8.5Zm4.286-15.622a5.747,5.747,0,0,1,5.8-5.691,5.746,5.746,0,0,1,5.691,5.674,5.745,5.745,0,0,1-5.8,5.691A5.746,5.746,0,0,1-2222.066,929.723Z"/><path class="c" d="M-2125.34,945.2c-.007-4.7,4.489-8.524,10.043-8.532s10.061,3.8,10.067,8.5Zm4.286-15.622a5.745,5.745,0,0,1,5.8-5.691,5.745,5.745,0,0,1,5.69,5.674,5.746,5.746,0,0,1-5.8,5.691A5.746,5.746,0,0,1-2121.054,929.576Z"/><path class="c" d="M-2049.582,945.087c-.007-4.7,4.489-8.524,10.043-8.532s10.061,3.8,10.068,8.5Zm4.286-15.622a5.748,5.748,0,0,1,5.8-5.691,5.746,5.746,0,0,1,5.691,5.674,5.746,5.746,0,0,1-5.8,5.691A5.746,5.746,0,0,1-2045.3,929.465Z"/><path class="c" d="M-2074.835,945.124c-.007-4.7,4.489-8.524,10.043-8.532s10.061,3.8,10.068,8.5Zm4.286-15.622a5.747,5.747,0,0,1,5.8-5.691,5.746,5.746,0,0,1,5.691,5.674,5.746,5.746,0,0,1-5.8,5.691A5.746,5.746,0,0,1-2070.549,929.5Z"/><path class="c" d="M-2100.088,945.161c-.006-4.7,4.49-8.524,10.044-8.532s10.06,3.8,10.067,8.5Zm4.286-15.622a5.746,5.746,0,0,1,5.8-5.691,5.745,5.745,0,0,1,5.69,5.674,5.746,5.746,0,0,1-5.8,5.691A5.747,5.747,0,0,1-2095.8,929.539Z"/></g><g transform="translate(31 67.698)"><path class="d" d="M-2024.329,945.05c-.007-4.7,4.489-8.524,10.043-8.532s10.061,3.8,10.068,8.5Zm4.286-15.622a5.747,5.747,0,0,1,5.8-5.691,5.747,5.747,0,0,1,5.691,5.674,5.746,5.746,0,0,1-5.8,5.691A5.746,5.746,0,0,1-2020.043,929.428Z" transform="translate(2774 374.984)"/><path class="d" d="M-1999.076,945.014c-.007-4.7,4.489-8.524,10.043-8.533s10.061,3.8,10.068,8.5Zm4.286-15.623a5.746,5.746,0,0,1,5.8-5.691,5.747,5.747,0,0,1,5.691,5.675,5.746,5.746,0,0,1-5.8,5.69A5.746,5.746,0,0,1-1994.79,929.391Z" transform="translate(2774 374.984)"/><path class="d" d="M-1898.065,944.866c-.007-4.7,4.489-8.524,10.043-8.532s10.061,3.8,10.068,8.5Zm4.286-15.622a5.748,5.748,0,0,1,5.8-5.691,5.746,5.746,0,0,1,5.691,5.674,5.746,5.746,0,0,1-5.8,5.691A5.746,5.746,0,0,1-1893.779,929.244Z" transform="translate(2774 374.984)"/><path class="d" d="M-1923.318,944.9c-.007-4.7,4.489-8.524,10.043-8.532s10.061,3.8,10.068,8.5Zm4.286-15.622a5.746,5.746,0,0,1,5.8-5.691,5.746,5.746,0,0,1,5.691,5.674,5.747,5.747,0,0,1-5.8,5.691A5.746,5.746,0,0,1-1919.032,929.281Z" transform="translate(2774 374.984)"/><path class="d" d="M-1948.571,944.94c-.006-4.7,4.49-8.524,10.044-8.532s10.06,3.8,10.067,8.5Zm4.286-15.622a5.746,5.746,0,0,1,5.8-5.691,5.746,5.746,0,0,1,5.69,5.674,5.746,5.746,0,0,1-5.8,5.691A5.748,5.748,0,0,1-1944.285,929.318Z" transform="translate(2774 374.984)"/><path class="d" d="M-1973.823,944.977c-.007-4.7,4.489-8.524,10.043-8.532s10.061,3.8,10.067,8.5Zm4.286-15.623a5.745,5.745,0,0,1,5.8-5.69,5.745,5.745,0,0,1,5.69,5.674,5.746,5.746,0,0,1-5.8,5.691A5.746,5.746,0,0,1-1969.537,929.354Z" transform="translate(2774 374.984)"/><path class="d" d="M-1872.812,944.829c-.007-4.7,4.489-8.524,10.043-8.532s10.061,3.8,10.068,8.5Zm4.286-15.622a5.747,5.747,0,0,1,5.8-5.691,5.746,5.746,0,0,1,5.691,5.674,5.746,5.746,0,0,1-5.8,5.691A5.746,5.746,0,0,1-1868.526,929.207Z" transform="translate(2774 374.984)"/><path class="d" d="M-1771.8,944.682c-.007-4.7,4.489-8.524,10.043-8.532s10.061,3.8,10.068,8.5Zm4.286-15.622a5.746,5.746,0,0,1,5.8-5.691,5.746,5.746,0,0,1,5.691,5.674,5.747,5.747,0,0,1-5.8,5.691A5.746,5.746,0,0,1-1767.515,929.06Z" transform="translate(2774 374.984)"/><path class="d" d="M-1797.054,944.719c-.006-4.7,4.49-8.524,10.043-8.532s10.061,3.8,10.068,8.5Zm4.286-15.622a5.746,5.746,0,0,1,5.8-5.691,5.746,5.746,0,0,1,5.691,5.674,5.746,5.746,0,0,1-5.8,5.691A5.747,5.747,0,0,1-1792.768,929.1Z" transform="translate(2774 374.984)"/><path class="d" d="M-1822.306,944.756c-.007-4.7,4.489-8.524,10.043-8.532s10.061,3.8,10.067,8.5Zm4.286-15.623a5.745,5.745,0,0,1,5.8-5.69,5.745,5.745,0,0,1,5.69,5.674,5.746,5.746,0,0,1-5.8,5.691A5.746,5.746,0,0,1-1818.02,929.133Z" transform="translate(2774 374.984)"/><path class="d" d="M-1847.559,944.793c-.007-4.7,4.489-8.525,10.043-8.533s10.061,3.8,10.068,8.5Zm4.286-15.623a5.746,5.746,0,0,1,5.8-5.691,5.748,5.748,0,0,1,5.691,5.674,5.746,5.746,0,0,1-5.8,5.691A5.746,5.746,0,0,1-1843.273,929.17Z" transform="translate(2774 374.984)"/><path class="d" d="M-1746.548,944.645c-.007-4.7,4.489-8.524,10.043-8.532s10.061,3.8,10.068,8.5Zm4.286-15.622a5.746,5.746,0,0,1,5.8-5.691,5.746,5.746,0,0,1,5.691,5.674,5.747,5.747,0,0,1-5.8,5.691A5.746,5.746,0,0,1-1742.262,929.023Z" transform="translate(2774 374.984)"/><g transform="translate(2774 374.984)"><path class="d" d="M-2276.813,980.53c-.006-4.7,4.49-8.524,10.044-8.532s10.06,3.8,10.067,8.5Zm4.286-15.622a5.747,5.747,0,0,1,5.8-5.691,5.746,5.746,0,0,1,5.69,5.674,5.746,5.746,0,0,1-5.8,5.691A5.748,5.748,0,0,1-2272.527,964.908Z"/><path class="d" d="M-2302.065,980.567c-.007-4.7,4.489-8.524,10.043-8.532s10.061,3.8,10.067,8.5Zm4.286-15.623a5.745,5.745,0,0,1,5.8-5.69,5.745,5.745,0,0,1,5.69,5.674,5.746,5.746,0,0,1-5.8,5.691A5.746,5.746,0,0,1-2297.779,964.944Z"/><path class="d" d="M-2327.318,980.6c-.007-4.7,4.489-8.524,10.043-8.533s10.061,3.8,10.068,8.5Zm4.286-15.623a5.746,5.746,0,0,1,5.8-5.691,5.747,5.747,0,0,1,5.691,5.675,5.746,5.746,0,0,1-5.8,5.69A5.746,5.746,0,0,1-2323.032,964.981Z"/><path class="d" d="M-2352.571,980.64c-.007-4.7,4.489-8.524,10.043-8.532s10.061,3.8,10.068,8.5Zm4.286-15.622a5.747,5.747,0,0,1,5.8-5.691,5.747,5.747,0,0,1,5.691,5.674,5.746,5.746,0,0,1-5.8,5.691A5.746,5.746,0,0,1-2348.285,965.018Z"/><path class="d" d="M-2251.56,980.493c-.007-4.7,4.489-8.524,10.043-8.532s10.061,3.8,10.068,8.5Zm4.286-15.622a5.746,5.746,0,0,1,5.8-5.691,5.746,5.746,0,0,1,5.691,5.674,5.747,5.747,0,0,1-5.8,5.691A5.746,5.746,0,0,1-2247.274,964.871Z"/><path class="d" d="M-2150.548,980.346c-.007-4.7,4.489-8.524,10.043-8.532s10.061,3.8,10.067,8.5Zm4.286-15.623a5.746,5.746,0,0,1,5.8-5.691,5.746,5.746,0,0,1,5.69,5.675,5.746,5.746,0,0,1-5.8,5.691A5.746,5.746,0,0,1-2146.262,964.723Z"/><path class="d" d="M-2175.8,980.383c-.007-4.7,4.489-8.525,10.043-8.533s10.061,3.8,10.068,8.5Zm4.286-15.623a5.746,5.746,0,0,1,5.8-5.691,5.748,5.748,0,0,1,5.691,5.674,5.746,5.746,0,0,1-5.8,5.691A5.746,5.746,0,0,1-2171.515,964.76Z"/><path class="d" d="M-2201.054,980.419c-.007-4.7,4.489-8.524,10.043-8.532s10.061,3.8,10.068,8.5Zm4.286-15.622a5.747,5.747,0,0,1,5.8-5.691,5.746,5.746,0,0,1,5.691,5.674,5.746,5.746,0,0,1-5.8,5.691A5.746,5.746,0,0,1-2196.768,964.8Z"/><path class="d" d="M-2226.307,980.456c-.007-4.7,4.489-8.524,10.043-8.532s10.061,3.8,10.068,8.5Zm4.286-15.622a5.747,5.747,0,0,1,5.8-5.691,5.746,5.746,0,0,1,5.691,5.674,5.747,5.747,0,0,1-5.8,5.691A5.746,5.746,0,0,1-2222.021,964.834Z"/><path class="d" d="M-2125.3,980.309c-.006-4.7,4.49-8.524,10.043-8.532s10.061,3.8,10.068,8.5Zm4.286-15.622a5.746,5.746,0,0,1,5.8-5.691,5.746,5.746,0,0,1,5.691,5.674,5.746,5.746,0,0,1-5.8,5.691A5.747,5.747,0,0,1-2121.01,964.687Z"/><path class="d" d="M-2024.284,980.161c-.007-4.7,4.489-8.524,10.043-8.532s10.061,3.8,10.068,8.5Zm4.286-15.622a5.746,5.746,0,0,1,5.8-5.691,5.748,5.748,0,0,1,5.691,5.674,5.746,5.746,0,0,1-5.8,5.691A5.745,5.745,0,0,1-2020,964.539Z"/><path class="d" d="M-2049.537,980.2c-.007-4.7,4.489-8.524,10.043-8.532s10.061,3.8,10.068,8.5Zm4.286-15.622a5.747,5.747,0,0,1,5.8-5.691,5.746,5.746,0,0,1,5.691,5.674,5.746,5.746,0,0,1-5.8,5.691A5.746,5.746,0,0,1-2045.251,964.576Z"/><path class="d" d="M-2074.79,980.235c-.007-4.7,4.489-8.524,10.043-8.532s10.061,3.8,10.068,8.5Zm4.286-15.622a5.746,5.746,0,0,1,5.8-5.691,5.746,5.746,0,0,1,5.691,5.674,5.747,5.747,0,0,1-5.8,5.691A5.746,5.746,0,0,1-2070.5,964.613Z"/><path class="d" d="M-2100.043,980.272c-.007-4.7,4.489-8.524,10.043-8.532s10.061,3.8,10.068,8.5Zm4.286-15.622a5.746,5.746,0,0,1,5.8-5.691,5.746,5.746,0,0,1,5.691,5.674,5.747,5.747,0,0,1-5.8,5.691A5.746,5.746,0,0,1-2095.757,964.65Z"/><path class="d" d="M-1999.031,980.125c-.007-4.7,4.489-8.524,10.043-8.533s10.06,3.8,10.067,8.5Zm4.286-15.623a5.746,5.746,0,0,1,5.8-5.691,5.746,5.746,0,0,1,5.69,5.675,5.745,5.745,0,0,1-5.8,5.69A5.745,5.745,0,0,1-1994.745,964.5Z"/><path class="d" d="M-1898.02,979.977c-.007-4.7,4.489-8.524,10.043-8.532s10.061,3.8,10.068,8.5Zm4.286-15.622a5.747,5.747,0,0,1,5.8-5.691,5.746,5.746,0,0,1,5.691,5.674,5.747,5.747,0,0,1-5.8,5.691A5.746,5.746,0,0,1-1893.734,964.355Z"/><path class="d" d="M-1923.273,980.014c-.007-4.7,4.489-8.524,10.043-8.532s10.061,3.8,10.068,8.5Zm4.286-15.622a5.746,5.746,0,0,1,5.8-5.691,5.746,5.746,0,0,1,5.691,5.674,5.747,5.747,0,0,1-5.8,5.691A5.746,5.746,0,0,1-1918.987,964.392Z"/><path class="d" d="M-1948.526,980.051c-.007-4.7,4.489-8.524,10.043-8.532s10.061,3.8,10.068,8.5Zm4.286-15.622a5.746,5.746,0,0,1,5.8-5.691,5.746,5.746,0,0,1,5.691,5.674,5.747,5.747,0,0,1-5.8,5.691A5.747,5.747,0,0,1-1944.24,964.429Z"/><path class="d" d="M-1973.779,980.088c-.007-4.7,4.49-8.524,10.043-8.532s10.061,3.8,10.068,8.5Zm4.286-15.623a5.746,5.746,0,0,1,5.8-5.69,5.746,5.746,0,0,1,5.691,5.674,5.746,5.746,0,0,1-5.8,5.691A5.747,5.747,0,0,1-1969.493,964.465Z"/><path class="d" d="M-1872.767,979.94c-.007-4.7,4.489-8.524,10.043-8.532s10.061,3.8,10.067,8.5Zm4.286-15.622a5.746,5.746,0,0,1,5.8-5.691,5.745,5.745,0,0,1,5.69,5.674,5.745,5.745,0,0,1-5.8,5.691A5.745,5.745,0,0,1-1868.481,964.318Z"/><path class="d" d="M-1771.756,979.793c-.007-4.7,4.489-8.524,10.043-8.532s10.061,3.8,10.068,8.5Zm4.286-15.622a5.746,5.746,0,0,1,5.8-5.691,5.746,5.746,0,0,1,5.691,5.674,5.747,5.747,0,0,1-5.8,5.691A5.746,5.746,0,0,1-1767.47,964.171Z"/><path class="d" d="M-1797.009,979.83c-.007-4.7,4.489-8.524,10.043-8.532s10.061,3.8,10.068,8.5Zm4.286-15.622a5.746,5.746,0,0,1,5.8-5.691,5.746,5.746,0,0,1,5.691,5.674,5.747,5.747,0,0,1-5.8,5.691A5.747,5.747,0,0,1-1792.723,964.208Z"/><path class="d" d="M-1822.262,979.867c-.007-4.7,4.49-8.524,10.043-8.532s10.061,3.8,10.068,8.5Zm4.286-15.623a5.747,5.747,0,0,1,5.8-5.691,5.747,5.747,0,0,1,5.691,5.675,5.747,5.747,0,0,1-5.8,5.691A5.747,5.747,0,0,1-1817.976,964.244Z"/><path class="d" d="M-1847.515,979.9c-.006-4.7,4.49-8.525,10.044-8.533s10.06,3.8,10.067,8.5Zm4.287-15.623a5.746,5.746,0,0,1,5.8-5.691,5.746,5.746,0,0,1,5.69,5.674,5.745,5.745,0,0,1-5.8,5.691A5.745,5.745,0,0,1-1843.228,964.281Z"/><path class="d" d="M-1746.5,979.756c-.007-4.7,4.489-8.524,10.043-8.532s10.061,3.8,10.068,8.5Zm4.286-15.622a5.746,5.746,0,0,1,5.8-5.691,5.746,5.746,0,0,1,5.691,5.674,5.747,5.747,0,0,1-5.8,5.691A5.746,5.746,0,0,1-1742.217,964.134Z"/></g></g><text class="e" transform="translate(313.597 1269.829)"><tspan x="0" y="77">2%</tspan></text><text class="f" transform="translate(314.498 1361.251)"><tspan x="0" y="18">of users find </tspan><tspan x="0" y="40">the site hard </tspan><tspan x="0" y="62">to navigate</tspan></text><text class="e" transform="translate(1186.045 1347.051)"><tspan x="-73.529" y="0">37%</tspan></text><text class="f" transform="translate(1111.477 1361.158)"><tspan x="0" y="18">of users find the </tspan><tspan x="0" y="40">site easy to </tspan><tspan x="0" y="62">navigate</tspan></text><path class="a" d="M-2375.332,915.184h-113.076a1,1,0,0,1-1-1,1,1,0,0,1,1-1h112.076v-41a1,1,0,0,1,1-1h11.924a1,1,0,0,1,1,1,1,1,0,0,1-1,1h-10.924v41A1,1,0,0,1-2375.332,915.184Z" transform="translate(2805 442.682)"/><g transform="translate(2805 441.682)"><circle class="d" cx="5" cy="5" r="5" transform="translate(-1721.44 937.975)"/></g><path class="d" d="M-1701.8,943.014h0l-11.642-.029a1,1,0,0,1-1-1,1,1,0,0,1,1-1h0l10.642.026.071-29a1,1,0,0,1,.295-.706,1,1,0,0,1,.705-.291h0l154.342.379a1,1,0,0,1,1,1,1,1,0,0,1-1,1h0l-153.342-.376-.071,29A1,1,0,0,1-1701.8,943.014Z" transform="translate(2805 442.682)"/></g></svg>