<svg xmlns="http://www.w3.org/2000/svg" width="282.435" height="238.87" viewBox="0 0 282.435 238.87"><defs><style>.a,.e{fill:#2e3e5a;}.a{font-size:24px;font-family:OpenSans-SemiboldItalic, Open Sans;font-weight:600;font-style:italic;}.b{fill:#96b7df;}.c{fill:#2e6cb9;}.d{fill:#fff;}</style></defs><g transform="translate(-950.364 -2406.088)"><text class="a" transform="translate(1185.799 2614.754)"><tspan x="0" y="0">25%</tspan></text><path class="b" d="M-1574.871,2182.419H-1815.35a1.08,1.08,0,0,1-1.029-1.125,1.078,1.078,0,0,1,1.029-1.123h240.479a1.078,1.078,0,0,1,1.028,1.123A1.08,1.08,0,0,1-1574.871,2182.419Z" transform="translate(2805 442.682)"/><path class="c" d="M-1814.321,2184.294h36.93c1.137,0,2.059-1.342,2.059-3s-.922-3-2.059-3h-36.93c-1.137,0-2.058,1.342-2.058,3S-1815.458,2184.294-1814.321,2184.294Z" transform="translate(2805 442.682)"/><path class="c" d="M-1813.02,2181.609a20.666,20.666,0,0,1-20.666,20.667,20.667,20.667,0,0,1-20.668-20.667,20.669,20.669,0,0,1,20.668-20.666A20.668,20.668,0,0,1-1813.02,2181.609Z" transform="translate(2805 442.682)"/><path class="d" d="M-1816.678,2181.609a17.009,17.009,0,0,1-17.008,17.01,17.01,17.01,0,0,1-17.01-17.01,17.011,17.011,0,0,1,17.01-17.009A17.01,17.01,0,0,1-1816.678,2181.609Z" transform="translate(2805 442.682)"/><path class="e" d="M-1835.885,2186.865s.028-9.21-.019-10.164l3.383-.006,0,1.439a3.36,3.36,0,0,1,3.046-1.684c2.226,0,3.9,1.446,3.9,4.569l.011,5.827-3.383.006-.01-5.436c0-1.366-.494-2.3-1.718-2.3a1.852,1.852,0,0,0-1.734,1.239,2.3,2.3,0,0,0-.109.825l.01,5.675Zm-5.256.009-.018-10.164,3.382-.006.019,10.164Zm1.649-11.554a1.752,1.752,0,0,1-1.873-1.753,1.764,1.764,0,0,1,1.911-1.759,1.757,1.757,0,0,1,1.9,1.752,1.764,1.764,0,0,1-1.911,1.76Z" transform="translate(2805 442.682)"/><text class="a" transform="translate(1185.799 2493.435)"><tspan x="0" y="0">63%</tspan></text><path class="b" d="M-1815.35,2059.149h240.479a1.08,1.08,0,0,0,1.028-1.125,1.08,1.08,0,0,0-1.028-1.124H-1815.35a1.08,1.08,0,0,0-1.029,1.124A1.08,1.08,0,0,0-1815.35,2059.149Z" transform="translate(2805 442.682)"/><path class="c" d="M-1815.35,2061.025h117c1.136,0,2.058-1.345,2.058-3s-.922-3-2.058-3h-117c-1.136,0-2.058,1.344-2.058,3S-1816.486,2061.025-1815.35,2061.025Z" transform="translate(2805 442.682)"/><text class="a" transform="translate(1185.799 2555.836)"><tspan x="0" y="0">56%</tspan></text><path class="b" d="M-1815.35,2119.534h240.479a1.079,1.079,0,0,0,1.028-1.123,1.08,1.08,0,0,0-1.028-1.125H-1815.35a1.08,1.08,0,0,0-1.029,1.125A1.079,1.079,0,0,0-1815.35,2119.534Z" transform="translate(2805 442.682)"/><path class="c" d="M-1815.35,2121.41H-1708.5c1.137,0,2.059-1.345,2.059-3s-.922-3-2.059-3H-1815.35c-1.136,0-2.058,1.344-2.058,3S-1816.486,2121.41-1815.35,2121.41Z" transform="translate(2805 442.682)"/><text class="a" transform="translate(1185.799 2432.088)"><tspan x="0" y="0">76%</tspan></text><path class="b" d="M-1815.35,1997.77h240.479a1.079,1.079,0,0,0,1.028-1.123,1.08,1.08,0,0,0-1.028-1.125H-1815.35a1.08,1.08,0,0,0-1.029,1.125A1.079,1.079,0,0,0-1815.35,1997.77Z" transform="translate(2805 442.682)"/><path class="c" d="M-1815.35,1999.646h140.114c1.136,0,2.058-1.345,2.058-3s-.922-3-2.058-3H-1815.35c-1.136,0-2.058,1.344-2.058,3S-1816.486,1999.646-1815.35,1999.646Z" transform="translate(2805 442.682)"/><path class="c" d="M-1813.02,1995.978a20.666,20.666,0,0,1-20.666,20.667,20.667,20.667,0,0,1-20.668-20.667,20.669,20.669,0,0,1,20.668-20.666A20.668,20.668,0,0,1-1813.02,1995.978Z" transform="translate(2805 442.682)"/><path class="d" d="M-1816.678,1995.978a17.009,17.009,0,0,1-17.008,17.01,17.01,17.01,0,0,1-17.01-17.01,17.011,17.011,0,0,1,17.01-17.009A17.01,17.01,0,0,1-1816.678,1995.978Z" transform="translate(2805 442.682)"/><path class="e" d="M-1833.831,1992.065l.043.68-.688-.082a11.181,11.181,0,0,1-6.548-3.208l-.908-.9-.233.667a4.009,4.009,0,0,0,.86,4.106c.55.582.427.665-.522.32a1.618,1.618,0,0,0-.647-.151,4.991,4.991,0,0,0,.5,1.858,4.433,4.433,0,0,0,1.886,1.773l.674.318-.8.014c-.77,0-.8.015-.715.306a4.154,4.154,0,0,0,2.575,2.271l.852.291-.741.445a7.744,7.744,0,0,1-3.682,1.035,4.042,4.042,0,0,0-1.126.113,10.5,10.5,0,0,0,2.654,1.216,11.6,11.6,0,0,0,9.015-1.044,12.058,12.058,0,0,0,4.567-5.392,14.348,14.348,0,0,0,.927-4.165c0-.638.04-.721.807-1.486a9.027,9.027,0,0,0,.961-1.07c.138-.264.123-.264-.577-.026-1.168.418-1.333.363-.757-.263a4.028,4.028,0,0,0,.932-1.487c0-.041-.206.029-.439.154a7.7,7.7,0,0,1-1.209.474l-.742.237-.674-.457a5.6,5.6,0,0,0-1.169-.608,4.7,4.7,0,0,0-2.406.06A3.973,3.973,0,0,0-1833.831,1992.065Z" transform="translate(2805 442.682)"/><path class="c" d="M-1813.02,2057.4a20.666,20.666,0,0,1-20.666,20.666,20.667,20.667,0,0,1-20.668-20.666,20.67,20.67,0,0,1,20.668-20.667A20.669,20.669,0,0,1-1813.02,2057.4Z" transform="translate(2805 442.682)"/><path class="d" d="M-1816.678,2057.4a17.009,17.009,0,0,1-17.008,17.009,17.01,17.01,0,0,1-17.01-17.009,17.012,17.012,0,0,1,17.01-17.01A17.011,17.011,0,0,1-1816.678,2057.4Z" transform="translate(2805 442.682)"/><path class="e" d="M-1833.11,2065.207l-.016-8.544,2.359,0,.307-2.945-2.671,0v-1.473c0-.768.071-1.18,1.174-1.182l1.475,0-.006-2.945-2.359,0c-2.833,0-3.828,1.435-3.824,3.837l0,1.768-1.766,0,.005,2.944,1.766,0,.015,8.544Z" transform="translate(2805 442.682)"/><path class="c" d="M-1813.3,2117.642a20.666,20.666,0,0,1-20.665,20.667,20.667,20.667,0,0,1-20.668-20.667,20.669,20.669,0,0,1,20.668-20.666A20.668,20.668,0,0,1-1813.3,2117.642Z" transform="translate(2805 442.682)"/><path class="d" d="M-1816.96,2117.642a17.01,17.01,0,0,1-17.009,17.01,17.01,17.01,0,0,1-17.01-17.01,17.011,17.011,0,0,1,17.01-17.009A17.011,17.011,0,0,1-1816.96,2117.642Z" transform="translate(2805 442.682)"/><path class="e" d="M-1833.957,2124.444c-.061,0-6.111.006-7.616-.393a2.429,2.429,0,0,1-1.725-1.714,25.334,25.334,0,0,1-.417-4.677,25.293,25.293,0,0,1,.4-4.678,2.436,2.436,0,0,1,1.719-1.721c1.5-.405,7.553-.42,7.614-.42s6.111-.007,7.616.392a2.438,2.438,0,0,1,1.726,1.715,25.294,25.294,0,0,1,.416,4.677,25.359,25.359,0,0,1-.4,4.678,2.435,2.435,0,0,1-1.72,1.721C-1827.846,2124.428-1833.9,2124.444-1833.957,2124.444Zm-1.886-9.89.011,6.183,4.867-3.1Z" transform="translate(2805 442.682)"/></g></svg>