<svg xmlns="http://www.w3.org/2000/svg" width="196.742" height="196.742" viewBox="0 0 196.742 196.742"><defs><style>.a{fill:#ffd964;}.b{fill:#2e6cb9;}.c{fill:#fff;}.d,.e{fill:#2e3e5a;}.d{font-size:48px;font-family:OpenSans-Bold, Open Sans;font-weight:700;}.e{font-size:12px;font-family:OpenSans, Open Sans;}</style></defs><g transform="translate(-1030.148 -1520.866)"><g transform="translate(2805 442.682)"><path class="a" d="M-1676.481,1176.555l98.132-6.862c.151,2.168.239,4.689.239,6.862Z"/></g><g transform="translate(2805 442.682)"><path class="a" d="M-1676.481,1176.555l70.762-68.335a95.371,95.371,0,0,1,27.37,61.473Z"/></g><path class="b" d="M-1676.481,1176.555h98.371a98.371,98.371,0,0,1-98.371,98.371,98.371,98.371,0,0,1-98.371-98.371,98.371,98.371,0,0,1,98.371-98.371c28.251,0,51.138,9.714,70.762,30.036Z" transform="translate(2805 442.682)"/><circle class="c" cx="67.071" cy="67.071" r="67.071" transform="translate(1061.448 1552.165)"/><text class="d" transform="translate(1077.816 1565.155)"><tspan x="-49.02" y="51">88%</tspan></text><text class="e" transform="translate(1128.519 1637.099)"><tspan x="-40.365" y="0">of participants</tspan><tspan x="-28.983" y="15">found the </tspan><tspan x="-25.614" y="30">task easy</tspan></text></g></svg>