<svg xmlns="http://www.w3.org/2000/svg" xmlns:xlink="http://www.w3.org/1999/xlink" width="360" height="104" viewBox="0 0 360 104"><defs><clipPath id="b"><rect width="360" height="104"/></clipPath></defs><g id="a" clip-path="url(#b)"><rect width="230.5" height="28.344" transform="translate(1 2)" fill="#fff"/><rect width="230.5" height="28.344" transform="translate(1 37.828)" fill="#fff"/><rect width="230.5" height="28.344" transform="translate(1 73.656)" fill="#fff"/><path d="M0,0H47.98A15.172,15.172,0,0,1,63.152,15.172v0A15.172,15.172,0,0,1,47.98,30.344H0a0,0,0,0,1,0,0V0A0,0,0,0,1,0,0Z" transform="translate(1 1)" fill="#e4e6ea"/><path d="M0,0H47.98A15.172,15.172,0,0,1,63.152,15.172v0A15.172,15.172,0,0,1,47.98,30.344H0a0,0,0,0,1,0,0V0A0,0,0,0,1,0,0Z" transform="translate(1 36.828)" fill="#e4e6ea"/><path d="M0,0H47.98A15.172,15.172,0,0,1,63.152,15.172v0A15.172,15.172,0,0,1,47.98,30.344H0a0,0,0,0,1,0,0V0A0,0,0,0,1,0,0Z" transform="translate(1 72.656)" fill="#e4e6ea"/><path d="M2,0A2,2,0,0,0,0,2V25.892a2,2,0,0,0,2,2H225.5a2,2,0,0,0,2-2V2a2,2,0,0,0-2-2H2M2-2H225.5a4,4,0,0,1,4,4V25.892a4,4,0,0,1-4,4H2a4,4,0,0,1-4-4V2A4,4,0,0,1,2-2Z" transform="translate(2.371 2)" fill="#2e3e5a"/><path d="M2,0A2,2,0,0,0,0,2V25.892a2,2,0,0,0,2,2H225.5a2,2,0,0,0,2-2V2a2,2,0,0,0-2-2H2M2-2H225.5a4,4,0,0,1,4,4V25.892a4,4,0,0,1-4,4H2a4,4,0,0,1-4-4V2A4,4,0,0,1,2-2Z" transform="translate(2.371 37.828)" fill="#2e3e5a"/><path d="M2,0A2,2,0,0,0,0,2V25.892a2,2,0,0,0,2,2H225.5a2,2,0,0,0,2-2V2a2,2,0,0,0-2-2H2M2-2H225.5a4,4,0,0,1,4,4V25.892a4,4,0,0,1-4,4H2a4,4,0,0,1-4-4V2A4,4,0,0,1,2-2Z" transform="translate(2.371 73.656)" fill="#2e3e5a"/><path d="M5.721,7.592,0,13.3l1.885,1.881L9.491,7.592,1.885,0,0,1.881Z" transform="translate(14.179 9)" fill="#2e3e5a"/><path d="M5.721,7.592,0,13.3l1.885,1.881L9.491,7.592,1.885,0,0,1.881Z" transform="translate(14.179 44.828)" fill="#2e3e5a"/><path d="M5.721,7.592,0,13.3l1.885,1.881L9.491,7.592,1.885,0,0,1.881Z" transform="translate(14.179 80.656)" fill="#2e3e5a"/><path d="M138.577,2.246,0,2,0-2l138.58.246Z" transform="translate(72.92 16.5)" fill="#2e3e5a"/><path d="M138.577,2.246,0,2,0-2l138.58.246Z" transform="translate(72.92 52.328)" fill="#2e3e5a"/><path d="M138.577,2.246,0,2,0-2l138.58.246Z" transform="translate(72.92 88.156)" fill="#2e3e5a"/><path transform="translate(14.5 2.959)" fill="#2e3e5a"/></g></svg>