<svg xmlns="http://www.w3.org/2000/svg" xmlns:xlink="http://www.w3.org/1999/xlink" width="360" height="109" viewBox="0 0 360 109"><defs><clipPath id="b"><rect width="360" height="109"/></clipPath></defs><g id="a" clip-path="url(#b)"><rect width="230.5" height="105.512" rx="2" transform="translate(1.839 2)" fill="#fff"/><path d="M2,0A2,2,0,0,0,0,2V103.512a2,2,0,0,0,2,2H228.5a2,2,0,0,0,2-2V2a2,2,0,0,0-2-2H2M2-2H228.5a4,4,0,0,1,4,4V103.512a4,4,0,0,1-4,4H2a4,4,0,0,1-4-4V2A4,4,0,0,1,2-2Z" transform="translate(1.839 2)" fill="#2e3e5a"/><path d="M127.22,1H0V-1H127.22Z" transform="translate(87.5 34.104)" fill="#2e3e5a"/><path d="M127.22,1H0V-1H127.22Z" transform="translate(87.5 65.495)" fill="#2e3e5a"/><path d="M112,2H0V-2H112Z" transform="translate(87.5 15.909)" fill="#2e3e5a"/><path d="M127.22,1H0V-1H127.22Z" transform="translate(87.5 49.3)" fill="#2e3e5a"/><path d="M127.22,1H0V-1H127.22Z" transform="translate(87.5 80.69)" fill="#2e3e5a"/><path d="M127.22,1H0V-1H127.22Z" transform="translate(87.5 95.886)" fill="#2e3e5a"/><rect width="75.5" height="105.512" rx="2" transform="translate(2 2)" fill="#abb1bd"/><circle cx="19.295" cy="19.295" r="19.295" transform="translate(20 30.004)" fill="#fff"/><path d="M57,2H0V-2H57Z" transform="translate(11.5 15.909)" fill="#2e3e5a"/></g></svg>