<svg width="358" height="123" viewBox="0 0 358 123" fill="none" xmlns="http://www.w3.org/2000/svg">
<line y1="1" x2="149" y2="1" stroke="#2E3E5A" stroke-width="2"/>
<line y1="122" x2="149" y2="122" stroke="#2E3E5A" stroke-width="2"/>
<rect x="6.5" y="15.875" width="136" height="39.5" rx="19.75" fill="white"/>
<rect x="6.5" y="15.875" width="136" height="39.5" rx="19.75" stroke="#2E3E5A" stroke-width="3"/>
<rect x="6.5" y="15.875" width="136" height="39.5" rx="19.75" stroke="black" stroke-opacity="0.2" stroke-width="3"/>
<rect x="6.5" y="15.875" width="136" height="39.5" rx="19.75" stroke="black" stroke-opacity="0.2" stroke-width="3"/>
<line x1="25.5" y1="35.125" x2="123.5" y2="35.125" stroke="#2E3E5A" stroke-width="3"/>
<line x1="25.5" y1="35.125" x2="123.5" y2="35.125" stroke="black" stroke-opacity="0.2" stroke-width="3"/>
<line x1="25.5" y1="35.125" x2="123.5" y2="35.125" stroke="black" stroke-opacity="0.2" stroke-width="3"/>
<rect x="6.5" y="67.625" width="136" height="39.5" rx="19.75" fill="white"/>
<rect x="6.5" y="67.625" width="136" height="39.5" rx="19.75" stroke="#2E3E5A" stroke-width="3"/>
<rect x="6.5" y="67.625" width="136" height="39.5" rx="19.75" stroke="black" stroke-opacity="0.2" stroke-width="3"/>
<rect x="6.5" y="67.625" width="136" height="39.5" rx="19.75" stroke="black" stroke-opacity="0.2" stroke-width="3"/>
<line x1="25.5" y1="86.875" x2="123.5" y2="86.875" stroke="#2E3E5A" stroke-width="3"/>
<line x1="25.5" y1="86.875" x2="123.5" y2="86.875" stroke="black" stroke-opacity="0.2" stroke-width="3"/>
<line x1="25.5" y1="86.875" x2="123.5" y2="86.875" stroke="black" stroke-opacity="0.2" stroke-width="3"/>
</svg>
