<svg xmlns="http://www.w3.org/2000/svg" xmlns:xlink="http://www.w3.org/1999/xlink" width="360" height="130" viewBox="0 0 360 130"><defs><clipPath id="b"><rect width="360" height="130"/></clipPath></defs><g id="a" clip-path="url(#b)"><rect width="360" height="108.594" rx="2" transform="translate(0 22.406)" fill="#abb1bd"/><rect width="325" height="79.188" rx="2" transform="translate(18.176 3)" fill="#fff"/><path d="M2,0A2,2,0,0,0,0,2V77.188a2,2,0,0,0,2,2H323a2,2,0,0,0,2-2V2a2,2,0,0,0-2-2H2M2-2H323a4,4,0,0,1,4,4V77.188a4,4,0,0,1-4,4H2a4,4,0,0,1-4-4V2A4,4,0,0,1,2-2Z" transform="translate(18.176 3)" fill="#2e3e5a"/><rect width="170" height="79.188" rx="2" transform="translate(173.176 3)" fill="#e4e6ea"/><rect width="71" height="22" rx="6" transform="translate(16 95)" fill="#fff"/><path d="M6,2A4,4,0,0,0,2,6V16a4,4,0,0,0,4,4H65a4,4,0,0,0,4-4V6a4,4,0,0,0-4-4H6M6,0H65a6,6,0,0,1,6,6V16a6,6,0,0,1-6,6H6a6,6,0,0,1-6-6V6A6,6,0,0,1,6,0Z" transform="translate(16 95)" fill="#2e3e5a"/><path d="M35.506,1.5H0v-3H35.506Z" transform="translate(24.5 106.5)" fill="#2e3e5a"/><g transform="translate(-1)"><rect width="71" height="22" rx="6" transform="translate(102 95)" fill="#fff"/><path d="M6,2A4,4,0,0,0,2,6V16a4,4,0,0,0,4,4H65a4,4,0,0,0,4-4V6a4,4,0,0,0-4-4H6M6,0H65a6,6,0,0,1,6,6V16a6,6,0,0,1-6,6H6a6,6,0,0,1-6-6V6A6,6,0,0,1,6,0Z" transform="translate(102 95)" fill="#2e3e5a"/><path d="M35.506,1.5H0v-3H35.506Z" transform="translate(110.5 106.5)" fill="#2e3e5a"/></g><g transform="translate(6)"><rect width="71" height="22" rx="6" transform="translate(181 95)" fill="#fff"/><path d="M6,2A4,4,0,0,0,2,6V16a4,4,0,0,0,4,4H65a4,4,0,0,0,4-4V6a4,4,0,0,0-4-4H6M6,0H65a6,6,0,0,1,6,6V16a6,6,0,0,1-6,6H6a6,6,0,0,1-6-6V6A6,6,0,0,1,6,0Z" transform="translate(181 95)" fill="#2e3e5a"/><path d="M35.506,1.5H0v-3H35.506Z" transform="translate(189.5 106.5)" fill="#2e3e5a"/></g><rect width="71" height="22" rx="6" transform="translate(272 95)" fill="#fff"/><path d="M6,2A4,4,0,0,0,2,6V16a4,4,0,0,0,4,4H65a4,4,0,0,0,4-4V6a4,4,0,0,0-4-4H6M6,0H65a6,6,0,0,1,6,6V16a6,6,0,0,1-6,6H6a6,6,0,0,1-6-6V6A6,6,0,0,1,6,0Z" transform="translate(272 95)" fill="#2e3e5a"/><path d="M35.506,1.5H0v-3H35.506Z" transform="translate(280.5 106.5)" fill="#2e3e5a"/></g></svg>