<svg xmlns="http://www.w3.org/2000/svg" xmlns:xlink="http://www.w3.org/1999/xlink" width="360" height="136" viewBox="0 0 360 136"><defs><clipPath id="b"><rect width="360" height="136"/></clipPath></defs><g id="a" clip-path="url(#b)"><rect width="132" height="132" rx="2" transform="translate(2 2)" fill="#fff"/><path d="M2,0A2,2,0,0,0,0,2V130a2,2,0,0,0,2,2H130a2,2,0,0,0,2-2V2a2,2,0,0,0-2-2H2M2-2H130a4,4,0,0,1,4,4V130a4,4,0,0,1-4,4H2a4,4,0,0,1-4-4V2A4,4,0,0,1,2-2Z" transform="translate(2 2)" fill="#2e3e5a"/><rect width="132" height="37" transform="translate(2 2)" fill="#e4e6ea"/><path d="M51.73,1.5H14.145v-3H51.73Z" transform="translate(34.479 20.12)" fill="#2e3e5a"/><rect width="73.753" height="26.648" transform="translate(11.747 49.352)" fill="#e4e6ea"/><path d="M2,2V24.648H71.753V2H2M0,0H73.753V26.648H0Z" transform="translate(11.747 49.352)" fill="#2e3e5a"/><path d="M49.552,1H0V-1H49.552Z" transform="translate(18.448 57.88)" fill="#2e3e5a"/><path d="M73,1H0V-1H73Z" transform="translate(12.5 95.88)" fill="#2e3e5a"/><path d="M73,1H0V-1H73Z" transform="translate(12.5 87.668)" fill="#2e3e5a"/><path d="M40.542,1H0V-1H40.542Z" transform="translate(18.448 64.753)" fill="#2e3e5a"/><path d="M59.727,1H0V-1H59.727Z" transform="translate(12.5 104.092)" fill="#2e3e5a"/><g transform="translate(16.543 10.613)"><path d="M1.231,19.014h0a1.241,1.241,0,0,1-1.065-.6,1.177,1.177,0,0,1,0-1.2L10.015.6A1.235,1.235,0,0,1,11.03,0h.05a1.25,1.25,0,0,1,1.073.6l9.86,16.61a1.177,1.177,0,0,1,0,1.2,1.242,1.242,0,0,1-1.067.6H1.231Zm9.8-4.5a1.073,1.073,0,1,0,1.148,1.071A1.113,1.113,0,0,0,11.027,14.518Zm0-10.349a1.587,1.587,0,0,0-1.2.566,1.542,1.542,0,0,0-.372.859,1.412,1.412,0,0,0,0,.256l.653,6.982a.835.835,0,0,0,.267.534.959.959,0,0,0,.657.255h0a.967.967,0,0,0,.6-.209.838.838,0,0,0,.32-.58L12.6,5.85a1.473,1.473,0,0,0-.346-1.083,1.585,1.585,0,0,0-1.227-.6h-.008Z" transform="translate(0 0)" fill="#2e3e5a"/><path d="M1.231,19.514a1.743,1.743,0,0,1-1.5-.843,1.676,1.676,0,0,1,0-1.711L9.585.349A1.733,1.733,0,0,1,11.006-.5h.073a1.751,1.751,0,0,1,1.5.849l9.86,16.61a1.676,1.676,0,0,1,0,1.712,1.744,1.744,0,0,1-1.5.842ZM11.049.5a.737.737,0,0,0-.6.357L.594,17.47a.677.677,0,0,0,0,.69.738.738,0,0,0,.615.353H20.939a.742.742,0,0,0,.641-.353.677.677,0,0,0,0-.691L11.722.86A.747.747,0,0,0,11.08.5h-.031ZM11.027,17.16a1.613,1.613,0,0,1-1.649-1.57,1.591,1.591,0,0,1,1.245-1.524,1.443,1.443,0,0,1-.595-.334,1.334,1.334,0,0,1-.424-.854L8.952,5.9a1.9,1.9,0,0,1,0-.349A2.039,2.039,0,0,1,9.442,4.41a2.087,2.087,0,0,1,1.581-.741h0a2.084,2.084,0,0,1,1.619.782A1.972,1.972,0,0,1,13.1,5.891V5.9l-.653,6.982a1.334,1.334,0,0,1-.507.926,1.447,1.447,0,0,1-.512.262,1.59,1.59,0,0,1,1.245,1.524A1.612,1.612,0,0,1,11.027,17.16Zm0-2.142a.575.575,0,1,0,.648.571A.615.615,0,0,0,11.027,15.018Zm0-10.349a1.088,1.088,0,0,0-.821.392,1.044,1.044,0,0,0-.254.58.906.906,0,0,0,0,.162l.654,6.983a.336.336,0,0,0,.109.214.476.476,0,0,0,.609.022.34.34,0,0,0,.135-.237l.653-6.977a.973.973,0,0,0-.236-.725,1.087,1.087,0,0,0-.84-.414Z" transform="translate(0 0)" fill="rgba(0,0,0,0)"/></g></g></svg>