<svg width="358" height="60" viewBox="0 0 358 60" fill="none" xmlns="http://www.w3.org/2000/svg">
<path d="M2.2975 1H262.489C262.643 1 262.944 1.10625 263.26 1.62302C263.565 2.12253 263.786 2.87621 263.786 3.76176V56.2382C263.786 57.1238 263.565 57.8775 263.26 58.377C262.944 58.8937 262.643 59 262.489 59H2.2975C2.14355 59 1.84195 58.8937 1.52634 58.377C1.22126 57.8775 1 57.1238 1 56.2382V3.76176C1 2.87621 1.22126 2.12254 1.52634 1.62302C1.84195 1.10626 2.14355 1 2.2975 1Z" fill="#E4E6EA"/>
<path d="M2.2975 1H262.489C262.643 1 262.944 1.10625 263.26 1.62302C263.565 2.12253 263.786 2.87621 263.786 3.76176V56.2382C263.786 57.1238 263.565 57.8775 263.26 58.377C262.944 58.8937 262.643 59 262.489 59H2.2975C2.14355 59 1.84195 58.8937 1.52634 58.377C1.22126 57.8775 1 57.1238 1 56.2382V3.76176C1 2.87621 1.22126 2.12254 1.52634 1.62302C1.84195 1.10626 2.14355 1 2.2975 1Z" stroke="#2E3E5A" stroke-width="2"/>
<path d="M2.2975 1H262.489C262.643 1 262.944 1.10625 263.26 1.62302C263.565 2.12253 263.786 2.87621 263.786 3.76176V56.2382C263.786 57.1238 263.565 57.8775 263.26 58.377C262.944 58.8937 262.643 59 262.489 59H2.2975C2.14355 59 1.84195 58.8937 1.52634 58.377C1.22126 57.8775 1 57.1238 1 56.2382V3.76176C1 2.87621 1.22126 2.12254 1.52634 1.62302C1.84195 1.10626 2.14355 1 2.2975 1Z" stroke="black" stroke-opacity="0.2" stroke-width="2"/>
<path d="M2.2975 1H262.489C262.643 1 262.944 1.10625 263.26 1.62302C263.565 2.12253 263.786 2.87621 263.786 3.76176V56.2382C263.786 57.1238 263.565 57.8775 263.26 58.377C262.944 58.8937 262.643 59 262.489 59H2.2975C2.14355 59 1.84195 58.8937 1.52634 58.377C1.22126 57.8775 1 57.1238 1 56.2382V3.76176C1 2.87621 1.22126 2.12254 1.52634 1.62302C1.84195 1.10626 2.14355 1 2.2975 1Z" stroke="black" stroke-opacity="0.2" stroke-width="2"/>
<path d="M237.913 34.681L234.606 35.5168L235.388 32.0019L237.913 34.681ZM241.781 24.9973L244.427 27.8135L240.129 32.3884L237.483 29.5722L241.781 24.9973ZM244.215 22.4214L246.86 25.2368L246.611 25.5019L243.965 22.6864L244.215 22.4214Z" fill="#2E3E5A"/>
<path d="M237.913 34.681L234.606 35.5168L235.388 32.0019L237.913 34.681ZM241.781 24.9973L244.427 27.8135L240.129 32.3884L237.483 29.5722L241.781 24.9973ZM244.215 22.4214L246.86 25.2368L246.611 25.5019L243.965 22.6864L244.215 22.4214Z" stroke="#2E3E5A" stroke-width="2"/>
<path d="M237.913 34.681L234.606 35.5168L235.388 32.0019L237.913 34.681ZM241.781 24.9973L244.427 27.8135L240.129 32.3884L237.483 29.5722L241.781 24.9973ZM244.215 22.4214L246.86 25.2368L246.611 25.5019L243.965 22.6864L244.215 22.4214Z" stroke="black" stroke-opacity="0.2" stroke-width="2"/>
<path d="M237.913 34.681L234.606 35.5168L235.388 32.0019L237.913 34.681ZM241.781 24.9973L244.427 27.8135L240.129 32.3884L237.483 29.5722L241.781 24.9973ZM244.215 22.4214L246.86 25.2368L246.611 25.5019L243.965 22.6864L244.215 22.4214Z" stroke="black" stroke-opacity="0.2" stroke-width="2"/>
<path d="M13.8879 30H217.216" stroke="#2E3E5A" stroke-width="4"/>
</svg>
