<svg xmlns="http://www.w3.org/2000/svg" xmlns:xlink="http://www.w3.org/1999/xlink" width="360" height="92" viewBox="0 0 360 92"><defs><clipPath id="b"><rect width="360" height="92"/></clipPath></defs><g id="a" clip-path="url(#b)"><rect width="230.5" height="87.8" rx="2" transform="translate(2 2)" fill="#fff"/><path d="M2,0A2,2,0,0,0,0,2V85.8a2,2,0,0,0,2,2H228.5a2,2,0,0,0,2-2V2a2,2,0,0,0-2-2H2M2-2H228.5a4,4,0,0,1,4,4V85.8a4,4,0,0,1-4,4H2a4,4,0,0,1-4-4V2A4,4,0,0,1,2-2Z" transform="translate(2 2)" fill="#2e3e5a"/><rect width="209" height="20" transform="translate(13 13)" fill="#fff"/><path d="M2,2V18H207V2H2M0,0H209V20H0Z" transform="translate(13 13)" fill="#2e3e5a"/><rect width="209" height="20" transform="translate(13 39)" fill="#fff"/><path d="M2,2V18H207V2H2M0,0H209V20H0Z" transform="translate(13 39)" fill="#2e3e5a"/><g transform="translate(-914 -1807.647)"><rect width="37.807" height="15.995" rx="7.998" transform="translate(927 1874)" fill="#2e3e5a"/><path d="M19.865,1.5H0v-3H19.865Z" transform="translate(935.854 1881.998)" fill="#fff"/></g></g></svg>