<svg width="358" height="140" viewBox="0 0 358 140" fill="none" xmlns="http://www.w3.org/2000/svg">
<path d="M230.489 0.40271H3.96114C2.32575 0.40271 1 1.41996 1 2.6748V136.728C1 137.983 2.32575 139 3.96114 139H230.489C232.124 139 233.45 137.983 233.45 136.728V2.6748C233.45 1.41996 232.124 0.40271 230.489 0.40271Z" fill="#E4E6EA"/>
<path d="M230.489 0.40271H3.96114C2.32575 0.40271 1 0.722551 1 1.1171V43.2658C1 43.6604 2.32575 43.9802 3.96114 43.9802H230.489C232.124 43.9802 233.45 43.6604 233.45 43.2658V1.1171C233.45 0.722551 232.124 0.40271 230.489 0.40271Z" fill="#ABB1BD"/>
<path d="M4.41504 1H229.585C230.603 1.00001 231.489 1.31747 232.099 1.78516C232.707 2.25195 233 2.82721 233 3.38672V136.613C233 137.173 232.707 137.748 232.099 138.215C231.489 138.683 230.603 139 229.585 139H4.41504C3.39668 139 2.51099 138.683 1.90137 138.215C1.29298 137.748 1.00013 137.173 1 136.613V3.38672C1.00013 2.82721 1.29297 2.25195 1.90137 1.78516C2.43486 1.37588 3.17989 1.08182 4.04004 1.01465L4.41504 1Z" stroke="#2E3E5A" stroke-width="2"/>
<path d="M22.4714 22.1914H211.5" stroke="#2E3E5A" stroke-width="4"/>
<path d="M22.4714 22.1914H211.5" stroke="black" stroke-opacity="0.2" stroke-width="4"/>
<path d="M22.4714 22.1914H211.5" stroke="black" stroke-opacity="0.2" stroke-width="4"/>
<path d="M22.4714 62.6799H69.8873" stroke="#2E3E5A" stroke-width="3"/>
<path d="M22.4714 62.6799H69.8873" stroke="black" stroke-opacity="0.2" stroke-width="3"/>
<path d="M22.4714 62.6799H69.8873" stroke="black" stroke-opacity="0.2" stroke-width="3"/>
<path d="M85.0278 62.6799H211.5" stroke="#2E3E5A" stroke-width="3"/>
<path d="M85.0278 62.6799H211.5" stroke="black" stroke-opacity="0.2" stroke-width="3"/>
<path d="M85.0278 62.6799H211.5" stroke="black" stroke-opacity="0.2" stroke-width="3"/>
<path d="M22.4714 88.9299H69.8873" stroke="#2E3E5A" stroke-width="3"/>
<path d="M22.4714 88.9299H69.8873" stroke="black" stroke-opacity="0.2" stroke-width="3"/>
<path d="M22.4714 88.9299H69.8873" stroke="black" stroke-opacity="0.2" stroke-width="3"/>
<path d="M85.0278 88.9299H211.5" stroke="#2E3E5A" stroke-width="3"/>
<path d="M85.0278 88.9299H211.5" stroke="black" stroke-opacity="0.2" stroke-width="3"/>
<path d="M85.0278 88.9299H211.5" stroke="black" stroke-opacity="0.2" stroke-width="3"/>
<path d="M22.4714 115.18H69.8873" stroke="#2E3E5A" stroke-width="3"/>
<path d="M22.4714 115.18H69.8873" stroke="black" stroke-opacity="0.2" stroke-width="3"/>
<path d="M22.4714 115.18H69.8873" stroke="black" stroke-opacity="0.2" stroke-width="3"/>
<path d="M85.0278 115.18H157" stroke="#2E3E5A" stroke-width="3"/>
<path d="M85.0278 115.18H157" stroke="black" stroke-opacity="0.2" stroke-width="3"/>
<path d="M85.0278 115.18H157" stroke="black" stroke-opacity="0.2" stroke-width="3"/>
</svg>
