<svg xmlns="http://www.w3.org/2000/svg" xmlns:xlink="http://www.w3.org/1999/xlink" width="360" height="84" viewBox="0 0 360 84"><defs><clipPath id="b"><rect width="360" height="84"/></clipPath></defs><g id="a" clip-path="url(#b)"><path d="M15.806,0,14.253-5.1H6.445L4.893,0H0L7.559-21.5H13.11L20.7,0ZM13.169-8.906q-2.153-6.929-2.424-7.837t-.388-1.436Q9.873-16.3,7.588-8.906ZM33.442,0l-.864-2.227h-.117a6.6,6.6,0,0,1-2.322,1.97,7.5,7.5,0,0,1-3.113.549,5.033,5.033,0,0,1-3.713-1.348,5.175,5.175,0,0,1-1.355-3.838,4.322,4.322,0,0,1,1.824-3.845,10.568,10.568,0,0,1,5.5-1.37l2.842-.088v-.718a2.227,2.227,0,0,0-2.549-2.49,11.615,11.615,0,0,0-4.614,1.187l-1.479-3.018a13.314,13.314,0,0,1,6.27-1.479A7.81,7.81,0,0,1,34.8-15.278a5.305,5.305,0,0,1,1.758,4.365V0ZM32.124-7.588,30.4-7.529a5.535,5.535,0,0,0-2.9.7,2.208,2.208,0,0,0-.952,1.963q0,1.89,2.168,1.89a3.434,3.434,0,0,0,2.483-.894,3.139,3.139,0,0,0,.93-2.373ZM49.307-21.416h6.665q4.556,0,6.614,1.3A4.513,4.513,0,0,1,64.644-16a5.2,5.2,0,0,1-.9,3.149,3.6,3.6,0,0,1-2.4,1.479v.146a4.718,4.718,0,0,1,2.937,1.7,5.528,5.528,0,0,1,.9,3.311,5.455,5.455,0,0,1-2.117,4.57A9.155,9.155,0,0,1,57.319,0H49.307Zm4.541,8.481h2.637a4.821,4.821,0,0,0,2.673-.571,2.131,2.131,0,0,0,.828-1.89,1.891,1.891,0,0,0-.9-1.765,5.79,5.79,0,0,0-2.849-.535H53.848Zm0,3.6V-3.75h2.959a4.389,4.389,0,0,0,2.769-.718,2.649,2.649,0,0,0,.894-2.2q0-2.666-3.809-2.666Zm24.375-7.354a5.3,5.3,0,0,1,4.541,2.263,10.384,10.384,0,0,1,1.641,6.2,10.2,10.2,0,0,1-1.692,6.284A5.476,5.476,0,0,1,78.105.293,5.431,5.431,0,0,1,73.579-1.8h-.308L72.524,0H69.111V-22.793h4.468v5.3q0,1.011-.176,3.237h.176A5.168,5.168,0,0,1,78.223-16.685ZM76.787-13.11a2.821,2.821,0,0,0-2.417,1.018,5.845,5.845,0,0,0-.791,3.362v.483a6.9,6.9,0,0,0,.784,3.779,2.8,2.8,0,0,0,2.483,1.143,2.491,2.491,0,0,0,2.19-1.267,6.858,6.858,0,0,0,.813-3.684,6.5,6.5,0,0,0-.82-3.625A2.572,2.572,0,0,0,76.787-13.11Zm28.55-4.834a4.627,4.627,0,0,0-3.97,1.926,8.962,8.962,0,0,0-1.406,5.369q0,7.163,5.376,7.163A16.994,16.994,0,0,0,110.8-4.614V-.806a15.174,15.174,0,0,1-5.889,1.1q-4.673,0-7.148-2.834t-2.476-8.137A13.288,13.288,0,0,1,96.5-16.531,8.787,8.787,0,0,1,100-20.383a10.335,10.335,0,0,1,5.339-1.34,14.411,14.411,0,0,1,6.27,1.509l-1.465,3.691a24.248,24.248,0,0,0-2.417-1A7.21,7.21,0,0,0,105.337-17.944ZM121.655.293q-7.646,0-7.646-8.394,0-4.175,2.08-6.379a7.8,7.8,0,0,1,5.962-2.2,11.366,11.366,0,0,1,5.1,1.113l-1.318,3.457q-1.055-.425-1.963-.7a6.325,6.325,0,0,0-1.816-.271q-3.486,0-3.486,4.951,0,4.8,3.486,4.8a7.949,7.949,0,0,0,2.388-.344,8.621,8.621,0,0,0,2.2-1.077V-.923a7.2,7.2,0,0,1-2.19.952A12.315,12.315,0,0,1,121.655.293Zm34.688-11.206q0,5.288-3.01,8.1T144.639,0h-6.064V-21.416H145.3q5.244,0,8.145,2.769A10.184,10.184,0,0,1,156.343-10.913Zm-4.717.117q0-6.9-6.094-6.9h-2.417V-3.75h1.948Q151.626-3.75,151.626-10.8ZM165.615.293a5.319,5.319,0,0,1-4.534-2.241,10.3,10.3,0,0,1-1.648-6.211,10.313,10.313,0,0,1,1.677-6.277,5.448,5.448,0,0,1,4.622-2.249,5.343,5.343,0,0,1,4.717,2.4h.146a18.265,18.265,0,0,1-.337-3.267v-5.244h4.482V0h-3.428l-.864-2.124h-.19A5.113,5.113,0,0,1,165.615.293Zm1.567-3.56a3.028,3.028,0,0,0,2.512-1,5.794,5.794,0,0,0,.872-3.384V-8.13a6.7,6.7,0,0,0-.813-3.779,3.02,3.02,0,0,0-2.644-1.143,2.623,2.623,0,0,0-2.322,1.267A6.76,6.76,0,0,0,163.96-8.1a6.407,6.407,0,0,0,.835,3.625A2.728,2.728,0,0,0,167.183-3.267ZM199.893,0H187.559V-21.416h12.334V-17.7H192.1v4.7h7.251v3.721H192.1V-3.75h7.793Zm10.9-13.506a2.834,2.834,0,0,0-2.227.9,4.169,4.169,0,0,0-.923,2.556h6.27a3.724,3.724,0,0,0-.864-2.556A2.926,2.926,0,0,0,210.791-13.506Zm.63,13.8a8.453,8.453,0,0,1-6.182-2.183,8.264,8.264,0,0,1-2.227-6.182,9.089,9.089,0,0,1,2.058-6.365,7.328,7.328,0,0,1,5.691-2.249,7.213,7.213,0,0,1,5.405,1.978A7.481,7.481,0,0,1,218.1-9.243v2.168H207.539A4.3,4.3,0,0,0,208.667-4.1a3.969,3.969,0,0,0,2.959,1.069,12.284,12.284,0,0,0,2.8-.308,14,14,0,0,0,2.754-.981V-.864a10.491,10.491,0,0,1-2.5.872A15.793,15.793,0,0,1,211.421.293Z" transform="translate(1 32)" fill="#2e3e5a"/><path d="M13.125,0,10.992-5.449H4.125L2.016,0H0L6.773-17.2H8.449L15.188,0ZM10.371-7.242,8.379-12.551q-.387-1.008-.8-2.473a22.2,22.2,0,0,1-.738,2.473L4.828-7.242ZM25.148,0l-.387-1.828h-.094A5.4,5.4,0,0,1,22.752-.193a5.84,5.84,0,0,1-2.385.428A4.29,4.29,0,0,1,17.373-.75a3.59,3.59,0,0,1-1.084-2.8q0-3.891,6.223-4.078l2.18-.07v-.8a3.256,3.256,0,0,0-.65-2.232,2.675,2.675,0,0,0-2.08-.721,8.475,8.475,0,0,0-3.633.984l-.6-1.488a9.141,9.141,0,0,1,2.08-.809,9.009,9.009,0,0,1,2.268-.293,4.892,4.892,0,0,1,3.4,1.02,4.256,4.256,0,0,1,1.107,3.27V0ZM20.754-1.371a3.948,3.948,0,0,0,2.854-1,3.685,3.685,0,0,0,1.037-2.789v-1.16L22.7-6.234a7.076,7.076,0,0,0-3.346.721,2.173,2.173,0,0,0-1.025,1.986,2,2,0,0,0,.639,1.605A2.651,2.651,0,0,0,20.754-1.371ZM37.125-17.133h4.84a9.132,9.132,0,0,1,4.934,1.02,3.6,3.6,0,0,1,1.523,3.223,3.724,3.724,0,0,1-.85,2.514,4.09,4.09,0,0,1-2.479,1.283v.117q3.9.668,3.9,4.1a4.405,4.405,0,0,1-1.553,3.586A6.609,6.609,0,0,1,43.1,0H37.125ZM39.117-9.8H42.4a5.342,5.342,0,0,0,3.035-.662,2.556,2.556,0,0,0,.926-2.232,2.259,2.259,0,0,0-1.031-2.08,6.444,6.444,0,0,0-3.281-.639h-2.93Zm0,1.688V-1.7h3.574a5.091,5.091,0,0,0,3.123-.8,2.964,2.964,0,0,0,1.049-2.514,2.662,2.662,0,0,0-1.072-2.344,5.731,5.731,0,0,0-3.264-.75Zm19.242-4.945a4.775,4.775,0,0,1,3.932,1.729,7.587,7.587,0,0,1,1.4,4.893,7.642,7.642,0,0,1-1.412,4.916A4.755,4.755,0,0,1,58.359.234a5.558,5.558,0,0,1-2.291-.463,4.309,4.309,0,0,1-1.74-1.424h-.141L53.777,0H52.383V-18.234h1.945v4.43q0,1.488-.094,2.672h.094A4.618,4.618,0,0,1,58.359-13.055Zm-.281,1.629a3.4,3.4,0,0,0-2.871,1.143,6.445,6.445,0,0,0-.879,3.85,6.428,6.428,0,0,0,.9,3.873,3.432,3.432,0,0,0,2.895,1.166A3,3,0,0,0,60.8-2.7a6.716,6.716,0,0,0,.879-3.756A6.454,6.454,0,0,0,60.8-10.2,3.115,3.115,0,0,0,58.078-11.426ZM80.953-15.6a5.6,5.6,0,0,0-4.459,1.881,7.587,7.587,0,0,0-1.635,5.15,7.738,7.738,0,0,0,1.576,5.2A5.6,5.6,0,0,0,80.93-1.535a15.345,15.345,0,0,0,4.09-.645V-.434a12.6,12.6,0,0,1-4.395.668,7.434,7.434,0,0,1-5.842-2.3A9.459,9.459,0,0,1,72.727-8.59a10.3,10.3,0,0,1,.99-4.641,7.109,7.109,0,0,1,2.859-3.07,8.655,8.655,0,0,1,4.4-1.078,10.618,10.618,0,0,1,4.711.984l-.844,1.711A9.08,9.08,0,0,0,80.953-15.6ZM93.6.234a5.482,5.482,0,0,1-4.318-1.717A7.06,7.06,0,0,1,87.75-6.34,7.28,7.28,0,0,1,89.3-11.32a5.591,5.591,0,0,1,4.424-1.758,8.779,8.779,0,0,1,1.852.2,6.1,6.1,0,0,1,1.453.469l-.6,1.652a9.147,9.147,0,0,0-1.406-.428,6.279,6.279,0,0,0-1.348-.17q-3.914,0-3.914,4.992a5.944,5.944,0,0,0,.955,3.633,3.323,3.323,0,0,0,2.83,1.266,8.653,8.653,0,0,0,3.293-.691V-.434A7.018,7.018,0,0,1,93.6.234Zm26.5-8.965q0,4.242-2.3,6.486T111.164,0h-4.746V-17.133h5.25a8.4,8.4,0,0,1,6.211,2.215A8.364,8.364,0,0,1,120.094-8.73Zm-2.109.07a6.9,6.9,0,0,0-1.682-5.051,6.739,6.739,0,0,0-5-1.7H108.41V-1.723h2.426a7.376,7.376,0,0,0,5.355-1.752A6.937,6.937,0,0,0,117.984-8.66Zm14.379,6.938h-.105A4.571,4.571,0,0,1,128.227.234a4.769,4.769,0,0,1-3.92-1.723,7.583,7.583,0,0,1-1.4-4.9,7.711,7.711,0,0,1,1.406-4.934,4.732,4.732,0,0,1,3.914-1.758,4.671,4.671,0,0,1,4.008,1.9h.152l-.082-.926-.047-.9v-5.227H134.2V0h-1.582Zm-3.891.328a3.542,3.542,0,0,0,2.889-1.084,5.477,5.477,0,0,0,.9-3.5v-.41a6.445,6.445,0,0,0-.908-3.9,3.449,3.449,0,0,0-2.9-1.166,2.977,2.977,0,0,0-2.619,1.33,6.614,6.614,0,0,0-.908,3.756,6.34,6.34,0,0,0,.9,3.715A3.056,3.056,0,0,0,128.473-1.395ZM154.406,0h-9.551V-17.133h9.551v1.77h-7.559v5.52h7.1v1.758h-7.1v6.3h7.559Zm8.93.234A5.9,5.9,0,0,1,158.842-1.5,6.714,6.714,0,0,1,157.2-6.316a7.446,7.446,0,0,1,1.529-4.934,5.08,5.08,0,0,1,4.107-1.828,4.844,4.844,0,0,1,3.82,1.588A6.086,6.086,0,0,1,168.059-7.3v1.23h-8.848a5.091,5.091,0,0,0,1.143,3.434,3.952,3.952,0,0,0,3.053,1.172,10.345,10.345,0,0,0,4.1-.867V-.6a10.3,10.3,0,0,1-1.951.639A10.965,10.965,0,0,1,163.336.234Zm-.527-11.684a3.177,3.177,0,0,0-2.467,1.008,4.646,4.646,0,0,0-1.084,2.789h6.715a4.277,4.277,0,0,0-.82-2.818A2.887,2.887,0,0,0,162.809-11.449Z" transform="translate(1 71)" fill="#2e3e5a"/></g></svg>