<svg xmlns="http://www.w3.org/2000/svg" xmlns:xlink="http://www.w3.org/1999/xlink" width="360" height="130" viewBox="0 0 360 130"><defs><clipPath id="b"><rect width="360" height="130"/></clipPath></defs><g id="a" clip-path="url(#b)"><rect width="230.5" height="125.713" rx="2" transform="translate(2 2)" fill="#fff"/><path d="M2,0A2,2,0,0,0,0,2V123.713a2,2,0,0,0,2,2H228.5a2,2,0,0,0,2-2V2a2,2,0,0,0-2-2H2M2-2H228.5a4,4,0,0,1,4,4V123.713a4,4,0,0,1-4,4H2a4,4,0,0,1-4-4V2A4,4,0,0,1,2-2Z" transform="translate(2 2)" fill="#2e3e5a"/><rect width="230.5" height="125.713" transform="translate(2 2)" fill="#e4e6ea"/><path d="M133.879,2H0V-2H133.879Z" transform="translate(13.056 23.805)" fill="#2e3e5a"/><g transform="translate(-898.944 -1830.195)"><rect width="37.807" height="15.995" rx="7.998" transform="translate(927 1874)" fill="#abb1bd"/></g><g transform="translate(-852.722 -1830.195)"><rect width="37.807" height="15.995" rx="7.998" transform="translate(927 1874)" fill="#abb1bd"/></g><g transform="translate(-806.5 -1830.195)"><rect width="37.807" height="15.995" rx="7.998" transform="translate(927 1874)" fill="#2e3e5a"/></g><g transform="translate(-760.279 -1830.195)"><rect width="37.807" height="15.995" rx="7.998" transform="translate(927 1874)" fill="#abb1bd"/></g><g transform="translate(-856.32 -1807.195)"><rect width="37.807" height="15.995" rx="7.998" transform="translate(927 1874)" fill="#2e3e5a"/></g><g transform="translate(-811.32 -1807.195)"><rect width="37.807" height="15.995" rx="7.998" transform="translate(927 1874)" fill="#abb1bd"/></g><path d="M0,4.373,1.119,3.234,3.093,5.212,8.309,0,9.438,1.122,3.093,7.466Z" transform="translate(75.995 71.069)" fill="#fff"/><path d="M0,4.373,1.119,3.234,3.093,5.212,8.309,0,9.438,1.122,3.093,7.466Z" transform="translate(125.995 48.069)" fill="#fff"/><g transform="translate(-739.944 -1768.647)"><rect width="37.807" height="15.995" rx="7.998" transform="translate(927 1874)" fill="#abb1bd"/><path d="M19.865,1.5H0v-3H19.865Z" transform="translate(935.854 1881.998)" fill="#2e3e5a"/><path d="M19.865,1.5H0v-3H19.865Z" transform="translate(899.854 1881.997)" fill="#2e3e5a"/></g></g></svg>