<svg xmlns="http://www.w3.org/2000/svg" xmlns:xlink="http://www.w3.org/1999/xlink" width="360" height="41" viewBox="0 0 360 41"><defs><clipPath id="b"><rect width="360" height="41"/></clipPath></defs><g id="a" clip-path="url(#b)"><g transform="translate(-1.558 12.732) rotate(-24)"><path d="M35.532,2.9,36.824,16.12l-13-4.4,4.3-3.01a13.621,13.621,0,0,0-9.718-4.1,13.818,13.818,0,0,0,0,27.635c.683.29,1.191,4.588,0,4.606A18.423,18.423,0,1,1,31.412,5.412Z" transform="translate(0 0)" fill="#2e3e5a"/></g><g transform="translate(47.069 12.03) rotate(-24)"><path d="M28.119,8.705a13.622,13.622,0,0,0-9.718-4.1,13.818,13.818,0,1,0,0,27.635c.683.29,1.191,4.588,0,4.606A18.423,18.423,0,1,1,31.412,5.412Z" transform="matrix(0.616, -0.788, 0.788, 0.616, 0, 24.753)" fill="#2e3e5a"/></g><g transform="translate(72.866 13.639)"><path d="M0,7.6,1.944,5.618l3.43,3.438L14.435,0,16.4,1.949,5.374,12.971Z" transform="translate(0 0)" fill="#2e3e5a"/></g></g></svg>