<svg width="358" height="120" viewBox="0 0 358 120" fill="none" xmlns="http://www.w3.org/2000/svg">
<g clip-path="url(#clip0_1317_45)">
<path d="M355.989 0H2.01124C0.900461 0 0 1.17836 0 2.63193V117.368C0 118.822 0.900461 120 2.01124 120H355.989C357.1 120 358 118.822 358 117.368V2.63193C358 1.17836 357.1 0 355.989 0Z" fill="#E4E6EA"/>
<path d="M14.4714 23.9414H107.471" stroke="#2E3E5A" stroke-width="4"/>
<path d="M332.529 14.1565H305.843C300.439 14.1565 296.058 18.5373 296.058 23.9414C296.058 29.3454 300.439 33.7263 305.843 33.7263H332.529C337.933 33.7263 342.314 29.3454 342.314 23.9414C342.314 18.5373 337.933 14.1565 332.529 14.1565Z" fill="#2E3E5A"/>
<path d="M306.891 23.9414H331.194" stroke="white" stroke-width="3"/>
<path d="M83.6693 47.9509H15.8022C15.3122 47.9509 14.915 48.3808 14.915 48.9111V105.56C14.915 106.09 15.3122 106.52 15.8022 106.52H83.6693C84.1593 106.52 84.5565 106.09 84.5565 105.56V48.9111C84.5565 48.3808 84.1593 47.9509 83.6693 47.9509Z" fill="white"/>
<path d="M83.6693 47.4709H15.8022C15.0672 47.4709 14.4714 48.1158 14.4714 48.9112V105.56C14.4714 106.355 15.0672 107 15.8022 107H83.6693C84.4042 107 85 106.355 85 105.56V48.9112C85 48.1158 84.4042 47.4709 83.6693 47.4709Z" stroke="#2E3E5A" stroke-width="2"/>
<path d="M21.265 60.0002H78.2064" stroke="#2E3E5A" stroke-width="2"/>
<path d="M21.5586 77.2354H57" stroke="#2E3E5A" stroke-width="2"/>
<path d="M21.5586 93.7354H57" stroke="#2E3E5A" stroke-width="2"/>
<path d="M169.388 47.9509H101.521C101.031 47.9509 100.633 48.3808 100.633 48.9111V105.56C100.633 106.09 101.031 106.52 101.521 106.52H169.388C169.878 106.52 170.275 106.09 170.275 105.56V48.9111C170.275 48.3808 169.878 47.9509 169.388 47.9509Z" fill="white"/>
<path d="M169.388 47.4709H101.521C100.786 47.4709 100.19 48.1158 100.19 48.9112V105.56C100.19 106.355 100.786 107 101.521 107H169.388C170.123 107 170.718 106.355 170.718 105.56V48.9112C170.718 48.1158 170.123 47.4709 169.388 47.4709Z" stroke="#2E3E5A" stroke-width="2"/>
<path d="M106.983 60.0002H163.925" stroke="#2E3E5A" stroke-width="2"/>
<path d="M107.277 77.2354H142.718" stroke="#2E3E5A" stroke-width="2"/>
<path d="M107.277 93.7354H142.718" stroke="#2E3E5A" stroke-width="2"/>
<path d="M255.106 47.9509H187.239C186.749 47.9509 186.352 48.3808 186.352 48.9111V105.56C186.352 106.09 186.749 106.52 187.239 106.52H255.106C255.596 106.52 255.993 106.09 255.993 105.56V48.9111C255.993 48.3808 255.596 47.9509 255.106 47.9509Z" fill="white"/>
<path d="M255.106 47.4709H187.239C186.504 47.4709 185.908 48.1158 185.908 48.9112V105.56C185.908 106.355 186.504 107 187.239 107H255.106C255.841 107 256.437 106.355 256.437 105.56V48.9112C256.437 48.1158 255.841 47.4709 255.106 47.4709Z" stroke="#2E3E5A" stroke-width="2"/>
<path d="M192.702 60.0002H249.643" stroke="#2E3E5A" stroke-width="2"/>
<path d="M192.995 77.2354H228.437" stroke="#2E3E5A" stroke-width="2"/>
<path d="M192.995 93.7354H228.437" stroke="#2E3E5A" stroke-width="2"/>
<path d="M340.824 47.9509H272.957C272.467 47.9509 272.07 48.3808 272.07 48.9111V105.56C272.07 106.09 272.467 106.52 272.957 106.52H340.824C341.314 106.52 341.711 106.09 341.711 105.56V48.9111C341.711 48.3808 341.314 47.9509 340.824 47.9509Z" fill="white"/>
<path d="M340.824 47.4709H272.957C272.222 47.4709 271.626 48.1158 271.626 48.9112V105.56C271.626 106.355 272.222 107 272.957 107H340.824C341.559 107 342.155 106.355 342.155 105.56V48.9112C342.155 48.1158 341.559 47.4709 340.824 47.4709Z" stroke="#2E3E5A" stroke-width="2"/>
<path d="M278.42 60.0002H335.361" stroke="#2E3E5A" stroke-width="2"/>
<path d="M278.714 77.2354H314.155" stroke="#2E3E5A" stroke-width="2"/>
<path d="M278.714 93.7354H314.155" stroke="#2E3E5A" stroke-width="2"/>
</g>
<rect x="0.5" y="0.5" width="357" height="119" rx="3.5" stroke="black"/>
<defs>
<clipPath id="clip0_1317_45">
<rect width="358" height="120" rx="4" fill="white"/>
</clipPath>
</defs>
</svg>
