<svg xmlns="http://www.w3.org/2000/svg" xmlns:xlink="http://www.w3.org/1999/xlink" width="360" height="94" viewBox="0 0 360 94"><defs><clipPath id="b"><rect width="360" height="94"/></clipPath></defs><g id="a" clip-path="url(#b)"><rect width="230" height="90" rx="2" transform="translate(2 2)" fill="#fff"/><path d="M2,0A2,2,0,0,0,0,2V88a2,2,0,0,0,2,2H228a2,2,0,0,0,2-2V2a2,2,0,0,0-2-2H2M2-2H228a4,4,0,0,1,4,4V88a4,4,0,0,1-4,4H2a4,4,0,0,1-4-4V2A4,4,0,0,1,2-2Z" transform="translate(2 2)" fill="#2e3e5a"/><path d="M170,1.416,0,1,0-1,170-.584Z" transform="translate(14.5 47.5)" fill="#2e3e5a"/><path d="M169.723,1H0V-1H169.723Z" transform="translate(14.777 61.5)" fill="#2e3e5a"/><path d="M133.723,1H0V-1H133.723Z" transform="translate(14.777 75.5)" fill="#2e3e5a"/><path d="M2,0H228a2,2,0,0,1,2,2V30.246a0,0,0,0,1,0,0H0a0,0,0,0,1,0,0V2A2,2,0,0,1,2,0Z" transform="translate(2 2)" fill="#e4e6ea"/><g transform="translate(201.352 9)"><path d="M12.6,0h1.1l4.609,2.84L13.708,5.678l-1.1.046ZM3.432,5.724V.045h8.016V5.724ZM0,5.715V.037H2.289V5.715Z" transform="translate(17 4.048) rotate(135)" fill="#2e3e5a"/></g><path d="M170,2H0V-2H170Z" transform="translate(14.5 16.805)" fill="#2e3e5a"/></g></svg>