<svg width="359" height="140" viewBox="0 0 359 140" fill="none" xmlns="http://www.w3.org/2000/svg">
<g clip-path="url(#clip0_1320_252)">
<line x1="16.5" y1="24" x2="16.5" y2="116" stroke="#2E3E5A" stroke-width="2"/>
<line x1="16.5" y1="24" x2="16.5" y2="116" stroke="black" stroke-opacity="0.2" stroke-width="2"/>
<line x1="16.5" y1="24" x2="16.5" y2="116" stroke="black" stroke-opacity="0.2" stroke-width="2"/>
<path d="M40.5 15L179.5 15" stroke="#2E3E5A" stroke-width="4"/>
<path d="M40.5 15L179.5 15" stroke="black" stroke-opacity="0.2" stroke-width="4"/>
<path d="M40.5 15L179.5 15" stroke="black" stroke-opacity="0.2" stroke-width="4"/>
<path d="M40.5 67.5L179.5 67.5" stroke="#2E3E5A" stroke-width="4"/>
<path d="M40.5 67.5L179.5 67.5" stroke="black" stroke-opacity="0.2" stroke-width="4"/>
<path d="M40.5 67.5L179.5 67.5" stroke="black" stroke-opacity="0.2" stroke-width="4"/>
<path d="M40 120L179 120" stroke="#2E3E5A" stroke-width="4"/>
<path d="M40 120L179 120" stroke="black" stroke-opacity="0.2" stroke-width="4"/>
<path d="M40 120L179 120" stroke="black" stroke-opacity="0.2" stroke-width="4"/>
<rect x="1" width="30" height="30" rx="15" fill="#2E3E5A"/>
<rect x="1" width="30" height="30" rx="15" fill="black" fill-opacity="0.2"/>
<rect x="1" width="30" height="30" rx="15" fill="black" fill-opacity="0.2"/>
<path d="M9.5 16.1294L11.0977 14.4028L13.916 17.4027L21.3616 9.5L22.9731 11.2006L13.916 20.8193L9.5 16.1294Z" fill="white"/>
<rect x="2" y="53.5" width="28" height="28" rx="14" fill="#2E3E5A"/>
<rect x="2" y="53.5" width="28" height="28" rx="14" fill="black" fill-opacity="0.2"/>
<rect x="2" y="53.5" width="28" height="28" rx="14" fill="black" fill-opacity="0.2"/>
<rect x="2" y="53.5" width="28" height="28" rx="14" stroke="#2E3E5A" stroke-width="2"/>
<rect x="2" y="53.5" width="28" height="28" rx="14" stroke="black" stroke-opacity="0.2" stroke-width="2"/>
<rect x="2" y="53.5" width="28" height="28" rx="14" stroke="black" stroke-opacity="0.2" stroke-width="2"/>
<path d="M20.0547 73.5H12.0703V71.8203L14.9375 68.9219C15.7865 68.0521 16.3411 67.4505 16.6016 67.1172C16.862 66.7786 17.0495 66.4661 17.1641 66.1797C17.2786 65.8932 17.3359 65.5964 17.3359 65.2891C17.3359 64.8307 17.2083 64.4896 16.9531 64.2656C16.7031 64.0417 16.3672 63.9297 15.9453 63.9297C15.5026 63.9297 15.0729 64.0312 14.6562 64.2344C14.2396 64.4375 13.8047 64.7266 13.3516 65.1016L12.0391 63.5469C12.6016 63.0677 13.0677 62.7292 13.4375 62.5312C13.8073 62.3333 14.2109 62.1823 14.6484 62.0781C15.0859 61.9688 15.5755 61.9141 16.1172 61.9141C16.8307 61.9141 17.4609 62.0443 18.0078 62.3047C18.5547 62.5651 18.9792 62.9297 19.2812 63.3984C19.5833 63.8672 19.7344 64.4036 19.7344 65.0078C19.7344 65.5339 19.6406 66.0286 19.4531 66.4922C19.2708 66.9505 18.9844 67.4219 18.5938 67.9062C18.2083 68.3906 17.526 69.0807 16.5469 69.9766L15.0781 71.3594V71.4688H20.0547V73.5Z" fill="white"/>
<rect x="1.5" y="106" width="28" height="28" rx="14" fill="white"/>
<rect x="1.5" y="106" width="28" height="28" rx="14" stroke="#2E3E5A" stroke-width="2"/>
<rect x="1.5" y="106" width="28" height="28" rx="14" stroke="black" stroke-opacity="0.2" stroke-width="2"/>
<rect x="1.5" y="106" width="28" height="28" rx="14" stroke="black" stroke-opacity="0.2" stroke-width="2"/>
<path d="M19.1094 117.133C19.1094 117.846 18.8932 118.453 18.4609 118.953C18.0286 119.453 17.4219 119.797 16.6406 119.984V120.031C17.5625 120.146 18.2604 120.427 18.7344 120.875C19.2083 121.318 19.4453 121.917 19.4453 122.672C19.4453 123.771 19.0469 124.628 18.25 125.242C17.4531 125.852 16.3151 126.156 14.8359 126.156C13.5964 126.156 12.4974 125.951 11.5391 125.539V123.484C11.9818 123.708 12.4688 123.891 13 124.031C13.5312 124.172 14.0573 124.242 14.5781 124.242C15.375 124.242 15.9635 124.107 16.3438 123.836C16.724 123.565 16.9141 123.13 16.9141 122.531C16.9141 121.995 16.6953 121.615 16.2578 121.391C15.8203 121.167 15.1224 121.055 14.1641 121.055H13.2969V119.203H14.1797C15.0651 119.203 15.7109 119.089 16.1172 118.859C16.5286 118.625 16.7344 118.227 16.7344 117.664C16.7344 116.799 16.1927 116.367 15.1094 116.367C14.7344 116.367 14.3516 116.43 13.9609 116.555C13.5755 116.68 13.1458 116.896 12.6719 117.203L11.5547 115.539C12.5964 114.789 13.8385 114.414 15.2812 114.414C16.4635 114.414 17.3958 114.654 18.0781 115.133C18.7656 115.612 19.1094 116.279 19.1094 117.133Z" fill="#2E3E5A"/>
<path d="M19.1094 117.133C19.1094 117.846 18.8932 118.453 18.4609 118.953C18.0286 119.453 17.4219 119.797 16.6406 119.984V120.031C17.5625 120.146 18.2604 120.427 18.7344 120.875C19.2083 121.318 19.4453 121.917 19.4453 122.672C19.4453 123.771 19.0469 124.628 18.25 125.242C17.4531 125.852 16.3151 126.156 14.8359 126.156C13.5964 126.156 12.4974 125.951 11.5391 125.539V123.484C11.9818 123.708 12.4688 123.891 13 124.031C13.5312 124.172 14.0573 124.242 14.5781 124.242C15.375 124.242 15.9635 124.107 16.3438 123.836C16.724 123.565 16.9141 123.13 16.9141 122.531C16.9141 121.995 16.6953 121.615 16.2578 121.391C15.8203 121.167 15.1224 121.055 14.1641 121.055H13.2969V119.203H14.1797C15.0651 119.203 15.7109 119.089 16.1172 118.859C16.5286 118.625 16.7344 118.227 16.7344 117.664C16.7344 116.799 16.1927 116.367 15.1094 116.367C14.7344 116.367 14.3516 116.43 13.9609 116.555C13.5755 116.68 13.1458 116.896 12.6719 117.203L11.5547 115.539C12.5964 114.789 13.8385 114.414 15.2812 114.414C16.4635 114.414 17.3958 114.654 18.0781 115.133C18.7656 115.612 19.1094 116.279 19.1094 117.133Z" fill="black" fill-opacity="0.2"/>
<path d="M19.1094 117.133C19.1094 117.846 18.8932 118.453 18.4609 118.953C18.0286 119.453 17.4219 119.797 16.6406 119.984V120.031C17.5625 120.146 18.2604 120.427 18.7344 120.875C19.2083 121.318 19.4453 121.917 19.4453 122.672C19.4453 123.771 19.0469 124.628 18.25 125.242C17.4531 125.852 16.3151 126.156 14.8359 126.156C13.5964 126.156 12.4974 125.951 11.5391 125.539V123.484C11.9818 123.708 12.4688 123.891 13 124.031C13.5312 124.172 14.0573 124.242 14.5781 124.242C15.375 124.242 15.9635 124.107 16.3438 123.836C16.724 123.565 16.9141 123.13 16.9141 122.531C16.9141 121.995 16.6953 121.615 16.2578 121.391C15.8203 121.167 15.1224 121.055 14.1641 121.055H13.2969V119.203H14.1797C15.0651 119.203 15.7109 119.089 16.1172 118.859C16.5286 118.625 16.7344 118.227 16.7344 117.664C16.7344 116.799 16.1927 116.367 15.1094 116.367C14.7344 116.367 14.3516 116.43 13.9609 116.555C13.5755 116.68 13.1458 116.896 12.6719 117.203L11.5547 115.539C12.5964 114.789 13.8385 114.414 15.2812 114.414C16.4635 114.414 17.3958 114.654 18.0781 115.133C18.7656 115.612 19.1094 116.279 19.1094 117.133Z" fill="black" fill-opacity="0.2"/>
</g>
<defs>
<clipPath id="clip0_1320_252">
<rect width="358" height="140" fill="white" transform="translate(0.5)"/>
</clipPath>
</defs>
</svg>
