<svg xmlns="http://www.w3.org/2000/svg" xmlns:xlink="http://www.w3.org/1999/xlink" width="360" height="130" viewBox="0 0 360 130"><defs><clipPath id="b"><rect width="360" height="130"/></clipPath></defs><g id="a" clip-path="url(#b)"><rect width="230.5" height="126" rx="2" transform="translate(2 2)" fill="#fff"/><path d="M2,0A2,2,0,0,0,0,2V124a2,2,0,0,0,2,2H228.5a2,2,0,0,0,2-2V2a2,2,0,0,0-2-2H2M2-2H228.5a4,4,0,0,1,4,4V124a4,4,0,0,1-4,4H2a4,4,0,0,1-4-4V2A4,4,0,0,1,2-2Z" transform="translate(2 2)" fill="#2e3e5a"/><rect width="90" height="126" transform="translate(2 2)" fill="#abb1bd"/><circle cx="29.222" cy="29.222" r="29.222" transform="translate(18 19.278)" fill="#fff"/><path d="M112,1H0V-1H112Z" transform="translate(105.5 90.178)" fill="#2e3e5a"/><path d="M112,1H0V-1H112Z" transform="translate(105.5 105.374)" fill="#2e3e5a"/><path d="M112,1H0V-1H112Z" transform="translate(105.5 43.592)" fill="#2e3e5a"/><path d="M112,1H0V-1H112Z" transform="translate(105.5 74.983)" fill="#2e3e5a"/><path d="M112,2H0V-2H112Z" transform="translate(105.5 24.397)" fill="#2e3e5a"/><path d="M112,1H0V-1H112Z" transform="translate(105.5 58.788)" fill="#2e3e5a"/></g></svg>