<svg xmlns="http://www.w3.org/2000/svg" xmlns:xlink="http://www.w3.org/1999/xlink" width="360" height="61" viewBox="0 0 360 61"><defs><clipPath id="b"><rect width="360" height="61"/></clipPath></defs><g id="a" clip-path="url(#b)"><path d="M3,3V35H34V3H3M0,0H37V38H0Z" transform="translate(201 1)" fill="#2e3e5a"/><g transform="translate(210 9)"><rect width="6.308" height="6.308" transform="translate(8.447 11.02)" fill="#2e3e5a"/><path d="M3.062,0V2.1H2.034A2.063,2.063,0,0,0,.01,4.2L0,18.9H0A2.071,2.071,0,0,0,2.042,21H16.333a2.081,2.081,0,0,0,2.042-2.1V4.2a2.081,2.081,0,0,0-2.042-2.1H15.314V0H13.27V2.1H5.1V0ZM15.751,6.563V18.375H2.625V6.563Z" transform="translate(0)" fill="#2e3e5a"/></g><path d="M3,3V35H199V3H3M0,0H202V38H0Z" transform="translate(1 1)" fill="#2e3e5a"/></g></svg>