<svg width="358" height="54" viewBox="0 0 358 54" fill="none" xmlns="http://www.w3.org/2000/svg">
<g clip-path="url(#clip0_143_25)">
<rect x="1.92944" y="2.22314" width="356.071" height="49.9849" fill="#E4E6EA"/>
<path d="M5.04598 1.43103H353.325C355.228 1.43103 357 3.25451 357 5.80728V48.6237C357 51.1765 355.228 53 353.325 53H5.04598C3.14308 53 1.37109 51.1765 1.37109 48.6237V5.80728C1.37109 3.25451 3.14308 1.43103 5.04598 1.43103Z" stroke="#2E3E5A" stroke-width="2"/>
<path d="M23.9199 19.7043L162.5 19.9503" stroke="#2E3E5A" stroke-width="4"/>
<path d="M23.9199 34.8736L253.5 35.2811" stroke="#2E3E5A" stroke-width="2"/>
<path d="M329 16.2156H299C292.925 16.2156 288 21.1404 288 27.2156C288 33.2907 292.925 38.2156 299 38.2156H329C335.075 38.2156 340 33.2907 340 27.2156C340 21.1404 335.075 16.2156 329 16.2156Z" fill="#2E3E5A"/>
<path d="M300.178 27.2156H327.5" stroke="white" stroke-width="3"/>
</g>
<defs>
<clipPath id="clip0_143_25">
<rect width="358" height="54" fill="white"/>
</clipPath>
</defs>
</svg>
