<svg xmlns="http://www.w3.org/2000/svg" xmlns:xlink="http://www.w3.org/1999/xlink" width="360" height="94" viewBox="0 0 360 94"><defs><clipPath id="b"><rect width="360" height="94"/></clipPath></defs><g id="a" clip-path="url(#b)"><rect width="356" height="90" rx="2" transform="translate(2 2)" fill="#e4e6ea"/><path d="M2,0A2,2,0,0,0,0,2V88a2,2,0,0,0,2,2H354a2,2,0,0,0,2-2V2a2,2,0,0,0-2-2H2M2-2H354a4,4,0,0,1,4,4V88a4,4,0,0,1-4,4H2a4,4,0,0,1-4-4V2A4,4,0,0,1,2-2Z" transform="translate(2 2)" fill="#2e3e5a"/><rect width="360" height="43" rx="2" transform="translate(0 50)" fill="#2e3e5a"/><path d="M184.324,1.5H0v-3H184.324Z" transform="translate(12.176 64.415)" fill="#fff"/><path d="M97.324,1.5H0v-3H97.324Z" transform="translate(12.176 77.415)" fill="#fff"/><path d="M36,1.5H0v-3H36Z" transform="translate(284.5 71.235)" fill="#fff"/><rect width="52.382" height="23.53" rx="11.765" transform="translate(219.794 59.735)" fill="#fff"/><path d="M33,1.5H0v-3H33Z" transform="translate(229.5 71.235)" fill="#2e3e5a"/></g></svg>