<svg width="358" height="68" viewBox="0 0 358 68" fill="none" xmlns="http://www.w3.org/2000/svg">
<g clip-path="url(#clip0_1317_23)">
<path d="M2.01172 1H355.989C356.352 1.0001 356.641 1.11052 356.815 1.24023C356.99 1.36961 357 1.46917 357 1.49121V66.5088C357 66.5308 356.99 66.6304 356.815 66.7598C356.641 66.8895 356.352 66.9999 355.989 67H2.01172C1.64915 67 1.35958 66.8895 1.18457 66.7598C1.01018 66.6304 1.00006 66.5308 1 66.5088V1.49121C1.00006 1.46918 1.01018 1.36962 1.18457 1.24023C1.35958 1.11046 1.64915 1 2.01172 1Z" fill="#E4E6EA"/>
<path d="M2.01172 1H355.989C356.352 1.0001 356.641 1.11052 356.815 1.24023C356.99 1.36961 357 1.46917 357 1.49121V66.5088C357 66.5308 356.99 66.6304 356.815 66.7598C356.641 66.8895 356.352 66.9999 355.989 67H2.01172C1.64915 67 1.35958 66.8895 1.18457 66.7598C1.01018 66.6304 1.00006 66.5308 1 66.5088V1.49121C1.00006 1.46918 1.01018 1.36962 1.18457 1.24023C1.35958 1.11046 1.64915 1 2.01172 1Z" stroke="#2E3E5A" stroke-width="2"/>
<path d="M2.01172 1H355.989C356.352 1.0001 356.641 1.11052 356.815 1.24023C356.99 1.36961 357 1.46917 357 1.49121V66.5088C357 66.5308 356.99 66.6304 356.815 66.7598C356.641 66.8895 356.352 66.9999 355.989 67H2.01172C1.64915 67 1.35958 66.8895 1.18457 66.7598C1.01018 66.6304 1.00006 66.5308 1 66.5088V1.49121C1.00006 1.46918 1.01018 1.36962 1.18457 1.24023C1.35958 1.11046 1.64915 1 2.01172 1Z" stroke="black" stroke-opacity="0.2" stroke-width="2"/>
<path d="M2.01172 1H355.989C356.352 1.0001 356.641 1.11052 356.815 1.24023C356.99 1.36961 357 1.46917 357 1.49121V66.5088C357 66.5308 356.99 66.6304 356.815 66.7598C356.641 66.8895 356.352 66.9999 355.989 67H2.01172C1.64915 67 1.35958 66.8895 1.18457 66.7598C1.01018 66.6304 1.00006 66.5308 1 66.5088V1.49121C1.00006 1.46918 1.01018 1.36962 1.18457 1.24023C1.35958 1.11046 1.64915 1 2.01172 1Z" stroke="black" stroke-opacity="0.2" stroke-width="2"/>
<path d="M13 50.5H120.916" stroke="#2E3E5A" stroke-width="3"/>
<path d="M13 50.5H120.916" stroke="black" stroke-opacity="0.2" stroke-width="3"/>
<path d="M13 50.5H120.916" stroke="black" stroke-opacity="0.2" stroke-width="3"/>
<path d="M43.5 25.5H119" stroke="#788295" stroke-width="3"/>
<path d="M24.219 37.719C30.9674 37.719 36.438 32.2484 36.438 25.5C36.438 18.7516 30.9674 13.281 24.219 13.281C17.4706 13.281 12 18.7516 12 25.5C12 32.2484 17.4706 37.719 24.219 37.719Z" fill="#788295"/>
</g>
<defs>
<clipPath id="clip0_1317_23">
<rect width="358" height="68" fill="white"/>
</clipPath>
</defs>
</svg>
