<svg width="358" height="140" viewBox="0 0 358 140" fill="none" xmlns="http://www.w3.org/2000/svg">
<line x1="16" y1="24" x2="16" y2="116" stroke="black" stroke-width="2"/>
<path d="M40 15L179 15" stroke="#2E3E5A" stroke-width="4"/>
<path d="M40 15L179 15" stroke="black" stroke-opacity="0.2" stroke-width="4"/>
<path d="M40 15L179 15" stroke="black" stroke-opacity="0.2" stroke-width="4"/>
<path d="M40 67.5L179 67.5" stroke="#2E3E5A" stroke-width="4"/>
<path d="M40 67.5L179 67.5" stroke="black" stroke-opacity="0.2" stroke-width="4"/>
<path d="M40 67.5L179 67.5" stroke="black" stroke-opacity="0.2" stroke-width="4"/>
<path d="M39.5 120L178.5 120" stroke="#2E3E5A" stroke-width="4"/>
<path d="M39.5 120L178.5 120" stroke="black" stroke-opacity="0.2" stroke-width="4"/>
<path d="M39.5 120L178.5 120" stroke="black" stroke-opacity="0.2" stroke-width="4"/>
<rect x="0.5" width="30" height="30" rx="15" fill="#2E3E5A"/>
<rect x="0.5" width="30" height="30" rx="15" fill="black" fill-opacity="0.2"/>
<rect x="0.5" width="30" height="30" rx="15" fill="black" fill-opacity="0.2"/>
<path d="M17.5391 21H15.125V14.3906L15.1484 13.3047L15.1875 12.1172C14.7865 12.5182 14.5078 12.7812 14.3516 12.9062L13.0391 13.9609L11.875 12.5078L15.5547 9.57812H17.5391V21Z" fill="white"/>
<rect x="1.5" y="53.5" width="28" height="28" rx="14" fill="white"/>
<rect x="1.5" y="53.5" width="28" height="28" rx="14" stroke="#2E3E5A" stroke-width="2"/>
<rect x="1.5" y="53.5" width="28" height="28" rx="14" stroke="black" stroke-opacity="0.2" stroke-width="2"/>
<rect x="1.5" y="53.5" width="28" height="28" rx="14" stroke="black" stroke-opacity="0.2" stroke-width="2"/>
<path d="M19.5547 73.5H11.5703V71.8203L14.4375 68.9219C15.2865 68.0521 15.8411 67.4505 16.1016 67.1172C16.362 66.7786 16.5495 66.4661 16.6641 66.1797C16.7786 65.8932 16.8359 65.5964 16.8359 65.2891C16.8359 64.8307 16.7083 64.4896 16.4531 64.2656C16.2031 64.0417 15.8672 63.9297 15.4453 63.9297C15.0026 63.9297 14.5729 64.0312 14.1562 64.2344C13.7396 64.4375 13.3047 64.7266 12.8516 65.1016L11.5391 63.5469C12.1016 63.0677 12.5677 62.7292 12.9375 62.5312C13.3073 62.3333 13.7109 62.1823 14.1484 62.0781C14.5859 61.9688 15.0755 61.9141 15.6172 61.9141C16.3307 61.9141 16.9609 62.0443 17.5078 62.3047C18.0547 62.5651 18.4792 62.9297 18.7812 63.3984C19.0833 63.8672 19.2344 64.4036 19.2344 65.0078C19.2344 65.5339 19.1406 66.0286 18.9531 66.4922C18.7708 66.9505 18.4844 67.4219 18.0938 67.9062C17.7083 68.3906 17.026 69.0807 16.0469 69.9766L14.5781 71.3594V71.4688H19.5547V73.5Z" fill="#333333"/>
<rect x="1" y="106" width="28" height="28" rx="14" fill="white"/>
<rect x="1" y="106" width="28" height="28" rx="14" stroke="#2E3E5A" stroke-width="2"/>
<rect x="1" y="106" width="28" height="28" rx="14" stroke="black" stroke-opacity="0.2" stroke-width="2"/>
<rect x="1" y="106" width="28" height="28" rx="14" stroke="black" stroke-opacity="0.2" stroke-width="2"/>
<path d="M18.6094 117.133C18.6094 117.846 18.3932 118.453 17.9609 118.953C17.5286 119.453 16.9219 119.797 16.1406 119.984V120.031C17.0625 120.146 17.7604 120.427 18.2344 120.875C18.7083 121.318 18.9453 121.917 18.9453 122.672C18.9453 123.771 18.5469 124.628 17.75 125.242C16.9531 125.852 15.8151 126.156 14.3359 126.156C13.0964 126.156 11.9974 125.951 11.0391 125.539V123.484C11.4818 123.708 11.9688 123.891 12.5 124.031C13.0312 124.172 13.5573 124.242 14.0781 124.242C14.875 124.242 15.4635 124.107 15.8438 123.836C16.224 123.565 16.4141 123.13 16.4141 122.531C16.4141 121.995 16.1953 121.615 15.7578 121.391C15.3203 121.167 14.6224 121.055 13.6641 121.055H12.7969V119.203H13.6797C14.5651 119.203 15.2109 119.089 15.6172 118.859C16.0286 118.625 16.2344 118.227 16.2344 117.664C16.2344 116.799 15.6927 116.367 14.6094 116.367C14.2344 116.367 13.8516 116.43 13.4609 116.555C13.0755 116.68 12.6458 116.896 12.1719 117.203L11.0547 115.539C12.0964 114.789 13.3385 114.414 14.7812 114.414C15.9635 114.414 16.8958 114.654 17.5781 115.133C18.2656 115.612 18.6094 116.279 18.6094 117.133Z" fill="#2E3E5A"/>
<path d="M18.6094 117.133C18.6094 117.846 18.3932 118.453 17.9609 118.953C17.5286 119.453 16.9219 119.797 16.1406 119.984V120.031C17.0625 120.146 17.7604 120.427 18.2344 120.875C18.7083 121.318 18.9453 121.917 18.9453 122.672C18.9453 123.771 18.5469 124.628 17.75 125.242C16.9531 125.852 15.8151 126.156 14.3359 126.156C13.0964 126.156 11.9974 125.951 11.0391 125.539V123.484C11.4818 123.708 11.9688 123.891 12.5 124.031C13.0312 124.172 13.5573 124.242 14.0781 124.242C14.875 124.242 15.4635 124.107 15.8438 123.836C16.224 123.565 16.4141 123.13 16.4141 122.531C16.4141 121.995 16.1953 121.615 15.7578 121.391C15.3203 121.167 14.6224 121.055 13.6641 121.055H12.7969V119.203H13.6797C14.5651 119.203 15.2109 119.089 15.6172 118.859C16.0286 118.625 16.2344 118.227 16.2344 117.664C16.2344 116.799 15.6927 116.367 14.6094 116.367C14.2344 116.367 13.8516 116.43 13.4609 116.555C13.0755 116.68 12.6458 116.896 12.1719 117.203L11.0547 115.539C12.0964 114.789 13.3385 114.414 14.7812 114.414C15.9635 114.414 16.8958 114.654 17.5781 115.133C18.2656 115.612 18.6094 116.279 18.6094 117.133Z" fill="black" fill-opacity="0.2"/>
<path d="M18.6094 117.133C18.6094 117.846 18.3932 118.453 17.9609 118.953C17.5286 119.453 16.9219 119.797 16.1406 119.984V120.031C17.0625 120.146 17.7604 120.427 18.2344 120.875C18.7083 121.318 18.9453 121.917 18.9453 122.672C18.9453 123.771 18.5469 124.628 17.75 125.242C16.9531 125.852 15.8151 126.156 14.3359 126.156C13.0964 126.156 11.9974 125.951 11.0391 125.539V123.484C11.4818 123.708 11.9688 123.891 12.5 124.031C13.0312 124.172 13.5573 124.242 14.0781 124.242C14.875 124.242 15.4635 124.107 15.8438 123.836C16.224 123.565 16.4141 123.13 16.4141 122.531C16.4141 121.995 16.1953 121.615 15.7578 121.391C15.3203 121.167 14.6224 121.055 13.6641 121.055H12.7969V119.203H13.6797C14.5651 119.203 15.2109 119.089 15.6172 118.859C16.0286 118.625 16.2344 118.227 16.2344 117.664C16.2344 116.799 15.6927 116.367 14.6094 116.367C14.2344 116.367 13.8516 116.43 13.4609 116.555C13.0755 116.68 12.6458 116.896 12.1719 117.203L11.0547 115.539C12.0964 114.789 13.3385 114.414 14.7812 114.414C15.9635 114.414 16.8958 114.654 17.5781 115.133C18.2656 115.612 18.6094 116.279 18.6094 117.133Z" fill="black" fill-opacity="0.2"/>
<path d="M40 82.5L78 82.5" stroke="#2E3E5A" stroke-width="2"/>
<path d="M40 82.5L78 82.5" stroke="black" stroke-opacity="0.2" stroke-width="2"/>
<path d="M40 82.5L78 82.5" stroke="black" stroke-opacity="0.2" stroke-width="2"/>
<path d="M91 83.5282L84.9824 77.5L83 79.4859L91 87.5L99 79.4859L97.0176 77.5L91 83.5282Z" fill="#2E3E5A"/>
<path d="M91 83.5282L84.9824 77.5L83 79.4859L91 87.5L99 79.4859L97.0176 77.5L91 83.5282Z" fill="black" fill-opacity="0.2"/>
<path d="M91 83.5282L84.9824 77.5L83 79.4859L91 87.5L99 79.4859L97.0176 77.5L91 83.5282Z" fill="black" fill-opacity="0.2"/>
<path d="M40 30L78 30" stroke="#2E3E5A" stroke-width="2"/>
<path d="M40 30L78 30" stroke="black" stroke-opacity="0.2" stroke-width="2"/>
<path d="M40 30L78 30" stroke="black" stroke-opacity="0.2" stroke-width="2"/>
<path d="M91 31.0282L84.9824 25L83 26.9859L91 35L99 26.9859L97.0176 25L91 31.0282Z" fill="#2E3E5A"/>
<path d="M91 31.0282L84.9824 25L83 26.9859L91 35L99 26.9859L97.0176 25L91 31.0282Z" fill="black" fill-opacity="0.2"/>
<path d="M91 31.0282L84.9824 25L83 26.9859L91 35L99 26.9859L97.0176 25L91 31.0282Z" fill="black" fill-opacity="0.2"/>
<path d="M39.5 135L77.5 135" stroke="#2E3E5A" stroke-width="2"/>
<path d="M39.5 135L77.5 135" stroke="black" stroke-opacity="0.2" stroke-width="2"/>
<path d="M39.5 135L77.5 135" stroke="black" stroke-opacity="0.2" stroke-width="2"/>
<path d="M90.5 136.028L84.4824 130L82.5 131.986L90.5 140L98.5 131.986L96.5176 130L90.5 136.028Z" fill="#2E3E5A"/>
<path d="M90.5 136.028L84.4824 130L82.5 131.986L90.5 140L98.5 131.986L96.5176 130L90.5 136.028Z" fill="black" fill-opacity="0.2"/>
<path d="M90.5 136.028L84.4824 130L82.5 131.986L90.5 140L98.5 131.986L96.5176 130L90.5 136.028Z" fill="black" fill-opacity="0.2"/>
</svg>
