<svg width="358" height="94" viewBox="0 0 358 94" fill="none" xmlns="http://www.w3.org/2000/svg">
<g clip-path="url(#clip0_1318_137)">
<path d="M229.75 0.850098H3.25C2.14543 0.850098 1.25 1.74553 1.25 2.8501V42.7501C1.25 43.8547 2.14543 44.7501 3.25 44.7501H229.75C230.855 44.7501 231.75 43.8547 231.75 42.7501V2.8501C231.75 1.74553 230.855 0.850098 229.75 0.850098Z" fill="#E4E6EA"/>
<path d="M51.064 0.850098H1.68601C1.44521 0.850098 1.25 1.74553 1.25 2.8501V42.7501C1.25 43.8547 1.44521 44.7501 1.68601 44.7501H51.064C51.3048 44.7501 51.5 43.8547 51.5 42.7501V2.8501C51.5 1.74553 51.3048 0.850098 51.064 0.850098Z" fill="#788295"/>
<path d="M3.25 0.850098H229.75C230.855 0.850098 231.75 1.74553 231.75 2.8501V42.7505C231.75 43.8549 230.854 44.7505 229.75 44.7505H3.25C2.14556 44.7505 1.25021 43.8549 1.25 42.7505V2.8501C1.25 1.74553 2.14543 0.850098 3.25 0.850098Z" stroke="#2E3E5A" stroke-width="2"/>
<path d="M62.75 22.8013L218.75 22.8013" stroke="#2E3E5A" stroke-width="2"/>
<path d="M14 22.8013L39.25 22.8013" stroke="#2E3E5A" stroke-width="2"/>
<path d="M229.75 49.1001H3.25C2.14543 49.1001 1.25 49.9955 1.25 51.1001V91.0001C1.25 92.1047 2.14543 93.0001 3.25 93.0001H229.75C230.855 93.0001 231.75 92.1047 231.75 91.0001V51.1001C231.75 49.9955 230.855 49.1001 229.75 49.1001Z" fill="#E4E6EA"/>
<path d="M51.064 49.1001H1.68601C1.44521 49.1001 1.25 49.9955 1.25 51.1001V91.0001C1.25 92.1047 1.44521 93.0001 1.68601 93.0001H51.064C51.3048 93.0001 51.5 92.1047 51.5 91.0001V51.1001C51.5 49.9955 51.3048 49.1001 51.064 49.1001Z" fill="#788295"/>
<path d="M3.25 49.1001H229.75C230.855 49.1001 231.75 49.9955 231.75 51.1001V91.0005C231.75 92.1049 230.854 93.0005 229.75 93.0005H3.25C2.14556 93.0005 1.25021 92.1049 1.25 91.0005V51.1001C1.25 49.9955 2.14543 49.1001 3.25 49.1001Z" stroke="#2E3E5A" stroke-width="2"/>
<path d="M62.75 71.0513L218.75 71.0513" stroke="#2E3E5A" stroke-width="2"/>
<path d="M14 71.0513L39.25 71.0513" stroke="#2E3E5A" stroke-width="2"/>
</g>
<defs>
<clipPath id="clip0_1318_137">
<rect width="358" height="94" rx="4" fill="white"/>
</clipPath>
</defs>
</svg>
