<svg width="359" height="120" viewBox="0 0 359 120" fill="none" xmlns="http://www.w3.org/2000/svg">
<g clip-path="url(#clip0_172_5)">
<path d="M258.048 0.967773H5.48097C3.65759 0.967773 2.17944 1.83432 2.17944 2.90326V117.097C2.17944 118.166 3.65759 119.032 5.48097 119.032H258.048C259.871 119.032 261.349 118.166 261.349 117.097V2.90326C261.349 1.83432 259.871 0.967773 258.048 0.967773Z" fill="#E4E6EA"/>
<path d="M5.48086 1H258.048C259.269 1 260.326 1.29234 261.044 1.71302C261.785 2.14759 262 2.60236 262 2.90323V117.097C262 117.398 261.785 117.852 261.044 118.287C260.326 118.708 259.269 119 258.048 119H5.48086C4.25939 119 3.20238 118.708 2.4848 118.287C1.74352 117.852 1.52856 117.398 1.52856 117.097V2.90323C1.52856 2.60235 1.74352 2.14759 2.4848 1.71302C3.20238 1.29234 4.25939 1 5.48086 1Z" fill="#E4E6EA" stroke="#2E3E5A" stroke-width="2"/>
<path d="M17 19.9413H240" stroke="#2E3E5A" stroke-width="4"/>
<path d="M2.52856 44H260.999V116C260.999 117.105 260.103 118 258.999 118H4.52857C3.424 118 2.52856 117.105 2.52856 116V44Z" fill="white"/>
<path d="M17 62.9413H240" stroke="#2E3E5A" stroke-width="2"/>
<path d="M17 80.5H240" stroke="#2E3E5A" stroke-width="2"/>
<path d="M17 97.6913H140.5" stroke="#2E3E5A" stroke-width="2"/>
</g>
<defs>
<clipPath id="clip0_172_5">
<rect x="0.528564" width="358" height="120" rx="4" fill="white"/>
</clipPath>
</defs>
</svg>
