<svg xmlns="http://www.w3.org/2000/svg" xmlns:xlink="http://www.w3.org/1999/xlink" width="360" height="130" viewBox="0 0 360 130"><defs><clipPath id="b"><rect width="360" height="130"/></clipPath></defs><g id="a" clip-path="url(#b)"><rect width="230" height="126" rx="2" transform="translate(2 2)" fill="#fff"/><path d="M2,0A2,2,0,0,0,0,2V124a2,2,0,0,0,2,2H228a2,2,0,0,0,2-2V2a2,2,0,0,0-2-2H2M2-2H228a4,4,0,0,1,4,4V124a4,4,0,0,1-4,4H2a4,4,0,0,1-4-4V2A4,4,0,0,1,2-2Z" transform="translate(2 2)" fill="#2e3e5a"/><path d="M157.027,1H0V-1H157.027Z" transform="translate(45.777 25.5)" fill="#2e3e5a"/><path d="M157.027,1H0V-1H157.027Z" transform="translate(45.777 61.084)" fill="#2e3e5a"/><path d="M157.027,1H0V-1H157.027Z" transform="translate(45.777 96.668)" fill="#2e3e5a"/><path d="M125.066,1H0V-1H125.066Z" transform="translate(45.777 33.332)" fill="#2e3e5a"/><path d="M125.066,1H0V-1H125.066Z" transform="translate(45.777 68.916)" fill="#2e3e5a"/><path d="M125.066,1H0V-1H125.066Z" transform="translate(45.777 104.5)" fill="#2e3e5a"/><path d="M1.25,77h-2.5V0h2.5Z" transform="translate(25 24.837)" fill="#abb1bd"/><g transform="translate(0 5.837)"><circle cx="11.663" cy="11.663" r="11.663" transform="translate(14 11)" fill="#2e3e5a"/><path d="M11.663,2.5a9.163,9.163,0,1,0,9.163,9.163A9.173,9.173,0,0,0,11.663,2.5m0-2.5A11.663,11.663,0,1,1,0,11.663,11.663,11.663,0,0,1,11.663,0Z" transform="translate(14 11)" fill="#2e3e5a"/><path d="M0,6.788,1.737,5.02,4.8,8.092,12.9,0,14.65,1.741,4.8,11.59Z" transform="translate(18 17)" fill="#fff"/></g><g transform="translate(0 42.337)"><circle cx="11.663" cy="11.663" r="11.663" transform="translate(14 11)" fill="#2e3e5a"/><path d="M11.663,2.5a9.163,9.163,0,1,0,9.163,9.163A9.173,9.173,0,0,0,11.663,2.5m0-2.5A11.663,11.663,0,1,1,0,11.663,11.663,11.663,0,0,1,11.663,0Z" transform="translate(14 11)" fill="#2e3e5a"/><path d="M0,6.788,1.737,5.02,4.8,8.092,12.9,0,14.65,1.741,4.8,11.59Z" transform="translate(18 17)" fill="#fff"/></g><g transform="translate(-1 5.837)"><circle cx="11.663" cy="11.663" r="11.663" transform="translate(15 84)" fill="#fff"/><path d="M11.663,2.5a9.163,9.163,0,1,0,9.163,9.163A9.173,9.173,0,0,0,11.663,2.5m0-2.5A11.663,11.663,0,1,1,0,11.663,11.663,11.663,0,0,1,11.663,0Z" transform="translate(15 84)" fill="#2e3e5a"/><path d="M8,1.5H0v-3H8Z" transform="translate(22.5 95.5)" fill="#2e3e5a"/></g></g></svg>