<svg width="359" height="120" viewBox="0 0 359 120" fill="none" xmlns="http://www.w3.org/2000/svg">
<g clip-path="url(#clip0_154_84)">
<path d="M356.517 0H2.5398C1.42903 0 0.528564 1.17836 0.528564 2.63193V117.368C0.528564 118.822 1.42903 120 2.5398 120H356.517C357.628 120 358.529 118.822 358.529 117.368V2.63193C358.529 1.17836 357.628 0 356.517 0Z" fill="#E4E6EA"/>
<path d="M114.371 35.0555H13.9687C13.2439 35.0555 12.6562 35.5793 12.6562 36.2253V105.245C12.6562 105.891 13.2439 106.415 13.9687 106.415H114.371C115.095 106.415 115.683 105.891 115.683 105.245V36.2253C115.683 35.5793 115.095 35.0555 114.371 35.0555Z" fill="white"/>
<path d="M114.371 34.4706H13.9687C12.8814 34.4706 12 35.2562 12 36.2253V105.245C12 106.214 12.8814 107 13.9687 107H114.371C115.458 107 116.339 106.214 116.339 105.245V36.2253C116.339 35.2562 115.458 34.4706 114.371 34.4706Z" stroke="#2E3E5A" stroke-width="2"/>
<path d="M228.701 35.0555H128.299C127.574 35.0555 126.986 35.5793 126.986 36.2253V105.245C126.986 105.891 127.574 106.415 128.299 106.415H228.701C229.426 106.415 230.013 105.891 230.013 105.245V36.2253C230.013 35.5793 229.426 35.0555 228.701 35.0555Z" fill="white"/>
<path d="M228.701 34.4706H128.299C127.212 34.4706 126.33 35.2562 126.33 36.2253V105.245C126.33 106.214 127.212 107 128.299 107H228.701C229.788 107 230.67 106.214 230.67 105.245V36.2253C230.67 35.2562 229.788 34.4706 228.701 34.4706Z" stroke="#2E3E5A" stroke-width="2"/>
<path d="M343.031 35.0555H242.629C241.904 35.0555 241.317 35.5793 241.317 36.2253V105.245C241.317 105.891 241.904 106.415 242.629 106.415H343.031C343.756 106.415 344.344 105.891 344.344 105.245V36.2253C344.344 35.5793 343.756 35.0555 343.031 35.0555Z" fill="white"/>
<path d="M343.031 34.4706H242.629C241.542 34.4706 240.661 35.2562 240.661 36.2253V105.245C240.661 106.214 241.542 107 242.629 107H343.031C344.119 107 345 106.214 345 105.245V36.2253C345 35.2562 344.119 34.4706 343.031 34.4706Z" stroke="#2E3E5A" stroke-width="2"/>
<path d="M12 16.9413H258" stroke="#2E3E5A" stroke-width="4"/>
<path d="M12.6562 36.5039C12.6562 35.9516 13.104 35.5039 13.6562 35.5039H114.683C115.235 35.5039 115.683 35.9516 115.683 36.5039V58.0231H12.6562V36.5039Z" fill="#ABB1BD"/>
<path d="M126.986 36.5039C126.986 35.9516 127.434 35.5039 127.986 35.5039H229.013C229.565 35.5039 230.013 35.9516 230.013 36.5039V58.0231H126.986V36.5039Z" fill="#ABB1BD"/>
<path d="M241.317 36.5039C241.317 35.9516 241.765 35.5039 242.317 35.5039H343.344C343.896 35.5039 344.344 35.9516 344.344 36.5039V58.0231H241.317V36.5039Z" fill="#ABB1BD"/>
<path d="M56.9709 77.5861H30.2849C24.8808 77.5861 20.5 81.967 20.5 87.371C20.5 92.7751 24.8808 97.1559 30.2849 97.1559H56.9709C62.375 97.1559 66.7558 92.7751 66.7558 87.371C66.7558 81.967 62.375 77.5861 56.9709 77.5861Z" fill="#2E3E5A"/>
<path d="M31.3328 87.371H55.6366" stroke="white" stroke-width="3"/>
<path d="M171.471 77.5861H144.785C139.381 77.5861 135 81.967 135 87.371C135 92.7751 139.381 97.1559 144.785 97.1559H171.471C176.875 97.1559 181.256 92.7751 181.256 87.371C181.256 81.967 176.875 77.5861 171.471 77.5861Z" fill="#2E3E5A"/>
<path d="M145.833 87.371H170.137" stroke="white" stroke-width="3"/>
<path d="M285.801 77.5861H259.115C253.711 77.5861 249.331 81.967 249.331 87.371C249.331 92.7751 253.711 97.1559 259.115 97.1559H285.801C291.206 97.1559 295.586 92.7751 295.586 87.371C295.586 81.967 291.206 77.5861 285.801 77.5861Z" fill="#2E3E5A"/>
<path d="M260.163 87.371H284.467" stroke="white" stroke-width="3"/>
<path d="M38.4846 46.7635H105" stroke="#2E3E5A" stroke-width="2"/>
<path d="M154.485 46.7635H221" stroke="#2E3E5A" stroke-width="2"/>
<path d="M268.985 46.7635H335.5" stroke="#2E3E5A" stroke-width="2"/>
</g>
<rect x="1.02856" y="0.5" width="357" height="119" rx="3.5" stroke="black"/>
<defs>
<clipPath id="clip0_154_84">
<rect x="0.528564" width="358" height="120" rx="4" fill="white"/>
</clipPath>
</defs>
</svg>
