<svg width="359" height="140" viewBox="0 0 359 140" fill="none" xmlns="http://www.w3.org/2000/svg">
<g clip-path="url(#clip0_214_36)">
<path d="M175.661 1.12915H3.89665C2.65661 1.12915 1.65137 2.14012 1.65137 3.38721V136.613C1.65137 137.86 2.65661 138.871 3.89665 138.871H175.661C176.901 138.871 177.906 137.86 177.906 136.613V3.38721C177.906 2.14012 176.901 1.12915 175.661 1.12915Z" fill="#E4E6EA"/>
<path d="M3.89649 1H175.661C176.963 1 178.029 2.06338 178.029 3.3871V136.613C178.029 137.937 176.963 139 175.661 139H3.89649C2.59406 139 1.52856 137.937 1.52856 136.613V3.3871C1.52856 2.06338 2.59406 1 3.89649 1Z" fill="#E4E6EA" stroke="#2E3E5A" stroke-width="2"/>
<path d="M53.5286 108.216H23.5286C17.4534 108.216 12.5286 113.14 12.5286 119.216C12.5286 125.291 17.4534 130.216 23.5286 130.216H53.5286C59.6037 130.216 64.5286 125.291 64.5286 119.216C64.5286 113.14 59.6037 108.216 53.5286 108.216Z" fill="#2E3E5A"/>
<path d="M24.7065 119.216H52.0285" stroke="white" stroke-width="3"/>
<rect x="13.5286" y="15.125" width="151" height="24.0497" rx="3" fill="white"/>
<rect x="13.5286" y="15.125" width="151" height="24.0497" rx="3" stroke="#2E3E5A" stroke-width="2"/>
<rect x="13.5286" y="15.125" width="151" height="24.0497" rx="3" stroke="black" stroke-opacity="0.2" stroke-width="2"/>
<rect x="13.5286" y="15.125" width="151" height="24.0497" rx="3" stroke="black" stroke-opacity="0.2" stroke-width="2"/>
<path d="M35.7786 27.1498L123.279 27.1498" stroke="#2E3E5A" stroke-width="2"/>
<path d="M35.7786 27.1498L123.279 27.1498" stroke="black" stroke-opacity="0.2" stroke-width="2"/>
<path d="M35.7786 27.1498L123.279 27.1498" stroke="black" stroke-opacity="0.2" stroke-width="2"/>
<path d="M127.625 16.1782H161.625C162.73 16.1782 163.625 17.0737 163.625 18.1782V36.1215C163.625 37.2261 162.73 38.1215 161.625 38.1215H127.625V16.1782Z" fill="#E4E6EA"/>
<path d="M153.218 21.1466H138.032C134.957 21.1466 132.464 23.8344 132.464 27.1499C132.464 30.4654 134.957 33.1531 138.032 33.1531H153.218C156.293 33.1531 158.786 30.4654 158.786 27.1499C158.786 23.8344 156.293 21.1466 153.218 21.1466Z" fill="#2E3E5A"/>
<path d="M140.625 27.1498H150.625" stroke="white" stroke-width="2"/>
<path d="M29.678 27.1498C29.678 29.7203 27.6548 31.7591 25.214 31.7591C22.7732 31.7591 20.75 29.7203 20.75 27.1498C20.75 24.5793 22.7732 22.5405 25.214 22.5405C27.6548 22.5405 29.678 24.5793 29.678 27.1498Z" stroke="#2E3E5A" stroke-width="2"/>
<path d="M29.678 27.1498C29.678 29.7203 27.6548 31.7591 25.214 31.7591C22.7732 31.7591 20.75 29.7203 20.75 27.1498C20.75 24.5793 22.7732 22.5405 25.214 22.5405C27.6548 22.5405 29.678 24.5793 29.678 27.1498Z" stroke="black" stroke-opacity="0.2" stroke-width="2"/>
<path d="M29.678 27.1498C29.678 29.7203 27.6548 31.7591 25.214 31.7591C22.7732 31.7591 20.75 29.7203 20.75 27.1498C20.75 24.5793 22.7732 22.5405 25.214 22.5405C27.6548 22.5405 29.678 24.5793 29.678 27.1498Z" stroke="black" stroke-opacity="0.2" stroke-width="2"/>
<rect x="13.5286" y="45.5377" width="151" height="24.0497" rx="3" fill="white"/>
<rect x="13.5286" y="45.5377" width="151" height="24.0497" rx="3" stroke="#2E3E5A" stroke-width="2"/>
<rect x="13.5286" y="45.5377" width="151" height="24.0497" rx="3" stroke="black" stroke-opacity="0.2" stroke-width="2"/>
<rect x="13.5286" y="45.5377" width="151" height="24.0497" rx="3" stroke="black" stroke-opacity="0.2" stroke-width="2"/>
<path d="M35.7786 57.5625L123.279 57.5625" stroke="#2E3E5A" stroke-width="2"/>
<path d="M35.7786 57.5625L123.279 57.5625" stroke="black" stroke-opacity="0.2" stroke-width="2"/>
<path d="M35.7786 57.5625L123.279 57.5625" stroke="black" stroke-opacity="0.2" stroke-width="2"/>
<path d="M127.625 46.5908H161.625C162.73 46.5908 163.625 47.4863 163.625 48.5908V66.5341C163.625 67.6387 162.73 68.5341 161.625 68.5341H127.625V46.5908Z" fill="#E4E6EA"/>
<path d="M153.218 51.5593H138.032C134.957 51.5593 132.464 54.2471 132.464 57.5626C132.464 60.8781 134.957 63.5658 138.032 63.5658H153.218C156.293 63.5658 158.786 60.8781 158.786 57.5626C158.786 54.2471 156.293 51.5593 153.218 51.5593Z" fill="#2E3E5A"/>
<path d="M140.625 57.5625H150.625" stroke="white" stroke-width="2"/>
<path d="M29.678 57.5625C29.678 60.133 27.6548 62.1718 25.214 62.1718C22.7732 62.1718 20.75 60.133 20.75 57.5625C20.75 54.992 22.7732 52.9532 25.214 52.9532C27.6548 52.9532 29.678 54.992 29.678 57.5625Z" stroke="#2E3E5A" stroke-width="2"/>
<path d="M29.678 57.5625C29.678 60.133 27.6548 62.1718 25.214 62.1718C22.7732 62.1718 20.75 60.133 20.75 57.5625C20.75 54.992 22.7732 52.9532 25.214 52.9532C27.6548 52.9532 29.678 54.992 29.678 57.5625Z" stroke="black" stroke-opacity="0.2" stroke-width="2"/>
<path d="M29.678 57.5625C29.678 60.133 27.6548 62.1718 25.214 62.1718C22.7732 62.1718 20.75 60.133 20.75 57.5625C20.75 54.992 22.7732 52.9532 25.214 52.9532C27.6548 52.9532 29.678 54.992 29.678 57.5625Z" stroke="black" stroke-opacity="0.2" stroke-width="2"/>
<rect x="13.5286" y="75.9503" width="151" height="24.0497" rx="3" fill="white"/>
<rect x="13.5286" y="75.9503" width="151" height="24.0497" rx="3" stroke="#2E3E5A" stroke-width="2"/>
<rect x="13.5286" y="75.9503" width="151" height="24.0497" rx="3" stroke="black" stroke-opacity="0.2" stroke-width="2"/>
<rect x="13.5286" y="75.9503" width="151" height="24.0497" rx="3" stroke="black" stroke-opacity="0.2" stroke-width="2"/>
<path d="M35.7786 87.9752L123.279 87.9752" stroke="#2E3E5A" stroke-width="2"/>
<path d="M35.7786 87.9752L123.279 87.9752" stroke="black" stroke-opacity="0.2" stroke-width="2"/>
<path d="M35.7786 87.9752L123.279 87.9752" stroke="black" stroke-opacity="0.2" stroke-width="2"/>
<path d="M127.625 77.0035H161.625C162.73 77.0035 163.625 77.899 163.625 79.0035V96.9469C163.625 98.0514 162.73 98.9469 161.625 98.9469H127.625V77.0035Z" fill="#E4E6EA"/>
<path d="M153.218 81.9719H138.032C134.957 81.9719 132.464 84.6597 132.464 87.9752C132.464 91.2907 134.957 93.9784 138.032 93.9784H153.218C156.293 93.9784 158.786 91.2907 158.786 87.9752C158.786 84.6597 156.293 81.9719 153.218 81.9719Z" fill="#2E3E5A"/>
<path d="M140.625 87.9752H150.625" stroke="white" stroke-width="2"/>
<path d="M29.678 87.9752C29.678 90.5458 27.6548 92.5845 25.214 92.5845C22.7732 92.5845 20.75 90.5458 20.75 87.9752C20.75 85.4047 22.7732 83.366 25.214 83.366C27.6548 83.366 29.678 85.4047 29.678 87.9752Z" stroke="#2E3E5A" stroke-width="2"/>
<path d="M29.678 87.9752C29.678 90.5458 27.6548 92.5845 25.214 92.5845C22.7732 92.5845 20.75 90.5458 20.75 87.9752C20.75 85.4047 22.7732 83.366 25.214 83.366C27.6548 83.366 29.678 85.4047 29.678 87.9752Z" stroke="black" stroke-opacity="0.2" stroke-width="2"/>
<path d="M29.678 87.9752C29.678 90.5458 27.6548 92.5845 25.214 92.5845C22.7732 92.5845 20.75 90.5458 20.75 87.9752C20.75 85.4047 22.7732 83.366 25.214 83.366C27.6548 83.366 29.678 85.4047 29.678 87.9752Z" stroke="black" stroke-opacity="0.2" stroke-width="2"/>
</g>
<defs>
<clipPath id="clip0_214_36">
<rect width="358" height="140" fill="white" transform="translate(0.528564)"/>
</clipPath>
</defs>
</svg>
