<svg width="359" height="120" viewBox="0 0 359 120" fill="none" xmlns="http://www.w3.org/2000/svg">
<g clip-path="url(#clip0_156_131)">
<path d="M258.048 0.967773H5.48097C3.65759 0.967773 2.17944 1.83432 2.17944 2.90326V117.097C2.17944 118.166 3.65759 119.032 5.48097 119.032H258.048C259.871 119.032 261.349 118.166 261.349 117.097V2.90326C261.349 1.83432 259.871 0.967773 258.048 0.967773Z" fill="#E4E6EA"/>
<path d="M5.48086 1H258.048C259.269 1 260.326 1.29234 261.044 1.71302C261.785 2.14759 262 2.60236 262 2.90323V117.097C262 117.398 261.785 117.852 261.044 118.287C260.326 118.708 259.269 119 258.048 119H5.48086C4.25939 119 3.20238 118.708 2.4848 118.287C1.74352 117.852 1.52856 117.398 1.52856 117.097V2.90323C1.52856 2.60235 1.74352 2.14759 2.4848 1.71302C3.20238 1.29234 4.25939 1 5.48086 1Z" fill="#E4E6EA" stroke="#2E3E5A" stroke-width="2"/>
<path d="M17 19.9413H240" stroke="#2E3E5A" stroke-width="4"/>
<path d="M58 81.2156H28C21.9249 81.2156 17 86.1404 17 92.2156C17 98.2907 21.9249 103.216 28 103.216H58C64.0751 103.216 69 98.2907 69 92.2156C69 86.1404 64.0751 81.2156 58 81.2156Z" fill="#2E3E5A"/>
<path d="M29.178 92.2156H56.5" stroke="white" stroke-width="3"/>
<mask id="path-7-inside-1_156_131" fill="white">
<path d="M17.1611 41H43V69H17.1611V41Z"/>
</mask>
<path d="M17.1611 41H43V69H17.1611V41Z" fill="white"/>
<path d="M43 66H17.1611V72H43V66Z" fill="#2E3E5A" mask="url(#path-7-inside-1_156_131)"/>
<mask id="path-9-inside-2_156_131" fill="white">
<path d="M50 41H75.8389V69H50V41Z"/>
</mask>
<path d="M50 41H75.8389V69H50V41Z" fill="white"/>
<path d="M75.8389 66H50V72H75.8389V66Z" fill="#2E3E5A" mask="url(#path-9-inside-2_156_131)"/>
<mask id="path-11-inside-3_156_131" fill="white">
<path d="M82.8389 41H108.678V69H82.8389V41Z"/>
</mask>
<path d="M82.8389 41H108.678V69H82.8389V41Z" fill="white"/>
<path d="M108.678 66H82.8389V72H108.678V66Z" fill="#2E3E5A" mask="url(#path-11-inside-3_156_131)"/>
<mask id="path-13-inside-4_156_131" fill="white">
<path d="M115.678 41H141.517V69H115.678V41Z"/>
</mask>
<path d="M115.678 41H141.517V69H115.678V41Z" fill="white"/>
<path d="M141.517 66H115.678V72H141.517V66Z" fill="#2E3E5A" mask="url(#path-13-inside-4_156_131)"/>
</g>
<defs>
<clipPath id="clip0_156_131">
<rect x="0.528564" width="358" height="120" rx="4" fill="white"/>
</clipPath>
</defs>
</svg>
