<svg width="295" height="120" viewBox="0 0 295 120" fill="none" xmlns="http://www.w3.org/2000/svg">
<g clip-path="url(#clip0_214_9)">
<path d="M293.343 0H1.6573C0.742 0 0 1.17836 0 2.63193V117.368C0 118.822 0.742 120 1.6573 120H293.343C294.258 120 295 118.822 295 117.368V2.63193C295 1.17836 294.258 0 293.343 0Z" fill="#E4E6EA"/>
<path d="M138.354 35.0555H13.9116C13.0132 35.0555 12.2849 35.5793 12.2849 36.2253V105.245C12.2849 105.891 13.0132 106.415 13.9116 106.415H138.354C139.253 106.415 139.981 105.891 139.981 105.245V36.2253C139.981 35.5793 139.253 35.0555 138.354 35.0555Z" fill="white"/>
<path d="M138.354 34.4706H13.9115C12.5639 34.4706 11.4714 35.2562 11.4714 36.2253V105.245C11.4714 106.214 12.5639 107 13.9115 107H138.354C139.702 107 140.794 106.214 140.794 105.245V36.2253C140.794 35.2562 139.702 34.4706 138.354 34.4706Z" stroke="#2E3E5A" stroke-width="2"/>
<path d="M280.06 35.0555H155.617C154.719 35.0555 153.99 35.5793 153.99 36.2253V105.245C153.99 105.891 154.719 106.415 155.617 106.415H280.06C280.958 106.415 281.686 105.891 281.686 105.245V36.2253C281.686 35.5793 280.958 35.0555 280.06 35.0555Z" fill="white"/>
<path d="M280.06 34.4706H155.618C154.27 34.4706 153.177 35.2562 153.177 36.2253V105.245C153.177 106.214 154.27 107 155.618 107H280.06C281.408 107 282.5 106.214 282.5 105.245V36.2253C282.5 35.2562 281.408 34.4706 280.06 34.4706Z" stroke="#2E3E5A" stroke-width="2"/>
<path d="M11.4714 16.9413H257.471" stroke="#2E3E5A" stroke-width="4"/>
<path d="M12.2849 36.5039C12.2849 35.9516 12.7326 35.5039 13.2849 35.5039H138.981C139.533 35.5039 139.981 35.9516 139.981 36.5039V58.0231H12.2849V36.5039Z" fill="#ABB1BD"/>
<path d="M153.99 36.5039C153.99 35.9516 154.438 35.5039 154.99 35.5039H280.686C281.239 35.5039 281.686 35.9516 281.686 36.5039V58.0231H153.99V36.5039Z" fill="#ABB1BD"/>
<path d="M57.1702 77.5862H31.4407C26.2304 77.5862 22.0066 81.967 22.0066 87.371C22.0066 92.7751 26.2304 97.1559 31.4407 97.1559H57.1702C62.3805 97.1559 66.6043 92.7751 66.6043 87.371C66.6043 81.967 62.3805 77.5862 57.1702 77.5862Z" fill="#2E3E5A"/>
<path d="M32.4512 87.371H55.8839" stroke="white" stroke-width="3"/>
<path d="M198.946 77.5862H173.216C168.006 77.5862 163.782 81.967 163.782 87.371C163.782 92.7751 168.006 97.1559 173.216 97.1559H198.946C204.156 97.1559 208.38 92.7751 208.38 87.371C208.38 81.967 204.156 77.5862 198.946 77.5862Z" fill="#2E3E5A"/>
<path d="M174.227 87.371H197.659" stroke="white" stroke-width="3"/>
<path d="M22.0066 46.7635H104.449" stroke="#2E3E5A" stroke-width="2"/>
<path d="M163.782 46.7635H246.224" stroke="#2E3E5A" stroke-width="2"/>
</g>
<rect x="0.5" y="0.5" width="294" height="119" rx="3.5" stroke="black"/>
<defs>
<clipPath id="clip0_214_9">
<rect width="295" height="120" rx="4" fill="white"/>
</clipPath>
</defs>
</svg>
