<svg width="361" height="138" viewBox="0 0 361 138" fill="none" xmlns="http://www.w3.org/2000/svg">
<path d="M157 2.0968H4C2.89543 2.0968 2 3.07889 2 4.29035V133.71C2 134.921 2.89543 135.903 4 135.903H157C158.105 135.903 159 134.921 159 133.71V4.29035C159 3.07889 158.105 2.0968 157 2.0968Z" fill="white"/>
<path d="M157 1H4C2.34315 1 1 2.47313 1 4.29032V133.71C1 135.527 2.34315 137 4 137H157C158.657 137 160 135.527 160 133.71V4.29032C160 2.47313 158.657 1 157 1Z" stroke="#2E3E5A" stroke-width="2"/>
<path d="M44.5322 46.9409H141.989" stroke="#2E3E5A" stroke-width="2"/>
<path d="M44.5322 97.3275H141.989" stroke="#2E3E5A" stroke-width="2"/>
<path d="M44.5322 57.6472H122.153" stroke="#2E3E5A" stroke-width="2"/>
<path d="M44.5322 108.034H122.153" stroke="#2E3E5A" stroke-width="2"/>
<rect x="12.8425" y="39.794" width="25" height="25" fill="#E4E6EA"/>
<rect x="12.8425" y="90.1807" width="25" height="25" fill="#E4E6EA"/>
<path d="M2 4.0968C2 2.99223 2.89543 2.0968 4 2.0968H157C158.105 2.0968 159 2.99223 159 4.0968V26H2V4.0968Z" fill="#E4E6EA"/>
<line x1="12.8425" y1="74.5" x2="146" y2="74.5" stroke="#2E3E5A" stroke-width="2"/>
</svg>
