<svg xmlns="http://www.w3.org/2000/svg" xmlns:xlink="http://www.w3.org/1999/xlink" width="360" height="92" viewBox="0 0 360 92"><defs><clipPath id="b"><rect width="360" height="92"/></clipPath></defs><g id="a" clip-path="url(#b)"><g transform="translate(0 0)"><path d="M62.532,13.236c-.038,1.089-4.848,5.584-2.991,5.873,14.36,8.7,13.447,9.663,15.275,5.353,3.649-8.182,1.472-30.188,7.923-6.4,2.831-3.938,4.521,4.373,4.219,6.051,2.814.446.76,3.771,2.168,5.828,5.305,3.791,7.615,3.6,9.508,10.406,1.42-.352,2.452-.166,2.729,1.618.565,2.731,5.142,4.755,5.755,7.289,6.361,19.709-6.573,17.926-8.428,33.36-1.367,1.006-3.041-.168-3,.235-7.069,4.075-8.1,2.126-11.019,1.234-3.818,4.115-8.951-1.639-9.968-.248-4.854-1.281-2.574-8.07-6.243-7.11-.5-2.427-1.877-2.975-1.877-2.975-1.7,4.2-1.629-1.795-.72-3.138-2.487-1.42-5.01,8.628-7.23,1.253-5.16-10.953-26.435-4.775-32.306.284-13.469-1.47-11.1,5.09-19.52,2.249-2.565-1.44-2.244-2.71-1.975-3.207,3.145-2.6.144-6.5-1.136-10.134-.338-5.043-1.763-2.981-2.433-6.682-2.326-5.748,1.592-1.345.172-5.681C-4.711,36.99,10.545,36.285,15.857,33c4.03,1.54,6.253-3.557,8.208-5.332-1.789-2.12.568-3.214,1.519-3.937.729,2.867,2.179,3.642,2.144,1.174-.793-4.22,2.237-.9,1.985-1.77-1.155-2.725,2.653-4.31,4.421-5.719,4.159-3.413,4.041,2.235,8.752,1.928,1.141.026.943-.634.491-1.87,3.184-12.635,18.6-6.4,19.156-4.237" transform="translate(0.001 -7.329)" fill="#abb1bd"/><path d="M121.713,128.67c-.294-2.285,4.63,1.647,9.455-.566,1.883,3.133-3.16,8.822-5.581,7.456-2.455-.606-2.983-5.787-3.873-6.89" transform="translate(-36.771 -43.768)" fill="#abb1bd"/></g><g transform="translate(74.59 19.844)"><path d="M14.483,39.089a1.222,1.222,0,0,1-1.04-.545L3.051,23.7A14.855,14.855,0,0,1,.035,13.8,14.61,14.61,0,0,1,14.432,0a14.8,14.8,0,0,1,14.5,13.8,15.355,15.355,0,0,1-3.067,9.9L15.52,38.544A1.215,1.215,0,0,1,14.483,39.089ZM14.432,8.56A6.136,6.136,0,1,0,20.518,14.7,6.118,6.118,0,0,0,14.432,8.56Z" transform="translate(0)" fill="#2e3e5a"/></g></g></svg>