<svg width="359" height="120" viewBox="0 0 359 120" fill="none" xmlns="http://www.w3.org/2000/svg">
<g clip-path="url(#clip0_172_23)">
<path d="M264.166 1.7673H3.97474C2.70587 1.7673 1.67725 3.3498 1.67725 5.30191V54.6097C1.67725 56.5618 2.70587 58.1443 3.97474 58.1443H264.166C265.435 58.1443 266.464 56.5618 266.464 54.6097V5.30191C266.464 3.3498 265.435 1.7673 264.166 1.7673Z" fill="#E4E6EA"/>
<path d="M264.166 0H3.97481C2.0715 0 0.528564 2.37375 0.528564 5.30191V54.6097C0.528564 57.5379 2.0715 59.9116 3.97481 59.9116H264.166C266.07 59.9116 267.613 57.5379 267.613 54.6097V5.30191C267.613 2.37375 266.07 0 264.166 0Z" stroke="#2E3E5A" stroke-width="2"/>
<path d="M14.8879 40.9557H218.216" stroke="#2E3E5A" stroke-width="2"/>
<path d="M243.833 30.9678L237.892 25.0161L235.939 26.977L243.833 34.8953L251.732 26.977L249.779 25.0161L243.833 30.9678Z" fill="#2E3E5A"/>
<path d="M264.166 61.8557H3.97474C2.70587 61.8557 1.67725 63.4382 1.67725 65.3903V114.698C1.67725 116.65 2.70587 118.233 3.97474 118.233H264.166C265.435 118.233 266.464 116.65 266.464 114.698V65.3903C266.464 63.4382 265.435 61.8557 264.166 61.8557Z" fill="#E4E6EA"/>
<path d="M264.166 60.0884H3.97481C2.0715 60.0884 0.528564 62.4621 0.528564 65.3903V114.698C0.528564 117.626 2.0715 120 3.97481 120H264.166C266.07 120 267.613 117.626 267.613 114.698V65.3903C267.613 62.4621 266.07 60.0884 264.166 60.0884Z" stroke="#2E3E5A" stroke-width="2"/>
<path d="M14.8879 101.044H218.216" stroke="#2E3E5A" stroke-width="2"/>
<path d="M243.833 91.0562L237.892 85.1046L235.939 87.0655L243.833 94.9838L251.732 87.0655L249.779 85.1046L243.833 91.0562Z" fill="#2E3E5A"/>
<path d="M14.8879 20.9413H218.216" stroke="#2E3E5A" stroke-width="4"/>
<path d="M14.8879 82.4413H218.216" stroke="#2E3E5A" stroke-width="4"/>
</g>
<defs>
<clipPath id="clip0_172_23">
<rect x="0.528564" width="358" height="120" rx="4" fill="white"/>
</clipPath>
</defs>
</svg>
