<svg width="358" height="47" viewBox="0 0 358 47" fill="none" xmlns="http://www.w3.org/2000/svg">
<g clip-path="url(#clip0_108_402)">
<rect x="1.37109" y="1.99646" width="64.6289" height="43.6617" fill="#E4E6EA"/>
<rect x="66" y="1.99646" width="162.871" height="43.6617" fill="white"/>
<path d="M3.37109 1.43103H226.871C227.241 1.43103 227.717 1.66736 228.15 2.34485C228.575 3.01093 228.871 3.99192 228.871 5.12718V42.5273C228.871 43.6626 228.575 44.6436 228.15 45.3097C227.717 45.9872 227.241 46.2235 226.871 46.2235H3.37109C3.0013 46.2235 2.52529 45.9872 2.0925 45.3097C1.66699 44.6436 1.37109 43.6626 1.37109 42.5273V5.12718C1.37109 3.99192 1.66699 3.01093 2.0925 2.34485C2.52529 1.66736 3.0013 1.43103 3.37109 1.43103Z" stroke="#2E3E5A" stroke-width="2"/>
<path d="M71.9199 23.7043L210.5 23.9503" stroke="#2E3E5A" stroke-width="4"/>
<path d="M25.3656 33.67C25.3656 33.67 18.5522 27.8006 10.5 33.67V16.2302C12.7023 14.7658 15.2881 13.9846 17.9328 13.9846C20.5775 13.9846 23.1633 14.7658 25.3656 16.2302V33.67Z" stroke="#2E3E5A" stroke-width="2" stroke-linecap="round" stroke-linejoin="round"/>
<path d="M40.2311 33.67C40.2311 33.67 33.4177 27.8006 25.3655 33.67V16.2302C27.5678 14.7658 30.1535 13.9846 32.7983 13.9846C35.443 13.9846 38.0288 14.7658 40.2311 16.2302V33.67Z" stroke="#2E3E5A" stroke-width="2" stroke-linecap="round" stroke-linejoin="round"/>
<path d="M13.8442 26.0614C13.8442 26.0614 17.918 23.6395 21.6424 26.0614" stroke="#2E3E5A" stroke-width="2" stroke-linecap="round"/>
<path d="M13.8442 21.0963C13.8442 21.0963 17.918 18.6744 21.6424 21.0963" stroke="#2E3E5A" stroke-width="2" stroke-linecap="round"/>
<path d="M28.6501 26.0614C28.6501 26.0614 32.7239 23.6395 36.4484 26.0614" stroke="#2E3E5A" stroke-width="2" stroke-linecap="round"/>
<path d="M28.6501 21.0963C28.6501 21.0963 32.7239 18.6744 36.4484 21.0963" stroke="#2E3E5A" stroke-width="2" stroke-linecap="round"/>
</g>
<defs>
<clipPath id="clip0_108_402">
<rect width="358" height="47" fill="white"/>
</clipPath>
</defs>
</svg>
