<svg width="359" height="116" viewBox="0 0 359 116" fill="none" xmlns="http://www.w3.org/2000/svg">
<g clip-path="url(#clip0_1318_120)">
<path d="M2.51172 1H356.489C356.842 1.00042 357.5 1.4599 357.5 2.54395V113.456C357.5 114.54 356.842 115 356.489 115H2.51172C2.15959 115 1.5001 114.541 1.5 113.456V2.54395L1.50781 2.34766C1.58167 1.40373 2.18163 1 2.51172 1Z" fill="#E4E6EA"/>
<path d="M2.51172 1H356.489C356.842 1.00042 357.5 1.4599 357.5 2.54395V113.456C357.5 114.54 356.842 115 356.489 115H2.51172C2.15959 115 1.5001 114.541 1.5 113.456V2.54395L1.50781 2.34766C1.58167 1.40373 2.18163 1 2.51172 1Z" stroke="#2E3E5A" stroke-width="2"/>
<path d="M2.51172 1H356.489C356.842 1.00042 357.5 1.4599 357.5 2.54395V113.456C357.5 114.54 356.842 115 356.489 115H2.51172C2.15959 115 1.5001 114.541 1.5 113.456V2.54395L1.50781 2.34766C1.58167 1.40373 2.18163 1 2.51172 1Z" stroke="black" stroke-opacity="0.2" stroke-width="2"/>
<path d="M2.51172 1H356.489C356.842 1.00042 357.5 1.4599 357.5 2.54395V113.456C357.5 114.54 356.842 115 356.489 115H2.51172C2.15959 115 1.5001 114.541 1.5 113.456V2.54395L1.50781 2.34766C1.58167 1.40373 2.18163 1 2.51172 1Z" stroke="black" stroke-opacity="0.2" stroke-width="2"/>
<path d="M321.55 20.7434H36.9482V113.933H321.55V20.7434Z" fill="white"/>
<path d="M52.4268 42.5581H305.573" stroke="#2E3E5A" stroke-width="4"/>
<path d="M52.4268 42.5581H305.573" stroke="black" stroke-opacity="0.2" stroke-width="4"/>
<path d="M52.4268 42.5581H305.573" stroke="black" stroke-opacity="0.2" stroke-width="4"/>
<path d="M52.4268 63.3384H233.174" stroke="#2E3E5A" stroke-width="4"/>
<path d="M52.4268 63.3384H233.174" stroke="black" stroke-opacity="0.2" stroke-width="4"/>
<path d="M52.4268 63.3384H233.174" stroke="black" stroke-opacity="0.2" stroke-width="4"/>
<path d="M115.339 98.4363H233.174" stroke="#2E3E5A" stroke-width="2"/>
<path d="M115.339 98.4363H233.174" stroke="black" stroke-opacity="0.2" stroke-width="2"/>
<path d="M115.339 98.4363H233.174" stroke="black" stroke-opacity="0.2" stroke-width="2"/>
<rect x="53" y="88.8811" width="52.5" height="17.5" fill="#ABB1BD"/>
</g>
<defs>
<clipPath id="clip0_1318_120">
<rect x="0.5" width="358" height="116" rx="4" fill="white"/>
</clipPath>
</defs>
</svg>
