<svg xmlns="http://www.w3.org/2000/svg" xmlns:xlink="http://www.w3.org/1999/xlink" width="360" height="53" viewBox="0 0 360 53"><defs><clipPath id="b"><rect width="360" height="53"/></clipPath></defs><g id="a" clip-path="url(#b)"><rect width="96.684" height="44.857" rx="3" transform="translate(0.5 0.5)" fill="#abb1bd"/><path d="M3-1H93.684a4,4,0,0,1,4,4V41.857a4,4,0,0,1-4,4H3a4,4,0,0,1-4-4V3A4,4,0,0,1,3-1ZM93.684,43.857a2,2,0,0,0,2-2V3a2,2,0,0,0-2-2H3A2,2,0,0,0,1,3V41.857a2,2,0,0,0,2,2Z" transform="translate(0.5 0.5)" fill="#2e3e5a"/><rect width="96.684" height="44.857" rx="3" transform="translate(102.5 0.5)" fill="#e4e6ea"/><path d="M3-1H93.684a4,4,0,0,1,4,4V41.857a4,4,0,0,1-4,4H3a4,4,0,0,1-4-4V3A4,4,0,0,1,3-1ZM93.684,43.857a2,2,0,0,0,2-2V3a2,2,0,0,0-2-2H3A2,2,0,0,0,1,3V41.857a2,2,0,0,0,2,2Z" transform="translate(102.5 0.5)" fill="#2e3e5a"/><path d="M72.242,2H0V-2H72.242Z" transform="translate(12.5 22.5)" fill="#2e3e5a"/><path d="M360.5,2H0V-2H360.5Z" transform="translate(0 45.357)" fill="#2e3e5a"/><path d="M72.242,2H0V-2H72.242Z" transform="translate(114.5 22.5)" fill="#2e3e5a"/></g></svg>