<svg xmlns="http://www.w3.org/2000/svg" xmlns:xlink="http://www.w3.org/1999/xlink" width="360" height="75" viewBox="0 0 360 75"><defs><clipPath id="b"><rect width="360" height="75"/></clipPath></defs><g id="a" clip-path="url(#b)"><rect width="356" height="30" rx="2" transform="translate(2 2)" fill="#e4e6ea"/><path d="M2,0A2,2,0,0,0,0,2V28a2,2,0,0,0,2,2H354a2,2,0,0,0,2-2V2a2,2,0,0,0-2-2H2M2-2H354a4,4,0,0,1,4,4V28a4,4,0,0,1-4,4H2a4,4,0,0,1-4-4V2A4,4,0,0,1,2-2Z" transform="translate(2 2)" fill="#2e3e5a"/><rect width="358" height="31" transform="translate(1 1)" fill="#2e3e5a"/><path d="M115.972,22,122,28.018,120.014,30,112,22l8.014-8L122,15.982Z" transform="translate(-98 -6)" fill="#fff" fill-rule="evenodd"/><path d="M118.028,22,112,28.018,113.986,30,122,22l-8.014-8L112,15.982Z" transform="translate(358.5 -101) rotate(90)" fill="#fff" fill-rule="evenodd"/><path d="M38,1.5H0v-3H38Z" transform="translate(35.5 15.5)" fill="#fff"/><path d="M38,1.5H0v-3H38Z" transform="translate(282 15.5)" fill="#fff"/></g></svg>