<svg width="358" height="140" viewBox="0 0 358 140" fill="none" xmlns="http://www.w3.org/2000/svg">
<path d="M175.132 1.12915H3.36796C2.12793 1.12915 1.12268 2.14012 1.12268 3.38721V136.613C1.12268 137.86 2.12793 138.871 3.36796 138.871H175.132C176.372 138.871 177.377 137.86 177.377 136.613V3.38721C177.377 2.14012 176.372 1.12915 175.132 1.12915Z" fill="#E4E6EA"/>
<path d="M3.36792 1H175.132C176.435 1 177.5 2.06338 177.5 3.3871V136.613C177.5 137.937 176.435 139 175.132 139H3.36792C2.0655 139 1 137.937 1 136.613V3.3871C1 2.06338 2.0655 1 3.36792 1Z" fill="#E4E6EA" stroke="#2E3E5A" stroke-width="2"/>
<path d="M81 19L165 19" stroke="#2E3E5A" stroke-width="4"/>
<path d="M81 19L165 19" stroke="black" stroke-opacity="0.2" stroke-width="4"/>
<path d="M81 19L165 19" stroke="black" stroke-opacity="0.2" stroke-width="4"/>
<path d="M64.25 36.3333H165" stroke="#2E3E5A" stroke-width="2"/>
<path d="M64.25 36.3333H165" stroke="black" stroke-opacity="0.2" stroke-width="2"/>
<path d="M64.25 36.3333H165" stroke="black" stroke-opacity="0.2" stroke-width="2"/>
<path d="M54.5 11.6664H10.848V39H54.5V11.6664Z" fill="white"/>
<path d="M68.1094 25H65.6953V18.3906L65.7188 17.3047L65.7578 16.1172C65.3568 16.5182 65.0781 16.7812 64.9219 16.9062L63.6094 17.9609L62.4453 16.5078L66.125 13.5781H68.1094V25ZM71.5547 23.8828C71.5547 23.4453 71.6719 23.1146 71.9062 22.8906C72.1406 22.6667 72.4818 22.5547 72.9297 22.5547C73.362 22.5547 73.6953 22.6693 73.9297 22.8984C74.1693 23.1276 74.2891 23.4557 74.2891 23.8828C74.2891 24.2943 74.1693 24.6198 73.9297 24.8594C73.6901 25.0938 73.3568 25.2109 72.9297 25.2109C72.4922 25.2109 72.1536 25.0964 71.9141 24.8672C71.6745 24.6328 71.5547 24.3047 71.5547 23.8828Z" fill="#2E3E5A"/>
<rect x="13" y="48.0459" width="151" height="34.9541" rx="3" fill="white"/>
<rect x="13" y="48.0459" width="151" height="34.9541" rx="3" stroke="#2E3E5A" stroke-width="2"/>
<rect x="13" y="48.0459" width="151" height="34.9541" rx="3" stroke="black" stroke-opacity="0.2" stroke-width="2"/>
<rect x="13" y="48.0459" width="151" height="34.9541" rx="3" stroke="black" stroke-opacity="0.2" stroke-width="2"/>
<rect x="13" y="93.046" width="151" height="34.9541" rx="3" fill="white"/>
<rect x="13" y="93.046" width="151" height="34.9541" rx="3" stroke="#2E3E5A" stroke-width="2"/>
<rect x="13" y="93.046" width="151" height="34.9541" rx="3" stroke="black" stroke-opacity="0.2" stroke-width="2"/>
<rect x="13" y="93.046" width="151" height="34.9541" rx="3" stroke="black" stroke-opacity="0.2" stroke-width="2"/>
</svg>
