<svg width="358" height="120" viewBox="0 0 358 120" fill="none" xmlns="http://www.w3.org/2000/svg">
<path d="M257.519 0.967773H4.95241C3.12902 0.967773 1.65088 1.83432 1.65088 2.90326V117.097C1.65088 118.166 3.12902 119.032 4.95241 119.032H257.519C259.343 119.032 260.821 118.166 260.821 117.097V2.90326C260.821 1.83432 259.343 0.967773 257.519 0.967773Z" fill="#E4E6EA"/>
<path d="M4.95215 1H257.52C258.741 1.00006 259.798 1.29226 260.516 1.71289C261.257 2.14741 261.472 2.60248 261.472 2.90332V117.097C261.472 117.398 261.257 117.853 260.516 118.287C259.798 118.708 258.741 119 257.52 119H4.95215C3.73074 119 2.67361 118.708 1.95605 118.287C1.21484 117.853 1 117.398 1 117.097V2.90332C1 2.60246 1.21484 2.14744 1.95605 1.71289C2.67361 1.29223 3.73074 1.00002 4.95215 1Z" fill="#E4E6EA"/>
<path d="M4.95215 1H257.52C258.741 1.00006 259.798 1.29226 260.516 1.71289C261.257 2.14741 261.472 2.60248 261.472 2.90332V117.097C261.472 117.398 261.257 117.853 260.516 118.287C259.798 118.708 258.741 119 257.52 119H4.95215C3.73074 119 2.67361 118.708 1.95605 118.287C1.21484 117.853 1 117.398 1 117.097V2.90332C1 2.60246 1.21484 2.14744 1.95605 1.71289C2.67361 1.29223 3.73074 1.00002 4.95215 1Z" stroke="#2E3E5A" stroke-width="2"/>
<path d="M4.95215 1H257.52C258.741 1.00006 259.798 1.29226 260.516 1.71289C261.257 2.14741 261.472 2.60248 261.472 2.90332V117.097C261.472 117.398 261.257 117.853 260.516 118.287C259.798 118.708 258.741 119 257.52 119H4.95215C3.73074 119 2.67361 118.708 1.95605 118.287C1.21484 117.853 1 117.398 1 117.097V2.90332C1 2.60246 1.21484 2.14744 1.95605 1.71289C2.67361 1.29223 3.73074 1.00002 4.95215 1Z" stroke="black" stroke-opacity="0.2" stroke-width="2"/>
<path d="M4.95215 1H257.52C258.741 1.00006 259.798 1.29226 260.516 1.71289C261.257 2.14741 261.472 2.60248 261.472 2.90332V117.097C261.472 117.398 261.257 117.853 260.516 118.287C259.798 118.708 258.741 119 257.52 119H4.95215C3.73074 119 2.67361 118.708 1.95605 118.287C1.21484 117.853 1 117.398 1 117.097V2.90332C1 2.60246 1.21484 2.14744 1.95605 1.71289C2.67361 1.29223 3.73074 1.00002 4.95215 1Z" stroke="black" stroke-opacity="0.2" stroke-width="2"/>
<path d="M16.4714 17.9414H189" stroke="#2E3E5A" stroke-width="4"/>
<path d="M16.4714 17.9414H189" stroke="black" stroke-opacity="0.2" stroke-width="4"/>
<path d="M16.4714 17.9414H189" stroke="black" stroke-opacity="0.2" stroke-width="4"/>
<path d="M2 36.5H260.47V116C260.47 117.105 259.575 118 258.47 118H4.00001C2.89544 118 2 117.105 2 116V36.5Z" fill="white"/>
<path d="M16.4714 54.9414H239.471" stroke="#2E3E5A" stroke-width="2"/>
<path d="M16.4714 54.9414H239.471" stroke="black" stroke-opacity="0.2" stroke-width="2"/>
<path d="M16.4714 54.9414H239.471" stroke="black" stroke-opacity="0.2" stroke-width="2"/>
<path d="M16.4714 72.5H102.736" stroke="#2E3E5A" stroke-width="2"/>
<path d="M16.4714 72.5H102.736" stroke="black" stroke-opacity="0.2" stroke-width="2"/>
<path d="M16.4714 72.5H102.736" stroke="black" stroke-opacity="0.2" stroke-width="2"/>
<path d="M231.471 18.9696L225.454 12.9414L223.471 14.9273L231.471 22.9414L239.471 14.9273L237.489 12.9414L231.471 18.9696Z" fill="#2E3E5A"/>
<path d="M231.471 18.9696L225.454 12.9414L223.471 14.9273L231.471 22.9414L239.471 14.9273L237.489 12.9414L231.471 18.9696Z" fill="black" fill-opacity="0.2"/>
<path d="M231.471 18.9696L225.454 12.9414L223.471 14.9273L231.471 22.9414L239.471 14.9273L237.489 12.9414L231.471 18.9696Z" fill="black" fill-opacity="0.2"/>
<path d="M52.9424 90.1565H26.2563C20.8523 90.1565 16.4714 94.5373 16.4714 99.9414C16.4714 105.345 20.8523 109.726 26.2563 109.726H52.9424C58.3464 109.726 62.7272 105.345 62.7272 99.9414C62.7272 94.5373 58.3464 90.1565 52.9424 90.1565Z" fill="#2E3E5A"/>
<path d="M52.9424 90.1565H26.2563C20.8523 90.1565 16.4714 94.5373 16.4714 99.9414C16.4714 105.345 20.8523 109.726 26.2563 109.726H52.9424C58.3464 109.726 62.7272 105.345 62.7272 99.9414C62.7272 94.5373 58.3464 90.1565 52.9424 90.1565Z" fill="black" fill-opacity="0.2"/>
<path d="M52.9424 90.1565H26.2563C20.8523 90.1565 16.4714 94.5373 16.4714 99.9414C16.4714 105.345 20.8523 109.726 26.2563 109.726H52.9424C58.3464 109.726 62.7272 105.345 62.7272 99.9414C62.7272 94.5373 58.3464 90.1565 52.9424 90.1565Z" fill="black" fill-opacity="0.2"/>
<path d="M27.3042 99.9414H51.6081" stroke="white" stroke-width="3"/>
</svg>
