<svg xmlns="http://www.w3.org/2000/svg" xmlns:xlink="http://www.w3.org/1999/xlink" width="360" height="68" viewBox="0 0 360 68"><defs><clipPath id="b"><rect width="360" height="68"/></clipPath></defs><g id="a" clip-path="url(#b)"><path d="M12558.954,10620.193l-6-6.192-.006-.007H12500.5a3,3,0,0,1-3-3V10559a3,3,0,0,1,3-3h119a3,3,0,0,1,3,3v51.993a3,3,0,0,1-3,3h-53.055l-.006.007-6,6.192a1.025,1.025,0,0,1-1.485,0Z" transform="translate(-12497 -10555)" fill="#e4e6ea"/><path d="M12559.7,10621.512a2.013,2.013,0,0,1-1.463-.625l-5.71-5.893H12500.5a4,4,0,0,1-4-4V10559a4,4,0,0,1,4-4h119a4,4,0,0,1,4,4v51.993a4,4,0,0,1-4,4h-52.631l-5.709,5.893A2.011,2.011,0,0,1,12559.7,10621.512Zm-5.993-8.174,5.968,6.159c.012.013.019.015.025.015s.012,0,.021-.011l0,0,5.982-6.174c.011-.013.022-.024.034-.036l.293-.293h53.469a2,2,0,0,0,2-2V10559a2,2,0,0,0-2-2h-119a2,2,0,0,0-2,2v51.993a2,2,0,0,0,2,2h52.861Z" transform="translate(-12497 -10555)" fill="#2e3e5a"/><path d="M93.4,1H0V-1H93.4Z" transform="translate(13.777 20.5)" fill="#2e3e5a"/><path d="M73.589,1H0V-1H73.589Z" transform="translate(13.777 34.5)" fill="#2e3e5a"/></g></svg>