<svg width="358" height="123" viewBox="0 0 358 123" fill="none" xmlns="http://www.w3.org/2000/svg">
<g clip-path="url(#clip0_148_2)">
<rect width="358" height="61" fill="white"/>
<path d="M18 22.1935L156.58 22.523" stroke="#2E3E5A" stroke-width="4"/>
<path d="M18 40.9109L156.58 41.2404" stroke="#2E3E5A" stroke-width="2"/>
<line y1="60" x2="358" y2="60" stroke="#2E3E5A" stroke-width="2"/>
<rect y="61" width="358" height="61" fill="white"/>
<path d="M18 83.1935L156.58 83.523" stroke="#2E3E5A" stroke-width="4"/>
<path d="M18 101.911L156.58 102.24" stroke="#2E3E5A" stroke-width="2"/>
<line y1="122" x2="358" y2="122" stroke="#2E3E5A" stroke-width="2"/>
<path d="M238.988 26H216.314C211.722 26 208 29.7223 208 34.314C208 38.9056 211.722 42.6279 216.314 42.6279H238.988C243.58 42.6279 247.302 38.9056 247.302 34.314C247.302 29.7223 243.58 26 238.988 26Z" fill="#2E3E5A"/>
<path d="M217.204 34.314H237.855" stroke="white" stroke-width="3"/>
<path d="M284.337 26H261.663C257.071 26 253.349 29.7223 253.349 34.314C253.349 38.9056 257.071 42.6279 261.663 42.6279H284.337C288.929 42.6279 292.651 38.9056 292.651 34.314C292.651 29.7223 288.929 26 284.337 26Z" fill="#2E3E5A"/>
<path d="M262.553 34.314H283.204" stroke="white" stroke-width="3"/>
<path d="M329.686 26H307.012C302.42 26 298.698 29.7223 298.698 34.314C298.698 38.9056 302.42 42.6279 307.012 42.6279H329.686C334.278 42.6279 338 38.9056 338 34.314C338 29.7223 334.278 26 329.686 26Z" fill="#2E3E5A"/>
<path d="M307.902 34.314H328.552" stroke="white" stroke-width="3"/>
<path d="M238.988 87H216.314C211.722 87 208 90.7223 208 95.314C208 99.9056 211.722 103.628 216.314 103.628H238.988C243.58 103.628 247.302 99.9056 247.302 95.314C247.302 90.7223 243.58 87 238.988 87Z" fill="#2E3E5A"/>
<path d="M217.204 95.314H237.855" stroke="white" stroke-width="3"/>
<path d="M284.337 87H261.663C257.071 87 253.349 90.7223 253.349 95.314C253.349 99.9056 257.071 103.628 261.663 103.628H284.337C288.929 103.628 292.651 99.9056 292.651 95.314C292.651 90.7223 288.929 87 284.337 87Z" fill="#2E3E5A"/>
<path d="M262.553 95.314H283.204" stroke="white" stroke-width="3"/>
<path d="M329.686 87H307.012C302.42 87 298.698 90.7223 298.698 95.314C298.698 99.9056 302.42 103.628 307.012 103.628H329.686C334.278 103.628 338 99.9056 338 95.314C338 90.7223 334.278 87 329.686 87Z" fill="#2E3E5A"/>
<path d="M307.902 95.314H328.552" stroke="white" stroke-width="3"/>
</g>
<defs>
<clipPath id="clip0_148_2">
<rect width="358" height="123" fill="white"/>
</clipPath>
</defs>
</svg>
