<svg xmlns="http://www.w3.org/2000/svg" xmlns:xlink="http://www.w3.org/1999/xlink" width="360" height="94" viewBox="0 0 360 94"><defs><clipPath id="b"><rect width="360" height="94"/></clipPath></defs><g id="a" clip-path="url(#b)"><g transform="translate(2 2)" fill="#e4e6ea" stroke="#2e3e5a" stroke-width="2"><rect width="356" height="90" rx="2" stroke="none"/><rect x="-1" y="-1" width="358" height="92" rx="3" fill="none"/></g><g transform="translate(11.438 54.471)" fill="#fff" stroke="#2e3e5a" stroke-width="2"><path d="M2,0H142.125a2,2,0,0,1,2,2V37.529a0,0,0,0,1,0,0H0a0,0,0,0,1,0,0V2A2,2,0,0,1,2,0Z" stroke="none"/><path d="M2-1H142.125a3,3,0,0,1,3,3V38.529a0,0,0,0,1,0,0H-1a0,0,0,0,1,0,0V2A3,3,0,0,1,2-1Z" fill="none"/></g><line x2="99.612" transform="translate(23.888 68.503)" fill="none" stroke="#2e3e5a" stroke-width="2"/><line x2="99.612" transform="translate(23.888 82.503)" fill="none" stroke="#2e3e5a" stroke-width="2"/><g transform="translate(135.654 62.503)"><rect width="15.273" height="1.697" transform="translate(1.2) rotate(45)" fill="#2e3e5a"/><rect width="15.273" height="1.697" transform="translate(0 10.8) rotate(-45)" fill="#2e3e5a"/></g></g></svg>