<svg xmlns="http://www.w3.org/2000/svg" xmlns:xlink="http://www.w3.org/1999/xlink" width="360" height="104" viewBox="0 0 360 104">
  <defs>
    <clipPath id="clip-Nav-tile-comparisonaccordion">
      <rect width="360" height="104"/>
    </clipPath>
  </defs>
  <g id="Nav-tile-comparisonaccordion" clip-path="url(#clip-Nav-tile-comparisonaccordion)">
    <g id="Rectangle_4634" data-name="Rectangle 4634" transform="translate(2 2.009)" fill="#abb1bd" stroke="#2e3e5a" stroke-width="2">
      <rect width="230.5" height="31.9" rx="2" stroke="none"/>
      <rect x="-1" y="-1" width="232.5" height="33.9" rx="3" fill="none"/>
    </g>
    <line id="Line_2496" data-name="Line 2496" x2="47.53" transform="translate(13.5 17.959)" fill="none" stroke="#2e3e5a" stroke-width="4"/>
    <line id="Line_3075" data-name="Line 3075" x2="47.53" transform="translate(76.5 17.959)" fill="none" stroke="#2e3e5a" stroke-width="4"/>
    <line id="Line_3078" data-name="Line 3078" x2="47.53" transform="translate(139.5 17.959)" fill="none" stroke="#2e3e5a" stroke-width="4"/>
    <g id="Rectangle_4634-2" data-name="Rectangle 4634" transform="translate(2 36.009)" fill="#e4e6ea" stroke="#2e3e5a" stroke-width="2">
      <rect width="230.5" height="31.9" rx="2" stroke="none"/>
      <rect x="-1" y="-1" width="232.5" height="33.9" rx="3" fill="none"/>
    </g>
    <g id="Rectangle_5177" data-name="Rectangle 5177" transform="translate(2 70.009)" fill="#e4e6ea" stroke="#2e3e5a" stroke-width="2">
      <rect width="230.5" height="31.9" rx="2" stroke="none"/>
      <rect x="-1" y="-1" width="232.5" height="33.9" rx="3" fill="none"/>
    </g>
    <line id="Line_2496-2" data-name="Line 2496" x2="47.53" transform="translate(13.5 51.959)" fill="none" stroke="#2e3e5a" stroke-width="2"/>
    <line id="Line_3076" data-name="Line 3076" x2="47.53" transform="translate(76.5 51.959)" fill="none" stroke="#2e3e5a" stroke-width="2"/>
    <line id="Line_3079" data-name="Line 3079" x2="47.53" transform="translate(139.5 51.959)" fill="none" stroke="#2e3e5a" stroke-width="2"/>
    <line id="Line_3074" data-name="Line 3074" x2="47.53" transform="translate(13.5 85.959)" fill="none" stroke="#2e3e5a" stroke-width="2"/>
    <line id="Line_3077" data-name="Line 3077" x2="47.53" transform="translate(76.5 85.959)" fill="none" stroke="#2e3e5a" stroke-width="2"/>
    <line id="Line_3080" data-name="Line 3080" x2="47.53" transform="translate(139.5 85.959)" fill="none" stroke="#2e3e5a" stroke-width="2"/>
    <path id="Chevron_Down" data-name="Chevron / Down" d="M5.181,6.876,0,12.048l1.707,1.7L8.6,6.876,1.707,0,0,1.7Z" transform="translate(219.676 47.662) rotate(90)" fill="#2e3e5a"/>
    <path id="Chevron_Down-2" data-name="Chevron / Down" d="M5.181,6.876,0,12.048l1.707,1.7L8.6,6.876,1.707,0,0,1.7Z" transform="translate(219.676 81.662) rotate(90)" fill="#2e3e5a"/>
  </g>
</svg>
