<svg width="359" height="120" viewBox="0 0 359 120" fill="none" xmlns="http://www.w3.org/2000/svg">
<g clip-path="url(#clip0_171_342)">
<path d="M258.048 0.967766H5.48097C3.65759 0.967766 2.17944 1.83431 2.17944 2.90325V117.097C2.17944 118.166 3.65759 119.032 5.48097 119.032H258.048C259.871 119.032 261.349 118.166 261.349 117.097V2.90325C261.349 1.83431 259.871 0.967766 258.048 0.967766Z" fill="#E4E6EA"/>
<path d="M5.48086 1H258.048C259.269 1 260.326 1.29234 261.044 1.71302C261.785 2.14759 262 2.60236 262 2.90323V117.097C262 117.398 261.785 117.852 261.044 118.287C260.326 118.708 259.269 119 258.048 119H5.48086C4.25939 119 3.20238 118.708 2.4848 118.287C1.74352 117.852 1.52856 117.398 1.52856 117.097V2.90323C1.52856 2.60235 1.74352 2.14759 2.4848 1.71302C3.20238 1.29234 4.25939 1 5.48086 1Z" fill="#E4E6EA" stroke="#2E3E5A" stroke-width="2"/>
<path d="M17 20H246" stroke="#2E3E5A" stroke-width="4"/>
<rect x="17" y="74" width="229" height="31" fill="white"/>
<rect x="17" y="74" width="229" height="31" stroke="#2E3E5A"/>
<rect x="17" y="74" width="229" height="31" stroke="black" stroke-opacity="0.2"/>
<rect x="17" y="74" width="229" height="31" stroke="black" stroke-opacity="0.2"/>
<rect x="17" y="37" width="229" height="31" fill="white"/>
<rect x="17" y="37" width="229" height="31" stroke="#2E3E5A"/>
<rect x="17" y="37" width="229" height="31" stroke="black" stroke-opacity="0.2"/>
<rect x="17" y="37" width="229" height="31" stroke="black" stroke-opacity="0.2"/>
<path d="M44 62V53.6874H41.6253V59.6253H27.3747V53.6874H25V62H44ZM40.0179 51.3842L38.3378 49.7053L35.6874 52.3564V43H33.3126V52.4999C31.2775 50.4639 31.1496 50.337 30.5179 49.7053L28.8389 51.3842L34.4284 56.9737L40.0179 51.3842Z" fill="#2E3E5A"/>
<path d="M44 62V53.6874H41.6253V59.6253H27.3747V53.6874H25V62H44ZM40.0179 51.3842L38.3378 49.7053L35.6874 52.3564V43H33.3126V52.4999C31.2775 50.4639 31.1496 50.337 30.5179 49.7053L28.8389 51.3842L34.4284 56.9737L40.0179 51.3842Z" fill="black" fill-opacity="0.2"/>
<path d="M44 62V53.6874H41.6253V59.6253H27.3747V53.6874H25V62H44ZM40.0179 51.3842L38.3378 49.7053L35.6874 52.3564V43H33.3126V52.4999C31.2775 50.4639 31.1496 50.337 30.5179 49.7053L28.8389 51.3842L34.4284 56.9737L40.0179 51.3842Z" fill="black" fill-opacity="0.2"/>
<path d="M44 99V90.6874H41.6253V96.6253H27.3747V90.6874H25V99H44ZM40.0179 88.3842L38.3378 86.7053L35.6874 89.3564V80H33.3126V89.4999C31.2775 87.4639 31.1496 87.337 30.5179 86.7053L28.8389 88.3842L34.4284 93.9737L40.0179 88.3842Z" fill="#2E3E5A"/>
<path d="M44 99V90.6874H41.6253V96.6253H27.3747V90.6874H25V99H44ZM40.0179 88.3842L38.3378 86.7053L35.6874 89.3564V80H33.3126V89.4999C31.2775 87.4639 31.1496 87.337 30.5179 86.7053L28.8389 88.3842L34.4284 93.9737L40.0179 88.3842Z" fill="black" fill-opacity="0.2"/>
<path d="M44 99V90.6874H41.6253V96.6253H27.3747V90.6874H25V99H44ZM40.0179 88.3842L38.3378 86.7053L35.6874 89.3564V80H33.3126V89.4999C31.2775 87.4639 31.1496 87.337 30.5179 86.7053L28.8389 88.3842L34.4284 93.9737L40.0179 88.3842Z" fill="black" fill-opacity="0.2"/>
<path d="M56 52H227" stroke="#2E3E5A" stroke-width="2"/>
<path d="M56 90H227" stroke="#2E3E5A" stroke-width="2"/>
</g>
<defs>
<clipPath id="clip0_171_342">
<rect x="0.528564" width="358" height="120" rx="4" fill="white"/>
</clipPath>
</defs>
</svg>
