<svg xmlns="http://www.w3.org/2000/svg" xmlns:xlink="http://www.w3.org/1999/xlink" width="360" height="104" viewBox="0 0 360 104"><defs><clipPath id="b"><rect width="360" height="104"/></clipPath></defs><g id="a" clip-path="url(#b)"><rect width="230.5" height="46" transform="translate(0 1)" fill="#fff"/><rect width="230.5" height="45" transform="translate(0 59)" fill="#fff"/><rect width="63.152" height="44.025" transform="translate(0 59.975)" fill="#e4e6ea"/><rect width="63.152" height="49" fill="#e4e6ea"/><rect width="35.152" height="47.041" transform="translate(195.348 1.959)" fill="#abb1bd"/><rect width="35.152" height="44.063" transform="translate(195.348 59)" fill="#abb1bd"/><path d="M230.5,1H0V-1H230.5Z" transform="translate(0 103)" fill="#2e3e5a"/><path d="M5.721,7.592,0,13.3l1.885,1.881L9.491,7.592,1.885,0,0,1.881Z" transform="translate(220.516 22.132) rotate(90)" fill="#2e3e5a"/><path d="M5.721,7.592,0,13.3l1.885,1.881L9.491,7.592,1.885,0,0,1.881Z" transform="translate(220.516 75.132) rotate(90)" fill="#2e3e5a"/><path transform="translate(13.5 85.959)" fill="#2e3e5a"/><path d="M92.156,2H0V-2H92.156Z" transform="translate(71.543 17.805)" fill="#2e3e5a"/><path d="M92.156,2H0V-2H92.156Z" transform="translate(71.543 73.805)" fill="#2e3e5a"/><path transform="translate(13.5 1.959)" fill="#2e3e5a"/><path d="M63.58,1H0V-1H63.58Z" transform="translate(71.92 33.598)" fill="#2e3e5a"/><path d="M63.58,1H0V-1H63.58Z" transform="translate(71.92 89.598)" fill="#2e3e5a"/><path d="M2,0A2,2,0,0,0,0,2V41.041a2,2,0,0,0,2,2H225.5a2,2,0,0,0,2-2V2a2,2,0,0,0-2-2H2M2-2H225.5a4,4,0,0,1,4,4V41.041a4,4,0,0,1-4,4H2a4,4,0,0,1-4-4V2A4,4,0,0,1,2-2Z" transform="translate(1.371 59)" fill="#2e3e5a"/><path d="M2,0A2,2,0,0,0,0,2V43.041a2,2,0,0,0,2,2H225.5a2,2,0,0,0,2-2V2a2,2,0,0,0-2-2H2M2-2H225.5a4,4,0,0,1,4,4V43.041a4,4,0,0,1-4,4H2a4,4,0,0,1-4-4V2A4,4,0,0,1,2-2Z" transform="translate(1.371 1.959)" fill="#2e3e5a"/></g></svg>