<svg width="358" height="117" viewBox="0 0 358 117" fill="none" xmlns="http://www.w3.org/2000/svg">
<g clip-path="url(#clip0_1316_31)">
<path d="M2.01172 1H355.989C356.335 1.00043 357 1.46135 357 2.56641V114.434C357 115.539 356.335 116 355.989 116H2.01172C1.66645 116 1 115.539 1 114.434V2.56641C1 1.46083 1.66645 1 2.01172 1Z" fill="#ABB1BD"/>
<path d="M2.01172 1H355.989C356.335 1.00043 357 1.46135 357 2.56641V114.434C357 115.539 356.335 116 355.989 116H2.01172C1.66645 116 1 115.539 1 114.434V2.56641C1 1.46083 1.66645 1 2.01172 1Z" stroke="#2E3E5A" stroke-width="2"/>
<path d="M2.01172 1H355.989C356.335 1.00043 357 1.46135 357 2.56641V114.434C357 115.539 356.335 116 355.989 116H2.01172C1.66645 116 1 115.539 1 114.434V2.56641C1 1.46083 1.66645 1 2.01172 1Z" stroke="black" stroke-opacity="0.2" stroke-width="2"/>
<path d="M2.01172 1H355.989C356.335 1.00043 357 1.46135 357 2.56641V114.434C357 115.539 356.335 116 355.989 116H2.01172C1.66645 116 1 115.539 1 114.434V2.56641C1 1.46083 1.66645 1 2.01172 1Z" stroke="black" stroke-opacity="0.2" stroke-width="2"/>
<path d="M37.1812 18.6799H145.097" stroke="#2E3E5A" stroke-width="3"/>
<path d="M37.1812 18.6799H145.097" stroke="black" stroke-opacity="0.2" stroke-width="3"/>
<path d="M37.1812 18.6799H145.097" stroke="black" stroke-opacity="0.2" stroke-width="3"/>
<path d="M210.201 18.6799H320.819" stroke="#2E3E5A" stroke-width="3"/>
<path d="M210.201 18.6799H320.819" stroke="black" stroke-opacity="0.2" stroke-width="3"/>
<path d="M210.201 18.6799H320.819" stroke="black" stroke-opacity="0.2" stroke-width="3"/>
<path d="M37.1812 33.6799H84.597" stroke="#2E3E5A" stroke-width="3"/>
<path d="M37.1812 33.6799H84.597" stroke="black" stroke-opacity="0.2" stroke-width="3"/>
<path d="M37.1812 33.6799H84.597" stroke="black" stroke-opacity="0.2" stroke-width="3"/>
<path d="M37.1812 100.18H84.597" stroke="#2E3E5A" stroke-width="3"/>
<path d="M37.1812 100.18H84.597" stroke="black" stroke-opacity="0.2" stroke-width="3"/>
<path d="M37.1812 100.18H84.597" stroke="black" stroke-opacity="0.2" stroke-width="3"/>
<path d="M96.2366 100.18H143.652" stroke="#2E3E5A" stroke-width="3"/>
<path d="M96.2366 100.18H143.652" stroke="black" stroke-opacity="0.2" stroke-width="3"/>
<path d="M96.2366 100.18H143.652" stroke="black" stroke-opacity="0.2" stroke-width="3"/>
<path d="M155.292 100.18H202.708" stroke="#2E3E5A" stroke-width="3"/>
<path d="M155.292 100.18H202.708" stroke="black" stroke-opacity="0.2" stroke-width="3"/>
<path d="M155.292 100.18H202.708" stroke="black" stroke-opacity="0.2" stroke-width="3"/>
<path d="M214.347 100.18H261.763" stroke="#2E3E5A" stroke-width="3"/>
<path d="M214.347 100.18H261.763" stroke="black" stroke-opacity="0.2" stroke-width="3"/>
<path d="M214.347 100.18H261.763" stroke="black" stroke-opacity="0.2" stroke-width="3"/>
<path d="M273.403 100.18H320.819" stroke="#2E3E5A" stroke-width="3"/>
<path d="M273.403 100.18H320.819" stroke="black" stroke-opacity="0.2" stroke-width="3"/>
<path d="M273.403 100.18H320.819" stroke="black" stroke-opacity="0.2" stroke-width="3"/>
<path d="M317.802 34.3843H213.218C212.107 34.3843 211.206 35.015 211.206 35.793V76.0748C211.206 76.8529 212.107 77.4836 213.218 77.4836H317.802C318.913 77.4836 319.813 76.8529 319.813 76.0748V35.793C319.813 35.015 318.913 34.3843 317.802 34.3843Z" fill="#E4E6EA"/>
<path d="M317.802 33.6799H213.218C211.551 33.6799 210.201 34.626 210.201 35.7931V76.0749C210.201 77.2419 211.551 78.188 213.218 78.188H317.802C319.468 78.188 320.819 77.2419 320.819 76.0749V35.7931C320.819 34.626 319.468 33.6799 317.802 33.6799Z" fill="#E4E6EA"/>
<path d="M317.802 33.6799H213.218C211.551 33.6799 210.201 34.626 210.201 35.7931V76.0749C210.201 77.2419 211.551 78.188 213.218 78.188H317.802C319.468 78.188 320.819 77.2419 320.819 76.0749V35.7931C320.819 34.626 319.468 33.6799 317.802 33.6799Z" stroke="#2E3E5A" stroke-width="2"/>
<path d="M317.802 33.6799H213.218C211.551 33.6799 210.201 34.626 210.201 35.7931V76.0749C210.201 77.2419 211.551 78.188 213.218 78.188H317.802C319.468 78.188 320.819 77.2419 320.819 76.0749V35.7931C320.819 34.626 319.468 33.6799 317.802 33.6799Z" stroke="black" stroke-opacity="0.2" stroke-width="2"/>
<path d="M317.802 33.6799H213.218C211.551 33.6799 210.201 34.626 210.201 35.7931V76.0749C210.201 77.2419 211.551 78.188 213.218 78.188H317.802C319.468 78.188 320.819 77.2419 320.819 76.0749V35.7931C320.819 34.626 319.468 33.6799 317.802 33.6799Z" stroke="black" stroke-opacity="0.2" stroke-width="2"/>
<path d="M218.174 66.184H300.961" stroke="#2E3E5A" stroke-width="3"/>
<path d="M218.174 66.184H300.961" stroke="black" stroke-opacity="0.2" stroke-width="3"/>
<path d="M218.174 66.184H300.961" stroke="black" stroke-opacity="0.2" stroke-width="3"/>
<path d="M218.174 45.75H288.25" stroke="#2E3E5A" stroke-width="3"/>
<path d="M218.174 45.75H288.25" stroke="black" stroke-opacity="0.2" stroke-width="3"/>
<path d="M218.174 45.75H288.25" stroke="black" stroke-opacity="0.2" stroke-width="3"/>
<path d="M305 48.0282L298.982 42L297 43.9859L305 52L313 43.9859L311.018 42L305 48.0282Z" fill="#2E3E5A"/>
<path d="M305 48.0282L298.982 42L297 43.9859L305 52L313 43.9859L311.018 42L305 48.0282Z" fill="black" fill-opacity="0.2"/>
<path d="M305 48.0282L298.982 42L297 43.9859L305 52L313 43.9859L311.018 42L305 48.0282Z" fill="black" fill-opacity="0.2"/>
</g>
<defs>
<clipPath id="clip0_1316_31">
<rect width="358" height="117" fill="white"/>
</clipPath>
</defs>
</svg>
