<svg xmlns="http://www.w3.org/2000/svg" xmlns:xlink="http://www.w3.org/1999/xlink" width="360" height="104" viewBox="0 0 360 104"><defs><clipPath id="b"><rect width="360" height="104"/></clipPath></defs><g id="a" clip-path="url(#b)"><path d="M2,2V14H14V2H2M0,0H16V16H0Z" fill="#2e3e5a"/><path d="M2,2V14H14V2H2M0,0H16V16H0Z" transform="translate(0 52.279)" fill="#2e3e5a"/><path d="M127.526,1H0V-1H127.526Z" transform="translate(22.773 8.313)" fill="#2e3e5a"/><path d="M127.526,1H0V-1H127.526Z" transform="translate(22.773 60.592)" fill="#2e3e5a"/><path d="M2,2V14H14V2H2M0,0H16V16H0Z" transform="translate(0 25)" fill="#2e3e5a"/><path d="M127.526,1H0V-1H127.526Z" transform="translate(22.773 33.54)" fill="#2e3e5a"/><path d="M0,4.577,1.171,3.385,3.238,5.456,8.7,0,9.878,1.174l-6.64,6.64Z" transform="translate(3.44 29.452)" fill="#2e3e5a"/><path d="M2,2V20H148V2H2M0,0H150V22H0Z" transform="translate(0 82)" fill="#2e3e5a"/><path d="M3.664,4.862,0,8.519l1.207,1.2,4.87-4.862L1.207,0,0,1.2Z" transform="translate(141.941 90.24) rotate(90)" fill="#2e3e5a"/></g></svg>