<svg width="358" height="120" viewBox="0 0 358 120" fill="none" xmlns="http://www.w3.org/2000/svg">
<rect x="1" y="62" width="259.821" height="57.0323" fill="#E4E6EA"/>
<path d="M4.95229 1H257.519C258.741 1 259.798 1.29234 260.515 1.71302C261.256 2.14759 261.471 2.60236 261.471 2.90323V117.097C261.471 117.398 261.256 117.852 260.515 118.287C259.798 118.708 258.741 119 257.519 119H4.95229C3.73082 119 2.67382 118.708 1.95623 118.287C1.21496 117.852 1 117.398 1 117.097V2.90323C1 2.60235 1.21496 2.14759 1.95623 1.71302C2.67382 1.29234 3.73082 1 4.95229 1Z" stroke="#2E3E5A" stroke-width="2"/>
<path d="M16.7358 18H245.736" stroke="#2E3E5A" stroke-width="4"/>
<path d="M16.7358 35.5H245.736" stroke="#2E3E5A" stroke-width="2"/>
<path d="M16.7358 48.5H148.5" stroke="#2E3E5A" stroke-width="2"/>
<path d="M38 79.5L245.736 79.5" stroke="#2E3E5A" stroke-width="2"/>
<path d="M38 100.5L245.736 100.5" stroke="#2E3E5A" stroke-width="2"/>
<path d="M16.7358 80.6294L18.3336 78.9028L21.1519 81.9027L28.5974 74L30.209 75.7006L21.1518 85.3193L16.7358 80.6294Z" fill="#2E3E5A"/>
<path d="M16.7358 80.6294L18.3336 78.9028L21.1519 81.9027L28.5974 74L30.209 75.7006L21.1518 85.3193L16.7358 80.6294Z" fill="black" fill-opacity="0.2"/>
<path d="M16.7358 80.6294L18.3336 78.9028L21.1519 81.9027L28.5974 74L30.209 75.7006L21.1518 85.3193L16.7358 80.6294Z" fill="black" fill-opacity="0.2"/>
<path d="M16.7358 101.629L18.3336 99.9028L21.1519 102.903L28.5974 95L30.209 96.7006L21.1518 106.319L16.7358 101.629Z" fill="#2E3E5A"/>
<path d="M16.7358 101.629L18.3336 99.9028L21.1519 102.903L28.5974 95L30.209 96.7006L21.1518 106.319L16.7358 101.629Z" fill="black" fill-opacity="0.2"/>
<path d="M16.7358 101.629L18.3336 99.9028L21.1519 102.903L28.5974 95L30.209 96.7006L21.1518 106.319L16.7358 101.629Z" fill="black" fill-opacity="0.2"/>
</svg>
