<svg width="400" height="302" viewBox="0 0 400 302" fill="none" xmlns="http://www.w3.org/2000/svg">
<g clip-path="url(#clip0_337_16977)">
<mask id="mask0_337_16977" style="mask-type:luminance" maskUnits="userSpaceOnUse" x="0" y="0" width="400" height="320">
<path d="M400 0H0V320H400V0Z" fill="white"/>
</mask>
<g mask="url(#mask0_337_16977)">
<path d="M0.0469971 183.878H399" stroke="#5AB3B3" stroke-width="2" stroke-linecap="round" stroke-linejoin="round"/>
<path d="M370.981 87.9385L382.683 99.7365" stroke="#5AB3B3" stroke-width="2" stroke-linecap="round" stroke-linejoin="round"/>
<path d="M370.982 -3V86.938H271.941V-3" stroke="#5AB3B3" stroke-width="2" stroke-linecap="round" stroke-linejoin="round"/>
<path d="M260.243 -2.13379V99.6012H382.683V-2.13379" stroke="#5AB3B3" stroke-width="2" stroke-linecap="round" stroke-linejoin="round"/>
<path d="M271.944 87.2197L261.772 98.4147" stroke="#5AB3B3" stroke-width="2" stroke-linecap="round" stroke-linejoin="round"/>
<path d="M58.688 83.7176C74.8749 83.7176 87.997 70.5955 87.997 54.4086C87.997 38.2217 74.8749 25.0996 58.688 25.0996C42.5011 25.0996 29.379 38.2217 29.379 54.4086C29.379 70.5955 42.5011 83.7176 58.688 83.7176Z" stroke="#5AB3B3" stroke-width="2" stroke-linecap="round" stroke-linejoin="round"/>
<path d="M60.33 54.4086C60.3302 54.7336 60.234 55.0514 60.0535 55.3218C59.8731 55.5921 59.6165 55.8029 59.3162 55.9273C59.016 56.0518 58.6855 56.0844 58.3667 56.0211C58.0479 55.9577 57.7551 55.8012 57.5252 55.5714C57.2954 55.3415 57.1389 55.0487 57.0755 54.7299C57.0122 54.4111 57.0448 54.0807 57.1693 53.7804C57.2937 53.4801 57.5045 53.2235 57.7748 53.0431C58.0452 52.8626 58.363 52.7664 58.688 52.7666C59.1235 52.7666 59.5411 52.9396 59.8491 53.2475C60.157 53.5555 60.33 53.9731 60.33 54.4086Z" stroke="#5AB3B3" stroke-width="2" stroke-linecap="round" stroke-linejoin="round"/>
<path d="M58.688 92.818C80.3994 92.818 98 75.6217 98 54.409C98 33.1963 80.3994 16 58.688 16C36.9766 16 19.376 33.1963 19.376 54.409C19.376 75.6217 36.9766 92.818 58.688 92.818Z" stroke="#5AB3B3" stroke-width="2" stroke-linecap="round" stroke-linejoin="round"/>
<path d="M59.066 29.8271L59.041 54.4091L74.497 50.6251" stroke="#5AB3B3" stroke-width="2" stroke-linecap="round" stroke-linejoin="round"/>
<path d="M20.784 54.2676H28.496" stroke="#5AB3B3" stroke-width="2" stroke-linecap="round" stroke-linejoin="round"/>
<path d="M58.969 16.084V23.796" stroke="#5AB3B3" stroke-width="2" stroke-linecap="round" stroke-linejoin="round"/>
<path d="M58.969 84.7412V92.4532" stroke="#5AB3B3" stroke-width="2" stroke-linecap="round" stroke-linejoin="round"/>
<path d="M20.784 54.2676H28.496" stroke="#5AB3B3" stroke-width="2" stroke-linecap="round" stroke-linejoin="round"/>
<path d="M89.441 54.2676H97.153" stroke="#5AB3B3" stroke-width="2" stroke-linecap="round" stroke-linejoin="round"/>
<path d="M132.176 263.564V258.836L152.499 242.336H246.975L267.298 258.836V263.156L132.176 263.564Z" fill="#788295"/>
<path d="M132.176 263.564V258.836L152.499 242.336H246.975L267.298 258.836V263.156L132.176 263.564Z" fill="#788295" stroke="#788295" stroke-width="3" stroke-linecap="round" stroke-linejoin="round"/>
<path d="M182.361 206.333L178.078 239.32H221.471L218.259 206.333H182.361Z" fill="#788295"/>
<path d="M104.981 74.626H295.019C296.34 74.626 297.607 75.1508 298.541 76.0849C299.475 77.019 300 78.2859 300 79.607V204.489C300 205.81 299.475 207.077 298.541 208.011C297.607 208.945 296.34 209.47 295.019 209.47H104.981C103.66 209.47 102.393 208.945 101.459 208.011C100.525 207.077 100 205.81 100 204.489V79.607C100 78.2859 100.525 77.019 101.459 76.0849C102.393 75.1508 103.66 74.626 104.981 74.626Z" fill="#2E3E5A"/>
<path d="M104.981 74.626H295.019C296.34 74.626 297.607 75.1508 298.541 76.0849C299.475 77.019 300 78.2859 300 79.607V204.489C300 205.81 299.475 207.077 298.541 208.011C297.607 208.945 296.34 209.47 295.019 209.47H104.981C103.66 209.47 102.393 208.945 101.459 208.011C100.525 207.077 100 205.81 100 204.489V79.607C100 78.2859 100.525 77.019 101.459 76.0849C102.393 75.1508 103.66 74.626 104.981 74.626Z" fill="black" fill-opacity="0.2"/>
<path d="M104.981 74.626H295.019C296.34 74.626 297.607 75.1508 298.541 76.0849C299.475 77.019 300 78.2859 300 79.607V204.489C300 205.81 299.475 207.077 298.541 208.011C297.607 208.945 296.34 209.47 295.019 209.47H104.981C103.66 209.47 102.393 208.945 101.459 208.011C100.525 207.077 100 205.81 100 204.489V79.607C100 78.2859 100.525 77.019 101.459 76.0849C102.393 75.1508 103.66 74.626 104.981 74.626Z" fill="black" fill-opacity="0.2"/>
<path d="M289.173 84.6807H110.631V186.219H289.173V84.6807Z" fill="#96B7DF"/>
<path d="M200.001 192.381C200.927 192.381 201.833 192.656 202.603 193.17C203.374 193.685 203.974 194.417 204.329 195.273C204.683 196.129 204.776 197.07 204.595 197.979C204.414 198.888 203.968 199.722 203.313 200.377C202.658 201.032 201.823 201.478 200.914 201.659C200.006 201.84 199.064 201.747 198.208 201.392C197.352 201.037 196.62 200.437 196.106 199.666C195.591 198.896 195.317 197.99 195.317 197.064C195.317 196.449 195.438 195.84 195.674 195.272C195.909 194.703 196.254 194.187 196.689 193.752C197.124 193.317 197.64 192.972 198.209 192.737C198.777 192.502 199.386 192.381 200.001 192.381Z" fill="white"/>
<path d="M132.176 258.212L152.499 236.991H246.975L267.298 257.808L132.176 258.212Z" fill="#E4E6EA" stroke="#E4E6EA" stroke-width="3" stroke-linecap="round" stroke-linejoin="round"/>
<path d="M159.886 245.246H155.461C155.248 245.246 155.038 245.204 154.841 245.123C154.645 245.041 154.466 244.922 154.316 244.771C154.165 244.621 154.046 244.443 153.965 244.246C153.883 244.05 153.841 243.839 153.841 243.626C153.841 243.414 153.883 243.203 153.965 243.007C154.046 242.81 154.165 242.632 154.316 242.481C154.466 242.331 154.645 242.212 154.841 242.13C155.038 242.049 155.248 242.007 155.461 242.007H159.886C160.099 242.007 160.309 242.049 160.506 242.13C160.702 242.212 160.881 242.331 161.031 242.481C161.182 242.632 161.301 242.81 161.382 243.007C161.464 243.203 161.505 243.414 161.505 243.626C161.505 243.839 161.464 244.05 161.382 244.246C161.301 244.443 161.182 244.621 161.031 244.771C160.881 244.922 160.702 245.041 160.506 245.123C160.309 245.204 160.099 245.246 159.886 245.246Z" fill="#2E3E5A"/>
<path d="M159.886 245.246H155.461C155.248 245.246 155.038 245.204 154.841 245.123C154.645 245.041 154.466 244.922 154.316 244.771C154.165 244.621 154.046 244.443 153.965 244.246C153.883 244.05 153.841 243.839 153.841 243.626C153.841 243.414 153.883 243.203 153.965 243.007C154.046 242.81 154.165 242.632 154.316 242.481C154.466 242.331 154.645 242.212 154.841 242.13C155.038 242.049 155.248 242.007 155.461 242.007H159.886C160.099 242.007 160.309 242.049 160.506 242.13C160.702 242.212 160.881 242.331 161.031 242.481C161.182 242.632 161.301 242.81 161.382 243.007C161.464 243.203 161.505 243.414 161.505 243.626C161.505 243.839 161.464 244.05 161.382 244.246C161.301 244.443 161.182 244.621 161.031 244.771C160.881 244.922 160.702 245.041 160.506 245.123C160.309 245.204 160.099 245.246 159.886 245.246Z" fill="black" fill-opacity="0.2"/>
<path d="M159.886 245.246H155.461C155.248 245.246 155.038 245.204 154.841 245.123C154.645 245.041 154.466 244.922 154.316 244.771C154.165 244.621 154.046 244.443 153.965 244.246C153.883 244.05 153.841 243.839 153.841 243.626C153.841 243.414 153.883 243.203 153.965 243.007C154.046 242.81 154.165 242.632 154.316 242.481C154.466 242.331 154.645 242.212 154.841 242.13C155.038 242.049 155.248 242.007 155.461 242.007H159.886C160.099 242.007 160.309 242.049 160.506 242.13C160.702 242.212 160.881 242.331 161.031 242.481C161.182 242.632 161.301 242.81 161.382 243.007C161.464 243.203 161.505 243.414 161.505 243.626C161.505 243.839 161.464 244.05 161.382 244.246C161.301 244.443 161.182 244.621 161.031 244.771C160.881 244.922 160.702 245.041 160.506 245.123C160.309 245.204 160.099 245.246 159.886 245.246Z" fill="black" fill-opacity="0.2"/>
<path d="M172.001 245.246H167.576C167.363 245.246 167.153 245.204 166.956 245.123C166.76 245.041 166.581 244.922 166.431 244.771C166.28 244.621 166.161 244.443 166.08 244.246C165.998 244.05 165.956 243.839 165.956 243.626C165.956 243.414 165.998 243.203 166.08 243.007C166.161 242.81 166.28 242.632 166.431 242.481C166.581 242.331 166.76 242.212 166.956 242.13C167.153 242.049 167.363 242.007 167.576 242.007H172.001C172.214 242.007 172.424 242.049 172.621 242.13C172.817 242.212 172.996 242.331 173.146 242.481C173.297 242.632 173.416 242.81 173.497 243.007C173.579 243.203 173.62 243.414 173.62 243.626C173.62 243.839 173.579 244.05 173.497 244.246C173.416 244.443 173.297 244.621 173.146 244.771C172.996 244.922 172.817 245.041 172.621 245.123C172.424 245.204 172.214 245.246 172.001 245.246Z" fill="#2E3E5A"/>
<path d="M172.001 245.246H167.576C167.363 245.246 167.153 245.204 166.956 245.123C166.76 245.041 166.581 244.922 166.431 244.771C166.28 244.621 166.161 244.443 166.08 244.246C165.998 244.05 165.956 243.839 165.956 243.626C165.956 243.414 165.998 243.203 166.08 243.007C166.161 242.81 166.28 242.632 166.431 242.481C166.581 242.331 166.76 242.212 166.956 242.13C167.153 242.049 167.363 242.007 167.576 242.007H172.001C172.214 242.007 172.424 242.049 172.621 242.13C172.817 242.212 172.996 242.331 173.146 242.481C173.297 242.632 173.416 242.81 173.497 243.007C173.579 243.203 173.62 243.414 173.62 243.626C173.62 243.839 173.579 244.05 173.497 244.246C173.416 244.443 173.297 244.621 173.146 244.771C172.996 244.922 172.817 245.041 172.621 245.123C172.424 245.204 172.214 245.246 172.001 245.246Z" fill="black" fill-opacity="0.2"/>
<path d="M172.001 245.246H167.576C167.363 245.246 167.153 245.204 166.956 245.123C166.76 245.041 166.581 244.922 166.431 244.771C166.28 244.621 166.161 244.443 166.08 244.246C165.998 244.05 165.956 243.839 165.956 243.626C165.956 243.414 165.998 243.203 166.08 243.007C166.161 242.81 166.28 242.632 166.431 242.481C166.581 242.331 166.76 242.212 166.956 242.13C167.153 242.049 167.363 242.007 167.576 242.007H172.001C172.214 242.007 172.424 242.049 172.621 242.13C172.817 242.212 172.996 242.331 173.146 242.481C173.297 242.632 173.416 242.81 173.497 243.007C173.579 243.203 173.62 243.414 173.62 243.626C173.62 243.839 173.579 244.05 173.497 244.246C173.416 244.443 173.297 244.621 173.146 244.771C172.996 244.922 172.817 245.041 172.621 245.123C172.424 245.204 172.214 245.246 172.001 245.246Z" fill="black" fill-opacity="0.2"/>
<path d="M184.116 245.246H179.691C179.478 245.246 179.268 245.204 179.071 245.123C178.875 245.041 178.696 244.922 178.546 244.771C178.395 244.621 178.276 244.443 178.195 244.246C178.113 244.05 178.072 243.839 178.072 243.626C178.072 243.414 178.113 243.203 178.195 243.007C178.276 242.81 178.395 242.632 178.546 242.481C178.696 242.331 178.875 242.212 179.071 242.13C179.268 242.049 179.478 242.007 179.691 242.007H184.116C184.329 242.007 184.539 242.049 184.736 242.13C184.932 242.212 185.111 242.331 185.261 242.481C185.412 242.632 185.531 242.81 185.612 243.007C185.694 243.203 185.736 243.414 185.736 243.626C185.736 243.839 185.694 244.05 185.612 244.246C185.531 244.443 185.412 244.621 185.261 244.771C185.111 244.922 184.932 245.041 184.736 245.123C184.539 245.204 184.329 245.246 184.116 245.246Z" fill="#2E3E5A"/>
<path d="M184.116 245.246H179.691C179.478 245.246 179.268 245.204 179.071 245.123C178.875 245.041 178.696 244.922 178.546 244.771C178.395 244.621 178.276 244.443 178.195 244.246C178.113 244.05 178.072 243.839 178.072 243.626C178.072 243.414 178.113 243.203 178.195 243.007C178.276 242.81 178.395 242.632 178.546 242.481C178.696 242.331 178.875 242.212 179.071 242.13C179.268 242.049 179.478 242.007 179.691 242.007H184.116C184.329 242.007 184.539 242.049 184.736 242.13C184.932 242.212 185.111 242.331 185.261 242.481C185.412 242.632 185.531 242.81 185.612 243.007C185.694 243.203 185.736 243.414 185.736 243.626C185.736 243.839 185.694 244.05 185.612 244.246C185.531 244.443 185.412 244.621 185.261 244.771C185.111 244.922 184.932 245.041 184.736 245.123C184.539 245.204 184.329 245.246 184.116 245.246Z" fill="black" fill-opacity="0.2"/>
<path d="M184.116 245.246H179.691C179.478 245.246 179.268 245.204 179.071 245.123C178.875 245.041 178.696 244.922 178.546 244.771C178.395 244.621 178.276 244.443 178.195 244.246C178.113 244.05 178.072 243.839 178.072 243.626C178.072 243.414 178.113 243.203 178.195 243.007C178.276 242.81 178.395 242.632 178.546 242.481C178.696 242.331 178.875 242.212 179.071 242.13C179.268 242.049 179.478 242.007 179.691 242.007H184.116C184.329 242.007 184.539 242.049 184.736 242.13C184.932 242.212 185.111 242.331 185.261 242.481C185.412 242.632 185.531 242.81 185.612 243.007C185.694 243.203 185.736 243.414 185.736 243.626C185.736 243.839 185.694 244.05 185.612 244.246C185.531 244.443 185.412 244.621 185.261 244.771C185.111 244.922 184.932 245.041 184.736 245.123C184.539 245.204 184.329 245.246 184.116 245.246Z" fill="black" fill-opacity="0.2"/>
<path d="M153.361 252.431H148.936C148.723 252.431 148.513 252.389 148.316 252.308C148.12 252.227 147.941 252.107 147.791 251.957C147.64 251.807 147.521 251.628 147.44 251.432C147.358 251.235 147.316 251.025 147.316 250.812C147.316 250.599 147.358 250.389 147.44 250.192C147.521 249.996 147.64 249.817 147.791 249.667C147.941 249.516 148.12 249.397 148.316 249.316C148.513 249.234 148.723 249.192 148.936 249.192H153.361C153.574 249.192 153.784 249.234 153.981 249.316C154.177 249.397 154.356 249.516 154.506 249.667C154.657 249.817 154.776 249.996 154.857 250.192C154.939 250.389 154.98 250.599 154.98 250.812C154.98 251.025 154.939 251.235 154.857 251.432C154.776 251.628 154.657 251.807 154.506 251.957C154.356 252.107 154.177 252.227 153.981 252.308C153.784 252.389 153.574 252.431 153.361 252.431Z" fill="#2E3E5A"/>
<path d="M153.361 252.431H148.936C148.723 252.431 148.513 252.389 148.316 252.308C148.12 252.227 147.941 252.107 147.791 251.957C147.64 251.807 147.521 251.628 147.44 251.432C147.358 251.235 147.316 251.025 147.316 250.812C147.316 250.599 147.358 250.389 147.44 250.192C147.521 249.996 147.64 249.817 147.791 249.667C147.941 249.516 148.12 249.397 148.316 249.316C148.513 249.234 148.723 249.192 148.936 249.192H153.361C153.574 249.192 153.784 249.234 153.981 249.316C154.177 249.397 154.356 249.516 154.506 249.667C154.657 249.817 154.776 249.996 154.857 250.192C154.939 250.389 154.98 250.599 154.98 250.812C154.98 251.025 154.939 251.235 154.857 251.432C154.776 251.628 154.657 251.807 154.506 251.957C154.356 252.107 154.177 252.227 153.981 252.308C153.784 252.389 153.574 252.431 153.361 252.431Z" fill="black" fill-opacity="0.2"/>
<path d="M153.361 252.431H148.936C148.723 252.431 148.513 252.389 148.316 252.308C148.12 252.227 147.941 252.107 147.791 251.957C147.64 251.807 147.521 251.628 147.44 251.432C147.358 251.235 147.316 251.025 147.316 250.812C147.316 250.599 147.358 250.389 147.44 250.192C147.521 249.996 147.64 249.817 147.791 249.667C147.941 249.516 148.12 249.397 148.316 249.316C148.513 249.234 148.723 249.192 148.936 249.192H153.361C153.574 249.192 153.784 249.234 153.981 249.316C154.177 249.397 154.356 249.516 154.506 249.667C154.657 249.817 154.776 249.996 154.857 250.192C154.939 250.389 154.98 250.599 154.98 250.812C154.98 251.025 154.939 251.235 154.857 251.432C154.776 251.628 154.657 251.807 154.506 251.957C154.356 252.107 154.177 252.227 153.981 252.308C153.784 252.389 153.574 252.431 153.361 252.431Z" fill="black" fill-opacity="0.2"/>
<path d="M166.047 252.431H161.622C161.409 252.431 161.199 252.389 161.002 252.308C160.806 252.227 160.627 252.107 160.477 251.957C160.326 251.807 160.207 251.628 160.126 251.432C160.044 251.235 160.003 251.025 160.003 250.812C160.003 250.599 160.044 250.389 160.126 250.192C160.207 249.996 160.326 249.817 160.477 249.667C160.627 249.516 160.806 249.397 161.002 249.316C161.199 249.234 161.409 249.192 161.622 249.192H166.047C166.26 249.192 166.47 249.234 166.667 249.316C166.863 249.397 167.042 249.516 167.192 249.667C167.343 249.817 167.462 249.996 167.543 250.192C167.625 250.389 167.667 250.599 167.667 250.812C167.667 251.025 167.625 251.235 167.543 251.432C167.462 251.628 167.343 251.807 167.192 251.957C167.042 252.107 166.863 252.227 166.667 252.308C166.47 252.389 166.26 252.431 166.047 252.431Z" fill="#2E3E5A"/>
<path d="M166.047 252.431H161.622C161.409 252.431 161.199 252.389 161.002 252.308C160.806 252.227 160.627 252.107 160.477 251.957C160.326 251.807 160.207 251.628 160.126 251.432C160.044 251.235 160.003 251.025 160.003 250.812C160.003 250.599 160.044 250.389 160.126 250.192C160.207 249.996 160.326 249.817 160.477 249.667C160.627 249.516 160.806 249.397 161.002 249.316C161.199 249.234 161.409 249.192 161.622 249.192H166.047C166.26 249.192 166.47 249.234 166.667 249.316C166.863 249.397 167.042 249.516 167.192 249.667C167.343 249.817 167.462 249.996 167.543 250.192C167.625 250.389 167.667 250.599 167.667 250.812C167.667 251.025 167.625 251.235 167.543 251.432C167.462 251.628 167.343 251.807 167.192 251.957C167.042 252.107 166.863 252.227 166.667 252.308C166.47 252.389 166.26 252.431 166.047 252.431Z" fill="black" fill-opacity="0.2"/>
<path d="M166.047 252.431H161.622C161.409 252.431 161.199 252.389 161.002 252.308C160.806 252.227 160.627 252.107 160.477 251.957C160.326 251.807 160.207 251.628 160.126 251.432C160.044 251.235 160.003 251.025 160.003 250.812C160.003 250.599 160.044 250.389 160.126 250.192C160.207 249.996 160.326 249.817 160.477 249.667C160.627 249.516 160.806 249.397 161.002 249.316C161.199 249.234 161.409 249.192 161.622 249.192H166.047C166.26 249.192 166.47 249.234 166.667 249.316C166.863 249.397 167.042 249.516 167.192 249.667C167.343 249.817 167.462 249.996 167.543 250.192C167.625 250.389 167.667 250.599 167.667 250.812C167.667 251.025 167.625 251.235 167.543 251.432C167.462 251.628 167.343 251.807 167.192 251.957C167.042 252.107 166.863 252.227 166.667 252.308C166.47 252.389 166.26 252.431 166.047 252.431Z" fill="black" fill-opacity="0.2"/>
<path d="M178.163 252.431H173.738C173.525 252.431 173.315 252.389 173.118 252.308C172.922 252.227 172.743 252.107 172.593 251.957C172.442 251.807 172.323 251.628 172.242 251.432C172.16 251.235 172.118 251.025 172.118 250.812C172.118 250.599 172.16 250.389 172.242 250.192C172.323 249.996 172.442 249.817 172.593 249.667C172.743 249.516 172.922 249.397 173.118 249.316C173.315 249.234 173.525 249.192 173.738 249.192H178.163C178.376 249.192 178.586 249.234 178.783 249.316C178.979 249.397 179.158 249.516 179.308 249.667C179.459 249.817 179.578 249.996 179.659 250.192C179.741 250.389 179.782 250.599 179.782 250.812C179.782 251.025 179.741 251.235 179.659 251.432C179.578 251.628 179.459 251.807 179.308 251.957C179.158 252.107 178.979 252.227 178.783 252.308C178.586 252.389 178.376 252.431 178.163 252.431Z" fill="#2E3E5A"/>
<path d="M178.163 252.431H173.738C173.525 252.431 173.315 252.389 173.118 252.308C172.922 252.227 172.743 252.107 172.593 251.957C172.442 251.807 172.323 251.628 172.242 251.432C172.16 251.235 172.118 251.025 172.118 250.812C172.118 250.599 172.16 250.389 172.242 250.192C172.323 249.996 172.442 249.817 172.593 249.667C172.743 249.516 172.922 249.397 173.118 249.316C173.315 249.234 173.525 249.192 173.738 249.192H178.163C178.376 249.192 178.586 249.234 178.783 249.316C178.979 249.397 179.158 249.516 179.308 249.667C179.459 249.817 179.578 249.996 179.659 250.192C179.741 250.389 179.782 250.599 179.782 250.812C179.782 251.025 179.741 251.235 179.659 251.432C179.578 251.628 179.459 251.807 179.308 251.957C179.158 252.107 178.979 252.227 178.783 252.308C178.586 252.389 178.376 252.431 178.163 252.431Z" fill="black" fill-opacity="0.2"/>
<path d="M178.163 252.431H173.738C173.525 252.431 173.315 252.389 173.118 252.308C172.922 252.227 172.743 252.107 172.593 251.957C172.442 251.807 172.323 251.628 172.242 251.432C172.16 251.235 172.118 251.025 172.118 250.812C172.118 250.599 172.16 250.389 172.242 250.192C172.323 249.996 172.442 249.817 172.593 249.667C172.743 249.516 172.922 249.397 173.118 249.316C173.315 249.234 173.525 249.192 173.738 249.192H178.163C178.376 249.192 178.586 249.234 178.783 249.316C178.979 249.397 179.158 249.516 179.308 249.667C179.459 249.817 179.578 249.996 179.659 250.192C179.741 250.389 179.782 250.599 179.782 250.812C179.782 251.025 179.741 251.235 179.659 251.432C179.578 251.628 179.459 251.807 179.308 251.957C179.158 252.107 178.979 252.227 178.783 252.308C178.586 252.389 178.376 252.431 178.163 252.431Z" fill="black" fill-opacity="0.2"/>
<path d="M226.299 252.524H221.874C221.661 252.524 221.451 252.482 221.254 252.401C221.058 252.319 220.879 252.2 220.729 252.05C220.578 251.899 220.459 251.721 220.378 251.524C220.296 251.328 220.255 251.117 220.255 250.905C220.255 250.692 220.296 250.481 220.378 250.285C220.459 250.088 220.578 249.91 220.729 249.759C220.879 249.609 221.058 249.49 221.254 249.408C221.451 249.327 221.661 249.285 221.874 249.285H226.299C226.512 249.285 226.722 249.327 226.919 249.408C227.115 249.49 227.294 249.609 227.444 249.759C227.595 249.91 227.714 250.088 227.795 250.285C227.877 250.481 227.919 250.692 227.919 250.905C227.919 251.117 227.877 251.328 227.795 251.524C227.714 251.721 227.595 251.899 227.444 252.05C227.294 252.2 227.115 252.319 226.919 252.401C226.722 252.482 226.512 252.524 226.299 252.524Z" fill="#2E3E5A"/>
<path d="M226.299 252.524H221.874C221.661 252.524 221.451 252.482 221.254 252.401C221.058 252.319 220.879 252.2 220.729 252.05C220.578 251.899 220.459 251.721 220.378 251.524C220.296 251.328 220.255 251.117 220.255 250.905C220.255 250.692 220.296 250.481 220.378 250.285C220.459 250.088 220.578 249.91 220.729 249.759C220.879 249.609 221.058 249.49 221.254 249.408C221.451 249.327 221.661 249.285 221.874 249.285H226.299C226.512 249.285 226.722 249.327 226.919 249.408C227.115 249.49 227.294 249.609 227.444 249.759C227.595 249.91 227.714 250.088 227.795 250.285C227.877 250.481 227.919 250.692 227.919 250.905C227.919 251.117 227.877 251.328 227.795 251.524C227.714 251.721 227.595 251.899 227.444 252.05C227.294 252.2 227.115 252.319 226.919 252.401C226.722 252.482 226.512 252.524 226.299 252.524Z" fill="black" fill-opacity="0.2"/>
<path d="M226.299 252.524H221.874C221.661 252.524 221.451 252.482 221.254 252.401C221.058 252.319 220.879 252.2 220.729 252.05C220.578 251.899 220.459 251.721 220.378 251.524C220.296 251.328 220.255 251.117 220.255 250.905C220.255 250.692 220.296 250.481 220.378 250.285C220.459 250.088 220.578 249.91 220.729 249.759C220.879 249.609 221.058 249.49 221.254 249.408C221.451 249.327 221.661 249.285 221.874 249.285H226.299C226.512 249.285 226.722 249.327 226.919 249.408C227.115 249.49 227.294 249.609 227.444 249.759C227.595 249.91 227.714 250.088 227.795 250.285C227.877 250.481 227.919 250.692 227.919 250.905C227.919 251.117 227.877 251.328 227.795 251.524C227.714 251.721 227.595 251.899 227.444 252.05C227.294 252.2 227.115 252.319 226.919 252.401C226.722 252.482 226.512 252.524 226.299 252.524Z" fill="black" fill-opacity="0.2"/>
<path d="M238.986 252.524H234.561C234.348 252.524 234.138 252.482 233.941 252.401C233.745 252.319 233.566 252.2 233.416 252.05C233.265 251.899 233.146 251.721 233.065 251.524C232.983 251.328 232.941 251.117 232.941 250.905C232.941 250.692 232.983 250.481 233.065 250.285C233.146 250.088 233.265 249.91 233.416 249.759C233.566 249.609 233.745 249.49 233.941 249.408C234.138 249.327 234.348 249.285 234.561 249.285H238.986C239.199 249.285 239.409 249.327 239.606 249.408C239.802 249.49 239.981 249.609 240.131 249.759C240.282 249.91 240.401 250.088 240.482 250.285C240.564 250.481 240.605 250.692 240.605 250.905C240.605 251.117 240.564 251.328 240.482 251.524C240.401 251.721 240.282 251.899 240.131 252.05C239.981 252.2 239.802 252.319 239.606 252.401C239.409 252.482 239.199 252.524 238.986 252.524Z" fill="#2E3E5A"/>
<path d="M238.986 252.524H234.561C234.348 252.524 234.138 252.482 233.941 252.401C233.745 252.319 233.566 252.2 233.416 252.05C233.265 251.899 233.146 251.721 233.065 251.524C232.983 251.328 232.941 251.117 232.941 250.905C232.941 250.692 232.983 250.481 233.065 250.285C233.146 250.088 233.265 249.91 233.416 249.759C233.566 249.609 233.745 249.49 233.941 249.408C234.138 249.327 234.348 249.285 234.561 249.285H238.986C239.199 249.285 239.409 249.327 239.606 249.408C239.802 249.49 239.981 249.609 240.131 249.759C240.282 249.91 240.401 250.088 240.482 250.285C240.564 250.481 240.605 250.692 240.605 250.905C240.605 251.117 240.564 251.328 240.482 251.524C240.401 251.721 240.282 251.899 240.131 252.05C239.981 252.2 239.802 252.319 239.606 252.401C239.409 252.482 239.199 252.524 238.986 252.524Z" fill="black" fill-opacity="0.2"/>
<path d="M238.986 252.524H234.561C234.348 252.524 234.138 252.482 233.941 252.401C233.745 252.319 233.566 252.2 233.416 252.05C233.265 251.899 233.146 251.721 233.065 251.524C232.983 251.328 232.941 251.117 232.941 250.905C232.941 250.692 232.983 250.481 233.065 250.285C233.146 250.088 233.265 249.91 233.416 249.759C233.566 249.609 233.745 249.49 233.941 249.408C234.138 249.327 234.348 249.285 234.561 249.285H238.986C239.199 249.285 239.409 249.327 239.606 249.408C239.802 249.49 239.981 249.609 240.131 249.759C240.282 249.91 240.401 250.088 240.482 250.285C240.564 250.481 240.605 250.692 240.605 250.905C240.605 251.117 240.564 251.328 240.482 251.524C240.401 251.721 240.282 251.899 240.131 252.05C239.981 252.2 239.802 252.319 239.606 252.401C239.409 252.482 239.199 252.524 238.986 252.524Z" fill="black" fill-opacity="0.2"/>
<path d="M251.101 252.524H246.676C246.463 252.524 246.253 252.482 246.056 252.401C245.86 252.319 245.681 252.2 245.531 252.05C245.38 251.899 245.261 251.721 245.18 251.524C245.098 251.328 245.057 251.117 245.057 250.905C245.057 250.692 245.098 250.481 245.18 250.285C245.261 250.088 245.38 249.91 245.531 249.759C245.681 249.609 245.86 249.49 246.056 249.408C246.253 249.327 246.463 249.285 246.676 249.285H251.101C251.314 249.285 251.524 249.327 251.721 249.408C251.917 249.49 252.096 249.609 252.246 249.759C252.397 249.91 252.516 250.088 252.597 250.285C252.679 250.481 252.721 250.692 252.721 250.905C252.721 251.117 252.679 251.328 252.597 251.524C252.516 251.721 252.397 251.899 252.246 252.05C252.096 252.2 251.917 252.319 251.721 252.401C251.524 252.482 251.314 252.524 251.101 252.524Z" fill="#2E3E5A"/>
<path d="M251.101 252.524H246.676C246.463 252.524 246.253 252.482 246.056 252.401C245.86 252.319 245.681 252.2 245.531 252.05C245.38 251.899 245.261 251.721 245.18 251.524C245.098 251.328 245.057 251.117 245.057 250.905C245.057 250.692 245.098 250.481 245.18 250.285C245.261 250.088 245.38 249.91 245.531 249.759C245.681 249.609 245.86 249.49 246.056 249.408C246.253 249.327 246.463 249.285 246.676 249.285H251.101C251.314 249.285 251.524 249.327 251.721 249.408C251.917 249.49 252.096 249.609 252.246 249.759C252.397 249.91 252.516 250.088 252.597 250.285C252.679 250.481 252.721 250.692 252.721 250.905C252.721 251.117 252.679 251.328 252.597 251.524C252.516 251.721 252.397 251.899 252.246 252.05C252.096 252.2 251.917 252.319 251.721 252.401C251.524 252.482 251.314 252.524 251.101 252.524Z" fill="black" fill-opacity="0.2"/>
<path d="M251.101 252.524H246.676C246.463 252.524 246.253 252.482 246.056 252.401C245.86 252.319 245.681 252.2 245.531 252.05C245.38 251.899 245.261 251.721 245.18 251.524C245.098 251.328 245.057 251.117 245.057 250.905C245.057 250.692 245.098 250.481 245.18 250.285C245.261 250.088 245.38 249.91 245.531 249.759C245.681 249.609 245.86 249.49 246.056 249.408C246.253 249.327 246.463 249.285 246.676 249.285H251.101C251.314 249.285 251.524 249.327 251.721 249.408C251.917 249.49 252.096 249.609 252.246 249.759C252.397 249.91 252.516 250.088 252.597 250.285C252.679 250.481 252.721 250.692 252.721 250.905C252.721 251.117 252.679 251.328 252.597 251.524C252.516 251.721 252.397 251.899 252.246 252.05C252.096 252.2 251.917 252.319 251.721 252.401C251.524 252.482 251.314 252.524 251.101 252.524Z" fill="black" fill-opacity="0.2"/>
<path d="M213.416 252.524H185.852C185.639 252.524 185.429 252.482 185.232 252.401C185.036 252.319 184.857 252.2 184.707 252.05C184.556 251.899 184.437 251.721 184.356 251.524C184.274 251.328 184.232 251.117 184.232 250.905C184.232 250.692 184.274 250.481 184.356 250.285C184.437 250.088 184.556 249.91 184.707 249.759C184.857 249.609 185.036 249.49 185.232 249.408C185.429 249.327 185.639 249.285 185.852 249.285H213.416C213.846 249.285 214.257 249.456 214.561 249.759C214.865 250.063 215.035 250.475 215.035 250.905C215.035 251.334 214.865 251.746 214.561 252.05C214.257 252.354 213.846 252.524 213.416 252.524Z" fill="#2E3E5A"/>
<path d="M213.416 252.524H185.852C185.639 252.524 185.429 252.482 185.232 252.401C185.036 252.319 184.857 252.2 184.707 252.05C184.556 251.899 184.437 251.721 184.356 251.524C184.274 251.328 184.232 251.117 184.232 250.905C184.232 250.692 184.274 250.481 184.356 250.285C184.437 250.088 184.556 249.91 184.707 249.759C184.857 249.609 185.036 249.49 185.232 249.408C185.429 249.327 185.639 249.285 185.852 249.285H213.416C213.846 249.285 214.257 249.456 214.561 249.759C214.865 250.063 215.035 250.475 215.035 250.905C215.035 251.334 214.865 251.746 214.561 252.05C214.257 252.354 213.846 252.524 213.416 252.524Z" fill="black" fill-opacity="0.2"/>
<path d="M213.416 252.524H185.852C185.639 252.524 185.429 252.482 185.232 252.401C185.036 252.319 184.857 252.2 184.707 252.05C184.556 251.899 184.437 251.721 184.356 251.524C184.274 251.328 184.232 251.117 184.232 250.905C184.232 250.692 184.274 250.481 184.356 250.285C184.437 250.088 184.556 249.91 184.707 249.759C184.857 249.609 185.036 249.49 185.232 249.408C185.429 249.327 185.639 249.285 185.852 249.285H213.416C213.846 249.285 214.257 249.456 214.561 249.759C214.865 250.063 215.035 250.475 215.035 250.905C215.035 251.334 214.865 251.746 214.561 252.05C214.257 252.354 213.846 252.524 213.416 252.524Z" fill="black" fill-opacity="0.2"/>
<path d="M196.232 245.246H191.807C191.594 245.246 191.384 245.204 191.187 245.123C190.991 245.041 190.812 244.922 190.662 244.771C190.511 244.621 190.392 244.443 190.311 244.246C190.229 244.05 190.188 243.839 190.188 243.626C190.188 243.414 190.229 243.203 190.311 243.007C190.392 242.81 190.511 242.632 190.662 242.481C190.812 242.331 190.991 242.212 191.187 242.13C191.384 242.049 191.594 242.007 191.807 242.007H196.232C196.445 242.007 196.655 242.049 196.852 242.13C197.048 242.212 197.227 242.331 197.377 242.481C197.528 242.632 197.647 242.81 197.728 243.007C197.81 243.203 197.852 243.414 197.852 243.626C197.852 243.839 197.81 244.05 197.728 244.246C197.647 244.443 197.528 244.621 197.377 244.771C197.227 244.922 197.048 245.041 196.852 245.123C196.655 245.204 196.445 245.246 196.232 245.246Z" fill="#2E3E5A"/>
<path d="M196.232 245.246H191.807C191.594 245.246 191.384 245.204 191.187 245.123C190.991 245.041 190.812 244.922 190.662 244.771C190.511 244.621 190.392 244.443 190.311 244.246C190.229 244.05 190.188 243.839 190.188 243.626C190.188 243.414 190.229 243.203 190.311 243.007C190.392 242.81 190.511 242.632 190.662 242.481C190.812 242.331 190.991 242.212 191.187 242.13C191.384 242.049 191.594 242.007 191.807 242.007H196.232C196.445 242.007 196.655 242.049 196.852 242.13C197.048 242.212 197.227 242.331 197.377 242.481C197.528 242.632 197.647 242.81 197.728 243.007C197.81 243.203 197.852 243.414 197.852 243.626C197.852 243.839 197.81 244.05 197.728 244.246C197.647 244.443 197.528 244.621 197.377 244.771C197.227 244.922 197.048 245.041 196.852 245.123C196.655 245.204 196.445 245.246 196.232 245.246Z" fill="black" fill-opacity="0.2"/>
<path d="M196.232 245.246H191.807C191.594 245.246 191.384 245.204 191.187 245.123C190.991 245.041 190.812 244.922 190.662 244.771C190.511 244.621 190.392 244.443 190.311 244.246C190.229 244.05 190.188 243.839 190.188 243.626C190.188 243.414 190.229 243.203 190.311 243.007C190.392 242.81 190.511 242.632 190.662 242.481C190.812 242.331 190.991 242.212 191.187 242.13C191.384 242.049 191.594 242.007 191.807 242.007H196.232C196.445 242.007 196.655 242.049 196.852 242.13C197.048 242.212 197.227 242.331 197.377 242.481C197.528 242.632 197.647 242.81 197.728 243.007C197.81 243.203 197.852 243.414 197.852 243.626C197.852 243.839 197.81 244.05 197.728 244.246C197.647 244.443 197.528 244.621 197.377 244.771C197.227 244.922 197.048 245.041 196.852 245.123C196.655 245.204 196.445 245.246 196.232 245.246Z" fill="black" fill-opacity="0.2"/>
<path d="M208.346 245.246H203.921C203.708 245.246 203.498 245.204 203.301 245.123C203.105 245.041 202.926 244.922 202.776 244.771C202.625 244.621 202.506 244.443 202.425 244.246C202.343 244.05 202.302 243.839 202.302 243.626C202.302 243.414 202.343 243.203 202.425 243.007C202.506 242.81 202.625 242.632 202.776 242.481C202.926 242.331 203.105 242.212 203.301 242.13C203.498 242.049 203.708 242.007 203.921 242.007H208.346C208.559 242.007 208.769 242.049 208.966 242.13C209.162 242.212 209.341 242.331 209.491 242.481C209.642 242.632 209.761 242.81 209.842 243.007C209.924 243.203 209.966 243.414 209.966 243.626C209.966 243.839 209.924 244.05 209.842 244.246C209.761 244.443 209.642 244.621 209.491 244.771C209.341 244.922 209.162 245.041 208.966 245.123C208.769 245.204 208.559 245.246 208.346 245.246Z" fill="#2E3E5A"/>
<path d="M208.346 245.246H203.921C203.708 245.246 203.498 245.204 203.301 245.123C203.105 245.041 202.926 244.922 202.776 244.771C202.625 244.621 202.506 244.443 202.425 244.246C202.343 244.05 202.302 243.839 202.302 243.626C202.302 243.414 202.343 243.203 202.425 243.007C202.506 242.81 202.625 242.632 202.776 242.481C202.926 242.331 203.105 242.212 203.301 242.13C203.498 242.049 203.708 242.007 203.921 242.007H208.346C208.559 242.007 208.769 242.049 208.966 242.13C209.162 242.212 209.341 242.331 209.491 242.481C209.642 242.632 209.761 242.81 209.842 243.007C209.924 243.203 209.966 243.414 209.966 243.626C209.966 243.839 209.924 244.05 209.842 244.246C209.761 244.443 209.642 244.621 209.491 244.771C209.341 244.922 209.162 245.041 208.966 245.123C208.769 245.204 208.559 245.246 208.346 245.246Z" fill="black" fill-opacity="0.2"/>
<path d="M208.346 245.246H203.921C203.708 245.246 203.498 245.204 203.301 245.123C203.105 245.041 202.926 244.922 202.776 244.771C202.625 244.621 202.506 244.443 202.425 244.246C202.343 244.05 202.302 243.839 202.302 243.626C202.302 243.414 202.343 243.203 202.425 243.007C202.506 242.81 202.625 242.632 202.776 242.481C202.926 242.331 203.105 242.212 203.301 242.13C203.498 242.049 203.708 242.007 203.921 242.007H208.346C208.559 242.007 208.769 242.049 208.966 242.13C209.162 242.212 209.341 242.331 209.491 242.481C209.642 242.632 209.761 242.81 209.842 243.007C209.924 243.203 209.966 243.414 209.966 243.626C209.966 243.839 209.924 244.05 209.842 244.246C209.761 244.443 209.642 244.621 209.491 244.771C209.341 244.922 209.162 245.041 208.966 245.123C208.769 245.204 208.559 245.246 208.346 245.246Z" fill="black" fill-opacity="0.2"/>
<path d="M220.462 244.968H216.037C215.824 244.968 215.614 244.926 215.417 244.844C215.221 244.763 215.042 244.644 214.892 244.493C214.741 244.343 214.622 244.164 214.541 243.968C214.459 243.771 214.417 243.561 214.417 243.348C214.417 243.135 214.459 242.925 214.541 242.728C214.622 242.532 214.741 242.353 214.892 242.203C215.042 242.052 215.221 241.933 215.417 241.852C215.614 241.77 215.824 241.729 216.037 241.729H220.462C220.675 241.729 220.885 241.77 221.082 241.852C221.278 241.933 221.457 242.052 221.607 242.203C221.758 242.353 221.877 242.532 221.958 242.728C222.04 242.925 222.081 243.135 222.081 243.348C222.081 243.561 222.04 243.771 221.958 243.968C221.877 244.164 221.758 244.343 221.607 244.493C221.457 244.644 221.278 244.763 221.082 244.844C220.885 244.926 220.675 244.968 220.462 244.968Z" fill="#2E3E5A"/>
<path d="M220.462 244.968H216.037C215.824 244.968 215.614 244.926 215.417 244.844C215.221 244.763 215.042 244.644 214.892 244.493C214.741 244.343 214.622 244.164 214.541 243.968C214.459 243.771 214.417 243.561 214.417 243.348C214.417 243.135 214.459 242.925 214.541 242.728C214.622 242.532 214.741 242.353 214.892 242.203C215.042 242.052 215.221 241.933 215.417 241.852C215.614 241.77 215.824 241.729 216.037 241.729H220.462C220.675 241.729 220.885 241.77 221.082 241.852C221.278 241.933 221.457 242.052 221.607 242.203C221.758 242.353 221.877 242.532 221.958 242.728C222.04 242.925 222.081 243.135 222.081 243.348C222.081 243.561 222.04 243.771 221.958 243.968C221.877 244.164 221.758 244.343 221.607 244.493C221.457 244.644 221.278 244.763 221.082 244.844C220.885 244.926 220.675 244.968 220.462 244.968Z" fill="black" fill-opacity="0.2"/>
<path d="M220.462 244.968H216.037C215.824 244.968 215.614 244.926 215.417 244.844C215.221 244.763 215.042 244.644 214.892 244.493C214.741 244.343 214.622 244.164 214.541 243.968C214.459 243.771 214.417 243.561 214.417 243.348C214.417 243.135 214.459 242.925 214.541 242.728C214.622 242.532 214.741 242.353 214.892 242.203C215.042 242.052 215.221 241.933 215.417 241.852C215.614 241.77 215.824 241.729 216.037 241.729H220.462C220.675 241.729 220.885 241.77 221.082 241.852C221.278 241.933 221.457 242.052 221.607 242.203C221.758 242.353 221.877 242.532 221.958 242.728C222.04 242.925 222.081 243.135 222.081 243.348C222.081 243.561 222.04 243.771 221.958 243.968C221.877 244.164 221.758 244.343 221.607 244.493C221.457 244.644 221.278 244.763 221.082 244.844C220.885 244.926 220.675 244.968 220.462 244.968Z" fill="black" fill-opacity="0.2"/>
<path d="M232.577 244.968H228.152C227.939 244.968 227.729 244.926 227.532 244.844C227.336 244.763 227.157 244.644 227.007 244.493C226.856 244.343 226.737 244.164 226.656 243.968C226.574 243.771 226.532 243.561 226.532 243.348C226.532 243.135 226.574 242.925 226.656 242.728C226.737 242.532 226.856 242.353 227.007 242.203C227.157 242.052 227.336 241.933 227.532 241.852C227.729 241.77 227.939 241.729 228.152 241.729H232.577C232.79 241.729 233 241.77 233.197 241.852C233.393 241.933 233.572 242.052 233.722 242.203C233.873 242.353 233.992 242.532 234.073 242.728C234.155 242.925 234.196 243.135 234.196 243.348C234.196 243.561 234.155 243.771 234.073 243.968C233.992 244.164 233.873 244.343 233.722 244.493C233.572 244.644 233.393 244.763 233.197 244.844C233 244.926 232.79 244.968 232.577 244.968Z" fill="#2E3E5A"/>
<path d="M232.577 244.968H228.152C227.939 244.968 227.729 244.926 227.532 244.844C227.336 244.763 227.157 244.644 227.007 244.493C226.856 244.343 226.737 244.164 226.656 243.968C226.574 243.771 226.532 243.561 226.532 243.348C226.532 243.135 226.574 242.925 226.656 242.728C226.737 242.532 226.856 242.353 227.007 242.203C227.157 242.052 227.336 241.933 227.532 241.852C227.729 241.77 227.939 241.729 228.152 241.729H232.577C232.79 241.729 233 241.77 233.197 241.852C233.393 241.933 233.572 242.052 233.722 242.203C233.873 242.353 233.992 242.532 234.073 242.728C234.155 242.925 234.196 243.135 234.196 243.348C234.196 243.561 234.155 243.771 234.073 243.968C233.992 244.164 233.873 244.343 233.722 244.493C233.572 244.644 233.393 244.763 233.197 244.844C233 244.926 232.79 244.968 232.577 244.968Z" fill="black" fill-opacity="0.2"/>
<path d="M232.577 244.968H228.152C227.939 244.968 227.729 244.926 227.532 244.844C227.336 244.763 227.157 244.644 227.007 244.493C226.856 244.343 226.737 244.164 226.656 243.968C226.574 243.771 226.532 243.561 226.532 243.348C226.532 243.135 226.574 242.925 226.656 242.728C226.737 242.532 226.856 242.353 227.007 242.203C227.157 242.052 227.336 241.933 227.532 241.852C227.729 241.77 227.939 241.729 228.152 241.729H232.577C232.79 241.729 233 241.77 233.197 241.852C233.393 241.933 233.572 242.052 233.722 242.203C233.873 242.353 233.992 242.532 234.073 242.728C234.155 242.925 234.196 243.135 234.196 243.348C234.196 243.561 234.155 243.771 234.073 243.968C233.992 244.164 233.873 244.343 233.722 244.493C233.572 244.644 233.393 244.763 233.197 244.844C233 244.926 232.79 244.968 232.577 244.968Z" fill="black" fill-opacity="0.2"/>
<path d="M244.693 244.968H240.268C240.055 244.968 239.845 244.926 239.648 244.844C239.452 244.763 239.273 244.644 239.123 244.493C238.972 244.343 238.853 244.164 238.772 243.968C238.69 243.771 238.648 243.561 238.648 243.348C238.648 243.135 238.69 242.925 238.772 242.728C238.853 242.532 238.972 242.353 239.123 242.203C239.273 242.052 239.452 241.933 239.648 241.852C239.845 241.77 240.055 241.729 240.268 241.729H244.693C244.906 241.729 245.116 241.77 245.313 241.852C245.509 241.933 245.688 242.052 245.838 242.203C245.989 242.353 246.108 242.532 246.189 242.728C246.271 242.925 246.312 243.135 246.312 243.348C246.312 243.561 246.271 243.771 246.189 243.968C246.108 244.164 245.989 244.343 245.838 244.493C245.688 244.644 245.509 244.763 245.313 244.844C245.116 244.926 244.906 244.968 244.693 244.968Z" fill="#2E3E5A"/>
<path d="M244.693 244.968H240.268C240.055 244.968 239.845 244.926 239.648 244.844C239.452 244.763 239.273 244.644 239.123 244.493C238.972 244.343 238.853 244.164 238.772 243.968C238.69 243.771 238.648 243.561 238.648 243.348C238.648 243.135 238.69 242.925 238.772 242.728C238.853 242.532 238.972 242.353 239.123 242.203C239.273 242.052 239.452 241.933 239.648 241.852C239.845 241.77 240.055 241.729 240.268 241.729H244.693C244.906 241.729 245.116 241.77 245.313 241.852C245.509 241.933 245.688 242.052 245.838 242.203C245.989 242.353 246.108 242.532 246.189 242.728C246.271 242.925 246.312 243.135 246.312 243.348C246.312 243.561 246.271 243.771 246.189 243.968C246.108 244.164 245.989 244.343 245.838 244.493C245.688 244.644 245.509 244.763 245.313 244.844C245.116 244.926 244.906 244.968 244.693 244.968Z" fill="black" fill-opacity="0.2"/>
<path d="M244.693 244.968H240.268C240.055 244.968 239.845 244.926 239.648 244.844C239.452 244.763 239.273 244.644 239.123 244.493C238.972 244.343 238.853 244.164 238.772 243.968C238.69 243.771 238.648 243.561 238.648 243.348C238.648 243.135 238.69 242.925 238.772 242.728C238.853 242.532 238.972 242.353 239.123 242.203C239.273 242.052 239.452 241.933 239.648 241.852C239.845 241.77 240.055 241.729 240.268 241.729H244.693C244.906 241.729 245.116 241.77 245.313 241.852C245.509 241.933 245.688 242.052 245.838 242.203C245.989 242.353 246.108 242.532 246.189 242.728C246.271 242.925 246.312 243.135 246.312 243.348C246.312 243.561 246.271 243.771 246.189 243.968C246.108 244.164 245.989 244.343 245.838 244.493C245.688 244.644 245.509 244.763 245.313 244.844C245.116 244.926 244.906 244.968 244.693 244.968Z" fill="black" fill-opacity="0.2"/>
<g opacity="0.95">
<mask id="mask1_337_16977" style="mask-type:luminance" maskUnits="userSpaceOnUse" x="119" y="94" width="160" height="35">
<path d="M279 94.3877H119.5V128.451H279V94.3877Z" fill="white"/>
</mask>
<g mask="url(#mask1_337_16977)">
<path d="M279 94.3877H119.5V128.451H279V94.3877Z" fill="#E4E6EA"/>
</g>
</g>
<path d="M160.5 111.595L260.5 111.595" stroke="#2E3E5A" stroke-width="4" stroke-linecap="round"/>
<path d="M160.5 111.595L260.5 111.595" stroke="black" stroke-opacity="0.2" stroke-width="4" stroke-linecap="round"/>
<path d="M160.5 111.595L260.5 111.595" stroke="black" stroke-opacity="0.2" stroke-width="4" stroke-linecap="round"/>
<circle cx="139.5" cy="111.5" r="11" fill="#629D62"/>
<path d="M132.5 112.591L134.216 110.865L137.244 113.865L145.242 105.962L146.973 107.663L137.244 117.281L132.5 112.591Z" fill="white"/>
<g opacity="0.95">
<mask id="mask2_337_16977" style="mask-type:luminance" maskUnits="userSpaceOnUse" x="119" y="134" width="160" height="35">
<path d="M279 134.888H119.5V168.951H279V134.888Z" fill="white"/>
</mask>
<g mask="url(#mask2_337_16977)">
<path d="M279 134.888H119.5V168.951H279V134.888Z" fill="#E4E6EA"/>
</g>
</g>
<path d="M160.5 152.095L260.5 152.095" stroke="#2E3E5A" stroke-width="4" stroke-linecap="round"/>
<path d="M160.5 152.095L260.5 152.095" stroke="black" stroke-opacity="0.2" stroke-width="4" stroke-linecap="round"/>
<path d="M160.5 152.095L260.5 152.095" stroke="black" stroke-opacity="0.2" stroke-width="4" stroke-linecap="round"/>
<circle cx="139.5" cy="152" r="11" fill="#629D62"/>
<path d="M132.5 153.091L134.216 151.365L137.244 154.365L145.242 146.462L146.973 148.163L137.244 157.781L132.5 153.091Z" fill="white"/>
<path d="M69.669 73.7971C61.324 73.3831 51.003 77.9971 50.109 86.5911C49.458 92.8421 49.657 99.0621 48.655 105.301C47.8068 110.291 46.1845 115.118 43.847 119.607C41.626 123.973 37.019 127.693 35.82 132.352C35.1471 135.708 35.3928 139.184 36.531 142.412C37.81 145.947 37.131 145.667 34.578 148.633C29.4851 154.238 25.2126 160.537 21.888 167.341C17.3 177.341 14.288 189.022 15.988 199.967C16.202 201.357 16.458 206.343 18.478 206.694C20.734 207.085 19.678 204.231 19.56 203.31C18.794 197.431 18.117 192.285 19.044 186.32C22.626 163.287 40.071 148.112 51.434 128.565C52.059 127.556 53.377 125.156 54.295 123.572C55.743 121.072 57.195 116.314 59.158 114.462C62.85 110.973 59.458 117.991 58.735 119.332C57.825 121.032 56.825 122.832 55.894 124.31C51.631 131.197 46.873 138.71 42.47 145.81C61.496 149.932 74.908 128.255 80.021 114C84.233 102.259 89.278 74.8101 69.674 73.7941" fill="#BFE2E2"/>
<path d="M-39.853 52.008C-25.911 53.054 -16.961 61.775 -12.793 73.97C-10.547 80.546 -10.293 87.29 -9.04203 94.047C-7.16503 104.208 -3.126 111.908 4.768 119.147C7.00912 121.138 8.88027 123.511 10.295 126.154C12.9272 128.626 15.0895 131.555 16.677 134.798C18.755 139.146 19.341 144.356 16.944 148.687C15.9719 150.467 14.6355 152.022 13.022 153.251C19.3481 165.685 22.5371 179.478 22.311 193.427C22.076 201.745 21.648 210.069 21.148 218.375C21.013 220.606 20.248 224.289 19.095 220.548C18.041 217.126 19.363 211.754 19.485 208.179C20.085 190.763 20.585 174.927 13.024 158.659C12.23 156.953 11.393 155.261 10.513 153.583C10.4624 153.554 10.4133 153.522 10.366 153.488C10.333 153.513 10.303 153.539 10.266 153.562C10.211 153.467 10.134 153.355 10.045 153.229C9.78174 152.959 9.55363 152.656 9.36599 152.329C8.70765 151.619 8.21753 150.769 7.93197 149.844V149.829C3.14466 142.615 -2.03791 135.671 -7.59202 129.029C-7.55002 129.077 -13.534 121.355 -12.61 125.629C-12.165 127.687 -7.76302 131.605 -5.98502 133.786C-1.56715 139.212 2.56736 144.862 6.40197 150.715C7.15941 151.49 7.76158 152.403 8.17599 153.405C8.46699 153.926 8.73997 154.451 9.00597 154.905C-4.59402 159.163 -15.167 150.587 -22.38 140.612L-22.404 140.576C-24.5062 137.738 -26.9405 135.161 -29.655 132.902C-34.341 129.267 -54.588 84.383 -39.855 52.002" fill="#BFE2E2"/>
<path d="M-12.313 8.6265C1.997 22.7405 8.91098 42.3135 14.387 60.7205C20.502 81.2755 24.539 102.148 24.695 123.52C24.795 137.561 25.195 151.695 24.334 165.715C24.0429 170.708 23.4874 175.682 22.67 180.615C22.602 181.021 20.737 192.022 18.955 189.459C17.94 188 20.865 178.046 21.086 176.389C22.2278 167.051 22.7193 157.644 22.557 148.236C22.457 132.749 22.939 117.337 21.282 101.911C21.1083 99.5646 20.7677 97.233 20.263 94.9345C19.65 92.5345 20.431 93.5835 18.434 92.6345C16.494 91.7115 14.095 91.8445 12.083 90.6875C4.09799 86.0925 0.0119858 74.3105 -3.16801 66.5755C-6.62773 57.6603 -9.17801 48.4184 -10.78 38.9905C-12.0817 32.1928 -13.0004 25.3273 -13.532 18.4265C-13.5953 16.2112 -13.8041 14.0024 -14.157 11.8145C-14.4484 11.1286 -14.6861 10.4212 -14.868 9.69849C-14.821 8.61249 -14.129 7.9755 -14.073 7.0625C-13.473 7.57317 -12.8857 8.0965 -12.311 8.6325" fill="#BFE2E2"/>
<path d="M64.586 196.677C64.486 220.111 44.524 239.032 19.986 238.94C-4.54702 239.031 -24.514 220.11 -24.614 196.677" fill="#BFE2E2"/>
<path d="M-26.826 212.307C-25.1321 212.365 -23.4739 211.812 -22.153 210.75C-20.9899 209.715 -20.1208 208.392 -19.634 206.913C-18.7058 203.826 -18.2582 200.614 -18.307 197.39C-18.3176 193.916 -17.8334 190.457 -16.869 187.119C-16.356 185.525 -15.6237 184.011 -14.693 182.619C-13.6671 181.105 -12.4226 179.751 -11 178.602C-10.246 177.985 -9.442 177.397 -8.664 176.828C-7.969 176.321 -7.25301 175.796 -6.57501 175.254L-6.25 174.995C-4.068 173.257 -1.81299 171.461 -1.53698 168.62C-1.41422 168.021 -1.42217 167.403 -1.56024 166.808C-1.6983 166.212 -1.96325 165.654 -2.337 165.17C-2.70038 164.841 -3.12769 164.591 -3.59225 164.434C-4.05681 164.278 -4.54862 164.219 -5.03698 164.261C-5.81059 164.273 -6.58108 164.362 -7.337 164.527C-7.459 164.552 -7.78101 164.668 -8.23001 164.827C-9.69182 165.432 -11.2259 165.845 -12.794 166.056C-12.918 166.074 -13.0444 166.064 -13.1636 166.025C-13.2827 165.986 -13.3914 165.921 -13.481 165.833C-13.5287 165.738 -13.5511 165.633 -13.5458 165.527C-13.5405 165.421 -13.5079 165.318 -13.451 165.228C-13.187 164.628 -12.282 164.097 -10.76 163.653C-7.69801 163.336 -4.80699 163.053 -3.08499 163.053C-2.71212 163.045 -2.33926 163.07 -1.97101 163.129C1.11487 163.793 3.95784 165.295 6.245 167.47C8.5722 169.703 10.4911 172.326 11.915 175.22C14.6662 180.924 16.444 187.047 17.175 193.337C17.305 194.383 17.419 195.522 17.54 196.811H19.89C19.7634 194.006 19.4716 191.21 19.016 188.439C17.9828 182.358 15.8731 176.51 12.786 171.169C11.1958 168.483 9.13416 166.105 6.70002 164.15C4.25713 162.218 1.33964 160.977 -1.74701 160.559C-2.20222 160.52 -2.65915 160.504 -3.11599 160.512C-4.002 160.512 -5.06901 160.545 -6.12201 160.603C-7.15049 160.059 -8.28345 159.74 -9.445 159.669C-9.91601 159.636 -10.396 159.619 -10.872 159.619C-13.608 159.65 -16.321 160.122 -18.906 161.019C-21.605 161.939 -24.183 163.181 -26.584 164.719C-28.9786 166.236 -31.2036 168.006 -33.221 169.997C-35.1036 171.83 -36.7543 173.887 -38.136 176.122C-40.2129 179.697 -41.2718 183.772 -41.198 187.906C-41.1763 192.037 -40.4509 196.134 -39.053 200.021C-38.0776 202.91 -36.624 205.614 -34.753 208.021C-32.44 210.83 -29.817 212.271 -26.94 212.302L-26.826 212.307Z" fill="#BFE2E2"/>
<mask id="mask3_337_16977" style="mask-type:luminance" maskUnits="userSpaceOnUse" x="58" y="214" width="51" height="96">
<path d="M108.118 214.588H58.688V309.686H108.118V214.588Z" fill="white"/>
</mask>
<g mask="url(#mask3_337_16977)">
<path d="M107.165 261.829H59.641L62.45 251.262H104.333L107.165 261.829Z" stroke="#5AB3B3" stroke-width="2" stroke-linecap="round" stroke-linejoin="round"/>
<path d="M97.467 308.756H67.861L61.21 262.004H105.597L97.467 308.756Z" stroke="#5AB3B3" stroke-width="2" stroke-linecap="round" stroke-linejoin="round"/>
</g>
<path d="M68.822 250.634V246.934H97.984V250.916" stroke="#5AB3B3" stroke-width="2" stroke-linecap="round" stroke-linejoin="round"/>
<mask id="mask4_337_16977" style="mask-type:luminance" maskUnits="userSpaceOnUse" x="58" y="214" width="51" height="96">
<path d="M108.118 214.588H58.688V309.686H108.118V214.588Z" fill="white"/>
</mask>
<g mask="url(#mask4_337_16977)">
<path d="M79.234 243.762C82.212 240.22 70.887 238.088 78.755 232.155" stroke="#5AB3B3" stroke-width="2" stroke-linecap="round" stroke-linejoin="round"/>
<path d="M71.727 221.562C80.235 226.262 64.159 233.362 71.727 238.389" stroke="#5AB3B3" stroke-width="2" stroke-linecap="round" stroke-linejoin="round"/>
<path d="M80.711 222.8C80.9659 221.466 80.861 220.088 80.407 218.808C79.953 217.528 79.1664 216.393 78.128 215.518" stroke="#5AB3B3" stroke-width="2" stroke-linecap="round" stroke-linejoin="round"/>
</g>
<path d="M269.223 165L262.399 171.823L272.518 181.943L279.342 175.119L269.223 165Z" fill="#788295"/>
<path d="M261.919 171.344L268.743 164.52L275.202 170.98C274.397 172.469 273.401 173.847 272.241 175.079C271.099 176.178 269.796 177.096 268.378 177.803L261.919 171.344Z" fill="#2E3E5A"/>
<path d="M261.919 171.344L268.743 164.52L275.202 170.98C274.397 172.469 273.401 173.847 272.241 175.079C271.099 176.178 269.796 177.096 268.378 177.803L261.919 171.344Z" fill="black" fill-opacity="0.2"/>
<path d="M261.919 171.344L268.743 164.52L275.202 170.98C274.397 172.469 273.401 173.847 272.241 175.079C271.099 176.178 269.796 177.096 268.378 177.803L261.919 171.344Z" fill="black" fill-opacity="0.2"/>
<path d="M278.161 175.336L272.734 180.762C271.172 182.324 271.172 184.857 272.734 186.419L307.075 220.76C308.637 222.322 311.17 222.322 312.732 220.76L318.158 215.334C319.72 213.771 319.72 211.239 318.158 209.677L283.818 175.336C282.256 173.774 279.723 173.774 278.161 175.336Z" fill="#E88A2D"/>
<path d="M271.838 181.659C271.328 182.173 271.041 182.867 271.041 183.591C271.041 184.315 271.328 185.009 271.838 185.523L307.971 221.656C308.484 222.166 309.179 222.452 309.903 222.452C310.627 222.452 311.321 222.166 311.835 221.656L314.189 219.301L274.192 179.304L271.838 181.659Z" fill="#CC7A29"/>
<path opacity="0.612" d="M264.348 127.466C268.253 131.371 270.912 136.346 271.989 141.761C273.066 147.177 272.513 152.791 270.4 157.892C268.287 162.994 264.709 167.354 260.117 170.422C255.526 173.49 250.128 175.127 244.606 175.127C239.085 175.127 233.687 173.49 229.095 170.422C224.504 167.354 220.926 162.994 218.813 157.892C216.7 152.791 216.147 147.177 217.224 141.761C218.301 136.346 220.96 131.371 224.865 127.466C230.101 122.23 237.202 119.289 244.606 119.289C252.011 119.289 259.112 122.23 264.348 127.466Z" fill="white"/>
<path d="M266.911 169.513C279.229 157.195 279.229 137.223 266.911 124.905C254.593 112.588 234.621 112.588 222.304 124.905C209.986 137.223 209.986 157.195 222.304 169.513C234.621 181.83 254.593 181.83 266.911 169.513Z" stroke="#788295" stroke-width="9" stroke-miterlimit="10"/>
<path d="M264.348 127.466C268.253 131.371 270.912 136.346 271.989 141.761C273.066 147.177 272.513 152.791 270.4 157.892C268.287 162.994 264.709 167.354 260.117 170.422C255.526 173.49 250.128 175.127 244.606 175.127C239.085 175.127 233.687 173.49 229.095 170.422C224.504 167.354 220.926 162.994 218.813 157.892C216.7 152.791 216.147 147.177 217.224 141.761C218.301 136.346 220.96 131.371 224.865 127.466C230.101 122.23 237.202 119.289 244.606 119.289C252.011 119.289 259.112 122.23 264.348 127.466Z" stroke="#2E3E5A" stroke-width="4" stroke-miterlimit="10"/>
<path d="M264.348 127.466C268.253 131.371 270.912 136.346 271.989 141.761C273.066 147.177 272.513 152.791 270.4 157.892C268.287 162.994 264.709 167.354 260.117 170.422C255.526 173.49 250.128 175.127 244.606 175.127C239.085 175.127 233.687 173.49 229.095 170.422C224.504 167.354 220.926 162.994 218.813 157.892C216.7 152.791 216.147 147.177 217.224 141.761C218.301 136.346 220.96 131.371 224.865 127.466C230.101 122.23 237.202 119.289 244.606 119.289C252.011 119.289 259.112 122.23 264.348 127.466Z" stroke="black" stroke-opacity="0.2" stroke-width="4" stroke-miterlimit="10"/>
<path d="M264.348 127.466C268.253 131.371 270.912 136.346 271.989 141.761C273.066 147.177 272.513 152.791 270.4 157.892C268.287 162.994 264.709 167.354 260.117 170.422C255.526 173.49 250.128 175.127 244.606 175.127C239.085 175.127 233.687 173.49 229.095 170.422C224.504 167.354 220.926 162.994 218.813 157.892C216.7 152.791 216.147 147.177 217.224 141.761C218.301 136.346 220.96 131.371 224.865 127.466C230.101 122.23 237.202 119.289 244.606 119.289C252.011 119.289 259.112 122.23 264.348 127.466Z" stroke="black" stroke-opacity="0.2" stroke-width="4" stroke-miterlimit="10"/>
<path d="M307.159 59.366C307.093 59.266 307.02 59.181 306.959 59.083C306.937 59.146 307.012 59.249 307.159 59.366Z" fill="#5AB3B3" stroke="#5AB3B3" stroke-width="0.5"/>
<path d="M320.309 51.0572C320.305 51.0429 320.301 51.0288 320.295 51.0152C320.162 50.8242 320.195 50.8702 320.309 51.0572Z" fill="#5AB3B3" stroke="#5AB3B3" stroke-width="0.5"/>
<path d="M308.032 19.3652C308.968 18.6339 309.588 17.5717 309.764 16.3972C309.793 15.8414 309.702 15.2859 309.497 14.7683C309.293 14.2507 308.979 13.7831 308.578 13.3972C305.935 10.5422 290.33 -6.83478 290.17 -7.01478C290.034 -7.14749 289.852 -7.22347 289.662 -7.22738C289.471 -7.23129 289.287 -7.16284 289.145 -7.03585C289.003 -6.90886 288.915 -6.73281 288.898 -6.54328C288.881 -6.35374 288.937 -6.16485 289.054 -6.01478C289.214 -5.83978 304.829 11.5572 307.481 14.4092C307.735 14.6473 307.937 14.936 308.073 15.2566C308.209 15.5773 308.277 15.9229 308.272 16.2712C308.133 17.0426 307.712 17.7348 307.091 18.2132C306.945 18.3382 292.347 30.8702 290.15 32.6132C290.124 32.6382 290.097 32.6632 290.07 32.6862C289.864 32.8645 289.626 33.0005 289.368 33.0866C289.109 33.1726 288.837 33.2069 288.565 33.1876C288.294 33.1683 288.029 33.0957 287.786 32.974C287.542 32.8523 287.325 32.6838 287.147 32.4782L287.087 32.4182L273.253 20.1542V22.1542L286.086 33.5192C286.426 33.8826 286.836 34.1743 287.291 34.3771C287.745 34.5799 288.236 34.6898 288.734 34.7002C289.602 34.6688 290.433 34.3385 291.086 33.7652C293.303 32.0072 307.471 19.8652 308.032 19.3652Z" fill="#5AB3B3" stroke="#5AB3B3" stroke-width="0.5"/>
<path d="M282.308 26.292C282.485 26.2932 282.657 26.2312 282.793 26.117L300.765 11.03C300.841 10.9665 300.903 10.8888 300.948 10.8013C300.994 10.7138 301.022 10.6181 301.03 10.5199C301.039 10.4216 301.028 10.3225 300.999 10.2285C300.969 10.1344 300.921 10.047 300.857 9.97145C300.794 9.89588 300.716 9.83353 300.629 9.78798C300.541 9.74243 300.446 9.71457 300.347 9.70598C300.249 9.69739 300.15 9.70824 300.056 9.73792C299.962 9.7676 299.875 9.81552 299.799 9.87895L281.808 24.966C281.689 25.066 281.604 25.2005 281.564 25.351C281.525 25.5015 281.533 25.6606 281.588 25.8061C281.643 25.9517 281.742 26.0766 281.871 26.1636C282 26.2507 282.152 26.2955 282.308 26.292Z" fill="#5AB3B3" stroke="#5AB3B3" stroke-width="0.5"/>
<path d="M288.404 25.3467C287.882 25.3475 287.373 25.5029 286.939 25.7933C286.506 26.0837 286.169 26.496 285.97 26.9782C285.771 27.4603 285.719 27.9907 285.821 28.5022C285.924 29.0136 286.175 29.4833 286.544 29.8518C286.914 30.2203 287.384 30.4711 287.895 30.5724C288.407 30.6738 288.937 30.6211 289.419 30.4212C289.901 30.2213 290.313 29.883 290.602 29.4491C290.892 29.0153 291.046 28.5053 291.046 27.9837V27.9787C291.045 27.6324 290.977 27.2895 290.844 26.9698C290.711 26.65 290.516 26.3596 290.27 26.1152C290.025 25.8708 289.734 25.6771 289.414 25.5452C289.093 25.4134 288.75 25.3459 288.404 25.3467ZM289.545 27.9887C289.544 28.2903 289.424 28.5793 289.21 28.7922C288.997 29.0051 288.707 29.1245 288.406 29.1242C288.104 29.1239 287.815 29.0038 287.602 28.7904C287.389 28.5771 287.269 28.2878 287.269 27.9862C287.269 27.6846 287.389 27.3953 287.602 27.1819C287.815 26.9686 288.104 26.8485 288.406 26.8482C288.707 26.8479 288.997 26.9673 289.21 27.1802C289.424 27.3931 289.544 27.6821 289.545 27.9837V27.9887Z" fill="#5AB3B3" stroke="#5AB3B3" stroke-width="0.5"/>
<path d="M314.764 21.6278C315.812 21.6912 316.863 21.7012 317.912 21.6578C319.028 21.6228 319.764 21.6028 320.09 21.8878C320.228 22.0094 320.406 22.0753 320.59 22.0728C320.691 22.0709 320.792 22.0487 320.884 22.0074C320.977 21.9662 321.061 21.9068 321.13 21.8328C321.259 21.6828 321.323 21.4877 321.308 21.2905C321.294 21.0932 321.201 20.9098 321.051 20.7808C320.285 20.1098 319.26 20.1408 317.843 20.1808C316.843 20.2241 315.842 20.2141 314.843 20.1508C312.19 19.9708 311.369 18.8738 311.343 18.8288C311.291 18.7437 311.223 18.6697 311.142 18.6111C311.062 18.5526 310.97 18.5107 310.873 18.4878C310.777 18.465 310.676 18.4616 310.578 18.478C310.479 18.4944 310.385 18.5301 310.301 18.5832C310.217 18.6363 310.144 18.7056 310.087 18.7871C310.029 18.8686 309.989 18.9607 309.968 19.058C309.946 19.1553 309.944 19.2559 309.962 19.3539C309.98 19.4519 310.018 19.5454 310.072 19.6288C310.182 19.7888 311.263 21.3848 314.766 21.6288" fill="#5AB3B3"/>
<path d="M314.764 21.6278C315.812 21.6912 316.863 21.7012 317.912 21.6578C319.028 21.6228 319.764 21.6028 320.09 21.8878C320.228 22.0094 320.406 22.0753 320.59 22.0728C320.691 22.0709 320.792 22.0487 320.884 22.0074C320.977 21.9662 321.061 21.9068 321.13 21.8328C321.259 21.6828 321.323 21.4877 321.308 21.2905C321.294 21.0932 321.201 20.9098 321.051 20.7808C320.285 20.1098 319.26 20.1408 317.843 20.1808C316.843 20.2241 315.842 20.2141 314.843 20.1508C312.19 19.9708 311.369 18.8738 311.343 18.8288C311.291 18.7437 311.223 18.6697 311.142 18.6111C311.062 18.5526 310.97 18.5107 310.873 18.4878C310.777 18.465 310.676 18.4616 310.578 18.478C310.479 18.4944 310.385 18.5301 310.301 18.5832C310.217 18.6363 310.144 18.7056 310.087 18.7871C310.029 18.8686 309.989 18.9607 309.968 19.058C309.946 19.1553 309.944 19.2559 309.962 19.3539C309.98 19.4519 310.018 19.5454 310.072 19.6288C310.182 19.7888 311.263 21.3848 314.766 21.6288" stroke="#5AB3B3" stroke-width="0.5"/>
<path d="M329.212 31.5471L329.18 31.5161C329.107 31.4469 329.022 31.393 328.928 31.3575C328.835 31.3219 328.735 31.3055 328.635 31.3091C328.534 31.3127 328.436 31.3363 328.345 31.3785C328.254 31.4208 328.173 31.4807 328.106 31.5549C328.038 31.6291 327.986 31.716 327.953 31.8106C327.92 31.9051 327.906 32.0053 327.912 32.1053C327.918 32.2053 327.944 32.3031 327.989 32.3928C328.033 32.4826 328.095 32.5626 328.171 32.6281C335.112 39.3391 345.632 49.5891 346.188 50.3001C346.528 50.9097 346.73 51.5871 346.777 52.2837C346.825 52.9803 346.717 53.6788 346.463 54.3291C345.893 55.3901 344.596 55.8761 342.594 55.7701C341.794 54.8701 340.194 53.1781 340.117 53.0981C339.98 52.9529 339.791 52.8679 339.592 52.8619C339.393 52.8559 339.199 52.9294 339.054 53.0661C338.909 53.2028 338.824 53.3916 338.818 53.5909C338.812 53.7903 338.885 53.9839 339.022 54.1291C339.041 54.1471 340.705 55.9051 341.476 56.7771C341.536 58.6701 341.112 59.9771 340.198 60.6561C338.817 61.6771 336.625 61.1011 335.998 60.9061L333.581 58.0691C333.516 57.9904 333.437 57.9255 333.347 57.8783C333.257 57.831 333.158 57.8024 333.056 57.794C332.955 57.7857 332.853 57.7978 332.756 57.8297C332.66 57.8616 332.57 57.9126 332.494 57.9797C332.417 58.0468 332.355 58.1285 332.311 58.2201C332.267 58.3117 332.241 58.4113 332.236 58.5129C332.231 58.6146 332.247 58.7162 332.282 58.8117C332.317 58.9073 332.37 58.9948 332.44 59.0691L334.84 61.8991C334.874 63.5801 334.472 64.7461 333.64 65.3451C332.264 66.3451 330.006 65.6851 329.44 65.4951L327.122 63.2771C326.976 63.1485 326.787 63.0813 326.593 63.0896C326.399 63.0979 326.215 63.181 326.081 63.3216C325.947 63.4621 325.873 63.649 325.874 63.8432C325.875 64.0374 325.951 64.2237 326.086 64.3631L327.752 65.9541C327.737 65.9934 327.725 66.0339 327.717 66.0751C327.732 66.7375 327.592 67.3942 327.306 67.9923C327.021 68.5904 326.599 69.113 326.075 69.5181C324.353 70.6041 321.796 69.6531 321.741 69.6531C321.649 69.6182 321.55 69.6019 321.452 69.605C321.353 69.6081 321.256 69.6306 321.166 69.6712C320.985 69.7533 320.843 69.9041 320.772 70.0906C320.702 70.277 320.709 70.4838 320.791 70.6654C320.873 70.8471 321.024 70.9887 321.21 71.0591C322.105 71.3785 323.047 71.5474 323.998 71.5591C325.011 71.5798 326.009 71.3128 326.876 70.7891C327.507 70.3541 328.036 69.786 328.424 69.1248C328.812 68.4636 329.05 67.7254 329.122 66.9621C329.95 67.2263 330.813 67.3675 331.682 67.3811C332.69 67.4155 333.683 67.1318 334.52 66.5701C335.11 66.0901 335.581 65.4798 335.895 64.7871C336.21 64.0945 336.359 63.3383 336.332 62.5781C336.912 62.708 337.504 62.7793 338.098 62.7911C339.169 62.8103 340.218 62.4858 341.091 61.8651C342.311 60.9541 342.959 59.4131 342.991 57.2791H343.063C345.931 57.2791 347.197 56.0931 347.778 55.0371C348.175 54.1312 348.345 53.1421 348.274 52.1557C348.202 51.1692 347.891 50.2151 347.367 49.3761C346.581 48.3651 330.987 33.2661 329.21 31.5441" fill="#5AB3B3"/>
<path d="M329.212 31.5471L329.18 31.5161C329.107 31.4469 329.022 31.393 328.928 31.3575C328.835 31.3219 328.735 31.3055 328.635 31.3091C328.534 31.3127 328.436 31.3363 328.345 31.3785C328.254 31.4208 328.173 31.4807 328.106 31.5549C328.038 31.6291 327.986 31.716 327.953 31.8106C327.92 31.9051 327.906 32.0053 327.912 32.1053C327.918 32.2053 327.944 32.3031 327.989 32.3928C328.033 32.4826 328.095 32.5626 328.171 32.6281C335.112 39.3391 345.632 49.5891 346.188 50.3001C346.528 50.9097 346.73 51.5871 346.777 52.2837C346.825 52.9803 346.717 53.6788 346.463 54.3291C345.893 55.3901 344.596 55.8761 342.594 55.7701C341.794 54.8701 340.194 53.1781 340.117 53.0981C339.98 52.9529 339.791 52.8679 339.592 52.8619C339.393 52.8559 339.199 52.9294 339.054 53.0661C338.909 53.2028 338.824 53.3916 338.818 53.5909C338.812 53.7903 338.885 53.9839 339.022 54.1291C339.041 54.1471 340.705 55.9051 341.476 56.7771C341.536 58.6701 341.112 59.9771 340.198 60.6561C338.817 61.6771 336.625 61.1011 335.998 60.9061L333.581 58.0691C333.516 57.9904 333.437 57.9255 333.347 57.8783C333.257 57.831 333.158 57.8024 333.056 57.794C332.955 57.7857 332.853 57.7978 332.756 57.8297C332.66 57.8616 332.57 57.9126 332.494 57.9797C332.417 58.0468 332.355 58.1285 332.311 58.2201C332.267 58.3117 332.241 58.4113 332.236 58.5129C332.231 58.6146 332.247 58.7162 332.282 58.8117C332.317 58.9073 332.37 58.9948 332.44 59.0691L334.84 61.8991C334.874 63.5801 334.472 64.7461 333.64 65.3451C332.264 66.3451 330.006 65.6851 329.44 65.4951L327.122 63.2771C326.976 63.1485 326.787 63.0813 326.593 63.0896C326.399 63.0979 326.215 63.181 326.081 63.3216C325.947 63.4621 325.873 63.649 325.874 63.8432C325.875 64.0374 325.951 64.2237 326.086 64.3631L327.752 65.9541C327.737 65.9934 327.725 66.0339 327.717 66.0751C327.732 66.7375 327.592 67.3942 327.306 67.9923C327.021 68.5904 326.599 69.113 326.075 69.5181C324.353 70.6041 321.796 69.6531 321.741 69.6531C321.649 69.6182 321.55 69.6019 321.452 69.605C321.353 69.6081 321.256 69.6306 321.166 69.6712C320.985 69.7533 320.843 69.9041 320.772 70.0906C320.702 70.277 320.709 70.4838 320.791 70.6654C320.873 70.8471 321.024 70.9887 321.21 71.0591C322.105 71.3785 323.047 71.5474 323.998 71.5591C325.011 71.5798 326.009 71.3128 326.876 70.7891C327.507 70.3541 328.036 69.786 328.424 69.1248C328.812 68.4636 329.05 67.7254 329.122 66.9621C329.95 67.2263 330.813 67.3675 331.682 67.3811C332.69 67.4155 333.683 67.1318 334.52 66.5701C335.11 66.0901 335.581 65.4798 335.895 64.7871C336.21 64.0945 336.359 63.3383 336.332 62.5781C336.912 62.708 337.504 62.7793 338.098 62.7911C339.169 62.8103 340.218 62.4858 341.091 61.8651C342.311 60.9541 342.959 59.4131 342.991 57.2791H343.063C345.931 57.2791 347.197 56.0931 347.778 55.0371C348.175 54.1312 348.345 53.1421 348.274 52.1557C348.202 51.1692 347.891 50.2151 347.367 49.3761C346.581 48.3651 330.987 33.2661 329.21 31.5441" stroke="#5AB3B3" stroke-width="0.5"/>
<path d="M296.775 41.8713C296.85 41.8076 296.912 41.7297 296.957 41.642C297.002 41.5544 297.03 41.4586 297.038 41.3604C297.046 41.2621 297.035 41.1632 297.004 41.0693C296.974 40.9755 296.926 40.8885 296.862 40.8133L292.093 35.1583C291.965 35.0067 291.781 34.9122 291.584 34.8953C291.386 34.8784 291.189 34.9406 291.037 35.0683L291.023 35.0793C290.874 35.2077 290.783 35.3899 290.768 35.5859C290.754 35.7819 290.818 35.9755 290.946 36.1243L295.716 41.7853C295.787 41.8685 295.875 41.9353 295.975 41.9811C296.074 42.0268 296.183 42.0504 296.292 42.0503C296.468 42.0516 296.638 41.9894 296.772 41.8753" fill="#5AB3B3"/>
<path d="M296.775 41.8713C296.85 41.8076 296.912 41.7297 296.957 41.642C297.002 41.5544 297.03 41.4586 297.038 41.3604C297.046 41.2621 297.035 41.1632 297.004 41.0693C296.974 40.9755 296.926 40.8885 296.862 40.8133L292.093 35.1583C291.965 35.0067 291.781 34.9122 291.584 34.8953C291.386 34.8784 291.189 34.9406 291.037 35.0683L291.023 35.0793C290.874 35.2077 290.783 35.3899 290.768 35.5859C290.754 35.7819 290.818 35.9755 290.946 36.1243L295.716 41.7853C295.787 41.8685 295.875 41.9353 295.975 41.9811C296.074 42.0268 296.183 42.0504 296.292 42.0503C296.468 42.0516 296.638 41.9894 296.772 41.8753" stroke="#5AB3B3" stroke-width="0.5"/>
<path d="M321.796 59.3149C321.446 58.8083 320.987 58.3865 320.453 58.0804C319.919 57.7743 319.323 57.5917 318.709 57.5459L319.964 56.5459C320.818 55.8617 321.368 54.8676 321.493 53.7801C321.617 52.6926 321.307 51.5998 320.63 50.7399L319.979 49.9189C319.382 49.1693 318.544 48.6499 317.607 48.4493C316.67 48.2488 315.692 48.3794 314.841 48.8189C314.953 47.7475 314.641 46.6748 313.973 45.8299L313.788 45.5999C313.104 44.744 312.109 44.1936 311.02 44.0688C309.931 43.944 308.837 44.255 307.977 44.9339L307.905 44.9909C307.919 44.2157 307.716 43.4519 307.317 42.7868C306.918 42.1217 306.341 41.5819 305.651 41.229C304.96 40.876 304.184 40.7242 303.412 40.7906C302.639 40.8571 301.901 41.1393 301.281 41.6049L297.802 44.3679C297.163 44.8766 296.688 45.5634 296.439 46.3416C296.189 47.1198 296.176 47.9544 296.401 48.74C296.626 49.5256 297.078 50.227 297.701 50.7556C298.324 51.2842 299.09 51.6163 299.902 51.7099C300.068 51.7306 300.235 51.7406 300.402 51.7399C300.478 51.7399 300.551 51.7239 300.627 51.7199C300.435 52.3579 300.4 53.0327 300.525 53.687C300.65 54.3414 300.93 54.9561 301.343 55.4789L301.528 55.7089C301.864 56.1345 302.281 56.489 302.756 56.7518C303.23 57.0146 303.752 57.1805 304.291 57.2399C304.457 57.2606 304.624 57.2706 304.791 57.2699C305.098 57.2651 305.403 57.2256 305.701 57.1519C305.567 57.7522 305.568 58.3748 305.705 58.9744C305.842 59.574 306.111 60.1355 306.493 60.6179L307.144 61.4389C307.481 61.8656 307.899 62.2212 308.374 62.4848C308.849 62.7485 309.372 62.9151 309.912 62.9749C310.078 62.9946 310.245 63.0026 310.412 62.9989C310.687 62.9958 310.962 62.9643 311.231 62.9049C311.024 63.4902 310.951 64.1148 311.02 64.7319C311.088 65.3491 311.295 65.9427 311.626 66.4684C311.956 66.9941 312.402 67.4381 312.928 67.7673C313.455 68.0964 314.049 68.3021 314.666 68.3689C314.832 68.3896 314.999 68.3996 315.166 68.3989C316.087 68.3883 316.977 68.0674 317.693 67.4879L321.172 64.7249C321.914 64.0518 322.386 63.1323 322.501 62.1372C322.615 61.1421 322.365 60.1392 321.796 59.3149ZM298.315 49.2599C297.879 48.7145 297.678 48.0183 297.755 47.3244C297.833 46.6306 298.183 45.9959 298.728 45.5599L302.228 42.7969C302.69 42.4294 303.264 42.2302 303.854 42.2319V42.2069C303.95 42.2156 304.046 42.2307 304.14 42.2519C304.651 42.3085 305.134 42.514 305.529 42.8427C305.924 43.1715 306.214 43.6091 306.362 44.1011C306.511 44.5932 306.511 45.118 306.364 45.6104C306.217 46.1029 305.928 46.5412 305.534 46.8709L302.008 49.6709C301.996 49.6799 301.985 49.6919 301.973 49.7019C301.427 50.123 300.737 50.3129 300.053 50.2306C299.368 50.1483 298.743 49.8004 298.312 49.2619M302.712 54.7809L302.532 54.5509C302.101 54.0024 301.904 53.3061 301.984 52.6133C302.064 51.9205 302.414 51.2872 302.958 50.8509L308.93 46.1149C309.201 45.8997 309.511 45.74 309.844 45.6448C310.176 45.5497 310.524 45.521 310.868 45.5605C311.212 45.6 311.544 45.7068 311.847 45.8749C312.149 46.0429 312.415 46.2689 312.63 46.5399L312.815 46.7699C313.03 47.0404 313.19 47.3508 313.284 47.6833C313.379 48.0158 313.407 48.3637 313.366 48.7069C313.286 49.3997 312.935 50.0326 312.39 50.4679L306.42 55.1989C305.872 55.6291 305.176 55.8261 304.484 55.7475C303.792 55.6689 303.158 55.321 302.72 54.7789M308.34 60.5089L307.689 59.6879C307.256 59.1406 307.057 58.4437 307.137 57.7501C307.216 57.0565 307.568 56.4228 308.114 55.9879L315.121 50.4269C315.584 50.0563 316.16 49.8552 316.753 49.8569C317.15 49.8564 317.541 49.9452 317.899 50.1168C318.257 50.2883 318.571 50.5382 318.819 50.8479L319.47 51.6689C319.9 52.2175 320.097 52.9137 320.017 53.6065C319.938 54.2992 319.588 54.9325 319.044 55.3689L312.035 60.9349C311.486 61.3641 310.79 61.56 310.098 61.4803C309.405 61.4006 308.772 61.0517 308.335 60.5089M320.246 63.5819L316.77 66.3449C316.499 66.5598 316.189 66.7193 315.856 66.8142C315.524 66.9092 315.176 66.9377 314.833 66.8982C314.489 66.8587 314.157 66.7519 313.855 66.5839C313.553 66.416 313.286 66.1902 313.071 65.9194C312.857 65.6486 312.697 65.3382 312.602 65.0058C312.507 64.6733 312.479 64.3255 312.518 63.9821C312.558 63.6386 312.665 63.3063 312.832 63.0042C313 62.702 313.226 62.4358 313.497 62.2209L316.997 59.4579C317.461 59.0889 318.037 58.8896 318.63 58.8929L318.61 58.8779C318.713 58.8752 318.815 58.8853 318.915 58.9079C319.433 58.9655 319.922 59.1759 320.32 59.5122C320.718 59.8486 321.007 60.2958 321.151 60.7969C321.294 61.298 321.285 61.8303 321.125 62.3263C320.964 62.8222 320.66 63.2593 320.251 63.5819" fill="#5AB3B3"/>
<path d="M298.315 49.2599C297.879 48.7145 297.678 48.0183 297.755 47.3244C297.833 46.6306 298.183 45.9959 298.728 45.5599L302.228 42.7969C302.69 42.4294 303.264 42.2302 303.854 42.2319V42.2069C303.95 42.2156 304.046 42.2307 304.14 42.2519C304.651 42.3085 305.134 42.514 305.529 42.8427C305.924 43.1715 306.214 43.6091 306.362 44.1011C306.511 44.5932 306.511 45.118 306.364 45.6104C306.217 46.1029 305.928 46.5412 305.534 46.8709L302.008 49.6709C301.996 49.6799 301.985 49.6919 301.973 49.7019C301.427 50.123 300.737 50.3129 300.053 50.2306C299.368 50.1483 298.743 49.8004 298.312 49.2619M302.712 54.7809L302.532 54.5509C302.101 54.0024 301.904 53.3061 301.984 52.6133C302.064 51.9205 302.414 51.2872 302.958 50.8509L308.93 46.1149C309.201 45.8997 309.511 45.74 309.844 45.6448C310.176 45.5497 310.524 45.521 310.868 45.5605C311.212 45.6 311.544 45.7068 311.847 45.8749C312.149 46.0429 312.415 46.2689 312.63 46.5399L312.815 46.7699C313.03 47.0404 313.19 47.3508 313.284 47.6833C313.379 48.0158 313.407 48.3637 313.366 48.7069C313.286 49.3997 312.935 50.0326 312.39 50.4679L306.42 55.1989C305.872 55.6291 305.176 55.8261 304.484 55.7475C303.792 55.6689 303.158 55.321 302.72 54.7789M308.34 60.5089L307.689 59.6879C307.256 59.1406 307.057 58.4437 307.137 57.7501C307.216 57.0565 307.568 56.4228 308.114 55.9879L315.121 50.4269C315.584 50.0563 316.16 49.8552 316.753 49.8569C317.15 49.8564 317.541 49.9452 317.899 50.1168C318.257 50.2883 318.571 50.5382 318.819 50.8479L319.47 51.6689C319.9 52.2175 320.097 52.9137 320.017 53.6065C319.938 54.2992 319.588 54.9325 319.044 55.3689L312.035 60.9349C311.486 61.3641 310.79 61.56 310.098 61.4803C309.405 61.4006 308.772 61.0517 308.335 60.5089M320.246 63.5819L316.77 66.3449C316.499 66.5598 316.189 66.7193 315.856 66.8142C315.524 66.9092 315.176 66.9377 314.833 66.8982C314.489 66.8587 314.157 66.7519 313.855 66.5839C313.553 66.416 313.286 66.1902 313.071 65.9194C312.857 65.6486 312.697 65.3382 312.602 65.0058C312.507 64.6733 312.479 64.3255 312.518 63.9821C312.558 63.6386 312.665 63.3063 312.832 63.0042C313 62.702 313.226 62.4358 313.497 62.2209L316.997 59.4579C317.461 59.0889 318.037 58.8896 318.63 58.8929L318.61 58.8779C318.713 58.8753 318.815 58.8853 318.915 58.9079C319.433 58.9655 319.922 59.1759 320.32 59.5122C320.718 59.8486 321.007 60.2958 321.151 60.7969C321.294 61.298 321.285 61.8303 321.125 62.3263C320.964 62.8222 320.66 63.2593 320.251 63.5819M321.796 59.3149C321.446 58.8083 320.987 58.3865 320.453 58.0804C319.919 57.7743 319.323 57.5917 318.709 57.5459L319.964 56.5459C320.818 55.8617 321.368 54.8676 321.493 53.7801C321.617 52.6926 321.307 51.5998 320.63 50.7399L319.979 49.9189C319.382 49.1693 318.544 48.6499 317.607 48.4493C316.67 48.2488 315.692 48.3794 314.841 48.8189C314.953 47.7475 314.641 46.6748 313.973 45.8299L313.788 45.5999C313.104 44.744 312.109 44.1936 311.02 44.0688C309.931 43.944 308.837 44.255 307.977 44.9339L307.905 44.9909C307.919 44.2157 307.716 43.4519 307.317 42.7868C306.918 42.1217 306.341 41.5819 305.651 41.229C304.96 40.876 304.184 40.7242 303.412 40.7906C302.639 40.8571 301.901 41.1393 301.281 41.6049L297.802 44.3679C297.163 44.8766 296.688 45.5634 296.439 46.3416C296.189 47.1198 296.176 47.9544 296.401 48.74C296.626 49.5256 297.078 50.227 297.701 50.7556C298.324 51.2842 299.09 51.6163 299.902 51.7099C300.068 51.7306 300.235 51.7406 300.402 51.7399C300.478 51.7399 300.551 51.7239 300.627 51.7199C300.435 52.3579 300.4 53.0327 300.525 53.687C300.65 54.3414 300.93 54.9561 301.343 55.4789L301.528 55.7089C301.864 56.1345 302.281 56.489 302.756 56.7518C303.23 57.0146 303.752 57.1805 304.291 57.2399C304.457 57.2606 304.624 57.2706 304.791 57.2699C305.098 57.2651 305.403 57.2256 305.701 57.1519C305.567 57.7522 305.568 58.3748 305.705 58.9744C305.842 59.574 306.111 60.1355 306.493 60.6179L307.144 61.4389C307.481 61.8656 307.899 62.2212 308.374 62.4848C308.849 62.7485 309.372 62.9151 309.912 62.9749C310.078 62.9946 310.245 63.0026 310.412 62.9989C310.687 62.9958 310.962 62.9643 311.231 62.9049C311.024 63.4902 310.951 64.1148 311.02 64.7319C311.088 65.3491 311.295 65.9427 311.626 66.4684C311.956 66.9941 312.402 67.4381 312.928 67.7673C313.455 68.0964 314.049 68.3021 314.666 68.3689C314.832 68.3896 314.999 68.3996 315.166 68.3989C316.087 68.3883 316.977 68.0674 317.693 67.4879L321.172 64.7249C321.914 64.0518 322.386 63.1323 322.501 62.1372C322.615 61.1421 322.365 60.1392 321.796 59.3149Z" stroke="#5AB3B3" stroke-width="0.5"/>
<path d="M356.929 34.8931L345.944 45.4031C345.834 45.505 345.757 45.6376 345.723 45.7836C345.689 45.9296 345.7 46.0825 345.754 46.2224C345.808 46.3623 345.902 46.4829 346.025 46.5686C346.148 46.6543 346.294 46.7012 346.444 46.7031C346.543 46.7056 346.641 46.6884 346.733 46.6523C346.825 46.6162 346.909 46.5621 346.98 46.4931L357.965 35.9831C358.1 35.8438 358.176 35.6575 358.177 35.4633C358.178 35.2691 358.104 35.0821 357.97 34.9416C357.836 34.8011 357.652 34.718 357.458 34.7097C357.264 34.7014 357.075 34.7686 356.929 34.8971" fill="#5AB3B3"/>
<path d="M356.929 34.8931L345.944 45.4031C345.834 45.505 345.757 45.6376 345.723 45.7836C345.689 45.9296 345.7 46.0825 345.754 46.2224C345.808 46.3623 345.902 46.4829 346.025 46.5686C346.148 46.6543 346.294 46.7012 346.444 46.7031C346.543 46.7056 346.641 46.6884 346.733 46.6523C346.825 46.6162 346.909 46.5621 346.98 46.4931L357.965 35.9831C358.1 35.8438 358.176 35.6575 358.177 35.4633C358.178 35.2691 358.104 35.0821 357.97 34.9416C357.836 34.8011 357.652 34.718 357.458 34.7097C357.264 34.7014 357.075 34.7686 356.929 34.8971" stroke="#5AB3B3" stroke-width="0.5"/>
<path d="M316.38 27.5876C316.32 27.7276 314.889 30.9656 316.415 33.1226C317.215 34.2746 318.677 34.8546 320.715 34.8546C321.055 34.8546 321.415 34.8396 321.766 34.8046C321.902 34.7938 322.031 34.7453 322.141 34.6646C324.081 33.273 325.921 31.7462 327.646 30.0956C327.785 29.954 327.863 29.7635 327.863 29.5651C327.863 29.3667 327.785 29.1762 327.646 29.0346L327.639 29.0286C327.498 28.8898 327.308 28.8125 327.111 28.8136C326.913 28.8147 326.724 28.8942 326.585 29.0346C324.968 30.5803 323.248 32.0133 321.435 33.3236C319.509 33.4586 318.222 33.1036 317.622 32.2576C316.806 31.1106 317.351 29.1346 317.682 28.3236C320.555 25.4236 324.073 22.1526 324.799 21.9726C325.525 21.7926 330.424 21.9476 333.668 22.0526C335.96 22.1276 337.942 22.1926 338.633 22.1526C339.198 22.1689 339.76 22.0603 340.279 21.8345C340.797 21.6088 341.26 21.2715 341.633 20.8466C341.747 20.6896 341.794 20.4943 341.765 20.3026C341.737 20.111 341.634 19.9382 341.479 19.8216C341.321 19.7044 341.124 19.653 340.929 19.6781C340.734 19.7033 340.556 19.8031 340.433 19.9566C340.188 20.1936 339.898 20.3784 339.579 20.4998C339.261 20.6212 338.921 20.6766 338.581 20.6626C337.951 20.6876 335.904 20.6226 333.737 20.5516C328.848 20.3966 325.319 20.3016 324.453 20.5166C323.036 20.8666 318.031 25.8716 316.53 27.3726C316.47 27.4368 316.42 27.5092 316.38 27.5876Z" fill="#5AB3B3" stroke="#5AB3B3" stroke-width="0.5"/>
<path d="M360.133 32.134C359.829 32.3561 359.463 32.4759 359.087 32.4759C358.711 32.4759 358.344 32.3561 358.041 32.134C354.728 29.256 346.05 21.674 345.259 20.793C344.772 20.252 345.294 19.051 345.538 18.621C351.364 11.474 360.238 0.703986 361.268 -0.242014C361.394 -0.313364 361.497 -0.41984 361.565 -0.548551C361.632 -0.677262 361.66 -0.822689 361.647 -0.967228C361.633 -1.11177 361.577 -1.24922 361.487 -1.36295C361.397 -1.47667 361.276 -1.5618 361.138 -1.60801C360.477 -1.81301 360.438 -1.81301 352.195 8.13599C348.286 12.87 344.368 17.675 344.327 17.725L344.267 17.805C343.707 18.726 343.046 20.605 344.127 21.805C345.148 22.926 356.599 32.866 357.1 33.316C357.683 33.7345 358.383 33.9584 359.1 33.956C359.781 33.9593 360.446 33.7476 361 33.351C361.58 32.937 365.813 29.172 370.983 24.533V22.525C365.248 27.677 360.692 31.733 360.133 32.134Z" fill="#5AB3B3" stroke="#5AB3B3" stroke-width="0.5"/>
<path d="M349.223 12.1763C349.077 12.3121 348.992 12.5001 348.985 12.6991C348.978 12.898 349.05 13.0916 349.186 13.2373L361.833 23.9973C361.971 24.1174 362.15 24.1816 362.333 24.1773L362.318 24.1973C362.472 24.1995 362.624 24.1542 362.751 24.0674C362.879 23.9806 362.977 23.8566 363.031 23.7122C363.086 23.5678 363.095 23.4101 363.057 23.2605C363.019 23.1109 362.935 22.9768 362.818 22.8763L350.167 12.1113C350.026 12.0122 349.855 11.9645 349.683 11.9764C349.512 11.9882 349.349 12.0588 349.223 12.1763Z" fill="#5AB3B3" stroke="#5AB3B3" stroke-width="0.5"/>
<path d="M351.709 17.5663C351.636 17.4972 351.551 17.4432 351.457 17.4072C351.364 17.3713 351.264 17.3541 351.164 17.3567C351.063 17.3593 350.965 17.3816 350.873 17.4224C350.782 17.4631 350.699 17.5215 350.63 17.5943L346.416 22.0333C346.311 22.1396 346.241 22.2745 346.213 22.421C346.185 22.5675 346.2 22.7189 346.258 22.8564C346.316 22.9939 346.413 23.1112 346.538 23.1935C346.662 23.2759 346.808 23.3196 346.957 23.3193C347.062 23.3219 347.166 23.3023 347.263 23.2618C347.359 23.2213 347.446 23.1608 347.518 23.0843L351.737 18.6453C351.806 18.5726 351.86 18.487 351.896 18.3935C351.932 18.2999 351.949 18.2002 351.947 18.1C351.944 17.9998 351.922 17.9011 351.881 17.8095C351.84 17.7179 351.782 17.6353 351.709 17.5663Z" fill="#5AB3B3" stroke="#5AB3B3" stroke-width="0.5"/>
<path d="M351.006 26.7568C351.107 26.759 351.208 26.7406 351.302 26.7028C351.395 26.665 351.481 26.6085 351.552 26.5368L355.771 22.0628C355.9 21.9168 355.967 21.7265 355.958 21.5321C355.949 21.3376 355.865 21.1543 355.723 21.0206C355.582 20.8869 355.394 20.8134 355.199 20.8155C355.005 20.8176 354.819 20.8951 354.68 21.0318L350.466 25.4858C350.364 25.592 350.295 25.7258 350.268 25.8707C350.242 26.0156 350.258 26.1652 350.316 26.3008C350.373 26.4364 350.47 26.552 350.593 26.6333C350.716 26.7145 350.86 26.7579 351.007 26.7578" fill="#5AB3B3"/>
<path d="M351.006 26.7568C351.107 26.759 351.208 26.7406 351.302 26.7028C351.395 26.665 351.481 26.6085 351.552 26.5368L355.771 22.0628C355.9 21.9168 355.967 21.7265 355.958 21.5321C355.949 21.3376 355.865 21.1543 355.723 21.0206C355.582 20.8869 355.394 20.8134 355.199 20.8155C355.005 20.8176 354.819 20.8951 354.68 21.0318L350.466 25.4858C350.364 25.592 350.295 25.7258 350.268 25.8707C350.242 26.0156 350.258 26.1652 350.316 26.3008C350.373 26.4364 350.47 26.552 350.593 26.6333C350.716 26.7145 350.86 26.7579 351.007 26.7578" stroke="#5AB3B3" stroke-width="0.5"/>
<path d="M355.169 29.6287C355.276 29.6308 355.383 29.6099 355.481 29.5675C355.58 29.5251 355.668 29.4621 355.74 29.3827L359.94 24.9587C360.066 24.8128 360.131 24.624 360.122 24.4314C360.112 24.2388 360.029 24.0572 359.89 23.9241C359.75 23.7911 359.565 23.7169 359.372 23.7168C359.179 23.7167 358.994 23.7908 358.854 23.9237L354.636 28.3627C354.499 28.5075 354.426 28.7005 354.431 28.8994C354.437 29.0984 354.521 29.287 354.666 29.4237C354.801 29.5529 354.979 29.6262 355.166 29.6287" fill="#5AB3B3"/>
<path d="M355.169 29.6287C355.276 29.6308 355.383 29.6099 355.481 29.5675C355.58 29.5251 355.668 29.4621 355.74 29.3827L359.94 24.9587C360.066 24.8128 360.131 24.624 360.122 24.4314C360.112 24.2388 360.029 24.0572 359.89 23.9241C359.75 23.7911 359.565 23.7169 359.372 23.7168C359.179 23.7167 358.994 23.7908 358.854 23.9237L354.636 28.3627C354.499 28.5075 354.426 28.7005 354.431 28.8994C354.437 29.0984 354.521 29.287 354.666 29.4237C354.801 29.5529 354.979 29.6262 355.166 29.6287" stroke="#5AB3B3" stroke-width="0.5"/>
<path d="M420.762 142.88C423.26 139.476 427.856 130.852 431.433 129.588C433.738 128.773 433.203 136.789 433.258 138.314C433.375 144.213 433.05 150.113 432.286 155.963C431.084 166.547 426.714 176.032 420.651 185.128C417.534 189.809 413.859 194.555 408.71 197.535C406.34 198.906 405.917 199.268 403.573 200.455C400.843 201.836 401.219 205.432 400.025 208.098C398.368 211.796 385.286 328.999 387.143 347.269C387.167 347.44 387.154 347.613 387.106 347.778C387.058 347.943 386.975 348.097 386.864 348.228C386.753 348.359 386.615 348.466 386.461 348.54C386.306 348.615 386.137 348.656 385.965 348.661C385.793 348.667 385.622 348.635 385.462 348.57C385.303 348.505 385.16 348.407 385.041 348.282C384.922 348.158 384.831 348.01 384.773 347.848C384.715 347.686 384.692 347.514 384.705 347.342C383.869 336.855 388.224 264.053 390.647 240.226C393.071 216.398 395.579 195.349 398.315 187.069C401.638 177.028 407.743 164.916 412.838 155.521C415.188 151.132 417.835 146.908 420.762 142.88Z" fill="#BFE2E2"/>
<path d="M323.826 279.124C316.715 274.747 333.453 293.298 339.909 297.697C341.253 298.739 342.942 299.236 344.636 299.087C346.331 298.938 347.907 298.155 349.049 296.894C350.429 298.314 351.725 299.801 352.965 301.058C356.743 304.876 360.324 308.796 363.757 312.815C370.887 321.167 377.057 330.033 383.488 338.729C389.835 347.309 396.134 355.935 401.924 364.757C406.826 372.222 413.321 380.997 415.202 389.312C412.171 371.635 402.433 354.892 391.002 339.619C378.473 322.845 364.382 307.297 348.918 293.183C350.659 279.741 327.132 281.157 323.826 279.124Z" fill="#BFE2E2"/>
<path d="M321.686 232.212C325.432 232.753 331.785 240.303 334.956 243.149C338.68 246.526 342.176 250.146 345.42 253.985C352.413 262.157 358.69 270.916 364.18 280.164C373.024 294.966 380.231 310.687 385.674 327.048C388.941 337.154 391.32 347.526 392.784 358.046C393.068 360.014 395.848 375.17 392.625 375.694C389.726 376.166 390.207 364.198 390.01 362.583C387.781 344.319 382.399 326.662 375.178 309.626C373.604 305.915 372.104 301.354 369.681 298.051C367.936 295.67 369.613 296.464 366.664 295.643C364.132 294.937 361.284 295.231 358.686 294.351C353.041 292.439 348.436 288.509 344.38 284.529C336.5 276.803 330.175 268.361 326.676 258.226C324.648 252.65 323.032 246.932 321.843 241.118C321.56 239.613 319.273 231.864 321.686 232.212Z" fill="#BFE2E2"/>
<path d="M354.785 71.4453C366.708 94.9501 375.402 119.957 380.633 145.789C383.653 161.204 385.284 176.917 386.904 192.512C389.41 216.658 391.663 240.784 390.598 265.081C389.536 289.513 389.381 317.78 378.457 340.544C385.094 317.085 383.461 291.437 385.072 267.439C385.841 255.982 385.94 244.585 385.728 233.12C385.523 221.997 384.5 210.864 383.619 199.777C383.189 194.377 382.721 188.98 382.215 183.587C382.066 181.978 382.398 177.262 381.413 176.092C380.429 174.921 374.87 174.036 373.188 173.098C369.826 171.149 366.734 168.767 363.99 166.015C358.835 160.775 354.514 154.775 351.178 148.224C343.554 133.711 341.614 116.564 343.358 100.576C343.697 97.4715 352.38 64.438 350.25 63.8043C350.395 63.6735 350.533 63.5371 350.664 63.394C352.063 66.0679 353.428 68.755 354.785 71.4453Z" fill="#BFE2E2"/>
<path d="M473.765 166.675C473.971 166.38 475.309 164.33 474.604 164.482C476.039 164.171 472.696 166.759 476.24 165.119C474.585 166.667 475.637 168.563 475.73 170.564C475.79 173.818 475.495 177.069 474.853 180.259C474.01 185.339 472.543 190.296 470.485 195.016C465.591 205.917 457.863 215.306 448.106 222.205C443.297 225.522 438.513 226.762 432.954 228.406C429.442 229.445 429.22 231.145 427.45 234.382C423.765 241.123 420.149 247.841 416.934 254.787C413.096 263.083 409.378 271.385 405.892 279.813C394.15 308.197 384.809 337.51 380.419 367.661C379.67 350.01 383.459 331.672 388.463 314.647C392.264 302.26 396.862 290.132 402.23 278.34C403.5 275.458 405.447 271.739 405.919 268.59C406.25 266.383 404.93 264.318 404.28 262.029C401.832 252.857 401.458 243.255 403.183 233.92C404.986 223.873 411.045 219.028 421.522 217.247C425.353 216.595 430.253 216.613 433.731 214.975C437.519 213.192 438.916 207.72 440.981 204.166C446.567 194.456 453.261 185.427 460.93 177.261C463.084 175 465.396 172.894 467.849 170.96C469.406 169.729 472.728 168.162 473.765 166.675Z" fill="#BFE2E2"/>
<path d="M381.575 320.037C381.575 320.037 385.674 319.264 385.657 318.962C383.51 284.898 371.94 201.5 353.429 187.177C326.944 166.686 311.602 162.368 311.602 162.368C311.602 162.368 322.897 194.802 342.832 213.442C362.768 232.082 367.146 237.832 371.379 239.164C374.042 246.613 381.575 320.037 381.575 320.037Z" fill="#BFE2E2"/>
</g>
</g>
<defs>
<clipPath id="clip0_337_16977">
<rect width="400" height="320" fill="white"/>
</clipPath>
</defs>
</svg>
