<svg xmlns="http://www.w3.org/2000/svg" width="192.674" height="192.674" viewBox="0 0 192.674 192.674"><g transform="translate(-56 -947.204)"><circle cx="96.337" cy="96.337" r="96.337" transform="translate(56 947.204)" fill="none"/><g transform="translate(-46 -220.854)"><g transform="translate(110.182 1221.276)"><path d="M32.735,16.367A16.367,16.367,0,1,1,16.367,0,16.367,16.367,0,0,1,32.735,16.367" transform="matrix(-0.777, 0.629, -0.629, -0.777, 46.04, 25.44)" fill="#ffd964"/><path d="M16.367,35.235A18.863,18.863,0,0,1,3.026,3.026,18.868,18.868,0,1,1,23.712,33.751,18.753,18.753,0,0,1,16.367,35.235Zm0-32.735A13.868,13.868,0,0,0,6.561,26.173,13.868,13.868,0,0,0,26.173,6.561,13.777,13.777,0,0,0,16.367,2.5Z" transform="matrix(-0.777, 0.629, -0.629, -0.777, 46.04, 25.44)" fill="#ffd964"/><path d="M12.531,13.692A3.956,3.956,0,0,1,11.1,16.881a7.132,7.132,0,0,1-4.019,1.442v2.559H5.367V18.373A13.877,13.877,0,0,1,.025,17.3V14a14.381,14.381,0,0,0,2.615.949,13.99,13.99,0,0,0,2.727.487V11.57l-.836-.325A9.334,9.334,0,0,1,1.03,9.13,4.066,4.066,0,0,1,0,6.3,3.688,3.688,0,0,1,1.417,3.326,7.2,7.2,0,0,1,5.367,1.91V0h1.71V1.86a14.171,14.171,0,0,1,5.167,1.148L11.071,5.929a13.492,13.492,0,0,0-3.994-.974V8.637a19.2,19.2,0,0,1,3.464,1.623,4.738,4.738,0,0,1,1.51,1.51A3.746,3.746,0,0,1,12.531,13.692Zm-3.757.187a1.122,1.122,0,0,0-.424-.886,5.565,5.565,0,0,0-1.273-.749v3.108Q8.774,15.065,8.774,13.879ZM3.757,6.3a1.184,1.184,0,0,0,.381.9,4.52,4.52,0,0,0,1.229.73V5.005Q3.757,5.242,3.757,6.3Z" transform="matrix(1, -0.017, 0.017, 1, 17.231, 12.69)" fill="#313e58"/></g><g transform="translate(174.018 1173.058)"><path d="M32.735,16.367A16.367,16.367,0,1,1,16.367,0,16.367,16.367,0,0,1,32.735,16.367" transform="matrix(-0.777, 0.629, -0.629, -0.777, 46.04, 25.44)" fill="#eea966"/><path d="M16.367,35.235A18.863,18.863,0,0,1,3.026,3.026,18.868,18.868,0,1,1,23.712,33.751,18.753,18.753,0,0,1,16.367,35.235Zm0-32.735A13.868,13.868,0,0,0,6.561,26.173,13.868,13.868,0,0,0,26.173,6.561,13.777,13.777,0,0,0,16.367,2.5Z" transform="matrix(-0.777, 0.629, -0.629, -0.777, 46.04, 25.44)" fill="#eea966"/><path d="M12.531,13.692A3.956,3.956,0,0,1,11.1,16.881a7.132,7.132,0,0,1-4.019,1.442v2.559H5.367V18.373A13.877,13.877,0,0,1,.025,17.3V14a14.381,14.381,0,0,0,2.615.949,13.99,13.99,0,0,0,2.727.487V11.57l-.836-.325A9.334,9.334,0,0,1,1.03,9.13,4.066,4.066,0,0,1,0,6.3,3.688,3.688,0,0,1,1.417,3.326,7.2,7.2,0,0,1,5.367,1.91V0h1.71V1.86a14.171,14.171,0,0,1,5.167,1.148L11.071,5.929a13.492,13.492,0,0,0-3.994-.974V8.637a19.2,19.2,0,0,1,3.464,1.623,4.738,4.738,0,0,1,1.51,1.51A3.746,3.746,0,0,1,12.531,13.692Zm-3.757.187a1.122,1.122,0,0,0-.424-.886,5.565,5.565,0,0,0-1.273-.749v3.108Q8.774,15.065,8.774,13.879ZM3.757,6.3a1.184,1.184,0,0,0,.381.9,4.52,4.52,0,0,0,1.229.73V5.005Q3.757,5.242,3.757,6.3Z" transform="matrix(1, -0.017, 0.017, 1, 17.231, 12.69)" fill="#313e58"/></g><g transform="translate(238.603 1217.515)"><path d="M32.735,16.367A16.367,16.367,0,1,1,16.367,0,16.367,16.367,0,0,1,32.735,16.367" transform="matrix(-0.777, 0.629, -0.629, -0.777, 46.04, 25.44)" fill="#b1a8e3"/><path d="M16.367,35.235A18.863,18.863,0,0,1,3.026,3.026,18.868,18.868,0,1,1,23.712,33.751,18.753,18.753,0,0,1,16.367,35.235Zm0-32.735A13.868,13.868,0,0,0,6.561,26.173,13.868,13.868,0,0,0,26.173,6.561,13.777,13.777,0,0,0,16.367,2.5Z" transform="matrix(-0.777, 0.629, -0.629, -0.777, 46.04, 25.44)" fill="#b1a8e3"/><path d="M12.531,13.692A3.956,3.956,0,0,1,11.1,16.881a7.132,7.132,0,0,1-4.019,1.442v2.559H5.367V18.373A13.877,13.877,0,0,1,.025,17.3V14a14.381,14.381,0,0,0,2.615.949,13.99,13.99,0,0,0,2.727.487V11.57l-.836-.325A9.334,9.334,0,0,1,1.03,9.13,4.066,4.066,0,0,1,0,6.3,3.688,3.688,0,0,1,1.417,3.326,7.2,7.2,0,0,1,5.367,1.91V0h1.71V1.86a14.171,14.171,0,0,1,5.167,1.148L11.071,5.929a13.492,13.492,0,0,0-3.994-.974V8.637a19.2,19.2,0,0,1,3.464,1.623,4.738,4.738,0,0,1,1.51,1.51A3.746,3.746,0,0,1,12.531,13.692Zm-3.757.187a1.122,1.122,0,0,0-.424-.886,5.565,5.565,0,0,0-1.273-.749v3.108Q8.774,15.065,8.774,13.879ZM3.757,6.3a1.184,1.184,0,0,0,.381.9,4.52,4.52,0,0,0,1.229.73V5.005Q3.757,5.242,3.757,6.3Z" transform="matrix(1, -0.017, 0.017, 1, 17.231, 12.69)" fill="#313e58"/></g><g transform="translate(214.894 1294.51)"><path d="M32.735,16.367A16.367,16.367,0,1,1,16.367,0,16.367,16.367,0,0,1,32.735,16.367" transform="matrix(-0.777, 0.629, -0.629, -0.777, 46.04, 25.44)" fill="#96b7df"/><path d="M16.367,35.235A18.863,18.863,0,0,1,3.026,3.026,18.868,18.868,0,1,1,23.712,33.751,18.753,18.753,0,0,1,16.367,35.235Zm0-32.735A13.868,13.868,0,0,0,6.561,26.173,13.868,13.868,0,0,0,26.173,6.561,13.777,13.777,0,0,0,16.367,2.5Z" transform="matrix(-0.777, 0.629, -0.629, -0.777, 46.04, 25.44)" fill="#96b7df"/><path d="M12.531,13.692A3.956,3.956,0,0,1,11.1,16.881a7.132,7.132,0,0,1-4.019,1.442v2.559H5.367V18.373A13.877,13.877,0,0,1,.025,17.3V14a14.381,14.381,0,0,0,2.615.949,13.99,13.99,0,0,0,2.727.487V11.57l-.836-.325A9.334,9.334,0,0,1,1.03,9.13,4.066,4.066,0,0,1,0,6.3,3.688,3.688,0,0,1,1.417,3.326,7.2,7.2,0,0,1,5.367,1.91V0h1.71V1.86a14.171,14.171,0,0,1,5.167,1.148L11.071,5.929a13.492,13.492,0,0,0-3.994-.974V8.637a19.2,19.2,0,0,1,3.464,1.623,4.738,4.738,0,0,1,1.51,1.51A3.746,3.746,0,0,1,12.531,13.692Zm-3.757.187a1.122,1.122,0,0,0-.424-.886,5.565,5.565,0,0,0-1.273-.749v3.108Q8.774,15.065,8.774,13.879ZM3.757,6.3a1.184,1.184,0,0,0,.381.9,4.52,4.52,0,0,0,1.229.73V5.005Q3.757,5.242,3.757,6.3Z" transform="matrix(1, -0.017, 0.017, 1, 17.231, 12.69)" fill="#313e58"/></g><g transform="translate(134.79 1296.274)"><path d="M32.735,16.367A16.367,16.367,0,1,1,16.367,0,16.367,16.367,0,0,1,32.735,16.367" transform="matrix(-0.777, 0.629, -0.629, -0.777, 46.04, 25.44)" fill="#85cb85"/><path d="M16.367,35.235A18.863,18.863,0,0,1,3.026,3.026,18.868,18.868,0,1,1,23.712,33.751,18.753,18.753,0,0,1,16.367,35.235Zm0-32.735A13.868,13.868,0,0,0,6.561,26.173,13.868,13.868,0,0,0,26.173,6.561,13.777,13.777,0,0,0,16.367,2.5Z" transform="matrix(-0.777, 0.629, -0.629, -0.777, 46.04, 25.44)" fill="#85cb85"/><path d="M12.531,13.692A3.956,3.956,0,0,1,11.1,16.881a7.132,7.132,0,0,1-4.019,1.442v2.559H5.367V18.373A13.877,13.877,0,0,1,.025,17.3V14a14.381,14.381,0,0,0,2.615.949,13.99,13.99,0,0,0,2.727.487V11.57l-.836-.325A9.334,9.334,0,0,1,1.03,9.13,4.066,4.066,0,0,1,0,6.3,3.688,3.688,0,0,1,1.417,3.326,7.2,7.2,0,0,1,5.367,1.91V0h1.71V1.86a14.171,14.171,0,0,1,5.167,1.148L11.071,5.929a13.492,13.492,0,0,0-3.994-.974V8.637a19.2,19.2,0,0,1,3.464,1.623,4.738,4.738,0,0,1,1.51,1.51A3.746,3.746,0,0,1,12.531,13.692Zm-3.757.187a1.122,1.122,0,0,0-.424-.886,5.565,5.565,0,0,0-1.273-.749v3.108Q8.774,15.065,8.774,13.879ZM3.757,6.3a1.184,1.184,0,0,0,.381.9,4.52,4.52,0,0,0,1.229.73V5.005Q3.757,5.242,3.757,6.3Z" transform="matrix(1, -0.017, 0.017, 1, 17.231, 12.69)" fill="#313e58"/></g><path d="M0,0H0L3.788,1.231Z" transform="matrix(0.485, 0.875, -0.875, 0.485, 203.445, 1211.312)" fill="#fbb040"/><rect height="3.975" transform="matrix(0.485, 0.875, -0.875, 0.485, 142.843, 1244.297)" fill="#fbb040"/><path d="M2.341,3.223h0L0,0Z" transform="matrix(0.485, 0.875, -0.875, 0.485, 153.454, 1312.848)" fill="#fbb040"/><path d="M0,1.23,3.784,0,0,1.229Z" transform="matrix(0.485, 0.875, -0.875, 0.485, 221.756, 1323.445)" fill="#fbb040"/><path d="M15.3,0,11.221,1.325a57.981,57.981,0,0,1-9.4,30.62l-.941-1.3L0,36.789l5.454.151L4.37,35.45A61.956,61.956,0,0,0,15.3,0Z" transform="matrix(-0.777, 0.629, -0.629, -0.777, 147.768, 1296.845)" fill="#313e58"/><path d="M15.3-.5a.5.5,0,0,1,.293.095A.5.5,0,0,1,15.8,0,62.4,62.4,0,0,1,4.982,35.441l.876,1.206a.5.5,0,0,1-.418.794l-5.454-.151a.5.5,0,0,1-.369-.178.5.5,0,0,1-.113-.393l.883-6.139a.5.5,0,0,1,.9-.223l.511.7a57.616,57.616,0,0,0,6.4-13.9A57.673,57.673,0,0,0,10.721,1.316.5.5,0,0,1,11.066.85L15.144-.476A.5.5,0,0,1,15.3-.5ZM4.452,36.412l-.486-.669a.5.5,0,0,1-.008-.577A61.4,61.4,0,0,0,14.8.689l-3.085,1a58.6,58.6,0,0,1-9.47,30.526.5.5,0,0,1-.824.021l-.217-.3L.575,36.305Z" transform="matrix(-0.777, 0.629, -0.629, -0.777, 147.768, 1296.845)" fill="#313e58"/><path d="M39.357,4.742,36.834,1.269a57.973,57.973,0,0,1-31.772.176L6.112,0,0,1.057,1,4.438l-.014.019L1,4.465l.538,1.827.984-1.354a62.076,62.076,0,0,0,18.09,2.717A62.141,62.141,0,0,0,39.357,4.742Z" transform="matrix(-0.777, 0.629, -0.629, -0.777, 172.291, 1198.139)" fill="#313e58"/><path d="M20.615,8.154A62.549,62.549,0,0,1,2.721,5.519L1.946,6.585a.5.5,0,0,1-.884-.153l-.5-1.707a.5.5,0,0,1-.078-.263L-.48,1.2A.5.5,0,0,1-.425.793.5.5,0,0,1-.085.565L6.027-.493a.5.5,0,0,1,.51.228.5.5,0,0,1-.02.558l-.624.858A57.741,57.741,0,0,0,20.649,3.077,57.533,57.533,0,0,0,36.694.788a.5.5,0,0,1,.544.186l2.523,3.473a.5.5,0,0,1-.254.771A62.624,62.624,0,0,1,20.615,8.154ZM2.525,4.437a.5.5,0,0,1,.146.022A61.584,61.584,0,0,0,20.615,7.154,61.57,61.57,0,0,0,38.542,4.471L36.635,1.846A58.523,58.523,0,0,1,20.649,4.077,58.768,58.768,0,0,1,4.928,1.927a.5.5,0,0,1-.271-.776L4.983.7.638,1.454,1.475,4.3l0,.007.006.019.251.852.387-.532A.5.5,0,0,1,2.525,4.437Z" transform="matrix(-0.777, 0.629, -0.629, -0.777, 172.291, 1198.139)" fill="#313e58"/><path d="M16.238,35.5A57.977,57.977,0,0,1,5.772,4.959l1.623.528L4.5,0,0,3.083l1.654.538a61.965,61.965,0,0,0,12.066,35.34Z" transform="matrix(-0.777, 0.629, -0.629, -0.777, 256.483, 1215.194)" fill="#313e58"/><path d="M13.719,39.461a.5.5,0,0,1-.4-.2A62.389,62.389,0,0,1,1.163,3.987L-.155,3.559a.5.5,0,0,1-.34-.4.5.5,0,0,1,.212-.484l4.5-3.083a.5.5,0,0,1,.4-.073.5.5,0,0,1,.322.252L7.837,5.253a.5.5,0,0,1-.6.709l-.929-.3A57.58,57.58,0,0,0,16.647,35.208a.5.5,0,0,1,0,.581l-2.518,3.466A.5.5,0,0,1,13.719,39.461ZM1.12,2.922l.688.224a.5.5,0,0,1,.345.463,61.39,61.39,0,0,0,11.566,34.5l1.9-2.622A58.583,58.583,0,0,1,5.272,4.983a.5.5,0,0,1,.654-.5l.452.147L4.321.73Z" transform="matrix(-0.777, 0.629, -0.629, -0.777, 256.483, 1215.194)" fill="#313e58"/><path d="M29.494,0V1.805A61.949,61.949,0,0,0,0,23.912l4.083,1.326a57.969,57.969,0,0,1,25.411-19.1V7.776l4.324-4.448Z" transform="matrix(-0.777, 0.629, -0.629, -0.777, 285.707, 1283.169)" fill="#313e58"/><path d="M29.494-.5a.5.5,0,0,1,.305.1l4.324,3.327a.5.5,0,0,1,.054.745L29.852,8.124a.5.5,0,0,1-.859-.348V6.87A57.461,57.461,0,0,0,4.481,25.541a.5.5,0,0,1-.553.173L-.155,24.388a.5.5,0,0,1-.321-.321.5.5,0,0,1,.07-.448,62.4,62.4,0,0,1,29.4-22.165V0a.5.5,0,0,1,.279-.449A.5.5,0,0,1,29.494-.5Zm3.574,3.881L29.994,1.016v.79a.5.5,0,0,1-.332.471A61.4,61.4,0,0,0,.812,23.65l3.089,1A58.465,58.465,0,0,1,29.314,5.67a.5.5,0,0,1,.68.467v.408Z" transform="matrix(-0.777, 0.629, -0.629, -0.777, 285.707, 1283.169)" fill="#313e58"/><path d="M30.1,21.295A61.952,61.952,0,0,0,0,0V4.292A57.963,57.963,0,0,1,25.984,22.633l-1.484.482h0l5.566,2.737,1.829-5.14Z" transform="matrix(-0.777, 0.629, -0.629, -0.777, 218.046, 1336.549)" fill="#313e58"/><path d="M30.067,26.352a.5.5,0,0,1-.221-.051l-5.557-2.733a.5.5,0,0,1,.056-.929l.789-.256A57.615,57.615,0,0,0,14,12.061,57.638,57.638,0,0,0-.166,4.764.5.5,0,0,1-.5,4.292V0A.5.5,0,0,1-.294-.4.5.5,0,0,1,.155-.475,62.407,62.407,0,0,1,30.284,20.71l1.457-.473a.5.5,0,0,1,.626.643l-1.829,5.14a.5.5,0,0,1-.471.332Zm-4.24-3.142,3.957,1.946,1.3-3.654-.826.268a.5.5,0,0,1-.551-.171A61.407,61.407,0,0,0,.5.692V3.939a58.626,58.626,0,0,1,14.072,7.3,58.641,58.641,0,0,1,11.8,11.075.5.5,0,0,1-.235.79Z" transform="matrix(-0.777, 0.629, -0.629, -0.777, 218.046, 1336.549)" fill="#313e58"/><g transform="translate(160.59 1238.136)"><rect width="71" height="48" transform="translate(2.41 2.864)" fill="#acb1bc"/><rect width="71" height="49" transform="translate(0.41 -0.136)" fill="#e4e6ea"/><path d="M53.553,1H0A1,1,0,0,1-1,0,1,1,0,0,1,0-1H53.553a1,1,0,0,1,1,1A1,1,0,0,1,53.553,1Z" transform="translate(8.671 6.874)" fill="#7a8293"/><path d="M53.553,1H0A1,1,0,0,1-1,0,1,1,0,0,1,0-1H53.553a1,1,0,0,1,1,1A1,1,0,0,1,53.553,1Z" transform="translate(8.671 14.809)" fill="#7a8293"/><path d="M53.553,1H0A1,1,0,0,1-1,0,1,1,0,0,1,0-1H53.553a1,1,0,0,1,1,1A1,1,0,0,1,53.553,1Z" transform="translate(8.671 22.742)" fill="#7a8293"/><path d="M53.553,1H0A1,1,0,0,1-1,0,1,1,0,0,1,0-1H53.553a1,1,0,0,1,1,1A1,1,0,0,1,53.553,1Z" transform="translate(8.671 30.677)" fill="#7a8293"/><path d="M53.553,1H0A1,1,0,0,1-1,0,1,1,0,0,1,0-1H53.553a1,1,0,0,1,1,1A1,1,0,0,1,53.553,1Z" transform="translate(8.671 35.635)" fill="#7a8293"/><path d="M53.553,1H0A1,1,0,0,1-1,0,1,1,0,0,1,0-1H53.553a1,1,0,0,1,1,1A1,1,0,0,1,53.553,1Z" transform="translate(8.671 40.594)" fill="#7a8293"/><path d="M0,24.8a1,1,0,0,1-1-1V0A1,1,0,0,1,0-1,1,1,0,0,1,1,0V23.8A1,1,0,0,1,0,24.8Z" transform="translate(20.571 6.874)" fill="#7a8293"/><path d="M0,24.8a1,1,0,0,1-1-1V0A1,1,0,0,1,0-1,1,1,0,0,1,1,0V23.8A1,1,0,0,1,0,24.8Z" transform="translate(8.671 6.874)" fill="#7a8293"/><path d="M0,24.8a1,1,0,0,1-1-1V0A1,1,0,0,1,0-1,1,1,0,0,1,1,0V23.8A1,1,0,0,1,0,24.8Z" transform="translate(34.562 6.874)" fill="#7a8293"/><path d="M0,24.8a1,1,0,0,1-1-1V0A1,1,0,0,1,0-1,1,1,0,0,1,1,0V23.8A1,1,0,0,1,0,24.8Z" transform="translate(48.552 6.874)" fill="#7a8293"/><path d="M0,24.8a1,1,0,0,1-1-1V0A1,1,0,0,1,0-1,1,1,0,0,1,1,0V23.8A1,1,0,0,1,0,24.8Z" transform="translate(62.544 6.874)" fill="#7a8293"/></g></g></g></svg>