<svg xmlns="http://www.w3.org/2000/svg" width="192.674" height="192.674" viewBox="0 0 192.674 192.674"><g transform="translate(-1069 -704)"><g transform="translate(-80.809 327.035)"><circle cx="96.337" cy="96.337" r="96.337" transform="translate(1149.809 376.965)" fill="none"/><path d="M9.957,114.448S.4,115.616.282,105.766C.127,93,0,26.363,0,26.363s1.021-9.447,8.936-9.7,23.4,0,23.4,0l4.447,9.447H112.85s8.426-1.532,9.192,8.936-10.468,75.319-10.468,75.319Z" transform="translate(1185 417.279)" fill="#7468b4"/><rect width="131.601" height="114.491" transform="translate(1186 406)" fill="none"/><rect width="131.601" height="114.491" transform="translate(1186 406)" fill="none"/><g transform="translate(152.479 -278.259) rotate(14)"><path d="M96.182,0c-.094,0-.234.094-.423.281L93.508,2.533a.7.7,0,0,1-1.126,0L90.132.281a.7.7,0,0,0-1.126,0L86.755,2.533a.7.7,0,0,1-1.125,0L83.378.281a.7.7,0,0,0-1.125,0L80,2.533a.7.7,0,0,1-1.126,0L76.625.281a.706.706,0,0,0-1.127,0L73.247,2.533a.7.7,0,0,1-1.126,0L69.87.281a.7.7,0,0,0-1.125,0L66.494,2.533a.7.7,0,0,1-1.126,0L63.118.281a.7.7,0,0,0-1.126,0L59.741,2.533a.7.7,0,0,1-1.126,0L56.364.281Q56.083,0,55.942,0H55.8V72.974l.141.057q.141.056.422-.226l2.251-2.251a.7.7,0,0,1,1.126,0l2.251,2.251a.7.7,0,0,0,1.126,0l2.25-2.251a.7.7,0,0,1,1.126,0l2.251,2.251a.7.7,0,0,0,1.125,0l2.251-2.251a.7.7,0,0,1,1.126,0L75.5,72.805a.7.7,0,0,0,1.127,0l2.251-2.251a.7.7,0,0,1,1.126,0l2.251,2.251a.7.7,0,0,0,1.125,0l2.252-2.251a.7.7,0,0,1,1.125,0l2.251,2.251a.7.7,0,0,0,1.126,0l2.25-2.251a.7.7,0,0,1,1.126,0l2.251,2.251c.189.188.329.263.423.226l.141-.057V0Z" transform="translate(1190.199 405)" fill="#e4e6ea"/><path d="M65.193,30.136h21.5a1.5,1.5,0,1,0,0-3h-21.5a1.5,1.5,0,1,0,0,3" transform="translate(1190.307 403.708)" fill="#313e58"/><path d="M65.193,22.386h21.5a1.5,1.5,0,1,0,0-3h-21.5a1.5,1.5,0,1,0,0,3" transform="translate(1190.307 403.708)" fill="#313e58"/><path d="M65.193,37.836h21.5a1.5,1.5,0,1,0,0-3h-21.5a1.5,1.5,0,1,0,0,3" transform="translate(1190.307 403.708)" fill="#313e58"/></g><g transform="translate(-19.213 2.885)"><path d="M96.182,0c-.094,0-.234.094-.423.281L93.508,2.533a.7.7,0,0,1-1.126,0L90.132.281a.7.7,0,0,0-1.126,0L86.755,2.533a.7.7,0,0,1-1.125,0L83.378.281a.7.7,0,0,0-1.125,0L80,2.533a.7.7,0,0,1-1.126,0L76.625.281a.706.706,0,0,0-1.127,0L73.247,2.533a.7.7,0,0,1-1.126,0L69.87.281a.7.7,0,0,0-1.125,0L66.494,2.533a.7.7,0,0,1-1.126,0L63.118.281a.7.7,0,0,0-1.126,0L59.741,2.533a.7.7,0,0,1-1.126,0L56.364.281Q56.083,0,55.942,0H55.8V72.974l.141.057q.141.056.422-.226l2.251-2.251a.7.7,0,0,1,1.126,0l2.251,2.251a.7.7,0,0,0,1.126,0l2.25-2.251a.7.7,0,0,1,1.126,0l2.251,2.251a.7.7,0,0,0,1.125,0l2.251-2.251a.7.7,0,0,1,1.126,0L75.5,72.805a.7.7,0,0,0,1.127,0l2.251-2.251a.7.7,0,0,1,1.126,0l2.251,2.251a.7.7,0,0,0,1.125,0l2.252-2.251a.7.7,0,0,1,1.125,0l2.251,2.251a.7.7,0,0,0,1.126,0l2.25-2.251a.7.7,0,0,1,1.126,0l2.251,2.251c.189.188.329.263.423.226l.141-.057V0Z" transform="translate(1190.199 405)" fill="#ffe491"/><path d="M65.193,30.136h21.5a1.5,1.5,0,1,0,0-3h-21.5a1.5,1.5,0,1,0,0,3" transform="translate(1190.307 417)" fill="#313e58"/><path d="M65.193,22.386h21.5a1.5,1.5,0,1,0,0-3h-21.5a1.5,1.5,0,1,0,0,3" transform="translate(1190.307 417)" fill="#313e58"/><path d="M65.193,37.836h21.5a1.5,1.5,0,1,0,0-3h-21.5a1.5,1.5,0,1,0,0,3" transform="translate(1190.307 417)" fill="#313e58"/><path d="M11.718,12.8a3.7,3.7,0,0,1-1.342,2.982,6.669,6.669,0,0,1-3.758,1.348v2.393h-1.6V17.181a12.977,12.977,0,0,1-5-1V13.1a13.448,13.448,0,0,0,2.445.887,13.082,13.082,0,0,0,2.55.455V10.82l-.782-.3A8.728,8.728,0,0,1,.963,8.538,3.8,3.8,0,0,1,0,5.894,3.449,3.449,0,0,1,1.325,3.11,6.733,6.733,0,0,1,5.019,1.786V0h1.6V1.739A13.251,13.251,0,0,1,11.45,2.813l-1.1,2.731a12.616,12.616,0,0,0-3.735-.91V8.077A17.951,17.951,0,0,1,9.857,9.594a4.431,4.431,0,0,1,1.412,1.412A3.5,3.5,0,0,1,11.718,12.8Zm-3.513.175a1.049,1.049,0,0,0-.4-.829,5.2,5.2,0,0,0-1.19-.7v2.906Q8.205,14.088,8.205,12.979ZM3.513,5.894a1.108,1.108,0,0,0,.356.846,4.227,4.227,0,0,0,1.15.683V4.68Q3.513,4.9,3.513,5.894Z" transform="matrix(1, -0.017, 0.017, 1, 1260, 414.305)" fill="#313e58"/></g><path d="M25.714,43.725H133.719L117,110.31s0,8.254-7.78,8.254H6.723Z" transform="translate(1185 413.102)" fill="#b1a8e3"/></g></g></svg>