<svg xmlns="http://www.w3.org/2000/svg" width="192.674" height="192.674" viewBox="0 0 192.674 192.674"><g transform="translate(-823.809 -938.979)"><circle cx="96.337" cy="96.337" r="96.337" transform="translate(823.809 938.979)" fill="none"/><g transform="translate(-0.329 -1.399)"><g transform="translate(898.805 980.02)"><path d="M55.337,31.928c3.311-7.709,10.615-24.762,12.2-28.845C69.595-2.234,59,1.564,54.284,2.577s-3.533.252-7.95-2.026S36.323,3.842,33.674,3.083A5.979,5.979,0,0,1,30.14.8S15.418-.462,16.007,3.083c.487,2.931,10.626,21.6,14.128,27.982C12.724,39.335,0,64.5,0,84.414,0,95.4-.1,104.257,6.03,108.986c7.368,5.681,22.08,6.082,34.706,6.082,11.936,0,26.108.7,34.036-4.29,7.442-4.68,9.014-14.655,9.014-26.364,0-19.267-11.91-43.444-28.449-52.486" transform="translate(0 0)" fill="#96b7df"/><path d="M56.776,32.882C65.506,48.8,69.82,68.555,67.965,84.918c-1.347,11.884-3.772,22.271-9.555,28.8,5.68-.487,10.866-1.566,14.634-3.936,7.442-4.68,9.014-14.655,9.014-26.364,0-18.014-10.412-40.316-25.283-50.531" transform="translate(1.728 1.001)" fill="#708daf" opacity="0.5"/><path d="M38.945,34.375,35.455,2.581a4.422,4.422,0,0,1-2.672.479A5.983,5.983,0,0,1,29.25.781l4.17,32.213Z" transform="translate(0.89 0.024)" fill="#708daf" opacity="0.5"/><path d="M48.783,32.962l5.573-30.78c-.5.126-.967.238-1.386.329-2.894.622-3.567.573-4.679-.084L43.2,34.064Z" transform="translate(1.315 0.067)" fill="#708daf" opacity="0.5"/><path d="M19.918,21.763a6.288,6.288,0,0,1-2.281,5.069,11.335,11.335,0,0,1-6.388,2.291v4.067H8.53V29.2A22.057,22.057,0,0,1,.04,27.5V22.258A22.857,22.857,0,0,0,4.2,23.766a22.236,22.236,0,0,0,4.335.774V18.39L7.2,17.874a14.835,14.835,0,0,1-5.565-3.363A6.463,6.463,0,0,1,0,10.018,5.862,5.862,0,0,1,2.252,5.287,11.444,11.444,0,0,1,8.53,3.035V0h2.718V2.956a22.523,22.523,0,0,1,8.213,1.825L17.6,9.423a21.444,21.444,0,0,0-6.348-1.547v5.852a30.511,30.511,0,0,1,5.505,2.579,7.531,7.531,0,0,1,2.4,2.4A5.953,5.953,0,0,1,19.918,21.763Zm-5.971.3a1.784,1.784,0,0,0-.675-1.409,8.846,8.846,0,0,0-2.023-1.19V24.4Q13.946,23.945,13.946,22.06ZM5.971,10.018a1.883,1.883,0,0,0,.605,1.438A7.184,7.184,0,0,0,8.53,12.617V7.955Q5.971,8.332,5.971,10.018Z" transform="matrix(1, -0.017, 0.017, 1, 31.944, 63.033)" fill="#313e58"/></g><g transform="translate(836.025 998.546)"><g transform="translate(6.341)"><g transform="translate(0)"><path d="M111.305,12.559a1.031,1.031,0,0,1-.379-1.989,62.852,62.852,0,0,0,12.329-6.322c.018-2.086-.825-4.038-1.23-4.248-3.008.158-8.96,4.294-20.872,7.907-4.462.707-12.82.575-13.2-.429C87.383,6.012,83.842,0,83.842,0S77.553,2.259,66.465,11.295L12.181,17.449l-8,42.95L76.713,32.288c7.008.478,17.576,3.925,25.327,3.51,1.481-.234,18.72-6.834,20.543-10.459,1.7-3.373,1.13-4.928.568-6.035a36.338,36.338,0,0,1-10.778,6.557,1.018,1.018,0,0,1-.379.073,1.031,1.031,0,0,1-.379-1.989,52.257,52.257,0,0,0,11.761-6.127c.673-2.368.929-3.415.024-5.054a37.7,37.7,0,0,1-10,5.645,1.017,1.017,0,0,1-.379.072,1.031,1.031,0,0,1-.379-1.989,52.177,52.177,0,0,0,10.89-5.556c.218-1.723.438-3.737-.506-4.985-3.608,2.467-7.29,5.006-11.344,6.537a1.016,1.016,0,0,1-.379.072" transform="translate(-4.179)" fill="#efc6a1"/><path d="M120.121,4.123a62.856,62.856,0,0,1-12.329,6.323,1.03,1.03,0,0,0,.379,1.988,1.016,1.016,0,0,0,.379-.072c4.054-1.531,7.738-4.07,11.344-6.537l0,0a6.4,6.4,0,0,0,.229-1.7" transform="translate(-1.045 0.125)" fill="#b28b67"/><path d="M108.809,17.126a1.03,1.03,0,0,0,1.03,1.03,1.017,1.017,0,0,0,.379-.072,37.7,37.7,0,0,0,10-5.645c-.019-.033-.028-.063-.047-.1.022-.5.1-1.1.182-1.731a52.227,52.227,0,0,1-10.89,5.556,1.033,1.033,0,0,0-.651.958" transform="translate(-0.995 0.323)" fill="#b28b67"/><path d="M107.809,24.376a1.03,1.03,0,0,0,1.03,1.03,1.017,1.017,0,0,0,.379-.072A36.359,36.359,0,0,0,120,18.778c-.042-.083-.084-.165-.126-.243.126-.456.242-.864.35-1.244a52.257,52.257,0,0,1-11.761,6.127,1.033,1.033,0,0,0-.651.958" transform="translate(-1.025 0.526)" fill="#b28b67"/></g></g><g transform="translate(0 6.345)"><path d="M12766.672,8610.652l15.145-1.5,4.3,35-16.56,7.79Z" transform="translate(-12722.027 -8609.156)" fill="#e4e6ea"/><circle cx="2.576" cy="2.576" r="2.576" transform="translate(52.195 28.691)" fill="#313e58"/><path d="M12767.991,8607.018l3.391,42.177-41.11,14.648a75.976,75.976,0,0,1-6.666-24.067c-1.38-13.621,3.2-30.417,3.2-30.417Z" transform="translate(-12723.347 -8606.562)" fill="#313e58"/></g></g></g></g></svg>