<svg xmlns="http://www.w3.org/2000/svg" xmlns:xlink="http://www.w3.org/1999/xlink" width="400" height="320" viewBox="0 0 400 320"><defs><clipPath id="a"><rect width="44.281" height="85.191" fill="none" stroke="#5bb3b3" stroke-width="2"/></clipPath><clipPath id="d"><rect width="400" height="320"/></clipPath></defs><g id="c" clip-path="url(#d)"><path d="M315.312,1H0A1,1,0,0,1-1,0,1,1,0,0,1,0-1H315.312a1,1,0,0,1,1,1A1,1,0,0,1,315.312,1Z" transform="translate(80.5 207.5)" fill="#5bb3b3"/><path d="M0-1H68.065a1,1,0,0,1,1,1V88.854a1,1,0,0,1-1,1H0a1,1,0,0,1-1-1V0A1,1,0,0,1,0-1ZM67.065,1H1V87.854H67.065Z" transform="translate(12.278 165.333)" fill="#5bb3b3"/><path d="M0-1H44.461a1,1,0,0,1,1,1V64.213a1,1,0,0,1-1,1H0a1,1,0,0,1-1-1V0A1,1,0,0,1,0-1ZM43.461,1H1V63.213H43.461Z" transform="translate(24.08 177.654)" fill="#5bb3b3"/><path d="M36.375,220.911a1.775,1.775,0,0,1-.453-.062l-.012,0a7.442,7.442,0,0,1-5.453-6.8,2.976,2.976,0,0,1,.356-1.651q.015-.028.033-.055a2.944,2.944,0,0,1,2.945-1.152,3,3,0,0,1,2.551,1.573,1,1,0,0,1-1.859.733,2.175,2.175,0,0,0-1.355-.329.883.883,0,0,0-.577.224.982.982,0,0,0-.1.516q0,.015,0,.03a5.444,5.444,0,0,0,3.508,4.83,1.147,1.147,0,0,1,1.313.218,1.08,1.08,0,0,1,.2,1.307A1.223,1.223,0,0,1,36.375,220.911Z" transform="translate(0.306 -8.93)" fill="#5bb3b3"/><path d="M58.678,220.22a1,1,0,0,1-.255-1.967c2.376-.63,3.263-2.956,3.3-4.923q0-.033,0-.065a.954.954,0,0,0-.055-.41,2.894,2.894,0,0,0-1.014-.116,2.765,2.765,0,0,0-1.02.194,1,1,0,0,1-1.818-.815c.251-.729,1.031-1.192,2.254-1.338.413-.05,2.511-.238,3.255.921q.018.029.035.059a2.95,2.95,0,0,1,.359,1.639,8,8,0,0,1-1.206,4.167,6.044,6.044,0,0,1-3.581,2.62A1,1,0,0,1,58.678,220.22Z" transform="translate(0.741 -8.937)" fill="#5bb3b3"/><path d="M58.967,213.487a1,1,0,0,1-.958-.715,2.917,2.917,0,0,0-1.69-1.872c-.883-.362-3.186.487-4.464,1.175a1,1,0,0,1-.937.006,29.527,29.527,0,0,0-5.186-2.106,1,1,0,1,1,.573-1.916,31.54,31.54,0,0,1,5.08,2.014,17.224,17.224,0,0,1,1.671-.7,5.782,5.782,0,0,1,4.023-.325,4.91,4.91,0,0,1,2.846,3.15,1,1,0,0,1-.959,1.286Z" transform="translate(0.539 -8.98)" fill="#5bb3b3"/><path d="M35.321,213.515a1,1,0,0,1-.269-1.963,19.7,19.7,0,0,0,8.972-5.4,1,1,0,0,1,1.661,1.04q-.207.552-.434,1.1a9.672,9.672,0,0,0,2.335-1.94,1,1,0,0,1,1.5,1.32,11.653,11.653,0,0,1-5.568,3.525,1,1,0,0,1-1.271-.882,21.7,21.7,0,0,1-6.66,3.161A1,1,0,0,1,35.321,213.515Z" transform="translate(0.368 -9.015)" fill="#5bb3b3"/><path d="M32.121,213.557a1,1,0,0,1-.986-1.172,8.6,8.6,0,0,1,.966-2.714q-.114.053-.225.112a1,1,0,0,1-1.465-.892,4.805,4.805,0,0,1,1.743-3.109,10.632,10.632,0,0,1,4.933-2.505,1,1,0,0,1,.453,1.948,8.7,8.7,0,0,0-3.958,1.961,7.655,7.655,0,0,1,1.057-.058,1,1,0,0,1,.641,1.755,6.617,6.617,0,0,0-2.174,3.846A1,1,0,0,1,32.121,213.557Z" transform="translate(0.306 -9.056)" fill="#5bb3b3"/><path d="M61.772,212.719a1,1,0,0,1-.911-1.412l-.027-.02a1,1,0,0,1-.3-1.236c.143-.323.114-2.1-.813-4.59a11.846,11.846,0,0,0-4.04-5.723,13.358,13.358,0,0,0-5.374-1.584,40.749,40.749,0,0,0-4.127-.292,3.777,3.777,0,0,0,.457.964,1,1,0,0,1-1.014,1.578,15.6,15.6,0,0,0-11.7,2.052,11.521,11.521,0,0,1,3.818,1,1,1,0,1,1-.835,1.817,9.556,9.556,0,0,0-5.9-.666,1,1,0,0,1-.894-1.7,17.592,17.592,0,0,1,14.061-4.765c-.306-1.07-.178-1.5-.009-1.783a1.07,1.07,0,0,1,1.039-.517c.056,0,.207,0,.355.007a45.052,45.052,0,0,1,5,.32,15,15,0,0,1,6.224,1.9c2.69,1.781,4.179,4.985,4.826,6.737a15.36,15.36,0,0,1,.976,4.363,2.282,2.282,0,0,1,.81.264,1,1,0,0,1,.3,1.507l-1.143,1.408A1,1,0,0,1,61.772,212.719Z" transform="translate(0.296 -9.175)" fill="#5bb3b3"/><path d="M24.143,243.993a1,1,0,0,1-.888-1.459,15.89,15.89,0,0,1,4.4-5.294l.005,0a16.342,16.342,0,0,1,4.177-2.324c.393-.154.882-.311,1.448-.493,1.93-.622,5.522-1.779,5.522-3.382q0-.042,0-.085L39.2,226.4a1,1,0,0,1,1.993.169l-.384,4.517c-.02,1.386-.927,2.587-2.7,3.571a23.928,23.928,0,0,1-4.212,1.668c-.537.173-1,.322-1.338.454l-.012,0a14.344,14.344,0,0,0-3.668,2.04,13.9,13.9,0,0,0-3.848,4.63A1,1,0,0,1,24.143,243.993Z" transform="translate(0.19 -8.701)" fill="#5bb3b3"/><path d="M67.709,239.9a1,1,0,0,1-.683-.27c-.3-.281-.623-.557-.957-.82a14.343,14.343,0,0,0-3.667-2.039l-.012,0c-.337-.132-.8-.281-1.338-.454a23.929,23.929,0,0,1-4.212-1.668c-1.765-.981-2.672-2.179-2.7-3.559l-.433-4.035a1,1,0,0,1,1.989-.213l.438,4.083a1,1,0,0,1,.006.107c0,1.6,3.592,2.76,5.522,3.382.566.182,1.055.34,1.448.493a16.342,16.342,0,0,1,4.177,2.324l.009.007c.381.3.748.614,1.092.936a1,1,0,0,1-.683,1.73Z" transform="translate(0.678 -8.694)" fill="#5bb3b3"/><path d="M47.728,238.949a15.783,15.783,0,0,1-3.46-.4A20.531,20.531,0,0,1,38.1,236.03a1,1,0,0,1,1.1-1.673h0a18.826,18.826,0,0,0,5.567,2.253c4.084.9,7.5.033,10.162-2.584a1,1,0,0,1,1.4,1.426A11.926,11.926,0,0,1,47.728,238.949Z" transform="translate(0.421 -8.569)" fill="#5bb3b3"/><path d="M47.643,228.72a12.307,12.307,0,0,1-8.848-3.844,14.969,14.969,0,0,1-4.166-9.851,9.974,9.974,0,0,1,.042-2.594,1,1,0,1,1,1.979.292,7.974,7.974,0,0,0-.03,2.1q0,.038.006.076c.282,6.761,5.412,12.058,11.435,11.807s10.693-5.956,10.411-12.718a13.959,13.959,0,0,0-.135-1.444,1,1,0,0,1,1.979-.29,15.962,15.962,0,0,1,.154,1.651,14.973,14.973,0,0,1-3.329,10.2,12.268,12.268,0,0,1-9,4.6C47.977,228.717,47.809,228.72,47.643,228.72Z" transform="translate(0.372 -8.926)" fill="#5bb3b3"/><path d="M9.237,1H0A1,1,0,0,1-1,0,1,1,0,0,1,0-1H9.237a1,1,0,0,1,1,1A1,1,0,0,1,9.237,1Z" transform="translate(1.15 207.5)" fill="#5bb3b3"/><g transform="translate(86.466 227.211)"><g clip-path="url(#a)"><path d="M43.823,59.766H1.25a1,1,0,0,1-.966-1.257L2.8,49.041a1,1,0,0,1,.966-.743H41.286a1,1,0,0,1,.966.741l2.537,9.469a1,1,0,0,1-.966,1.259Zm-41.272-2H42.52l-2-7.469H4.536Z" transform="translate(-0.396 -16.446)" fill="#5bb3b3"/><path d="M35.787,106.623H9.265a1,1,0,0,1-.99-.859L2.317,63.882a1,1,0,0,1,.99-1.141H43.07a1,1,0,0,1,.985,1.171l-7.283,41.882A1,1,0,0,1,35.787,106.623Zm-25.654-2H34.946l6.935-39.882H4.46Z" transform="translate(-1.048 -21.265)" fill="#5bb3b3"/></g><path d="M39.77,48.051a1,1,0,0,1-1-1V44.483H14.646V46.8a1,1,0,0,1-2,0V43.483a1,1,0,0,1,1-1H39.77a1,1,0,0,1,1,1v3.567A1,1,0,0,1,39.77,48.051Z" transform="translate(-4.567 -14.505)" fill="#5bb3b3"/><g clip-path="url(#a)"><path d="M25.566,35.014A1,1,0,0,1,24.8,33.37c.405-.482.356-.763-1.042-2.224-1.022-1.069-2.295-2.4-2.15-4.183.112-1.389,1.07-2.745,2.926-4.145a1,1,0,1,1,1.2,1.6c-1.355,1.022-2.074,1.934-2.137,2.71-.072.89.779,1.779,1.6,2.639a7.929,7.929,0,0,1,1.562,2.016,2.572,2.572,0,0,1-.435,2.877A1,1,0,0,1,25.566,35.014Z" transform="translate(-7.161 -7.879)" fill="#5bb3b3"/><path d="M16.235,25.449a1,1,0,0,1-.552-.167,4.772,4.772,0,0,1-2.246-2.987c-.408-2.05.916-4.019,2.2-5.924,1.047-1.557,2.129-3.166,1.845-4.341a3.157,3.157,0,0,0-1.73-1.78A1,1,0,1,1,16.716,8.5a4.931,4.931,0,0,1,2.706,3.061c.49,2.03-.841,4.011-2.129,5.927-1.052,1.565-2.14,3.184-1.9,4.418a2.852,2.852,0,0,0,1.391,1.711,1,1,0,0,1-.554,1.833Z" transform="translate(-4.551 -3.128)" fill="#5bb3b3"/><path d="M27.809,8.773a1,1,0,0,1-.98-1.2,5.868,5.868,0,0,0-1.974-5.552A1,1,0,0,1,26.133.481a7.793,7.793,0,0,1,2.35,3.4,7.644,7.644,0,0,1,.3,4.1A1,1,0,0,1,27.809,8.773Z" transform="translate(-8.079 -0.417)" fill="#5bb3b3"/></g></g></g></svg>