<svg xmlns="http://www.w3.org/2000/svg" xmlns:xlink="http://www.w3.org/1999/xlink" width="400" height="320" viewBox="0 0 400 320"><defs><clipPath id="a"><rect width="56.52" height="9.916" transform="translate(133.41 90.231)" fill="none"/></clipPath><clipPath id="b"><rect width="56.519" height="56.519" transform="translate(207.778 89.239)" fill="none"/></clipPath><clipPath id="c"><rect width="56.52" height="9.916" transform="translate(133.41 108.079)" fill="none"/></clipPath><clipPath id="d"><rect width="56.52" height="9.916" transform="translate(133.41 125.927)" fill="none"/></clipPath><clipPath id="f"><rect width="400" height="320"/></clipPath></defs><g id="e" clip-path="url(#f)"><path d="M136.552,236.18V231.8l18.826-15.281h87.515L261.719,231.8v4Z" transform="translate(0 6.047)" fill="#9aa2b0"/><path d="M136.552,236.18V231.8l18.826-15.281h87.515L261.719,231.8v4Z" transform="translate(0 6.047)" fill="#7a8293"/><path d="M136.552,237.68a1.5,1.5,0,0,1-1.5-1.5V231.8a1.5,1.5,0,0,1,.555-1.165l18.826-15.281a1.5,1.5,0,0,1,.945-.335h87.515a1.5,1.5,0,0,1,.945.335l18.826,15.281a1.5,1.5,0,0,1,.555,1.165v4a1.5,1.5,0,0,1-1.5,1.5l-125.167.378Zm1.5-5.166v2.161l122.167-.369v-1.792l-17.858-14.5H155.91Z" transform="translate(0 6.047)" fill="#7a8293"/><path d="M183.04,186.313l-3.968,30.556h40.2l-2.975-30.556Z" transform="translate(0 2.9)" fill="#7a8293"/><path d="M111.361,64.163H287.4a4.614,4.614,0,0,1,4.614,4.614V184.458a4.614,4.614,0,0,1-4.614,4.614H111.361a4.614,4.614,0,0,1-4.614-4.614V68.777a4.614,4.614,0,0,1,4.614-4.614" transform="translate(0 3.047)" fill="#313e58"/><rect width="165.387" height="94.057" transform="translate(116.595 76.524)" fill="#85cb85"/><path d="M199.38,173.242a4.339,4.339,0,1,1-4.339,4.338,4.338,4.338,0,0,1,4.339-4.338" transform="translate(0 3.047)" fill="#fff"/><path d="M136.552,231.222l18.826-19.657h87.515l18.826,19.283Z" transform="translate(0 6.047)" fill="#d1d5db"/><path d="M136.552,232.722a1.5,1.5,0,0,1-1.083-2.538l18.826-19.657a1.5,1.5,0,0,1,1.083-.462h87.515a1.5,1.5,0,0,1,1.073.452L262.792,229.8a1.5,1.5,0,0,1-1.069,2.548l-125.167.374Zm19.466-19.657-15.943,16.646,118.093-.353-15.907-16.294Z" transform="translate(0 6.047)" fill="#d1d5db"/><path d="M4.1,1.5H0A1.5,1.5,0,0,1-1.5,0,1.5,1.5,0,0,1,0-1.5H4.1A1.5,1.5,0,0,1,5.6,0,1.5,1.5,0,0,1,4.1,1.5Z" transform="translate(158.122 223.759)" fill="#313e58"/><path d="M4.1,1.5H0A1.5,1.5,0,0,1-1.5,0,1.5,1.5,0,0,1,0-1.5H4.1A1.5,1.5,0,0,1,5.6,0,1.5,1.5,0,0,1,4.1,1.5Z" transform="translate(169.344 223.759)" fill="#313e58"/><path d="M4.1,1.5H0A1.5,1.5,0,0,1-1.5,0,1.5,1.5,0,0,1,0-1.5H4.1A1.5,1.5,0,0,1,5.6,0,1.5,1.5,0,0,1,4.1,1.5Z" transform="translate(180.567 223.759)" fill="#313e58"/><path d="M4.1,1.5H0A1.5,1.5,0,0,1-1.5,0,1.5,1.5,0,0,1,0-1.5H4.1A1.5,1.5,0,0,1,5.6,0,1.5,1.5,0,0,1,4.1,1.5Z" transform="translate(152.078 230.414)" fill="#313e58"/><path d="M4.1,1.5H0A1.5,1.5,0,0,1-1.5,0,1.5,1.5,0,0,1,0-1.5H4.1A1.5,1.5,0,0,1,5.6,0,1.5,1.5,0,0,1,4.1,1.5Z" transform="translate(163.829 230.414)" fill="#313e58"/><path d="M4.1,1.5H0A1.5,1.5,0,0,1-1.5,0,1.5,1.5,0,0,1,0-1.5H4.1A1.5,1.5,0,0,1,5.6,0,1.5,1.5,0,0,1,4.1,1.5Z" transform="translate(175.052 230.414)" fill="#313e58"/><path d="M4.1,1.5H0A1.5,1.5,0,0,1-1.5,0,1.5,1.5,0,0,1,0-1.5H4.1A1.5,1.5,0,0,1,5.6,0,1.5,1.5,0,0,1,4.1,1.5Z" transform="translate(219.642 230.5)" fill="#313e58"/><path d="M4.1,1.5H0A1.5,1.5,0,0,1-1.5,0,1.5,1.5,0,0,1,0-1.5H4.1A1.5,1.5,0,0,1,5.6,0,1.5,1.5,0,0,1,4.1,1.5Z" transform="translate(231.394 230.5)" fill="#313e58"/><path d="M4.1,1.5H0A1.5,1.5,0,0,1-1.5,0,1.5,1.5,0,0,1,0-1.5H4.1A1.5,1.5,0,0,1,5.6,0,1.5,1.5,0,0,1,4.1,1.5Z" transform="translate(242.616 230.5)" fill="#313e58"/><path d="M25.533,1.5H0A1.5,1.5,0,0,1-1.5,0,1.5,1.5,0,0,1,0-1.5H25.533a1.5,1.5,0,0,1,1.5,1.5A1.5,1.5,0,0,1,25.533,1.5Z" transform="translate(186.274 230.5)" fill="#313e58"/><path d="M4.1,1.5H0A1.5,1.5,0,0,1-1.5,0,1.5,1.5,0,0,1,0-1.5H4.1A1.5,1.5,0,0,1,5.6,0,1.5,1.5,0,0,1,4.1,1.5Z" transform="translate(191.79 223.759)" fill="#313e58"/><path d="M4.1,1.5H0A1.5,1.5,0,0,1-1.5,0,1.5,1.5,0,0,1,0-1.5H4.1A1.5,1.5,0,0,1,5.6,0,1.5,1.5,0,0,1,4.1,1.5Z" transform="translate(203.012 223.759)" fill="#313e58"/><path d="M4.1,1.5H0A1.5,1.5,0,0,1-1.5,0,1.5,1.5,0,0,1,0-1.5H4.1A1.5,1.5,0,0,1,5.6,0,1.5,1.5,0,0,1,4.1,1.5Z" transform="translate(214.235 223.5)" fill="#313e58"/><path d="M4.1,1.5H0A1.5,1.5,0,0,1-1.5,0,1.5,1.5,0,0,1,0-1.5H4.1A1.5,1.5,0,0,1,5.6,0,1.5,1.5,0,0,1,4.1,1.5Z" transform="translate(225.458 223.5)" fill="#313e58"/><path d="M4.1,1.5H0A1.5,1.5,0,0,1-1.5,0,1.5,1.5,0,0,1,0-1.5H4.1A1.5,1.5,0,0,1,5.6,0,1.5,1.5,0,0,1,4.1,1.5Z" transform="translate(236.681 223.5)" fill="#313e58"/><g transform="translate(0 3.047)" opacity="0.95" style="isolation:isolate"><g clip-path="url(#a)"><rect width="56.519" height="9.916" transform="translate(133.41 90.231)" fill="#fff"/></g></g><g transform="translate(0.222 2.761)" opacity="0.95" style="isolation:isolate"><g clip-path="url(#b)"><rect width="56.519" height="56.519" transform="translate(207.778 89.239)" fill="#fff"/></g></g><g transform="translate(0 3.047)" opacity="0.95" style="isolation:isolate"><g clip-path="url(#c)"><rect width="56.519" height="9.916" transform="translate(133.41 108.079)" fill="#fff"/></g></g><g transform="translate(0 3.047)" opacity="0.95" style="isolation:isolate"><g clip-path="url(#d)"><rect width="56.519" height="9.916" transform="translate(133.41 125.927)" fill="#fff"/></g></g><path d="M236.534,99.155A18.84,18.84,0,1,1,217.694,118a18.84,18.84,0,0,1,18.84-18.84" transform="translate(-0.694 2.845)" fill="#ffcf4c"/><path d="M226.618,119.25l2.351-2.393,4.153,4.157,10.956-10.952,2.371,2.357-13.331,13.332Z" transform="translate(-0.617 2.938)" fill="#1f3048"/></g></svg>