<svg xmlns="http://www.w3.org/2000/svg" xmlns:xlink="http://www.w3.org/1999/xlink" width="400" height="320" viewBox="0 0 400 320"><defs><clipPath id="b"><rect width="400" height="320"/></clipPath></defs><g id="a" clip-path="url(#b)"><path d="M24,1H0A1,1,0,0,1-1,0,1,1,0,0,1,0-1H24a1,1,0,0,1,1,1A1,1,0,0,1,24,1Z" transform="translate(349.5 158.5)" fill="#5ab3b3"/><g transform="translate(-291.535 -4)"><path d="M102.846,1H0A1,1,0,0,1-1,0,1,1,0,0,1,0-1H102.846a1,1,0,0,1,1,1A1,1,0,0,1,102.846,1Z" transform="translate(291.535 75.775)" fill="#5ab3b3"/><path d="M2.744-1h7.01A3.748,3.748,0,0,1,13.5,2.744V53.815a3.748,3.748,0,0,1-3.744,3.744H2.744A3.748,3.748,0,0,1-1,53.815V2.744A3.748,3.748,0,0,1,2.744-1Zm7.01,56.559A1.746,1.746,0,0,0,11.5,53.815V2.744A1.746,1.746,0,0,0,9.754,1H2.744A1.746,1.746,0,0,0,1,2.744V53.815a1.746,1.746,0,0,0,1.744,1.744Z" transform="translate(328.231 14.146)" fill="#5ab3b3"/><g transform="translate(332.194 39.826)"><path d="M4.572,1H0A1,1,0,0,1-1,0,1,1,0,0,1,0-1H4.572a1,1,0,0,1,1,1A1,1,0,0,1,4.572,1Z" fill="#5ab3b3"/><path d="M4.572,1H0A1,1,0,0,1-1,0,1,1,0,0,1,0-1H4.572a1,1,0,0,1,1,1A1,1,0,0,1,4.572,1Z" transform="translate(0 5.114)" fill="#5ab3b3"/></g><path d="M2.744-1h7.01A3.748,3.748,0,0,1,13.5,2.744V53.815a3.748,3.748,0,0,1-3.744,3.744H2.744A3.748,3.748,0,0,1-1,53.815V2.744A3.748,3.748,0,0,1,2.744-1Zm7.01,56.559A1.746,1.746,0,0,0,11.5,53.815V2.744A1.746,1.746,0,0,0,9.754,1H2.744A1.746,1.746,0,0,0,1,2.744V53.815a1.746,1.746,0,0,0,1.744,1.744Z" transform="matrix(-0.956, -0.293, 0.293, -0.956, 306.555, 71.293)" fill="#5ab3b3"/><g transform="translate(305.938 39.27)"><path d="M4.372,2.339a1,1,0,0,1-.293-.044L-.293.956A1,1,0,0,1-.956-.293,1,1,0,0,1,.293-.956L4.665.383a1,1,0,0,1-.292,1.956Z" transform="translate(1.497)" fill="#5ab3b3"/><path d="M4.372,2.339a1,1,0,0,1-.293-.044L-.293.956A1,1,0,0,1-.956-.293,1,1,0,0,1,.293-.956L4.665.383a1,1,0,0,1-.292,1.956Z" transform="translate(0 4.889)" fill="#5ab3b3"/></g><path d="M2.744-1h7.01A3.748,3.748,0,0,1,13.5,2.744V53.815a3.748,3.748,0,0,1-3.744,3.744H2.744A3.748,3.748,0,0,1-1,53.815V2.744A3.748,3.748,0,0,1,2.744-1Zm7.01,56.559A1.746,1.746,0,0,0,11.5,53.815V2.744A1.746,1.746,0,0,0,9.754,1H2.744A1.746,1.746,0,0,0,1,2.744V53.815a1.746,1.746,0,0,0,1.744,1.744Z" transform="translate(345.49 14.146)" fill="#5ab3b3"/><g transform="translate(349.452 39.826)"><path d="M4.572,1H0A1,1,0,0,1-1,0,1,1,0,0,1,0-1H4.572a1,1,0,0,1,1,1A1,1,0,0,1,4.572,1Z" fill="#5ab3b3"/><path d="M4.572,1H0A1,1,0,0,1-1,0,1,1,0,0,1,0-1H4.572a1,1,0,0,1,1,1A1,1,0,0,1,4.572,1Z" transform="translate(0 5.114)" fill="#5ab3b3"/></g><path d="M2.744-1h7.01A3.748,3.748,0,0,1,13.5,2.744V53.815a3.748,3.748,0,0,1-3.744,3.744H2.744A3.748,3.748,0,0,1-1,53.815V2.744A3.748,3.748,0,0,1,2.744-1Zm7.01,56.559A1.746,1.746,0,0,0,11.5,53.815V2.744A1.746,1.746,0,0,0,9.754,1H2.744A1.746,1.746,0,0,0,1,2.744V53.815a1.746,1.746,0,0,0,1.744,1.744Z" transform="translate(380.883 14.146)" fill="#5ab3b3"/><path d="M2.744-1h7.01A3.748,3.748,0,0,1,13.5,2.744V53.815a3.748,3.748,0,0,1-3.744,3.744H2.744A3.748,3.748,0,0,1-1,53.815V2.744A3.748,3.748,0,0,1,2.744-1Zm7.01,56.559A1.746,1.746,0,0,0,11.5,53.815V2.744A1.746,1.746,0,0,0,9.754,1H2.744A1.746,1.746,0,0,0,1,2.744V53.815a1.746,1.746,0,0,0,1.744,1.744Z" transform="translate(362.748 14.146)" fill="#5ab3b3"/><g transform="translate(384.846 39.826)"><path d="M4.572,1H0A1,1,0,0,1-1,0,1,1,0,0,1,0-1H4.572a1,1,0,0,1,1,1A1,1,0,0,1,4.572,1Z" fill="#5ab3b3"/><path d="M4.572,1H0A1,1,0,0,1-1,0,1,1,0,0,1,0-1H4.572a1,1,0,0,1,1,1A1,1,0,0,1,4.572,1Z" transform="translate(0 5.114)" fill="#5ab3b3"/></g><g transform="translate(366.71 39.826)"><path d="M4.572,1H0A1,1,0,0,1-1,0,1,1,0,0,1,0-1H4.572a1,1,0,0,1,1,1A1,1,0,0,1,4.572,1Z" fill="#5ab3b3"/><path d="M4.572,1H0A1,1,0,0,1-1,0,1,1,0,0,1,0-1H4.572a1,1,0,0,1,1,1A1,1,0,0,1,4.572,1Z" transform="translate(0 5.114)" fill="#5ab3b3"/></g></g><path d="M397.678,1H0A1,1,0,0,1-1,0,1,1,0,0,1,0-1H397.678a1,1,0,0,1,1,1A1,1,0,0,1,397.678,1Z" transform="translate(1 224.525)" fill="#5ab3b3"/><path d="M397.678,1H0A1,1,0,0,1-1,0,1,1,0,0,1,0-1H397.678a1,1,0,0,1,1,1A1,1,0,0,1,397.678,1Z" transform="translate(1 236.525)" fill="#5ab3b3"/><path d="M336,1H0A1,1,0,0,1-1,0,1,1,0,0,1,0-1H336a1,1,0,0,1,1,1A1,1,0,0,1,336,1Z" transform="translate(1.5 158.5)" fill="#5ab3b3"/><g transform="translate(-65.789 -4.944)"><path d="M22.262-1A23.255,23.255,0,0,1,38.71,38.71,23.262,23.262,0,1,1,13.207.828,23.117,23.117,0,0,1,22.262-1Zm0,44.523A21.268,21.268,0,0,0,30.537,2.67,21.267,21.267,0,0,0,13.986,41.853,21.128,21.128,0,0,0,22.262,43.523Z" transform="translate(202.862 22.347)" fill="#5bb3b3"/><path d="M28.331-1A29.338,29.338,0,0,1,39.748,55.356,29.338,29.338,0,0,1,16.913,1.305,29.148,29.148,0,0,1,28.331-1Zm0,56.661A27.338,27.338,0,0,0,38.969,3.147,27.338,27.338,0,0,0,17.693,53.514,27.159,27.159,0,0,0,28.331,55.661Z" transform="translate(196.792 16.278)" fill="#5bb3b3"/><path d="M135.186,36.534a1,1,0,0,1-.7-.282l-9.877-9.577a1,1,0,0,1-.3-.718V8.66a1,1,0,0,1,2,0V25.534l9.573,9.282a1,1,0,0,1-.7,1.718Z" transform="translate(99.965 18.801)" fill="#5bb3b3"/></g><g transform="translate(297.156 10.761)"><g transform="translate(5 15)"><g transform="translate(0 9.568)"><path d="M73.709,48.533a1,1,0,0,1-.346-.062L51.375,40.359a1,1,0,0,1-.443-1.552L72.76,10.725a1,1,0,0,1,1.287-.254L79.663,13.7a1,1,0,0,1,.489,1.031L74.7,47.7a1,1,0,0,1-.987.837ZM53.349,38.955l19.57,7.221,5.146-31.091-4.26-2.446Z" transform="translate(-51.721 -11.339)" fill="#5bb3b3"/><path d="M16.088,6.573a1,1,0,0,1-.345-.062L-.345.6A1,1,0,0,1-.939-.679,1,1,0,0,1,.345-1.273L16.433,4.634a1,1,0,0,1-.345,1.939Z" transform="translate(7.918 18.63)" fill="#5bb3b3"/></g><path d="M28.087,113.607q-.047,0-.095,0a1,1,0,0,1-.9-1.089c.595-6.314,2.466-22.476,6.99-36.151a104.007,104.007,0,0,1,6.2-13.858c3.311-6.558,6.734-13.337,8.488-21.052A44.658,44.658,0,0,0,49.88,29.243a48.2,48.2,0,0,0-2.843-13.877C44.64,8.661,41.057,4.434,36.386,2.8c-4.333-1.514-9.673-.891-15.874,1.854A59.5,59.5,0,0,0,8.568,11.962a1,1,0,1,1-1.232-1.575A61.549,61.549,0,0,1,19.7,2.827C26.382-.13,32.217-.774,37.045.914c5.269,1.841,9.265,6.477,11.875,13.779a47.381,47.381,0,0,1,1.8,27.2c-1.809,7.953-5.288,14.844-8.652,21.508a102.6,102.6,0,0,0-6.085,13.586c-4.46,13.481-6.31,29.465-6.9,35.711A1,1,0,0,1,28.087,113.607Z" transform="translate(15.166 -1)" fill="#5bb3b3"/><path d="M29.982,120.567l.061,0,6.912.421a1,1,0,0,1,.938.953c.018.388,1.752,38.873,1.849,42.17a1,1,0,0,1-.385.818,9.415,9.415,0,0,1-5.9,2.08A11.948,11.948,0,0,1,27,164.95a1,1,0,0,1-.409-.864l2.39-42.575a1,1,0,0,1,1-.944Zm5.953,2.365-5.011-.305-2.3,40.988a9.943,9.943,0,0,0,4.831,1.4,7.375,7.375,0,0,0,4.27-1.361C37.536,158.527,36.188,128.535,35.935,122.932Z" transform="translate(8.255 -9.999)" fill="#5bb3b3"/><path d="M31.183,176.562a96.823,96.823,0,0,1-21.576-2.15,26.618,26.618,0,0,1-6.729-2.406C.968,170.921,0,169.68,0,168.315c0-2.192,2.482-4.118,7.177-5.569a69.5,69.5,0,0,1,17.848-2.457,1,1,0,0,1,.056,2,68.537,68.537,0,0,0-17.313,2.369C3.511,165.972,2,167.45,2,168.315c0,.567.68,1.279,1.866,1.952a25.084,25.084,0,0,0,6.208,2.2,94.807,94.807,0,0,0,21.109,2.095,94.8,94.8,0,0,0,21.108-2.095,25.083,25.083,0,0,0,6.208-2.2c1.186-.673,1.866-1.384,1.866-1.952,0-.867-1.65-2.353-6.3-3.688a79.206,79.206,0,0,0-17.269-2.434,1,1,0,1,1,.091-2,81.2,81.2,0,0,1,17.73,2.51c5.142,1.476,7.75,3.363,7.75,5.61,0,1.365-.968,2.607-2.878,3.691a26.617,26.617,0,0,1-6.729,2.406A96.817,96.817,0,0,1,31.183,176.562Z" transform="translate(10.239 -12.956)" fill="#5bb3b3"/><path d="M31.183,187.707a96.807,96.807,0,0,1-21.576-2.151,26.617,26.617,0,0,1-6.729-2.407C.968,182.065,0,180.823,0,179.459v-10.57a1,1,0,0,1,2,0v10.57c0,.567.68,1.279,1.866,1.952a25.084,25.084,0,0,0,6.208,2.2,94.789,94.789,0,0,0,21.109,2.1,94.783,94.783,0,0,0,21.108-2.1,25.084,25.084,0,0,0,6.208-2.2c1.186-.673,1.866-1.385,1.866-1.952v-10.57a1,1,0,0,1,2,0v10.57c0,1.365-.968,2.607-2.878,3.691a26.618,26.618,0,0,1-6.729,2.407A96.8,96.8,0,0,1,31.183,187.707Z" transform="translate(10.239 -13.53)" fill="#5bb3b3"/><path d="M20.662,109.831q-.047,0-.1,0a1,1,0,0,1-.9-1.089c1.43-15.171,3.768-27.966,6.761-37a71.13,71.13,0,0,1,4.924-11.358c.444-.879.895-1.756,1.371-2.686,6.191-12.067,13.9-27.086,7.554-44.81a21.453,21.453,0,0,0-3.88-7.22,12.371,12.371,0,0,0-5.454-3.457L30.925,2.2a13.147,13.147,0,0,0-6.169-.559,26.449,26.449,0,0,0-6.636,1.821A46.657,46.657,0,0,0,7.612,9.549,1,1,0,0,1,6.38,7.973,48.784,48.784,0,0,1,17.368,1.608,28.433,28.433,0,0,1,24.513-.345a15.118,15.118,0,0,1,7.1.665,14.445,14.445,0,0,1,6.276,4.007,23.311,23.311,0,0,1,4.274,7.881,42.651,42.651,0,0,1,1,25.621C41.2,45.552,37.64,52.487,34.5,58.605c-.475.927-.924,1.8-1.366,2.675a69.572,69.572,0,0,0-4.811,11.085c-2.946,8.894-5.252,21.536-6.668,36.559A1,1,0,0,1,20.662,109.831Z" transform="translate(19.164 2.738)" fill="#5bb3b3"/></g></g></g></svg>