<svg xmlns="http://www.w3.org/2000/svg" xmlns:xlink="http://www.w3.org/1999/xlink" width="400" height="320" viewBox="0 0 400 320"><defs><clipPath id="b"><rect width="400" height="320"/></clipPath></defs><g id="a" clip-path="url(#b)"><g transform="translate(9)"><path d="M54.7,29.071,20.3,13.962A81.528,81.528,0,0,0,2.836.268C1.158-.267-1.71-.428,1.349,4.04s16.6,19.349,16.6,19.349L43.714,43.145Z" transform="translate(142.297 162.793)" fill="#efc6a1"/><path d="M0,93.811,8.056,95.93C27.384,80.207,38.286,39.324,50.639,34.867c11.68-4.214,27.152,2.206,45.472,10.65l6.925-12.435C87.477,12.987,52.24-5.924,36.615,1.745,11.635,14.006,1.677,64.733,0,93.811Z" transform="matrix(-0.996, 0.087, -0.087, -0.996, 258.161, 208.53)" fill="#708daf"/><g transform="translate(-153.886 3455.308)"><path d="M24.342,0l61,48.134L53.255,60.68,0,22.826Z" transform="translate(316.705 -3256.134) rotate(-160)" fill="#fff"/><path d="M24.342-1a1,1,0,0,1,.619.215l61,48.134a1,1,0,0,1-.255,1.716L53.619,61.611a1,1,0,0,1-.944-.116L-.579,23.641A1,1,0,0,1-1,22.893a1,1,0,0,1,.314-.8L23.658-.729A1,1,0,0,1,24.342-1ZM83.348,47.838,24.4,1.318,1.576,22.719,53.394,59.552Z" transform="translate(316.705 -3256.134) rotate(-160)" fill="#5bb3b3"/><path d="M-2066.192-4705.034l-23.935,7.378-31.557-48.245,26.565-.967Z" transform="translate(2380.876 1418.884)" fill="#bfe2e2"/><ellipse cx="2.574" cy="2.574" rx="2.574" ry="2.574" transform="matrix(-0.839, 0.545, -0.545, -0.839, 310.579, -3277.095)" fill="#5bb3b3"/></g><g transform="translate(221.851 59.597)"><path d="M0,0,8.262,38.51C3.655,43.919.536,50.548,1.057,57.974c1.5,21.4,31.292,16.692,37.086,5.891s5.107-38.2-2.382-40.129c-2.987-.77-9.349,1.116-15.825,5.019L24,0Z" transform="translate(42 73) rotate(180)" fill="#b28b67"/></g><path d="M38.167,46.308c3.012-13.4,11.594-22.536,10.283-28.526a10.2,10.2,0,0,0-6.986-7.45S38.528-1.543,22.529.23-3.235,8.648.982,23.268c3.876,0,8.556-1.4,15.027,1,3.08,1.143,4.406,7.09,4.406,7.09h2.924s4.257-7.057,8.4-5.187,1.881,9.087,1.881,9.087l1.44,11.049Z" transform="translate(219.266 52.597)" fill="#313e58"/><path d="M57.131,5.354c-1,12.65-2.861,56.444-1,76.715.785,8.557,1.633,16.7,2.465,23.927C40.738,73.88,11.516,26.9,11.516,26.9L0,32.16S13.566,76.854,22.247,95.265c9.91,21.017,19.2,39.015,23.112,45.355,6.151,9.971,16.86,6.492,22.518.456,8.237,4.946,22.056-1.409,22.046-8.482C89.895,111.429,70.58,11.68,69.572,5.375,69.038,2.038,65.76,0,62.7,0,59.977,0,57.427,1.611,57.131,5.354Z" transform="translate(209.774 377.428) rotate(180)" fill="#b28b67"/><path d="M0,0,5.118,101.51c3.688,17.553,34.907,9.406,34.894,0C39.982,80.155,27.154,6.383,27.145.021Z" transform="translate(208.951 328.722) rotate(160)" fill="#313e58"/><path d="M0,36.433C0,63,12.617,124.97,12.625,130.82l27.146.021S33.81,47.9,35.544,47s71.051,6.921,91.84,6.921c29.979,0,42.38-18.9,43.386-53.925H111.384C99.292,1.294,36.222,14.015,12.8,18.388,2.77,20.261,0,29.115,0,36.433Z" transform="translate(117.081 215.597)" fill="#7a8293"/><path d="M77,114H0S26.163,34.208,26.73,4.472c.019-1.011,1.886-2.792,2.712-2.558C38.5,4.472,48.828,0,48.828,0,67.083,29.358,73.4,65.5,77,114Z" transform="translate(210.851 110.597)" fill="#f2f2f2"/><path d="M1.421,0H42.478C76.459,0,67.857,69.174,44.8,138.606H32.867a5.417,5.417,0,0,1-4.941-3.377C12.038,104.582-5.1,43.822,1.421,0Z" transform="translate(297.921 249.203) rotate(180)" fill="#96b7df"/><g transform="translate(127.004 111.374)"><path d="M23.707,16.229s13.708,4.676,17.745,4.338,24.189-6.689,24.189-6.689-2.231-3.531-18.09,0c-1.33-1.03,4.626-5.753-1.335-8.867S42.8-1.76,23.707,2.97C21.491,3.519.312,0,.312,0s-.7,8.557,0,10.939C4.375,12.636,23.707,16.229,23.707,16.229Z" transform="translate(60.861 79.22) rotate(-158)" fill="#b28b67"/><path d="M0,93.811,8.056,95.93C27.384,80.207,38.286,39.324,50.639,34.867c11.68-4.214,27.152,2.206,45.472,10.65l6.925-12.435C87.477,12.987,52.24-5.924,36.615,1.745,11.635,14.006,1.677,64.733,0,93.811Z" transform="matrix(-0.996, 0.087, -0.087, -0.996, 151.31, 95.564)" fill="#96b7df"/></g></g></g></svg>