<svg width="32" height="32" viewBox="0 0 32 32" fill="none" xmlns="http://www.w3.org/2000/svg">
<path d="M16 0.5C19.0656 0.5 22.0624 1.40906 24.6113 3.11222C27.1603 4.81538 29.147 7.23615 30.3201 10.0684C31.4933 12.9007 31.8002 16.0172 31.2022 19.0239C30.6041 22.0306 29.1279 24.7924 26.9601 26.9601C24.7924 29.1279 22.0306 30.6041 19.0239 31.2022C16.0172 31.8002 12.9007 31.4933 10.0684 30.3201C7.23615 29.147 4.81538 27.1603 3.11222 24.6113C1.40906 22.0624 0.5 19.0656 0.5 16C0.5 11.8891 2.13303 7.94666 5.03984 5.03984C7.94666 2.13303 11.8891 0.5 16 0.5Z" fill="#2E6CB9" stroke="#2E6CB9"/>
<path d="M14.6987 21.8148L13.8096 22.6579L7.81449 24.0082L9.23926 18.3237L10.091 17.4452L14.6987 21.8148ZM17.4736 10.4441L22.0448 14.7791L15.5927 20.8978L11.0215 16.5628L17.4736 10.4441ZM20.2435 7.83145L24.8139 12.1657L22.9711 13.9132L18.4008 9.57898L20.2435 7.83145Z" fill="white"/>
</svg>
