<svg width="25" height="24" viewBox="0 0 25 24" fill="none" xmlns="http://www.w3.org/2000/svg">
<path d="M21.4898 24L21.4887 23.999L15.8159 18.326L16.3073 17.8346L14.2607 15.7881C12.7718 16.8673 11.0061 17.4377 9.15651 17.4377C6.82695 17.4377 4.63693 16.5307 2.98987 14.8836C1.3452 13.2396 0.439453 11.0502 0.439453 8.71887C0.439453 6.38751 1.3452 4.19818 2.98987 2.55417C4.63693 0.907084 6.82695 0 9.15651 0C11.4852 0 13.6747 0.907084 15.3218 2.55417C16.7941 4.02583 17.6907 5.98127 17.8466 8.06026C18.0007 10.1167 17.4253 12.1631 16.2263 13.8225L18.2728 15.8691L18.7642 15.3777L24.4395 21.0517L21.4908 23.999L21.4898 24ZM9.15651 2.77962C7.5695 2.77962 6.07754 3.39761 4.95541 4.51975C2.64003 6.83515 2.64003 10.6026 4.95541 12.918C6.07754 14.0401 7.5695 14.6581 9.15651 14.6581C10.7426 14.6581 12.2341 14.0401 13.3562 12.918C15.6716 10.6026 15.6716 6.83515 13.3562 4.51975C12.2341 3.39761 10.7426 2.77962 9.15651 2.77962Z" fill="#2157AA"/>
</svg>
