<svg width="17" height="14" viewBox="0 0 17 14" fill="none" xmlns="http://www.w3.org/2000/svg">
<path d="M0.903158 13.6799C0.582201 13.6799 0.282778 13.5168 0.121805 13.2541C-0.0399113 12.9901 -0.0406539 12.6627 0.119907 12.399L7.3468 0.571072C7.50101 0.316374 7.77906 0.155866 8.09078 0.141769C8.10282 0.141449 8.11512 0.140808 8.12733 0.140808C8.45076 0.140808 8.75233 0.305801 8.91429 0.571072L16.147 12.399C16.3075 12.6627 16.3068 12.9904 16.1451 13.2541C15.9844 13.5165 15.6846 13.6796 15.3626 13.6796H15.3598H0.906045L0.903158 13.6799ZM8.08888 10.479C7.62419 10.479 7.24614 10.8212 7.24614 11.2421C7.24614 11.6625 7.62419 12.0043 8.08888 12.0043C8.55299 12.0043 8.93063 11.6625 8.93063 11.2421C8.93063 10.8212 8.55299 10.479 8.08888 10.479ZM8.08583 3.10973C7.75241 3.10973 7.43137 3.25646 7.20489 3.51276C7.04771 3.69089 6.95324 3.90233 6.93162 4.12436C6.92593 4.18395 6.92593 4.24898 6.93162 4.30665L7.41099 9.27823C7.42494 9.42272 7.49441 9.55792 7.60662 9.65884C7.73607 9.7761 7.90736 9.84049 8.08888 9.84049H8.08979C8.25109 9.84049 8.4081 9.78763 8.53178 9.69152C8.66743 9.58708 8.75084 9.44034 8.76668 9.27823L9.24606 4.30665C9.25126 4.24385 9.25126 4.17914 9.24606 4.12436C9.22535 3.91195 9.13748 3.70819 8.99193 3.53518C8.76503 3.26479 8.43698 3.10973 8.09193 3.10973H8.08888H8.08583Z" fill="white"/>
</svg>
