<svg width="21" height="20" viewBox="0 0 21 20" fill="none" xmlns="http://www.w3.org/2000/svg">
<path d="M0.812566 19.6259C0.639877 19.6259 0.5 19.4485 0.5 19.23V16.8549C0.5 16.6361 0.639877 16.459 0.812566 16.459H20.1879C20.3604 16.459 20.5003 16.6361 20.5003 16.8549V19.23C20.5003 19.4485 20.3604 19.6259 20.1879 19.6259H0.812566ZM0.812566 11.7088C0.639877 11.7088 0.5 11.5316 0.5 11.3129V8.93779C0.5 8.71928 0.639877 8.5421 0.812566 8.5421H20.1879C20.3604 8.5421 20.5003 8.71928 20.5003 8.93779V11.3129C20.5003 11.5316 20.3604 11.7088 20.1879 11.7088H0.812566ZM0.812566 3.7917C0.639877 3.7917 0.5 3.61452 0.5 3.39601V1.02093C0.5 0.802181 0.639877 0.625 0.812566 0.625H20.1879C20.3604 0.625 20.5003 0.802181 20.5003 1.02093V3.39601C20.5003 3.61452 20.3604 3.7917 20.1879 3.7917H0.812566Z" fill="#2157AA"/>
</svg>
