<svg width="40" height="40" viewBox="0 0 40 40" fill="none" xmlns="http://www.w3.org/2000/svg">
<path d="M6.99473 25.3183H4.9729C3.98372 25.3183 3.13885 24.9563 2.4383 24.2323C1.73741 23.5087 1.38696 22.636 1.38696 21.6143V18.4619C1.38696 17.4402 1.73741 16.5675 2.4383 15.8438C3.13885 15.1199 3.98372 14.7579 4.9729 14.7579H12.6407L18.8088 10.9478C19.4066 10.5773 20.0093 10.5741 20.6169 10.9381C21.2249 11.3018 21.5289 11.8369 21.5289 12.5435V27.5327C21.5289 28.2393 21.2249 28.7744 20.6169 29.1381C20.0093 29.5021 19.4066 29.4989 18.8088 29.1283L12.6407 25.3183H9.9702V31.7802C9.9702 32.2163 9.8277 32.5814 9.54272 32.8754C9.25807 33.1698 8.90465 33.317 8.48246 33.317C8.06028 33.317 7.70686 33.1698 7.4222 32.8754C7.13722 32.5814 6.99473 32.2163 6.99473 31.7802V25.3183ZM18.5534 25.3342V14.742L13.4644 17.8313H4.9729C4.82049 17.8313 4.68064 17.8971 4.55336 18.0286C4.42607 18.16 4.36243 18.3045 4.36243 18.4619V21.6143C4.36243 21.7717 4.42607 21.9161 4.55336 22.0476C4.68064 22.1791 4.82049 22.2448 4.9729 22.2448H13.4644L18.5534 25.3342ZM23.1412 26.4293V13.6468C23.9194 14.3746 25.6803 15.2913 26.1558 16.3971C26.6315 17.5032 26.8694 18.7168 26.8694 20.0381C26.8694 21.3593 26.6315 22.573 26.1558 23.6791C25.6803 24.7849 23.9194 25.7016 23.1412 26.4293Z" fill="#2E3E5A"/>
<path d="M6.99473 25.3183H4.9729C3.98372 25.3183 3.13885 24.9563 2.4383 24.2323C1.73741 23.5087 1.38696 22.636 1.38696 21.6143V18.4619C1.38696 17.4402 1.73741 16.5675 2.4383 15.8438C3.13885 15.1199 3.98372 14.7579 4.9729 14.7579H12.6407L18.8088 10.9478C19.4066 10.5773 20.0093 10.5741 20.6169 10.9381C21.2249 11.3018 21.5289 11.8369 21.5289 12.5435V27.5327C21.5289 28.2393 21.2249 28.7744 20.6169 29.1381C20.0093 29.5021 19.4066 29.4989 18.8088 29.1283L12.6407 25.3183H9.9702V31.7802C9.9702 32.2163 9.8277 32.5814 9.54272 32.8754C9.25807 33.1698 8.90465 33.317 8.48246 33.317C8.06028 33.317 7.70686 33.1698 7.4222 32.8754C7.13722 32.5814 6.99473 32.2163 6.99473 31.7802V25.3183ZM18.5534 25.3342V14.742L13.4644 17.8313H4.9729C4.82049 17.8313 4.68064 17.8971 4.55336 18.0286C4.42607 18.16 4.36243 18.3045 4.36243 18.4619V21.6143C4.36243 21.7717 4.42607 21.9161 4.55336 22.0476C4.68064 22.1791 4.82049 22.2448 4.9729 22.2448H13.4644L18.5534 25.3342ZM23.1412 26.4293V13.6468C23.9194 14.3746 25.6803 15.2913 26.1558 16.3971C26.6315 17.5032 26.8694 18.7168 26.8694 20.0381C26.8694 21.3593 26.6315 22.573 26.1558 23.6791C25.6803 24.7849 23.9194 25.7016 23.1412 26.4293Z" fill="black" fill-opacity="0.2"/>
<path d="M6.99473 25.3183H4.9729C3.98372 25.3183 3.13885 24.9563 2.4383 24.2323C1.73741 23.5087 1.38696 22.636 1.38696 21.6143V18.4619C1.38696 17.4402 1.73741 16.5675 2.4383 15.8438C3.13885 15.1199 3.98372 14.7579 4.9729 14.7579H12.6407L18.8088 10.9478C19.4066 10.5773 20.0093 10.5741 20.6169 10.9381C21.2249 11.3018 21.5289 11.8369 21.5289 12.5435V27.5327C21.5289 28.2393 21.2249 28.7744 20.6169 29.1381C20.0093 29.5021 19.4066 29.4989 18.8088 29.1283L12.6407 25.3183H9.9702V31.7802C9.9702 32.2163 9.8277 32.5814 9.54272 32.8754C9.25807 33.1698 8.90465 33.317 8.48246 33.317C8.06028 33.317 7.70686 33.1698 7.4222 32.8754C7.13722 32.5814 6.99473 32.2163 6.99473 31.7802V25.3183ZM18.5534 25.3342V14.742L13.4644 17.8313H4.9729C4.82049 17.8313 4.68064 17.8971 4.55336 18.0286C4.42607 18.16 4.36243 18.3045 4.36243 18.4619V21.6143C4.36243 21.7717 4.42607 21.9161 4.55336 22.0476C4.68064 22.1791 4.82049 22.2448 4.9729 22.2448H13.4644L18.5534 25.3342ZM23.1412 26.4293V13.6468C23.9194 14.3746 25.6803 15.2913 26.1558 16.3971C26.6315 17.5032 26.8694 18.7168 26.8694 20.0381C26.8694 21.3593 26.6315 22.573 26.1558 23.6791C25.6803 24.7849 23.9194 25.7016 23.1412 26.4293Z" fill="black" fill-opacity="0.2"/>
<path fill-rule="evenodd" clip-rule="evenodd" d="M38.3868 21.296H30.4482V18.9531H38.3868V21.296Z" fill="#2E3E5A"/>
<path fill-rule="evenodd" clip-rule="evenodd" d="M38.3868 21.296H30.4482V18.9531H38.3868V21.296Z" fill="black" fill-opacity="0.2"/>
<path fill-rule="evenodd" clip-rule="evenodd" d="M38.3868 21.296H30.4482V18.9531H38.3868V21.296Z" fill="black" fill-opacity="0.2"/>
<path fill-rule="evenodd" clip-rule="evenodd" d="M35.1018 8.65671L29.4884 14.455L27.8845 12.7983L33.4979 7.00006L35.1018 8.65671Z" fill="#2E3E5A"/>
<path fill-rule="evenodd" clip-rule="evenodd" d="M35.1018 8.65671L29.4884 14.455L27.8845 12.7983L33.4979 7.00006L35.1018 8.65671Z" fill="black" fill-opacity="0.2"/>
<path fill-rule="evenodd" clip-rule="evenodd" d="M35.1018 8.65671L29.4884 14.455L27.8845 12.7983L33.4979 7.00006L35.1018 8.65671Z" fill="black" fill-opacity="0.2"/>
<path fill-rule="evenodd" clip-rule="evenodd" d="M35.1018 31.4185L29.4884 25.6202L27.8845 27.2769L33.4979 33.0751L35.1018 31.4185Z" fill="#2E3E5A"/>
<path fill-rule="evenodd" clip-rule="evenodd" d="M35.1018 31.4185L29.4884 25.6202L27.8845 27.2769L33.4979 33.0751L35.1018 31.4185Z" fill="black" fill-opacity="0.2"/>
<path fill-rule="evenodd" clip-rule="evenodd" d="M35.1018 31.4185L29.4884 25.6202L27.8845 27.2769L33.4979 33.0751L35.1018 31.4185Z" fill="black" fill-opacity="0.2"/>
</svg>
