<svg width="233" height="186" viewBox="0 0 233 186" fill="none" xmlns="http://www.w3.org/2000/svg">
<mask id="mask0_49_446" style="mask-type:luminance" maskUnits="userSpaceOnUse" x="0" y="0" width="233" height="186">
<path d="M232.371 0H0V185.897H232.371V0Z" fill="white"/>
</mask>
<g mask="url(#mask0_49_446)">
<path d="M-9.31396 8.64709H58.2904" stroke="black" stroke-width="2" stroke-linecap="round" stroke-linejoin="round"/>
<path d="M-9.31396 27.2565H42.9515" stroke="black" stroke-width="2" stroke-linecap="round" stroke-linejoin="round"/>
<path d="M-9.31396 21.0441H42.9515V49.9237H-9.31396" stroke="black" stroke-width="2" stroke-linecap="round" stroke-linejoin="round"/>
<path d="M-9.31396 32.7974H42.9515" stroke="black" stroke-width="2" stroke-linecap="round" stroke-linejoin="round"/>
<path d="M-9.31396 38.5062H42.9515" stroke="black" stroke-width="2" stroke-linecap="round" stroke-linejoin="round"/>
<path d="M-9.31396 44.0471H42.9515" stroke="black" stroke-width="2" stroke-linecap="round" stroke-linejoin="round"/>
<path d="M-0.877686 22.1089V49.4201" stroke="black" stroke-width="2" stroke-linecap="round" stroke-linejoin="round"/>
<path d="M7.83618 22.1089V49.4201" stroke="black" stroke-width="2" stroke-linecap="round" stroke-linejoin="round"/>
<path d="M16.55 22.1089V49.4201" stroke="black" stroke-width="2" stroke-linecap="round" stroke-linejoin="round"/>
<path d="M25.2642 22.1089V49.4201" stroke="black" stroke-width="2" stroke-linecap="round" stroke-linejoin="round"/>
<path d="M33.978 22.1089V49.4201" stroke="black" stroke-width="2" stroke-linecap="round" stroke-linejoin="round"/>
<path d="M-9.88208 14.328H50.6837C54.763 14.328 58.1004 17.0462 58.1004 20.3697V74.1415C58.1004 77.4638 54.763 80.1831 50.6837 80.1831H-9.50332" stroke="black" stroke-width="2" stroke-linecap="round" stroke-linejoin="round"/>
<path d="M208.36 7.24057L203.369 -2.35263C202.67 -3.68672 201.471 -4.68995 200.035 -5.14315C198.599 -5.59636 197.042 -5.46271 195.703 -4.7714L169.233 9.00045C167.899 9.69947 166.896 10.8981 166.443 12.3344C165.99 13.7707 166.123 15.328 166.815 16.6661L180.662 43.2792C181.361 44.6131 182.56 45.6163 183.996 46.0695C185.432 46.5227 186.989 46.3891 188.328 45.6979L214.799 31.9259C216.132 31.2265 217.135 30.0278 217.588 28.5916C218.041 27.1554 217.907 25.5984 217.216 24.2605L212.103 14.4333" stroke="black" stroke-width="2.0005" stroke-linecap="round" stroke-linejoin="round"/>
<path d="M194.626 35.2427C202.691 33.818 208.074 26.1248 206.65 18.0596C205.225 9.99428 197.532 4.61105 189.467 6.03578C181.401 7.46051 176.018 15.1537 177.443 23.219C178.867 31.2842 186.561 36.6675 194.626 35.2427Z" stroke="black" stroke-width="2.0005" stroke-linecap="round" stroke-linejoin="round"/>
<path d="M206.267 15.9622L215.733 10.8388C216.361 10.5262 216.84 9.97969 217.069 9.31688C217.298 8.65407 217.258 7.92788 216.957 7.29448C216.781 6.99671 216.548 6.73653 216.272 6.52879C215.995 6.32105 215.68 6.16983 215.345 6.08376C215.01 5.99768 214.661 5.97844 214.319 6.02714C213.976 6.07583 213.647 6.19151 213.349 6.36756L203.912 11.4806" stroke="black" stroke-width="2.0005" stroke-linecap="round" stroke-linejoin="round"/>
<mask id="mask1_49_446" style="mask-type:luminance" maskUnits="userSpaceOnUse" x="2" y="89" width="64" height="42">
<path d="M6.63425 130.86L65.2244 97.0317L60.7672 89.3119L2.17708 123.14L6.63425 130.86Z" fill="white"/>
</mask>
<g mask="url(#mask1_49_446)">
<path d="M11.8789 123.761L54.5862 99.1028L52.3368 95.207L9.62957 119.865L11.8789 123.761Z" stroke="black" stroke-width="2" stroke-linecap="round" stroke-linejoin="round"/>
<path d="M7.60612 121.033L3.80482 123.228L6.05417 127.124L9.85547 124.929" stroke="black" stroke-width="2" stroke-linecap="round" stroke-linejoin="round"/>
<path d="M9.26613 125.505L10.3226 127.335C10.3226 127.335 15.3696 125.13 23.4252 119.928" stroke="black" stroke-width="2" stroke-linecap="round" stroke-linejoin="round"/>
<path d="M54.7667 98.9986L61.1891 92.7717L52.1089 95.3386" stroke="black" stroke-width="2" stroke-linecap="round" stroke-linejoin="round"/>
</g>
<mask id="mask2_49_446" style="mask-type:luminance" maskUnits="userSpaceOnUse" x="168" y="44" width="65" height="70">
<path d="M232.355 64.7506L205.363 44.4138L168.492 93.3507L195.484 113.688L232.355 64.7506Z" fill="white"/>
</mask>
<g mask="url(#mask2_49_446)">
<path d="M228.195 62.8476L208.339 47.8873C206.801 46.7284 204.615 47.0359 203.456 48.574L171.965 90.3703C170.806 91.9084 171.113 94.0948 172.651 95.2536L192.507 110.214C194.045 111.373 196.232 111.065 197.39 109.527L228.881 67.7309C230.04 66.1928 229.733 64.0065 228.195 62.8476Z" stroke="black" stroke-width="2.0008" stroke-linecap="round" stroke-linejoin="round"/>
<path d="M199.503 54.0677L224.691 73.0452" stroke="black" stroke-width="2.0008" stroke-linecap="round" stroke-linejoin="round"/>
<path d="M177.524 83.2394L202.712 102.217" stroke="black" stroke-width="2.0008" stroke-linecap="round" stroke-linejoin="round"/>
<path d="M188.08 99.4899C187.788 99.8745 187.389 100.164 186.934 100.322C186.478 100.48 185.985 100.5 185.518 100.378C185.051 100.256 184.631 99.999 184.31 99.6385C183.99 99.278 183.783 98.8306 183.716 98.3527C183.65 97.8749 183.726 97.388 183.936 96.9536C184.146 96.5192 184.48 96.1568 184.896 95.9122C185.312 95.6675 185.791 95.5516 186.273 95.5791C186.755 95.6066 187.217 95.7762 187.603 96.0665C187.859 96.2597 188.075 96.5017 188.238 96.7784C188.401 97.0551 188.507 97.3613 188.552 97.6793C188.596 97.9973 188.577 98.3209 188.496 98.6316C188.415 98.9423 188.273 99.234 188.08 99.4899Z" stroke="black" stroke-width="2.0008" stroke-linecap="round" stroke-linejoin="round"/>
<path d="M212.208 57.6379L217.755 61.8174" stroke="black" stroke-width="2.0008" stroke-linecap="round" stroke-linejoin="round"/>
</g>
<path d="M54.1384 161.659C54.1384 166.467 52.7125 171.168 50.041 175.166C47.3694 179.165 43.5723 182.281 39.1296 184.121C34.687 185.961 29.7985 186.443 25.0822 185.505C20.366 184.567 16.0338 182.251 12.6336 178.851C9.23334 175.45 6.91775 171.118 5.97963 166.402C5.04151 161.686 5.52299 156.797 7.36318 152.355C9.20337 147.912 12.3196 144.115 16.3179 141.443C20.3161 138.772 25.0168 137.346 29.8255 137.346C33.0183 137.346 36.1798 137.975 39.1296 139.197C42.0794 140.418 44.7597 142.209 47.0173 144.467C49.275 146.725 51.0659 149.405 52.2877 152.355C53.5096 155.304 54.1384 158.466 54.1384 161.659Z" stroke="black" stroke-width="2" stroke-linecap="round" stroke-linejoin="round"/>
<path d="M19.2637 193.118C19.1819 190.803 19.2933 188.485 19.5965 186.188C19.8393 184.34 20.2026 182.509 20.6841 180.709C21.1143 179.023 21.6843 177.377 22.3884 175.786L22.4286 175.702C21.3661 176.105 20.2817 176.448 19.1806 176.729C17.5625 177.155 15.9125 177.449 14.2468 177.608L13.6781 177.649L13.7873 177.09C13.7907 177.07 14.1677 175.155 14.9381 172.537C15.8315 169.399 17.0406 166.36 18.5469 163.467L18.9244 162.77C18.194 162.264 17.5089 161.695 16.8767 161.071C15.9324 160.135 15.1 159.093 14.3961 157.965C13.6748 156.843 13.097 155.636 12.6765 154.37L12.5719 154.016L12.9042 153.855C13.8905 153.406 14.9104 153.036 15.9547 152.747C18.3876 152.042 20.9107 151.698 23.4435 151.724C23.9344 151.733 24.431 151.758 24.9103 151.798L25.3518 151.835L25.3082 152.276C25.1288 153.884 24.8509 155.481 24.4763 157.056C23.6548 160.483 22.5592 162.754 21.2149 163.802L20.9989 163.971L20.7531 163.849C20.2018 163.575 19.6682 163.267 19.1556 162.926L19.3462 163.545C19.7919 164.8 20.4216 165.982 21.2149 167.052C21.9648 168.087 22.8677 169.002 23.8925 169.766C25.1288 170.679 26.5396 171.328 28.0374 171.674L28.3581 171.748C27.8999 171.06 27.4796 170.348 27.0992 169.614L26.8953 169.22L27.2921 169.023C27.3543 168.993 28.8339 168.261 30.8254 167.526C33.5209 166.531 35.748 166.042 37.4438 166.074C38.0517 166.072 38.6558 166.17 39.2319 166.364L39.4892 166.458L39.5171 166.731C39.5849 167.416 39.6044 168.105 39.5753 168.793L39.9238 168.514C40.9253 167.636 41.7911 166.615 42.4927 165.483C43.1777 164.404 43.6947 163.227 44.0263 161.992C44.4187 160.506 44.5014 158.955 44.2691 157.436L44.2203 157.114C43.9072 157.691 43.5609 158.276 43.1746 158.852L42.9295 159.22L42.5647 158.969C41.2424 158.035 39.9786 157.022 38.7805 155.933C36.175 153.558 34.7169 151.501 34.4474 149.819L34.4038 149.548L34.6292 149.392C37.4535 147.497 40.8006 146.535 44.2 146.641C45.0824 146.646 45.9624 146.732 46.8292 146.897L47.1895 146.977L47.1709 147.346C47.0734 148.589 46.8676 149.821 46.5562 151.028C46.0697 153.004 45.3544 154.917 44.4248 156.727L44.907 156.989C46.4477 157.848 47.8628 158.916 49.1124 160.161C50.2527 161.286 51.2975 162.503 52.236 163.801C53.2298 165.147 54.112 166.572 54.874 168.062L55.1232 168.576L54.562 168.681C51.0488 169.281 47.4891 169.567 43.9252 169.536C42.6614 169.517 41.3994 169.434 40.144 169.288L39.5532 169.217C39.4999 169.982 39.3895 170.742 39.2231 171.491C38.9325 172.788 38.4922 174.047 37.9109 175.243C37.3437 176.45 36.6274 177.582 35.7788 178.612L35.5349 178.889L35.2223 178.693C34.1828 178.005 33.2052 177.228 32.3008 176.37C30.9197 175.088 29.6805 173.661 28.6045 172.114L28.2181 172.436C26.8503 173.55 25.3357 174.471 23.7171 175.172L23.5718 175.237C24.4778 174.955 25.422 174.817 26.3707 174.826C27.5503 174.845 28.7101 175.133 29.7616 175.669C30.6418 176.121 31.4438 176.711 32.1375 177.417C32.8828 178.157 33.5137 179.005 34.0094 179.931L34.1087 180.133L34.0012 180.331C32.9643 182.123 31.7569 183.811 30.3955 185.372C29.0559 186.943 27.5783 188.391 25.9804 189.698C24.1216 191.226 22.071 192.505 19.8806 193.502L19.291 193.766L19.2637 193.118ZM50.6373 189.807C48.6352 188.641 46.7337 187.311 44.9528 185.829C43.5189 184.638 42.1646 183.354 40.8986 181.986C39.7028 180.724 38.6147 179.363 37.6454 177.92L37.5548 177.775L37.585 177.608C37.8264 176.132 38.4189 174.736 39.3126 173.537C40.0376 172.603 40.964 171.845 42.0227 171.319C43.5182 170.597 45.1628 170.239 46.8229 170.273C47.1447 170.278 47.3376 170.298 47.3458 170.299L47.57 170.323L47.6798 170.52C48.643 172.353 49.4269 174.274 50.0204 176.258C50.6343 178.229 51.0707 180.251 51.3245 182.3C51.6257 184.688 51.6132 187.105 51.2873 189.491L51.1956 190.13L50.6373 189.807ZM8.35496 170.517C4.43004 170.454 0.533315 169.841 -3.22176 168.697L-3.83984 168.508L-3.43322 168.006C-1.90567 166.146 -0.141022 164.493 1.81555 163.09C3.49047 161.883 5.27008 160.829 7.13325 159.94C8.99176 159.027 10.9339 158.295 12.9327 157.755L13.1517 157.703L13.3214 157.851C14.3875 158.851 15.2377 160.059 15.8194 161.4C16.3568 162.617 16.588 163.947 16.4926 165.275C16.3243 166.992 15.667 168.625 14.5988 169.98L14.4971 170.117L14.3299 170.147C12.5966 170.421 10.8434 170.548 9.08878 170.526C8.85099 170.524 8.60631 170.521 8.35496 170.517ZM23.946 168.666C23.7488 167.645 23.6406 166.609 23.6229 165.569C23.549 163.186 23.8802 160.808 24.6024 158.535L25.4505 158.633C25.5779 159.527 25.9047 160.38 26.4067 161.131C26.8773 161.837 27.5099 162.42 28.2517 162.832C29.3046 163.385 30.478 163.669 31.6671 163.658C32.2044 163.665 32.7415 163.637 33.275 163.573L34.3584 163.446L33.6613 164.285C32.804 165.309 31.7886 166.19 30.6533 166.894C29.7107 167.479 28.7034 167.953 27.6517 168.306C26.6006 168.673 25.5078 168.907 24.3986 169.003L24.0297 169.022L23.946 168.666ZM33.9803 165.597C35.0233 164.589 35.6609 163.234 35.773 161.788C35.87 160.009 35.0707 158.183 33.3983 156.36L32.661 155.556L33.7491 155.631C35.0817 155.725 36.3907 156.031 37.6269 156.537C38.6538 156.958 39.6285 157.496 40.5315 158.141C41.4465 158.777 42.278 159.526 43.0068 160.369L43.2391 160.656L42.9946 160.932C42.2831 161.69 41.5071 162.385 40.6755 163.009C38.7877 164.466 36.6663 165.592 34.4015 166.339L33.9803 165.597ZM31.1611 163.577C30.1744 163.568 29.2313 163.169 28.5382 162.466C27.8452 161.764 27.4585 160.815 27.4629 159.829C27.4673 158.842 27.8624 157.897 28.5616 157.201C29.2609 156.505 30.2075 156.114 31.1942 156.114C32.181 156.114 33.1274 156.505 33.8267 157.201C34.526 157.897 34.9211 158.842 34.9255 159.829C34.9298 160.815 34.5432 161.764 33.8501 162.466C33.1571 163.169 32.214 163.568 31.2273 163.577H31.1611ZM50.2602 160.618C48.8365 159.645 47.7214 158.284 47.0471 156.697C46.5597 155.459 46.3826 154.12 46.5313 152.798C46.685 151.344 47.1347 149.937 47.8528 148.664L47.9691 148.472L48.1939 148.457C48.2189 148.457 48.819 148.416 49.8461 148.434C52.312 148.483 54.7667 148.781 57.1728 149.323C60.6238 150.064 63.9112 151.427 66.8742 153.345L67.4127 153.702L66.8795 154.068C64.967 155.376 62.9488 156.522 60.846 157.495C59.1544 158.278 57.4134 158.95 55.6343 159.507C53.9803 160.045 52.2841 160.444 50.5634 160.699L50.3944 160.719L50.2602 160.618ZM26.3341 158.364C26.0457 157.059 25.9674 155.718 26.1018 154.388C26.2146 153.285 26.455 152.198 26.818 151.15C27.1686 150.093 27.6505 149.083 28.2523 148.145L28.3052 148.069C26.6815 148.616 25.2049 149.528 23.989 150.735L23.3656 151.351L23.2495 150.482C23.0371 148.731 23.0667 146.958 23.3377 145.215C23.5758 143.631 23.9451 142.07 24.4415 140.547C24.9448 138.951 25.5773 137.399 26.3329 135.906L26.6014 135.403L27.0167 135.794C27.0306 135.807 28.4487 137.148 30.2519 139.197C32.4279 141.628 34.3523 144.272 35.9956 147.09L36.5003 147.992L35.5017 147.723C34.6061 147.516 33.6905 147.408 32.7714 147.4C31.3893 147.37 30.0108 147.554 28.6852 147.946L28.7955 147.998C29.7246 148.465 30.6112 149.011 31.4451 149.632C33.3776 151.029 35.0588 152.744 36.4168 154.704L35.8218 155.316C34.9561 154.827 33.9829 154.559 32.9887 154.536C31.9997 154.518 31.0251 154.774 30.1724 155.275C28.9029 156.074 27.8561 157.18 27.1295 158.492L26.5677 159.427L26.3341 158.364ZM14.0702 152.555C12.8121 151.353 11.6566 150.049 10.616 148.655C9.48383 147.175 8.44964 145.622 7.52016 144.007C6.36345 142 5.37624 139.9 4.56858 137.729L4.34364 137.122L4.98966 137.141C7.39538 137.226 9.77962 137.626 12.0816 138.33C14.0574 138.929 15.9756 139.703 17.8131 140.644C19.667 141.567 21.4275 142.667 23.0699 143.928L23.2442 144.071L23.229 144.295C23.0813 145.75 22.6371 147.159 21.9238 148.435C21.282 149.6 20.3645 150.592 19.2515 151.321C17.7847 152.229 16.0886 152.697 14.3641 152.67H14.1944L14.0702 152.555ZM40.4229 146.674C39.2029 146.656 38.0044 146.35 36.9245 145.782C36.0251 145.303 35.212 144.676 34.5188 143.929C33.7708 143.141 33.1481 142.243 32.6727 141.267L32.5809 141.06L32.6971 140.866C33.8027 139.116 35.0746 137.475 36.4952 135.969C37.8943 134.451 39.4265 133.061 41.0734 131.817C42.9908 130.361 45.0903 129.163 47.3184 128.251L47.9179 128.01V128.656C47.9102 130.973 47.7095 133.286 47.3178 135.569C47.0035 137.407 46.5695 139.222 46.0188 141.003C45.5243 142.67 44.8908 144.294 44.125 145.855L44.046 146.006L43.8863 146.064C42.8234 146.457 41.7011 146.664 40.5681 146.677L40.4229 146.674Z" fill="#ABB1BD"/>
<path d="M241.981 165.585C242.865 171.165 242.074 176.881 239.709 182.011C237.345 187.14 233.512 191.454 228.695 194.405C223.879 197.357 218.295 198.814 212.651 198.592C207.007 198.37 201.555 196.48 196.985 193.159C192.415 189.839 188.932 185.238 186.977 179.939C185.022 174.639 184.682 168.879 186.001 163.386C187.319 157.893 190.237 152.915 194.385 149.081C198.533 145.246 203.725 142.728 209.304 141.844C216.786 140.659 224.432 142.495 230.56 146.947C236.688 151.4 240.796 158.104 241.981 165.585Z" stroke="black" stroke-width="2" stroke-linecap="round" stroke-linejoin="round"/>
<path d="M247.192 164.76C248.239 171.37 247.303 178.142 244.501 184.22C241.699 190.298 237.158 195.408 231.452 198.905C225.746 202.402 219.131 204.128 212.443 203.865C205.756 203.602 199.297 201.363 193.883 197.429C188.468 193.495 184.342 188.044 182.026 181.765C179.709 175.487 179.307 168.662 180.869 162.155C182.432 155.647 185.889 149.749 190.803 145.206C195.718 140.663 201.869 137.68 208.479 136.633C217.342 135.229 226.401 137.404 233.661 142.679C240.921 147.954 245.788 155.896 247.192 164.76Z" stroke="black" stroke-width="2" stroke-linecap="round" stroke-linejoin="round"/>
<mask id="mask3_49_446" style="mask-type:luminance" maskUnits="userSpaceOnUse" x="150" y="103" width="126" height="125">
<path d="M258.843 103.637L150.382 120.816L167.348 227.935L275.809 210.756L258.843 103.637Z" fill="white"/>
</mask>
<g mask="url(#mask3_49_446)">
<path d="M206.23 163.728C194.75 153.435 181.422 139.301 183.918 122.855C183.984 122.007 184.506 121.35 185.367 121.508C195.175 122.832 190.555 135.785 195.335 142.151C198.351 148.031 201.417 153.955 205.365 159.263C206.927 161.887 209.943 163.955 211.596 166.312C212.572 169.716 206.902 164.353 206.229 163.728" fill="#C0E2E2"/>
<path d="M207.745 173.303C197.364 182.804 183.327 193.475 168.596 188.351C168.413 188.323 168.237 188.258 168.081 188.159C167.924 188.059 167.79 187.929 167.687 187.775C167.584 187.622 167.514 187.448 167.481 187.266C167.448 187.084 167.454 186.897 167.497 186.717C169.574 177.377 180.94 183.999 187.154 180.386C192.768 178.409 198.427 176.392 203.605 173.413C206.13 172.322 208.279 169.721 210.569 168.497C213.75 168.104 208.371 172.751 207.742 173.303" fill="#C0E2E2"/>
<path d="M213.23 167.968C214.516 163.039 213.661 157.915 212.861 152.94C211.431 139.252 206.869 125.158 209.887 111.391C218.302 117.965 217.033 129.64 219.353 138.894C221.859 148.888 219.905 158.995 215.827 168.552" fill="#C0E2E2"/>
<path d="M213.496 170.062C209.995 173.546 207.906 178.245 205.855 182.791C199.669 194.92 195.481 208.926 186.113 218.94C183.625 209.324 190.66 200.199 193.885 191.335C197.368 181.762 204.065 174.281 211.968 168.302" fill="#C0E2E2"/>
<path d="M214.622 169.022C218.986 167.03 223.929 166.865 228.723 166.678C241.769 165.494 255.773 166.962 268.071 161.898C260.377 155.75 249.71 158.922 240.639 158.546C230.844 158.14 221.766 161.629 213.596 166.868" fill="#C0E2E2"/>
<path d="M218.831 155.327C225.118 144.456 226.442 132.183 230.108 120.486C230.194 120.086 230.418 119.729 230.74 119.478C231.063 119.226 231.463 119.096 231.872 119.109C236.092 118.77 238.302 122.715 235.889 125.904C232.839 134.21 230.489 142.799 226.032 150.613C223.815 154.148 218.806 164.403 215.497 165.792C214.011 164.492 218.175 156.81 218.828 155.324" fill="#C0E2E2"/>
<path d="M195.24 163.078C180.702 162.832 152.486 127.886 180.871 147.481C188.408 157.12 202.092 161.206 212.034 168.049C206.411 167.62 200.68 164.505 195.24 163.078Z" fill="#C0E2E2"/>
<path d="M216.96 184.823C223.476 197.82 205.576 239.015 209.793 204.78C214.846 193.634 212.126 179.615 213.586 167.634C215.81 172.817 215.705 179.339 216.96 184.821" fill="#C0E2E2"/>
<path d="M234.803 171.449C252.757 170.385 288.183 204.13 252.809 186.348C243.341 177.016 226.376 174.015 213.986 167.808C220.936 167.744 228.065 170.46 234.806 171.451" fill="#C0E2E2"/>
<path d="M192.382 171.604C188.035 172.351 183.629 172.935 179.224 172.716C173.697 172.441 168.315 170.911 163 169.373C160.79 168.734 158.288 167.831 157.487 165.674C160.742 164.353 164.144 163.429 167.62 162.922C169.588 162.575 171.598 162.545 173.575 162.832C175.278 163.215 176.947 163.736 178.565 164.39C183.541 166.092 188.742 167.045 193.998 167.218C196.543 167.322 202.888 167.277 205.36 167.683C205.933 167.778 212.297 167.085 212.359 167.855C212.44 168.869 202.678 169.862 201.899 170.081C198.853 170.933 195.497 171.067 192.383 171.603" fill="#C0E2E2"/>
<path d="M232.461 160.695C236.764 159.152 241.038 157.437 244.915 155.024C249.776 151.996 253.879 147.955 257.922 143.936C259.603 142.266 261.416 140.22 261.068 137.942C257.464 138.437 253.93 139.351 250.537 140.664C248.587 141.353 246.756 142.339 245.107 143.588C243.76 144.777 242.51 146.072 241.368 147.459C237.7 151.46 233.474 154.909 228.82 157.701C226.571 159.074 220.811 162.235 218.777 163.836C218.306 164.205 212.208 166.817 212.534 167.515C212.965 168.437 222.286 164.376 223.1 164.172C226.277 163.375 229.379 161.8 232.461 160.695" fill="#C0E2E2"/>
<path d="M212.474 148.351C212.345 143.943 212.043 139.508 210.954 135.234C209.587 129.871 207.02 124.902 204.458 119.996C203.392 117.956 202.01 115.683 199.738 115.326C199.089 118.779 198.857 122.297 199.049 125.805C199.099 127.802 199.468 129.778 200.141 131.659C200.855 133.252 201.697 134.784 202.66 136.24C205.316 140.78 207.282 145.688 208.496 150.805C209.103 153.278 210.317 159.506 211.206 161.849C211.41 162.393 211.996 168.767 212.763 168.674C213.773 168.552 212.809 158.786 212.869 157.98C213.101 154.826 212.566 151.511 212.474 148.351Z" fill="#C0E2E2"/>
<path d="M214.089 167.852C216.8 171.168 220.984 172.83 224.945 174.46C232.698 177.649 240.293 181.209 247.884 184.766C249.414 185.399 250.847 186.242 252.143 187.271C253.555 188.505 254.54 190.153 255.837 191.509C257.044 192.768 258.524 193.773 259.551 195.183C260.488 196.476 260.991 198.032 260.989 199.629C259.393 200.001 257.734 200.007 256.136 199.648C254.538 199.288 253.041 198.572 251.759 197.553C250.328 196.399 249.221 194.897 247.887 193.633C243.629 189.592 237.507 188.283 232.498 185.224C230.158 183.702 227.95 181.986 225.899 180.093L214.502 170.152" fill="#C0E2E2"/>
<path d="M213.322 167.561C215.06 171.889 215.486 176.643 216.646 181.176C217.891 186.042 219.974 190.63 221.507 195.408C223.069 200.275 224.222 205.631 227.77 209.145C229.239 210.505 230.904 211.638 232.708 212.507C235.448 213.944 238.283 215.19 241.193 216.238C241.218 214.812 240.868 213.404 240.177 212.156C239.487 210.907 238.48 209.863 237.259 209.126C236.08 208.462 234.751 208.147 233.613 207.4C231.858 206.245 230.797 204.219 229.815 202.284C226.24 195.244 222.666 188.204 219.093 181.165C218.295 179.691 217.619 178.155 217.071 176.572C216.454 174.62 216.222 172.545 215.475 170.643" fill="#C0E2E2"/>
<path d="M214.324 168.28C214.381 168.641 214.331 169.01 214.178 169.342C214.026 169.673 213.778 169.952 213.467 170.143C213.156 170.334 212.795 170.428 212.431 170.414C212.066 170.4 211.714 170.278 211.418 170.063C211.123 169.849 210.898 169.551 210.772 169.209C210.645 168.866 210.624 168.494 210.709 168.139C210.795 167.785 210.983 167.463 211.252 167.216C211.52 166.968 211.856 166.806 212.216 166.749C212.699 166.672 213.193 166.791 213.589 167.079C213.985 167.366 214.25 167.799 214.326 168.282" fill="#C0E2E2"/>
</g>
<mask id="mask4_49_446" style="mask-type:luminance" maskUnits="userSpaceOnUse" x="150" y="103" width="126" height="125">
<path d="M258.843 103.637L150.382 120.816L167.348 227.935L275.809 210.756L258.843 103.637Z" fill="white"/>
</mask>
<g mask="url(#mask4_49_446)">
<path d="M206.23 163.728C194.75 153.435 181.422 139.301 183.918 122.855C183.984 122.007 184.506 121.35 185.367 121.508C195.175 122.832 190.555 135.785 195.335 142.151C198.351 148.031 201.417 153.955 205.365 159.263C206.927 161.887 209.943 163.955 211.596 166.312C212.572 169.716 206.902 164.353 206.229 163.728" fill="#ABB1BD"/>
<path d="M207.745 173.303C197.364 182.804 183.327 193.475 168.596 188.351C168.413 188.323 168.237 188.258 168.081 188.159C167.924 188.059 167.79 187.929 167.687 187.775C167.584 187.622 167.514 187.448 167.481 187.266C167.448 187.084 167.454 186.897 167.497 186.717C169.574 177.377 180.94 183.999 187.154 180.386C192.768 178.409 198.427 176.392 203.605 173.413C206.13 172.322 208.279 169.721 210.569 168.497C213.75 168.104 208.371 172.751 207.742 173.303" fill="#ABB1BD"/>
<path d="M213.23 167.968C214.516 163.039 213.661 157.915 212.861 152.94C211.431 139.252 206.869 125.158 209.887 111.391C218.302 117.965 217.033 129.64 219.353 138.894C221.859 148.888 219.905 158.995 215.827 168.552" fill="#ABB1BD"/>
<path d="M213.496 170.062C209.995 173.546 207.906 178.245 205.855 182.791C199.669 194.92 195.481 208.926 186.113 218.94C183.625 209.324 190.66 200.199 193.885 191.335C197.368 181.762 204.065 174.281 211.968 168.302" fill="#ABB1BD"/>
<path d="M214.622 169.022C218.986 167.03 223.929 166.865 228.723 166.678C241.769 165.494 255.773 166.962 268.071 161.898C260.377 155.75 249.71 158.922 240.639 158.546C230.844 158.14 221.766 161.629 213.596 166.868" fill="#ABB1BD"/>
<path d="M218.831 155.327C225.118 144.456 226.442 132.183 230.108 120.486C230.194 120.086 230.418 119.729 230.74 119.478C231.063 119.226 231.463 119.096 231.872 119.109C236.092 118.77 238.302 122.715 235.889 125.904C232.839 134.21 230.489 142.799 226.032 150.613C223.815 154.148 218.806 164.403 215.497 165.792C214.011 164.492 218.175 156.81 218.828 155.324" fill="#ABB1BD"/>
<path d="M195.24 163.078C180.702 162.832 152.486 127.886 180.871 147.481C188.408 157.12 202.092 161.206 212.034 168.049C206.411 167.62 200.68 164.505 195.24 163.078Z" fill="#ABB1BD"/>
<path d="M216.96 184.823C223.476 197.82 205.576 239.015 209.793 204.78C214.846 193.634 212.126 179.615 213.586 167.634C215.81 172.817 215.705 179.339 216.96 184.821" fill="#ABB1BD"/>
<path d="M234.803 171.449C252.757 170.385 288.183 204.13 252.809 186.348C243.341 177.016 226.376 174.015 213.986 167.808C220.936 167.744 228.065 170.46 234.806 171.451" fill="#ABB1BD"/>
<path d="M192.382 171.604C188.035 172.351 183.629 172.935 179.224 172.716C173.697 172.441 168.315 170.911 163 169.373C160.79 168.734 158.288 167.831 157.487 165.674C160.742 164.353 164.144 163.429 167.62 162.922C169.588 162.575 171.598 162.545 173.575 162.832C175.278 163.215 176.947 163.736 178.565 164.39C183.541 166.092 188.742 167.045 193.998 167.218C196.543 167.322 202.888 167.277 205.36 167.683C205.933 167.778 212.297 167.085 212.359 167.855C212.44 168.869 202.678 169.862 201.899 170.081C198.853 170.933 195.497 171.067 192.383 171.603" fill="#ABB1BD"/>
<path d="M232.461 160.695C236.764 159.152 241.038 157.437 244.915 155.024C249.776 151.996 253.879 147.955 257.922 143.936C259.603 142.266 261.416 140.22 261.068 137.942C257.464 138.437 253.93 139.351 250.537 140.664C248.587 141.353 246.756 142.339 245.107 143.588C243.76 144.777 242.51 146.072 241.368 147.459C237.7 151.46 233.474 154.909 228.82 157.701C226.571 159.074 220.811 162.235 218.777 163.836C218.306 164.205 212.208 166.817 212.534 167.515C212.965 168.437 222.286 164.376 223.1 164.172C226.277 163.375 229.379 161.8 232.461 160.695" fill="#ABB1BD"/>
<path d="M212.474 148.351C212.345 143.943 212.043 139.508 210.954 135.234C209.587 129.871 207.02 124.902 204.458 119.996C203.392 117.956 202.01 115.683 199.738 115.326C199.089 118.779 198.857 122.297 199.049 125.805C199.099 127.802 199.468 129.778 200.141 131.659C200.855 133.252 201.697 134.784 202.66 136.24C205.316 140.78 207.282 145.688 208.496 150.805C209.103 153.278 210.317 159.506 211.206 161.849C211.41 162.393 211.996 168.767 212.763 168.674C213.773 168.552 212.809 158.786 212.869 157.98C213.101 154.826 212.566 151.511 212.474 148.351Z" fill="#ABB1BD"/>
<path d="M214.089 167.852C216.8 171.168 220.984 172.83 224.945 174.46C232.698 177.649 240.293 181.209 247.884 184.766C249.414 185.399 250.847 186.242 252.143 187.271C253.555 188.505 254.54 190.153 255.837 191.509C257.044 192.768 258.524 193.773 259.551 195.183C260.488 196.476 260.991 198.032 260.989 199.629C259.393 200.001 257.734 200.007 256.136 199.648C254.538 199.288 253.041 198.572 251.759 197.553C250.328 196.399 249.221 194.897 247.887 193.633C243.629 189.592 237.507 188.283 232.498 185.224C230.158 183.702 227.95 181.986 225.899 180.093L214.502 170.152" fill="#ABB1BD"/>
<path d="M213.322 167.561C215.06 171.889 215.486 176.643 216.646 181.176C217.891 186.042 219.974 190.63 221.507 195.408C223.069 200.275 224.222 205.631 227.77 209.145C229.239 210.505 230.904 211.638 232.708 212.507C235.448 213.944 238.283 215.19 241.193 216.238C241.218 214.812 240.868 213.404 240.177 212.156C239.487 210.907 238.48 209.863 237.259 209.126C236.08 208.462 234.751 208.147 233.613 207.4C231.858 206.245 230.797 204.219 229.815 202.284C226.24 195.244 222.666 188.204 219.093 181.165C218.295 179.691 217.619 178.155 217.071 176.572C216.454 174.62 216.222 172.545 215.475 170.643" fill="#ABB1BD"/>
<path d="M214.324 168.28C214.381 168.641 214.331 169.01 214.178 169.342C214.026 169.673 213.778 169.952 213.467 170.143C213.156 170.334 212.795 170.428 212.431 170.414C212.066 170.4 211.714 170.278 211.418 170.063C211.123 169.849 210.898 169.551 210.772 169.209C210.645 168.866 210.624 168.494 210.709 168.139C210.795 167.785 210.983 167.463 211.252 167.216C211.52 166.968 211.856 166.806 212.216 166.749C212.699 166.672 213.193 166.791 213.589 167.079C213.985 167.366 214.25 167.799 214.326 168.282" fill="#ABB1BD"/>
</g>
<path d="M144.695 33.4708H87.6761C79.0702 33.4708 72.0688 40.6162 72.0688 49.3975V136.926C72.0688 145.708 79.0702 152.854 87.6761 152.854H144.695C153.301 152.854 160.302 145.709 160.302 136.926V49.3975C160.302 40.615 153.301 33.4708 144.695 33.4708Z" fill="#7A8293"/>
<path d="M142.336 37.0446H90.0463C82.1544 37.0446 75.7334 43.7294 75.7334 51.9466V133.842C75.7334 142.06 82.1544 148.745 90.0463 148.745H142.336C150.228 148.745 156.649 142.06 156.649 133.842V51.9466C156.649 43.7294 150.228 37.0446 142.336 37.0446Z" fill="#E4E6EA"/>
<path d="M81.2261 48.798H149.985V87.7608H81.2261V48.798Z" fill="#ABB1BD"/>
<path d="M92.8207 48.5476L132.191 126.446H81.3462V48.5476H92.8207Z" fill="#788295"/>
<path d="M81.2261 87.5104H149.985V126.474H81.2261V87.5104Z" fill="#E4E6EA"/>
<path d="M81.3462 126.446V87.5104H112.513L132.191 126.446H81.3462Z" fill="#ABB1BD"/>
<path d="M121.306 59.8356H143.382" stroke="black" stroke-width="3" stroke-linecap="round"/>
<path d="M121.306 67.9686H136.991" stroke="black" stroke-width="3" stroke-linecap="round"/>
<path d="M121.306 76.1016H143.382" stroke="black" stroke-width="3" stroke-linecap="round"/>
<path d="M89.4788 93.8199H143.382" stroke="black" stroke-width="3" stroke-linecap="round"/>
<path d="M89.4785 101.953H143.382" stroke="black" stroke-width="3" stroke-linecap="round"/>
<path d="M89.4788 110.086H143.382" stroke="black" stroke-width="3" stroke-linecap="round"/>
<path d="M89.4788 118.219H108.526" stroke="black" stroke-width="3" stroke-linecap="round"/>
<path d="M119.938 137.012H111.788C111.228 137.012 110.691 137.234 110.294 137.631C109.898 138.027 109.676 138.564 109.676 139.124C109.676 139.684 109.898 140.222 110.294 140.618C110.691 141.014 111.228 141.236 111.788 141.236H119.938C120.499 141.236 121.036 141.014 121.432 140.618C121.828 140.222 122.051 139.684 122.051 139.124C122.051 138.564 121.828 138.027 121.432 137.631C121.036 137.234 120.499 137.012 119.938 137.012Z" fill="#ACB1BC"/>
<path d="M115.788 54.6075H87.3223V81.9111H115.788V54.6075Z" fill="black"/>
<path d="M100.974 66.2461C103.059 66.2461 104.75 64.5555 104.75 62.4701C104.75 60.3846 103.059 58.694 100.974 58.694C98.8886 58.694 97.198 60.3846 97.198 62.4701C97.198 64.5555 98.8886 66.2461 100.974 66.2461Z" fill="#ABB1BD"/>
<path d="M100.911 67.2918C105.874 67.2918 107.528 71.7359 107.528 77.2187C105.176 77.1862 97.6888 77.5388 94.2927 77.2187C94.2933 71.7359 95.9484 67.2918 100.911 67.2918Z" fill="#ABB1BD"/>
</g>
</svg>
