<svg width="251" height="196" viewBox="0 0 251 196" fill="none" xmlns="http://www.w3.org/2000/svg">
<mask id="mask0_38_301" style="mask-type:luminance" maskUnits="userSpaceOnUse" x="0" y="0" width="251" height="196">
<path d="M250.634 0H0V196H250.634V0Z" fill="white"/>
</mask>
<g mask="url(#mask0_38_301)">
<path d="M249.423 77.2963H190.794C190.605 77.2963 190.423 77.221 190.289 77.087C190.155 76.9531 190.08 76.7714 190.08 76.5819C190.08 76.3924 190.155 76.2107 190.289 76.0767C190.423 75.9427 190.605 75.8675 190.794 75.8675H248.259L244.738 68.9372H190.794C190.61 68.9299 190.435 68.8514 190.307 68.7182C190.179 68.585 190.108 68.4075 190.108 68.2228C190.108 68.038 190.179 67.8605 190.307 67.7273C190.435 67.5941 190.61 67.5157 190.794 67.5084H245.172C245.304 67.5084 245.433 67.5451 245.545 67.6142C245.658 67.6833 245.749 67.7822 245.808 67.9L250.06 76.2591C250.116 76.368 250.142 76.4893 250.137 76.6115C250.133 76.7336 250.097 76.8525 250.033 76.9567C249.969 77.0609 249.879 77.147 249.773 77.2066C249.666 77.2663 249.546 77.2964 249.423 77.2963Z" fill="black"/>
<path d="M185.397 154.824C185.208 154.824 185.026 154.749 184.893 154.615C184.759 154.481 184.684 154.299 184.684 154.11V22.6513L163.9 1.21145C163.835 1.14415 163.784 1.06465 163.749 0.977483C163.715 0.890317 163.697 0.797192 163.699 0.703425C163.7 0.609658 163.72 0.517085 163.757 0.430992C163.794 0.344899 163.848 0.266972 163.916 0.201661C163.983 0.136349 164.062 0.0849318 164.149 0.0503445C164.237 0.0157572 164.33 -0.00132273 164.424 7.98848e-05C164.517 0.0014825 164.61 0.0213402 164.696 0.0585192C164.782 0.0956981 164.86 0.14947 164.925 0.216766L185.904 21.8648C186.034 21.9982 186.106 22.1768 186.106 22.3627V154.11C186.106 154.299 186.03 154.481 185.897 154.615C185.763 154.749 185.581 154.824 185.392 154.824" fill="black"/>
<path d="M180.23 28.9713H148.405C148.215 28.9713 148.034 28.896 147.9 28.762C147.766 28.628 147.691 28.4463 147.691 28.2569C147.691 28.0674 147.766 27.8857 147.9 27.7517C148.034 27.6177 148.215 27.5425 148.405 27.5425H180.229C180.419 27.5425 180.6 27.6177 180.734 27.7517C180.868 27.8857 180.944 28.0674 180.944 28.2569C180.944 28.4463 180.868 28.628 180.734 28.762C180.6 28.896 180.419 28.9713 180.229 28.9713" fill="black"/>
<path d="M180.23 37.3289H148.405C148.215 37.3289 148.034 37.2537 147.9 37.1197C147.766 36.9857 147.691 36.804 147.691 36.6145C147.691 36.425 147.766 36.2433 147.9 36.1094C148.034 35.9754 148.215 35.9001 148.405 35.9001H180.229C180.419 35.9001 180.6 35.9754 180.734 36.1094C180.868 36.2433 180.944 36.425 180.944 36.6145C180.944 36.804 180.868 36.9857 180.734 37.1197C180.6 37.2537 180.419 37.3289 180.229 37.3289" fill="black"/>
<path d="M180.23 49.8376H148.405C148.215 49.8376 148.034 49.7624 147.9 49.6284C147.766 49.4944 147.691 49.3127 147.691 49.1232C147.691 48.9338 147.766 48.7521 147.9 48.6181C148.034 48.4841 148.215 48.4088 148.405 48.4088H180.229C180.419 48.4088 180.6 48.4841 180.734 48.6181C180.868 48.7521 180.944 48.9338 180.944 49.1232C180.944 49.3127 180.868 49.4944 180.734 49.6284C180.6 49.7624 180.419 49.8376 180.229 49.8376" fill="black"/>
<path d="M180.23 58.1975H148.405C148.215 58.1975 148.034 58.1222 147.9 57.9883C147.766 57.8543 147.691 57.6726 147.691 57.4831C147.691 57.2936 147.766 57.1119 147.9 56.9779C148.034 56.844 148.215 56.7687 148.405 56.7687H180.229C180.419 56.7687 180.6 56.844 180.734 56.9779C180.868 57.1119 180.944 57.2936 180.944 57.4831C180.944 57.6726 180.868 57.8543 180.734 57.9883C180.6 58.1222 180.419 58.1975 180.229 58.1975" fill="black"/>
<path d="M180.23 72.3145H148.405C148.215 72.3145 148.034 72.2393 147.9 72.1053C147.766 71.9713 147.691 71.7896 147.691 71.6001C147.691 71.4107 147.766 71.229 147.9 71.095C148.034 70.961 148.215 70.8857 148.405 70.8857H180.229C180.419 70.8857 180.6 70.961 180.734 71.095C180.868 71.229 180.944 71.4107 180.944 71.6001C180.944 71.7896 180.868 71.9713 180.734 72.1053C180.6 72.2393 180.419 72.3145 180.229 72.3145" fill="black"/>
<path d="M180.23 80.6733H148.405C148.215 80.6733 148.034 80.598 147.9 80.4641C147.766 80.3301 147.691 80.1484 147.691 79.9589C147.691 79.7694 147.766 79.5877 147.9 79.4538C148.034 79.3198 148.215 79.2445 148.405 79.2445H180.229C180.419 79.2445 180.6 79.3198 180.734 79.4538C180.868 79.5877 180.944 79.7694 180.944 79.9589C180.944 80.1484 180.868 80.3301 180.734 80.4641C180.6 80.598 180.419 80.6733 180.229 80.6733" fill="black"/>
<path d="M180.23 93.1764H148.405C148.215 93.1764 148.034 93.1011 147.9 92.9672C147.766 92.8332 147.691 92.6515 147.691 92.462C147.691 92.2725 147.766 92.0908 147.9 91.9569C148.034 91.8229 148.215 91.7476 148.405 91.7476H180.229C180.419 91.7476 180.6 91.8229 180.734 91.9569C180.868 92.0908 180.944 92.2725 180.944 92.462C180.944 92.6515 180.868 92.8332 180.734 92.9672C180.6 93.1011 180.419 93.1764 180.229 93.1764" fill="black"/>
<path d="M180.231 101.541H148.405C148.216 101.541 148.034 101.466 147.901 101.332C147.767 101.198 147.692 101.016 147.692 100.827C147.692 100.638 147.767 100.456 147.901 100.322C148.034 100.188 148.216 100.113 148.405 100.113H180.23C180.419 100.113 180.6 100.188 180.734 100.322C180.868 100.456 180.943 100.638 180.943 100.827C180.943 101.016 180.868 101.198 180.734 101.332C180.6 101.466 180.419 101.541 180.23 101.541" fill="black"/>
<path d="M180.231 115.657H148.405C148.216 115.657 148.034 115.582 147.901 115.448C147.767 115.314 147.692 115.132 147.692 114.943C147.692 114.754 147.767 114.572 147.901 114.438C148.034 114.304 148.216 114.229 148.405 114.229H180.23C180.419 114.229 180.6 114.304 180.734 114.438C180.868 114.572 180.943 114.754 180.943 114.943C180.943 115.132 180.868 115.314 180.734 115.448C180.6 115.582 180.419 115.657 180.23 115.657" fill="black"/>
<path d="M180.231 124.016H148.405C148.216 124.016 148.034 123.94 147.901 123.806C147.767 123.673 147.692 123.491 147.692 123.302C147.692 123.112 147.767 122.931 147.901 122.797C148.034 122.663 148.216 122.588 148.405 122.588H180.23C180.419 122.588 180.6 122.663 180.734 122.797C180.868 122.931 180.943 123.112 180.943 123.302C180.943 123.491 180.868 123.673 180.734 123.806C180.6 123.94 180.419 124.016 180.23 124.016" fill="black"/>
<path d="M180.231 136.525H148.405C148.216 136.525 148.034 136.45 147.901 136.316C147.767 136.182 147.692 136.001 147.692 135.811C147.692 135.622 147.767 135.441 147.901 135.307C148.034 135.173 148.216 135.098 148.405 135.098H180.23C180.419 135.098 180.6 135.173 180.734 135.307C180.868 135.441 180.943 135.622 180.943 135.811C180.943 136.001 180.868 136.182 180.734 136.316C180.6 136.45 180.419 136.525 180.23 136.525" fill="black"/>
<path d="M180.231 144.884H148.405C148.216 144.884 148.034 144.809 147.901 144.675C147.767 144.541 147.692 144.36 147.692 144.17C147.692 143.981 147.767 143.799 147.901 143.665C148.034 143.532 148.216 143.456 148.405 143.456H180.23C180.419 143.456 180.6 143.532 180.734 143.665C180.868 143.799 180.943 143.981 180.943 144.17C180.943 144.36 180.868 144.541 180.734 144.675C180.6 144.809 180.419 144.884 180.23 144.884" fill="black"/>
<path d="M245.176 150.079C245.082 150.079 244.989 150.061 244.902 150.025C244.816 149.989 244.737 149.937 244.671 149.87C244.604 149.804 244.551 149.725 244.515 149.639C244.48 149.552 244.461 149.459 244.461 149.365V76.5801C244.468 76.3955 244.547 76.2209 244.68 76.0929C244.813 75.9649 244.991 75.8934 245.175 75.8934C245.36 75.8934 245.538 75.9649 245.671 76.0929C245.804 76.2209 245.883 76.3955 245.89 76.5801V149.365C245.89 149.554 245.815 149.736 245.681 149.87C245.547 150.004 245.365 150.079 245.176 150.079Z" fill="black"/>
<path d="M201.159 96.4652H190.621C190.527 96.4654 190.434 96.447 190.348 96.4112C190.261 96.3754 190.182 96.3228 190.116 96.2565C190.05 96.1902 189.997 96.1114 189.961 96.0247C189.925 95.9381 189.907 95.8452 189.907 95.7514V86.9481C189.907 85.3614 190.537 83.8397 191.659 82.7177C192.781 81.5958 194.303 80.9655 195.89 80.9655C197.476 80.9655 198.998 81.5958 200.12 82.7177C201.242 83.8397 201.872 85.3614 201.872 86.9481V95.7514C201.872 95.9407 201.797 96.1223 201.663 96.2562C201.529 96.39 201.348 96.4652 201.159 96.4652ZM191.336 95.0364H200.445V86.947C200.445 85.7391 199.965 84.5806 199.111 83.7265C198.257 82.8724 197.098 82.3926 195.89 82.3926C194.682 82.3926 193.524 82.8724 192.67 83.7265C191.816 84.5806 191.336 85.7391 191.336 86.947V95.0364Z" fill="black"/>
<path d="M220.292 96.4652H209.754C209.661 96.4654 209.568 96.447 209.481 96.4112C209.394 96.3754 209.316 96.3228 209.249 96.2565C209.183 96.1902 209.13 96.1114 209.095 96.0247C209.059 95.9381 209.04 95.8452 209.041 95.7514V86.9481C209.041 86.1624 209.195 85.3845 209.496 84.6586C209.797 83.9328 210.237 83.2733 210.793 82.7177C211.348 82.1622 212.008 81.7215 212.734 81.4209C213.46 81.1202 214.237 80.9655 215.023 80.9655C215.809 80.9655 216.587 81.1202 217.313 81.4209C218.038 81.7215 218.698 82.1622 219.254 82.7177C219.809 83.2733 220.25 83.9328 220.55 84.6586C220.851 85.3845 221.006 86.1624 221.006 86.9481V95.7514C221.006 95.9407 220.931 96.1223 220.797 96.2562C220.663 96.39 220.481 96.4652 220.292 96.4652ZM210.469 95.0364H219.578V86.947C219.578 85.7391 219.098 84.5806 218.244 83.7265C217.39 82.8724 216.232 82.3926 215.024 82.3926C213.816 82.3926 212.657 82.8724 211.803 83.7265C210.949 84.5806 210.469 85.7391 210.469 86.947V95.0364Z" fill="black"/>
<path d="M239.429 96.4652H228.891C228.702 96.4652 228.52 96.39 228.386 96.2562C228.252 96.1223 228.177 95.9407 228.177 95.7514V86.9481C228.177 85.3614 228.808 83.8397 229.93 82.7177C231.051 81.5958 232.573 80.9655 234.16 80.9655C235.747 80.9655 237.268 81.5958 238.39 82.7177C239.512 83.8397 240.142 85.3614 240.142 86.9481V95.7514C240.142 95.9407 240.067 96.1223 239.933 96.2562C239.8 96.39 239.618 96.4652 239.429 96.4652ZM229.606 95.0364H238.715V86.947C238.715 85.7391 238.235 84.5806 237.381 83.7265C236.527 82.8724 235.368 82.3926 234.16 82.3926C232.953 82.3926 231.794 82.8724 230.94 83.7265C230.086 84.5806 229.606 85.7391 229.606 86.947V95.0364Z" fill="black"/>
<path d="M201.159 118.2H190.621C190.527 118.2 190.434 118.182 190.348 118.146C190.261 118.11 190.182 118.058 190.116 117.991C190.05 117.925 189.997 117.846 189.961 117.76C189.925 117.673 189.907 117.58 189.907 117.486V108.683C189.907 107.096 190.537 105.575 191.659 104.453C192.781 103.331 194.303 102.7 195.89 102.7C197.476 102.7 198.998 103.331 200.12 104.453C201.242 105.575 201.872 107.096 201.872 108.683V117.486C201.873 117.58 201.854 117.673 201.818 117.76C201.783 117.846 201.73 117.925 201.664 117.991C201.597 118.058 201.519 118.11 201.432 118.146C201.345 118.182 201.252 118.2 201.159 118.2ZM191.336 116.772H200.445V108.683C200.445 107.475 199.965 106.317 199.111 105.462C198.257 104.608 197.098 104.129 195.89 104.129C194.682 104.129 193.524 104.608 192.67 105.462C191.816 106.317 191.336 107.475 191.336 108.683V116.772Z" fill="black"/>
<path d="M220.292 118.2H209.754C209.661 118.2 209.568 118.182 209.481 118.146C209.394 118.11 209.316 118.058 209.249 117.991C209.183 117.925 209.13 117.846 209.095 117.76C209.059 117.673 209.04 117.58 209.041 117.486V108.683C209.041 107.897 209.195 107.119 209.496 106.394C209.797 105.668 210.237 105.008 210.793 104.453C211.348 103.897 212.008 103.457 212.734 103.156C213.46 102.855 214.237 102.7 215.023 102.7C215.809 102.7 216.587 102.855 217.313 103.156C218.038 103.457 218.698 103.897 219.254 104.453C219.809 105.008 220.25 105.668 220.55 106.394C220.851 107.119 221.006 107.897 221.006 108.683V117.486C221.006 117.58 220.988 117.673 220.952 117.76C220.916 117.846 220.863 117.925 220.797 117.991C220.731 118.058 220.652 118.11 220.565 118.146C220.479 118.182 220.386 118.2 220.292 118.2ZM210.469 116.773H219.578V108.683C219.578 107.475 219.098 106.317 218.244 105.463C217.39 104.609 216.232 104.129 215.024 104.129C213.816 104.129 212.657 104.609 211.803 105.463C210.949 106.317 210.469 107.475 210.469 108.683V116.773Z" fill="black"/>
<path d="M239.429 118.2H228.891C228.797 118.2 228.704 118.182 228.618 118.146C228.531 118.11 228.452 118.058 228.386 117.991C228.32 117.925 228.267 117.846 228.231 117.76C228.195 117.673 228.177 117.58 228.177 117.486V108.683C228.177 107.096 228.808 105.575 229.93 104.453C231.051 103.331 232.573 102.7 234.16 102.7C235.747 102.7 237.268 103.331 238.39 104.453C239.512 105.575 240.142 107.096 240.142 108.683V117.486C240.143 117.58 240.124 117.673 240.088 117.76C240.053 117.846 240 117.925 239.934 117.991C239.867 118.058 239.789 118.11 239.702 118.146C239.615 118.182 239.522 118.2 239.429 118.2ZM229.606 116.772H238.715V108.683C238.715 107.475 238.235 106.317 237.381 105.462C236.527 104.608 235.368 104.129 234.16 104.129C232.953 104.129 231.794 104.608 230.94 105.462C230.086 106.317 229.606 107.475 229.606 108.683V116.772Z" fill="black"/>
<path d="M210.944 150.08C210.754 150.08 210.573 150.005 210.439 149.871C210.305 149.737 210.23 149.556 210.23 149.366V134.321C210.23 132.078 209.339 129.927 207.753 128.341C206.167 126.756 204.017 125.865 201.774 125.865C199.531 125.865 197.381 126.756 195.795 128.341C194.209 129.927 193.318 132.078 193.318 134.321V149.365C193.318 149.555 193.243 149.736 193.109 149.87C192.975 150.004 192.793 150.08 192.604 150.08C192.414 150.08 192.233 150.004 192.099 149.87C191.965 149.736 191.889 149.555 191.889 149.365V134.321C191.889 131.699 192.931 129.185 194.784 127.332C196.638 125.478 199.152 124.437 201.773 124.437C204.395 124.437 206.909 125.478 208.763 127.332C210.616 129.185 211.658 131.699 211.658 134.321V149.365C211.658 149.554 211.582 149.736 211.448 149.87C211.315 150.004 211.133 150.08 210.944 150.08Z" fill="black"/>
<path d="M237.966 150.08C237.777 150.08 237.596 150.005 237.462 149.871C237.328 149.737 237.253 149.556 237.253 149.366V134.321C237.253 132.078 236.362 129.927 234.776 128.342C233.19 126.756 231.039 125.865 228.797 125.865C226.554 125.865 224.403 126.756 222.817 128.342C221.232 129.927 220.341 132.078 220.341 134.321V149.365C220.341 149.555 220.265 149.736 220.132 149.87C219.998 150.004 219.816 150.08 219.626 150.08C219.437 150.08 219.255 150.004 219.121 149.87C218.987 149.736 218.912 149.555 218.912 149.365V134.321C218.912 131.699 219.953 129.185 221.807 127.332C223.661 125.478 226.175 124.437 228.796 124.437C231.418 124.437 233.932 125.478 235.785 127.332C237.639 129.185 238.68 131.699 238.68 134.321V149.365C238.68 149.555 238.605 149.736 238.471 149.87C238.337 150.004 238.156 150.08 237.966 150.08Z" fill="black"/>
<path d="M249.918 174.105H1.23063C1.0413 174.105 0.859735 174.03 0.725864 173.896C0.591993 173.762 0.516785 173.58 0.516785 173.391C0.516785 173.202 0.591993 173.02 0.725864 172.886C0.859735 172.752 1.0413 172.677 1.23063 172.677H249.918C250.108 172.677 250.289 172.752 250.423 172.886C250.557 173.02 250.632 173.202 250.632 173.391C250.632 173.58 250.557 173.762 250.423 173.896C250.289 174.03 250.108 174.105 249.918 174.105Z" fill="black"/>
<path d="M249.918 158.482H1.23063C1.0413 158.482 0.859735 158.407 0.725864 158.273C0.591993 158.139 0.516785 157.958 0.516785 157.768C0.516785 157.579 0.591993 157.397 0.725864 157.263C0.859735 157.13 1.0413 157.054 1.23063 157.054H249.918C250.108 157.054 250.289 157.13 250.423 157.263C250.557 157.397 250.632 157.579 250.632 157.768C250.632 157.958 250.557 158.139 250.423 158.273C250.289 158.407 250.108 158.482 249.918 158.482Z" fill="black"/>
<path d="M17.4538 71.0348H0.713242C0.523771 71.0348 0.34206 70.9595 0.208084 70.8255C0.0741074 70.6915 -0.00115967 70.5098 -0.00115967 70.3204C-0.00115967 70.1309 0.0741074 69.9492 0.208084 69.8152C0.34206 69.6812 0.523771 69.606 0.713242 69.606H16.5509L15.0818 63.3559H0.713242C0.528663 63.3486 0.354075 63.2701 0.226065 63.137C0.0980551 63.0038 0.0265588 62.8262 0.0265588 62.6415C0.0265588 62.4568 0.0980551 62.2792 0.226065 62.1461C0.354075 62.0129 0.528663 61.9344 0.713242 61.9271H15.6491C15.8103 61.9271 15.9668 61.9816 16.0931 62.0818C16.2194 62.1819 16.3082 62.3218 16.345 62.4787L18.1487 70.1576C18.1733 70.2624 18.1739 70.3715 18.1504 70.4766C18.1269 70.5818 18.0799 70.6802 18.013 70.7646C17.946 70.849 17.8609 70.9171 17.7638 70.9639C17.6668 71.0107 17.5604 71.0349 17.4527 71.0348" fill="black"/>
<path d="M15.6495 149.868C15.4601 149.868 15.2786 149.793 15.1447 149.659C15.0108 149.525 14.9356 149.344 14.9356 149.154V70.3185C14.9356 70.129 15.0109 69.9473 15.1449 69.8133C15.2788 69.6793 15.4605 69.6041 15.65 69.6041C15.8395 69.6041 16.0212 69.6793 16.1552 69.8133C16.2891 69.9473 16.3644 70.129 16.3644 70.3185V149.152C16.3644 149.341 16.2892 149.523 16.1553 149.657C16.0215 149.791 15.8399 149.866 15.6506 149.866" fill="black"/>
<path d="M65.4014 150.613C65.2121 150.613 65.0305 150.538 64.8967 150.404C64.7628 150.27 64.6876 150.089 64.6876 149.9V81.3125H21.5661C21.3816 81.3052 21.207 81.2268 21.079 81.0936C20.951 80.9604 20.8795 80.7828 20.8795 80.5981C20.8795 80.4134 20.951 80.2359 21.079 80.1027C21.207 79.9695 21.3816 79.891 21.5661 79.8837H65.4014C65.4952 79.8837 65.588 79.9022 65.6746 79.9381C65.7612 79.9739 65.8399 80.0265 65.9062 80.0928C65.9725 80.1591 66.025 80.2378 66.0609 80.3244C66.0968 80.411 66.1153 80.5038 66.1153 80.5976V149.894C66.1153 149.988 66.0968 150.081 66.0609 150.167C66.025 150.254 65.9725 150.332 65.9062 150.399C65.8399 150.465 65.7612 150.518 65.6746 150.553C65.588 150.589 65.4952 150.608 65.4014 150.608" fill="black"/>
<path d="M65.4007 81.3183C65.2114 81.3183 65.0298 81.2431 64.8959 81.1092C64.7621 80.9753 64.6868 80.7938 64.6868 80.6044V69.2311H21.5654C21.3759 69.2311 21.1942 69.1558 21.0603 69.0218C20.9263 68.8879 20.851 68.7062 20.851 68.5167C20.851 68.3272 20.9263 68.1455 21.0603 68.0115C21.1942 67.8775 21.3759 67.8023 21.5654 67.8023H65.4007C65.4944 67.8023 65.5873 67.8207 65.6739 67.8566C65.7605 67.8925 65.8392 67.9451 65.9054 68.0114C65.9717 68.0776 66.0243 68.1563 66.0602 68.2429C66.0961 68.3296 66.1145 68.4224 66.1145 68.5161V80.6C66.1145 80.6937 66.0961 80.7865 66.0602 80.8731C66.0243 80.9597 65.9717 81.0384 65.9054 81.1047C65.8392 81.171 65.7605 81.2236 65.6739 81.2595C65.5873 81.2953 65.4944 81.3138 65.4007 81.3138" fill="black"/>
<path d="M81.0904 154.222C80.9011 154.222 80.7195 154.147 80.5857 154.013C80.4518 153.879 80.3766 153.698 80.3766 153.508V52.5197C80.3766 52.3304 80.4518 52.1488 80.5857 52.015C80.7195 51.8811 80.9011 51.8059 81.0904 51.8059H141.247C141.436 51.8059 141.618 51.8812 141.752 52.0151C141.886 52.1491 141.961 52.3308 141.961 52.5203C141.961 52.7098 141.886 52.8915 141.752 53.0254C141.618 53.1594 141.436 53.2347 141.247 53.2347H81.8054V153.508C81.8054 153.698 81.7302 153.879 81.5963 154.013C81.4624 154.147 81.2809 154.222 81.0916 154.222" fill="black"/>
<path d="M94.3485 150.615C94.2548 150.615 94.162 150.597 94.0754 150.561C93.9888 150.525 93.9101 150.472 93.8438 150.406C93.7775 150.34 93.7249 150.261 93.689 150.174C93.6532 150.088 93.6347 149.995 93.6347 149.901V57.5716C93.6347 57.3821 93.71 57.2004 93.8439 57.0665C93.9779 56.9325 94.1596 56.8572 94.3491 56.8572C94.5386 56.8572 94.7203 56.9325 94.8543 57.0665C94.9883 57.2004 95.0635 57.3821 95.0635 57.5716V149.9C95.0635 150.089 94.9883 150.271 94.8544 150.405C94.7206 150.539 94.539 150.614 94.3497 150.614" fill="black"/>
<path d="M113.803 151.093C113.614 151.093 113.432 151.018 113.299 150.884C113.165 150.75 113.09 150.568 113.09 150.379V57.5716C113.09 57.3821 113.165 57.2004 113.299 57.0665C113.433 56.9325 113.614 56.8572 113.804 56.8572C113.993 56.8572 114.175 56.9325 114.309 57.0665C114.443 57.2004 114.518 57.3821 114.518 57.5716V150.378C114.518 150.567 114.443 150.749 114.309 150.883C114.175 151.016 113.994 151.092 113.805 151.092" fill="black"/>
<path d="M128.731 151.093C128.542 151.093 128.36 151.018 128.226 150.884C128.092 150.75 128.017 150.568 128.017 150.379V57.5716C128.017 57.3821 128.092 57.2004 128.226 57.0665C128.36 56.9325 128.542 56.8572 128.732 56.8572C128.921 56.8572 129.103 56.9325 129.237 57.0665C129.371 57.2004 129.446 57.3821 129.446 57.5716V150.378C129.446 150.567 129.371 150.749 129.237 150.883C129.103 151.016 128.921 151.092 128.732 151.092" fill="black"/>
<path d="M58.2645 89.2561H21.5654C21.3759 89.2561 21.1942 89.1808 21.0603 89.0469C20.9263 88.9129 20.851 88.7312 20.851 88.5417C20.851 88.3522 20.9263 88.1705 21.0603 88.0365C21.1942 87.9026 21.3759 87.8273 21.5654 87.8273H58.2645C58.454 87.8273 58.6357 87.9026 58.7697 88.0365C58.9036 88.1705 58.9789 88.3522 58.9789 88.5417C58.9789 88.7312 58.9036 88.9129 58.7697 89.0469C58.6357 89.1808 58.454 89.2561 58.2645 89.2561Z" fill="black"/>
<path d="M58.2645 97.8946H21.5654C21.3759 97.8946 21.1942 97.8193 21.0603 97.6854C20.9263 97.5514 20.851 97.3697 20.851 97.1802C20.851 96.9907 20.9263 96.809 21.0603 96.6751C21.1942 96.5411 21.3759 96.4658 21.5654 96.4658H58.2645C58.454 96.4658 58.6357 96.5411 58.7697 96.6751C58.9036 96.809 58.9789 96.9907 58.9789 97.1802C58.9789 97.3697 58.9036 97.5514 58.7697 97.6854C58.6357 97.8193 58.454 97.8946 58.2645 97.8946Z" fill="black"/>
<path d="M58.2652 106.532H21.5661C21.3768 106.532 21.1952 106.457 21.0613 106.323C20.9274 106.189 20.8522 106.007 20.8522 105.818C20.8522 105.629 20.9274 105.447 21.0613 105.313C21.1952 105.18 21.3768 105.104 21.5661 105.104H58.2652C58.4545 105.104 58.6361 105.18 58.7699 105.313C58.9038 105.447 58.979 105.629 58.979 105.818C58.979 106.007 58.9038 106.189 58.7699 106.323C58.6361 106.457 58.4545 106.532 58.2652 106.532Z" fill="black"/>
<path d="M58.2652 115.17H21.5661C21.3768 115.17 21.1952 115.095 21.0613 114.961C20.9274 114.828 20.8522 114.646 20.8522 114.457C20.8522 114.267 20.9274 114.086 21.0613 113.952C21.1952 113.818 21.3768 113.743 21.5661 113.743H58.2652C58.4545 113.743 58.6361 113.818 58.7699 113.952C58.9038 114.086 58.979 114.267 58.979 114.457C58.979 114.646 58.9038 114.828 58.7699 114.961C58.6361 115.095 58.4545 115.17 58.2652 115.17Z" fill="black"/>
<path d="M58.2649 123.809H21.5658C21.3765 123.809 21.1949 123.734 21.0611 123.6C20.9272 123.466 20.852 123.284 20.852 123.095C20.852 122.906 20.9272 122.724 21.0611 122.59C21.1949 122.456 21.3765 122.381 21.5658 122.381H58.2649C58.4542 122.381 58.6358 122.456 58.7697 122.59C58.9036 122.724 58.9788 122.906 58.9788 123.095C58.9788 123.284 58.9036 123.466 58.7697 123.6C58.6358 123.734 58.4542 123.809 58.2649 123.809Z" fill="black"/>
<path d="M58.2652 132.447H21.5661C21.3768 132.447 21.1952 132.372 21.0613 132.238C20.9274 132.105 20.8522 131.923 20.8522 131.734C20.8522 131.544 20.9274 131.363 21.0613 131.229C21.1952 131.095 21.3768 131.02 21.5661 131.02H58.2652C58.4545 131.02 58.6361 131.095 58.7699 131.229C58.9038 131.363 58.979 131.544 58.979 131.734C58.979 131.923 58.9038 132.105 58.7699 132.238C58.6361 132.372 58.4545 132.447 58.2652 132.447Z" fill="black"/>
<path d="M58.2652 141.091H21.5661C21.3768 141.091 21.1952 141.016 21.0613 140.882C20.9274 140.748 20.8522 140.567 20.8522 140.378C20.8522 140.188 20.9274 140.007 21.0613 139.873C21.1952 139.739 21.3768 139.664 21.5661 139.664H58.2652C58.4545 139.664 58.6361 139.739 58.7699 139.873C58.9038 140.007 58.979 140.188 58.979 140.378C58.979 140.567 58.9038 140.748 58.7699 140.882C58.6361 141.016 58.4545 141.091 58.2652 141.091Z" fill="black"/>
<path d="M58.2649 149.725H21.5658C21.3765 149.725 21.1949 149.65 21.0611 149.516C20.9272 149.383 20.852 149.201 20.852 149.012C20.852 148.822 20.9272 148.641 21.0611 148.507C21.1949 148.373 21.3765 148.298 21.5658 148.298H58.2649C58.4542 148.298 58.6358 148.373 58.7697 148.507C58.9036 148.641 58.9788 148.822 58.9788 149.012C58.9788 149.201 58.9036 149.383 58.7697 149.516C58.6358 149.65 58.4542 149.725 58.2649 149.725Z" fill="black"/>
<path d="M7.04355 97.1539C6.85423 97.1539 6.67266 97.0787 6.53879 96.9448C6.40492 96.8109 6.32971 96.6293 6.32971 96.44V80.5162C6.32971 80.3267 6.40498 80.145 6.53895 80.011C6.67293 79.8771 6.85464 79.8018 7.04411 79.8018C7.23358 79.8018 7.4153 79.8771 7.54927 80.011C7.68325 80.145 7.75851 80.3267 7.75851 80.5162V96.44C7.75851 96.6293 7.68331 96.8109 7.54944 96.9448C7.41556 97.0787 7.234 97.1539 7.04467 97.1539" fill="black"/>
<path d="M7.04355 123.513C6.85423 123.513 6.67266 123.438 6.53879 123.304C6.40492 123.17 6.32971 122.988 6.32971 122.799V106.874C6.32971 106.685 6.40498 106.503 6.53895 106.369C6.67293 106.235 6.85464 106.16 7.04411 106.16C7.23358 106.16 7.4153 106.235 7.54927 106.369C7.68325 106.503 7.75851 106.685 7.75851 106.874V122.798C7.75851 122.987 7.68331 123.169 7.54944 123.303C7.41556 123.437 7.234 123.512 7.04467 123.512" fill="black"/>
<path d="M7.04355 149.869C6.85423 149.869 6.67266 149.794 6.53879 149.66C6.40492 149.526 6.32971 149.344 6.32971 149.155V133.232C6.32971 133.043 6.40498 132.861 6.53895 132.727C6.67293 132.593 6.85464 132.518 7.04411 132.518C7.23358 132.518 7.4153 132.593 7.54927 132.727C7.68325 132.861 7.75851 133.043 7.75851 133.232V149.157C7.75851 149.346 7.68331 149.528 7.54944 149.662C7.41556 149.796 7.234 149.871 7.04467 149.871" fill="black"/>
<path d="M40.6852 65.1911C40.4958 65.1911 40.3143 65.1159 40.1804 64.9821C40.0465 64.8482 39.9713 64.6666 39.9713 64.4773V31.5913L2.08733 47.6763C1.9134 47.7474 1.71845 47.7472 1.54466 47.6757C1.37087 47.6043 1.23221 47.4672 1.15869 47.2943C1.08516 47.1213 1.08267 46.9264 1.15177 46.7517C1.22086 46.5769 1.35598 46.4364 1.52789 46.3605L40.4054 29.8537C40.5141 29.8074 40.6325 29.7888 40.7501 29.7996C40.8677 29.8103 40.9808 29.8501 41.0793 29.9153C41.1777 29.9805 41.2585 30.0691 41.3143 30.1732C41.3701 30.2772 41.3992 30.3935 41.399 30.5116V64.4762C41.399 64.6655 41.3238 64.8471 41.1899 64.9809C41.056 65.1148 40.8745 65.1911 40.6852 65.1911Z" fill="black"/>
<path d="M1.80765 59.1888C1.61833 59.1888 1.43676 59.1136 1.30289 58.9797C1.16902 58.8459 1.09381 58.6643 1.09381 58.475V47.0177C1.09381 46.8282 1.16908 46.6465 1.30305 46.5125C1.43703 46.3786 1.61874 46.3033 1.80821 46.3033C1.99768 46.3033 2.17939 46.3786 2.31337 46.5125C2.44735 46.6465 2.52261 46.8282 2.52261 47.0177V58.4738C2.52261 58.6632 2.44741 58.8447 2.31353 58.9786C2.17966 59.1125 1.99809 59.1877 1.80877 59.1877" fill="black"/>
<path d="M143.957 156.391C143.768 156.391 143.586 156.315 143.452 156.182C143.319 156.048 143.243 155.866 143.243 155.677V22.3628C143.243 22.1792 143.314 22.0025 143.44 21.8694L164.092 0.22367C164.156 0.150799 164.233 0.0915413 164.32 0.0494753C164.407 0.00740938 164.502 -0.0165919 164.599 -0.021079C164.695 -0.0255662 164.791 -0.0104461 164.882 0.0233681C164.972 0.0571824 165.055 0.108989 165.125 0.17566C165.195 0.242331 165.251 0.322482 165.289 0.411273C165.327 0.500065 165.347 0.595655 165.347 0.69227C165.347 0.788884 165.327 0.88452 165.289 0.973401C165.252 1.06228 165.196 1.14256 165.126 1.2094L144.674 22.6493V155.676C144.674 155.769 144.656 155.862 144.62 155.949C144.584 156.035 144.532 156.114 144.465 156.18C144.399 156.247 144.32 156.299 144.234 156.335C144.147 156.371 144.054 156.39 143.961 156.39" fill="black"/>
</g>
<path d="M137.417 156.83C137.945 154.834 138.363 152.811 138.67 150.769C138.67 140.377 132.38 131.952 124.62 131.952C122.987 132.001 121.382 132.384 119.902 133.078C118.423 133.772 117.102 134.762 116.021 135.987C115.186 126.662 109.327 119.407 102.139 119.407C95.9404 119.407 90.7398 124.819 88.8735 132.274C80.4618 133.255 73.4208 136.741 69.3559 141.542C66.9414 135.836 62.4189 131.947 57.1781 131.947C49.4175 131.947 43.1284 140.373 43.1284 150.765C33.3628 147.618 27.181 153.573 27.181 157.037" fill="#ABB1BD"/>
<path d="M152.998 156.929C152.998 156.929 159.887 142.151 170.9 144.851C177.51 131.346 186.324 139.449 186.324 139.449C186.324 139.449 199.546 117.84 212.768 136.748C221.582 128.645 228.194 142.15 228.194 142.15C228.194 142.15 244.783 132.689 249.191 156.997" fill="#ABB1BD"/>
<path d="M108.823 44.3988H99.7045V196H108.823V44.3988Z" fill="black"/>
<path d="M98.6395 90.5498H38.5761C38.456 90.5497 38.3375 90.522 38.2299 90.4688C38.1222 90.4157 38.0282 90.3385 37.9551 90.2432L28.382 77.6547C28.279 77.5187 28.2233 77.3527 28.2233 77.182C28.2233 77.0114 28.279 76.8454 28.382 76.7093L37.9551 64.1522C38.0282 64.0569 38.1222 63.9797 38.2299 63.9265C38.3375 63.8734 38.456 63.8457 38.5761 63.8456H98.5478C99.6952 63.8041 100.818 64.1829 101.706 64.9108C101.989 65.1891 102.211 65.5227 102.36 65.8908C102.508 66.2588 102.579 66.6534 102.568 67.05V87.3498C102.578 87.7462 102.507 88.1405 102.358 88.5081C102.21 88.8758 101.987 89.2089 101.704 89.4868C100.845 90.1964 99.7592 90.5736 98.6451 90.5498" fill="#ABB1BD"/>
<path d="M41.9204 81.3802C41.7133 81.3794 41.515 81.2965 41.3688 81.1497L37.9093 77.6902C37.7641 77.5435 37.6826 77.3455 37.6826 77.1391C37.6826 76.9328 37.7641 76.7347 37.9093 76.5881L41.3688 73.1274C41.5187 72.9991 41.7114 72.9321 41.9085 72.9397C42.1056 72.9473 42.2926 73.029 42.4321 73.1685C42.5716 73.308 42.6533 73.495 42.6609 73.6921C42.6685 73.8892 42.6015 74.0819 42.4731 74.2317L39.5641 77.1408L42.4731 80.0499C42.581 80.1595 42.6543 80.2985 42.6837 80.4495C42.7131 80.6004 42.6974 80.7567 42.6386 80.8988C42.5798 81.041 42.4804 81.1626 42.3529 81.2486C42.2254 81.3346 42.0754 81.3812 41.9215 81.3825L41.9204 81.3802Z" fill="black"/>
<path d="M92.3959 73.7086H51.143C50.9474 73.692 50.7652 73.6026 50.6324 73.4581C50.4996 73.3136 50.4259 73.1245 50.4259 72.9282C50.4259 72.7319 50.4996 72.5428 50.6324 72.3983C50.7652 72.2537 50.9474 72.1643 51.143 72.1478H92.3959C92.5915 72.1643 92.7737 72.2537 92.9065 72.3983C93.0393 72.5428 93.113 72.7319 93.113 72.9282C93.113 73.1245 93.0393 73.3136 92.9065 73.4581C92.7737 73.6026 92.5915 73.692 92.3959 73.7086Z" fill="black"/>
<path d="M92.3259 82.8197H51.2632C51.0676 82.8032 50.8854 82.7138 50.7526 82.5692C50.6198 82.4247 50.5461 82.2356 50.5461 82.0393C50.5461 81.843 50.6198 81.6539 50.7526 81.5094C50.8854 81.3649 51.0676 81.2755 51.2632 81.2589H92.3259C92.434 81.2497 92.5427 81.2631 92.6453 81.2982C92.7479 81.3332 92.8421 81.3892 92.922 81.4626C93.0018 81.536 93.0656 81.6251 93.1091 81.7244C93.1528 81.8236 93.1753 81.9309 93.1753 82.0393C93.1753 82.1477 93.1528 82.255 93.1091 82.3543C93.0656 82.4535 93.0018 82.5427 92.922 82.616C92.8421 82.6894 92.7479 82.7454 92.6453 82.7805C92.5427 82.8155 92.434 82.8289 92.3259 82.8197Z" fill="black"/>
<path d="M109.87 90.5497C108.761 90.5697 107.681 90.191 106.827 89.4823C106.544 89.2045 106.321 88.8714 106.172 88.5037C106.024 88.136 105.952 87.7417 105.963 87.3452V67.0444C105.952 66.6479 106.024 66.2536 106.172 65.8859C106.321 65.5182 106.544 65.1851 106.827 64.9073C107.715 64.1804 108.838 63.8018 109.985 63.8422H169.957C170.077 63.8422 170.196 63.8699 170.303 63.9231C170.411 63.9762 170.505 64.0534 170.578 64.1487L180.152 76.7059C180.255 76.8419 180.311 77.0079 180.311 77.1786C180.311 77.3492 180.255 77.5152 180.152 77.6513L170.578 90.2375C170.505 90.3328 170.411 90.41 170.303 90.4632C170.196 90.5163 170.077 90.544 169.957 90.5441H109.873L109.87 90.5497Z" fill="#ABB1BD"/>
<path d="M166.605 81.3793C166.451 81.378 166.301 81.3314 166.174 81.2454C166.046 81.1594 165.947 81.0378 165.888 80.8956C165.829 80.7535 165.813 80.5972 165.843 80.4463C165.872 80.2953 165.945 80.1563 166.053 80.0467L168.962 77.1376L166.053 74.2285C165.927 74.0785 165.861 73.8863 165.869 73.6901C165.877 73.4938 165.959 73.3079 166.098 73.1691C166.237 73.0303 166.423 72.9487 166.619 72.9406C166.816 72.9325 167.008 72.9984 167.158 73.1253L170.617 76.5849C170.762 76.7315 170.844 76.9296 170.844 77.1359C170.844 77.3423 170.762 77.5403 170.617 77.687L167.158 81.1466C167.01 81.2911 166.812 81.3715 166.605 81.3703" fill="black"/>
<path d="M157.333 73.7086H116.126C115.931 73.692 115.748 73.6026 115.616 73.4581C115.483 73.3136 115.409 73.1245 115.409 72.9282C115.409 72.7319 115.483 72.5428 115.616 72.3983C115.748 72.2537 115.931 72.1643 116.126 72.1478H157.33C157.526 72.1643 157.708 72.2537 157.841 72.3983C157.973 72.5428 158.047 72.7319 158.047 72.9282C158.047 73.1245 157.973 73.3136 157.841 73.4581C157.708 73.6026 157.526 73.692 157.33 73.7086" fill="black"/>
<path d="M157.26 82.8202H116.197C116.002 82.8036 115.819 82.7142 115.687 82.5697C115.554 82.4252 115.48 82.2361 115.48 82.0398C115.48 81.8435 115.554 81.6544 115.687 81.5099C115.819 81.3653 116.002 81.2759 116.197 81.2594H157.26C157.456 81.2759 157.638 81.3653 157.771 81.5099C157.903 81.6544 157.977 81.8435 157.977 82.0398C157.977 82.2361 157.903 82.4252 157.771 82.5697C157.638 82.7142 157.456 82.8036 157.26 82.8202Z" fill="black"/>
<path d="M111.617 43.1584H96.9111C96.0145 43.1572 95.155 42.8004 94.5212 42.1663C93.8873 41.5322 93.5308 40.6726 93.5299 39.776V37.6949C93.5308 36.7983 93.8873 35.9387 94.5212 35.3046C95.155 34.6705 96.0145 34.3137 96.9111 34.3125H111.615C112.512 34.3137 113.372 34.6704 114.006 35.3045C114.64 35.9386 114.997 36.7982 114.998 37.6949V39.776C114.997 40.6727 114.64 41.5323 114.006 42.1664C113.372 42.8004 112.513 43.1572 111.617 43.1584Z" fill="black"/>
</svg>
