<svg width="400" height="320" viewBox="0 0 400 320" fill="none" xmlns="http://www.w3.org/2000/svg">
<g clip-path="url(#clip0_6264_8228)">
<path d="M23.5 96L23.5 201.559" stroke="#5AB3B3" stroke-width="2" stroke-linecap="round"/>
<path d="M230.865 96V178" stroke="#5AB3B3" stroke-width="2" stroke-linecap="round"/>
<path d="M230.865 178.75L230.865 203.411" stroke="#5AB3B3" stroke-width="2" stroke-linecap="round"/>
<path d="M174.25 147.5V102.795C174.25 102.243 174.698 101.795 175.25 101.795H219.875C220.427 101.795 220.875 102.243 220.875 102.795V160.946C220.875 161.499 220.427 161.946 219.875 161.946H182" stroke="#5AB3B3" stroke-width="2" stroke-linecap="round"/>
<rect x="34" y="101.562" width="46" height="60.4709" rx="1" stroke="#5AB3B3" stroke-width="2"/>
<rect x="10" y="20" width="235.932" height="75.1533" rx="1" stroke="#5AB3B3" stroke-width="2"/>
<rect x="16.1801" y="26.6132" width="223.572" height="61.927" rx="1" stroke="#5AB3B3" stroke-width="2"/>
<path d="M187.219 37.4318C187.735 36.2576 186.751 35.0938 185.475 35.2306C176.272 36.2185 169.713 40.5884 166.673 43.5392C166.313 43.8886 165.849 44.1118 165.349 44.1559C165.164 44.1723 164.979 44.1896 164.797 44.2078C163.359 44.3512 162.647 45.9761 163.291 47.2688C164.853 50.3991 165.709 53.8042 165.709 57.3655C165.709 60.9322 164.85 64.3423 163.283 67.4765C162.626 68.7924 163.375 70.449 164.841 70.5695C165.265 70.6044 165.697 70.6352 166.136 70.6617C166.611 70.6905 167.059 70.8826 167.417 71.1975C170.713 74.0988 176.963 77.9065 185.476 78.8202C186.751 78.9571 187.735 77.7931 187.219 76.6188C186.549 75.0944 185.575 73.6501 184.532 72.371C183.518 71.1279 184.08 69.1321 185.612 68.6552C189.377 67.4827 192.508 65.8961 194.995 64.0749C195.837 63.4585 197.01 63.498 197.788 64.1933C200.356 66.4881 203.775 68.9181 207.906 71.095C208.7 71.5138 209.708 71.3012 209.887 70.4211C210.427 67.7662 208.857 63.1251 207.068 60.1053C206.265 58.749 206.265 55.9807 207.068 54.6243C208.856 51.6045 210.427 46.9635 209.887 44.3086C209.708 43.4285 208.701 43.2158 207.906 43.6346C203.976 45.7057 200.689 48.0058 198.168 50.2005C197.389 50.8787 196.23 50.9058 195.389 50.3053C192.802 48.4565 189.422 46.9066 185.377 45.7998C183.784 45.3641 183.184 43.2834 184.248 42.0216C185.397 40.6604 186.489 39.0937 187.219 37.4318Z" fill="#5AB3B3"/>
<path fill-rule="evenodd" clip-rule="evenodd" d="M160.413 46.1367C159.981 45.4549 159.153 45.1432 158.373 45.3524C150.493 47.4668 145.814 51.7268 141.222 56.4843C140.519 57.2125 140.477 58.3564 141.144 59.1176C145.391 63.9649 150.269 67.7648 158.306 69.593C159.064 69.7656 159.855 69.4576 160.278 68.8049C162.535 65.3226 163.776 61.4317 163.776 57.3655C163.776 53.381 162.585 49.565 160.413 46.1367ZM155.076 50.7556C156.677 50.7556 157.976 52.1006 157.976 53.7599C157.976 55.4191 156.677 56.7642 155.076 56.7642C153.474 56.764 152.176 55.4189 152.176 53.7599C152.176 52.1007 153.474 50.7558 155.076 50.7556Z" fill="#5AB3B3"/>
<path d="M165 95.25L165 145.438" stroke="#5AB3B3" stroke-width="2"/>
<line x1="165" y1="187.407" x2="165" y2="203.411" stroke="#5AB3B3" stroke-width="2"/>
<path d="M89 96.1532L89 136.75" stroke="#5AB3B3" stroke-width="2"/>
<line x1="89" y1="187.145" x2="89" y2="204.084" stroke="#5AB3B3" stroke-width="2"/>
<path d="M47.1566 61.079C47.1566 61.9253 46.9515 62.661 46.5414 63.286C46.1312 63.911 45.5323 64.3928 44.7445 64.7313C43.9633 65.0699 43.0127 65.2391 41.8929 65.2391C41.3982 65.2391 40.9131 65.2066 40.4379 65.1415C39.9691 65.0764 39.5166 64.982 39.0804 64.8583C38.6508 64.7281 38.2406 64.5686 37.85 64.3798V61.5673C38.5271 61.8667 39.2302 62.1369 39.9594 62.3778C40.6885 62.6187 41.4112 62.7391 42.1273 62.7391C42.6221 62.7391 43.0192 62.674 43.3187 62.5438C43.6247 62.4136 43.8461 62.2346 43.9828 62.0067C44.1195 61.7788 44.1879 61.5184 44.1879 61.2255C44.1879 60.8674 44.0674 60.5614 43.8265 60.3075C43.5857 60.0536 43.2536 59.816 42.8304 59.5946C42.4138 59.3733 41.9418 59.1356 41.4144 58.8817C41.0824 58.7255 40.7211 58.5367 40.3304 58.3153C39.9398 58.0874 39.5687 57.8108 39.2172 57.4852C38.8656 57.1597 38.5759 56.7658 38.348 56.3036C38.1267 55.8348 38.016 55.2749 38.016 54.6239C38.016 53.771 38.2113 53.0419 38.6019 52.4364C38.9926 51.8309 39.5492 51.3687 40.2719 51.0497C41.001 50.7242 41.8604 50.5614 42.85 50.5614C43.5922 50.5614 44.2985 50.6493 44.9691 50.8251C45.6462 50.9943 46.3526 51.2417 47.0883 51.5673L46.1117 53.9208C45.4541 53.6538 44.8649 53.4488 44.3441 53.3055C43.8233 53.1558 43.2927 53.0809 42.7523 53.0809C42.3747 53.0809 42.0524 53.1428 41.7855 53.2665C41.5186 53.3837 41.3168 53.5529 41.1801 53.7743C41.0433 53.9891 40.975 54.2398 40.975 54.5262C40.975 54.8648 41.0726 55.1512 41.2679 55.3856C41.4698 55.6135 41.7692 55.8348 42.1664 56.0497C42.57 56.2645 43.0713 56.5152 43.6703 56.8016C44.3995 57.1467 45.0212 57.508 45.5355 57.8856C46.0564 58.2567 46.4567 58.6962 46.7367 59.204C47.0166 59.7053 47.1566 60.3303 47.1566 61.079ZM57.9672 65.0438H49.7445V50.7665H57.9672V53.2469H52.7719V56.3817H57.6058V58.8622H52.7719V62.5438H57.9672V65.0438ZM69.6957 65.0438L68.6605 61.6454H63.4554L62.4203 65.0438H59.1586L64.1976 50.7079H67.8988L72.9574 65.0438H69.6957ZM67.9379 59.1063L66.9027 55.786C66.8376 55.5647 66.7497 55.2815 66.639 54.9364C66.5349 54.5848 66.4274 54.23 66.3168 53.8719C66.2126 53.5074 66.128 53.1916 66.0629 52.9247C65.9978 53.1916 65.9066 53.5236 65.7894 53.9208C65.6788 54.3114 65.5713 54.6825 65.4672 55.0341C65.363 55.3856 65.2881 55.6363 65.2426 55.786L64.2172 59.1063H67.9379ZM77.7426 65.0438H74.764V50.7665H82.9476V53.2469H77.7426V56.9286H82.5863V59.3993H77.7426V65.0438ZM98.6996 57.8856C98.6996 58.9859 98.5629 59.9885 98.2894 60.8934C98.016 61.7919 97.5993 62.5666 97.0394 63.2177C96.486 63.8687 95.7829 64.37 94.9301 64.7216C94.0772 65.0666 93.0681 65.2391 91.9027 65.2391C90.7373 65.2391 89.7282 65.0666 88.8754 64.7216C88.0225 64.37 87.3161 63.8687 86.7562 63.2177C86.2028 62.5666 85.7894 61.7886 85.516 60.8837C85.2426 59.9787 85.1058 58.9729 85.1058 57.8661C85.1058 56.3882 85.3467 55.1024 85.8285 54.0087C86.3168 52.9084 87.0655 52.0555 88.0746 51.4501C89.0837 50.8446 90.3663 50.5419 91.9222 50.5419C93.4717 50.5419 94.7445 50.8446 95.7406 51.4501C96.7432 52.0555 97.4854 52.9084 97.9672 54.0087C98.4554 55.1089 98.6996 56.4012 98.6996 57.8856ZM88.2797 57.8856C88.2797 58.8817 88.4034 59.7411 88.6508 60.4637C88.9047 61.1799 89.2985 61.7333 89.8324 62.1239C90.3663 62.508 91.0564 62.7001 91.9027 62.7001C92.7621 62.7001 93.4587 62.508 93.9926 62.1239C94.5264 61.7333 94.9138 61.1799 95.1547 60.4637C95.4021 59.7411 95.5258 58.8817 95.5258 57.8856C95.5258 56.3882 95.2458 55.2098 94.6859 54.3505C94.126 53.4911 93.2048 53.0614 91.9222 53.0614C91.0694 53.0614 90.3728 53.2567 89.8324 53.6473C89.2985 54.0315 88.9047 54.5848 88.6508 55.3075C88.4034 56.0236 88.2797 56.883 88.2797 57.8856ZM114.618 57.8856C114.618 58.9859 114.481 59.9885 114.207 60.8934C113.934 61.7919 113.517 62.5666 112.957 63.2177C112.404 63.8687 111.701 64.37 110.848 64.7216C109.995 65.0666 108.986 65.2391 107.821 65.2391C106.655 65.2391 105.646 65.0666 104.793 64.7216C103.94 64.37 103.234 63.8687 102.674 63.2177C102.121 62.5666 101.707 61.7886 101.434 60.8837C101.161 59.9787 101.024 58.9729 101.024 57.8661C101.024 56.3882 101.265 55.1024 101.746 54.0087C102.235 52.9084 102.983 52.0555 103.993 51.4501C105.002 50.8446 106.284 50.5419 107.84 50.5419C109.39 50.5419 110.662 50.8446 111.659 51.4501C112.661 52.0555 113.403 52.9084 113.885 54.0087C114.373 55.1089 114.618 56.4012 114.618 57.8856ZM104.198 57.8856C104.198 58.8817 104.321 59.7411 104.569 60.4637C104.823 61.1799 105.217 61.7333 105.75 62.1239C106.284 62.508 106.974 62.7001 107.821 62.7001C108.68 62.7001 109.377 62.508 109.911 62.1239C110.444 61.7333 110.832 61.1799 111.073 60.4637C111.32 59.7411 111.444 58.8817 111.444 57.8856C111.444 56.3882 111.164 55.2098 110.604 54.3505C110.044 53.4911 109.123 53.0614 107.84 53.0614C106.987 53.0614 106.291 53.2567 105.75 53.6473C105.217 54.0315 104.823 54.5848 104.569 55.3075C104.321 56.0236 104.198 56.883 104.198 57.8856ZM129.422 57.7684C129.422 59.3765 129.113 60.7209 128.495 61.8016C127.883 62.8759 126.994 63.6864 125.828 64.2333C124.663 64.7736 123.26 65.0438 121.62 65.0438H117.577V50.7665H122.059C123.556 50.7665 124.855 51.0334 125.955 51.5673C127.056 52.0946 127.909 52.8791 128.514 53.9208C129.12 54.9559 129.422 56.2385 129.422 57.7684ZM126.278 57.8466C126.278 56.7919 126.121 55.926 125.809 55.2489C125.503 54.5653 125.047 54.0608 124.442 53.7352C123.843 53.4097 123.101 53.2469 122.215 53.2469H120.604V62.5438H121.903C123.381 62.5438 124.478 62.1499 125.194 61.3622C125.916 60.5744 126.278 59.4025 126.278 57.8466Z" fill="#5AB3B3"/>
<path d="M380.551 133.116H366.831C347.053 133.116 331.019 121.091 331.019 106.258C331.019 93.2454 343.358 82.3999 359.737 79.9286C360.444 65.6851 372.949 54.3284 388.319 54.3284C404.141 54.3284 416.963 66.3534 416.963 81.189C416.963 81.3406 416.941 81.4877 416.938 81.6383C429.595 85.7788 438.45 95.237 438.45 106.257C438.45 121.09 422.416 133.115 402.638 133.115H392.871" fill="#BFE2E2"/>
<path d="M409.739 115.431C409.739 115.431 391.832 119.012 391.832 136.918C391.832 154.825 391.989 168.554 391.989 168.554" stroke="#5AB3B3" stroke-width="2" stroke-linecap="round" stroke-linejoin="round"/>
<path d="M362.995 106.587C362.995 106.587 380.901 110.168 380.901 128.075C380.901 145.981 380.34 163.033 380.34 163.033" stroke="#5AB3B3" stroke-width="2" stroke-linecap="round" stroke-linejoin="round"/>
<path d="M370.892 101.167C370.892 101.167 378.054 104.748 381.635 108.329" stroke="#5AB3B3" stroke-width="2" stroke-linecap="round" stroke-linejoin="round"/>
<path d="M259.386 201.75C259.172 199.219 259.195 196.679 259.457 194.15C259.661 191.946 260.133 189.763 260.866 187.63C261.524 185.569 262.715 183.637 264.365 181.956C265.255 181.069 266.383 180.35 267.667 179.849C268.952 179.348 270.362 179.078 271.795 179.058C272.677 179.037 273.474 179.021 274.278 179.021C277.327 179.021 280.769 179.257 283.173 181.009C282.868 176.378 287.41 171.823 293.508 170.638C295.234 170.311 297.004 170.147 298.78 170.15C301.24 170.123 303.685 170.468 305.982 171.164C308.093 171.759 309.87 172.921 311.002 174.448C313.252 170.223 316.895 166.552 321.552 163.814C326.314 160.943 331.91 159.057 337.832 158.328C339.594 158.118 341.373 158.012 343.155 158.013C348.3 158.024 353.388 158.859 358.112 160.468C362.747 162.021 366.893 164.359 370.257 167.316C370.172 166.819 370.22 166.314 370.398 165.833C370.576 165.352 370.88 164.906 371.291 164.524C372.147 163.772 373.199 163.175 374.374 162.772C375.548 162.369 376.819 162.17 378.1 162.189C378.891 162.185 379.679 162.272 380.438 162.447C382.668 163.012 384.685 164.004 386.31 165.335C387.941 166.662 389.426 168.097 390.75 169.623C391.862 168.381 393.341 167.371 395.058 166.68C396.776 165.99 398.681 165.64 400.608 165.66C402.54 165.65 404.441 166.041 406.121 166.794C407.801 167.546 409.201 168.634 410.181 169.948V201.467L259.386 201.75Z" fill="#BFE2E2"/>
<line x1="-2.30518" y1="203.084" x2="69.5" y2="203.084" stroke="#5AB3B3" stroke-width="2"/>
<line x1="60" y1="203.084" x2="400" y2="203.084" stroke="#5AB3B3" stroke-width="2"/>
<path d="M137.471 290.664C147.393 290.664 156.414 291.288 162.982 292.856C166.272 293.641 168.871 294.646 170.652 295.872C172.416 297.086 173.291 298.45 173.38 299.989C173.385 300.071 173.379 300.207 173.079 300.429C172.746 300.677 172.161 300.934 171.261 301.163C169.475 301.617 166.809 301.878 163.432 302.012C156.687 302.281 147.459 302.043 137.471 302.043C127.501 302.043 118.359 302.151 111.733 301.818C108.412 301.651 105.796 301.376 104.049 300.943C103.166 300.724 102.596 300.486 102.275 300.262C102.122 300.156 102.065 300.079 102.047 300.048C102.036 300.029 102.037 300.028 102.038 300.016C102.136 298.882 102.944 297.685 104.72 296.502C106.48 295.328 109.037 294.276 112.263 293.4C118.702 291.651 127.58 290.664 137.471 290.664Z" fill="white" stroke="#5AB3B3" stroke-width="2"/>
<rect x="134.215" y="187.145" width="7.16521" height="107.265" fill="white"/>
<path d="M134.054 295.064C134.46 291.92 134.223 222.194 134.054 187.724M141.156 295.064C141.562 291.92 141.325 222.194 141.156 187.724" stroke="#5AB3B3" stroke-width="2"/>
<path d="M134.054 295.064L137.575 295.53L141.189 295.064" stroke="#5AB3B3" stroke-width="2" stroke-linecap="round"/>
<rect x="46.5542" y="178.232" width="175.321" height="8.60892" rx="1" stroke="#5AB3B3" stroke-width="2"/>
<path d="M92.8794 112.903L92.7778 112.908C92.2734 112.959 91.8794 113.385 91.8794 113.903V132.155C89.9116 133.974 87.4653 137.535 87.4653 144.471V168.69C87.4653 169.991 87.4031 171.299 87.4507 172.351C87.4995 173.431 87.6643 174.501 88.2437 175.409C88.8455 176.351 89.7984 176.974 91.1226 177.358C92.4226 177.735 94.1488 177.903 96.4185 177.903C98.7632 177.903 100.531 177.714 101.85 177.307C103.196 176.892 104.14 176.229 104.716 175.26C105.269 174.331 105.402 173.253 105.427 172.194C105.44 171.656 105.426 171.086 105.409 170.508C105.392 169.923 105.372 169.322 105.372 168.689V144.429C105.138 138.624 102.902 135.085 101.198 133.031L101.299 113.909C101.301 113.643 101.196 113.386 101.008 113.198C100.821 113.009 100.565 112.903 100.299 112.903H92.8794Z" stroke="#5AB3B3" stroke-width="2" stroke-linecap="round" stroke-linejoin="round"/>
<path d="M104.372 168.689C104.372 173.898 105.65 176.903 96.4188 176.903C87.471 176.905 88.4647 174.219 88.4647 168.69V151.778H104.372V168.689Z" fill="#BFE2E2"/>
<path d="M176.628 177.441H120.194L114.646 167.488V156.738C114.646 156.738 135.307 157.988 148.682 157.988C162.057 157.988 182.175 156.738 182.175 156.738L180.932 167.488L176.628 177.441Z" stroke="#5AB3B3" stroke-width="2" stroke-linecap="round"/>
<path d="M114.932 166.738C128.661 167.821 159.718 169.613 180.932 166.738" stroke="#5AB3B3" stroke-width="2" stroke-linecap="round"/>
<path fill-rule="evenodd" clip-rule="evenodd" d="M142.524 146.186C149.647 144.761 154.658 146.186 156.654 147.043C156.834 147.121 157.064 147.141 157.257 147.096C158.29 146.852 159.226 147.247 159.829 147.913C160.076 148.186 160.271 148.508 160.405 148.858C160.46 148.635 160.519 148.411 160.583 148.189C160.917 147.039 161.942 146.264 163.099 146.186C169.416 145.759 173.931 147.443 178.297 149.478C179.775 150.167 180.445 151.948 179.685 153.44C179.245 154.302 178.771 155.142 178.252 155.962C176.206 156.075 173.478 156.22 170.398 156.364C163.7 156.676 155.345 156.988 148.682 156.988C145.253 156.988 141.341 156.903 137.419 156.781C138.219 156.045 142.566 153.735 142.524 152.563C143.243 152.536 141.521 151.532 140.988 151.05C140.201 150.338 138.261 148.34 138.567 147.473C138.864 146.631 141.557 146.38 142.524 146.186ZM168.585 151.759C168.405 151.201 167.726 150.811 166.984 151.05C166.241 151.29 165.919 152.004 166.099 152.563C166.28 153.121 166.959 153.511 167.702 153.271C168.443 153.031 168.766 152.317 168.585 151.759Z" fill="#BFE2E2" stroke="#5AB3B3" stroke-width="2"/>
<path d="M160.432 148.738C160.14 150.8 159.832 155.338 160.932 156.988" stroke="#5AB3B3" stroke-width="2" stroke-linecap="round"/>
<path d="M137.275 139.805C135.884 139.974 130.578 150.564 129.56 155.898C129.452 156.462 129.894 156.956 130.468 156.971L132.699 157.032C133.229 157.046 133.676 156.642 133.742 156.116C134.816 147.476 140.383 142.525 140.626 141.475C140.878 140.388 138.764 139.624 137.275 139.805Z" fill="#BFE2E2" stroke="#5AB3B3" stroke-width="2" stroke-linecap="round"/>
<path d="M115.494 142.55C115.644 143.5 118.474 148.904 119.869 151.488L122.322 156.164C122.47 156.446 122.743 156.641 123.058 156.689L124.56 156.916C125.4 157.044 126.006 156.131 125.563 155.406L125.307 154.988L118.617 141.668C118.43 141.296 118.032 141.074 117.624 141.153C116.613 141.351 115.374 141.788 115.494 142.55Z" fill="#BFE2E2" stroke="#5AB3B3" stroke-width="2" stroke-linecap="round"/>
<path d="M120.225 155.988H123.819C120.594 149.713 113.621 150.102 110.538 151.082C109.152 152.873 111.131 153.894 111.131 153.894C111.131 153.894 115.944 151.8 120.225 155.988Z" fill="#BFE2E2" stroke="#5AB3B3" stroke-width="2" stroke-linecap="round"/>
<path d="M123.791 139.946C125.604 142.554 126.397 151.207 126.61 156.021C126.634 156.56 127.077 156.988 127.617 156.988H129.921C130.478 156.988 130.928 156.532 130.907 155.975C130.59 147.515 127.664 140 125.946 136.724C125.768 136.384 125.402 136.182 125.026 136.26C123.655 136.544 122.112 137.532 123.791 139.946Z" fill="#BFE2E2" stroke="#5AB3B3" stroke-width="2" stroke-linecap="round"/>
<path d="M285.73 120.951L279.878 93.6715C283.141 89.8399 285.351 85.1441 284.982 79.8837C283.919 64.7244 262.815 68.0594 258.711 75.7106C254.606 83.3618 255.093 102.771 260.398 104.137C262.514 104.683 267.021 103.347 271.608 100.582L268.729 120.951H285.73Z" fill="#B28B67"/>
<path d="M257.105 79.1455C257.326 78.1109 257.631 77.0959 258.017 76.1109C258.462 74.9262 259.064 73.8065 259.807 72.7815C261.137 70.8605 262.73 69.1343 264.537 67.6528C267.785 65.0035 271.917 63.4755 275.985 63.9721C278.072 64.224 280.054 65.0313 281.723 66.3097C283.255 67.4871 284.729 69.2205 286.714 69.3451C288.873 69.4804 290.851 67.5742 292.583 66.3983C294.467 65.056 296.622 64.1442 298.897 63.7277C300.758 63.3967 302.675 63.5748 304.444 64.2433C306.212 64.9118 307.767 66.0458 308.945 67.5253C311.748 70.8632 313.782 75.7567 311.945 80.1784C311.635 80.9722 311.151 81.6863 310.528 82.2674C309.948 82.7937 309.064 83.354 308.828 84.1956C308.578 85.0903 309.324 86.2442 309.613 87.051C310.089 88.1983 310.305 89.437 310.246 90.6779C309.921 92.7451 308.912 94.6435 307.38 96.0694C306.022 97.3874 304.302 98.2708 302.439 98.6068C301.218 98.8682 299.968 98.9635 298.721 98.8902C298.126 98.8179 297.538 98.6995 296.961 98.536C296.717 98.4786 296.463 98.4795 296.22 98.5387C295.977 98.5979 295.751 98.7137 295.56 98.8767C293.373 100.314 290.761 100.961 288.157 100.711C285.922 100.525 283.348 99.9839 281.525 98.4531C279.502 96.753 279.542 94.409 280.018 91.9048C279.514 92.1549 278.117 92.31 278.952 91.3134C279.361 90.9714 279.828 90.7047 280.33 90.5256C280.848 90.2545 281.315 89.8949 281.709 89.4631C283.257 87.6822 281.693 84.0589 279.748 83.4617C276.858 82.5748 276.21 86.6621 274.147 87.7198C272.96 88.3275 271.719 87.4966 270.83 86.648C269.675 85.4389 268.758 84.0223 268.128 82.4728C267.551 81.2112 267.014 79.9311 266.428 78.6752C266.153 78.0886 265.202 76.431 265.68 75.7708C263.609 75.3578 261.303 76.2185 259.517 77.3463C258.786 77.7672 258.198 78.398 257.829 79.1569C257.745 79.3333 257.562 79.8575 257.334 79.8794C256.905 79.9198 257.065 79.3956 257.108 79.1463" fill="#2E3E5A"/>
<path d="M257.105 79.1455C257.326 78.1109 257.631 77.0959 258.017 76.1109C258.462 74.9262 259.064 73.8065 259.807 72.7815C261.137 70.8605 262.73 69.1343 264.537 67.6528C267.785 65.0035 271.917 63.4755 275.985 63.9721C278.072 64.224 280.054 65.0313 281.723 66.3097C283.255 67.4871 284.729 69.2205 286.714 69.3451C288.873 69.4804 290.851 67.5742 292.583 66.3983C294.467 65.056 296.622 64.1442 298.897 63.7277C300.758 63.3967 302.675 63.5748 304.444 64.2433C306.212 64.9118 307.767 66.0458 308.945 67.5253C311.748 70.8632 313.782 75.7567 311.945 80.1784C311.635 80.9722 311.151 81.6863 310.528 82.2674C309.948 82.7937 309.064 83.354 308.828 84.1956C308.578 85.0903 309.324 86.2442 309.613 87.051C310.089 88.1983 310.305 89.437 310.246 90.6779C309.921 92.7451 308.912 94.6435 307.38 96.0694C306.022 97.3874 304.302 98.2708 302.439 98.6068C301.218 98.8682 299.968 98.9635 298.721 98.8902C298.126 98.8179 297.538 98.6995 296.961 98.536C296.717 98.4786 296.463 98.4795 296.22 98.5387C295.977 98.5979 295.751 98.7137 295.56 98.8767C293.373 100.314 290.761 100.961 288.157 100.711C285.922 100.525 283.348 99.9839 281.525 98.4531C279.502 96.753 279.542 94.409 280.018 91.9048C279.514 92.1549 278.117 92.31 278.952 91.3134C279.361 90.9714 279.828 90.7047 280.33 90.5256C280.848 90.2545 281.315 89.8949 281.709 89.4631C283.257 87.6822 281.693 84.0589 279.748 83.4617C276.858 82.5748 276.21 86.6621 274.147 87.7198C272.96 88.3275 271.719 87.4966 270.83 86.648C269.675 85.4389 268.758 84.0223 268.128 82.4728C267.551 81.2112 267.014 79.9311 266.428 78.6752C266.153 78.0886 265.202 76.431 265.68 75.7708C263.609 75.3578 261.303 76.2185 259.517 77.3463C258.786 77.7672 258.198 78.398 257.829 79.1569C257.745 79.3333 257.562 79.8575 257.334 79.8794C256.905 79.9198 257.065 79.3956 257.108 79.1463" fill="black" fill-opacity="0.2"/>
<path d="M257.105 79.1455C257.326 78.1109 257.631 77.0959 258.017 76.1109C258.462 74.9262 259.064 73.8065 259.807 72.7815C261.137 70.8605 262.73 69.1343 264.537 67.6528C267.785 65.0035 271.917 63.4755 275.985 63.9721C278.072 64.224 280.054 65.0313 281.723 66.3097C283.255 67.4871 284.729 69.2205 286.714 69.3451C288.873 69.4804 290.851 67.5742 292.583 66.3983C294.467 65.056 296.622 64.1442 298.897 63.7277C300.758 63.3967 302.675 63.5748 304.444 64.2433C306.212 64.9118 307.767 66.0458 308.945 67.5253C311.748 70.8632 313.782 75.7567 311.945 80.1784C311.635 80.9722 311.151 81.6863 310.528 82.2674C309.948 82.7937 309.064 83.354 308.828 84.1956C308.578 85.0903 309.324 86.2442 309.613 87.051C310.089 88.1983 310.305 89.437 310.246 90.6779C309.921 92.7451 308.912 94.6435 307.38 96.0694C306.022 97.3874 304.302 98.2708 302.439 98.6068C301.218 98.8682 299.968 98.9635 298.721 98.8902C298.126 98.8179 297.538 98.6995 296.961 98.536C296.717 98.4786 296.463 98.4795 296.22 98.5387C295.977 98.5979 295.751 98.7137 295.56 98.8767C293.373 100.314 290.761 100.961 288.157 100.711C285.922 100.525 283.348 99.9839 281.525 98.4531C279.502 96.753 279.542 94.409 280.018 91.9048C279.514 92.1549 278.117 92.31 278.952 91.3134C279.361 90.9714 279.828 90.7047 280.33 90.5256C280.848 90.2545 281.315 89.8949 281.709 89.4631C283.257 87.6822 281.693 84.0589 279.748 83.4617C276.858 82.5748 276.21 86.6621 274.147 87.7198C272.96 88.3275 271.719 87.4966 270.83 86.648C269.675 85.4389 268.758 84.0223 268.128 82.4728C267.551 81.2112 267.014 79.9311 266.428 78.6752C266.153 78.0886 265.202 76.431 265.68 75.7708C263.609 75.3578 261.303 76.2185 259.517 77.3463C258.786 77.7672 258.198 78.398 257.829 79.1569C257.745 79.3333 257.562 79.8575 257.334 79.8794C256.905 79.9198 257.065 79.3956 257.108 79.1463" fill="black" fill-opacity="0.2"/>
<path d="M273.326 305.485H354.79C357.796 305.485 360.679 304.291 362.804 302.166C364.93 300.04 366.124 297.157 366.124 294.151V228.981C366.124 225.975 364.93 223.092 362.804 220.966C360.679 218.841 357.796 217.646 354.79 217.646H273.326C270.32 217.646 267.437 218.841 265.312 220.966C263.186 223.092 261.992 225.975 261.992 228.981V294.151C261.992 297.157 263.186 300.04 265.312 302.166C267.437 304.291 270.32 305.485 273.326 305.485ZM343.456 237.481C344.207 237.482 344.927 237.781 345.458 238.312C345.989 238.843 346.288 239.563 346.289 240.315V282.817C346.288 283.568 345.989 284.289 345.458 284.82C344.927 285.351 344.207 285.65 343.456 285.651H284.66C283.909 285.651 283.188 285.352 282.657 284.821C282.125 284.289 281.827 283.569 281.827 282.817V240.315C281.827 239.563 282.125 238.842 282.657 238.311C283.188 237.78 283.909 237.481 284.66 237.481H343.456Z" fill="#BFE2E2"/>
<path d="M177.75 297.943C191.717 280.888 201.167 268.245 206.1 260.013C214.548 245.917 221.461 233.373 223.643 228.582C228.846 217.156 211.665 211.805 207.777 217.136C201.892 225.202 189.323 250.583 170.071 293.28L177.75 297.943Z" fill="#B28B67"/>
<path d="M206.369 292.985L232.362 227.557C237.921 215.63 211.074 207.79 206.989 213.34C197.714 225.942 175.667 275.654 172.904 279.408L206.369 292.985Z" fill="#7468B4"/>
<path d="M275.598 279.861C270.531 272.478 252.116 247.63 242.084 237.35C239.202 234.396 236.391 231.558 233.729 228.917C225.82 221.064 210.075 234.264 217.966 241.42C237.621 259.235 266.299 283.286 268.696 285.431C272.057 288.434 278.777 284.505 275.598 279.861Z" fill="#B28B67"/>
<path d="M272.212 276.677C272.338 276.533 272.493 276.416 272.666 276.333C272.84 276.251 273.028 276.204 273.22 276.196C273.412 276.189 273.603 276.22 273.782 276.289C273.962 276.357 274.125 276.462 274.263 276.595L277.816 280.045C278.669 281.718 279.419 283.442 280.059 285.207L245.46 305.183C245.46 305.183 241.536 301.504 244.237 299.47C246.938 297.436 248.694 296.04 248.694 296.04L260.635 279.587C260.691 279.51 260.761 279.445 260.843 279.396C260.924 279.347 261.014 279.315 261.107 279.302C261.201 279.288 261.297 279.293 261.388 279.317C261.48 279.341 261.566 279.384 261.641 279.441L264.123 281.352C264.123 281.352 267.537 281.054 269.219 280.083L272.212 276.677Z" fill="#ABB1BD"/>
<path d="M181.777 294.425C181.959 294.363 182.152 294.339 182.343 294.354C182.535 294.369 182.721 294.423 182.891 294.512C183.061 294.602 183.211 294.725 183.332 294.874C183.453 295.023 183.543 295.195 183.595 295.38L184.947 300.144C184.85 302.019 184.637 303.887 184.309 305.736H144.357C144.357 305.736 142.798 300.587 146.154 300.176C149.511 299.765 151.729 299.435 151.729 299.435L170.297 291.156C170.384 291.118 170.477 291.097 170.572 291.095C170.667 291.093 170.761 291.11 170.849 291.145C170.937 291.181 171.017 291.233 171.084 291.3C171.151 291.366 171.205 291.446 171.241 291.533L172.435 294.429C172.435 294.429 175.541 295.878 177.483 295.878L181.777 294.425Z" fill="#ABB1BD"/>
<path d="M241.714 230.825C241.714 230.825 274.119 225.549 285.125 223.605C306.039 219.917 312.137 208.663 308.532 184.109H269.996C262.35 186.317 206.082 211.43 206.082 211.43C199.333 214.781 200.59 224.66 201.824 227.914C201.899 228.113 235.958 286.405 235.958 286.405L267.481 266.325L241.655 233.191C241.655 233.191 240.633 231.131 241.714 230.825Z" fill="#9183D8"/>
<path d="M344.745 227.06C345.71 225.435 346.808 223.811 350.144 224.64C356.095 226.118 361.144 229.912 366.694 224.796C367.376 224.167 367.876 222.201 365.549 221.192C359.755 218.679 351.189 213.978 349.801 212.149C347.906 209.658 342.037 195.439 332.193 169.492L317.677 172.371C332.275 199.577 340.104 213.996 341.163 215.628C343.547 219.301 341.323 226.032 340.502 229.577C340.833 229.658 341.172 229.7 341.513 229.703C343.259 229.704 343.958 228.382 344.745 227.06ZM228.422 166.387L202.754 155.112C198.898 151.13 194.515 147.693 189.728 144.898C188.475 144.5 186.337 144.379 188.619 147.713C190.902 151.046 193.153 154.655 192.24 155.824C191.328 156.993 188.686 155.703 187.643 157.602C186.947 158.869 191.4 160.384 201.002 162.148L220.226 176.887L228.422 166.387Z" fill="#B28B67"/>
<path d="M278.224 115.181L272.1 114.13C258.759 127.068 253.312 158.154 244.422 162.267C236.017 166.157 224.1 162.39 209.942 157.305L205.604 166.997C218.469 180.92 245.882 192.684 256.992 185.969C274.759 175.237 278.865 136.897 278.224 115.181Z" fill="#629D62"/>
<path d="M304.926 192.16H250.728C248.248 192.16 248.718 188.584 249.076 186.776C253.207 165.95 269.337 143.503 269.337 113.856L284.97 111.405C297.901 132.201 302.376 157.804 304.926 192.16Z" fill="#E4E6EA"/>
<path d="M349.554 211.895C342.234 166.51 321.042 133.013 285.979 111.405H279.789C279.789 111.405 258.736 183.168 268.181 207.036H316.969C316.197 195.392 313.722 183.079 310.332 171.074C321.383 191.003 330.67 205.351 338.194 214.12L349.554 211.895Z" fill="#85CB85"/>
<path d="M357.94 13.2496C360.77 2.61247 354.441 -8.30479 343.804 -11.1348C333.166 -13.9647 322.249 -7.63575 319.419 3.00141C316.589 13.6386 322.918 24.5558 333.555 27.3858C344.193 30.2158 355.11 23.8868 357.94 13.2496Z" stroke="#5AB3B3" stroke-width="1.9992" stroke-linecap="round" stroke-linejoin="round"/>
<path d="M338.683 34.0128V43.0438" stroke="#5AB3B3" stroke-width="2" stroke-linecap="round" stroke-linejoin="round"/>
<path d="M356.653 26.5686L363.04 32.9551" stroke="#5AB3B3" stroke-width="2" stroke-linecap="round" stroke-linejoin="round"/>
<path d="M373.129 8.71812L364.098 8.68674" stroke="#5AB3B3" stroke-width="2" stroke-linecap="round" stroke-linejoin="round"/>
<path d="M320.65 26.5069L314.242 32.8713" stroke="#5AB3B3" stroke-width="2" stroke-linecap="round" stroke-linejoin="round"/>
<path d="M329.057 32.1192L325.637 40.4771" stroke="#5AB3B3" stroke-width="2" stroke-linecap="round" stroke-linejoin="round"/>
<path d="M348.508 32.0367L351.999 40.3668" stroke="#5AB3B3" stroke-width="2" stroke-linecap="round" stroke-linejoin="round"/>
<path d="M370.518 21.755L362.17 18.3048" stroke="#5AB3B3" stroke-width="2" stroke-linecap="round" stroke-linejoin="round"/>
<path d="M315.196 -1.10803L306.848 -4.55815" stroke="#5AB3B3" stroke-width="2" stroke-linecap="round" stroke-linejoin="round"/>
<path d="M315.21 18.3434L306.869 21.8063" stroke="#5AB3B3" stroke-width="2" stroke-linecap="round" stroke-linejoin="round"/>
<path d="M313.269 8.51124L304.238 8.47986" stroke="#5AB3B3" stroke-width="2" stroke-linecap="round" stroke-linejoin="round"/>
<path d="M25.6558 250.645H-24.8479V259.963H25.6558V250.645Z" fill="#BFE2E2"/>
<path d="M-23.1808 261.418L-16.1126 302.632H15.3503L23.9886 261.418H-23.1808Z" fill="#BFE2E2"/>
<rect x="-3.0262" y="237.436" width="6.86031" height="17.8683" fill="#BFE2E2"/>
<path d="M-0.937477 120.951C3.63829 120.951 7.34761 124.66 7.34761 129.236C7.34761 130.08 7.22067 130.895 6.98613 131.662C7.09307 131.658 7.20088 131.654 7.30882 131.654C11.8846 131.654 15.5939 135.363 15.5939 139.939C15.5939 142.448 14.477 144.694 12.7152 146.214C16.7639 147.706 19.6514 151.598 19.6514 156.164C19.6514 158.306 19.0134 160.297 17.9215 161.964C24.0774 163.949 28.5315 169.724 28.5316 176.541C28.5316 177.869 28.3611 179.158 28.0432 180.387C32.7613 183.917 35.8151 189.55 35.8151 195.896C35.8151 200.363 34.3001 204.475 31.7585 207.75C32.0522 207.737 32.3477 207.73 32.6446 207.73C43.334 207.73 51.9999 216.395 52 227.084C52 237.774 43.3341 246.44 32.6446 246.44C11.3326 246.44 -4.47927 247.266 -31.8375 247.266C-42.5267 247.266 -51.1918 238.601 -51.192 227.911C-51.192 220.759 -47.313 214.513 -41.5439 211.162C-41.5848 210.648 -41.6056 210.129 -41.6056 209.604C-41.6055 202.372 -37.6387 196.067 -31.7626 192.745C-32.3853 191.078 -32.7253 189.273 -32.7254 187.388C-32.7254 179.318 -26.4844 172.707 -18.5657 172.116C-21.1118 170.18 -22.7562 167.119 -22.7563 163.674C-22.7563 158.158 -18.5441 153.626 -13.161 153.119C-15.7714 151.724 -17.5482 148.974 -17.5482 145.807C-17.5482 141.231 -13.8382 137.522 -9.26225 137.522C-8.63626 137.522 -8.02698 137.593 -7.4407 137.725C-5.51457 135.288 -8.67505 127.064 -0.937477 120.951Z" fill="#BFE2E2"/>
</g>
<defs>
<clipPath id="clip0_6264_8228">
<rect width="400" height="320" fill="white"/>
</clipPath>
</defs>
</svg>
