<svg width="400" height="320" viewBox="0 0 400 320" fill="none" xmlns="http://www.w3.org/2000/svg">
<g clip-path="url(#clip0_6264_8229)">
<path d="M243.25 172.342H139.952" stroke="#5AB3B3" stroke-width="2" stroke-linecap="round" stroke-linejoin="round"/>
<path d="M292.058 187.493L139.952 187.493" stroke="#5AB3B3" stroke-width="2" stroke-linecap="round" stroke-linejoin="round"/>
<path d="M316.647 54.9946L139.951 54.9946" stroke="#5AB3B3" stroke-width="2" stroke-linecap="round" stroke-linejoin="round"/>
<path d="M191.601 70.1453H139.951" stroke="#5AB3B3" stroke-width="2" stroke-linecap="round" stroke-linejoin="round"/>
<path d="M318.383 114.11L139.952 114.11" stroke="#5AB3B3" stroke-width="2" stroke-linecap="round" stroke-linejoin="round"/>
<path d="M288 129.261L139.952 129.261" stroke="#5AB3B3" stroke-width="2" stroke-linecap="round" stroke-linejoin="round"/>
<path d="M54.908 196V29C54.908 28.4477 55.3557 28 55.908 28H345.118C345.67 28 346.118 28.4477 346.118 29V230C346.118 230.552 345.67 231 345.118 231H138.595" stroke="#5AB3B3" stroke-width="2"/>
<path d="M224.728 98.6504C224.728 98.6504 211.668 93.6313 216.847 103.47C222.026 113.308 227.521 113.681 227.521 113.681L224.728 98.6504Z" fill="#E6B88E"/>
<path d="M268.536 98.6504C268.536 98.6504 281.597 93.6313 276.418 103.47C271.239 113.308 265.744 113.681 265.744 113.681L268.536 98.6504Z" fill="#E6B88E"/>
<path d="M264.25 160.965L251.415 107.069H242.16L233.708 160.965H264.25Z" fill="#E6B88E"/>
<path d="M219.719 96.5963C219.719 96.5963 229.31 134.2 247.498 134.016C265.687 133.832 272.923 93.6475 272.923 93.6475C272.923 93.6475 266.181 61.1449 246.215 61.0186C222.635 61.7349 219.719 96.5963 219.719 96.5963Z" fill="#EFC6A1"/>
<path d="M220.134 101.746C223.925 108.972 221.322 89.9 239.071 81.3093C243.164 87.5569 252.397 90.2148 252.397 90.2148V84.4524C253.555 85.6977 254.997 86.6432 256.6 87.2083C258.196 87.7453 260.238 86.968 263.876 88.9005C272.163 93.3002 271.345 96.1524 270.921 100.71C273.002 105.232 275.954 90.2181 275.954 90.2181C275.954 90.2181 280.029 56.5117 245.699 56.9697C211.37 57.4277 216.342 94.5188 220.134 101.746Z" fill="#2E3E5A"/>
<path d="M220.134 101.746C223.925 108.972 221.322 89.9 239.071 81.3093C243.164 87.5569 252.397 90.2148 252.397 90.2148V84.4524C253.555 85.6977 254.997 86.6432 256.6 87.2083C258.196 87.7453 260.238 86.968 263.876 88.9005C272.163 93.3002 271.345 96.1524 270.921 100.71C273.002 105.232 275.954 90.2181 275.954 90.2181C275.954 90.2181 280.029 56.5117 245.699 56.9697C211.37 57.4277 216.342 94.5188 220.134 101.746Z" fill="black" fill-opacity="0.2"/>
<path d="M220.134 101.746C223.925 108.972 221.322 89.9 239.071 81.3093C243.164 87.5569 252.397 90.2148 252.397 90.2148V84.4524C253.555 85.6977 254.997 86.6432 256.6 87.2083C258.196 87.7453 260.238 86.968 263.876 88.9005C272.163 93.3002 271.345 96.1524 270.921 100.71C273.002 105.232 275.954 90.2181 275.954 90.2181C275.954 90.2181 280.029 56.5117 245.699 56.9697C211.37 57.4277 216.342 94.5188 220.134 101.746Z" fill="black" fill-opacity="0.2"/>
<path d="M234.751 141.444C234.911 141.59 237.006 141.754 238.031 142.428C241.323 144.608 248.131 146.928 260.554 141.444C292.308 176.65 296.3 238.869 296.3 238.869L210.3 248.488C210.3 248.488 233.893 140.665 234.751 141.444Z" fill="#E88A2D"/>
<path d="M295.632 277.85H209.382C211.082 264.208 211.383 258.204 211.798 248.578C212.02 243.456 212.687 238.362 213.791 233.354C214.748 228.972 215.883 225.244 216.791 222.254C218.027 218.196 218.92 215.264 218.525 213.506C217.971 211.016 218.491 205.656 220.076 197.576C221.344 191.111 223.292 182.9 225.867 173.17C230.204 156.78 234.845 141.652 235.041 141.016L238.115 142.157L235.041 161.837H264.853L257.376 142.937L260.69 141.016L260.697 141.025C261.04 141.518 264.154 146.034 267.963 152.789C270.316 156.962 272.469 161.159 274.363 165.265C276.614 170.1 278.567 175.068 280.211 180.14C282.028 185.83 284.178 195.715 285.961 206.581C288.228 220.492 289.767 234.511 290.571 248.581C293.004 260.289 293.94 266.294 295.632 277.85Z" fill="#2E3E5A"/>
<path d="M295.632 277.85H209.382C211.082 264.208 211.383 258.204 211.798 248.578C212.02 243.456 212.687 238.362 213.791 233.354C214.748 228.972 215.883 225.244 216.791 222.254C218.027 218.196 218.92 215.264 218.525 213.506C217.971 211.016 218.491 205.656 220.076 197.576C221.344 191.111 223.292 182.9 225.867 173.17C230.204 156.78 234.845 141.652 235.041 141.016L238.115 142.157L235.041 161.837H264.853L257.376 142.937L260.69 141.016L260.697 141.025C261.04 141.518 264.154 146.034 267.963 152.789C270.316 156.962 272.469 161.159 274.363 165.265C276.614 170.1 278.567 175.068 280.211 180.14C282.028 185.83 284.178 195.715 285.961 206.581C288.228 220.492 289.767 234.511 290.571 248.581C293.004 260.289 293.94 266.294 295.632 277.85Z" fill="black" fill-opacity="0.2"/>
<path d="M295.632 277.85H209.382C211.082 264.208 211.383 258.204 211.798 248.578C212.02 243.456 212.687 238.362 213.791 233.354C214.748 228.972 215.883 225.244 216.791 222.254C218.027 218.196 218.92 215.264 218.525 213.506C217.971 211.016 218.491 205.656 220.076 197.576C221.344 191.111 223.292 182.9 225.867 173.17C230.204 156.78 234.845 141.652 235.041 141.016L238.115 142.157L235.041 161.837H264.853L257.376 142.937L260.69 141.016L260.697 141.025C261.04 141.518 264.154 146.034 267.963 152.789C270.316 156.962 272.469 161.159 274.363 165.265C276.614 170.1 278.567 175.068 280.211 180.14C282.028 185.83 284.178 195.715 285.961 206.581C288.228 220.492 289.767 234.511 290.571 248.581C293.004 260.289 293.94 266.294 295.632 277.85Z" fill="black" fill-opacity="0.2"/>
<path d="M260.02 141.053C261.228 145.666 302.556 220.216 287.227 227.357C271.897 234.498 229.58 224.285 229.58 224.285L229.093 225.688C229.093 225.688 222.352 246.212 223.73 253.357C284.328 277.296 318.911 260.084 327.335 230.107C332.143 213 302.324 158.231 266.056 141.769C264.147 140.984 262.06 140.736 260.02 141.053Z" fill="#E88A2D"/>
<path d="M273.755 221.169L286.341 213.475C286.341 213.475 288.577 203.001 292.355 202.759C294.249 201.77 291.284 210.64 294.919 209.713C298.554 208.785 307.202 201.705 308.81 202.986C311.186 204.877 309.437 211.121 307.18 214.29C302.962 220.213 299.34 222.339 290.283 225.326C283.179 227.67 275.095 234.097 275.095 234.097L273.755 221.169Z" fill="#EFC6A1"/>
<path d="M235.193 141.004C235.193 141.004 212.635 231.494 229.375 233.833C246.115 236.172 283.568 214.028 283.568 214.028C283.568 214.028 296.763 231.668 297.664 240.097C228.852 294.995 183.465 264.124 182.526 214.483C183.021 199.982 186.155 194.506 195.151 179.967C206.802 161.138 211.322 157.427 221.333 147.686C231.343 137.945 235.193 141.004 235.193 141.004Z" fill="#E88A2D"/>
<path d="M230.091 224.979C230.091 224.979 220.868 212.097 217.521 213.865C215.385 214.01 222.55 220.025 218.961 221.136C215.373 222.247 204.307 220.715 203.607 222.65C202.567 225.504 207.32 229.916 210.899 231.44C217.591 234.289 220.925 234.458 230.208 232.276C230.282 227.816 230.804 229.09 230.091 224.979Z" fill="#EFC6A1"/>
<path d="M402 276.809L147 276.809" stroke="#5AB3B3" stroke-width="2" stroke-linecap="round" stroke-linejoin="round"/>
<path d="M18.9532 276.809H-1" stroke="#5AB3B3" stroke-width="2" stroke-linecap="round" stroke-linejoin="round"/>
<path d="M334.978 118.567C317.625 116.467 322.02 147.555 323.796 159.07C325.946 173.046 334.158 195.175 351.512 194.316C348.813 187.067 345.87 179.377 343.258 172.345C342.685 170.826 342.102 169.004 341.582 167.295C341.171 165.943 339.343 158.922 342.008 162.724C343.422 164.743 343.921 169.369 344.781 171.907C345.326 173.514 346.089 175.939 346.472 176.968C353.238 196.812 366.052 213.55 365.425 235.413C365.262 241.08 363.826 245.728 362.194 251.048C361.938 251.882 360.548 254.357 362.589 254.346C364.42 254.336 365.455 249.761 365.872 248.507C369.149 238.646 368.42 227.369 366.031 217.411C364.373 210.498 361.4 204.288 357.965 198.138C356.213 195 355.573 195.154 357.27 192.082C358.798 189.261 359.579 186.095 359.538 182.887C359.249 178.387 358.316 167.101 357.081 162.719C356.564 160.882 356.846 154.988 348.023 143.817C342.842 127.903 334.978 118.567 334.978 118.567Z" fill="#BFE2E2"/>
<path d="M400.414 110.676C417.774 108.571 413.384 139.676 411.609 151.2C409.462 165.179 401.25 187.32 383.888 186.464C386.587 179.211 389.529 171.517 392.141 164.481C392.715 162.961 393.297 161.139 393.817 159.428C394.228 158.076 396.055 151.051 393.39 154.856C391.976 156.876 391.477 161.504 390.617 164.043C390.073 165.651 389.309 168.077 388.927 169.107C382.162 188.961 369.346 205.71 369.978 227.582C370.142 233.256 371.58 237.902 373.214 243.224C373.47 244.058 374.861 246.534 372.819 246.523C370.987 246.514 369.951 241.937 369.533 240.683C366.253 230.817 366.98 219.536 369.367 209.573C371.024 202.656 373.998 196.443 377.433 190.289C379.185 187.149 379.825 187.303 378.128 184.23C376.597 181.408 375.815 178.241 375.856 175.031C376.144 170.529 377.075 159.238 378.31 154.853C378.826 153.015 378.544 147.118 387.368 135.94C392.548 120.019 400.414 110.676 400.414 110.676Z" fill="#BFE2E2"/>
<path d="M471.166 128.537C471.257 132.966 471.783 135.615 470.122 143.424C467.41 156.177 464.079 167.853 450.363 171.491C445.334 172.825 437.25 178.396 432.845 181.514C430.269 183.477 427.935 185.739 425.894 188.254L425.87 188.286C418.802 197.193 408.836 204.577 397.029 199.735C397.297 199.322 397.573 198.847 397.866 198.377C398.295 197.47 398.89 196.651 399.62 195.963C403.404 190.725 407.451 185.683 411.746 180.855C413.47 178.922 417.64 175.52 418.172 173.618C419.276 169.67 413.448 176.54 413.488 176.496C408.099 182.398 403.035 188.589 398.318 195.04C398.318 195.04 398.317 195.051 398.317 195.055C398.007 195.897 397.516 196.662 396.878 197.294C396.691 197.589 396.468 197.859 396.215 198.099C396.127 198.211 396.051 198.312 395.995 198.398C395.967 198.373 395.942 198.347 395.914 198.322C395.869 198.35 395.823 198.377 395.776 198.401C394.887 199.921 394.032 201.455 393.211 203.005C385.416 217.796 384.826 232.676 384.21 249.053C384.083 252.417 384.904 257.536 383.742 260.681C382.473 264.119 382.033 260.615 382.063 258.514C382.166 250.69 382.332 242.862 382.672 235.04C383.373 221.992 387.104 209.287 393.571 197.933C392.205 196.664 391.12 195.124 390.384 193.412C388.537 189.199 389.403 184.346 391.534 180.401C393.141 177.481 395.254 174.87 397.776 172.691C399.192 170.316 401.012 168.207 403.153 166.458C410.647 160.159 418.875 153.894 422.357 148.223C425.838 142.552 440.04 130.787 471.166 128.537Z" fill="#BFE2E2"/>
<path d="M399.242 61.5386C386.265 74.5806 365.644 88.6899 360.471 105.902C354.689 125.124 364.889 148.856 364.4 168.937C364.084 182.13 363.487 195.401 364.029 208.595C364.207 213.288 364.62 217.969 365.267 222.62C365.322 223.001 366.802 233.372 368.432 230.988C369.359 229.634 366.918 220.235 366.748 218.672C365.884 209.874 365.601 201.028 365.899 192.192C366.242 177.639 366.066 163.152 367.794 148.678C367.988 146.476 368.33 144.29 368.818 142.135C369.404 139.893 368.691 140.864 370.485 140.003C372.228 139.166 374.362 139.327 376.178 138.271C383.359 134.084 387.194 123.069 390.149 115.85C393.533 107.593 395.656 98.7644 397.38 90.0451C398.651 83.672 399.58 77.2356 400.165 70.7634C400.259 68.6835 400.482 66.6115 400.833 64.5592C401.105 63.9175 401.328 63.2565 401.501 62.5816C401.478 61.5622 400.872 60.9502 400.836 60.092C400.295 60.5626 399.764 61.0447 399.242 61.5386Z" fill="#BFE2E2"/>
<path d="M344 237.789C344 276.151 366.076 307.251 393.308 307.251C420.54 307.251 442.614 276.151 442.614 237.789" fill="#BFE2E2"/>
<path d="M436.804 227.447C432.653 218.878 422.247 210.194 412.384 210.228C411.339 210.223 410.305 210.45 409.359 210.895C408.075 210.707 406.779 210.602 405.481 210.583C393.841 211.387 387.562 225.618 385.186 235.439C384.526 238.377 384.037 241.351 383.721 244.346C383.482 246.296 381.672 252.786 382.763 254.397C384.485 256.945 384.896 250.76 384.978 250.211C385.474 246.859 385.872 243.478 386.502 240.147C388.384 230.195 393.932 214.712 405.509 213.01C406.581 212.852 410.23 213.498 413.288 214.05C414.237 214.282 415.059 214.872 415.582 215.696C416.286 217.783 410.751 214.818 410.192 214.655C406.915 213.704 404.686 214.247 404.772 218.129C404.833 220.947 406.928 222.834 408.814 224.666C410.019 225.837 411.337 226.899 412.526 228.084C417.635 233.17 424.476 260.689 424.476 260.689C424.476 260.689 434.141 254.533 436.05 249.92C438.901 243.029 440.156 234.353 436.806 227.444" fill="#BFE2E2"/>
<path d="M-29.0559 69.7129C-29.3247 69.7134 -29.5862 69.625 -29.7995 69.4613C-30.0128 69.2977 -30.166 69.0681 -30.2351 68.8083C-32.5387 59.9125 -31.4165 50.4759 -27.0909 42.3685C-25.8868 39.8634 -24.0307 37.7285 -21.7173 36.1879C-18.3133 34.1768 -14.1769 34.4062 -10.526 34.6052L-10.2496 34.6208C-2.23477 35.0575 9.22276 34.8189 16.0566 27.7447C16.2813 27.5128 16.5886 27.3789 16.9115 27.3722C17.2344 27.3655 17.5469 27.4864 17.7811 27.7087C17.8972 27.8179 17.9904 27.9491 18.0551 28.0947C18.1199 28.2404 18.1549 28.3974 18.1581 28.5568C18.1614 28.7161 18.1328 28.8745 18.0741 29.0226C18.0154 29.1707 17.9277 29.3057 17.8161 29.4195C10.2896 37.2142 -1.88285 37.5007 -10.3841 37.0373L-10.666 37.0216C-14.1308 36.8318 -17.7108 36.6328 -20.4745 38.2681C-22.1235 39.2409 -23.5432 40.9065 -24.9444 43.509C-28.9833 51.0798 -30.0309 59.8917 -27.8795 68.1984C-27.8396 68.3525 -27.8306 68.5129 -27.8529 68.6705C-27.8753 68.828 -27.9285 68.9796 -28.0095 69.1166C-28.0906 69.2536 -28.1979 69.3732 -28.3253 69.4685C-28.4527 69.5639 -28.5977 69.6332 -28.7519 69.6724C-28.8527 69.6985 -28.9564 69.7118 -29.0605 69.712" fill="#BFE2E2"/>
<path d="M3.78187 17.5677C7.14626 17.0149 10.9676 19.7188 11.7645 23.8939C12.5613 28.0689 6.99517 34.3039 6.99517 34.3039C6.99517 34.3039 -0.497319 30.5333 -1.29604 26.3582C-2.09476 22.1831 0.420241 18.1176 3.78463 17.5658" fill="#BFE2E2"/>
<path d="M20.1174 14.5764C23.0037 15.1291 25.2764 18.4558 24.6555 22.0698C24.0346 25.6838 17.6466 29.0657 17.6466 29.0657C17.6466 29.0657 12.7318 23.7852 13.3481 20.1711C13.9644 16.5571 17.2312 14.0209 20.1174 14.5764Z" fill="#BFE2E2"/>
<path d="M31.0977 175.282C30.8932 175.282 30.692 175.23 30.5128 175.132C6.09146 161.814 10.5217 136.914 14.8129 112.834C18.2731 93.4055 21.8512 73.3122 9.81882 59.968C4.33464 53.8878 -8.99025 51.1913 -16.1474 56.8358C-19.6012 59.5599 -19.7522 63.3563 -16.5878 67.8133C-16.4954 67.9431 -16.4298 68.0898 -16.3946 68.2451C-16.3593 68.4004 -16.3553 68.5612 -16.3826 68.7181C-16.4099 68.8749 -16.4681 69.0248 -16.5538 69.1591C-16.6394 69.2933 -16.7509 69.4092 -16.8816 69.5001C-17.1461 69.6854 -17.4732 69.7585 -17.7914 69.7037C-18.1096 69.6488 -18.3932 69.4703 -18.5804 69.2072C-22.4985 63.6907 -22.165 58.4922 -17.6647 54.9426C-10.7673 49.498 4.10802 50.0093 11.6355 58.3549C24.4583 72.5798 20.7752 93.2572 17.2146 113.256C12.8847 137.566 8.79715 160.528 31.6855 173.012C31.8261 173.087 31.9503 173.189 32.0509 173.313C32.1515 173.436 32.2265 173.579 32.2713 173.732C32.3162 173.885 32.3301 174.045 32.3122 174.203C32.2944 174.362 32.2451 174.515 32.1673 174.654C32.0616 174.845 31.9066 175.004 31.7184 175.114C31.5303 175.225 31.3159 175.283 31.0977 175.282Z" fill="#BFE2E2"/>
<path d="M38.7569 80.954C38.6593 84.8527 34.7504 88.5598 29.8107 88.5598C24.871 88.5598 18.9483 80.954 18.9483 80.954C18.9483 80.954 24.8701 73.3482 29.8107 73.3482C34.7514 73.3482 38.8518 77.0553 38.7569 80.954Z" fill="#BFE2E2"/>
<path d="M33.6864 105.912C31.223 108.952 25.8485 109.544 21.9231 106.568C17.9976 103.593 17.947 93.9831 17.947 93.9831C17.947 93.9831 27.3077 91.5059 31.2341 94.4815C35.1604 97.4571 36.1499 102.872 33.6864 105.912Z" fill="#BFE2E2"/>
<path d="M28.5486 124.761C25.5085 127.235 20.1266 126.719 16.8995 123.011C13.6724 119.303 15.6097 109.884 15.6097 109.884C15.6097 109.884 25.2828 109.366 28.5072 113.078C31.7315 116.789 31.5814 122.29 28.5413 124.766" fill="#BFE2E2"/>
<path d="M26.7743 141.07C24.4463 143.762 19.5462 144.144 16.0658 141.326C12.5853 138.508 12.8221 129.775 12.8221 129.775C12.8221 129.775 21.4016 127.794 24.8812 130.611C28.3607 133.428 29.1023 138.378 26.7743 141.07Z" fill="#BFE2E2"/>
<path d="M28.6131 151.547C28.3367 154.578 25.1124 157.269 21.2643 157.024C17.4163 156.779 13.1933 150.562 13.1933 150.562C13.1933 150.562 18.1874 144.935 22.0373 145.181C25.8872 145.427 28.8886 148.516 28.6168 151.547" fill="#BFE2E2"/>
<path d="M35.2018 161.089C35.9278 164.046 33.7417 167.625 30.0217 168.621C26.3017 169.616 20.2823 165.079 20.2823 165.079C20.2823 165.079 23.186 158.157 26.9069 157.162C30.6279 156.167 34.4768 158.132 35.1982 161.089" fill="#BFE2E2"/>
<path d="M42.7727 171.547C43.3779 174.012 41.5557 176.997 38.4548 177.825C35.3539 178.653 30.3368 174.877 30.3368 174.877C30.3368 174.877 32.756 169.107 35.8587 168.278C38.9615 167.449 42.1683 169.088 42.7736 171.552" fill="#BFE2E2"/>
<path d="M-18.2718 171.314C-18.4238 171.315 -18.5745 171.286 -18.7158 171.23C-25.3258 168.663 -28.0904 160.901 -27.405 154.556C-26.6883 147.923 -22.9757 141.902 -19.9927 137.065L-19.4399 136.178C-8.151 117.879 3.52671 98.956 4.54561 77.8521C5.14442 65.4724 1.03198 55.0126 -6.45406 49.8721C-12.1658 45.9485 -19.9411 45.6233 -24.9333 49.1001C-26.3232 50.1141 -27.4819 51.4118 -28.3327 52.9072C-29.1835 54.4026 -29.7069 56.0616 -29.8684 57.7745C-30.0649 59.1776 -29.9523 60.6067 -29.5386 61.9617C-29.1248 63.3167 -28.4199 64.5649 -27.4732 65.6189C-27.364 65.7347 -27.2788 65.8709 -27.2225 66.0197C-27.1662 66.1685 -27.1399 66.327 -27.1451 66.486C-27.1504 66.645 -27.187 66.8014 -27.253 66.9462C-27.3189 67.091 -27.4129 67.2214 -27.5294 67.3297C-27.7665 67.5491 -28.0806 67.6661 -28.4034 67.6554C-28.7263 67.6447 -29.0319 67.5072 -29.254 67.2726C-30.4409 65.9673 -31.3278 64.4181 -31.8525 62.7337C-32.3772 61.0493 -32.527 59.2705 -32.2913 57.5221C-32.0916 55.465 -31.4575 53.4738 -30.431 51.6801C-29.4044 49.8863 -28.0088 48.3309 -26.3364 47.1166C-20.4404 43.0143 -11.6969 43.3275 -5.06575 47.8803C3.11768 53.4999 7.62073 64.7456 6.9823 77.9655C5.93393 99.6893 -5.90961 118.882 -17.3644 137.44L-17.9116 138.328C-21.5431 144.215 -24.3686 149.167 -24.9803 154.813C-25.5671 160.243 -23.299 166.85 -17.8268 168.976C-17.6783 169.033 -17.5426 169.119 -17.4274 169.229C-17.3121 169.339 -17.2197 169.47 -17.1555 169.615C-17.0912 169.761 -17.0563 169.918 -17.0527 170.077C-17.0492 170.236 -17.0772 170.394 -17.135 170.542C-17.2255 170.77 -17.3823 170.965 -17.585 171.102C-17.7877 171.239 -18.027 171.312 -18.2718 171.312" fill="#BFE2E2"/>
<path d="M15.0201 114.798C12.343 117.654 6.94081 117.862 3.23925 114.613C-0.462317 111.365 0.184402 101.778 0.184402 101.778C0.184402 101.778 9.70086 99.974 13.4006 103.221C17.1003 106.469 17.6973 111.936 15.0201 114.798Z" fill="#BFE2E2"/>
<path d="M24.2427 65.9892C24.4795 69.8834 20.9014 73.9046 15.9791 74.3201C11.0569 74.7356 4.50595 67.653 4.50595 67.653C4.50595 67.653 9.75705 59.5774 14.6802 59.1628C19.6033 58.7483 24.006 62.0951 24.2427 65.9892Z" fill="#BFE2E2"/>
<path d="M6.76397 128.816C4.30148 131.444 -0.66771 131.635 -4.06987 128.648C-7.47203 125.66 -6.88059 116.842 -6.88059 116.842C-6.88059 116.842 1.87124 115.184 5.27432 118.169C8.6774 121.155 9.22554 126.189 6.76397 128.816Z" fill="#BFE2E2"/>
<path d="M89.4023 48.8381C88.8342 47.6882 89.8084 46.5218 91.0809 46.6815C98.1043 47.5627 103.132 50.8942 105.531 53.1952C105.862 53.5126 106.321 53.7204 106.777 53.7621V53.7621C108.092 53.8823 108.71 55.3628 108.143 56.5547C106.994 58.9666 106.367 61.5763 106.367 64.3002C106.367 66.9315 106.953 69.4561 108.028 71.7988C108.642 73.1357 107.891 74.7923 106.423 74.893C106.341 74.8986 106.258 74.9041 106.175 74.9094C105.699 74.9396 105.25 75.1336 104.889 75.4456C102.295 77.6916 97.5296 80.5664 91.0817 81.3757C89.8092 81.5354 88.8342 80.3691 89.4023 79.2193C89.8076 78.3988 90.3156 77.6122 90.8662 76.8812C91.8312 75.5998 91.2702 73.5956 89.7507 73.0817C87.2099 72.2225 85.0518 71.1224 83.2813 69.8754C82.4282 69.2746 81.2559 69.3134 80.4696 69.9993C78.5108 71.7081 75.9704 73.4979 72.9388 75.121C72.147 75.545 71.1478 75.316 71.0374 74.4246C70.7941 72.4602 71.7725 69.3969 72.9791 67.1276C73.7191 65.7358 73.7191 62.8636 72.9791 61.4718C71.7726 59.2025 70.7941 56.1392 71.0374 54.1748C71.1478 53.2834 72.147 53.0545 72.9389 53.4784C75.8165 55.0191 78.2517 56.7097 80.1671 58.3388C80.9539 59.008 82.1125 59.0345 82.9653 58.4517C84.8172 57.1861 87.1455 56.1057 89.8827 55.2865C91.4644 54.8131 92.0659 52.7211 91.0517 51.4183C90.4301 50.62 89.8528 49.75 89.4023 48.8381Z" fill="#5AB3B3"/>
<path fill-rule="evenodd" clip-rule="evenodd" d="M110.454 55.5607C110.877 54.8728 111.706 54.5603 112.483 54.7771C118.481 56.4495 122.136 59.6965 125.674 63.3399C126.379 64.066 126.422 65.2116 125.748 65.9671C122.456 69.6603 118.652 72.5606 112.529 74.0072C111.772 74.1861 110.98 73.8775 110.566 73.2191C108.851 70.4938 107.911 67.4634 107.911 64.3002C107.911 61.2062 108.81 58.2393 110.454 55.5607ZM114.859 59.0215C113.58 59.0215 112.542 60.0957 112.542 61.4208C112.543 62.7458 113.58 63.82 114.859 63.82C116.138 63.8198 117.175 62.7457 117.175 61.4208C117.175 60.0958 116.138 59.0217 114.859 59.0215Z" fill="#5AB3B3"/>
<path d="M124.773 223.856H40.9829V234.96H124.773V223.856Z" fill="#BFE2E2"/>
<path d="M140.618 269.876L149.724 283.396L14.0837 283.737L24.8904 269.876H140.618Z" stroke="#5AB3B3" stroke-width="2"/>
<mask id="path-45-inside-1_6264_8229" fill="white">
<path d="M149.713 283.16H14.374C13.7935 283.124 13.2223 283.319 12.7853 283.703C12.3483 284.087 12.081 284.628 12.042 285.208V307.93C12.0808 308.511 12.3479 309.052 12.785 309.436C13.222 309.82 13.7934 310.016 14.374 309.979H149.713C150.293 310.015 150.864 309.819 151.3 309.435C151.736 309.051 152.003 308.51 152.042 307.93V285.208C152.003 284.628 151.736 284.087 151.299 283.703C150.862 283.319 150.29 283.124 149.71 283.16"/>
</mask>
<path d="M14.374 283.16L14.2495 285.156L14.3117 285.16H14.374V283.16ZM12.042 285.208L10.0465 285.074L10.042 285.141V285.208H12.042ZM12.042 307.93H10.042V307.997L10.0464 308.064L12.042 307.93ZM14.374 309.979V307.979H14.3117L14.2495 307.983L14.374 309.979ZM149.713 309.979L149.835 307.983L149.774 307.979H149.713V309.979ZM152.042 307.93L154.038 308.064L154.042 307.997V307.93H152.042ZM152.042 285.208H154.042V285.141L154.037 285.074L152.042 285.208ZM149.713 283.16V281.16H14.374V283.16V285.16H149.713V283.16ZM14.374 283.16L14.4985 281.164C13.3903 281.095 12.2998 281.468 11.4656 282.2L12.7853 283.703L14.1051 285.206C14.1448 285.171 14.1967 285.153 14.2495 285.156L14.374 283.16ZM12.7853 283.703L11.4656 282.2C10.6313 282.933 10.1211 283.966 10.0465 285.074L12.042 285.208L14.0375 285.343C14.041 285.29 14.0653 285.241 14.1051 285.206L12.7853 283.703ZM12.042 285.208H10.042V307.93H12.042H14.042V285.208H12.042ZM12.042 307.93L10.0464 308.064C10.1205 309.172 10.6305 310.206 11.4649 310.939L12.785 309.436L14.1051 307.934C14.0654 307.899 14.0411 307.85 14.0375 307.797L12.042 307.93ZM12.785 309.436L11.4649 310.939C12.2992 311.672 13.3899 312.045 14.4984 311.975L14.374 309.979L14.2495 307.983C14.1968 307.987 14.1448 307.969 14.1051 307.934L12.785 309.436ZM14.374 309.979V311.979H149.713V309.979V307.979H14.374V309.979ZM149.713 309.979L149.591 311.976C150.699 312.043 151.788 311.67 152.621 310.937L151.3 309.435L149.979 307.934C149.939 307.968 149.887 307.986 149.835 307.983L149.713 309.979ZM151.3 309.435L152.621 310.937C153.454 310.204 153.963 309.171 154.038 308.064L152.042 307.93L150.046 307.797C150.043 307.85 150.019 307.899 149.979 307.934L151.3 309.435ZM152.042 307.93H154.042V285.208H152.042H150.042V307.93H152.042ZM152.042 285.208L154.037 285.074C153.963 283.966 153.453 282.933 152.618 282.2L151.299 283.703L149.979 285.206C150.019 285.241 150.043 285.29 150.047 285.343L152.042 285.208ZM151.299 283.703L152.618 282.2C151.784 281.468 150.694 281.095 149.585 281.164L149.71 283.16L149.835 285.156C149.887 285.153 149.939 285.171 149.979 285.206L151.299 283.703Z" fill="#5AB3B3" mask="url(#path-45-inside-1_6264_8229)"/>
<mask id="path-47-inside-2_6264_8229" fill="white">
<path d="M137.206 268.876H28.238C27.705 268.876 27.272 269.268 27.272 269.752V275.934C27.272 276.417 27.705 276.81 28.238 276.81H137.206C137.74 276.81 138.172 276.417 138.172 275.934V269.754C138.172 269.27 137.74 268.878 137.206 268.878"/>
</mask>
<path d="M137.206 268.876V266.876H28.238V268.876V270.876H137.206V268.876ZM28.238 268.876V266.876C26.7886 266.876 25.272 267.985 25.272 269.752H27.272H29.272C29.272 270.552 28.6214 270.876 28.238 270.876V268.876ZM27.272 269.752H25.272V275.934H27.272H29.272V269.752H27.272ZM27.272 275.934H25.272C25.272 277.701 26.7886 278.81 28.238 278.81V276.81V274.81C28.6213 274.81 29.272 275.133 29.272 275.934H27.272ZM28.238 276.81V278.81H137.206V276.81V274.81H28.238V276.81ZM137.206 276.81V278.81C138.658 278.81 140.172 277.699 140.172 275.934H138.172H136.172C136.172 275.134 136.822 274.81 137.206 274.81V276.81ZM138.172 275.934H140.172V269.754H138.172H136.172V275.934H138.172ZM138.172 269.754H140.172C140.172 267.985 138.656 266.878 137.206 266.878V268.878V270.878C136.824 270.878 136.172 270.554 136.172 269.754H138.172Z" fill="#5AB3B3" mask="url(#path-47-inside-2_6264_8229)"/>
<path d="M81.9414 291.83C83.1522 291.83 84.3137 292.311 85.1699 293.167C86.0262 294.024 86.5068 295.186 86.5068 296.397C86.5068 297.3 86.2389 298.182 85.7373 298.933C85.2356 299.684 84.5227 300.269 83.6885 300.615C82.8542 300.96 81.9355 301.051 81.0498 300.874C80.1643 300.698 79.3504 300.264 78.7119 299.625C78.0735 298.987 77.6391 298.173 77.4629 297.287C77.2867 296.402 77.3771 295.483 77.7227 294.649C78.0683 293.815 78.6535 293.102 79.4043 292.6C80.1552 292.098 81.0383 291.83 81.9414 291.83Z" stroke="#5AB3B3" stroke-width="2"/>
<mask id="path-50-inside-3_6264_8229" fill="white">
<path d="M82.803 293.455H81.08V299.684H82.803V293.455Z"/>
</mask>
<path d="M81.08 293.455V291.455H79.08V293.455H81.08ZM82.803 293.455H84.803V291.455H82.803V293.455ZM82.803 299.684V301.684H84.803V299.684H82.803ZM81.08 299.684H79.08V301.684H81.08V299.684ZM81.08 293.455V295.455H82.803V293.455V291.455H81.08V293.455ZM82.803 293.455H80.803V299.684H82.803H84.803V293.455H82.803ZM82.803 299.684V297.684H81.08V299.684V301.684H82.803V299.684ZM81.08 299.684H83.08V293.455H81.08H79.08V299.684H81.08Z" fill="#5AB3B3" mask="url(#path-50-inside-3_6264_8229)"/>
<path d="M132.075 223.34L137.164 269.875H28.28L33.3933 223.34H132.075Z" stroke="#5AB3B3" stroke-width="2"/>
<path d="M56.7227 215.231V222.856H52.0654V215.231H56.7227Z" stroke="#5AB3B3" stroke-width="2"/>
<mask id="path-54-inside-4_6264_8229" fill="white">
<path d="M35.6864 196.581V213.659C35.6864 214.154 36.0482 214.574 36.5379 214.645C42.3299 215.476 48.1559 215.894 53.9872 215.896C60.0922 215.958 66.1941 215.542 72.2562 214.65C72.7443 214.578 73.104 214.158 73.104 213.665V197.477C73.104 196.967 72.7243 196.539 72.2175 196.485C68.4867 196.087 60.176 195.281 54.3229 195.281C47.9461 195.281 38.7707 196.236 35.684 196.581"/>
</mask>
<path d="M53.9872 215.896L54.0074 213.897L53.9977 213.896L53.988 213.896L53.9872 215.896ZM72.2175 196.485L72.0052 198.474L72.2175 196.485ZM72.2562 214.65L72.5472 216.629L72.2562 214.65ZM36.5379 214.645L36.8221 212.665L36.5379 214.645ZM35.6864 196.581H33.6864V213.659H35.6864H37.6864V196.581H35.6864ZM36.5379 214.645L36.2537 216.624C42.1392 217.469 48.06 217.894 53.9863 217.896L53.9872 215.896L53.988 213.896C48.2519 213.894 42.5205 213.483 36.8221 212.665L36.5379 214.645ZM53.9872 215.896L53.9669 217.896C60.1765 217.959 66.3824 217.536 72.5472 216.629L72.2562 214.65L71.9652 212.672C66.0057 213.548 60.0079 213.957 54.0074 213.897L53.9872 215.896ZM73.104 213.665H75.104V197.477H73.104H71.104V213.665H73.104ZM72.2175 196.485L72.4298 194.496C68.7041 194.099 60.2956 193.281 54.3229 193.281V195.281V197.281C60.0564 197.281 68.2694 198.075 72.0052 198.474L72.2175 196.485ZM54.3229 195.281V193.281C47.8197 193.281 38.5401 194.25 35.4618 194.594L35.684 196.581L35.9061 198.569C39.0012 198.223 48.0724 197.281 54.3229 197.281V195.281ZM73.104 197.477H75.104C75.104 195.959 73.9672 194.661 72.4298 194.496L72.2175 196.485L72.0052 198.474C71.4815 198.418 71.104 197.976 71.104 197.477H73.104ZM72.2562 214.65L72.5472 216.629C74.0257 216.412 75.104 215.142 75.104 213.665H73.104H71.104C71.104 213.175 71.4629 212.745 71.9652 212.672L72.2562 214.65ZM35.6864 213.659H33.6864C33.6864 215.14 34.7708 216.412 36.2537 216.624L36.5379 214.645L36.8221 212.665C37.3255 212.737 37.6864 213.167 37.6864 213.659H35.6864Z" fill="#5AB3B3" mask="url(#path-54-inside-4_6264_8229)"/>
<path d="M45.177 240.444H40.151C40.0188 240.444 39.8879 240.469 39.7656 240.52C39.6434 240.57 39.5323 240.644 39.4389 240.737C39.3454 240.831 39.2714 240.942 39.2212 241.064C39.1709 241.186 39.1453 241.317 39.146 241.449V246.475C39.1453 246.608 39.1709 246.739 39.2212 246.861C39.2714 246.983 39.3454 247.094 39.4389 247.188C39.5323 247.281 39.6434 247.355 39.7656 247.405C39.8879 247.456 40.0188 247.481 40.151 247.48H45.177C45.3092 247.481 45.4402 247.456 45.5624 247.405C45.6846 247.355 45.7957 247.281 45.8891 247.188C45.9826 247.094 46.0566 246.983 46.1069 246.861C46.1571 246.739 46.1827 246.608 46.182 246.475V241.449C46.1827 241.317 46.1571 241.186 46.1069 241.064C46.0566 240.942 45.9826 240.831 45.8891 240.737C45.7957 240.644 45.6846 240.57 45.5624 240.52C45.4402 240.469 45.3092 240.444 45.177 240.444Z" fill="#BFE2E2"/>
<path d="M53.903 240.444H48.877C48.7448 240.444 48.6138 240.469 48.4916 240.52C48.3694 240.57 48.2583 240.644 48.1648 240.737C48.0714 240.831 47.9974 240.942 47.9471 241.064C47.8968 241.186 47.8713 241.317 47.872 241.449V246.475C47.8713 246.608 47.8968 246.739 47.9471 246.861C47.9974 246.983 48.0714 247.094 48.1648 247.188C48.2583 247.281 48.3694 247.355 48.4916 247.405C48.6138 247.456 48.7448 247.481 48.877 247.48H53.903C54.0351 247.481 54.1661 247.456 54.2883 247.405C54.4106 247.355 54.5216 247.281 54.6151 247.188C54.7085 247.094 54.7825 246.983 54.8328 246.861C54.8831 246.739 54.9086 246.608 54.908 246.475V241.449C54.9086 241.317 54.8831 241.186 54.8328 241.064C54.7825 240.942 54.7085 240.831 54.6151 240.737C54.5216 240.644 54.4106 240.57 54.2883 240.52C54.1661 240.469 54.0351 240.444 53.903 240.444Z" fill="#BFE2E2"/>
<path d="M45.177 249.171H40.151C40.0188 249.171 39.8879 249.196 39.7656 249.247C39.6434 249.297 39.5323 249.371 39.4389 249.464C39.3454 249.558 39.2714 249.669 39.2212 249.791C39.1709 249.913 39.1453 250.044 39.146 250.176V255.202C39.1453 255.335 39.1709 255.466 39.2212 255.588C39.2714 255.71 39.3454 255.821 39.4389 255.915C39.5323 256.008 39.6434 256.082 39.7656 256.132C39.8879 256.183 40.0188 256.208 40.151 256.207H45.177C45.3092 256.208 45.4402 256.183 45.5624 256.132C45.6846 256.082 45.7957 256.008 45.8891 255.915C45.9826 255.821 46.0566 255.71 46.1069 255.588C46.1571 255.466 46.1827 255.335 46.182 255.202V250.176C46.1827 250.044 46.1571 249.913 46.1069 249.791C46.0566 249.669 45.9826 249.558 45.8891 249.464C45.7957 249.371 45.6846 249.297 45.5624 249.247C45.4402 249.196 45.3092 249.171 45.177 249.171Z" fill="#BFE2E2"/>
<path d="M53.903 249.171H48.877C48.7448 249.171 48.6138 249.196 48.4916 249.247C48.3694 249.297 48.2583 249.371 48.1648 249.464C48.0714 249.558 47.9974 249.669 47.9471 249.791C47.8968 249.913 47.8713 250.044 47.872 250.176V255.202C47.8713 255.335 47.8968 255.466 47.9471 255.588C47.9974 255.71 48.0714 255.821 48.1648 255.915C48.2583 256.008 48.3694 256.082 48.4916 256.132C48.6138 256.183 48.7448 256.208 48.877 256.207H53.903C54.0351 256.208 54.1661 256.183 54.2883 256.132C54.4106 256.082 54.5216 256.008 54.6151 255.915C54.7085 255.821 54.7825 255.71 54.8328 255.588C54.8831 255.466 54.9086 255.335 54.908 255.202V250.176C54.9086 250.044 54.8831 249.913 54.8328 249.791C54.7825 249.669 54.7085 249.558 54.6151 249.464C54.5216 249.371 54.4106 249.297 54.2883 249.247C54.1661 249.196 54.0351 249.171 53.903 249.171Z" fill="#BFE2E2"/>
<path d="M45.177 257.756H40.151C40.0188 257.756 39.8879 257.781 39.7656 257.832C39.6434 257.882 39.5323 257.956 39.4389 258.049C39.3454 258.143 39.2714 258.254 39.2212 258.376C39.1709 258.498 39.1453 258.629 39.146 258.761V263.787C39.1453 263.92 39.1709 264.051 39.2212 264.173C39.2714 264.295 39.3454 264.406 39.4389 264.5C39.5323 264.593 39.6434 264.667 39.7656 264.717C39.8879 264.768 40.0188 264.793 40.151 264.792H45.177C45.3092 264.793 45.4402 264.768 45.5624 264.717C45.6846 264.667 45.7957 264.593 45.8891 264.5C45.9826 264.406 46.0566 264.295 46.1069 264.173C46.1571 264.051 46.1827 263.92 46.182 263.787V258.761C46.1827 258.629 46.1571 258.498 46.1069 258.376C46.0566 258.254 45.9826 258.143 45.8891 258.049C45.7957 257.956 45.6846 257.882 45.5624 257.832C45.4402 257.781 45.3092 257.756 45.177 257.756Z" fill="#BFE2E2"/>
<path d="M53.903 257.756H48.877C48.7448 257.756 48.6138 257.781 48.4916 257.832C48.3694 257.882 48.2583 257.956 48.1648 258.049C48.0714 258.143 47.9974 258.254 47.9471 258.376C47.8968 258.498 47.8713 258.629 47.872 258.761V263.787C47.8713 263.92 47.8968 264.051 47.9471 264.173C47.9974 264.295 48.0714 264.406 48.1648 264.5C48.2583 264.593 48.3694 264.667 48.4916 264.717C48.6138 264.768 48.7448 264.793 48.877 264.792H53.903C54.0351 264.793 54.1661 264.768 54.2883 264.717C54.4106 264.667 54.5216 264.593 54.6151 264.5C54.7085 264.406 54.7825 264.295 54.8328 264.173C54.8831 264.051 54.9086 263.92 54.908 263.787V258.761C54.9086 258.629 54.8831 258.498 54.8328 258.376C54.7825 258.254 54.7085 258.143 54.6151 258.049C54.5216 257.956 54.4106 257.882 54.2883 257.832C54.1661 257.781 54.0351 257.756 53.903 257.756Z" fill="#BFE2E2"/>
<path d="M87.8598 264.923L92.8854 264.984C93.0176 264.987 93.1489 264.963 93.2717 264.914C93.3946 264.865 93.5065 264.793 93.6011 264.7C93.6957 264.608 93.7711 264.498 93.8228 264.376C93.8746 264.255 93.9017 264.124 93.9027 263.992L93.9643 258.966C93.9666 258.834 93.9426 258.703 93.8939 258.58C93.8451 258.457 93.7725 258.345 93.6802 258.25C93.5879 258.156 93.4777 258.081 93.3561 258.029C93.2345 257.977 93.1039 257.95 92.9717 257.949L87.9461 257.887C87.8139 257.885 87.6826 257.909 87.5598 257.958C87.437 258.006 87.325 258.079 87.2304 258.171C87.1358 258.264 87.0605 258.374 87.0087 258.495C86.9569 258.617 86.9298 258.748 86.9288 258.88L86.8672 263.905C86.8649 264.038 86.8889 264.169 86.9376 264.292C86.9864 264.415 87.059 264.527 87.1513 264.621C87.2436 264.716 87.3538 264.791 87.4754 264.843C87.597 264.895 87.7277 264.922 87.8598 264.923Z" fill="#BFE2E2"/>
<path d="M79.1334 264.816L84.1591 264.877C84.2908 264.879 84.4215 264.855 84.5438 264.805C84.6661 264.756 84.7774 264.684 84.8715 264.591C84.9656 264.499 85.0405 264.389 85.0919 264.268C85.1434 264.147 85.1703 264.016 85.1713 263.885L85.2329 258.859C85.2352 258.727 85.2114 258.596 85.163 258.474C85.1145 258.351 85.0423 258.24 84.9505 258.145C84.8588 258.051 84.7492 257.975 84.6282 257.923C84.5072 257.871 84.377 257.844 84.2453 257.842L79.2197 257.78C79.0875 257.778 78.9563 257.802 78.8334 257.851C78.7106 257.899 78.5986 257.972 78.504 258.064C78.4094 258.157 78.3341 258.267 78.2823 258.388C78.2306 258.51 78.2034 258.641 78.2024 258.773L78.1408 263.799C78.1386 263.931 78.1625 264.062 78.2113 264.185C78.26 264.308 78.3327 264.42 78.425 264.514C78.5173 264.609 78.6274 264.684 78.749 264.736C78.8706 264.788 79.0013 264.815 79.1334 264.816Z" fill="#BFE2E2"/>
<path d="M87.9668 256.196L92.9924 256.258C93.1246 256.26 93.2559 256.236 93.3787 256.188C93.5015 256.139 93.6135 256.066 93.7081 255.974C93.8027 255.882 93.878 255.771 93.9298 255.65C93.9816 255.528 94.0087 255.398 94.0097 255.265L94.0713 250.24C94.0736 250.108 94.0496 249.976 94.0009 249.853C93.9521 249.731 93.8795 249.619 93.7872 249.524C93.6949 249.429 93.5847 249.354 93.4631 249.302C93.3415 249.251 93.2109 249.223 93.0787 249.222L88.0531 249.161C87.9209 249.159 87.7896 249.183 87.6668 249.231C87.544 249.28 87.432 249.353 87.3374 249.445C87.2428 249.537 87.1675 249.647 87.1157 249.769C87.0639 249.891 87.0368 250.021 87.0358 250.153L86.9742 255.179C86.9719 255.311 86.9959 255.443 87.0446 255.565C87.0934 255.688 87.166 255.8 87.2583 255.895C87.3506 255.989 87.4608 256.065 87.5824 256.116C87.704 256.168 87.8347 256.195 87.9668 256.196Z" fill="#BFE2E2"/>
<path d="M79.2404 256.089L84.2661 256.151C84.3978 256.153 84.5285 256.128 84.6508 256.079C84.7731 256.03 84.8844 255.957 84.9785 255.865C85.0726 255.773 85.1475 255.663 85.1989 255.542C85.2504 255.42 85.2773 255.29 85.2783 255.158L85.3399 250.133C85.3422 250.001 85.3184 249.87 85.2699 249.748C85.2215 249.625 85.1493 249.513 85.0575 249.419C84.9658 249.324 84.8562 249.249 84.7352 249.197C84.6142 249.145 84.484 249.117 84.3523 249.115L79.3267 249.054C79.1945 249.052 79.0633 249.076 78.9404 249.124C78.8176 249.173 78.7056 249.246 78.611 249.338C78.5164 249.43 78.4411 249.54 78.3893 249.662C78.3375 249.784 78.3104 249.914 78.3094 250.046L78.2478 255.072C78.2455 255.204 78.2695 255.336 78.3182 255.458C78.367 255.581 78.4397 255.693 78.532 255.788C78.6243 255.882 78.7344 255.958 78.856 256.009C78.9776 256.061 79.1083 256.088 79.2404 256.089Z" fill="#BFE2E2"/>
<path d="M88.0721 247.612L93.0977 247.674C93.2299 247.676 93.3612 247.652 93.484 247.603C93.6068 247.554 93.7188 247.482 93.8134 247.39C93.908 247.297 93.9833 247.187 94.0351 247.065C94.0869 246.944 94.114 246.813 94.115 246.681L94.1766 241.655C94.1789 241.523 94.1549 241.392 94.1062 241.269C94.0574 241.146 93.9848 241.034 93.8925 240.94C93.8002 240.845 93.69 240.77 93.5684 240.718C93.4468 240.666 93.3161 240.639 93.184 240.638L88.1584 240.577C88.0262 240.574 87.8949 240.598 87.7721 240.647C87.6492 240.696 87.5373 240.768 87.4427 240.861C87.3481 240.953 87.2727 241.063 87.221 241.185C87.1692 241.306 87.1421 241.437 87.1411 241.569L87.0795 246.595C87.0772 246.727 87.1012 246.858 87.1499 246.981C87.1987 247.104 87.2713 247.216 87.3636 247.31C87.4559 247.405 87.5661 247.48 87.6877 247.532C87.8093 247.584 87.9399 247.611 88.0721 247.612Z" fill="#BFE2E2"/>
<path d="M79.3457 247.505L84.3713 247.567C84.503 247.568 84.6338 247.544 84.756 247.495C84.8783 247.446 84.9897 247.373 85.0837 247.281C85.1778 247.188 85.2527 247.079 85.3041 246.957C85.3556 246.836 85.3826 246.706 85.3835 246.574L85.4451 241.548C85.4474 241.417 85.4236 241.286 85.3752 241.163C85.3267 241.041 85.2545 240.929 85.1627 240.835C85.071 240.74 84.9614 240.665 84.8404 240.612C84.7194 240.56 84.5893 240.533 84.4575 240.531L79.4319 240.47C79.2998 240.467 79.1685 240.491 79.0456 240.54C78.9228 240.589 78.8108 240.661 78.7163 240.754C78.6217 240.846 78.5463 240.956 78.4945 241.078C78.4428 241.199 78.4156 241.33 78.4147 241.462L78.3531 246.488C78.3508 246.62 78.3747 246.751 78.4235 246.874C78.4722 246.997 78.5449 247.109 78.6372 247.203C78.7295 247.298 78.8396 247.373 78.9612 247.425C79.0828 247.477 79.2135 247.504 79.3457 247.505Z" fill="#BFE2E2"/>
<path d="M70.1522 264.706L75.1778 264.767C75.3099 264.77 75.4412 264.746 75.5641 264.697C75.6869 264.648 75.7989 264.575 75.8935 264.483C75.9881 264.391 76.0634 264.281 76.1152 264.159C76.1669 264.037 76.1941 263.907 76.195 263.775L76.2567 258.749C76.2589 258.617 76.235 258.486 76.1862 258.363C76.1375 258.24 76.0648 258.128 75.9725 258.033C75.8802 257.939 75.7701 257.863 75.6485 257.812C75.5269 257.76 75.3962 257.733 75.2641 257.732L70.2384 257.67C70.1063 257.668 69.975 257.692 69.8522 257.741C69.7293 257.789 69.6174 257.862 69.5228 257.954C69.4282 258.047 69.3528 258.157 69.3011 258.278C69.2493 258.4 69.2221 258.531 69.2212 258.663L69.1596 263.688C69.1573 263.821 69.1812 263.952 69.23 264.075C69.2788 264.198 69.3514 264.309 69.4437 264.404C69.536 264.499 69.6461 264.574 69.7678 264.626C69.8894 264.678 70.02 264.705 70.1522 264.706Z" fill="#BFE2E2"/>
<path d="M61.4269 264.599L66.4525 264.66C66.5847 264.663 66.716 264.639 66.8388 264.59C66.9616 264.541 67.0736 264.468 67.1682 264.376C67.2628 264.284 67.3381 264.174 67.3899 264.052C67.4417 263.93 67.4688 263.8 67.4698 263.668L67.5314 258.642C67.5337 258.51 67.5097 258.379 67.461 258.256C67.4122 258.133 67.3396 258.021 67.2473 257.926C67.1549 257.832 67.0448 257.756 66.9232 257.705C66.8016 257.653 66.6709 257.626 66.5388 257.625L61.5132 257.563C61.381 257.561 61.2497 257.585 61.1269 257.634C61.004 257.682 60.8921 257.755 60.7975 257.847C60.7029 257.94 60.6275 258.05 60.5758 258.171C60.524 258.293 60.4969 258.424 60.4959 258.556L60.4343 263.581C60.432 263.714 60.4559 263.845 60.5047 263.968C60.5535 264.091 60.6261 264.202 60.7184 264.297C60.8107 264.392 60.9209 264.467 61.0425 264.519C61.1641 264.571 61.2947 264.598 61.4269 264.599Z" fill="#BFE2E2"/>
<path d="M70.2592 255.979L75.2848 256.041C75.4169 256.043 75.5482 256.019 75.6711 255.97C75.7939 255.922 75.9059 255.849 76.0005 255.757C76.095 255.664 76.1704 255.554 76.2222 255.433C76.2739 255.311 76.3011 255.18 76.302 255.048L76.3637 250.023C76.3659 249.89 76.342 249.759 76.2932 249.636C76.2445 249.514 76.1718 249.402 76.0795 249.307C75.9872 249.212 75.8771 249.137 75.7555 249.085C75.6339 249.033 75.5032 249.006 75.371 249.005L70.3454 248.944C70.2133 248.941 70.082 248.965 69.9592 249.014C69.8363 249.063 69.7244 249.136 69.6298 249.228C69.5352 249.32 69.4598 249.43 69.4081 249.552C69.3563 249.674 69.3291 249.804 69.3282 249.936L69.2666 254.962C69.2643 255.094 69.2882 255.225 69.337 255.348C69.3858 255.471 69.4584 255.583 69.5507 255.678C69.643 255.772 69.7531 255.848 69.8747 255.899C69.9964 255.951 70.127 255.978 70.2592 255.979Z" fill="#BFE2E2"/>
<path d="M61.5339 255.872L66.5595 255.934C66.6917 255.936 66.8229 255.912 66.9458 255.863C67.0686 255.815 67.1806 255.742 67.2752 255.65C67.3698 255.557 67.4451 255.447 67.4969 255.326C67.5487 255.204 67.5758 255.073 67.5768 254.941L67.6384 249.916C67.6407 249.784 67.6167 249.652 67.568 249.529C67.5192 249.407 67.4465 249.295 67.3542 249.2C67.2619 249.105 67.1518 249.03 67.0302 248.978C66.9086 248.927 66.7779 248.899 66.6458 248.898L61.6201 248.837C61.488 248.835 61.3567 248.858 61.2339 248.907C61.111 248.956 60.9991 249.029 60.9045 249.121C60.8099 249.213 60.7345 249.323 60.6828 249.445C60.631 249.567 60.6039 249.697 60.6029 249.829L60.5413 254.855C60.539 254.987 60.5629 255.118 60.6117 255.241C60.6605 255.364 60.7331 255.476 60.8254 255.571C60.9177 255.665 61.0279 255.741 61.1495 255.792C61.2711 255.844 61.4017 255.871 61.5339 255.872Z" fill="#BFE2E2"/>
<path d="M70.3644 247.395L75.3901 247.457C75.5222 247.459 75.6535 247.435 75.7763 247.386C75.8992 247.337 76.0111 247.265 76.1057 247.172C76.2003 247.08 76.2757 246.97 76.3274 246.848C76.3792 246.727 76.4063 246.596 76.4073 246.464L76.4689 241.438C76.4712 241.306 76.4473 241.175 76.3985 241.052C76.3497 240.929 76.2771 240.817 76.1848 240.723C76.0925 240.628 75.9823 240.553 75.8607 240.501C75.7391 240.449 75.6085 240.422 75.4763 240.421L70.4507 240.359C70.3185 240.357 70.1873 240.381 70.0644 240.43C69.9416 240.479 69.8296 240.551 69.735 240.644C69.6404 240.736 69.5651 240.846 69.5133 240.968C69.4615 241.089 69.4344 241.22 69.4334 241.352L69.3718 246.378C69.3695 246.51 69.3935 246.641 69.4422 246.764C69.491 246.887 69.5637 246.999 69.656 247.093C69.7483 247.188 69.8584 247.263 69.98 247.315C70.1016 247.367 70.2323 247.394 70.3644 247.395Z" fill="#BFE2E2"/>
<path d="M111.616 250.171H116.653V255.208H111.616V250.171Z" stroke="#5AB3B3" stroke-width="2"/>
<path d="M120.343 250.171H125.379V255.208H120.343V250.171Z" stroke="#5AB3B3" stroke-width="2"/>
<path d="M111.616 258.756H125.61V263.793H111.616V258.756Z" stroke="#5AB3B3" stroke-width="2"/>
<path d="M61.6391 247.288L66.6647 247.35C66.7969 247.352 66.9282 247.328 67.051 247.279C67.1739 247.23 67.2858 247.158 67.3804 247.065C67.475 246.973 67.5503 246.863 67.6021 246.741C67.6539 246.62 67.681 246.489 67.682 246.357L67.7436 241.331C67.7459 241.199 67.7219 241.068 67.6732 240.945C67.6244 240.822 67.5518 240.71 67.4595 240.616C67.3672 240.521 67.257 240.446 67.1354 240.394C67.0138 240.342 66.8832 240.315 66.751 240.314L61.7254 240.252C61.5932 240.25 61.4619 240.274 61.3391 240.323C61.2163 240.372 61.1043 240.444 61.0097 240.537C60.9151 240.629 60.8398 240.739 60.788 240.861C60.7362 240.982 60.7091 241.113 60.7081 241.245L60.6465 246.271C60.6442 246.403 60.6682 246.534 60.7169 246.657C60.7657 246.78 60.8383 246.892 60.9306 246.986C61.0229 247.081 61.1331 247.156 61.2547 247.208C61.3763 247.26 61.507 247.287 61.6391 247.288Z" fill="#BFE2E2"/>
<path d="M44.9132 205.538C45.4846 205.746 46.0379 205.999 46.5651 206.302C46.7936 206.442 46.9878 206.63 47.1361 206.852C47.2468 207.041 47.3063 207.256 47.3069 207.476L47.3073 207.5L47.3087 207.524C47.3195 207.734 47.2819 207.943 47.1989 208.136C47.1179 208.324 46.9942 208.49 46.84 208.624C46.782 208.669 46.7231 208.713 46.6625 208.753C46.8924 208.475 47.0217 208.145 47.0505 207.793L47.0571 207.604C47.0543 207.416 47.0201 207.23 46.9559 207.055L46.8807 206.88L46.7861 206.716C46.6828 206.557 46.5529 206.417 46.402 206.301L46.3971 206.298L46.1618 206.132C45.9209 205.973 45.664 205.84 45.3961 205.732L44.9132 205.538ZM42.4278 201.993C42.1251 202.31 41.9713 202.719 41.9788 203.159L41.9808 203.159C41.9822 203.393 42.0306 203.624 42.1252 203.838C42.2238 204.062 42.3697 204.262 42.5522 204.424L42.571 204.44L42.5898 204.456C42.8959 204.702 43.2389 204.899 43.6067 205.038L43.9989 205.185L43.9994 205.214L43.8333 205.153L43.8117 205.145L43.7901 205.138L43.5503 205.055C43.0119 204.85 42.5172 204.545 42.0905 204.156C41.8564 203.891 41.7278 203.548 41.7323 203.193L41.7315 203.145C41.7247 202.958 41.7619 202.771 41.8394 202.601C41.9165 202.432 42.0316 202.283 42.1758 202.165C42.2571 202.104 42.3417 202.047 42.4278 201.993Z" stroke="#5AB3B3" stroke-width="2"/>
<path d="M121.2 99.0733C121.316 98.8803 121.383 99.2205 121.47 99.4284C127.512 113.895 119.081 112.71 112.501 119.887C114.032 121.209 114.919 123.027 114.919 125.501C114.919 126.302 114.865 127.138 114.753 127.991L119.985 126.848C120.621 126.01 123.2 122.369 125.585 121.364C125.163 125.576 122.902 127.436 122.121 128.467C121.735 128.976 121.181 129.33 120.557 129.467L113.712 132.258C113.654 132.418 113.594 132.577 113.531 132.735L120.381 134.233C121.005 134.369 121.559 134.724 121.945 135.232C122.732 136.271 125.409 139.075 125.409 142.378C123.152 142.378 120.443 137.689 119.809 136.852L111.901 135.908C111.66 136.277 111.405 136.638 111.132 136.99C111.275 136.999 111.407 137.038 111.52 137.113L115.92 140.797C116.452 141.151 116.839 141.684 117.013 142.298C117.36 143.527 118.365 145.442 117.198 147.881C115.92 147.117 114.783 144.265 114.433 143.028L109.675 139.855C109.404 139.674 109.219 139.411 109.134 139.121C106.514 141.421 102.896 142.953 98.0684 142.953C93.4151 142.953 89.9128 141.529 87.3512 139.367C87.2504 139.558 87.1021 139.727 86.9099 139.855L82.1518 143.028C81.8019 144.265 80.6648 147.117 79.3875 147.881C78.2201 145.442 79.2248 143.527 79.572 142.298C79.7457 141.684 80.1333 141.151 80.6648 140.797L85.0654 137.113C85.0941 137.094 85.124 137.077 85.155 137.062C84.8761 136.7 84.6144 136.327 84.3696 135.945L76.7763 136.852C76.142 137.689 73.4331 142.378 71.1758 142.378C71.1758 139.075 73.8536 136.271 74.6401 135.232C75.0258 134.724 75.5803 134.369 76.204 134.233L82.7767 132.796C82.6891 132.571 82.606 132.344 82.5274 132.117L76.0282 129.467C75.4045 129.33 74.85 128.976 74.4644 128.467C73.6834 127.436 71.4226 125.576 71 121.364C73.3853 122.369 75.9647 126.01 76.6006 126.848L81.561 127.932C81.4586 127.099 81.4098 126.284 81.4098 125.501C81.4098 122.934 82.34 121.073 83.9487 119.739C77.4185 112.616 69.0981 113.835 75.1149 99.4284C75.2017 99.2205 75.2695 98.8803 75.3855 99.0733C75.927 99.9746 77.9368 105.358 79.1565 107.73C79.3138 108.036 79.7205 108.35 79.8602 108.036C80.0932 107.512 79.8222 105.814 78.9321 101.741C78.8457 101.346 79.0266 100.989 79.3856 101.176C81.7772 102.422 89.739 112.054 85.0653 116.99L86.2968 118.333C88.2624 117.48 90.7161 117.013 93.4602 116.791C93.2944 116.104 93.1502 115.244 93.0892 114.248C91.9615 113.895 91.143 112.842 91.143 111.598C91.143 110.065 92.3861 108.822 93.9195 108.822C95.4528 108.822 96.6959 110.065 96.6959 111.598C96.6959 112.818 95.9087 113.855 94.8146 114.227C94.8836 115.257 95.0502 116.094 95.2121 116.684C96.1402 116.643 97.0945 116.624 98.0684 116.624C99.1949 116.624 100.298 116.649 101.367 116.704C101.531 116.113 101.701 115.269 101.771 114.227C100.676 113.855 99.8893 112.818 99.8893 111.598C99.8893 110.065 101.132 108.822 102.666 108.822C104.199 108.822 105.442 110.065 105.442 111.598C105.442 112.842 104.624 113.895 103.496 114.248C103.434 115.261 103.285 116.134 103.116 116.828C105.824 117.073 108.249 117.566 110.187 118.444L111.52 116.99C106.846 112.054 114.808 102.422 117.2 101.176C117.559 100.989 117.739 101.346 117.653 101.741C116.763 105.814 116.492 107.512 116.725 108.036C116.865 108.35 117.271 108.036 117.429 107.73C118.648 105.358 120.658 99.9746 121.2 99.0733Z" fill="#5AB3B3"/>
<path d="M109.092 191.743C109.848 194.012 111.167 195.839 112.712 197.275C113.241 197.766 113.797 198.211 114.365 198.613C111.769 199.354 109.015 199.567 106.368 199.16C104.083 198.808 103.731 195.645 103.841 194.107C105.903 193.641 107.665 192.798 109.092 191.743Z" fill="#5AB3B3"/>
<path d="M93.7236 191.581C93.9841 190.666 94.7905 188.901 95.9328 189.164C97.0751 189.428 100.949 192.643 102.743 194.217C102.56 194.84 102.567 197.161 104.06 198.831C101.204 198.94 94.79 198.193 91.9783 196.963C89.1672 195.733 91.3928 194.108 92.8572 193.449L96.1166 193.702L93.7236 191.581Z" fill="#5AB3B3"/>
<path d="M112.142 188.442C114.78 191.023 117.879 192.039 120.823 192.184C121.943 192.239 123.039 192.168 124.081 192.011C122.058 194.832 119.056 196.959 115.695 198.182C114.923 197.694 114.166 197.125 113.46 196.47C111.95 195.067 110.676 193.267 110.009 190.996C110.886 190.21 111.601 189.341 112.142 188.442Z" fill="#5AB3B3"/>
<path d="M126.429 179.949C126.64 181.163 126.742 182.442 126.742 183.782C126.742 186.364 126.062 188.708 124.894 190.749C123.64 191.013 122.275 191.155 120.877 191.086C118.085 190.949 115.156 189.972 112.676 187.421C112.96 186.789 113.16 186.152 113.27 185.527C117.735 186.194 121.262 184.755 123.869 182.607C124.852 181.796 125.704 180.885 126.429 179.949Z" fill="#5AB3B3"/>
<path fill-rule="evenodd" clip-rule="evenodd" d="M98.0197 165C100.808 165 103.364 165.125 105.698 165.369C106.759 166.946 107.814 169.358 107.839 171.898C107.865 174.595 106.734 177.489 103.06 179.752C101.755 179.972 100.441 180.092 99.1244 180.125C98.7737 180.255 98.4218 180.405 98.075 180.574C96.8051 181.192 94.3192 185.198 93.4269 184.975C92.8574 183.344 95.2887 180.478 95.9336 180.039C95.1825 179.981 94.4319 179.898 93.6825 179.792C93.0006 179.976 92.2867 180.236 91.594 180.574C90.3242 181.192 87.8392 185.197 86.9467 184.975C86.487 183.234 90.0168 179.646 90.7664 179.268C90.406 179.189 90.046 179.107 89.687 179.019C88.5085 178.944 86.7014 179.306 85.0168 180.127C83.7469 180.746 81.2607 184.751 80.3687 184.528C80.1164 182.519 83.5793 179.117 84.343 178.745C84.9336 178.457 85.5492 178.214 86.1633 178.02C80.7196 176.265 75.532 173.66 71 171.151C72.848 170.452 78.0391 169.406 80.1163 168.845C81.1031 168.578 73.473 167.806 74.4993 167.571C81.9087 165.873 90.2452 165 98.0197 165ZM84.182 168.676C83.3014 168.676 82.5875 169.39 82.5874 170.271C82.5876 171.151 83.3015 171.865 84.182 171.865C85.0627 171.865 85.7773 171.151 85.7774 170.271C85.7774 169.39 85.0627 168.676 84.182 168.676Z" fill="#5AB3B3"/>
<path d="M107.094 165.533C111.379 166.092 114.87 167.081 117.654 168.461C117.932 170.203 117.92 172.385 117.191 174.396C116.316 176.809 114.396 179.024 110.56 179.951C110.316 179.837 110.055 179.736 109.777 179.649C108.924 179.829 107.991 180.136 107.094 180.574C105.824 181.192 103.338 185.198 102.446 184.975C101.639 182.678 104.912 180.038 105.465 179.355C108.055 177.111 108.962 174.439 108.937 171.887C108.914 169.477 108.062 167.208 107.094 165.533Z" fill="#5AB3B3"/>
<path d="M118.845 169.101C122.779 171.383 125.099 174.566 126.12 178.511C125.333 179.65 124.352 180.785 123.17 181.759C120.762 183.743 117.523 185.069 113.371 184.432C113.379 182.993 112.871 181.685 111.796 180.746C115.364 179.603 117.305 177.306 118.224 174.77C118.917 172.857 119.022 170.832 118.845 169.101Z" fill="#5AB3B3"/>
</g>
<defs>
<clipPath id="clip0_6264_8229">
<rect width="400" height="320" fill="white"/>
</clipPath>
</defs>
</svg>
