<svg width="400" height="320" viewBox="0 0 400 320" fill="none" xmlns="http://www.w3.org/2000/svg">
<g clip-path="url(#clip0_6264_1377)">
<path d="M304.018 157C304.018 99.5624 257.456 53 200.018 53C142.58 53 96.0181 99.5624 96.0181 157C96.0181 214.438 142.58 261 200.018 261V263C141.476 263 94.0181 215.542 94.0181 157C94.0181 98.4578 141.476 51 200.018 51C258.56 51 306.018 98.4578 306.018 157C306.018 215.542 258.56 263 200.018 263V261C257.456 261 304.018 214.438 304.018 157Z" fill="#5AB3B3"/>
<path d="M289.269 157C289.269 107.707 249.31 67.7478 200.017 67.7478C150.725 67.7479 110.766 107.707 110.766 157C110.766 206.292 150.725 246.252 200.017 246.252V248.252C149.62 248.252 108.766 207.397 108.766 157C108.766 106.603 149.62 65.7479 200.017 65.7478C250.415 65.7478 291.269 106.603 291.269 157C291.269 207.397 250.415 248.252 200.017 248.252V246.252C249.31 246.252 289.269 206.292 289.269 157Z" fill="#5AB3B3"/>
<path d="M63.4972 93.9556H65.5447L67.1413 53.1274H69.8786L71.4752 93.9556H73.5227L75.1193 53.1274H77.8566L79.4532 93.9556H81.5007L83.0974 53.1274H85.8346L88 108.497C87.0441 117.148 82.8343 121.672 76.6521 122.911C79.7447 163.951 81.5407 238.029 81.5407 242.612C81.5407 248.972 77.4926 254.127 72.499 254.127C67.5053 254.127 63.4572 248.972 63.4572 242.612C63.4572 238.012 64.5714 163.394 67.8036 122.45C61.9152 120.486 57.4774 115.163 57 108.429L59.1633 53.1274H61.9006L63.4972 93.9556Z" fill="#BFE2E2"/>
<path d="M335.146 254.127C340.036 254.127 344 248.978 344 242.627L339.833 53.1274C321.864 62.537 319 153.68 319 160.031C319 164.823 323.775 165.806 328.221 166C326.823 202.133 326.292 239.42 326.292 242.627C326.292 248.978 330.256 254.127 335.146 254.127Z" fill="#BFE2E2"/>
<path d="M270.891 62.7004H132.557V256.301H270.891V62.7004Z" fill="#ABB1BD"/>
<path d="M131.709 60.7454H266.043C266.595 60.7456 267.043 61.1932 267.043 61.7454V251.346C267.043 251.898 266.595 252.346 266.043 252.346H131.709C131.157 252.346 130.709 251.898 130.709 251.346V61.7454C130.709 61.1931 131.157 60.7454 131.709 60.7454Z" fill="#FFF3CD"/>
<path d="M131.709 60.7454H266.043C266.595 60.7456 267.043 61.1932 267.043 61.7454V251.346C267.043 251.898 266.595 252.346 266.043 252.346H131.709C131.157 252.346 130.709 251.898 130.709 251.346V61.7454C130.709 61.1931 131.157 60.7454 131.709 60.7454Z" stroke="#2E3E5A" stroke-width="2" stroke-linejoin="round"/>
<path d="M131.709 60.7454H266.043C266.595 60.7456 267.043 61.1932 267.043 61.7454V251.346C267.043 251.898 266.595 252.346 266.043 252.346H131.709C131.157 252.346 130.709 251.898 130.709 251.346V61.7454C130.709 61.1931 131.157 60.7454 131.709 60.7454Z" stroke="black" stroke-opacity="0.2" stroke-width="2" stroke-linejoin="round"/>
<path d="M131.709 60.7454H266.043C266.595 60.7456 267.043 61.1932 267.043 61.7454V251.346C267.043 251.898 266.595 252.346 266.043 252.346H131.709C131.157 252.346 130.709 251.898 130.709 251.346V61.7454C130.709 61.1931 131.157 60.7454 131.709 60.7454Z" stroke="black" stroke-opacity="0.2" stroke-width="2" stroke-linejoin="round"/>
<path d="M142.368 187.963H219.588" stroke="#2E3E5A" stroke-width="3" stroke-linecap="round" stroke-linejoin="round"/>
<path d="M142.368 187.963H219.588" stroke="black" stroke-opacity="0.2" stroke-width="3" stroke-linecap="round" stroke-linejoin="round"/>
<path d="M142.368 187.963H219.588" stroke="black" stroke-opacity="0.2" stroke-width="3" stroke-linecap="round" stroke-linejoin="round"/>
<path d="M142.368 210.568H219.588" stroke="#2E3E5A" stroke-width="3" stroke-linecap="round" stroke-linejoin="round"/>
<path d="M142.368 210.568H219.588" stroke="black" stroke-opacity="0.2" stroke-width="3" stroke-linecap="round" stroke-linejoin="round"/>
<path d="M142.368 210.568H219.588" stroke="black" stroke-opacity="0.2" stroke-width="3" stroke-linecap="round" stroke-linejoin="round"/>
<path d="M142.368 233.173H219.588" stroke="#2E3E5A" stroke-width="3" stroke-linecap="round" stroke-linejoin="round"/>
<path d="M142.368 233.173H219.588" stroke="black" stroke-opacity="0.2" stroke-width="3" stroke-linecap="round" stroke-linejoin="round"/>
<path d="M142.368 233.173H219.588" stroke="black" stroke-opacity="0.2" stroke-width="3" stroke-linecap="round" stroke-linejoin="round"/>
<path d="M200.907 157.487V166.676C200.907 167.725 200.671 168.644 200.198 169.434C199.732 170.224 199.055 170.83 198.168 171.251C197.281 171.672 196.232 171.882 195.021 171.882C193.195 171.882 191.777 171.416 190.767 170.483C189.757 169.544 189.252 168.262 189.252 166.637V157.487H192.253V166.18C192.253 167.275 192.473 168.078 192.914 168.589C193.354 169.101 194.082 169.357 195.099 169.357C196.083 169.357 196.796 169.101 197.236 168.589C197.683 168.071 197.906 167.262 197.906 166.161V157.487H200.907Z" fill="#2E3E5A"/>
<path d="M200.907 157.487V166.676C200.907 167.725 200.671 168.644 200.198 169.434C199.732 170.224 199.055 170.83 198.168 171.251C197.281 171.672 196.232 171.882 195.021 171.882C193.195 171.882 191.777 171.416 190.767 170.483C189.757 169.544 189.252 168.262 189.252 166.637V157.487H192.253V166.18C192.253 167.275 192.473 168.078 192.914 168.589C193.354 169.101 194.082 169.357 195.099 169.357C196.083 169.357 196.796 169.101 197.236 168.589C197.683 168.071 197.906 167.262 197.906 166.161V157.487H200.907Z" fill="black" fill-opacity="0.2"/>
<path d="M200.907 157.487V166.676C200.907 167.725 200.671 168.644 200.198 169.434C199.732 170.224 199.055 170.83 198.168 171.251C197.281 171.672 196.232 171.882 195.021 171.882C193.195 171.882 191.777 171.416 190.767 170.483C189.757 169.544 189.252 168.262 189.252 166.637V157.487H192.253V166.18C192.253 167.275 192.473 168.078 192.914 168.589C193.354 169.101 194.082 169.357 195.099 169.357C196.083 169.357 196.796 169.101 197.236 168.589C197.683 168.071 197.906 167.262 197.906 166.161V157.487H200.907Z" fill="black" fill-opacity="0.2"/>
<path d="M185.765 171.688H181.938L175.76 160.945H175.673C175.796 162.842 175.858 164.196 175.858 165.005V171.688H173.167V157.487H176.965L183.133 168.123H183.201C183.104 166.278 183.055 164.973 183.055 164.209V157.487H185.765V171.688Z" fill="#2E3E5A"/>
<path d="M185.765 171.688H181.938L175.76 160.945H175.673C175.796 162.842 175.858 164.196 175.858 165.005V171.688H173.167V157.487H176.965L183.133 168.123H183.201C183.104 166.278 183.055 164.973 183.055 164.209V157.487H185.765V171.688Z" fill="black" fill-opacity="0.2"/>
<path d="M185.765 171.688H181.938L175.76 160.945H175.673C175.796 162.842 175.858 164.196 175.858 165.005V171.688H173.167V157.487H176.965L183.133 168.123H183.201C183.104 166.278 183.055 164.973 183.055 164.209V157.487H185.765V171.688Z" fill="black" fill-opacity="0.2"/>
<path d="M170.195 171.688H162.016V157.487H170.195V159.954H165.027V163.072H169.835V165.539H165.027V169.201H170.195V171.688Z" fill="#2E3E5A"/>
<path d="M170.195 171.688H162.016V157.487H170.195V159.954H165.027V163.072H169.835V165.539H165.027V169.201H170.195V171.688Z" fill="black" fill-opacity="0.2"/>
<path d="M170.195 171.688H162.016V157.487H170.195V159.954H165.027V163.072H169.835V165.539H165.027V169.201H170.195V171.688Z" fill="black" fill-opacity="0.2"/>
<path d="M149.263 171.688L145.844 160.547H145.757C145.88 162.813 145.941 164.325 145.941 165.083V171.688H143.251V157.487H147.35L150.711 168.346H150.769L154.334 157.487H158.432V171.688H155.625V164.966C155.625 164.649 155.629 164.283 155.635 163.869C155.648 163.454 155.693 162.354 155.771 160.566H155.684L152.022 171.688H149.263Z" fill="#2E3E5A"/>
<path d="M149.263 171.688L145.844 160.547H145.757C145.88 162.813 145.941 164.325 145.941 165.083V171.688H143.251V157.487H147.35L150.711 168.346H150.769L154.334 157.487H158.432V171.688H155.625V164.966C155.625 164.649 155.629 164.283 155.635 163.869C155.648 163.454 155.693 162.354 155.771 160.566H155.684L152.022 171.688H149.263Z" fill="black" fill-opacity="0.2"/>
<path d="M149.263 171.688L145.844 160.547H145.757C145.88 162.813 145.941 164.325 145.941 165.083V171.688H143.251V157.487H147.35L150.711 168.346H150.769L154.334 157.487H158.432V171.688H155.625V164.966C155.625 164.649 155.629 164.283 155.635 163.869C155.648 163.454 155.693 162.354 155.771 160.566H155.684L152.022 171.688H149.263Z" fill="black" fill-opacity="0.2"/>
<path d="M178.041 70.4177C196.091 71.0552 208.611 79.6038 213.43 84.5561C215.943 84.7328 218.297 85.0075 220.509 85.372C216.417 91.3453 214.107 98.1241 214.107 105.309C214.107 112.557 216.46 119.392 220.619 125.403C218.012 125.766 215.221 126.021 212.222 126.163C206.709 131.183 194.743 138.547 178.041 139.137C179.163 133.375 184.011 127.924 187.775 124.459C177.602 122.329 169.767 118.521 164.322 114.006C159.617 118.519 152.531 123.574 143.559 127.859C139.553 123.543 146.582 107.594 150.886 105.308C146.582 103.022 139.553 87.0728 143.559 82.7577C152.147 86.8589 159.008 91.6661 163.706 96.0275C169.238 91.4161 177.768 87.7614 188.59 85.8312C184.749 82.4359 179.246 76.6061 178.041 70.4177Z" fill="#708DAF"/>
<path fill-rule="evenodd" clip-rule="evenodd" d="M223.892 86.0222C239.131 89.3805 247.245 97.2998 255.762 105.935C248.078 114.918 239.549 121.938 224.075 124.841C219.679 118.988 217.239 112.315 217.239 105.309C217.239 98.4004 219.611 91.8156 223.892 86.0222ZM231.333 94.9735C228.738 94.9735 226.634 97.0766 226.634 99.6712C226.635 102.266 228.739 104.369 231.333 104.369C233.927 104.369 236.03 102.265 236.031 99.6712C236.031 97.0769 233.927 94.9739 231.333 94.9735Z" fill="#708DAF"/>
<path d="M41.7953 47.9926C39.2198 41.2982 31.7057 37.9522 24.9985 40.5281C18.2913 43.1039 14.9588 50.6182 17.5345 57.3258C20.11 64.0201 27.624 67.3661 34.3312 64.7903C41.0252 62.2147 44.371 54.7001 41.7953 47.9926Z" stroke="#5AB3B3" stroke-width="2" stroke-linecap="round" stroke-linejoin="round"/>
<path d="M57.2648 18.7062C54.6891 12.0118 47.1614 8.66612 40.4671 11.2417C33.7727 13.8174 30.427 21.3451 33.0026 28.0394C35.5782 34.7338 43.106 38.0795 49.8003 35.5039C56.4947 32.9283 59.8406 25.4137 57.2648 18.7062Z" stroke="#5AB3B3" stroke-width="2" stroke-linecap="round" stroke-linejoin="round"/>
<path d="M53.4239 39.241C55.0333 39.8672 56.7427 40.177 58.472 40.1324C60.2016 40.101 61.8983 39.7161 63.4837 39.0185C65.0559 38.3212 66.4773 37.3251 67.6696 36.0709C68.8486 34.8169 69.773 33.3578 70.3776 31.7472C70.9822 30.1366 71.2548 28.4271 71.1974 26.7237C71.1265 25.0074 70.7261 23.3232 69.9979 21.7762C69.2696 20.2161 68.2406 18.8319 66.9649 17.675C65.6891 16.5182 64.1937 15.6276 62.572 15.054" stroke="#5AB3B3" stroke-width="2" stroke-linecap="round" stroke-linejoin="round"/>
<path d="M61.5842 257.5L25.4998 195L-31.0002 226.66L5.49976 289.88L61.5842 257.5Z" fill="#BFE2E2"/>
<mask id="mask0_6264_1377" style="mask-type:luminance" maskUnits="userSpaceOnUse" x="-46" y="173" width="124" height="143">
<path d="M14.2247 173.725L-45.0952 208.412L17.7921 315.96L77.1119 281.273L14.2247 173.725Z" fill="white"/>
</mask>
<g mask="url(#mask0_6264_1377)">
<path d="M15.9498 182.607C15.2083 181.339 13.9936 180.418 12.5728 180.045C11.1518 179.673 9.64037 179.88 8.37221 180.622L-36.2159 206.694C-37.4838 207.435 -38.4048 208.651 -38.7771 210.072C-39.1494 211.493 -38.9429 213.003 -38.2015 214.271L16.0658 307.078C16.8073 308.346 18.023 309.267 19.4441 309.64C20.865 310.012 22.3753 309.805 23.6434 309.063L68.2315 282.991C69.4996 282.249 70.4216 281.035 70.794 279.614C71.1663 278.193 70.9586 276.681 70.2171 275.413L15.9498 182.607ZM71.9444 274.403C72.9538 276.13 73.2359 278.187 72.729 280.121C72.222 282.056 70.9676 283.709 69.2415 284.718L24.6534 310.791C22.9273 311.8 20.8711 312.082 18.9368 311.576C17.0024 311.069 15.3487 309.813 14.3393 308.087L-39.928 215.281C-40.9372 213.555 -41.2198 211.499 -40.7129 209.564C-40.2061 207.63 -38.9515 205.977 -37.2254 204.967L7.36266 178.895C9.08882 177.886 11.1449 177.603 13.0792 178.11C15.0135 178.617 16.6677 179.871 17.6771 181.597L71.9444 274.403Z" fill="#5AB3B3"/>
<path d="M23.2698 193.744L23.3608 193.696C23.8221 193.486 24.3764 193.655 24.6378 194.102C24.8992 194.549 24.7748 195.115 24.3654 195.414L24.2794 195.47L-31.0757 227.838C-31.5527 228.117 -32.1649 227.957 -32.4438 227.48C-32.7227 227.003 -32.5622 226.391 -32.0853 226.112L23.2698 193.744Z" fill="#5AB3B3"/>
<path d="M60.7579 257.855L60.8488 257.807C61.3101 257.597 61.8645 257.766 62.1259 258.213C62.3873 258.66 62.2628 259.226 61.8535 259.525L61.7674 259.581L6.41229 291.949C5.93534 292.228 5.32316 292.068 5.04426 291.591C4.76537 291.114 4.92579 290.502 5.40274 290.223L60.7579 257.855Z" fill="#5AB3B3"/>
<path d="M37.3715 281.375C38.7392 280.578 40.3672 280.357 41.8979 280.76C43.4285 281.163 44.7361 282.158 45.5333 283.526L45.5343 283.528C46.1264 284.547 46.4035 285.719 46.3302 286.895C46.2567 288.071 45.8365 289.199 45.1225 290.136C44.4082 291.074 43.4319 291.779 42.3172 292.162C41.2026 292.545 39.9994 292.59 38.8596 292.289C37.7199 291.989 36.6948 291.357 35.9137 290.474C35.1327 289.592 34.63 288.497 34.4707 287.329C34.3113 286.161 34.5022 284.973 35.0183 283.913C35.5343 282.853 36.353 281.97 37.3707 281.375L37.3715 281.375ZM38.3786 283.103C37.7029 283.498 37.1594 284.085 36.8168 284.789C36.4739 285.493 36.3481 286.283 36.454 287.059C36.5598 287.835 36.8924 288.562 37.4112 289.148C37.9301 289.735 38.6122 290.154 39.3696 290.354C40.1268 290.554 40.9261 290.525 41.6666 290.27C42.4072 290.015 43.0558 289.547 43.5304 288.925C44.005 288.301 44.2849 287.551 44.3336 286.769C44.3822 285.988 44.1983 285.209 43.8048 284.532C43.2747 283.624 42.4051 282.963 41.3879 282.695C40.3703 282.427 39.2878 282.573 38.3786 283.103Z" fill="#5AB3B3"/>
</g>
<path d="M102.366 287.568C99.7901 280.873 92.276 277.527 85.5688 280.103C78.8616 282.679 75.5291 290.193 78.1048 296.901C80.6803 303.595 88.1944 306.941 94.9015 304.365C101.596 301.79 104.941 294.275 102.366 287.568Z" stroke="#5AB3B3" stroke-width="2" stroke-linecap="round" stroke-linejoin="round"/>
<path d="M304.098 -39.9656C278.781 -45.0593 254.128 -28.6655 249.034 -3.3487C243.94 21.9681 260.334 46.6207 285.651 51.7147C310.968 56.8085 335.62 40.4146 340.714 15.0978C345.808 -10.2191 329.414 -34.8717 304.098 -39.9656ZM304.492 -41.9263C330.892 -36.6145 347.987 -10.9075 342.675 15.4923C337.363 41.892 311.656 58.9871 285.257 53.6754C258.857 48.3635 241.762 22.6564 247.073 -3.7432C252.385 -30.1429 278.092 -47.2379 304.492 -41.9263Z" fill="#5AB3B3"/>
<path d="M331.725 13.2892C335.82 -7.06309 322.64 -26.8815 302.288 -30.9765C281.936 -35.0715 262.117 -21.8923 258.023 -1.54003C253.928 18.8123 267.107 38.6307 287.459 42.7256C307.811 46.8206 327.63 33.6415 331.725 13.2892Z" fill="#BFE2E2"/>
<path d="M302.091 -29.9958C282.28 -33.9818 262.989 -21.1539 259.003 -1.34317C255.017 18.4677 267.846 37.7592 287.656 41.7452C307.467 45.7311 326.758 32.9022 330.744 13.0915C334.73 -6.71923 321.902 -26.0096 302.091 -29.9958ZM302.486 -31.9565C323.379 -27.7525 336.908 -7.40759 332.705 13.486C328.501 34.3796 308.156 47.9097 287.262 43.7059C266.368 39.502 252.838 19.156 257.042 -1.73767C261.246 -22.6312 281.592 -36.1604 302.486 -31.9565Z" fill="#5AB3B3"/>
<path d="M296.331 284.15C296.331 284.15 262.374 280.558 247.52 298.068C251.2 329.186 276.872 323.911 276.872 323.911C276.872 323.911 309.148 319.808 296.331 284.15Z" stroke="#5AB3B3" stroke-width="2" stroke-linecap="round" stroke-linejoin="round"/>
<path d="M366.298 265.719C366.298 265.719 332.341 262.127 317.487 279.637C321.167 310.755 346.839 305.48 346.839 305.48C346.839 305.48 379.115 301.377 366.298 265.719Z" stroke="#5AB3B3" stroke-width="2" stroke-linecap="round" stroke-linejoin="round"/>
<path d="M297.521 284.189L317.02 279.79" stroke="#5AB3B3" stroke-width="2" stroke-linecap="round" stroke-linejoin="round"/>
<path d="M324.035 281.206C324.035 281.206 344.889 267.07 360.751 272.265C369.345 292.124 350.754 298.041 350.754 298.041C350.754 298.041 328.279 306.996 324.035 281.206Z" stroke="#5AB3B3" stroke-width="2" stroke-linecap="round" stroke-linejoin="round"/>
<path d="M291.104 289.881C291.104 289.881 265.991 287.854 254.748 300.19C257.053 321.705 276.146 317.694 276.146 317.694C276.146 317.694 300.117 314.414 291.104 289.881Z" stroke="#5AB3B3" stroke-width="2" stroke-linecap="round" stroke-linejoin="round"/>
<path d="M251.287 310.381C251.287 310.381 243.276 313.612 241.88 317.002C240.485 320.391 241.641 325.811 243.161 327.97C244.681 330.129 249.78 330.731 247.958 325.618C246.135 320.504 246.604 319.092 253.504 316.052" stroke="#5AB3B3" stroke-width="2"/>
<path d="M299.743 299.709L319.469 292.809" stroke="#5AB3B3" stroke-width="2"/>
<path d="M298.365 294.474L318.091 287.574" stroke="#5AB3B3" stroke-width="2"/>
<path d="M369.061 279.356C369.061 279.356 377.623 278.222 380.507 280.484C383.392 282.746 385.055 288.032 384.797 290.661C384.539 293.29 380.398 296.323 379.465 290.983C378.532 285.642 377.426 284.63 369.924 285.384" stroke="#5AB3B3" stroke-width="2"/>
<path d="M321.634 293.942L312.73 295.132" stroke="#5AB3B3" stroke-width="2"/>
</g>
<defs>
<clipPath id="clip0_6264_1377">
<rect width="400" height="320" fill="white"/>
</clipPath>
</defs>
</svg>
