<svg xmlns="http://www.w3.org/2000/svg" width="144.205" height="87.085" viewBox="0 0 144.205 87.085"><path d="M194.445,122.378v-67.7c0-4-2.919-7.237-6.523-7.237H77.288c-3.6,0-6.523,3.24-6.523,7.237v67.7" transform="translate(-60.503 -47.44)" fill="#acb1bc"/><path d="M186.566,114.3V54.16a1.214,1.214,0,0,0-1.206-1.222H78.022a1.215,1.215,0,0,0-1.206,1.222V114.3" transform="translate(-59.589 -46.609)" fill="#fff"/><path d="M125.861,61.579a1.206,1.206,0,0,0-1.206,1.206V104.5a1.207,1.207,0,0,0,1.206,1.206h43.36a1.207,1.207,0,0,0,1.206-1.206V62.785a1.206,1.206,0,0,0-1.206-1.206Z" transform="translate(-52.356 -43.61)" fill="#ffd964"/><path d="M138.159,75.378a9.585,9.585,0,0,0-1.327-.493,10.26,10.26,0,0,0-1.33-.3,2.679,2.679,0,0,1-1.074-.383.95.95,0,0,1-.47-.822.933.933,0,0,1,.394-.794,1.55,1.55,0,0,1,.944-.277,1.709,1.709,0,0,1,.938.242,3.324,3.324,0,0,1,.277.214c.1.085.236.189.389.3a.912.912,0,0,0,.554.162,1.216,1.216,0,0,0,.953-.661,2.139,2.139,0,0,0,.458-.955c0-.115-.082-.328-.472-.688l-.071-.051-.192-.172a3.807,3.807,0,0,0-.624-.348,4.535,4.535,0,0,0-1.013-.338.117.117,0,0,1-.092-.113V68.757a5.347,5.347,0,0,0-.039-.756.725.725,0,0,0-.275-.428,1.152,1.152,0,0,0-.751-.206c-.53,0-.856.14-.972.418a2.844,2.844,0,0,0-.114.953v1.141a.116.116,0,0,1-.092.113,3.45,3.45,0,0,0-2.07,1.221,3.35,3.35,0,0,0-.749,2.127,3.272,3.272,0,0,0,.548,1.948,3.019,3.019,0,0,0,1.334,1.08,11.522,11.522,0,0,0,1.613.516,8.506,8.506,0,0,1,1.4.443.877.877,0,0,1,.64.8c0,.619-.282,1.357-1.622,1.357a1.936,1.936,0,0,1-1.516-.816c-.638-.635-1-.771-1.183-.771a1.127,1.127,0,0,0-.785.355c-.542.527-.656.832-.656.995a1.562,1.562,0,0,0,.4.886l.266.348a4.022,4.022,0,0,0,.907.726,4.518,4.518,0,0,0,1.469.594.117.117,0,0,1,.091.114v1.263a2.8,2.8,0,0,0,.134.995.5.5,0,0,0,.292.3,2.239,2.239,0,0,0,1.279,0,.6.6,0,0,0,.325-.329,2.535,2.535,0,0,0,.121-.949v-1.3a.117.117,0,0,1,.09-.114,4.305,4.305,0,0,0,2.163-1.229,3.92,3.92,0,0,0,.482-4.209,2.271,2.271,0,0,0-.977-.962" transform="translate(-51.38 -43.028)" fill="#313e58"/><path d="M147.883,75.378a9.585,9.585,0,0,0-1.327-.493,10.289,10.289,0,0,0-1.328-.3,2.678,2.678,0,0,1-1.075-.383.95.95,0,0,1-.47-.822.933.933,0,0,1,.394-.794,1.555,1.555,0,0,1,.944-.277,1.715,1.715,0,0,1,.939.242q.128.088.276.214c.1.085.236.189.389.3a.924.924,0,0,0,.554.162,1.216,1.216,0,0,0,.953-.661,2.138,2.138,0,0,0,.458-.955c0-.115-.082-.328-.471-.688l-.073-.051-.192-.172a3.806,3.806,0,0,0-.624-.348,4.514,4.514,0,0,0-1.013-.338.116.116,0,0,1-.091-.113V68.757a5.314,5.314,0,0,0-.04-.756.724.724,0,0,0-.275-.428,1.151,1.151,0,0,0-.749-.206c-.531,0-.858.14-.973.418a2.844,2.844,0,0,0-.114.953v1.141a.116.116,0,0,1-.092.113,3.478,3.478,0,0,0-1.969,1.114c-.032.037-.071.068-.1.107a3.35,3.35,0,0,0-.749,2.127,3.272,3.272,0,0,0,.548,1.948,3.408,3.408,0,0,0,.3.325,2.925,2.925,0,0,0,1.031.755,11.569,11.569,0,0,0,1.613.516,8.508,8.508,0,0,1,1.4.443.877.877,0,0,1,.64.8c0,.619-.281,1.357-1.622,1.357a1.936,1.936,0,0,1-1.516-.816c-.638-.635-1-.771-1.183-.771a.954.954,0,0,0-.366.081,1.33,1.33,0,0,0-.419.274c-.542.527-.656.832-.656.995a1.563,1.563,0,0,0,.4.886l.266.348a2.635,2.635,0,0,0,.406.373c.143.112.3.228.5.353a4.518,4.518,0,0,0,1.469.594.116.116,0,0,1,.091.114v1.263a2.765,2.765,0,0,0,.135.995.5.5,0,0,0,.291.3,2.239,2.239,0,0,0,1.279,0,.6.6,0,0,0,.325-.329,2.529,2.529,0,0,0,.122-.949v-1.3a.117.117,0,0,1,.089-.114,4.3,4.3,0,0,0,2.163-1.229,3.92,3.92,0,0,0,.482-4.209,2.271,2.271,0,0,0-.977-.962" transform="translate(-49.91 -43.028)" fill="#313e58"/><path d="M158.583,76.341h0a2.258,2.258,0,0,0-.977-.962,9.477,9.477,0,0,0-1.327-.493,10.29,10.29,0,0,0-1.328-.3,2.678,2.678,0,0,1-1.075-.383.95.95,0,0,1-.47-.822.933.933,0,0,1,.394-.794,1.556,1.556,0,0,1,.945-.277,1.714,1.714,0,0,1,.938.242,3.228,3.228,0,0,1,.276.213c.1.086.236.19.389.3a.925.925,0,0,0,.555.162,1.215,1.215,0,0,0,.952-.661,2.148,2.148,0,0,0,.459-.955c0-.115-.083-.328-.472-.688l-.071-.051-.192-.172a3.989,3.989,0,0,0-.624-.349,4.582,4.582,0,0,0-1.014-.337.116.116,0,0,1-.091-.113V68.757A5.531,5.531,0,0,0,155.81,68a.727.727,0,0,0-.276-.428,1.151,1.151,0,0,0-.749-.206c-.531,0-.858.14-.972.418a2.81,2.81,0,0,0-.114.953v1.14a.117.117,0,0,1-.092.114,3.456,3.456,0,0,0-2.071,1.221c-.018.023-.03.048-.048.071a3.347,3.347,0,0,0-.7,2.056,3.266,3.266,0,0,0,.549,1.947c.045.064.1.1.152.165a2.972,2.972,0,0,0,1.181.916,11.568,11.568,0,0,0,1.613.516,8.472,8.472,0,0,1,1.4.443.877.877,0,0,1,.641.8c0,.619-.282,1.357-1.623,1.357a1.943,1.943,0,0,1-1.516-.816c-.638-.635-1-.771-1.182-.771a1.02,1.02,0,0,0-.517.167,1.385,1.385,0,0,0-.268.188c-.542.527-.657.832-.657.995a1.566,1.566,0,0,0,.4.886l.266.348a2.448,2.448,0,0,0,.257.244,5.367,5.367,0,0,0,.65.482,4.539,4.539,0,0,0,1.47.594.117.117,0,0,1,.091.114v1.263a2.8,2.8,0,0,0,.134.995.5.5,0,0,0,.292.3,2.235,2.235,0,0,0,1.278,0,.608.608,0,0,0,.326-.329,2.534,2.534,0,0,0,.121-.949v-1.3a.117.117,0,0,1,.09-.113,4.3,4.3,0,0,0,2.162-1.229,3.92,3.92,0,0,0,.482-4.209" transform="translate(-48.44 -43.028)" fill="#313e58"/><path d="M132.1,94.183H161.1a1.206,1.206,0,0,0,0-2.413H132.1a1.206,1.206,0,0,0,0,2.413" transform="translate(-51.413 -38.201)" fill="#313e58"/><path d="M161.1,88.142a1.206,1.206,0,0,0,0-2.413H132.1a1.206,1.206,0,0,0,0,2.413Z" transform="translate(-51.413 -39.46)" fill="#313e58"/><path d="M204.849,109.6H63.057a1.207,1.207,0,0,0-1.206,1.206,9.587,9.587,0,0,0,9.587,9.587H196.469a9.587,9.587,0,0,0,9.587-9.587,1.207,1.207,0,0,0-1.206-1.206" transform="translate(-61.851 -33.31)" fill="#7a8293"/><path d="M137.8,112.78a3.559,3.559,0,0,0,3.279,2.638H163.44a3.559,3.559,0,0,0,3.279-2.638" transform="translate(-79.766 -34.489)" fill="#acb1bc"/><g transform="translate(25.576 17.688)"><path d="M85.274,83.176a1.206,1.206,0,0,0-1.206,1.206v16.849a1.206,1.206,0,0,0,2.413,0V84.382a1.206,1.206,0,0,0-1.206-1.206" transform="translate(-84.068 -57.135)" fill="#629d62"/><path d="M93.338,77.428a1.206,1.206,0,0,0-1.206,1.206V102.1a1.206,1.206,0,1,0,2.413,0V78.634a1.206,1.206,0,0,0-1.206-1.206" transform="translate(-82.849 -58.166)" fill="#629d62"/><path d="M101.4,69.629a1.206,1.206,0,0,0-1.206,1.206v32.443a1.206,1.206,0,0,0,2.413,0V70.835a1.206,1.206,0,0,0-1.206-1.206" transform="translate(-81.63 -59.636)" fill="#629d62"/><path d="M109.466,75.546a1.206,1.206,0,0,0-1.206,1.206v25.632a1.206,1.206,0,0,0,2.413,0V76.752a1.206,1.206,0,0,0-1.206-1.206" transform="translate(-80.411 -58.512)" fill="#629d62"/><path d="M117.531,69.78a1.206,1.206,0,0,0-1.206,1.206v32.27a1.206,1.206,0,0,0,2.413,0V70.986a1.206,1.206,0,0,0-1.206-1.206" transform="translate(-79.191 -59.607)" fill="#629d62"/><path d="M122.972,67.283l1.2-4.484a.743.743,0,0,0-.911-.911l-4.484,1.2a.744.744,0,0,0-.334,1.244l.789.789-2.887,2.887-3.183,3.183-8.417-8.417a1.207,1.207,0,0,0-1.706,0L84.421,81.393A1.206,1.206,0,1,0,86.127,83.1l17.765-17.765,8.417,8.417a1.2,1.2,0,0,0,1.706,0l3.144-3.143,3.779-3.78.789.789a.744.744,0,0,0,1.244-.334" transform="translate(-84.068 -61.862)" fill="#629d62"/></g></svg>