<svg xmlns="http://www.w3.org/2000/svg" width="192.674" height="192.77" viewBox="0 0 192.674 192.77"><g transform="translate(-101 -240)"><ellipse cx="96.337" cy="96.385" rx="96.337" ry="96.385" transform="translate(101 240)" fill="#fff"/><path d="M0,0H82.3a4,4,0,0,1,4,4V78.758a4,4,0,0,1-4,4H0a0,0,0,0,1,0,0V0A0,0,0,0,1,0,0Z" transform="matrix(0.934, -0.358, 0.358, 0.934, 146.298, 293.688)" fill="#acb1bc"/><g transform="matrix(0.934, -0.358, 0.358, 0.934, 113.186, 306.399)"><path d="M4,0H43.743a0,0,0,0,1,0,0V82.758a0,0,0,0,1,0,0H4a4,4,0,0,1-4-4V4A4,4,0,0,1,4,0Z" transform="translate(0 0)" fill="#9183d8"/><rect width="121.772" height="82.758" rx="2" transform="translate(0 0)" fill="none"/><ellipse cx="13.005" cy="13.005" rx="13.005" ry="13.005" transform="translate(9.458 15.369)" fill="#fff"/></g><path d="M0,0H82.3a4,4,0,0,1,4,4V78.758a4,4,0,0,1-4,4H0a0,0,0,0,1,0,0V0A0,0,0,0,1,0,0Z" transform="matrix(0.985, -0.174, 0.174, 0.985, 166.426, 296.001)" fill="#cccfd6"/><path d="M4,0H43.743a0,0,0,0,1,0,0V82.758a0,0,0,0,1,0,0H4a4,4,0,0,1-4-4V4A4,4,0,0,1,4,0Z" transform="matrix(0.985, -0.174, 0.174, 0.985, 131.497, 302.16)" fill="#ffd964"/><rect width="121.772" height="82.758" rx="2" transform="matrix(0.985, -0.174, 0.174, 0.985, 131.497, 302.16)" fill="none"/><ellipse cx="13.005" cy="13.005" rx="13.005" ry="13.005" transform="matrix(0.985, -0.174, 0.174, 0.985, 143.48, 315.653)" fill="#fff"/><g transform="translate(1 -4)"><path d="M0,0H82.3a4,4,0,0,1,4,4V78.758a4,4,0,0,1-4,4H0a0,0,0,0,1,0,0V0A0,0,0,0,1,0,0Z" transform="translate(182.401 309.998)" fill="#e4e6ea"/></g><path d="M4,0H43.743a0,0,0,0,1,0,0V82.758a0,0,0,0,1,0,0H4a4,4,0,0,1-4-4V4A4,4,0,0,1,4,0Z" transform="translate(147.934 305.998)" fill="#85cb85"/><rect width="121.772" height="82.758" rx="2" transform="translate(147.934 305.998)" fill="none"/><ellipse cx="13.005" cy="13.005" rx="13.005" ry="13.005" transform="translate(157.392 321.367)" fill="#fff"/><path d="M26,2H0A2,2,0,0,1-2,0,2,2,0,0,1,0-2H26a2,2,0,0,1,2,2A2,2,0,0,1,26,2Z" transform="translate(198.5 321.5)" fill="#313e58"/><path d="M61.5,1H0A1,1,0,0,1-1,0,1,1,0,0,1,0-1H61.5a1,1,0,0,1,1,1A1,1,0,0,1,61.5,1Z" transform="translate(198.5 332.337)" fill="#313e58"/><path d="M61.5,1H0A1,1,0,0,1-1,0,1,1,0,0,1,0-1H61.5a1,1,0,0,1,1,1A1,1,0,0,1,61.5,1Z" transform="translate(198.5 343.222)" fill="#313e58"/><rect width="62" height="24" rx="2" transform="translate(198 352.952)" fill="#fff"/></g></svg>