<svg xmlns="http://www.w3.org/2000/svg" width="192.674" height="192.77" viewBox="0 0 192.674 192.77"><g transform="translate(-101 -704)"><ellipse cx="96.337" cy="96.385" rx="96.337" ry="96.385" transform="translate(101 704)" fill="#fff"/><rect width="91.971" height="126.917" transform="translate(153.893 736.721)" fill="#acb1bc"/><path d="M0,0H91.274V127.739H0Z" transform="translate(152.581 733.898)" fill="#e4e6ea"/><g transform="translate(0 -1)"><path d="M60,1H0A1,1,0,0,1-1,0,1,1,0,0,1,0-1H60a1,1,0,0,1,1,1A1,1,0,0,1,60,1Z" transform="translate(169.5 753.5)" fill="#acb1bc"/><path d="M60,1H0A1,1,0,0,1-1,0,1,1,0,0,1,0-1H60a1,1,0,0,1,1,1A1,1,0,0,1,60,1Z" transform="translate(169.5 779.5)" fill="#acb1bc"/><path d="M60,1H0A1,1,0,0,1-1,0,1,1,0,0,1,0-1H60a1,1,0,0,1,1,1A1,1,0,0,1,60,1Z" transform="translate(169.5 766.5)" fill="#acb1bc"/><path d="M60,1H0A1,1,0,0,1-1,0,1,1,0,0,1,0-1H60a1,1,0,0,1,1,1A1,1,0,0,1,60,1Z" transform="translate(169.5 791.5)" fill="#acb1bc"/><rect width="8" height="18" rx="1" transform="translate(165 827)" fill="#acb1bc"/><rect width="8" height="25" rx="1" transform="translate(179 820)" fill="#acb1bc"/><rect width="8" height="33" rx="1" transform="translate(194 812)" fill="#acb1bc"/><rect width="8" height="28" rx="1" transform="translate(208 817)" fill="#acb1bc"/><rect width="8" height="38" rx="1" transform="translate(222 807)" fill="#acb1bc"/></g><path d="M96.182,0c-.094,0-.234.094-.423.281L93.508,2.533a.7.7,0,0,1-1.126,0L90.132.281a.7.7,0,0,0-1.126,0L86.755,2.533a.7.7,0,0,1-1.125,0L83.378.281a.7.7,0,0,0-1.125,0L80,2.533a.7.7,0,0,1-1.126,0L76.625.281a.706.706,0,0,0-1.127,0L73.247,2.533a.7.7,0,0,1-1.126,0L69.87.281a.7.7,0,0,0-1.125,0L66.494,2.533a.7.7,0,0,1-1.126,0L63.118.281a.7.7,0,0,0-1.126,0L59.741,2.533a.7.7,0,0,1-1.126,0L56.364.281Q56.083,0,55.942,0H55.8V72.974l.141.057q.141.056.422-.226l2.251-2.251a.7.7,0,0,1,1.126,0l2.251,2.251a.7.7,0,0,0,1.126,0l2.25-2.251a.7.7,0,0,1,1.126,0l2.251,2.251a.7.7,0,0,0,1.125,0l2.251-2.251a.7.7,0,0,1,1.126,0L75.5,72.805a.7.7,0,0,0,1.127,0l2.251-2.251a.7.7,0,0,1,1.126,0l2.251,2.251a.7.7,0,0,0,1.125,0l2.252-2.251a.7.7,0,0,1,1.125,0l2.251,2.251a.7.7,0,0,0,1.126,0l2.25-2.251a.7.7,0,0,1,1.126,0l2.251,2.251c.189.188.329.263.423.226l.141-.057V0Z" transform="matrix(0.966, 0.259, -0.259, 0.966, 177.665, 743.783)" fill="#acb1bc"/><g transform="translate(115.845 750.332)"><path d="M71.82,101.192,36.687,118.738a4.811,4.811,0,0,1-6.435-2.148L1.5,59.026a4.81,4.81,0,0,1,2.148-6.435L38.785,35.045a4.81,4.81,0,0,1,6.435,2.148L73.969,94.757A4.811,4.811,0,0,1,71.82,101.192Z" transform="translate(-1 -34.542)" fill="#708daf"/><rect width="35.52" height="15.031" transform="translate(7.384 23.152) rotate(-26.539)" fill="#e4e6ea"/><rect width="15.598" height="15.127" transform="translate(18.028 44.464) rotate(-26.538)" fill="#313e58"/><rect width="15.598" height="15.127" transform="translate(35.851 35.563) rotate(-26.538)" fill="#313e58"/><rect width="15.598" height="15.127" transform="translate(26.475 61.376) rotate(-26.538)" fill="#313e58"/><rect width="15.598" height="15.127" transform="translate(44.298 52.475) rotate(-26.538)" fill="#313e58"/><path d="M0,4.042a1,1,0,0,1-.9-.553A1,1,0,0,1-.447,2.147L5.643-.895a1,1,0,0,1,1.341.448A1,1,0,0,1,6.536.895L.447,3.936A1,1,0,0,1,0,4.042Z" transform="translate(43.29 37.127)" fill="#b6c9e4"/><path d="M0,4.042a1,1,0,0,1-.9-.553A1,1,0,0,1-.447,2.147L5.643-.895a1,1,0,0,1,1.341.448A1,1,0,0,1,6.536.895L.447,3.936A1,1,0,0,1,0,4.042Z" transform="translate(25.091 46.216)" fill="#b6c9e4"/><path d="M3.042,7.09a1,1,0,0,1-.9-.553L-.895.447A1,1,0,0,1-.447-.895,1,1,0,0,1,.895-.447L3.936,5.643A1,1,0,0,1,3.042,7.09Z" transform="translate(26.615 44.692)" fill="#b6c9e4"/><path d="M6.456,3.156A1,1,0,0,1,6.139,3.1L-.317.949A1,1,0,0,1-.949-.317,1,1,0,0,1,.317-.949L6.773,1.207a1,1,0,0,1-.317,1.949Z" transform="translate(33.318 63.499)" fill="#b6c9e4"/><path d="M0,7.456A1,1,0,0,1-.317,7.4,1,1,0,0,1-.949,6.139L1.207-.317A1,1,0,0,1,2.473-.949,1,1,0,0,1,3.1.317L.949,6.773A1,1,0,0,1,0,7.456Z" transform="translate(35.469 61.349)" fill="#b6c9e4"/><path d="M0,4.042a1,1,0,0,1-.9-.553A1,1,0,0,1-.447,2.147L5.643-.895a1,1,0,0,1,1.341.448A1,1,0,0,1,6.536.895L.447,3.936A1,1,0,0,1,0,4.042Z" transform="translate(51.049 52.662)" fill="#b6c9e4"/><path d="M0,4.042a1,1,0,0,1-.9-.553A1,1,0,0,1-.447,2.147L5.643-.895a1,1,0,0,1,1.341.448A1,1,0,0,1,6.536.895L.447,3.936A1,1,0,0,1,0,4.042Z" transform="translate(52.548 55.664)" fill="#b6c9e4"/></g><path d="M96.182,0c-.094,0-.234.094-.423.281L93.508,2.533a.7.7,0,0,1-1.126,0L90.132.281a.7.7,0,0,0-1.126,0L86.755,2.533a.7.7,0,0,1-1.125,0L83.378.281a.7.7,0,0,0-1.125,0L80,2.533a.7.7,0,0,1-1.126,0L76.625.281a.706.706,0,0,0-1.127,0L73.247,2.533a.7.7,0,0,1-1.126,0L69.87.281a.7.7,0,0,0-1.125,0L66.494,2.533a.7.7,0,0,1-1.126,0L63.118.281a.7.7,0,0,0-1.126,0L59.741,2.533a.7.7,0,0,1-1.126,0L56.364.281Q56.083,0,55.942,0H55.8V72.974l.141.057q.141.056.422-.226l2.251-2.251a.7.7,0,0,1,1.126,0l2.251,2.251a.7.7,0,0,0,1.126,0l2.25-2.251a.7.7,0,0,1,1.126,0l2.251,2.251a.7.7,0,0,0,1.125,0l2.251-2.251a.7.7,0,0,1,1.126,0L75.5,72.805a.7.7,0,0,0,1.127,0l2.251-2.251a.7.7,0,0,1,1.126,0l2.251,2.251a.7.7,0,0,0,1.125,0l2.252-2.251a.7.7,0,0,1,1.125,0l2.251,2.251a.7.7,0,0,0,1.126,0l2.25-2.251a.7.7,0,0,1,1.126,0l2.251,2.251c.189.188.329.263.423.226l.141-.057V0Z" transform="matrix(0.966, 0.259, -0.259, 0.966, 176.665, 740.783)" fill="#b2cae7"/><path d="M65.193,30.136h21.5a1.5,1.5,0,1,0,0-3h-21.5a1.5,1.5,0,1,0,0,3" transform="matrix(0.966, 0.259, -0.259, 0.966, 171.852, 759.164)" fill="#313e58"/><path d="M65.193,22.386h21.5a1.5,1.5,0,1,0,0-3h-21.5a1.5,1.5,0,1,0,0,3" transform="matrix(0.966, 0.259, -0.259, 0.966, 171.852, 759.164)" fill="#313e58"/><path d="M65.193,37.836h21.5a1.5,1.5,0,1,0,0-3h-21.5a1.5,1.5,0,1,0,0,3" transform="matrix(0.966, 0.259, -0.259, 0.966, 171.852, 759.164)" fill="#313e58"/><path d="M11.718,12.8a3.7,3.7,0,0,1-1.342,2.982,6.669,6.669,0,0,1-3.758,1.348v2.393h-1.6V17.181a12.977,12.977,0,0,1-5-1V13.1a13.448,13.448,0,0,0,2.445.887,13.082,13.082,0,0,0,2.55.455V10.82l-.782-.3A8.728,8.728,0,0,1,.963,8.538,3.8,3.8,0,0,1,0,5.894,3.449,3.449,0,0,1,1.325,3.11,6.733,6.733,0,0,1,5.019,1.786V0h1.6V1.739A13.251,13.251,0,0,1,11.45,2.813l-1.1,2.731a12.616,12.616,0,0,0-3.735-.91V8.077A17.951,17.951,0,0,1,9.857,9.594a4.431,4.431,0,0,1,1.412,1.412A3.5,3.5,0,0,1,11.718,12.8Zm-3.513.175a1.049,1.049,0,0,0-.4-.829,5.2,5.2,0,0,0-1.19-.7v2.906Q8.205,14.088,8.205,12.979ZM3.513,5.894a1.108,1.108,0,0,0,.356.846,4.227,4.227,0,0,0,1.15.683V4.68Q3.513,4.9,3.513,5.894Z" transform="translate(240.903 770.734) rotate(14)" fill="#313e58"/><g transform="translate(182.421 829.559)"><g transform="translate(0 0)"><path d="M100.5,14.614A14.614,14.614,0,1,1,85.886,0,14.614,14.614,0,0,1,100.5,14.614" transform="translate(-71.272)" fill="#f1b981"/><path d="M99.4,15.76A12.363,12.363,0,1,1,87.031,3.4,12.364,12.364,0,0,1,99.4,15.76" transform="translate(-72.418 -1.145)" fill="#ffd964"/></g><path d="M9.021,9.857a2.848,2.848,0,0,1-1.033,2.3A5.134,5.134,0,0,1,5.095,13.19v1.842H3.864V13.226a9.99,9.99,0,0,1-3.846-.773V10.082a10.353,10.353,0,0,0,1.882.683,10.071,10.071,0,0,0,1.963.35V8.329l-.6-.234A6.719,6.719,0,0,1,.741,6.573,2.927,2.927,0,0,1,0,4.538,2.655,2.655,0,0,1,1.02,2.395a5.183,5.183,0,0,1,2.844-1.02V0H5.095V1.339a10.2,10.2,0,0,1,3.72.827l-.845,2.1a9.713,9.713,0,0,0-2.875-.7V6.218A13.819,13.819,0,0,1,7.588,7.386,3.411,3.411,0,0,1,8.675,8.473,2.7,2.7,0,0,1,9.021,9.857Zm-2.7.135a.808.808,0,0,0-.306-.638,4.007,4.007,0,0,0-.917-.539v2.237Q6.317,10.845,6.317,9.992ZM2.7,4.538a.853.853,0,0,0,.274.651,3.254,3.254,0,0,0,.885.526V3.6Q2.7,3.774,2.7,4.538Z" transform="matrix(1, -0.017, 0.017, 1, 9.742, 7.95)" fill="#313e58"/></g><g transform="translate(162.219 844.173)"><g transform="translate(0 0)"><path d="M100.5,14.614A14.614,14.614,0,1,1,85.886,0,14.614,14.614,0,0,1,100.5,14.614" transform="translate(-71.272)" fill="#f1b981"/><path d="M99.4,15.76A12.363,12.363,0,1,1,87.031,3.4,12.364,12.364,0,0,1,99.4,15.76" transform="translate(-72.418 -1.145)" fill="#ffd964"/></g><path d="M9.021,9.857a2.848,2.848,0,0,1-1.033,2.3A5.134,5.134,0,0,1,5.095,13.19v1.842H3.864V13.226a9.99,9.99,0,0,1-3.846-.773V10.082a10.353,10.353,0,0,0,1.882.683,10.071,10.071,0,0,0,1.963.35V8.329l-.6-.234A6.719,6.719,0,0,1,.741,6.573,2.927,2.927,0,0,1,0,4.538,2.655,2.655,0,0,1,1.02,2.395a5.183,5.183,0,0,1,2.844-1.02V0H5.095V1.339a10.2,10.2,0,0,1,3.72.827l-.845,2.1a9.713,9.713,0,0,0-2.875-.7V6.218A13.819,13.819,0,0,1,7.588,7.386,3.411,3.411,0,0,1,8.675,8.473,2.7,2.7,0,0,1,9.021,9.857Zm-2.7.135a.808.808,0,0,0-.306-.638,4.007,4.007,0,0,0-.917-.539v2.237Q6.317,10.845,6.317,9.992ZM2.7,4.538a.853.853,0,0,0,.274.651,3.254,3.254,0,0,0,.885.526V3.6Q2.7,3.774,2.7,4.538Z" transform="matrix(1, -0.017, 0.017, 1, 9.742, 7.95)" fill="#313e58"/></g></g></svg>