<svg xmlns="http://www.w3.org/2000/svg" width="192.674" height="192.674" viewBox="0 0 192.674 192.674"><g transform="translate(-1393 -704)"><circle cx="96.337" cy="96.337" r="96.337" transform="translate(1393 704)" fill="none"/><path d="M752.092-2543.655a1.5,1.5,0,0,1-1.061-.439l-37.624-37.624-37.624,37.624a1.5,1.5,0,0,1-2.121,0,1.5,1.5,0,0,1,0-2.121l39.746-39.746,1.061,1.061,38.685,38.685a1.5,1.5,0,0,1,0,2.121A1.5,1.5,0,0,1,752.092-2543.655Z" transform="translate(777.142 3301.064)" fill="#313e58"/><path d="M4.709,98.893A4.709,4.709,0,0,1,0,94.184V24.331H0V4.709A4.715,4.715,0,0,1,4.709,0h129.5a4.714,4.714,0,0,1,4.709,4.709V24.33h0V94.184a4.709,4.709,0,0,1-4.709,4.709ZM117.165,12.852a4.784,4.784,0,1,0,4.785-4.784A4.79,4.79,0,0,0,117.165,12.852Zm-26.244,0a4.784,4.784,0,1,0,4.784-4.784A4.79,4.79,0,0,0,90.921,12.852Zm-26.246,0a4.784,4.784,0,1,0,4.784-4.784A4.79,4.79,0,0,0,64.675,12.852Zm-26.245,0a4.784,4.784,0,1,0,4.784-4.784A4.79,4.79,0,0,0,38.43,12.852Zm-26.244,0A4.784,4.784,0,1,0,16.97,8.068,4.79,4.79,0,0,0,12.186,12.852Z" transform="translate(1420.678 755.299)" fill="#ffd964"/><path d="M9.485,102.019A4.485,4.485,0,0,1,5,97.533V31H137.319V97.533a4.486,4.486,0,0,1-4.485,4.486Z" transform="translate(1419.253 748.631)" fill="#b1a8e3"/><path d="M-389.082,2657.33H-528v-19.621a4.715,4.715,0,0,1,4.709-4.709h129.5a4.714,4.714,0,0,1,4.709,4.709v19.62Zm-16.968-16.263a4.79,4.79,0,0,0-4.785,4.784,4.79,4.79,0,0,0,4.785,4.784,4.789,4.789,0,0,0,4.784-4.784A4.789,4.789,0,0,0-406.05,2641.067Zm-26.245,0a4.789,4.789,0,0,0-4.784,4.784,4.79,4.79,0,0,0,4.784,4.784,4.79,4.79,0,0,0,4.784-4.784A4.789,4.789,0,0,0-432.3,2641.067Zm-26.246,0a4.789,4.789,0,0,0-4.784,4.784,4.79,4.79,0,0,0,4.784,4.784,4.79,4.79,0,0,0,4.784-4.784A4.789,4.789,0,0,0-458.541,2641.067Zm-26.245,0a4.789,4.789,0,0,0-4.784,4.784,4.79,4.79,0,0,0,4.784,4.784,4.79,4.79,0,0,0,4.784-4.784A4.789,4.789,0,0,0-484.786,2641.067Zm-26.244,0a4.789,4.789,0,0,0-4.784,4.784,4.79,4.79,0,0,0,4.784,4.784,4.789,4.789,0,0,0,4.784-4.784A4.789,4.789,0,0,0-511.03,2641.067Z" transform="translate(1948.678 -1877.701)" fill="#ffd964"/><path d="M-496.347,2714.6h-16.919c-2.124,0-3.851-2.192-3.851-4.886v-7.872c0-2.695,1.728-4.887,3.851-4.887h16.919c2.124,0,3.851,2.192,3.851,4.887v7.872C-492.5,2712.4-494.224,2714.6-496.347,2714.6Z" transform="translate(1947.521 -1913.629)" fill="#fff"/><path d="M-496.347,2714.6h-16.919c-2.124,0-3.851-2.192-3.851-4.886v-7.872c0-2.695,1.728-4.887,3.851-4.887h16.919c2.124,0,3.851,2.192,3.851,4.887v7.872C-492.5,2712.4-494.224,2714.6-496.347,2714.6Z" transform="translate(1979.701 -1913.629)" fill="#fff"/><path d="M-496.347,2714.6h-16.919c-2.124,0-3.851-2.192-3.851-4.886v-7.872c0-2.695,1.728-4.887,3.851-4.887h16.919c2.124,0,3.851,2.192,3.851,4.887v7.872C-492.5,2712.4-494.224,2714.6-496.347,2714.6Z" transform="translate(2011.094 -1913.629)" fill="#fff"/><path d="M-496.347,2714.6h-16.919c-2.124,0-3.851-2.192-3.851-4.886v-7.872c0-2.695,1.728-4.887,3.851-4.887h16.919c2.124,0,3.851,2.192,3.851,4.887v7.872C-492.5,2712.4-494.224,2714.6-496.347,2714.6Z" transform="translate(2043.273 -1913.629)" fill="#fff"/><path d="M9.615,15.8a6.087,6.087,0,0,0-.764.051,5.944,5.944,0,0,1,.764-.051" transform="translate(1422.31 746.476)" fill="#e6f0fa"/><path d="M8.492,15.9a5.58,5.58,0,0,0-.629.133,5.259,5.259,0,0,1,.629-.133" transform="translate(1422.532 746.453)" fill="#e6f0fa"/><path d="M-496.347,2714.6h-16.919c-2.124,0-3.851-2.192-3.851-4.886v-7.872c0-2.695,1.728-4.887,3.851-4.887h16.919c2.124,0,3.851,2.192,3.851,4.887v7.872C-492.5,2712.4-494.224,2714.6-496.347,2714.6Z" transform="translate(1947.214 -1867.769)" fill="#fff"/><path d="M-496.347,2714.6h-16.919c-2.124,0-3.851-2.192-3.851-4.886v-7.872c0-2.695,1.728-4.887,3.851-4.887h16.919c2.124,0,3.851,2.192,3.851,4.887v7.872C-492.5,2712.4-494.224,2714.6-496.347,2714.6Z" transform="translate(1947.521 -1890.808)" fill="#fff"/><path d="M-496.347,2714.6h-16.919c-2.124,0-3.851-2.192-3.851-4.886v-7.872c0-2.695,1.728-4.887,3.851-4.887h16.919c2.124,0,3.851,2.192,3.851,4.887v7.872C-492.5,2712.4-494.224,2714.6-496.347,2714.6Z" transform="translate(1979.393 -1867.769)" fill="#fff"/><path d="M-496.347,2714.6h-16.919c-2.124,0-3.851-2.192-3.851-4.886v-7.872c0-2.695,1.728-4.887,3.851-4.887h16.919c2.124,0,3.851,2.192,3.851,4.887v7.872C-492.5,2712.4-494.224,2714.6-496.347,2714.6Z" transform="translate(1979.701 -1890.808)" fill="#fff"/><path d="M-496.347,2714.6h-16.919c-2.124,0-3.851-2.192-3.851-4.886v-7.872c0-2.695,1.728-4.887,3.851-4.887h16.919c2.124,0,3.851,2.192,3.851,4.887v7.872C-492.5,2712.4-494.224,2714.6-496.347,2714.6Z" transform="translate(2010.786 -1867.769)" fill="#fff"/><path d="M-496.347,2714.6h-16.919c-2.124,0-3.851-2.192-3.851-4.886v-7.872c0-2.695,1.728-4.887,3.851-4.887h16.919c2.124,0,3.851,2.192,3.851,4.887v7.872C-492.5,2712.4-494.224,2714.6-496.347,2714.6Z" transform="translate(2011.094 -1890.808)" fill="#fff"/><path d="M-496.347,2710.861h-16.919a3.856,3.856,0,0,1-3.851-3.852V2700.8a3.856,3.856,0,0,1,3.851-3.853h16.919a3.856,3.856,0,0,1,3.851,3.853v6.205A3.856,3.856,0,0,1-496.347,2710.861Z" transform="translate(2042.922 -1866.46)" fill="#fff"/><path d="M-496.347,2714.6h-16.919c-2.124,0-3.851-2.192-3.851-4.886v-7.872c0-2.695,1.728-4.887,3.851-4.887h16.919c2.124,0,3.851,2.192,3.851,4.887v7.872C-492.5,2712.4-494.224,2714.6-496.347,2714.6Z" transform="translate(2042.965 -1867.769)" fill="#fff"/><path d="M-496.347,2714.6h-16.919c-2.124,0-3.851-2.192-3.851-4.886v-7.872c0-2.695,1.728-4.887,3.851-4.887h16.919c2.124,0,3.851,2.192,3.851,4.887v7.872C-492.5,2712.4-494.224,2714.6-496.347,2714.6Z" transform="translate(2042.965 -1890.808)" fill="#fff"/><path d="M0,15.839a2,2,0,0,1-2-2V0A2,2,0,0,1,0-2,2,2,0,0,1,2,0V13.839A2,2,0,0,1,0,15.839Z" transform="translate(1437.553 753.625)" fill="#313e58"/><path d="M0,15.839a2,2,0,0,1-2-2V0A2,2,0,0,1,0-2,2,2,0,0,1,2,0V13.839A2,2,0,0,1,0,15.839Z" transform="translate(1490.138 753.625)" fill="#313e58"/><path d="M0,15.839a2,2,0,0,1-2-2V0A2,2,0,0,1,0-2,2,2,0,0,1,2,0V13.839A2,2,0,0,1,0,15.839Z" transform="translate(1463.452 753.625)" fill="#313e58"/><path d="M0,15.839a2,2,0,0,1-2-2V0A2,2,0,0,1,0-2,2,2,0,0,1,2,0V13.839A2,2,0,0,1,0,15.839Z" transform="translate(1516.037 753.625)" fill="#313e58"/><path d="M0,15.839a2,2,0,0,1-2-2V0A2,2,0,0,1,0-2,2,2,0,0,1,2,0V13.839A2,2,0,0,1,0,15.839Z" transform="translate(1542.723 753.625)" fill="#313e58"/><path d="M11.052,12.076a3.489,3.489,0,0,1-1.266,2.813A6.289,6.289,0,0,1,6.241,16.16v2.257H4.733V16.2a12.239,12.239,0,0,1-4.711-.947V12.351a12.683,12.683,0,0,0,2.306.837,12.338,12.338,0,0,0,2.405.429V10.2L4,9.918A8.232,8.232,0,0,1,.908,8.052,3.586,3.586,0,0,1,0,5.559,3.253,3.253,0,0,1,1.249,2.934,6.35,6.35,0,0,1,4.733,1.684V0H6.241V1.64A12.5,12.5,0,0,1,10.8,2.653L9.764,5.229A11.9,11.9,0,0,0,6.241,4.37V7.617A16.93,16.93,0,0,1,9.3,9.048a4.179,4.179,0,0,1,1.332,1.332A3.3,3.3,0,0,1,11.052,12.076Zm-3.313.165a.99.99,0,0,0-.374-.782,4.908,4.908,0,0,0-1.123-.66V13.54Q7.738,13.286,7.738,12.241ZM3.313,5.559a1.045,1.045,0,0,0,.336.8A3.986,3.986,0,0,0,4.733,7V4.414Q3.313,4.623,3.313,5.559Z" transform="matrix(1, -0.017, 0.017, 1, 1468.921, 806.139)" fill="#e88a2d"/><path d="M11.052,12.076a3.489,3.489,0,0,1-1.266,2.813A6.289,6.289,0,0,1,6.241,16.16v2.257H4.733V16.2a12.239,12.239,0,0,1-4.711-.947V12.351a12.683,12.683,0,0,0,2.306.837,12.338,12.338,0,0,0,2.405.429V10.2L4,9.918A8.232,8.232,0,0,1,.908,8.052,3.586,3.586,0,0,1,0,5.559,3.253,3.253,0,0,1,1.249,2.934,6.35,6.35,0,0,1,4.733,1.684V0H6.241V1.64A12.5,12.5,0,0,1,10.8,2.653L9.764,5.229A11.9,11.9,0,0,0,6.241,4.37V7.617A16.93,16.93,0,0,1,9.3,9.048a4.179,4.179,0,0,1,1.332,1.332A3.3,3.3,0,0,1,11.052,12.076Zm-3.313.165a.99.99,0,0,0-.374-.782,4.908,4.908,0,0,0-1.123-.66V13.54Q7.738,13.286,7.738,12.241ZM3.313,5.559a1.045,1.045,0,0,0,.336.8A3.986,3.986,0,0,0,4.733,7V4.414Q3.313,4.623,3.313,5.559Z" transform="matrix(1, -0.017, 0.017, 1, 1532.781, 783.335)" fill="#e88a2d"/></g></svg>