<svg xmlns="http://www.w3.org/2000/svg" width="192.674" height="192.674" viewBox="0 0 192.674 192.674"><g transform="translate(-1475.809 -410)"><circle cx="96.337" cy="96.337" r="96.337" transform="translate(1475.809 410)" fill="#fff"/><g transform="translate(1397.96 380.065)"><path d="M752.092-2543.655a1.5,1.5,0,0,1-1.061-.439l-37.624-37.624-37.624,37.624a1.5,1.5,0,0,1-2.121,0,1.5,1.5,0,0,1,0-2.121l39.746-39.746,1.061,1.061,38.685,38.685a1.5,1.5,0,0,1,0,2.121A1.5,1.5,0,0,1,752.092-2543.655Z" transform="translate(-538.011 2635)" fill="#313e58"/><path d="M4.27,89.675A4.27,4.27,0,0,1,0,85.4V22.063H0V4.27A4.275,4.275,0,0,1,4.27,0H121.7a4.275,4.275,0,0,1,4.27,4.27V22.062h0V85.4a4.27,4.27,0,0,1-4.27,4.27ZM106.244,11.654a4.338,4.338,0,1,0,4.339-4.338A4.344,4.344,0,0,0,106.244,11.654Zm-23.8,0a4.338,4.338,0,1,0,4.338-4.338A4.344,4.344,0,0,0,82.446,11.654Zm-23.8,0a4.338,4.338,0,1,0,4.338-4.338A4.344,4.344,0,0,0,58.647,11.654Zm-23.8,0a4.338,4.338,0,1,0,4.338-4.338A4.344,4.344,0,0,0,34.848,11.654Zm-23.8,0a4.338,4.338,0,1,0,4.338-4.338A4.344,4.344,0,0,0,11.05,11.654Z" transform="translate(112 88.765)" fill="#ffd964"/><path d="M9.067,95.4A4.067,4.067,0,0,1,5,91.331V31H124.986V91.331a4.067,4.067,0,0,1-4.067,4.068Z" transform="translate(110.243 79.829)" fill="#b1a8e3"/><path d="M-402.03,2655.062H-528V2637.27a4.275,4.275,0,0,1,4.27-4.27H-406.3a4.275,4.275,0,0,1,4.27,4.27v17.792Zm-15.387-14.747a4.343,4.343,0,0,0-4.339,4.338,4.344,4.344,0,0,0,4.339,4.338,4.343,4.343,0,0,0,4.338-4.338A4.343,4.343,0,0,0-417.417,2640.315Zm-23.8,0a4.343,4.343,0,0,0-4.338,4.338,4.343,4.343,0,0,0,4.338,4.338,4.343,4.343,0,0,0,4.338-4.338A4.343,4.343,0,0,0-441.216,2640.315Zm-23.8,0a4.343,4.343,0,0,0-4.338,4.338,4.343,4.343,0,0,0,4.338,4.338,4.343,4.343,0,0,0,4.338-4.338A4.343,4.343,0,0,0-465.015,2640.315Zm-23.8,0a4.343,4.343,0,0,0-4.338,4.338,4.343,4.343,0,0,0,4.338,4.338,4.343,4.343,0,0,0,4.338-4.338A4.343,4.343,0,0,0-488.814,2640.315Zm-23.8,0a4.343,4.343,0,0,0-4.338,4.338,4.343,4.343,0,0,0,4.338,4.338,4.343,4.343,0,0,0,4.338-4.338A4.343,4.343,0,0,0-512.612,2640.315Z" transform="translate(640 -2544.234)" fill="#ffd964"/><path d="M-498.284,2709.564h-15.342a3.5,3.5,0,0,1-3.492-3.493v-5.627a3.5,3.5,0,0,1,3.492-3.493h15.342a3.5,3.5,0,0,1,3.492,3.493v5.627A3.5,3.5,0,0,1-498.284,2709.564Z" transform="translate(637.658 -2577.961)" fill="#fff"/><path d="M-498.284,2709.564h-15.342a3.5,3.5,0,0,1-3.492-3.493v-5.627a3.5,3.5,0,0,1,3.492-3.493h15.342a3.5,3.5,0,0,1,3.492,3.493v5.627A3.5,3.5,0,0,1-498.284,2709.564Z" transform="translate(666.837 -2577.961)" fill="#fff"/><path d="M-498.284,2709.564h-15.342a3.5,3.5,0,0,1-3.492-3.493v-5.627a3.5,3.5,0,0,1,3.492-3.493h15.342a3.5,3.5,0,0,1,3.492,3.493v5.627A3.5,3.5,0,0,1-498.284,2709.564Z" transform="translate(695.305 -2577.961)" fill="#fff"/><path d="M-498.284,2709.564h-15.342a3.5,3.5,0,0,1-3.492-3.493v-5.627a3.5,3.5,0,0,1,3.492-3.493h15.342a3.5,3.5,0,0,1,3.492,3.493v5.627A3.5,3.5,0,0,1-498.284,2709.564Z" transform="translate(724.485 -2577.961)" fill="#fff"/><g transform="translate(210.054 117.277)"><path d="M145.156,69.367a1.158,1.158,0,0,1-.822-.34L130.619,55.312a1.162,1.162,0,1,1,1.643-1.643l13.716,13.715a1.162,1.162,0,0,1-.822,1.983" transform="translate(-130.279 -53.329)" fill="#e88a2d"/><path d="M131.441,69.367a1.162,1.162,0,0,1-.822-1.983l13.716-13.715a1.162,1.162,0,1,1,1.643,1.643L132.263,69.027a1.158,1.158,0,0,1-.822.34" transform="translate(-130.279 -53.329)" fill="#e88a2d"/></g><path d="M9.615,15.8a6.087,6.087,0,0,0-.764.051,5.944,5.944,0,0,1,.764-.051" transform="translate(107.157 72.411)" fill="#e6f0fa"/><path d="M8.492,15.9a5.58,5.58,0,0,0-.629.133,5.259,5.259,0,0,1,.629-.133" transform="translate(107.38 72.389)" fill="#e6f0fa"/><path d="M-498.284,2709.564h-15.342a3.5,3.5,0,0,1-3.492-3.493v-5.627a3.5,3.5,0,0,1,3.492-3.493h15.342a3.5,3.5,0,0,1,3.492,3.493v5.627A3.5,3.5,0,0,1-498.284,2709.564Z" transform="translate(637.658 -2540.003)" fill="#fff"/><path d="M-498.284,2709.564h-15.342a3.5,3.5,0,0,1-3.492-3.493v-5.627a3.5,3.5,0,0,1,3.492-3.493h15.342a3.5,3.5,0,0,1,3.492,3.493v5.627A3.5,3.5,0,0,1-498.284,2709.564Z" transform="translate(637.658 -2559.081)" fill="#fff"/><path d="M-498.284,2709.564h-15.342a3.5,3.5,0,0,1-3.492-3.493v-5.627a3.5,3.5,0,0,1,3.492-3.493h15.342a3.5,3.5,0,0,1,3.492,3.493v5.627A3.5,3.5,0,0,1-498.284,2709.564Z" transform="translate(666.837 -2540.003)" fill="#fff"/><path d="M-498.284,2709.564h-15.342a3.5,3.5,0,0,1-3.492-3.493v-5.627a3.5,3.5,0,0,1,3.492-3.493h15.342a3.5,3.5,0,0,1,3.492,3.493v5.627A3.5,3.5,0,0,1-498.284,2709.564Z" transform="translate(666.837 -2559.081)" fill="#fff"/><path d="M-498.284,2709.564h-15.342a3.5,3.5,0,0,1-3.492-3.493v-5.627a3.5,3.5,0,0,1,3.492-3.493h15.342a3.5,3.5,0,0,1,3.492,3.493v5.627A3.5,3.5,0,0,1-498.284,2709.564Z" transform="translate(695.305 -2540.003)" fill="#fff"/><path d="M-498.284,2709.564h-15.342a3.5,3.5,0,0,1-3.492-3.493v-5.627a3.5,3.5,0,0,1,3.492-3.493h15.342a3.5,3.5,0,0,1,3.492,3.493v5.627A3.5,3.5,0,0,1-498.284,2709.564Z" transform="translate(695.305 -2559.081)" fill="#fff"/><path d="M-498.284,2709.564h-15.342a3.5,3.5,0,0,1-3.492-3.493v-5.627a3.5,3.5,0,0,1,3.492-3.493h15.342a3.5,3.5,0,0,1,3.492,3.493v5.627A3.5,3.5,0,0,1-498.284,2709.564Z" transform="translate(724.445 -2540.003)" fill="#fff"/><path d="M-498.284,2709.564h-15.342a3.5,3.5,0,0,1-3.492-3.493v-5.627a3.5,3.5,0,0,1,3.492-3.493h15.342a3.5,3.5,0,0,1,3.492,3.493v5.627A3.5,3.5,0,0,1-498.284,2709.564Z" transform="translate(724.485 -2540.003)" fill="#fff"/><path d="M-498.284,2709.564h-15.342a3.5,3.5,0,0,1-3.492-3.493v-5.627a3.5,3.5,0,0,1,3.492-3.493h15.342a3.5,3.5,0,0,1,3.492,3.493v5.627A3.5,3.5,0,0,1-498.284,2709.564Z" transform="translate(724.485 -2559.081)" fill="#fff"/><g transform="translate(152.628 136.157)"><path d="M57.295,93.744a1.162,1.162,0,0,1-.822-1.983L70.189,78.045a1.162,1.162,0,1,1,1.643,1.643L58.117,93.4a1.158,1.158,0,0,1-.822.34" transform="translate(-56.133 -77.705)" fill="#e88a2d"/><path d="M71.01,93.744a1.158,1.158,0,0,1-.822-.34L56.473,79.689a1.162,1.162,0,0,1,1.643-1.643L71.832,91.761a1.162,1.162,0,0,1-.822,1.983" transform="translate(-56.133 -77.705)" fill="#e88a2d"/></g><path d="M0,14.549a2,2,0,0,1-2-2V0A2,2,0,0,1,0-2,2,2,0,0,1,2,0V12.549A2,2,0,0,1,0,14.549Z" transform="translate(127.301 87.249)" fill="#313e58"/><path d="M0,14.549a2,2,0,0,1-2-2V0A2,2,0,0,1,0-2,2,2,0,0,1,2,0V12.549A2,2,0,0,1,0,14.549Z" transform="translate(174.985 87.249)" fill="#313e58"/><path d="M0,14.549a2,2,0,0,1-2-2V0A2,2,0,0,1,0-2,2,2,0,0,1,2,0V12.549A2,2,0,0,1,0,14.549Z" transform="translate(150.787 87.249)" fill="#313e58"/><path d="M0,14.549a2,2,0,0,1-2-2V0A2,2,0,0,1,0-2,2,2,0,0,1,2,0V12.549A2,2,0,0,1,0,14.549Z" transform="translate(198.471 87.249)" fill="#313e58"/><path d="M0,14.549a2,2,0,0,1-2-2V0A2,2,0,0,1,0-2,2,2,0,0,1,2,0V12.549A2,2,0,0,1,0,14.549Z" transform="translate(222.669 87.249)" fill="#313e58"/></g></g></svg>