<svg xmlns="http://www.w3.org/2000/svg" width="192.674" height="192.674" viewBox="0 0 192.674 192.674"><g transform="translate(-497.809 -938.979)"><circle cx="96.337" cy="96.337" r="96.337" transform="translate(497.809 938.979)" fill="none"/><g transform="translate(-0.188 -0.62)"><rect width="6.657" height="14.299" transform="translate(618.7 989.955)" fill="#313e58"/><path d="M12.569,81.287.2,97.154l139.568-.35-10.45-15.517Z" transform="translate(524.791 964.414)" fill="#7a8293"/><path d="M137.671,96.081H2.332A2.2,2.2,0,0,0,0,98.129v22.722A2.2,2.2,0,0,0,2.332,122.9H137.671A2.2,2.2,0,0,0,140,120.851V98.129a2.2,2.2,0,0,0-2.332-2.048" transform="translate(525 963.905)" fill="#acb1bc"/><path d="M128.919,83.229H19.951c-.533,0-.966.3-.966.669v4.721c0,.369.433.669.966.669H128.919c.534,0,.966-.3.966-.669V83.9c0-.37-.432-.669-.966-.669" transform="translate(521.245 964.347)" fill="#acb1bc"/><path d="M78.456,110.3a5.566,5.566,0,1,1-5.566-5.566,5.566,5.566,0,0,1,5.566,5.566" transform="translate(522.009 962.922)" fill="#e4e6ea"/><rect width="1.723" height="6.229" transform="translate(594.038 1070.281)" fill="#313e58"/><path d="M124.776,34.371a.965.965,0,0,0-.96-.864H25.078a.965.965,0,0,0-.96.863L18.991,82.439a.964.964,0,0,0,.96,1.069H128.919a.965.965,0,0,0,.96-1.068Z" transform="translate(521.245 965.659)" fill="#cdd0d7"/><rect width="83.79" height="12.62" transform="translate(553.941 999.166)" fill="#313e58"/><path d="M66.464,36.224V10.309h-.093a.535.535,0,0,0-.277.165l-1.478,1.319a.5.5,0,0,1-.74,0L62.4,10.474a.5.5,0,0,0-.74,0L60.18,11.792a.5.5,0,0,1-.74,0l-1.478-1.319a.5.5,0,0,0-.739,0l-1.479,1.319a.5.5,0,0,1-.739,0l-1.479-1.319a.5.5,0,0,0-.739,0l-1.478,1.319a.5.5,0,0,1-.74,0l-1.478-1.319a.5.5,0,0,0-.74,0l-1.478,1.319a.5.5,0,0,1-.74,0l-1.478-1.319a.5.5,0,0,0-.74,0l-1.478,1.319a.5.5,0,0,1-.74,0l-1.478-1.319a.528.528,0,0,0-.277-.165h-.093V38.62H66.464Z" transform="translate(520.527 966.855)" fill="#f1b981"/><g transform="translate(565.56 987.562)"><path d="M46.2,30.737H60.324a.986.986,0,1,0,0-1.971H46.2a.986.986,0,1,0,0,1.971" transform="translate(-45.218 -23.677)" fill="#313e58"/><path d="M46.2,25.466H60.324a.986.986,0,1,0,0-1.971H46.2a.986.986,0,1,0,0,1.971" transform="translate(-45.218 -23.495)" fill="#313e58"/><path d="M46.2,35.975H60.324a.986.986,0,1,0,0-1.971H46.2a.986.986,0,1,0,0,1.971" transform="translate(-45.218 -23.856)" fill="#313e58"/></g><path d="M77.612,4.3V22.238a188.376,188.376,0,0,0,22.672,1.377,179.563,179.563,0,0,0,23.683-1.374V4.3C120.114,3.956,108.6,3,100.7,3s-19.267.955-23.091,1.3" transform="translate(519.228 967.107)" fill="#b1a8e3"/><path d="M125.45,1.43C125.3,1.416,110.3,0,100.6,0S76.069,1.416,75.921,1.43a1.448,1.448,0,0,0-1.31,1.442V23.394a1.449,1.449,0,0,0,1.22,1.43,174.3,174.3,0,0,0,24.333,1.585l1.1,0a170.326,170.326,0,0,0,24.276-1.588,1.446,1.446,0,0,0,1.219-1.429V2.872a1.447,1.447,0,0,0-1.31-1.442m-1.586,20.707a179.557,179.557,0,0,1-23.682,1.374,188.4,188.4,0,0,1-22.673-1.377V4.193c3.825-.342,15.2-1.3,23.091-1.3s19.411.957,23.264,1.3Z" transform="translate(519.331 967.21)" fill="#313e58"/><path d="M6.031,0H1.005A1,1,0,0,0,0,1.005V6.031A1,1,0,0,0,1.005,7.036H6.031A1,1,0,0,0,7.036,6.031V1.005A1,1,0,0,0,6.031,0" transform="translate(552.104 1019.27)" fill="#e88a2d"/><path d="M14.712,0H9.686A1,1,0,0,0,8.681,1.005V6.031A1,1,0,0,0,9.686,7.036h5.026a1,1,0,0,0,1.005-1.005V1.005A1,1,0,0,0,14.712,0" transform="translate(552.149 1019.27)" fill="#e88a2d"/><path d="M6.031,8.682H1.005A1,1,0,0,0,0,9.687v5.026a1,1,0,0,0,1.005,1.005H6.031a1,1,0,0,0,1.005-1.005V9.687A1,1,0,0,0,6.031,8.682" transform="translate(552.104 1019.315)" fill="#e88a2d"/><path d="M14.712,8.682H9.686A1,1,0,0,0,8.681,9.687v5.026a1,1,0,0,0,1.005,1.005h5.026a1,1,0,0,0,1.005-1.005V9.687a1,1,0,0,0-1.005-1.005" transform="translate(552.149 1019.315)" fill="#e88a2d"/><path d="M6.031,17.222H1.005A1,1,0,0,0,0,18.227v5.026a1,1,0,0,0,1.005,1.005H6.031a1,1,0,0,0,1.005-1.005V18.227a1,1,0,0,0-1.005-1.005" transform="translate(552.104 1019.36)" fill="#e88a2d"/><path d="M14.712,17.222H9.686a1,1,0,0,0-1.005,1.005v5.026a1,1,0,0,0,1.005,1.005h5.026a1,1,0,0,0,1.005-1.005V18.227a1,1,0,0,0-1.005-1.005" transform="translate(552.149 1019.36)" fill="#e88a2d"/><path d="M27.344,0H22.318a1,1,0,0,0-1.005,1.005V6.031a1,1,0,0,0,1.005,1.005h5.026a1,1,0,0,0,1.005-1.005V1.005A1,1,0,0,0,27.344,0" transform="translate(552.215 1019.27)" fill="#9183d8"/><path d="M36.026,0H31A1,1,0,0,0,30,1.005V6.031A1,1,0,0,0,31,7.036h5.026a1,1,0,0,0,1.005-1.005V1.005A1,1,0,0,0,36.026,0" transform="translate(552.26 1019.27)" fill="#9183d8"/><path d="M27.344,8.682H22.318a1,1,0,0,0-1.005,1.005v5.026a1,1,0,0,0,1.005,1.005h5.026a1,1,0,0,0,1.005-1.005V9.687a1,1,0,0,0-1.005-1.005" transform="translate(552.215 1019.315)" fill="#9183d8"/><path d="M36.026,8.682H31A1,1,0,0,0,30,9.687v5.026A1,1,0,0,0,31,15.718h5.026a1,1,0,0,0,1.005-1.005V9.687a1,1,0,0,0-1.005-1.005" transform="translate(552.26 1019.315)" fill="#629d62"/><path d="M27.344,17.222H22.318a1,1,0,0,0-1.005,1.005v5.026a1,1,0,0,0,1.005,1.005h5.026a1,1,0,0,0,1.005-1.005V18.227a1,1,0,0,0-1.005-1.005" transform="translate(552.215 1019.36)" fill="#9183d8"/><path d="M36.026,17.222H31A1,1,0,0,0,30,18.227v5.026A1,1,0,0,0,31,24.258h5.026a1,1,0,0,0,1.005-1.005V18.227a1,1,0,0,0-1.005-1.005" transform="translate(552.26 1019.36)" fill="#629d62"/><path d="M44.962,0H39.936a1,1,0,0,0-1.005,1.005V6.031a1,1,0,0,0,1.005,1.005h5.026a1,1,0,0,0,1.005-1.005V1.005A1,1,0,0,0,44.962,0" transform="translate(552.306 1019.27)" fill="#629d62"/><path d="M53.642,0H48.616a1,1,0,0,0-1.005,1.005V6.031a1,1,0,0,0,1.005,1.005h5.026a1,1,0,0,0,1.005-1.005V1.005A1,1,0,0,0,53.642,0" transform="translate(552.352 1019.27)" fill="#629d62"/><path d="M44.962,8.682H39.936a1,1,0,0,0-1.005,1.005v5.026a1,1,0,0,0,1.005,1.005h5.026a1,1,0,0,0,1.005-1.005V9.687a1,1,0,0,0-1.005-1.005" transform="translate(552.306 1019.315)" fill="#629d62"/><path d="M53.642,8.682H48.616a1,1,0,0,0-1.005,1.005v5.026a1,1,0,0,0,1.005,1.005h5.026a1,1,0,0,0,1.005-1.005V9.687a1,1,0,0,0-1.005-1.005" transform="translate(552.352 1019.315)" fill="#629d62"/><path d="M44.962,17.222H39.936a1,1,0,0,0-1.005,1.005v5.026a1,1,0,0,0,1.005,1.005h5.026a1,1,0,0,0,1.005-1.005V18.227a1,1,0,0,0-1.005-1.005" transform="translate(552.306 1019.36)" fill="#629d62"/><path d="M72.106,15.718h5.026a1,1,0,0,0,1.005-1.005V9.687a1,1,0,0,0-1.005-1.005H72.106A1,1,0,0,0,71.1,9.687v5.026a1,1,0,0,0,1.005,1.005" transform="translate(552.474 1019.315)" fill="#e88a2d"/><path d="M80.787,15.718h5.026a1,1,0,0,0,1.005-1.005V9.687a1,1,0,0,0-1.005-1.005H80.787a1,1,0,0,0-1.005,1.005v5.026a1,1,0,0,0,1.005,1.005" transform="translate(552.519 1019.315)" fill="#e88a2d"/><path d="M86.089,17.222H72.106A1,1,0,0,0,71.1,18.227v5.026a1,1,0,0,0,1.005,1.005H86.089a1,1,0,0,0,1.005-1.005V18.227a1,1,0,0,0-1.005-1.005" transform="translate(552.474 1019.36)" fill="#629d62"/><path d="M53.642,17.222H48.616a1,1,0,0,0-1.005,1.005v5.026a1,1,0,0,0,1.005,1.005h5.026a1,1,0,0,0,1.005-1.005V18.227a1,1,0,0,0-1.005-1.005" transform="translate(552.352 1019.36)" fill="#629d62"/><path d="M7.5,8.19A2.366,2.366,0,0,1,6.637,10.1a4.266,4.266,0,0,1-2.4.862v1.53H3.21v-1.5a8.3,8.3,0,0,1-3.2-.642V8.377a8.6,8.6,0,0,0,1.564.567,8.368,8.368,0,0,0,1.631.291V6.921l-.5-.194A5.583,5.583,0,0,1,.616,5.461,2.432,2.432,0,0,1,0,3.77,2.206,2.206,0,0,1,.847,1.99,4.307,4.307,0,0,1,3.21,1.142V0H4.233V1.112A8.476,8.476,0,0,1,7.324,1.8l-.7,1.747a8.07,8.07,0,0,0-2.389-.582v2.2A11.482,11.482,0,0,1,6.3,6.137a2.834,2.834,0,0,1,.9.9A2.24,2.24,0,0,1,7.5,8.19ZM5.248,8.3a.671.671,0,0,0-.254-.53,3.329,3.329,0,0,0-.762-.448V9.183Q5.248,9.011,5.248,8.3Zm-3-4.532a.708.708,0,0,0,.228.541,2.7,2.7,0,0,0,.735.437V2.994Q2.247,3.136,2.247,3.77Z" transform="matrix(1, -0.017, 0.017, 1, 631.571, 974.236)" fill="#313e58"/></g></g></svg>