<svg xmlns="http://www.w3.org/2000/svg" width="192.674" height="192.674" viewBox="0 0 192.674 192.674"><g transform="translate(-1801.809 -376.965)"><circle cx="96.337" cy="96.337" r="96.337" transform="translate(1801.809 376.965)" fill="#fff"/><g transform="translate(7 15.981)"><g transform="translate(1860 414.019)"><path d="M40.932,23.617c2.449-5.7,7.851-18.316,9.021-21.336,1.524-3.933-6.316-1.123-9.8-.374s-2.614.187-5.88-1.5S26.867,2.842,24.908,2.28A4.423,4.423,0,0,1,22.294.6S11.4-.342,11.84,2.28c.361,2.168,7.86,15.975,10.451,20.7C9.412,29.1,0,47.708,0,62.44c0,8.127-.076,14.678,4.46,18.175,5.45,4.2,16.332,4.5,25.672,4.5,8.829,0,19.312.515,25.176-3.173,5.5-3.462,6.668-10.84,6.668-19.5,0-14.252-8.809-32.135-21.044-38.823" transform="translate(0 0)" fill="#cdd0d6" opacity="0.996"/><path d="M56.776,32.882c6.457,11.776,9.649,26.387,8.277,38.49-1,8.79-2.79,16.473-7.068,21.3,4.2-.361,8.037-1.159,10.825-2.912,5.5-3.462,6.668-10.84,6.668-19.5,0-13.325-7.7-29.821-18.7-37.377" transform="translate(-13.501 -7.819)" fill="#acb1bc"/><path d="M36.422,25.63,33.84,2.113a3.271,3.271,0,0,1-1.976.354A4.426,4.426,0,0,1,29.25.781l3.085,23.828Z" transform="translate(-6.956 -0.185)" fill="#acb1bc"/><path d="M47.329,24.95,51.451,2.182c-.37.093-.715.176-1.025.243-2.141.46-2.639.424-3.461-.063L43.2,25.764Z" transform="translate(-10.272 -0.519)" fill="#acb1bc"/><path d="M45.124,27.766a1.145,1.145,0,0,0-1.436-.744c-11.255,3.578-16.334.416-17.317-.325a9.831,9.831,0,0,0-.793-3.575,6.886,6.886,0,0,0-3.215-3.836c-1.679-.841-4.124-.627-5.148,1.192a3.862,3.862,0,0,0,1.121,4.7,6.672,6.672,0,0,0,1.623,1,12.773,12.773,0,0,0-5.519,2.871,5.48,5.48,0,0,0-1.611,2.194,3.105,3.105,0,0,0,.609,3.227,3.592,3.592,0,0,0,1.29.785,6.947,6.947,0,0,0,2.45.438,7.261,7.261,0,0,0,4.8-1.789,13.832,13.832,0,0,0,2.253-2.832,19.469,19.469,0,0,1,1.159-1.634c.03-.037.053-.074.081-.111a4.944,4.944,0,0,1,.827,2.553,3.934,3.934,0,0,1-1.387,2.872A1.143,1.143,0,0,0,26.5,36.4a5.945,5.945,0,0,0,1.838-6.229,18.778,18.778,0,0,0,5.725.817A34.2,34.2,0,0,0,44.381,29.2a1.143,1.143,0,0,0,.743-1.436m-22.8,2.053a11.987,11.987,0,0,1-1.87,2.386,4.935,4.935,0,0,1-4.919.916,1.563,1.563,0,0,1-.478-.258.9.9,0,0,1-.076-.848,3.233,3.233,0,0,1,.979-1.255A10.7,10.7,0,0,1,23,28.118c.174,0,.346,0,.519.014-.438.549-.819,1.127-1.188,1.688m.431-5.038-.412-.141a7.567,7.567,0,0,1-2.52-1.194,1.7,1.7,0,0,1-.62-1.847,1.245,1.245,0,0,1,1.124-.5,2.29,2.29,0,0,1,1.006.23,4.627,4.627,0,0,1,2.1,2.6c.174.463.321.889.431,1.283-.368-.162-.742-.3-1.108-.427" transform="translate(-3.003 -4.474)" fill="#313e58"/></g><path d="M14.733,16.1a4.651,4.651,0,0,1-1.688,3.749A8.384,8.384,0,0,1,8.32,21.542V24.55H6.31V21.6A16.315,16.315,0,0,1,.029,20.338V16.464A16.907,16.907,0,0,0,3.1,17.58a16.448,16.448,0,0,0,3.206.572V13.6l-.983-.382a10.973,10.973,0,0,1-4.116-2.487A4.78,4.78,0,0,1,0,7.41a4.336,4.336,0,0,1,1.666-3.5A8.465,8.465,0,0,1,6.31,2.245V0H8.32V2.186A16.66,16.66,0,0,1,14.4,3.536L13.016,6.97a15.862,15.862,0,0,0-4.7-1.145v4.329a22.569,22.569,0,0,1,4.072,1.908,5.571,5.571,0,0,1,1.776,1.776A4.4,4.4,0,0,1,14.733,16.1Zm-4.417.22a1.319,1.319,0,0,0-.5-1.042,6.543,6.543,0,0,0-1.5-.88v3.654Q10.316,17.712,10.316,16.318ZM4.417,7.41a1.392,1.392,0,0,0,.448,1.064,5.314,5.314,0,0,0,1.445.858V5.884Q4.417,6.163,4.417,7.41Z" transform="matrix(1, -0.017, 0.017, 1, 1883.628, 456.833)" fill="#313e58"/></g><g transform="translate(-0.482)"><path d="M95.117,123.078a53.443,53.443,0,0,1-58.912-36.8c-1.047-4.925-4.037-7.92-7.927-7.9-1.48.016-6.717.835-11.923,1.712L15.694,75.8a1,1,0,0,0-1.659-.589L.329,87.619a1,1,0,0,0,.24,1.644l16.851,8.03a1,1,0,0,0,1.419-1.055l-.811-5.269c2.894-.485,5.731-.943,7.729-1.242A64.566,64.566,0,0,0,87.131,134.69a63.605,63.605,0,0,0,9.659-.739A64.507,64.507,0,0,0,151.241,69.91l-11,.109a53.451,53.451,0,0,1-45.124,53.059" transform="translate(1812.482 406)" fill="#e88a2d"/><path d="M172.642,46.182a1,1,0,0,0-.559-.757L155.232,37.4a1,1,0,0,0-1.419,1.055l.811,5.27c-2.893.485-5.73.943-7.728,1.241A64.22,64.22,0,0,0,21.412,64.779l11-.11A53.219,53.219,0,0,1,136.448,48.408c1.04,4.89,4.021,7.9,7.847,7.9h.079c1.481-.016,6.718-.836,11.924-1.712l.66,4.294a1,1,0,0,0,1.66.589l13.706-12.41a1,1,0,0,0,.318-.887" transform="translate(1812.482 406)" fill="#629d62"/></g></g></svg>