<svg xmlns="http://www.w3.org/2000/svg" width="192.674" height="192.674" viewBox="0 0 192.674 192.674"><g transform="translate(-56 -1341)"><circle cx="96.337" cy="96.337" r="96.337" transform="translate(56 1341)" fill="none"/><g transform="translate(-1746.482 964)"><path d="M95.117,123.078a53.443,53.443,0,0,1-58.912-36.8c-1.047-4.925-4.037-7.92-7.927-7.9-1.48.016-6.717.835-11.923,1.712L15.694,75.8a1,1,0,0,0-1.659-.589L.329,87.619a1,1,0,0,0,.24,1.644l16.851,8.03a1,1,0,0,0,1.419-1.055l-.811-5.269c2.894-.485,5.731-.943,7.729-1.242A64.566,64.566,0,0,0,87.131,134.69a63.605,63.605,0,0,0,9.659-.739A64.507,64.507,0,0,0,151.241,69.91l-11,.109a53.451,53.451,0,0,1-45.124,53.059" transform="translate(1812.482 406)" fill="#e88a2d"/><path d="M172.642,46.182a1,1,0,0,0-.559-.757L155.232,37.4a1,1,0,0,0-1.419,1.055l.811,5.27c-2.893.485-5.73.943-7.728,1.241A64.22,64.22,0,0,0,21.412,64.779l11-.11A53.219,53.219,0,0,1,136.448,48.408c1.04,4.89,4.021,7.9,7.847,7.9h.079c1.481-.016,6.718-.836,11.924-1.712l.66,4.294a1,1,0,0,0,1.66.589l13.706-12.41a1,1,0,0,0,.318-.887" transform="translate(1812.482 406)" fill="#629d62"/></g><rect width="77.88" height="47.729" transform="translate(114.74 1414.586)" fill="#acb1bc"/><rect width="77.88" height="48.723" transform="translate(112.751 1411.604)" fill="#e4e6ea"/><path d="M37.245,1H0A1,1,0,0,1-1,0,1,1,0,0,1,0-1H37.245a1,1,0,0,1,1,1A1,1,0,0,1,37.245,1Z" transform="translate(146.253 1418.574)" fill="#7a8293"/><path d="M37.245,1H0A1,1,0,0,1-1,0,1,1,0,0,1,0-1H37.245a1,1,0,0,1,1,1A1,1,0,0,1,37.245,1Z" transform="translate(146.253 1427.73)" fill="#7a8293"/><path d="M37.245,1H0A1,1,0,0,1-1,0,1,1,0,0,1,0-1H37.245a1,1,0,0,1,1,1A1,1,0,0,1,37.245,1Z" transform="translate(146.253 1436.886)" fill="#7a8293"/><path d="M37.245,1H0A1,1,0,0,1-1,0,1,1,0,0,1,0-1H37.245a1,1,0,0,1,1,1A1,1,0,0,1,37.245,1Z" transform="translate(146.253 1446.043)" fill="#7a8293"/><path d="M37.245,1H0A1,1,0,0,1-1,0,1,1,0,0,1,0-1H37.245a1,1,0,0,1,1,1A1,1,0,0,1,37.245,1Z" transform="translate(146.253 1453.043)" fill="#7a8293"/><path d="M0,28.468a1,1,0,0,1-1-1V0A1,1,0,0,1,0-1,1,1,0,0,1,1,0V27.468A1,1,0,0,1,0,28.468Z" transform="translate(146.253 1418.574)" fill="#7a8293"/><path d="M0,28.468a1,1,0,0,1-1-1V0A1,1,0,0,1,0-1,1,1,0,0,1,1,0V27.468A1,1,0,0,1,0,28.468Z" transform="translate(158.42 1418.574)" fill="#7a8293"/><path d="M0,28.468a1,1,0,0,1-1-1V0A1,1,0,0,1,0-1,1,1,0,0,1,1,0V27.468A1,1,0,0,1,0,28.468Z" transform="translate(170.96 1418.574)" fill="#7a8293"/><path d="M0,28.468a1,1,0,0,1-1-1V0A1,1,0,0,1,0-1,1,1,0,0,1,1,0V27.468A1,1,0,0,1,0,28.468Z" transform="translate(183.5 1418.574)" fill="#7a8293"/><path d="M17.161,18.751A5.418,5.418,0,0,1,15.2,23.118a9.766,9.766,0,0,1-5.5,1.974v3.5H7.35V25.161a19,19,0,0,1-7.316-1.47V19.178a19.694,19.694,0,0,0,3.581,1.3,19.159,19.159,0,0,0,3.735.667v-5.3L6.2,15.4A12.782,12.782,0,0,1,1.41,12.5,5.568,5.568,0,0,1,0,8.632,5.051,5.051,0,0,1,1.94,4.555a9.86,9.86,0,0,1,5.41-1.94V0H9.692V2.547a19.406,19.406,0,0,1,7.076,1.573l-1.607,4a18.477,18.477,0,0,0-5.47-1.333v5.042a26.289,26.289,0,0,1,4.743,2.222A6.489,6.489,0,0,1,16.5,16.119,5.129,5.129,0,0,1,17.161,18.751Zm-5.145.256a1.537,1.537,0,0,0-.581-1.214,7.622,7.622,0,0,0-1.743-1.026v4.256Q12.016,20.631,12.016,19.007ZM5.145,8.632a1.622,1.622,0,0,0,.521,1.239,6.19,6.19,0,0,0,1.684,1V6.854Q5.145,7.179,5.145,8.632Z" transform="matrix(1, -0.017, 0.017, 1, 119.252, 1415.495)" fill="#788295"/></g></svg>