<svg xmlns="http://www.w3.org/2000/svg" width="192.674" height="192.77" viewBox="0 0 192.674 192.77"><g transform="translate(-686 -167)"><ellipse cx="96.337" cy="96.385" rx="96.337" ry="96.385" transform="translate(686 167)" fill="none"/><g transform="translate(-0.498 2.416)"><path d="M75,139.677A64.678,64.678,0,0,0,139.677,75H75Z" transform="translate(710.175 188.261)" fill="#b1a8e3"/><path d="M0,75a64.678,64.678,0,0,0,64.677,64.677V75Z" transform="translate(716.498 188.261)" fill="#85cb85"/><path d="M75,0V64.677h64.677A64.678,64.678,0,0,0,75,0" transform="translate(710.175 194.584)" fill="#ffd964"/><path d="M64.677,0A64.678,64.678,0,0,0,0,64.677H64.677Z" transform="translate(716.498 194.584)" fill="#96b7df"/></g><path d="M33.463,36.563a10.565,10.565,0,0,1-3.833,8.516Q25.8,48.295,18.9,48.928v6.833H14.332v-6.7A37.057,37.057,0,0,1,.067,46.2V37.4a38.4,38.4,0,0,0,6.983,2.533,37.358,37.358,0,0,0,7.283,1.3V30.9L12.1,30.03q-6.6-2.6-9.349-5.649A10.858,10.858,0,0,1,0,16.832,9.849,9.849,0,0,1,3.783,8.882Q7.566,5.766,14.332,5.1V0H18.9V4.966A37.841,37.841,0,0,1,32.7,8.032l-3.133,7.8a36.028,36.028,0,0,0-10.666-2.6v9.832A51.261,51.261,0,0,1,28.147,27.4,12.652,12.652,0,0,1,32.18,31.43,10,10,0,0,1,33.463,36.563Zm-10.032.5A3,3,0,0,0,22.3,34.7a14.861,14.861,0,0,0-3.4-2V41Q23.431,40.229,23.431,37.063Zm-13.4-20.231a3.163,3.163,0,0,0,1.017,2.416,12.07,12.07,0,0,0,3.283,1.95V13.365Q10.032,14,10.032,16.832Z" transform="matrix(1, -0.017, 0.017, 1, 765.207, 235.65)" fill="#313e58"/></g></svg>