<svg xmlns="http://www.w3.org/2000/svg" width="192.674" height="192.674" viewBox="0 0 192.674 192.674"><g transform="translate(-56.162 -947.204)"><circle cx="96.337" cy="96.337" r="96.337" transform="translate(56.162 947.204)" fill="#fff"/><path d="M0,0H0L4.809,1.562Z" transform="matrix(0.485, 0.875, -0.875, 0.485, 152.528, 1041.204)" fill="#fbb040"/><g transform="translate(-11891.112 -8327.193)"><g transform="translate(11969.313 9312.021)"><path d="M43.72,21.86A21.86,21.86,0,1,1,21.86,0,21.859,21.859,0,0,1,43.72,21.86" transform="matrix(-0.777, 0.629, -0.629, -0.777, 61.49, 33.977)" fill="#ffd964"/><path d="M21.86,46.22A24.353,24.353,0,0,1,4.635,4.635,24.36,24.36,0,1,1,31.343,44.3,24.211,24.211,0,0,1,21.86,46.22Zm0-43.72A19.36,19.36,0,0,0,8.17,35.55,19.36,19.36,0,0,0,35.55,8.17,19.233,19.233,0,0,0,21.86,2.5Z" transform="matrix(-0.777, 0.629, -0.629, -0.777, 61.49, 33.977)" fill="#ffd964"/><path d="M16.737,18.287a5.284,5.284,0,0,1-1.917,4.259,9.525,9.525,0,0,1-5.368,1.925v3.417H7.168V24.538A18.534,18.534,0,0,1,.033,23.1V18.7a19.207,19.207,0,0,0,3.492,1.267,18.684,18.684,0,0,0,3.642.65V15.453L6.051,15.02a12.466,12.466,0,0,1-4.676-2.826A5.431,5.431,0,0,1,0,8.418,4.926,4.926,0,0,1,1.892,4.443,9.616,9.616,0,0,1,7.168,2.55V0H9.452V2.484a18.926,18.926,0,0,1,6.9,1.534l-1.567,3.9a18.019,18.019,0,0,0-5.334-1.3v4.918A25.638,25.638,0,0,1,14.078,13.7a6.328,6.328,0,0,1,2.017,2.017A5,5,0,0,1,16.737,18.287Zm-5.018.25a1.5,1.5,0,0,0-.567-1.184,7.433,7.433,0,0,0-1.7-1V20.5Q11.719,20.121,11.719,18.537ZM5.018,8.418a1.582,1.582,0,0,0,.508,1.209,6.037,6.037,0,0,0,1.642.975V6.685Q5.018,7,5.018,8.418Z" transform="matrix(1, -0.017, 0.017, 1, 23.013, 16.948)" fill="#313e58"/></g><g transform="translate(12054.238 9312.021)"><path d="M43.72,21.86A21.86,21.86,0,1,1,21.86,0,21.859,21.859,0,0,1,43.72,21.86" transform="matrix(-0.777, 0.629, -0.629, -0.777, 61.49, 33.977)" fill="#b1a8e3"/><path d="M21.86,46.22A24.353,24.353,0,0,1,4.635,4.635,24.36,24.36,0,1,1,31.343,44.3,24.211,24.211,0,0,1,21.86,46.22Zm0-43.72A19.36,19.36,0,0,0,8.17,35.55,19.36,19.36,0,0,0,35.55,8.17,19.233,19.233,0,0,0,21.86,2.5Z" transform="matrix(-0.777, 0.629, -0.629, -0.777, 61.49, 33.977)" fill="#b1a8e3"/><path d="M16.737,18.287a5.284,5.284,0,0,1-1.917,4.259,9.525,9.525,0,0,1-5.368,1.925v3.417H7.168V24.538A18.534,18.534,0,0,1,.033,23.1V18.7a19.207,19.207,0,0,0,3.492,1.267,18.684,18.684,0,0,0,3.642.65V15.453L6.051,15.02a12.466,12.466,0,0,1-4.676-2.826A5.431,5.431,0,0,1,0,8.418,4.926,4.926,0,0,1,1.892,4.443,9.616,9.616,0,0,1,7.168,2.55V0H9.452V2.484a18.926,18.926,0,0,1,6.9,1.534l-1.567,3.9a18.019,18.019,0,0,0-5.334-1.3v4.918A25.638,25.638,0,0,1,14.078,13.7a6.328,6.328,0,0,1,2.017,2.017A5,5,0,0,1,16.737,18.287Zm-5.018.25a1.5,1.5,0,0,0-.567-1.184,7.433,7.433,0,0,0-1.7-1V20.5Q11.719,20.121,11.719,18.537ZM5.018,8.418a1.582,1.582,0,0,0,.508,1.209,6.037,6.037,0,0,0,1.642.975V6.685Q5.018,7,5.018,8.418Z" transform="matrix(1, -0.017, 0.017, 1, 23.013, 16.948)" fill="#313e58"/></g><g transform="translate(12011.587 9388.973)"><path d="M0,1.407,4.327,0,0,1.406Z" transform="matrix(0.485, 0.875, -0.875, 0.485, 21.107, 34.819)" fill="#fbb040"/><path d="M43.72,21.86A21.86,21.86,0,1,1,21.86,0,21.859,21.859,0,0,1,43.72,21.86" transform="matrix(-0.777, 0.629, -0.629, -0.777, 61.49, 33.977)" fill="#85cb85"/><path d="M21.86,46.22A24.353,24.353,0,0,1,4.635,4.635,24.36,24.36,0,1,1,31.343,44.3,24.211,24.211,0,0,1,21.86,46.22Zm0-43.72A19.36,19.36,0,0,0,8.17,35.55,19.36,19.36,0,0,0,35.55,8.17,19.233,19.233,0,0,0,21.86,2.5Z" transform="matrix(-0.777, 0.629, -0.629, -0.777, 61.49, 33.977)" fill="#85cb85"/><path d="M16.737,18.287a5.284,5.284,0,0,1-1.917,4.259,9.525,9.525,0,0,1-5.368,1.925v3.417H7.168V24.538A18.534,18.534,0,0,1,.033,23.1V18.7a19.207,19.207,0,0,0,3.492,1.267,18.684,18.684,0,0,0,3.642.65V15.453L6.051,15.02a12.466,12.466,0,0,1-4.676-2.826A5.431,5.431,0,0,1,0,8.418,4.926,4.926,0,0,1,1.892,4.443,9.616,9.616,0,0,1,7.168,2.55V0H9.452V2.484a18.926,18.926,0,0,1,6.9,1.534l-1.567,3.9a18.019,18.019,0,0,0-5.334-1.3v4.918A25.638,25.638,0,0,1,14.078,13.7a6.328,6.328,0,0,1,2.017,2.017A5,5,0,0,1,16.737,18.287Zm-5.018.25a1.5,1.5,0,0,0-.567-1.184,7.433,7.433,0,0,0-1.7-1V20.5Q11.719,20.121,11.719,18.537ZM5.018,8.418a1.582,1.582,0,0,0,.508,1.209,6.037,6.037,0,0,0,1.642.975V6.685Q5.018,7,5.018,8.418Z" transform="matrix(1, -0.017, 0.017, 1, 23.012, 16.948)" fill="#313e58"/></g><g transform="translate(11974.33 9372.747)"><path d="M1.463,35.113A3.5,3.5,0,0,1-1.912,32.53,46.072,46.072,0,0,1,2.3-1.7,3.5,3.5,0,0,1,7.064-3.057,3.5,3.5,0,0,1,8.417,1.7a39.015,39.015,0,0,0-3.574,28.99,3.5,3.5,0,0,1-3.38,4.418Z" transform="translate(6.891 15.921) rotate(-42)" fill="#2e3e5a"/><path d="M11982.574,9397.037l7.826-16.294,13.32,12.288Z" transform="translate(-11982.574 -9380.743)" fill="#2e3e5a"/></g><g transform="translate(12071.064 9306.006) rotate(120)"><path d="M1.463,35.113A3.5,3.5,0,0,1-1.912,32.53,46.072,46.072,0,0,1,2.3-1.7,3.5,3.5,0,0,1,7.064-3.057,3.5,3.5,0,0,1,8.417,1.7a39.015,39.015,0,0,0-3.574,28.99,3.5,3.5,0,0,1-3.38,4.418Z" transform="translate(6.891 15.921) rotate(-42)" fill="#2e3e5a"/><path d="M0,16.294,7.826,0l13.32,12.288Z" transform="translate(0 0)" fill="#2e3e5a"/></g><g transform="translate(12082.797 9421.952) rotate(-120)"><path d="M1.463,35.113A3.5,3.5,0,0,1-1.912,32.53,46.072,46.072,0,0,1,2.3-1.7,3.5,3.5,0,0,1,7.064-3.057,3.5,3.5,0,0,1,8.417,1.7a39.015,39.015,0,0,0-3.574,28.99,3.5,3.5,0,0,1-3.38,4.418Z" transform="translate(6.891 15.921) rotate(-42)" fill="#2e3e5a"/><path d="M0,16.294,7.826,0l13.32,12.288Z" transform="translate(0 0)" fill="#2e3e5a"/></g></g></g></svg>