<svg xmlns="http://www.w3.org/2000/svg" xmlns:xlink="http://www.w3.org/1999/xlink" width="192.674" height="192.674" viewBox="0 0 192.674 192.674"><defs><clipPath id="a"><rect width="32.759" height="18.287" fill="#313e58"/></clipPath></defs><g transform="translate(-72.325 -1702.421)"><circle cx="96.337" cy="96.337" r="96.337" transform="translate(72.325 1702.421)" fill="none"/><g transform="translate(-673.675 1002.421)"><g transform="translate(776 747)"><path d="M79.307,135.4c-.693,0-1.255-1.062-1.255-2.37v-6.284c0-1.308.562-2.37,1.255-2.37s1.255,1.062,1.255,2.37v6.284c0,1.308-.562,2.37-1.255,2.37" transform="translate(-12.738 -27.581)" fill="#313e58"/><rect width="121.512" height="86.163" transform="translate(5.775 8.008)" fill="#ffd964"/><circle cx="18.411" cy="18.411" r="18.411" transform="translate(80.155 19.055)" fill="#e88a2d"/><rect width="59.651" height="62.597" transform="translate(13.139 19.055)" fill="#fff"/><path d="M128.864,119.712H4.273a4.274,4.274,0,0,1,0-8.547H128.864a4.274,4.274,0,0,1,0,8.547M5.356,113.675Z" transform="translate(0 -20.24)" fill="#7a8293"/><path d="M128.864,120.212H4.273a4.774,4.774,0,0,1,0-9.547H128.864a4.774,4.774,0,0,1,0,9.547ZM4.273,111.665a3.774,3.774,0,0,0,0,7.547H128.864a3.774,3.774,0,0,0,0-7.547Z" transform="translate(0 -20.24)" fill="rgba(0,0,0,0)"/><path d="M.353,31.208a1.359,1.359,0,0,1,.339-2.093L39.411,4,37.363,1.29,47.712,0,43.656,9.608l-2.344-3.1L2.794,31.5a1.929,1.929,0,0,1-1.051.3A1.853,1.853,0,0,1,.353,31.208Z" transform="translate(17.266 23.588)" fill="#629d62"/><path d="M1.743,32.3a2.34,2.34,0,0,1-1.765-.762,1.827,1.827,0,0,1-.461-1.473,1.97,1.97,0,0,1,.9-1.37L38.688,3.87,36.442.9,48.509-.6l-4.73,11.2L41.193,7.182,3.066,31.918A2.422,2.422,0,0,1,1.743,32.3ZM38.285,1.679l1.849,2.445L.964,29.534a.96.96,0,0,0-.456.667.843.843,0,0,0,.22.676,1.36,1.36,0,0,0,1.016.424,1.425,1.425,0,0,0,.779-.222L41.43,5.837l2.1,2.779L46.914.6Z" transform="translate(17.266 23.588)" fill="rgba(0,0,0,0)"/><path d="M33.51,94.193H25.859A1.255,1.255,0,0,1,24.6,92.938V77.53a1.255,1.255,0,0,1,1.255-1.255H33.51a1.256,1.256,0,0,1,1.255,1.255V92.938a1.256,1.256,0,0,1-1.255,1.255" transform="translate(-7.031 -17.812)" fill="#a0d1a0"/><path d="M52.872,92.123h-7.65a1.256,1.256,0,0,1-1.255-1.255V64.846a1.256,1.256,0,0,1,1.255-1.255h7.65a1.255,1.255,0,0,1,1.255,1.255V90.868a1.255,1.255,0,0,1-1.255,1.255" transform="translate(0.383 -15.742)" fill="#85cb85"/><path d="M52.872,86.3h-7.65a1.15,1.15,0,0,1-1.255-1V64.59a1.15,1.15,0,0,1,1.255-1h7.65a1.149,1.149,0,0,1,1.255,1V85.3" transform="translate(-13.005 -9.919)" fill="#a0d1a0"/><path d="M78.441,138.32a4.793,4.793,0,1,1,4.793-4.792,4.8,4.8,0,0,1-4.793,4.792m0-7.075a2.282,2.282,0,1,0,2.283,2.283,2.286,2.286,0,0,0-2.283-2.283" transform="translate(-12.019 -23.108)" fill="#313e58"/><path d="M127.231,10.55H5.906C2.649,10.55,0,8.184,0,5.275S2.649,0,5.906,0H127.231c3.257,0,5.906,2.366,5.906,5.276s-2.649,5.275-5.906,5.275" transform="translate(0 0.001)" fill="#7a8293"/><path d="M72.236,86.151H64.585a1.21,1.21,0,0,1-1.255-1.159V48.164A1.21,1.21,0,0,1,64.585,47h7.651a1.21,1.21,0,0,1,1.255,1.159V84.993a1.21,1.21,0,0,1-1.255,1.159" transform="translate(-5.591 -9.769)" fill="#629d62"/><g transform="translate(81.17 61.499)"><g transform="translate(0 0)" clip-path="url(#a)"><path d="M7.489,8.519a9.962,9.962,0,0,0-1.412-.524,10.878,10.878,0,0,0-1.413-.32,2.843,2.843,0,0,1-1.143-.408,1.009,1.009,0,0,1-.5-.873.994.994,0,0,1,.419-.845,1.649,1.649,0,0,1,1-.3,1.817,1.817,0,0,1,1,.258,3.351,3.351,0,0,1,.295.227c.107.092.25.2.413.317a.971.971,0,0,0,.589.173,1.3,1.3,0,0,0,1.013-.7A2.278,2.278,0,0,0,8.241,4.51c0-.123-.087-.35-.5-.732l-.076-.054-.2-.182a4.14,4.14,0,0,0-.664-.37,4.859,4.859,0,0,0-1.077-.359.124.124,0,0,1-.1-.12V1.479a5.757,5.757,0,0,0-.042-.8A.769.769,0,0,0,5.285.219,1.214,1.214,0,0,0,4.489,0c-.564,0-.911.15-1.033.444a3.014,3.014,0,0,0-.12,1.014V2.669a.124.124,0,0,1-.1.121,3.662,3.662,0,0,0-2.2,1.3,3.561,3.561,0,0,0-.8,2.262A3.472,3.472,0,0,0,.822,8.422,3.2,3.2,0,0,0,2.239,9.57a12.283,12.283,0,0,0,1.715.548,9.15,9.15,0,0,1,1.493.472.932.932,0,0,1,.68.849c0,.659-.3,1.443-1.725,1.443a2.059,2.059,0,0,1-1.612-.869c-.679-.675-1.059-.819-1.258-.819a1.2,1.2,0,0,0-.835.377c-.577.561-.7.884-.7,1.058a1.659,1.659,0,0,0,.428.942l.282.369a4.26,4.26,0,0,0,.965.773,4.839,4.839,0,0,0,1.562.632.123.123,0,0,1,.1.12v1.342a2.965,2.965,0,0,0,.142,1.059.532.532,0,0,0,.31.321,1.9,1.9,0,0,0,.68.1,1.889,1.889,0,0,0,.679-.1.64.64,0,0,0,.346-.35,2.7,2.7,0,0,0,.129-1.008V15.445a.124.124,0,0,1,.1-.121,4.572,4.572,0,0,0,2.3-1.308A3.644,3.644,0,0,0,8.955,11.4a3.668,3.668,0,0,0-.428-1.854A2.407,2.407,0,0,0,7.489,8.519" transform="translate(0 0)" fill="#313e58"/><path d="M21.712,8.519A9.962,9.962,0,0,0,20.3,7.995a10.878,10.878,0,0,0-1.413-.32,2.847,2.847,0,0,1-1.142-.408,1.008,1.008,0,0,1-.5-.873.994.994,0,0,1,.419-.845,1.651,1.651,0,0,1,1-.3,1.814,1.814,0,0,1,1,.258,3.351,3.351,0,0,1,.295.227c.108.092.251.2.413.317a.98.98,0,0,0,.589.173,1.294,1.294,0,0,0,1.013-.7,2.278,2.278,0,0,0,.487-1.015c0-.123-.087-.35-.5-.732l-.076-.054-.2-.182a4.14,4.14,0,0,0-.664-.37,4.859,4.859,0,0,0-1.077-.359.124.124,0,0,1-.1-.12V1.479a5.757,5.757,0,0,0-.042-.8.769.769,0,0,0-.294-.455,1.214,1.214,0,0,0-.8-.219c-.564,0-.911.15-1.033.444a3.033,3.033,0,0,0-.121,1.014V2.669a.124.124,0,0,1-.1.121,3.667,3.667,0,0,0-2.2,1.3,3.561,3.561,0,0,0-.8,2.262,3.478,3.478,0,0,0,.583,2.071A3.205,3.205,0,0,0,16.462,9.57a12.318,12.318,0,0,0,1.715.548,9.123,9.123,0,0,1,1.493.472.932.932,0,0,1,.68.849c0,.659-.3,1.443-1.725,1.443a2.059,2.059,0,0,1-1.612-.869c-.678-.675-1.059-.819-1.258-.819a1.2,1.2,0,0,0-.835.377c-.577.561-.7.884-.7,1.058a1.659,1.659,0,0,0,.428.942l.283.369a4.232,4.232,0,0,0,.964.773,4.839,4.839,0,0,0,1.562.632.123.123,0,0,1,.1.12v1.342a2.968,2.968,0,0,0,.142,1.059.532.532,0,0,0,.31.321,2.39,2.39,0,0,0,1.36,0,.642.642,0,0,0,.345-.35,2.7,2.7,0,0,0,.129-1.008V15.445a.124.124,0,0,1,.1-.121,4.578,4.578,0,0,0,2.3-1.308,3.647,3.647,0,0,0,.94-2.621,3.668,3.668,0,0,0-.428-1.854,2.407,2.407,0,0,0-1.038-1.023" transform="translate(-2.321 0)" fill="#313e58"/><path d="M36.975,9.542h0a2.409,2.409,0,0,0-1.039-1.023,10.015,10.015,0,0,0-1.411-.524,10.878,10.878,0,0,0-1.413-.32,2.855,2.855,0,0,1-1.143-.408,1.009,1.009,0,0,1-.5-.873.992.992,0,0,1,.419-.845,1.648,1.648,0,0,1,1-.295,1.817,1.817,0,0,1,1,.257,3.481,3.481,0,0,1,.295.227c.107.092.25.2.413.318a.983.983,0,0,0,.589.172,1.29,1.29,0,0,0,1.013-.7,2.274,2.274,0,0,0,.488-1.015c0-.123-.087-.35-.5-.732l-.076-.054-.2-.182a4.14,4.14,0,0,0-.664-.37,4.866,4.866,0,0,0-1.078-.359.123.123,0,0,1-.1-.12V1.479a5.756,5.756,0,0,0-.042-.8.771.771,0,0,0-.294-.455,1.219,1.219,0,0,0-.8-.219c-.564,0-.911.15-1.033.444a3,3,0,0,0-.121,1.013V2.67a.123.123,0,0,1-.1.12,3.675,3.675,0,0,0-2.2,1.3,3.567,3.567,0,0,0-.8,2.262,3.477,3.477,0,0,0,.582,2.071A3.206,3.206,0,0,0,30.686,9.57a12.248,12.248,0,0,0,1.715.548,9.15,9.15,0,0,1,1.493.472.932.932,0,0,1,.68.849c0,.659-.3,1.443-1.725,1.443a2.062,2.062,0,0,1-1.613-.869c-.678-.675-1.059-.819-1.257-.819a1.2,1.2,0,0,0-.835.377c-.577.561-.7.885-.7,1.058a1.659,1.659,0,0,0,.428.942l.282.369a4.241,4.241,0,0,0,.965.773,4.831,4.831,0,0,0,1.562.632.124.124,0,0,1,.1.12v1.342a2.964,2.964,0,0,0,.143,1.059.53.53,0,0,0,.31.321,2.387,2.387,0,0,0,1.359,0,.64.64,0,0,0,.346-.35,2.7,2.7,0,0,0,.129-1.008V15.445a.124.124,0,0,1,.1-.121,4.572,4.572,0,0,0,2.3-1.308A3.644,3.644,0,0,0,37.4,11.4a3.668,3.668,0,0,0-.428-1.854" transform="translate(-4.643 0)" fill="#313e58"/></g></g></g><path d="M0,19.283V0A18.409,18.409,0,0,1,18.409,18.41a18.323,18.323,0,0,1-3.2,10.375Z" transform="translate(874.742 765.821)" fill="#b1a8e3"/></g></g></svg>