<svg xmlns="http://www.w3.org/2000/svg" width="192.674" height="192.674" viewBox="0 0 192.674 192.674"><g transform="translate(-497.809 -2074.979)"><circle cx="96.337" cy="96.337" r="96.337" transform="translate(497.809 2074.979)" fill="#fff"/><g transform="translate(544.726 2108.567)"><rect width="86.939" height="121.673" transform="translate(5.133 5.625)" fill="#acb1bc"/><path d="M0,0H86.939V121.673H0Z" fill="#e4e6ea"/></g><g transform="translate(-5 -0.328)"><rect width="18.19" height="18.19" transform="translate(559.797 2199.328)" fill="#fff"/><g transform="translate(583.652 2204.13)"><path d="M41.007,1.5H0A1.5,1.5,0,0,1-1.5,0,1.5,1.5,0,0,1,0-1.5H41.007a1.5,1.5,0,0,1,1.5,1.5A1.5,1.5,0,0,1,41.007,1.5Z" fill="#313e58"/><path d="M10.822,1.5H0A1.5,1.5,0,0,1-1.5,0,1.5,1.5,0,0,1,0-1.5H10.822a1.5,1.5,0,0,1,1.5,1.5A1.5,1.5,0,0,1,10.822,1.5Z" transform="translate(0.001 8.486)" fill="#313e58"/></g></g><g transform="translate(-5 -0.104)"><rect width="18.19" height="18.19" transform="translate(559.797 2118.104)" fill="#fff"/><g transform="translate(583.652 2122.906)"><path d="M41.007,1.5H0A1.5,1.5,0,0,1-1.5,0,1.5,1.5,0,0,1,0-1.5H41.007a1.5,1.5,0,0,1,1.5,1.5A1.5,1.5,0,0,1,41.007,1.5Z" fill="#313e58"/><path d="M26.888,1.5H0A1.5,1.5,0,0,1-1.5,0,1.5,1.5,0,0,1,0-1.5H26.888a1.5,1.5,0,0,1,1.5,1.5A1.5,1.5,0,0,1,26.888,1.5Z" transform="translate(0.001 8.486)" fill="#313e58"/></g><g transform="translate(563.487 2123.008)"><path d="M0,5.008,1.282,3.7,3.543,5.97,9.516,0l1.293,1.285L3.543,8.551Z" transform="translate(0 0)" fill="#629d62"/><path d="M3.543,9.051A.5.5,0,0,1,3.189,8.9L-.354,5.362a.5.5,0,0,1,0-.7l1.282-1.3a.5.5,0,0,1,.711,0L3.543,5.263,9.163-.354a.5.5,0,0,1,.706,0L11.162.93a.5.5,0,0,1,0,.708L3.9,8.9A.5.5,0,0,1,3.543,9.051ZM.7,5.005,3.543,7.844,10.1,1.286,9.518.706,3.9,6.324a.5.5,0,0,1-.707,0l-1.9-1.909Z" transform="translate(0 0)" fill="#629d62"/></g></g><g transform="translate(-5 0.827)"><rect width="18.19" height="18.19" transform="translate(559.797 2144.173)" fill="#fff"/><g transform="translate(583.652 2148.975)"><path d="M41.007,1.5H0A1.5,1.5,0,0,1-1.5,0,1.5,1.5,0,0,1,0-1.5H41.007a1.5,1.5,0,0,1,1.5,1.5A1.5,1.5,0,0,1,41.007,1.5Z" fill="#313e58"/><path d="M41.006,1.5H0A1.5,1.5,0,0,1-1.5,0,1.5,1.5,0,0,1,0-1.5H41.006a1.5,1.5,0,0,1,1.5,1.5A1.5,1.5,0,0,1,41.006,1.5Z" transform="translate(0.001 8.486)" fill="#313e58"/></g><g transform="translate(563.487 2148.825)"><path d="M0,5.008,1.282,3.7,3.543,5.97,9.516,0l1.293,1.285L3.543,8.551Z" transform="translate(0 0)" fill="#629d62"/><path d="M3.543,9.051A.5.5,0,0,1,3.189,8.9L-.354,5.362a.5.5,0,0,1,0-.7l1.282-1.3a.5.5,0,0,1,.711,0L3.543,5.263,9.163-.354a.5.5,0,0,1,.706,0L11.162.93a.5.5,0,0,1,0,.708L3.9,8.9A.5.5,0,0,1,3.543,9.051ZM.7,5.005,3.543,7.844,10.1,1.286,9.518.706,3.9,6.324a.5.5,0,0,1-.707,0l-1.9-1.909Z" transform="translate(0 0)" fill="#629d62"/></g></g><g transform="translate(-5 1.759)"><rect width="18.19" height="18.19" transform="translate(559.797 2170.24)" fill="#fff"/><g transform="translate(583.652 2175.043)"><path d="M41.007,1.5H0A1.5,1.5,0,0,1-1.5,0,1.5,1.5,0,0,1,0-1.5H41.007a1.5,1.5,0,0,1,1.5,1.5A1.5,1.5,0,0,1,41.007,1.5Z" fill="#313e58"/><path d="M24.542,1.5H0A1.5,1.5,0,0,1-1.5,0,1.5,1.5,0,0,1,0-1.5H24.542a1.5,1.5,0,0,1,1.5,1.5A1.5,1.5,0,0,1,24.542,1.5Z" transform="translate(0.001 8.486)" fill="#313e58"/></g><g transform="translate(563.487 2175.163)"><path d="M0,5.008,1.282,3.7,3.543,5.97,9.516,0l1.293,1.285L3.543,8.551Z" transform="translate(0 0)" fill="#629d62"/><path d="M3.543,9.051A.5.5,0,0,1,3.189,8.9L-.354,5.362a.5.5,0,0,1,0-.7l1.282-1.3a.5.5,0,0,1,.711,0L3.543,5.263,9.163-.354a.5.5,0,0,1,.706,0L11.162.93a.5.5,0,0,1,0,.708L3.9,8.9A.5.5,0,0,1,3.543,9.051ZM.7,5.005,3.543,7.844,10.1,1.286,9.518.706,3.9,6.324a.5.5,0,0,1-.707,0l-1.9-1.909Z" transform="translate(0 0)" fill="#629d62"/></g></g><g transform="translate(577.297 2146.233)"><path d="M11.631,7.964,0,4.2,11.631,0" transform="matrix(0.875, -0.485, 0.485, 0.875, 0, 46.413)" fill="#e4e6ea"/><path d="M2.558,2.555h0L0,1.347,2.558,0V2.555Z" transform="matrix(0.875, -0.485, 0.485, 0.875, 3.982, 47.648)" fill="#629d62"/><path d="M2.556,3.554a1,1,0,0,1-.44-.1l-2.543-1.2A1,1,0,0,1-1,1.369,1,1,0,0,1-.466.462L2.092-.885a1,1,0,0,1,.983.029A1,1,0,0,1,3.558,0V2.553a1,1,0,0,1-1,1Z" transform="matrix(0.875, -0.485, 0.485, 0.875, 3.982, 47.648)" fill="#629d62"/><path d="M0,0H5.866V8.046H0" transform="matrix(0.875, -0.485, 0.485, 0.875, 72.882, 6.014)" fill="#313e58"/><path d="M5.866,8.546H0a.5.5,0,0,1-.5-.5.5.5,0,0,1,.5-.5H5.366V.5H0A.5.5,0,0,1-.5,0,.5.5,0,0,1,0-.5H5.866a.5.5,0,0,1,.5.5V8.046a.5.5,0,0,1-.5.5Z" transform="matrix(0.875, -0.485, 0.485, 0.875, 72.882, 6.014)" fill="#313e58"/><path d="M11.631,8.964a1,1,0,0,1-.308-.049L-.308,5.151A1,1,0,0,1-1,4.216a1,1,0,0,1,.66-.957l11.631-4.2a1,1,0,0,1,1.28.6,1,1,0,0,1-.6,1.28L3.088,4.148l8.851,2.865a1,1,0,0,1-.308,1.952Z" transform="matrix(0.875, -0.485, 0.485, 0.875, 0, 46.413)" fill="#333e56"/><rect width="71.36" height="8.046" transform="matrix(0.875, -0.485, 0.485, 0.875, 10.173, 40.775)" fill="#629d62"/><path d="M0-1H71.36a1,1,0,0,1,1,1V8.046a1,1,0,0,1-1,1H0a1,1,0,0,1-1-1V0A1,1,0,0,1,0-1ZM70.36,1H1V7.046H70.36Z" transform="matrix(0.875, -0.485, 0.485, 0.875, 10.173, 40.775)" fill="#629d62"/><path d="M9.467,5.351c-2.709,0-5.9-.087-9.533-.33A1,1,0,0,1-1,3.957,1,1,0,0,1,.067,3.026a112.421,112.421,0,0,0,19.045-.131V0a1,1,0,0,1,1-1,1,1,0,0,1,1,1V3.779a1,1,0,0,1-.852.989A79.707,79.707,0,0,1,9.467,5.351Z" transform="matrix(0.875, -0.485, 0.485, 0.875, 60.304, 22.604)" fill="#313e58"/><rect width="89.673" height="15.307" transform="matrix(0.875, -0.485, 0.485, 0.875, 2.676, 43.474)" fill="none"/></g></g></svg>