<svg xmlns="http://www.w3.org/2000/svg" width="192.674" height="192.674" viewBox="0 0 192.674 192.674"><g transform="translate(-171.809 -1475.876)"><circle cx="96.337" cy="96.337" r="96.337" transform="translate(171.809 1475.876)" fill="#fff"/><g transform="translate(4.221 0.123)"><rect width="135.456" height="96.787" transform="translate(203.57 1631.817) rotate(-82)" fill="#7a8293"/><rect width="135.456" height="96.787" transform="matrix(0.125, -0.992, 0.992, 0.125, 201.369, 1629.56)" fill="#ffe491"/><path d="M65.192,119.976a1.463,1.463,0,0,1-.2-.013l-3.142-.407a5.094,5.094,0,0,1-3.979-2.544l-.9-1.834h-.005L55.7,116.64a5.178,5.178,0,0,1-4.634,1.516,5.081,5.081,0,0,1-4.471-4.677l-.025-.155c-.044-.293-.1-.665-.167-1.024-.155.331-.3.676-.422.946-.818,1.887-1.755,4.023-3.787,3.761s-2.392-2.568-2.7-4.6c-.044-.291-.1-.661-.166-1.018-.155.328-.3.671-.42.941-.818,1.886-1.735,4.027-3.785,3.76s-2.391-2.568-2.7-4.6c-.044-.291-.1-.66-.166-1.018-.154.328-.3.672-.42.941-.817,1.887-1.742,4.03-3.786,3.761s-2.392-2.569-2.7-4.6c-.044-.292-.1-.661-.167-1.018-.154.33-.3.674-.42.944l-.049.111a4.783,4.783,0,0,1-2.163,2.754,5.037,5.037,0,0,1-4.181.185,1.547,1.547,0,1,1,.984-2.934,2.168,2.168,0,0,0,1.68.051,1.716,1.716,0,0,0,.719-.959,2.084,2.084,0,0,1,.079-.234l.089-.2c.818-1.888,1.741-4.033,3.787-3.763s2.392,2.567,2.7,4.6c.045.291.1.661.167,1.019.154-.329.3-.673.42-.942.818-1.887,1.737-4.025,3.785-3.761s2.391,2.569,2.7,4.6c.044.291.1.661.166,1.019.155-.33.3-.672.419-.942.818-1.887,1.744-4.028,3.786-3.76s2.392,2.568,2.7,4.6c.043.29.1.661.166,1.018.155-.329.3-.673.421-.943.818-1.886,1.741-4.028,3.787-3.759s2.392,2.567,2.7,4.6l.034.224a1.309,1.309,0,0,1,.017.167,1.969,1.969,0,0,0,1.815,1.845,2.221,2.221,0,0,0,1.864-.479l1.4-1.618a3.117,3.117,0,0,1,4.9.635l.991,2.017a2.178,2.178,0,0,0,1.6.84l3.141.408a1.548,1.548,0,0,1-.2,3.083" transform="translate(200.893 1497.514)" fill="#7468b4"/><path d="M26.676,99.105h0" transform="translate(201.193 1497.308)" fill="#0c8843"/><path d="M24.986,99.63l1.743-.525-1.743.525" transform="translate(201.139 1497.308)" fill="#0c8843"/><path d="M60.164,9.052a1.514,1.514,0,0,1-.189-.012L-.187,1.488a1.5,1.5,0,0,1-1.3-1.675,1.5,1.5,0,0,1,1.675-1.3L60.349,6.064a1.5,1.5,0,0,1-.185,2.988Z" transform="translate(233.563 1515.576)" fill="#313e58"/><path d="M60.164,9.052a1.513,1.513,0,0,1-.189-.012L-.187,1.488a1.5,1.5,0,0,1-1.3-1.675,1.5,1.5,0,0,1,1.675-1.3L60.349,6.064a1.5,1.5,0,0,1-.185,2.988Z" transform="translate(231.897 1528.849)" fill="#313e58"/><path d="M60.2,8.836a1.515,1.515,0,0,1-.183-.011L-.181,1.489A1.5,1.5,0,0,1-1.489-.181,1.5,1.5,0,0,1,.181-1.489l60.2,7.336a1.5,1.5,0,0,1-.18,2.989Z" transform="translate(230.23 1542.12)" fill="#313e58"/><path d="M41.465,6.705a1.514,1.514,0,0,1-.189-.012L-.187,1.488a1.5,1.5,0,0,1-1.3-1.675,1.5,1.5,0,0,1,1.675-1.3l41.463,5.2a1.5,1.5,0,0,1-.185,2.988Z" transform="translate(227.902 1555.044)" fill="#313e58"/><path d="M21.707,4.225a1.514,1.514,0,0,1-.189-.012L-.187,1.488a1.5,1.5,0,0,1-1.3-1.675,1.5,1.5,0,0,1,1.675-1.3L21.892,1.236a1.5,1.5,0,0,1-.185,2.988Z" transform="translate(223.901 1595.49)" fill="#313e58"/><path d="M60.164,9.052a1.513,1.513,0,0,1-.189-.012L-.187,1.488a1.5,1.5,0,0,1-1.3-1.675,1.5,1.5,0,0,1,1.675-1.3L60.349,6.064a1.5,1.5,0,0,1-.185,2.988Z" transform="translate(220.738 1617.74)" fill="#313e58"/><g transform="translate(226.479 1570.261) rotate(8)"><path d="M7.592,8.636A10.33,10.33,0,0,0,6.162,8.1,11.061,11.061,0,0,0,4.729,7.78a2.887,2.887,0,0,1-1.158-.413,1.024,1.024,0,0,1-.506-.886,1.006,1.006,0,0,1,.424-.856,1.671,1.671,0,0,1,1.017-.3,1.842,1.842,0,0,1,1.011.261,3.584,3.584,0,0,1,.3.231c.109.092.254.2.419.321a.982.982,0,0,0,.6.175A1.311,1.311,0,0,0,7.86,5.6a2.306,2.306,0,0,0,.494-1.03c0-.124-.088-.354-.509-.742l-.077-.055L7.561,3.59a4.1,4.1,0,0,0-.672-.375A4.888,4.888,0,0,0,5.8,2.85a.126.126,0,0,1-.1-.122V1.5A5.766,5.766,0,0,0,5.655.684a.781.781,0,0,0-.3-.462A1.242,1.242,0,0,0,4.55,0C3.979,0,3.627.151,3.5.45A3.066,3.066,0,0,0,3.38,1.478v1.23a.125.125,0,0,1-.1.122A3.718,3.718,0,0,0,1.05,4.145,3.611,3.611,0,0,0,.242,6.438a3.526,3.526,0,0,0,.591,2.1A3.254,3.254,0,0,0,2.271,9.7a12.419,12.419,0,0,0,1.738.556,9.168,9.168,0,0,1,1.513.478.945.945,0,0,1,.69.861c0,.668-.3,1.463-1.748,1.463a2.087,2.087,0,0,1-1.634-.88c-.687-.685-1.073-.831-1.276-.831a1.215,1.215,0,0,0-.846.382C.123,12.3,0,12.627,0,12.8a1.684,1.684,0,0,0,.434.955l.287.375a4.335,4.335,0,0,0,.978.783,4.869,4.869,0,0,0,1.583.64.126.126,0,0,1,.1.123V17.04a3.012,3.012,0,0,0,.144,1.072.543.543,0,0,0,.315.326,1.907,1.907,0,0,0,.69.1,1.9,1.9,0,0,0,.689-.1.646.646,0,0,0,.35-.355,2.733,2.733,0,0,0,.13-1.022v-1.4a.126.126,0,0,1,.1-.123,4.64,4.64,0,0,0,2.331-1.325,3.7,3.7,0,0,0,.953-2.658,3.727,3.727,0,0,0-.433-1.879A2.448,2.448,0,0,0,7.592,8.636" transform="translate(0 0)" fill="#313e58"/><path d="M7.592,8.636A10.332,10.332,0,0,0,6.162,8.1,11.093,11.093,0,0,0,4.73,7.78a2.886,2.886,0,0,1-1.159-.413,1.024,1.024,0,0,1-.506-.886,1.006,1.006,0,0,1,.424-.856,1.676,1.676,0,0,1,1.017-.3,1.849,1.849,0,0,1,1.013.261q.138.095.3.231c.109.092.254.2.419.321a1,1,0,0,0,.6.175A1.311,1.311,0,0,0,7.86,5.6a2.3,2.3,0,0,0,.494-1.03c0-.124-.088-.354-.507-.742l-.078-.055L7.561,3.59a4.1,4.1,0,0,0-.673-.375A4.865,4.865,0,0,0,5.8,2.85a.125.125,0,0,1-.1-.122V1.5A5.727,5.727,0,0,0,5.656.684a.781.781,0,0,0-.3-.462A1.24,1.24,0,0,0,4.551,0C3.979,0,3.627.151,3.5.45A3.066,3.066,0,0,0,3.38,1.478v1.23a.125.125,0,0,1-.1.122,3.748,3.748,0,0,0-2.122,1.2c-.035.04-.077.073-.109.115A3.611,3.611,0,0,0,.242,6.438a3.526,3.526,0,0,0,.591,2.1,3.674,3.674,0,0,0,.326.35A3.152,3.152,0,0,0,2.271,9.7a12.47,12.47,0,0,0,1.738.556,9.17,9.17,0,0,1,1.513.478.945.945,0,0,1,.69.861c0,.668-.3,1.463-1.748,1.463a2.087,2.087,0,0,1-1.634-.88c-.687-.685-1.073-.831-1.276-.831a1.028,1.028,0,0,0-.395.087,1.434,1.434,0,0,0-.452.3C.123,12.3,0,12.627,0,12.8a1.684,1.684,0,0,0,.434.955l.287.375a2.841,2.841,0,0,0,.438.4c.154.12.328.246.54.381a4.87,4.87,0,0,0,1.583.64.125.125,0,0,1,.1.123V17.04a2.98,2.98,0,0,0,.145,1.072.538.538,0,0,0,.314.326,1.907,1.907,0,0,0,.69.1,1.9,1.9,0,0,0,.689-.1.645.645,0,0,0,.35-.355A2.726,2.726,0,0,0,5.7,17.061v-1.4a.126.126,0,0,1,.1-.123,4.63,4.63,0,0,0,2.331-1.325,3.7,3.7,0,0,0,.953-2.658,3.727,3.727,0,0,0-.433-1.879A2.448,2.448,0,0,0,7.592,8.636" transform="translate(12.066 0)" fill="#313e58"/><path d="M8.646,9.673h0A2.434,2.434,0,0,0,7.592,8.636,10.216,10.216,0,0,0,6.162,8.1,11.093,11.093,0,0,0,4.73,7.78a2.886,2.886,0,0,1-1.159-.413,1.024,1.024,0,0,1-.506-.886,1.006,1.006,0,0,1,.424-.856,1.677,1.677,0,0,1,1.019-.3,1.847,1.847,0,0,1,1.011.261,3.473,3.473,0,0,1,.3.23c.109.093.254.2.419.323a1,1,0,0,0,.6.175A1.309,1.309,0,0,0,7.86,5.6a2.316,2.316,0,0,0,.5-1.03c0-.124-.089-.354-.509-.742L7.77,3.774,7.563,3.59a4.3,4.3,0,0,0-.673-.376A4.939,4.939,0,0,0,5.8,2.85a.125.125,0,0,1-.1-.122V1.5A5.962,5.962,0,0,0,5.657.684a.783.783,0,0,0-.3-.462A1.24,1.24,0,0,0,4.551,0C3.979,0,3.627.151,3.5.45a3.029,3.029,0,0,0-.123,1.027V2.706a.126.126,0,0,1-.1.123A3.725,3.725,0,0,0,1.05,4.145c-.02.025-.032.052-.052.077A3.607,3.607,0,0,0,.242,6.438a3.52,3.52,0,0,0,.592,2.1c.048.069.112.113.164.177A3.2,3.2,0,0,0,2.271,9.7a12.469,12.469,0,0,0,1.738.556,9.132,9.132,0,0,1,1.513.478.945.945,0,0,1,.691.861c0,.668-.3,1.463-1.75,1.463a2.094,2.094,0,0,1-1.634-.88c-.687-.685-1.073-.831-1.274-.831a1.1,1.1,0,0,0-.557.18,1.493,1.493,0,0,0-.289.2C.124,12.3,0,12.627,0,12.8a1.687,1.687,0,0,0,.434.955l.287.375A2.641,2.641,0,0,0,1,14.4a5.784,5.784,0,0,0,.7.52,4.893,4.893,0,0,0,1.584.64.126.126,0,0,1,.1.123V17.04a3.013,3.013,0,0,0,.144,1.072.54.54,0,0,0,.315.326,1.923,1.923,0,0,0,.689.1,1.922,1.922,0,0,0,.689-.1.655.655,0,0,0,.351-.355,2.731,2.731,0,0,0,.13-1.022v-1.4a.126.126,0,0,1,.1-.122,4.631,4.631,0,0,0,2.33-1.325,3.7,3.7,0,0,0,.953-2.658,3.714,3.714,0,0,0-.433-1.879" transform="translate(24.13 0)" fill="#313e58"/></g></g><g transform="matrix(0.985, -0.174, 0.174, 0.985, 263.879, 1564.808)"><path d="M12.367,8.468,0,4.466,12.367,0" transform="matrix(0.875, -0.485, 0.485, 0.875, 0, 45.981)" fill="#e4e6ea"/><path d="M2.72,2.716h0L0,1.432,2.72,0V2.716Z" transform="matrix(0.875, -0.485, 0.485, 0.875, 4.234, 47.294)" fill="#7468b4"/><path d="M2.718,3.716a1,1,0,0,1-.44-.1L-.427,2.337A1,1,0,0,1-1,1.454,1,1,0,0,1-.466.548L2.254-.885a1,1,0,0,1,.983.029A1,1,0,0,1,3.72,0V2.714a1,1,0,0,1-1,1Z" transform="matrix(0.875, -0.485, 0.485, 0.875, 4.234, 47.294)" fill="#7468b4"/><path d="M0,0H6.237V8.556H0" transform="matrix(0.875, -0.485, 0.485, 0.875, 77.497, 3.024)" fill="#313e58"/><path d="M6.237,9.056H0a.5.5,0,0,1-.5-.5.5.5,0,0,1,.5-.5H5.737V.5H0A.5.5,0,0,1-.5,0,.5.5,0,0,1,0-.5H6.237a.5.5,0,0,1,.5.5V8.556a.5.5,0,0,1-.5.5Z" transform="matrix(0.875, -0.485, 0.485, 0.875, 77.497, 3.024)" fill="#313e58"/><path d="M12.367,9.469a1,1,0,0,1-.308-.049l-12.367-4A1,1,0,0,1-1,4.482a1,1,0,0,1,.66-.957L12.027-.941a1,1,0,0,1,1.28.6,1,1,0,0,1-.6,1.28L3.088,4.414l9.587,3.1a1,1,0,0,1-.308,1.952Z" transform="matrix(0.875, -0.485, 0.485, 0.875, 0, 45.981)" fill="#333e56"/><rect width="75.878" height="8.556" transform="matrix(0.875, -0.485, 0.485, 0.875, 10.817, 39.986)" fill="#7468b4"/><path d="M0-1H75.878a1,1,0,0,1,1,1V8.556a1,1,0,0,1-1,1H0a1,1,0,0,1-1-1V0A1,1,0,0,1,0-1ZM74.878,1H1V7.556H74.878Z" transform="matrix(0.875, -0.485, 0.485, 0.875, 10.817, 39.986)" fill="#7468b4"/><path d="M10.067,5.627c-2.879,0-6.269-.093-10.133-.35A1,1,0,0,1-1,4.212,1,1,0,0,1,.067,3.281a119.26,119.26,0,0,0,20.319-.146V0a1,1,0,0,1,1-1,1,1,0,0,1,1,1V4.019a1,1,0,0,1-.852.989A84.678,84.678,0,0,1,10.067,5.627Z" transform="matrix(0.875, -0.485, 0.485, 0.875, 64.122, 20.664)" fill="#313e58"/><path d="M0,0Z" transform="matrix(0.875, -0.485, 0.485, 0.875, 10.736, 57.092)" fill="#7468b4"/></g></g></svg>