<svg xmlns="http://www.w3.org/2000/svg" width="192.675" height="192.675" viewBox="0 0 192.675 192.675"><g transform="translate(-13794.662 -9574.204)"><circle cx="96.337" cy="96.337" r="96.337" transform="translate(13794.662 9574.204)" fill="none"/><g transform="translate(12129.337 8629.589)"><path d="M160.839,3.461C159.748.007,151.931.492,151.931.492S68.173-.492,66.094.322C53.55,1.413,23.127,33.859,21.282,34.4c-5.545,3.908-6.237,3.055-10.544,5.635a13.6,13.6,0,0,0-4.727,8.09L5.444,69.928c2.181,1.389,5.612,2.414,10.2,3.05a100.4,100.4,0,0,0,13.482.782c10.392,0,20.039-1.062,20.135-1.073h66.01v-.263l2.545,0c3.636-23.451,23.573-12.6,23.573-12.6L145.2,55.09s17.27-.182,21.452-.727c2.182-24.724-4.727-47.448-5.818-50.9" transform="translate(1673.974 994.478)" fill="#ffd964"/><path d="M-11896.094-7580.362c-.514-.94-1.825-11.66-1.9-14.046s1.141-2.189,1.141-2.189l20.46.03a15.89,15.89,0,0,1,2.876-.28,15.818,15.818,0,0,1,15.915,15.718v.445l93.249-.136,2.513,0v1.714l-37.76.022h-68.758v-.762c-1.829.09-3.8.164-5.839.2l-.207.621S-11895.578-7579.422-11896.094-7580.362Zm134.313-12.571,4.967-5.333,21.453-.726s1.211-.245,1.211,2.181-.969,13.331-1.453,14.3-21.636,2.06-21.636,2.06Z" transform="translate(13575.931 8647.773)" fill="#2e3e5a"/><path d="M-11874.048-7578.519l-.368-.007c-.053,0-5.359-.1-10.661-.316-3.117-.126-5.624-.267-7.451-.417-1.094-.09-1.957-.185-2.564-.283-.919-.147-1.282-.293-1.439-.58a41.747,41.747,0,0,1-1.172-6.657c-.421-3.242-.754-6.444-.792-7.614a3.092,3.092,0,0,1,.608-2.286,1.333,1.333,0,0,1,.964-.423c.038,0,.07,0,.1,0l20.385.03a16.442,16.442,0,0,1,2.92-.28h.1a16.216,16.216,0,0,1,11.5,4.742,16.214,16.214,0,0,1,4.816,11.421l95.762-.139v2.714h-.5l-37.76.022h-69.258v-.738c-1.7.08-3.369.138-4.977.172Zm-21.645-2.172c.39.146,2.251.52,11.086.867,4.341.171,8.592.265,9.843.291l.2-.606.353-.007c1.869-.036,3.828-.1,5.824-.2l.524-.026v.788h68.258l37.26-.022v-.714l-2.012,0-93.75.137v-.946a15.218,15.218,0,0,0-4.521-10.767,15.222,15.222,0,0,0-10.794-4.452h-.1a15.392,15.392,0,0,0-2.785.271l-.047.009h-.048l-20.522-.03-.011,0a.345.345,0,0,0-.239.119c-.137.141-.361.531-.327,1.559A119.262,119.262,0,0,0-11895.692-7580.691Zm138.11.757-.126-.348-4.646-12.769.208-.224,5.108-5.485.208-.007,21.425-.725a1.081,1.081,0,0,1,.136-.008c.38,0,1.62.194,1.62,2.688,0,1.187-.23,4.443-.547,7.743a42.886,42.886,0,0,1-.959,6.78c-.169.337-.553.606-3.976,1-1.821.212-4.323.436-7.436.665-5.292.389-10.593.664-10.646.667Zm-3.624-12.883,4.312,11.845c1.251-.067,5.5-.3,9.825-.614,8.832-.64,10.673-1.08,11.054-1.24a121.7,121.7,0,0,0,1.366-13.986c0-1.166-.312-1.688-.62-1.688h0l-.052.015-.021-.009-21.245.719Z" transform="translate(13575.931 8647.773)" fill="rgba(0,0,0,0)"/><path d="M177.828,151.057l6.956.024a1.043,1.043,0,0,1,1.04,1.047h0a1.043,1.043,0,0,1-1.046,1.04l-6.956-.024a1.043,1.043,0,0,1-1.04-1.047h0a1.043,1.043,0,0,1,1.047-1.04" transform="translate(1549.47 884.711)" fill="#313e58"/><path d="M240.842,151.257l6.956.024a1.043,1.043,0,0,1,1.04,1.047h0a1.043,1.043,0,0,1-1.047,1.04l-6.956-.023a1.043,1.043,0,0,1-1.04-1.047h0a1.043,1.043,0,0,1,1.047-1.04" transform="translate(1503.68 884.565)" fill="#313e58"/><path d="M412.648,223.18q-.017-.373-.017-.749a15.816,15.816,0,0,1,31.632-.2c0,.066,0,.131,0,.2v.278c-1.709.179-10.414,1.041-19.834,1.041a108.426,108.426,0,0,1-11.781-.57" transform="translate(1378.087 844.411)" fill="#2e3e5a"/><path d="M438.57,220.376a12.3,12.3,0,1,1-12.3,12.3,12.3,12.3,0,0,1,12.3-12.3" transform="translate(1368.177 833.971)" fill="#313e58"/><path d="M453.287,240.629a6.766,6.766,0,1,1-6.766,6.766,6.766,6.766,0,0,1,6.766-6.766" transform="translate(1353.461 819.373)" fill="#ffd964"/><path d="M458.193,247.381a4.921,4.921,0,1,1-4.921,4.921,4.921,4.921,0,0,1,4.921-4.921" transform="translate(1348.555 814.506)" fill="#788295"/><path d="M468.312,260.883a1.538,1.538,0,1,1-1.538,1.538,1.538,1.538,0,0,1,1.538-1.538" transform="translate(1338.386 804.386)" fill="#313e58"/><path d="M146.3,233.471h73.687s-1.4.485-2.031,6.726c-2.756.182-33.943.061-70.012.545a23.291,23.291,0,0,0-1.644-7.272" transform="translate(1571.619 824.824)" fill="#2e3e5a"/><path d="M585.8,124.141c-1.429,1.258-3.4,3.4-3.4,5.645,0,3.164-.1,13.1-.118,15.056,1.508-.078,2.756-.168,3.542-.27a121.082,121.082,0,0,0-.02-20.431" transform="translate(1254.815 904.269)" fill="#db9400"/><path d="M71.11,75.312,91.835,55.921s1.818-2.182,6.3-2.424,9.7-.485,9.7-.485,2.424.364,2.182,3.393-3.636,16.362-3.636,16.362-.727,4.484-6.423,4.848-27.39,1.7-27.39,1.7-4-.606-1.454-4" transform="translate(1626.872 955.956)" fill="#2e3e5a"/><path d="M17.2,152.592c-.861-.344-5.147.568-7.934,1.22A15.047,15.047,0,0,0,7.013,159.4l-.034,1.3,5.287-1.5s6.226-6.1,4.929-6.615" transform="translate(1672.858 883.65)" fill="#ffab1b"/><path d="M57.256,220.376a12.3,12.3,0,1,1-12.3,12.3,12.3,12.3,0,0,1,12.3-12.3" transform="translate(1645.264 834.339)" fill="#313e58"/><path d="M71.973,240.629a6.766,6.766,0,1,1-6.766,6.766,6.766,6.766,0,0,1,6.766-6.766" transform="translate(1630.546 819.622)" fill="#ffd964"/><path d="M76.879,247.381a4.921,4.921,0,1,1-4.921,4.921,4.921,4.921,0,0,1,4.921-4.921" transform="translate(1625.641 814.716)" fill="#788295"/><path d="M87,260.883a1.538,1.538,0,1,1-1.538,1.538A1.538,1.538,0,0,1,87,260.883" transform="translate(1615.445 804.529)" fill="#313e58"/><path d="M98.137,54.68c-4.484.242-6.3,2.424-6.3,2.424L71.111,76.495c-2.545,3.394,1.454,4,1.454,4s9.734-.6,17.873-1.1L98.877,54.64l-.739.04" transform="translate(1626.872 954.773)" fill="#788295"/><path d="M327.821,74.526h-91.46a.774.774,0,0,1-.718-.82V53.167a.774.774,0,0,1,.718-.82h87.63a2.527,2.527,0,0,1,2.374,2.378L328.533,73.6a.79.79,0,0,1-.712.927" transform="translate(1506.698 956.439)" fill="#ffe491"/><path d="M327.821,75.026h-91.46a1.274,1.274,0,0,1-1.218-1.32V53.167a1.274,1.274,0,0,1,1.218-1.32h87.63a3.031,3.031,0,0,1,2.871,2.821l2.168,18.874a1.386,1.386,0,0,1-.333,1.082A1.165,1.165,0,0,1,327.821,75.026Zm-91.46-22.179c-.1,0-.218.131-.218.32V73.706c0,.189.115.32.218.32h91.46a.18.18,0,0,0,.13-.067.391.391,0,0,0,.086-.3l-2.168-18.874a2.038,2.038,0,0,0-1.877-1.935Z" transform="translate(1506.698 956.439)" fill="#edc95a"/><path d="M327.821,75.526h-91.46a1.773,1.773,0,0,1-1.718-1.82V53.167a1.773,1.773,0,0,1,1.718-1.82h87.63a3.529,3.529,0,0,1,3.367,3.264l2.168,18.874a1.886,1.886,0,0,1-.456,1.472A1.681,1.681,0,0,1,327.821,75.526Zm-91.178-2h90.875l-2.147-18.687a1.544,1.544,0,0,0-1.381-1.492H236.643Z" transform="translate(1506.698 956.439)" fill="#edc95a"/><line x2="130.244" transform="translate(1704.527 1042.963)" fill="#877d00"/><path d="M226.1,177.267H95.854c-.3,0-.547-.422-.547-.942s.245-.942.547-.942H226.1c.3,0,.547.422.547.942s-.245.942-.547.942" transform="translate(1608.674 867.035)" fill="#edc95a"/></g></g></svg>