<svg xmlns="http://www.w3.org/2000/svg" width="192.674" height="192.77" viewBox="0 0 192.674 192.77"><g transform="translate(-379 -175)"><ellipse cx="96.337" cy="96.385" rx="96.337" ry="96.385" transform="translate(379 175)" fill="none"/><path d="M0,0H85.24V117.037H0Z" transform="translate(414.293 238.141) rotate(-16)" fill="#acb1bc"/><path d="M0,0H85.24V117.037H0Z" transform="translate(411.293 236.141) rotate(-16)" fill="#ffe491"/><g transform="translate(-45 -65)"><path d="M59.994,1.5H0A1.5,1.5,0,0,1-1.5,0,1.5,1.5,0,0,1,0-1.5H59.994a1.5,1.5,0,0,1,1.5,1.5A1.5,1.5,0,0,1,59.994,1.5Z" transform="translate(482.792 348.839) rotate(-16)" fill="#7a8293"/><path d="M59.994,1.5H0A1.5,1.5,0,0,1-1.5,0,1.5,1.5,0,0,1,0-1.5H59.994a1.5,1.5,0,0,1,1.5,1.5A1.5,1.5,0,0,1,59.994,1.5Z" transform="translate(485.463 358.152) rotate(-16)" fill="#7a8293"/><path d="M59.994,1.5H0A1.5,1.5,0,0,1-1.5,0,1.5,1.5,0,0,1,0-1.5H59.994a1.5,1.5,0,0,1,1.5,1.5A1.5,1.5,0,0,1,59.994,1.5Z" transform="translate(487.967 366.883) rotate(-16)" fill="#7a8293"/><path d="M37.569,1.5H0A1.5,1.5,0,0,1-1.5,0,1.5,1.5,0,0,1,0-1.5H37.569a1.5,1.5,0,0,1,1.5,1.5A1.5,1.5,0,0,1,37.569,1.5Z" transform="translate(490.637 376.196) rotate(-16)" fill="#7a8293"/><path d="M37.569,1.5H0A1.5,1.5,0,0,1-1.5,0,1.5,1.5,0,0,1,0-1.5H37.569a1.5,1.5,0,0,1,1.5,1.5A1.5,1.5,0,0,1,37.569,1.5Z" transform="translate(493.307 385.509) rotate(-16)" fill="#7a8293"/><path d="M37.569,1.5H0A1.5,1.5,0,0,1-1.5,0,1.5,1.5,0,0,1,0-1.5H37.569a1.5,1.5,0,0,1,1.5,1.5A1.5,1.5,0,0,1,37.569,1.5Z" transform="translate(495.706 393.876) rotate(-16)" fill="#7a8293"/></g><rect width="62.482" height="36.291" rx="2" transform="translate(424.511 242.282) rotate(-16)" fill="#b2cae7"/><path d="M17.388,19A5.49,5.49,0,0,1,15.4,23.423a9.9,9.9,0,0,1-5.577,2v3.55H7.447V25.493A19.255,19.255,0,0,1,.035,24V19.431a19.954,19.954,0,0,0,3.628,1.316,19.412,19.412,0,0,0,3.784.675V16.054l-1.16-.45a12.951,12.951,0,0,1-4.858-2.935A5.642,5.642,0,0,1,0,8.746a5.117,5.117,0,0,1,1.966-4.13A9.991,9.991,0,0,1,7.447,2.65V0H9.82V2.58a19.663,19.663,0,0,1,7.17,1.593L15.362,8.226A18.721,18.721,0,0,0,9.82,6.875v5.109a26.636,26.636,0,0,1,4.806,2.251,6.574,6.574,0,0,1,2.1,2.1A5.2,5.2,0,0,1,17.388,19Zm-5.213.26a1.557,1.557,0,0,0-.589-1.23A7.722,7.722,0,0,0,9.82,16.99V21.3Q12.175,20.9,12.175,19.258ZM5.213,8.746A1.643,1.643,0,0,0,5.741,10a6.272,6.272,0,0,0,1.706,1.013V6.945Q5.213,7.274,5.213,8.746Z" transform="translate(429.976 244.47) rotate(-18)" fill="#7a8293"/><g transform="translate(207.426 -201.876)"><g transform="translate(252.095 455.558) rotate(-93)"><path d="M-1665.144,617.741s-1.131-.145-1.242-.182c-.552-.184.187-.254.371-.807a129.863,129.863,0,0,1,9.251-21.461,87.564,87.564,0,0,1,9.585-14.173,51.49,51.49,0,0,1,8.152-7.92c2.15-1.612,4.051-2.615,5.216-2.751,1.714-.2,2.968,1.522,4.95,3.591a12.306,12.306,0,0,0,2.962,2.177,1.054,1.054,0,0,1-.325,1.455,1.054,1.054,0,0,1-1.455-.325,19.28,19.28,0,0,0-2.1-2.646c-1.45-1.507-2.793-2.273-3.782-2.157-.471.055-1.885.611-4.2,2.344a48.544,48.544,0,0,0-7.8,7.591,85.439,85.439,0,0,0-9.35,13.831,127.752,127.752,0,0,0-9.1,21.112C-1664.161,617.862-1665.144,617.741-1665.144,617.741Z" transform="translate(1666.587 -570.432)" fill="#7a8293"/><path d="M-1664.855,618.756a3.584,3.584,0,0,1-.411-.023,8.921,8.921,0,0,1-1.436-.225,1.153,1.153,0,0,1-.87-.906,1.173,1.173,0,0,1,.529-1.133c.029-.023.071-.054.1-.077a130.814,130.814,0,0,1,9.309-21.582,88.565,88.565,0,0,1,9.7-14.335,52.5,52.5,0,0,1,8.317-8.075c1.344-1.008,3.872-2.73,5.7-2.944a3.334,3.334,0,0,1,.387-.023c1.76,0,3.051,1.392,4.546,3,.273.295.556.6.855.912a10.377,10.377,0,0,0,2.536,1.883,1.273,1.273,0,0,1,.549.451,2.039,2.039,0,0,1,.27,1.548,2.041,2.041,0,0,1-.9,1.286,2.051,2.051,0,0,1-1.1.32,2.045,2.045,0,0,1-1.734-.951,18.329,18.329,0,0,0-1.983-2.491c-.42-.437-1.869-1.862-2.861-1.862a.734.734,0,0,0-.084,0,11.885,11.885,0,0,0-3.713,2.151,47.534,47.534,0,0,0-7.64,7.435,84.437,84.437,0,0,0-9.239,13.669,126.755,126.755,0,0,0-9.025,20.946C-1663.192,618.117-1663.594,618.756-1664.855,618.756Zm-.1-2c.031,0,.072,0,.114,0a128.393,128.393,0,0,1,9.054-20.93,86.436,86.436,0,0,1,9.462-13.993,49.544,49.544,0,0,1,7.97-7.747,12.67,12.67,0,0,1,4.68-2.537,2.839,2.839,0,0,1,.7.007,1.417,1.417,0,0,0-.555-.124,1.339,1.339,0,0,0-.154.009c-.757.089-2.4.807-4.732,2.558a50.486,50.486,0,0,0-7.987,7.764,86.561,86.561,0,0,0-9.474,14.011A128.534,128.534,0,0,0-1664.96,616.753Z" transform="translate(1666.587 -570.432)" fill="#7a8293"/></g><g transform="translate(270.44 388.346) rotate(-7)"><path d="M39.292,45.836c-.446,0-.422-.62-.571-1.046a120.385,120.385,0,0,0-9.2-20.373A82.373,82.373,0,0,0,20.061,11.07a48.181,48.181,0,0,0-7.895-7.326A12.106,12.106,0,0,0,7.921,1.483c-1.006-.112-2.373.635-3.848,2.1A18.585,18.585,0,0,0,1.967,6.118,1.1,1.1,0,0,1,.5,6.432a.99.99,0,0,1-.329-1.4A20.526,20.526,0,0,1,2.534,2.179,6.391,6.391,0,0,1,7.875.066a17.414,17.414,0,0,1,6.152,2.88,41.606,41.606,0,0,1,7.665,6.813,84.408,84.408,0,0,1,9.7,13.677,124.64,124.64,0,0,1,9.457,20.9c.186.533-.751.847-1.134,1.3C39.6,45.667,39.4,45.836,39.292,45.836Z" transform="translate(0 0)" fill="#7a8293"/><path d="M39.292,46.336a.852.852,0,0,1-.774-.475,2.256,2.256,0,0,1-.192-.6,2.743,2.743,0,0,0-.076-.3,119.886,119.886,0,0,0-9.164-20.288,81.873,81.873,0,0,0-9.4-13.266,47.68,47.68,0,0,0-7.811-7.25A12.029,12.029,0,0,0,7.866,1.98a1.334,1.334,0,0,0-.147-.008c-.836,0-2.036.718-3.292,1.969A18.124,18.124,0,0,0,2.384,6.394a1.574,1.574,0,0,1-1.318.7A1.6,1.6,0,0,1,.236,6.86a1.507,1.507,0,0,1-.7-.966A1.469,1.469,0,0,1-.25,4.751,21.147,21.147,0,0,1,2.181,1.825,7.337,7.337,0,0,1,7.216-.5a3.555,3.555,0,0,1,.742.072,17.888,17.888,0,0,1,6.36,2.967,42.185,42.185,0,0,1,7.749,6.889A84.908,84.908,0,0,1,31.82,23.186a125.728,125.728,0,0,1,9.5,20.984c.247.707-.382,1.15-.8,1.443a2.58,2.58,0,0,0-.428.343L40,46.065l-.119.038-.074.045A.976.976,0,0,1,39.292,46.336ZM7.719.972a2.337,2.337,0,0,1,.258.014,12.511,12.511,0,0,1,4.48,2.352,48.683,48.683,0,0,1,7.978,7.4,82.872,82.872,0,0,1,9.517,13.428,120.886,120.886,0,0,1,9.242,20.458,3.5,3.5,0,0,1,.11.42c.013.062.03.14.048.207l.06-.034a3.82,3.82,0,0,1,.532-.423,2.525,2.525,0,0,0,.416-.334,124.691,124.691,0,0,0-9.4-20.776,83.909,83.909,0,0,0-9.637-13.6,41.278,41.278,0,0,0-7.581-6.738A16.955,16.955,0,0,0,7.819.562l-.028,0L7.765.553A2.559,2.559,0,0,0,7.216.5a6.32,6.32,0,0,0-4.33,2.033A20.02,20.02,0,0,0,.582,5.3a.477.477,0,0,0-.071.371A.516.516,0,0,0,.754,6a.6.6,0,0,0,.311.086.577.577,0,0,0,.485-.249,19.131,19.131,0,0,1,2.17-2.609C5.206,1.753,6.589.972,7.719.972Z" transform="translate(0 0)" fill="#7a8293"/></g><g transform="translate(251.586 456.122) rotate(-93)"><path d="M-1664.268,618.163a3.51,3.51,0,0,1-.615-.086,1.054,1.054,0,0,1-.666-1.334,129.858,129.858,0,0,1,9.251-21.461,87.549,87.549,0,0,1,9.585-14.173,51.492,51.492,0,0,1,8.152-7.92c2.15-1.612,4.051-2.615,5.216-2.751,1.714-.2,3.589.747,5.571,2.816a21.1,21.1,0,0,1,2.34,2.952,1.054,1.054,0,0,1-.325,1.455,1.054,1.054,0,0,1-1.455-.326,19.29,19.29,0,0,0-2.1-2.646c-1.45-1.507-2.793-2.273-3.782-2.157-.471.055-1.885.611-4.2,2.344a48.535,48.535,0,0,0-7.8,7.591,85.45,85.45,0,0,0-9.351,13.831,127.764,127.764,0,0,0-9.1,21.112C-1663.957,618.259-1663.737,618.252-1664.268,618.163Z" transform="translate(1665.604 -570.413)" fill="#acb1bc"/><path d="M-1663.99,619.2a2.163,2.163,0,0,1-.378-.042l-.012,0a4.067,4.067,0,0,1-.821-.133,2.057,2.057,0,0,1-1.3-2.6,130.856,130.856,0,0,1,9.324-21.627,88.55,88.55,0,0,1,9.7-14.335,52.5,52.5,0,0,1,8.317-8.075c1.344-1.008,3.872-2.731,5.7-2.944a4.915,4.915,0,0,1,.57-.033c1.872,0,3.837,1.06,5.84,3.15a22.116,22.116,0,0,1,2.463,3.109,2.057,2.057,0,0,1-.634,2.834,2.051,2.051,0,0,1-1.1.32,2.045,2.045,0,0,1-1.736-.954,18.157,18.157,0,0,0-1.981-2.488c-.42-.437-1.868-1.862-2.861-1.862a.734.734,0,0,0-.084,0,11.888,11.888,0,0,0-3.713,2.151,47.531,47.531,0,0,0-7.64,7.436,84.448,84.448,0,0,0-9.24,13.669,126.766,126.766,0,0,0-9.025,20.946l-.02.06-.027.057c-.1.2-.148.337-.191.449A1.211,1.211,0,0,1-1663.99,619.2Zm-.59-2.08.057.01.044-.1a128.718,128.718,0,0,1,9.151-21.219,86.449,86.449,0,0,1,9.462-13.993,49.538,49.538,0,0,1,7.969-7.747,12.671,12.671,0,0,1,4.68-2.537,2.731,2.731,0,0,1,.316-.018c1.257,0,2.745.856,4.3,2.476a20.4,20.4,0,0,1,2.226,2.8.057.057,0,0,0,.049.029.05.05,0,0,0,.028-.009.054.054,0,0,0,.016-.075,20.268,20.268,0,0,0-2.218-2.8c-1.611-1.681-3.09-2.534-4.4-2.534a2.908,2.908,0,0,0-.337.02c-.757.088-2.4.807-4.733,2.558a50.491,50.491,0,0,0-7.987,7.764,86.552,86.552,0,0,0-9.474,14.011,128.858,128.858,0,0,0-9.178,21.3A.054.054,0,0,0-1664.58,617.122Z" transform="translate(1665.604 -570.413)" fill="#acb1bc"/><path d="M2.113.527,4.749,0A2.109,2.109,0,0,1,6.858,2.109V3.69A2.109,2.109,0,0,1,4.749,5.8L2.113,5.271A2.156,2.156,0,0,1,.055,3.622,6.109,6.109,0,0,1,0,2.636,2.109,2.109,0,0,1,2.113.527Z" transform="translate(40.113 2.965) rotate(43)" fill="#313e58"/></g><g transform="translate(265.198 389.507) rotate(-7)"><path d="M38.281,47a127.758,127.758,0,0,0-9.1-21.112,85.453,85.453,0,0,0-9.351-13.831,48.541,48.541,0,0,0-7.8-7.591C9.716,2.731,8.3,2.176,7.831,2.121,6.837,2,5.486,2.779,4.027,4.3A19.114,19.114,0,0,0,1.945,6.924,1.054,1.054,0,0,1,.164,5.794,21.112,21.112,0,0,1,2.5,2.842C4.487.773,6.361-.174,8.076.026c1.165.136,3.066,1.139,5.216,2.751a51.493,51.493,0,0,1,8.152,7.92A87.563,87.563,0,0,1,31.03,24.87a129.874,129.874,0,0,1,9.251,21.461c.184.552.171.6-.381.781C39.789,47.148,38.428,47.44,38.281,47Z" transform="translate(4.793 0)" fill="#acb1bc"/><path d="M38.926,48.24c-1.118,0-1.479-.58-1.594-.925a126.759,126.759,0,0,0-9.025-20.946A84.455,84.455,0,0,0,19.067,12.7a47.537,47.537,0,0,0-7.64-7.436A11.875,11.875,0,0,0,7.714,3.114a.729.729,0,0,0-.083,0c-.253,0-1.207.136-2.882,1.883A18.226,18.226,0,0,0,2.789,7.46,2.054,2.054,0,0,1-.68,5.259,21.9,21.9,0,0,1,1.783,2.15C3.785.06,5.75-1,7.622-1a4.923,4.923,0,0,1,.57.033c.785.092,2.569.6,5.7,2.944a52.5,52.5,0,0,1,8.317,8.075,88.562,88.562,0,0,1,9.7,14.335,130.874,130.874,0,0,1,9.324,21.627,1.611,1.611,0,0,1,.039,1.277,1.586,1.586,0,0,1-1.052.769A5.2,5.2,0,0,1,38.926,48.24ZM7.631,1.109a2.737,2.737,0,0,1,.316.018,12.67,12.67,0,0,1,4.68,2.537A49.545,49.545,0,0,1,20.6,11.411,86.451,86.451,0,0,1,30.059,25.4a128.309,128.309,0,0,1,9.02,20.829l.111-.01a128.453,128.453,0,0,0-9.036-20.871,86.565,86.565,0,0,0-9.474-14.01,50.49,50.49,0,0,0-7.987-7.764C10.357,1.826,8.717,1.108,7.96,1.02A2.917,2.917,0,0,0,7.622,1c-1.306,0-2.785.853-4.4,2.534a20.063,20.063,0,0,0-2.219,2.8.054.054,0,0,0,.017.074.05.05,0,0,0,.028.009A.054.054,0,0,0,1.1,6.388,20.275,20.275,0,0,1,3.305,3.609C4.872,1.974,6.368,1.109,7.631,1.109Z" transform="translate(4.793 0)" fill="#acb1bc"/><path d="M2.113,5.271,4.749,5.8A2.109,2.109,0,0,0,6.858,3.69V2.109A2.109,2.109,0,0,0,4.749,0L2.113.527A2.156,2.156,0,0,0,.055,2.176,4.788,4.788,0,0,0,0,3.163,2.109,2.109,0,0,0,2.113,5.271Z" transform="translate(8.97 7.206) rotate(137)" fill="#313e58"/></g><path d="M-11885.39-7510.966l.277-3.153c.372.033,36.558,2.941,41.271-17.193-6.192,3.594-14.059,5.983-22.282,2.9-4.391-1.348-9.715-5.223-11.5-10.777-.931-2.9-1.237-7.409,2.61-12.477,4.2-5.536,14.13-7.034,22.6-3.407a19.454,19.454,0,0,1,12.266,17.447,47.143,47.143,0,0,0,6.592-6.4c4-5.378,5.343-10.6,3.977-15.481-1.444-5.175-6.554-8.973-11.517-11.571a27.609,27.609,0,0,0-8.377-2.079c-6.8,3.974-13.873-.744-16.855-2.732l-.88-.579c-2.216-1.387-6.437-2.121-7.856-2.181l.54-2.878c.244.009,5.607.259,8.993,2.377l.957.629c5.584,3.723,11.481,6.264,16.775-.3,1.906-2.359,2.682-4.689,2.3-6.923-.686-4.039-4.8-6.637-4.841-6.661-.82-.528-7.9-5.175-9.336-9.992l3.03-.9c.937,3.135,6.088,7,7.994,8.221.2.122,5.352,3.379,6.272,8.805a10.319,10.319,0,0,1,.126,1.151,10.393,10.393,0,0,1-.761,4.419,46.708,46.708,0,0,1,4.823,6.194c4.238,3.66,9.936,8.006,11.65,14.136a17.128,17.128,0,0,1,.621,3.755c.25,4.722-1.468,9.584-5.125,14.506a51.232,51.232,0,0,1-9.217,8.477c-.054.516-.122,1.035-.209,1.56-3.072,19.068-27.725,21.315-39.172,21.315C-11882.854-7510.758-11885.023-7510.934-11885.39-7510.966Zm12.889-38.792c-2.426,3.2-3.139,6.425-2.115,9.6,1.432,4.444,5.936,7.654,9.513,8.754,8.155,3.061,15.987-.027,21.8-3.914a16.552,16.552,0,0,0-10.363-16.847,21.508,21.508,0,0,0-8.378-1.719C-11866.464-7553.888-11870.459-7552.446-11872.5-7549.758Z" transform="translate(12173.07 8032.156)" fill="#313e58"/><path d="M-11879.644-7509.758c-3.256,0-5.431-.177-5.834-.212l-1-.087.453-5.146,1,.088c.018,0,1.917.16,4.933.16,5.34,0,13.191-.485,20.268-2.8,7.425-2.424,12.222-6.291,14.3-11.514a28.6,28.6,0,0,1-12.8,3.271,23.106,23.106,0,0,1-8.122-1.475c-4.679-1.446-10.237-5.532-12.134-11.417-1-3.124-1.338-7.982,2.766-13.388a13.844,13.844,0,0,1,5.891-4.325,21.294,21.294,0,0,1,7.915-1.454,25.585,25.585,0,0,1,9.985,2.057,21.129,21.129,0,0,1,9.208,7.3,20.42,20.42,0,0,1,3.481,9.076,45.028,45.028,0,0,0,4.984-5.025c3.8-5.122,5.081-10.033,3.8-14.6a13.787,13.787,0,0,0-4.154-6.287,31.926,31.926,0,0,0-6.824-4.647,26.878,26.878,0,0,0-7.729-1.962,12.092,12.092,0,0,1-5.907,1.521c-5.059,0-9.56-3-11.723-4.442l-.869-.571a19.95,19.95,0,0,0-7.358-2.023l-1.154-.048.912-4.859.86.031a26.951,26.951,0,0,1,3.463.414,17.3,17.3,0,0,1,6.024,2.116l.02.012.962.633c4.766,3.177,7.224,3.585,8.833,3.585,2.451,0,4.613-1.2,6.609-3.676,1.719-2.128,2.424-4.189,2.095-6.128-.592-3.489-4.154-5.832-4.368-5.969l-.027-.018c-1.364-.878-8.248-5.513-9.753-10.546l-.287-.959,4.947-1.476.286.958a11.484,11.484,0,0,0,3.353,4.377,33.909,33.909,0,0,0,4.216,3.283,16.721,16.721,0,0,1,3.06,2.573,13.483,13.483,0,0,1,3.667,6.912v.007a11.271,11.271,0,0,1,.138,1.263,11.277,11.277,0,0,1-.612,4.246,47.9,47.9,0,0,1,4.442,5.756c.372.321.752.644,1.151.984a60.966,60.966,0,0,1,6.224,5.836,19.65,19.65,0,0,1,4.472,7.706,18.243,18.243,0,0,1,.657,3.972c.262,4.952-1.528,10.051-5.321,15.155h0a51.793,51.793,0,0,1-9.075,8.432c-.048.4-.1.792-.167,1.173a21.156,21.156,0,0,1-6.09,11.922,30.4,30.4,0,0,1-11,6.661C-11864.561-7510.377-11873.528-7509.758-11879.644-7509.758Zm-4.661-2.133c.978.06,2.606.133,4.661.133,5.952,0,14.667-.6,22.38-3.445,9.215-3.4,14.532-9.131,15.8-17.029.082-.494.147-.985.2-1.5l.046-.447.365-.262a50.234,50.234,0,0,0,9-8.269c3.5-4.718,5.16-9.377,4.923-13.849a16.15,16.15,0,0,0-.585-3.537,17.712,17.712,0,0,0-4.043-6.92,59.311,59.311,0,0,0-6.022-5.639c-.443-.377-.861-.733-1.275-1.091l-.114-.1-.08-.127a46.66,46.66,0,0,0-4.713-6.049l-.424-.462.231-.583a9.428,9.428,0,0,0,.691-4,9.265,9.265,0,0,0-.113-1.04c-.856-5.035-5.758-8.085-5.807-8.116l-.02-.012a36.137,36.137,0,0,1-4.5-3.5,15.671,15.671,0,0,1-3.546-4.344l-1.123.335a17.316,17.316,0,0,0,4.248,5.208,36.755,36.755,0,0,0,4.311,3.293h0a13.885,13.885,0,0,1,2.356,1.97,10.378,10.378,0,0,1,2.93,5.363c.429,2.529-.416,5.126-2.511,7.719a12.8,12.8,0,0,1-3.949,3.383,9.02,9.02,0,0,1-4.217,1.037,12.785,12.785,0,0,1-5.105-1.188,31.042,31.042,0,0,1-4.834-2.731l-.945-.622a19.375,19.375,0,0,0-7.634-2.162l-.176.935a20.465,20.465,0,0,1,7.2,2.219l.02.012.885.582a32.684,32.684,0,0,0,4.474,2.6,14.8,14.8,0,0,0,6.144,1.508,10.133,10.133,0,0,0,5.179-1.408l.271-.159.313.025a28.733,28.733,0,0,1,8.682,2.153l.04.017.039.021c6.694,3.5,10.737,7.6,12.016,12.188a15.383,15.383,0,0,1,.028,8.073,24.169,24.169,0,0,1-4.165,8.274l-.022.029a48.483,48.483,0,0,1-6.746,6.552l-1.52,1.221-.105-1.947a18.876,18.876,0,0,0-3.3-9.97,19.151,19.151,0,0,0-8.355-6.611,23.569,23.569,0,0,0-9.2-1.9c-5.276,0-9.842,1.865-12.212,4.988a14.058,14.058,0,0,0-2.9,6.583,11.245,11.245,0,0,0,.448,4.984,14.817,14.817,0,0,0,4.481,6.517,18.027,18.027,0,0,0,6.365,3.609l.058.02a21.108,21.108,0,0,0,7.447,1.357,27.953,27.953,0,0,0,13.981-4.182l2-1.163-.528,2.256a18.082,18.082,0,0,1-6.095,9.808,30.15,30.15,0,0,1-10.24,5.426c-7.327,2.393-15.4,2.895-20.889,2.895-1.808,0-3.23-.056-4.11-.1Zm26.033-17.274h0a20.393,20.393,0,0,1-7.154-1.3,17.153,17.153,0,0,1-5.887-3.31,13.668,13.668,0,0,1-4.255-6.085,10.042,10.042,0,0,1-.26-5.31,13.489,13.489,0,0,1,2.53-5.2,10.794,10.794,0,0,1,4.773-3.4,18.233,18.233,0,0,1,6.482-1.124h0a22.476,22.476,0,0,1,8.771,1.8,17.56,17.56,0,0,1,10.969,17.818l-.026.5-.417.279C-11848.031-7530.957-11853.256-7529.165-11858.271-7529.165Zm-3.771-23.722c-4.274,0-7.887,1.4-9.663,3.734a11.509,11.509,0,0,0-2.171,4.418,8.066,8.066,0,0,0,.212,4.266,11.677,11.677,0,0,0,3.648,5.178,15.334,15.334,0,0,0,5.206,2.928l.058.02a18.4,18.4,0,0,0,6.479,1.179h0c4.481,0,9.188-1.584,13.994-4.709a15.544,15.544,0,0,0-3.468-10.76,17.009,17.009,0,0,0-6.311-4.615,20.468,20.468,0,0,0-7.984-1.638Z" transform="translate(12173.07 8032.156)" fill="#313e58"/><g transform="translate(-0.709 -1.709)"><circle cx="9.109" cy="9.109" r="9.109" transform="translate(272.103 529.523) rotate(-93)" fill="#acb1bc"/><circle cx="7.401" cy="7.401" r="7.401" transform="translate(273.719 527.728) rotate(-93)" fill="#313e58"/><circle cx="5.693" cy="5.693" r="5.693" transform="translate(275.335 525.933) rotate(-93)" fill="#e4e6ea"/><path d="M5.124,0A5.124,5.124,0,1,1,0,5.124,5.124,5.124,0,0,1,5.124,0Z" transform="translate(275.874 525.335) rotate(-93)" fill="#acb1bc"/></g></g></g></svg>