<svg xmlns="http://www.w3.org/2000/svg" width="192.674" height="192.674" viewBox="0 0 192.674 192.674"><g transform="translate(-2316.323 -944)"><circle cx="96.337" cy="96.337" r="96.337" transform="translate(2316.323 944)" fill="none"/><path d="M-1739.435,1964.583l-28.411,1.1a17.3,17.3,0,0,0-9.355,6.723c-3.349,5.2,0,32.706,0,32.706s2.281,2.908,3.959,2.983c1.39.062,47.019.021,62.689.005l5.2-.005h28.946l-2.375-24.907-13.358-3.156-2.675-6.59h-32.035Z" transform="translate(4112.488 -927.189)" fill="#ffd964"/><path d="M23.69,43.541c-11.678,0-17.851-.011-18.346-.033a2.833,2.833,0,0,1-1.327-.5,8.574,8.574,0,0,1-1.282-1.022,15.053,15.053,0,0,1-1.35-1.464v0c-.028-.228-.277-2.315-.565-5.354C.542,32.242.175,27.831,0,23.447a24.162,24.162,0,0,0,4.124,2.1,4.587,4.587,0,0,0,1.032.085c.375,0,.851-.016,1.454-.036l.9-.029c.925-.028,2.389-.065,4.409-.065,1.3,0,2.7.015,4.176.046a17.421,17.421,0,0,1,4.121.731A13.622,13.622,0,0,1,23.49,27.8a12.936,12.936,0,0,1,2.53,2.123A14.577,14.577,0,0,1,27.9,32.475a20.141,20.141,0,0,1,2.166,5.715,29.984,29.984,0,0,1,.681,5.351Zm44.518-.028h0c.76-3.043,1.715-6.821,1.954-7.544.413-1.252,1.338-9.757,1.347-9.843l-.015,0c-1.185.1-11.744.957-17.4.957-.283,0-.552,0-.8-.006.084-.307-29.222-22.7-29.518-22.93L26.754.479,39.15,0,51.732,8.856H83.767l2.675,6.59L99.8,18.6l2.375,24.907H73.229Z" transform="translate(2333.904 1037.394)" fill="#7a8293"/><path d="M-1668.6,1967.235l18.465-.526s14.158,5.281,14.641,12.555c.014.214-1.52,1.538-5.647,5.979a7.242,7.242,0,0,1-8.994,1.5l-15.756-13.709-2.709-5.8Z" transform="translate(4025.395 -930.259)" fill="#313e58"/><path d="M.319,23.859S.081,15.2.5,11.428c.477-4.31,1.02-8.055,1.318-9.418.71-3.249,4.9-1.856,4.852-.123-.1,3.933-4.135,22.1-4.135,22.1Z" transform="matrix(0.934, -0.358, 0.358, 0.934, 2385.102, 1040.065)" fill="#b28b67"/><path d="M.453,23.386A104.235,104.235,0,0,1,.745,10.457C1.269,6.541,1.856,3.136,2.172,1.9,2.925-1.061,7.2.141,7.136,1.713,7,5.282,2.912,22.23,2.692,23.3S.518,24.722.453,23.386Z" transform="translate(2385.596 1044.136) rotate(-41)" fill="#b28b67"/><g transform="translate(2392.542 1060.436) rotate(-11)"><path d="M.82.944A.356.356,0,0,0,.368,1.2L.018,2.465A12.724,12.724,0,0,0,.156,3.94L10.008,3.8s.4-1.365-.424-1.462-1.372-.176-1.372-.176L3.662.04a.175.175,0,0,0-.234.1l-.3.769a3.862,3.862,0,0,1-1.25.4Z" transform="translate(0 0)" fill="#7468b4"/></g><g transform="matrix(0.839, -0.545, 0.545, 0.839, 2399.492, 1059.963)"><path d="M.894,1.023a.379.379,0,0,0-.465.263L.047,2.533A11.893,11.893,0,0,0,.16,3.977l10.048-.345s.436-1.348-.4-1.425-1.4-.144-1.4-.144L3.809.077a.187.187,0,0,0-.241.106L3.243.944a4.19,4.19,0,0,1-1.282.419Z" transform="translate(0 0)" fill="#7468b4"/></g><g transform="translate(2369.725 997.3)"><g transform="translate(0.506 0.544)"><path d="M0,18.51,1.939,8.745A7.2,7.2,0,0,1,.248,3.81C.6-1.616,7.594-.423,8.954,2.316s1.2,9.686-.559,10.175c-.7.2-2.195-.283-3.715-1.273l.954,7.292Z" transform="translate(0 0)" fill="#b28b67"/></g><path d="M2.338,9.527h0a1.364,1.364,0,0,1-.792-.519,5.272,5.272,0,0,1-.756-1.2A8.1,8.1,0,0,1,0,4.513,4.311,4.311,0,0,1,1.317,1.349,5.417,5.417,0,0,1,5.144,0,7.429,7.429,0,0,1,7.063.226,3.986,3.986,0,0,1,8.355.812a2.231,2.231,0,0,1,1,1.695,24.541,24.541,0,0,1-6.1.5l-.685,0v.251l2.806.251.468,1.5c-.036,0-.072,0-.11,0a1.366,1.366,0,0,0-.9.351,3.238,3.238,0,0,0-.689.873,1.073,1.073,0,0,0-.638-.217,1.115,1.115,0,0,0-.827.388,1.31,1.31,0,0,0-.342.865,1.52,1.52,0,0,0,.708,1.391c-.26.545-.478.812-.708.866Z" transform="translate(0 0)" fill="#313e58"/></g><path d="M.374,0,6.813,2.728a14.022,14.022,0,0,1,4.045.547c.288.161.683.541-.293.733s-1.994.44-2.037.829.642.646.5,1.2q-.146.55-3.122-1.666L-.009,3.5Z" transform="translate(2378.916 1026.049) rotate(4)" fill="#997659"/><path d="M.881.66a15.073,15.073,0,0,0,8.5-.835l.892,2.928C7.875,4.439,4.65,5.581,2.022,5-.048,4.535-.807,1.845.881.66Z" transform="translate(2377.999 1021.952) rotate(45)" fill="#7468b4"/><g transform="translate(2419.992 991.273)"><path d="M-1283.354,1753c.447,1.073,0,70.438,0,70.438s-.908,3.475,2.8,3.475H-1231s-47.453-.634-48.436-2.715S-1283.354,1753-1283.354,1753Z" transform="translate(1304.594 -1750.199)" fill="#313e58"/><path d="M-1283.353,1751a2,2,0,0,1,1.846,1.232,4.073,4.073,0,0,1,.219,1.488c.02.468.037,1.132.053,1.975.273,6.288.986,22.471,1.742,37.5,1.054,20.949,1.586,27.546,1.831,29.587a67.325,67.325,0,0,0,8.047.85c4.147.282,9.617.537,16.259.758,11.331.377,22.276.526,22.385.527a2,2,0,0,1,1.973,2.013,2,2,0,0,1-2,1.987h-49.551a4.74,4.74,0,0,1-3.988-1.713,5.125,5.125,0,0,1-.816-3.973c.023-3.623.34-54.894.118-67.41-.076-1.744-.118-2.733-.118-2.733a2,2,0,0,1,1.565-2.037A2,2,0,0,1-1283.353,1751Z" transform="translate(1304.594 -1750.199)" fill="#313e58"/><path d="M-1282.265,1867.777c.447,1.161-1.089,49.426-1.089,49.426s-.908,3.761,2.8,3.761H-1231l-42.245-1.689s-5.978-.76-6.191-1.248C-1280.418,1915.773-1282.265,1867.777-1282.265,1867.777Z" transform="translate(1302.091 -1848.543)" fill="#313e58"/><path d="M-1282.264,1865.777a2,2,0,0,1,1.866,1.282,7.634,7.634,0,0,1,.214,2.72c.175,4.4.636,15.675,1.158,26.171.293,5.885.563,10.671.8,14.224.246,3.654.425,5.466.538,6.362,1.073.232,2.98.534,4.61.744l42.158,1.686A2,2,0,0,1-1229,1921a2,2,0,0,1-2,1.96h-49.551a4.706,4.706,0,0,1-3.914-1.693,5.562,5.562,0,0,1-.884-4.3c.087-2.741,1.2-38.136,1.164-47.106-.051-1.285-.079-2.014-.079-2.014a2,2,0,0,1,1.6-2.036A2,2,0,0,1-1282.264,1865.777Zm1.005,53.068-.008-.018a2.777,2.777,0,0,1-.181-.548,1.022,1.022,0,0,0,.129.519A.205.205,0,0,0-1281.259,1918.844Z" transform="translate(1302.091 -1848.543)" fill="#313e58"/><rect width="13.221" height="90.56" rx="4" transform="translate(8.019)" fill="#7a8293"/><rect width="89.159" height="2.601" rx="1.3" transform="translate(18.639 90.56) rotate(-90)" fill="#313e58"/><rect width="21.673" height="2.801" rx="1.4" transform="translate(0)" fill="#313e58"/></g><g transform="translate(0 -3.604)"><circle cx="15" cy="15" r="15" transform="translate(2407.855 1063.399)" fill="#313e58"/><circle cx="8" cy="8" r="8" transform="translate(2414.902 1070.242)" fill="#ffd964"/></g><g transform="translate(2338.066 1066.796)"><circle cx="11.5" cy="11.5" r="11.5" transform="translate(0)" fill="#313e58"/><ellipse cx="5.549" cy="5.39" rx="5.549" ry="5.39" transform="translate(5.951 6.109)" fill="#ffd964"/></g><path d="M8.442.158c3.539,0,6.237.686,6.2,1.636-.037,1.04-3.336,2-7.368,2.149S.006,3.366.043,2.326,3.379.324,7.411.177C7.761.165,8.105.158,8.442.158Z" transform="translate(2393.521 1031.127) rotate(-39)" fill="#313e58"/><path d="M2.574.048A2.175,2.175,0,0,1,4.825,2.359L4.752,4.493A2.572,2.572,0,0,1,2.337,6.968,2.175,2.175,0,0,1,.086,4.657L.159,2.523A2.572,2.572,0,0,1,2.574.048Z" transform="matrix(0.819, -0.574, 0.574, 0.819, 2400.024, 1030.193)" fill="#313e58"/><path d="M2.225.3,7.114.126a1.036,1.036,0,0,1,1.072,1.1L7.495,21.364c-.022.629-.934,2.188-1.547,2.21l-4.491-.859a1.036,1.036,0,0,1-1.072-1.1L1.075,1.476A1.225,1.225,0,0,1,2.225.3Z" transform="matrix(0.819, -0.574, 0.574, 0.819, 2399.841, 1034.259)" fill="#313e58"/><path d="M41.542,73.816c-1.988-.055-4.463-.124-7.719-.035a2.022,2.022,0,0,1-.7-.105c-2.452-.826-10.312-6.551-23.059-16.161-2.464-1.858-4.336-3.27-5.03-3.752C1.175,51.089-.048,47.634,0,39.544c.048-8,1.781-36.17,1.855-37.365A2.229,2.229,0,0,1,4.163.005a2.036,2.036,0,0,1,.422.075h33.8a10.429,10.429,0,0,1,10.5,6.352C51.341,11.968,60.2,36.191,62.766,43.225a2.307,2.307,0,0,1,.973,1.351L67.5,58.424a2.474,2.474,0,0,1-.408,2.14,2.1,2.1,0,0,1-1.873.839c-.307-.026-7.975-.547-14.208,9.332-1.694,2.684-3.756,3.128-7.052,3.128C43.22,73.862,42.417,73.84,41.542,73.816Zm.112-4.666c4.75.133,5.114.007,5.774-1.038,5.224-8.279,11.5-10.574,15.153-11.179l-3-11.046a2.46,2.46,0,0,1,.529-2.286C57.294,35.89,48.855,12.861,46.541,7.639a7.974,7.974,0,0,0-8-4.768L6.158,2.881c-.214,3.5-1.777,29.334-1.822,36.694C4.29,47.148,5.455,48.5,7.378,49.837c.714.495,2.639,1.944,5.171,3.853C18.2,57.951,31.169,67.728,34.132,69.1c1.012-.024,1.947-.034,2.814-.034C38.788,69.07,40.327,69.113,41.654,69.15Z" transform="translate(2355.388 993.014)" fill="#313e58"/><path d="M-1968.8,3007.421c-.089-.533-1.927-12.819,7.472-21.649,9.428-8.857,19.19-5.154,19.6-4.991v3.418c-.047-.018-1.284-.443-1.667-.553-1.957-.563-9.005-1.929-15.938,4.585-7.077,6.648-6.68,15.834-6.416,18.388.029.282-.009.744,0,.8Z" transform="translate(4370.496 -1926.527)" fill="#ffd964"/><path d="M11.558,30.7l-.5-16.407L.009.705C.736-2.573,11.78,6.617,19.222,10.735c4.158,7.215-2.859,18.659-2.889,19.842Z" transform="matrix(0.934, -0.358, 0.358, 0.934, 2370.374, 1035.261)" fill="#708daf"/><path d="M-.034,3.767,2.608,2.25S3.131-.02,3.911-.021c.4-.191-.268,1.717.488,1.564S6.98-.045,7.3.259c.479.45.081,1.8-.4,2.462-.9,1.243-1.665,1.66-3.55,2.19A11.817,11.817,0,0,0,.166,6.627Z" transform="translate(2391.789 1029.974) rotate(14)" fill="#997659"/><path d="M2.008,1.828s3.449,8.615,6.767,9.884,14.057-1.32,14.057-1.32,1.494,3.663,1.376,5.521C5.6,26.049-4.13,12.745,1.549-.013Z" transform="translate(2372.615 1014.968) rotate(14)" fill="#9183d8"/><path d="M37.357,19.551s-5.485,3.958-6.988,2.365-6.513-12.932-6.815-13.1-12.376,1.3-16,1.3C2.335,10.114.175,6.569,0,0H10.344c2.106.243,13.092,2.629,17.172,3.449C29.263,3.8,37.359,18.454,37.357,19.551Z" transform="translate(2365.104 1036.421)" fill="#96b7df"/><path d="M.566,26.373c3.148-.667,12.51,2.723,14.109-.938C17.838,18.194,11.969,8.173,11.378,0H6.545c-.53,0-4.132,7.435-4.135,12.266C2.406,16.677-1.405,19.479.566,26.373Z" transform="translate(2364.434 1011.56)" fill="#9183d8"/><path d="M0,0H36.721V35.79H0Z" transform="translate(2485.691 1066.92) rotate(180)" fill="#ffe491"/><path d="M.52,19.9a.485.485,0,0,0,.52-.44V.44A.485.485,0,0,0,.52,0,.485.485,0,0,0,0,.44V19.459a.485.485,0,0,0,.52.44" transform="translate(2468.078 1059.14) rotate(180)" fill="#313e58"/><rect width="8.737" height="9.408" transform="translate(2471.972 1066.921) rotate(180)" fill="#edc95a"/><rect width="8.737" height="9.408" transform="translate(2471.972 1040.439) rotate(180)" fill="#edc95a"/><path d="M0,0H36.721V35.79H0Z" transform="translate(2485.691 1028.772) rotate(180)" fill="#ffe491"/><path d="M.52,19.9a.485.485,0,0,0,.52-.44V.44A.485.485,0,0,0,.52,0,.485.485,0,0,0,0,.44V19.459a.485.485,0,0,0,.52.44" transform="translate(2468.078 1020.992) rotate(180)" fill="#313e58"/><rect width="8.737" height="9.408" transform="translate(2471.972 1028.773) rotate(180)" fill="#edc95a"/><rect width="8.737" height="9.408" transform="translate(2471.972 1002.292) rotate(180)" fill="#edc95a"/></g></svg>