<svg xmlns="http://www.w3.org/2000/svg" width="192.674" height="192.674" viewBox="0 0 192.674 192.674"><g transform="translate(-2316.323 -947.204)"><circle cx="96.337" cy="96.337" r="96.337" transform="translate(2316.323 947.204)" fill="#fff"/><g transform="translate(2338.588 1033.411)"><path d="M.1,3.523,10.408.016a.147.147,0,0,1,.046-.008L29.092,0a.143.143,0,0,1,.1.042.142.142,0,0,1,.042.1l-.083,42.613a.141.141,0,0,1-.052.109c-1.591,1.312-5.792,4.829-6.123,5.349a.144.144,0,0,1-.122.066.133.133,0,0,1-.04-.006.143.143,0,0,1-.1-.137L22.753,3.8H.144A.143.143,0,0,1,.1,3.523" transform="translate(0.029 -0.001)" fill="#cc7a29"/><path d="M16.5,9.05H38.82a.383.383,0,0,1,.383.383V53.576a.383.383,0,0,1-.383.383H16.5a.383.383,0,0,1-.383-.383V9.433A.383.383,0,0,1,16.5,9.05" transform="translate(-16.119 -5.581)" fill="#f1b981"/><rect width="16.246" height="18.846" transform="translate(3.42 8.666)" fill="#ffd964"/></g><g transform="translate(2367.853 1029.448)"><path d="M.1,3.523,12.611-3.959c.015,0,1.368,0,1.384,0L29.092,0a.143.143,0,0,1,.1.042.142.142,0,0,1,.042.1l-.083,42.613a.141.141,0,0,1-.052.109c-1.591,1.312-5.792,4.829-6.123,5.349a.144.144,0,0,1-.122.066.133.133,0,0,1-.04-.006.143.143,0,0,1-.1-.137L22.753,3.8H.144A.143.143,0,0,1,.1,3.523" transform="translate(0.029 3.961)" fill="#cc7a29"/><path d="M16.5,9.05H38.82a.383.383,0,0,1,.383.383V53.576a.383.383,0,0,1-.383.383H16.5a.383.383,0,0,1-.383-.383V9.433A.383.383,0,0,1,16.5,9.05" transform="translate(-16.119 -1.618)" fill="#f1b981"/><rect width="16.246" height="18.846" transform="translate(3.42 12.628)" fill="#ffd964"/></g><g transform="translate(2352.848 986.984)"><path d="M.1,3.523,10.408.016a.147.147,0,0,1,.046-.008L29.092,0a.143.143,0,0,1,.1.042.142.142,0,0,1,.042.1l-.083,42.613a.141.141,0,0,1-.052.109c-1.591,1.312-5.792,4.829-6.123,5.349a.144.144,0,0,1-.122.066.133.133,0,0,1-.04-.006.143.143,0,0,1-.1-.137L22.753,3.8H.144A.143.143,0,0,1,.1,3.523" transform="translate(0.029 -0.001)" fill="#cc7a29"/><path d="M16.5,9.05H38.82a.383.383,0,0,1,.383.383V53.576a.383.383,0,0,1-.383.383H16.5a.383.383,0,0,1-.383-.383V9.433A.383.383,0,0,1,16.5,9.05" transform="translate(-16.119 -5.581)" fill="#f1b981"/><rect width="16.246" height="18.846" transform="translate(3.42 8.666)" fill="#ffd964"/></g><g transform="translate(2382.114 986.984)"><path d="M.1,3.523,10.408.016a.147.147,0,0,1,.046-.008L29.092,0a.143.143,0,0,1,.1.042.142.142,0,0,1,.042.1l-.083,42.613a.141.141,0,0,1-.052.109c-1.591,1.312-5.792,4.829-6.123,5.349a.144.144,0,0,1-.122.066.133.133,0,0,1-.04-.006.143.143,0,0,1-.1-.137L22.753,3.8H.144A.143.143,0,0,1,.1,3.523" transform="translate(0.029 -0.001)" fill="#cc7a29"/><path d="M16.5,9.05H38.82a.383.383,0,0,1,.383.383V53.576a.383.383,0,0,1-.383.383H16.5a.383.383,0,0,1-.383-.383V9.433A.383.383,0,0,1,16.5,9.05" transform="translate(-16.119 -5.581)" fill="#f1b981"/><rect width="16.246" height="18.846" transform="translate(3.42 8.666)" fill="#ffd964"/></g><rect width="86.429" height="120.4" transform="translate(2410.344 977.934) rotate(18)" fill="#96b7df"/><rect width="75.098" height="104.615" transform="translate(2413.626 990.342) rotate(18)" fill="#7a8293"/><rect width="75.098" height="104.615" transform="translate(2412.469 988.074) rotate(18)" fill="#fff"/><path d="M0,3.15a1,1,0,0,1-.375-.073,1,1,0,0,1-.551-1.3l.871-2.15A1,1,0,0,1,.871-1H42.457a1,1,0,0,1,.976.78l.436,1.935a1,1,0,1,1-1.951.439L41.657,1H1.545L.927,2.525A1,1,0,0,1,0,3.15Z" transform="translate(2429.43 990.855) rotate(18)" fill="#e4e6ea"/><path d="M22.468,8.418a12.18,12.18,0,0,1-5.773-1.247A6.6,6.6,0,0,1,15.263,6.16H0a1,1,0,0,1-1-1V.323a1,1,0,0,1,1-1,1,1,0,0,1,1,1V4.16H15.695a.94.94,0,0,1,.8.4,4.166,4.166,0,0,0,1.274.916,10.361,10.361,0,0,0,4.7.943,8.357,8.357,0,0,0,4.214-.865,2.36,2.36,0,0,0,.885-.784.91.91,0,0,1,.921-.608H42V0a1,1,0,1,1,2,0V5.16a1,1,0,0,1-1,1H29.03C28.347,7.018,26.6,8.418,22.468,8.418Z" transform="translate(2428.23 994.196) rotate(18)" fill="#313e58"/><g transform="matrix(0.766, 0.643, -0.643, 0.766, 2422.972, 999.934)"><path d="M0,0H12.554V12.554H0Z" transform="translate(0 13.913) rotate(-22)" fill="#e4e6ea"/><rect width="12.554" height="12.554" transform="translate(7.838 33.312) rotate(-22)" fill="#e4e6ea"/><rect width="12.554" height="12.554" transform="translate(15.676 52.712) rotate(-22)" fill="#e4e6ea"/><rect width="12.554" height="11.159" transform="translate(24.037 73.405) rotate(-22)" fill="#e4e6ea"/><path d="M31.924,1H0A1,1,0,0,1-1,0,1,1,0,0,1,0-1H31.924a1,1,0,0,1,1,1A1,1,0,0,1,31.924,1Z" transform="translate(23.739 11.959) rotate(-22)" fill="#7a8293"/><path d="M31.924,1H0A1,1,0,0,1-1,0,1,1,0,0,1,0-1H31.924a1,1,0,0,1,1,1A1,1,0,0,1,31.924,1Z" transform="translate(31.469 31.09) rotate(-22)" fill="#7a8293"/><path d="M31.924,1H0A1,1,0,0,1-1,0,1,1,0,0,1,0-1H31.924a1,1,0,0,1,1,1A1,1,0,0,1,31.924,1Z" transform="translate(39.198 50.222) rotate(-22)" fill="#7a8293"/><path d="M31.924,1H0A1,1,0,0,1-1,0,1,1,0,0,1,0-1H31.924a1,1,0,0,1,1,1A1,1,0,0,1,31.924,1Z" transform="translate(46.927 69.353) rotate(-22)" fill="#7a8293"/><g transform="translate(0.991 11.066) rotate(-22)"><path d="M0,7.758,1.845,5.737,5.1,9.248,13.7,0l1.861,1.99L5.1,13.246Z" transform="translate(0 0)" fill="#e88a2d"/></g><g transform="translate(9.274 30.278) rotate(-22)"><path d="M0,7.758,1.845,5.737,5.1,9.248,13.7,0l1.861,1.99L5.1,13.246Z" transform="translate(0 0)" fill="#e88a2d"/></g></g></g></svg>