<svg xmlns="http://www.w3.org/2000/svg" width="192.674" height="192.674" viewBox="0 0 192.674 192.674"><g transform="translate(-2039 -704.269)"><circle cx="96.337" cy="96.337" r="96.337" transform="translate(2039 704.269)" fill="none"/><path d="M204.181,128.276V55.247c0-4.311-3.149-7.807-7.036-7.807H77.8c-3.886,0-7.036,3.5-7.036,7.807v73.03" transform="translate(1998.527 699.849)" fill="#acb1bc"/><path d="M195.2,119.132V54.256a1.31,1.31,0,0,0-1.3-1.318H78.117a1.31,1.31,0,0,0-1.3,1.318v64.876" transform="translate(1999.99 701.179)" fill="#fff"/><path d="M125.956,61.579a1.3,1.3,0,0,0-1.3,1.3v44.994a1.3,1.3,0,0,0,1.3,1.3H172.73a1.3,1.3,0,0,0,1.3-1.3V62.88a1.3,1.3,0,0,0-1.3-1.3Z" transform="translate(2011.558 705.093)" fill="#ffd964"/><path d="M132.2,94.373h31.276a1.3,1.3,0,0,0,0-2.6H132.2a1.3,1.3,0,0,0,0,2.6" transform="translate(2013.066 713.305)" fill="#313e58"/><path d="M163.472,88.332a1.3,1.3,0,0,0,0-2.6H132.2a1.3,1.3,0,0,0,0,2.6Z" transform="translate(2013.066 711.471)" fill="#313e58"/><path d="M216.105,109.6H63.152a1.3,1.3,0,0,0-1.3,1.3,10.342,10.342,0,0,0,10.342,10.342H207.065A10.342,10.342,0,0,0,217.407,110.9a1.3,1.3,0,0,0-1.3-1.3" transform="translate(1996.372 719.985)" fill="#7a8293"/><path d="M137.8,112.78a3.839,3.839,0,0,0,3.537,2.846h24.122a3.839,3.839,0,0,0,3.537-2.846" transform="translate(1983.025 718.963)" fill="#acb1bc"/><g transform="translate(2085.812 766.37)"><path d="M85.369,83.176a1.3,1.3,0,0,0-1.3,1.3v18.175a1.3,1.3,0,0,0,2.6,0V84.477a1.3,1.3,0,0,0-1.3-1.3" transform="translate(-84.068 -55.085)" fill="#629d62"/><path d="M93.433,77.428a1.3,1.3,0,0,0-1.3,1.3v25.313a1.3,1.3,0,1,0,2.6,0V78.729a1.3,1.3,0,0,0-1.3-1.3" transform="translate(-82.118 -56.649)" fill="#629d62"/><path d="M101.5,69.629a1.3,1.3,0,0,0-1.3,1.3v35a1.3,1.3,0,0,0,2.6,0v-35a1.3,1.3,0,0,0-1.3-1.3" transform="translate(-80.168 -58.85)" fill="#629d62"/><path d="M109.561,75.546a1.3,1.3,0,0,0-1.3,1.3V104.5a1.3,1.3,0,0,0,2.6,0V76.847a1.3,1.3,0,0,0-1.3-1.3" transform="translate(-78.219 -57.171)" fill="#629d62"/><path d="M117.626,69.78a1.3,1.3,0,0,0-1.3,1.3v34.81a1.3,1.3,0,0,0,2.6,0V71.081a1.3,1.3,0,0,0-1.3-1.3" transform="translate(-76.268 -58.806)" fill="#629d62"/><path d="M126.034,67.71l1.3-4.837a.8.8,0,0,0-.982-.982l-4.837,1.3a.8.8,0,0,0-.36,1.342l.851.851-3.114,3.114-3.434,3.434-9.08-9.08a1.3,1.3,0,0,0-1.84,0L84.449,82.93a1.3,1.3,0,1,0,1.84,1.84l19.163-19.163,9.08,9.08a1.3,1.3,0,0,0,1.84,0l3.391-3.39,4.077-4.078.851.851a.8.8,0,0,0,1.342-.36" transform="translate(-84.068 -61.862)" fill="#629d62"/></g><path d="M10.081,11.015a3.183,3.183,0,0,1-1.155,2.566,5.737,5.737,0,0,1-3.233,1.16V16.8H4.318V14.781a11.164,11.164,0,0,1-4.3-.864V11.266a11.569,11.569,0,0,0,2.1.763,11.255,11.255,0,0,0,2.194.392V9.308l-.673-.261a7.509,7.509,0,0,1-2.817-1.7A3.271,3.271,0,0,1,0,5.071,2.967,2.967,0,0,1,1.14,2.676a5.793,5.793,0,0,1,3.178-1.14V0H5.693V1.5A11.4,11.4,0,0,1,9.85,2.42L8.907,4.77a10.854,10.854,0,0,0-3.213-.783V6.949A15.443,15.443,0,0,1,8.48,8.254,3.812,3.812,0,0,1,9.695,9.469,3.013,3.013,0,0,1,10.081,11.015Zm-3.022.151a.9.9,0,0,0-.341-.713,4.477,4.477,0,0,0-1.024-.6v2.5Q7.059,12.12,7.059,11.166Zm-4.037-6.1a.953.953,0,0,0,.306.728,3.636,3.636,0,0,0,.989.587V4.027Q3.022,4.217,3.022,5.071Z" transform="matrix(1, -0.017, 0.017, 1, 2142, 774.444)" fill="#313e58"/><path d="M10.081,11.015a3.183,3.183,0,0,1-1.155,2.566,5.737,5.737,0,0,1-3.233,1.16V16.8H4.318V14.781a11.164,11.164,0,0,1-4.3-.864V11.266a11.569,11.569,0,0,0,2.1.763,11.255,11.255,0,0,0,2.194.392V9.308l-.673-.261a7.509,7.509,0,0,1-2.817-1.7A3.271,3.271,0,0,1,0,5.071,2.967,2.967,0,0,1,1.14,2.676a5.793,5.793,0,0,1,3.178-1.14V0H5.693V1.5A11.4,11.4,0,0,1,9.85,2.42L8.907,4.77a10.854,10.854,0,0,0-3.213-.783V6.949A15.443,15.443,0,0,1,8.48,8.254,3.812,3.812,0,0,1,9.695,9.469,3.013,3.013,0,0,1,10.081,11.015Zm-3.022.151a.9.9,0,0,0-.341-.713,4.477,4.477,0,0,0-1.024-.6v2.5Q7.059,12.12,7.059,11.166Zm-4.037-6.1a.953.953,0,0,0,.306.728,3.636,3.636,0,0,0,.989.587V4.027Q3.022,4.217,3.022,5.071Z" transform="matrix(1, -0.017, 0.017, 1, 2155, 774.444)" fill="#313e58"/><path d="M10.081,11.015a3.183,3.183,0,0,1-1.155,2.566,5.737,5.737,0,0,1-3.233,1.16V16.8H4.318V14.781a11.164,11.164,0,0,1-4.3-.864V11.266a11.569,11.569,0,0,0,2.1.763,11.255,11.255,0,0,0,2.194.392V9.308l-.673-.261a7.509,7.509,0,0,1-2.817-1.7A3.271,3.271,0,0,1,0,5.071,2.967,2.967,0,0,1,1.14,2.676a5.793,5.793,0,0,1,3.178-1.14V0H5.693V1.5A11.4,11.4,0,0,1,9.85,2.42L8.907,4.77a10.854,10.854,0,0,0-3.213-.783V6.949A15.443,15.443,0,0,1,8.48,8.254,3.812,3.812,0,0,1,9.695,9.469,3.013,3.013,0,0,1,10.081,11.015Zm-3.022.151a.9.9,0,0,0-.341-.713,4.477,4.477,0,0,0-1.024-.6v2.5Q7.059,12.12,7.059,11.166Zm-4.037-6.1a.953.953,0,0,0,.306.728,3.636,3.636,0,0,0,.989.587V4.027Q3.022,4.217,3.022,5.071Z" transform="matrix(1, -0.017, 0.017, 1, 2168, 774.444)" fill="#313e58"/></g></svg>