<svg xmlns="http://www.w3.org/2000/svg" width="192.674" height="192.674" viewBox="0 0 192.674 192.674"><g transform="translate(-171.809 -2074.979)"><circle cx="96.337" cy="96.337" r="96.337" transform="translate(171.809 2074.979)" fill="#fff"/><g transform="translate(-649.426 1726.855)"><g transform="translate(840.457 391.145)"><path d="M204.181,128.276V55.247c0-4.311-3.149-7.807-7.036-7.807H77.8c-3.886,0-7.036,3.5-7.036,7.807v73.03" transform="translate(-59.696 -47.44)" fill="#acb1bc"/><path d="M195.2,119.132V54.256a1.31,1.31,0,0,0-1.3-1.318H78.117a1.31,1.31,0,0,0-1.3,1.318v64.876" transform="translate(-58.232 -46.111)" fill="#fff"/><path d="M125.956,61.579a1.3,1.3,0,0,0-1.3,1.3v44.994a1.3,1.3,0,0,0,1.3,1.3H172.73a1.3,1.3,0,0,0,1.3-1.3V62.88a1.3,1.3,0,0,0-1.3-1.3Z" transform="translate(-46.665 -42.196)" fill="#ffd964"/><path d="M138.714,76.009a10.338,10.338,0,0,0-1.432-.531,11.071,11.071,0,0,0-1.434-.325,2.889,2.889,0,0,1-1.159-.414,1.025,1.025,0,0,1-.507-.887,1.007,1.007,0,0,1,.425-.857,1.672,1.672,0,0,1,1.018-.3,1.843,1.843,0,0,1,1.012.261,3.587,3.587,0,0,1,.3.231c.109.092.255.2.42.322a.983.983,0,0,0,.6.175,1.312,1.312,0,0,0,1.028-.713,2.307,2.307,0,0,0,.494-1.031c0-.124-.088-.354-.509-.743l-.077-.055-.207-.185a4.105,4.105,0,0,0-.673-.375,4.892,4.892,0,0,0-1.093-.365.126.126,0,0,1-.1-.122V68.866a5.773,5.773,0,0,0-.042-.816.782.782,0,0,0-.3-.462,1.243,1.243,0,0,0-.81-.222c-.571,0-.924.152-1.048.451a3.069,3.069,0,0,0-.123,1.028v1.231a.125.125,0,0,1-.1.122,3.721,3.721,0,0,0-2.233,1.318,3.614,3.614,0,0,0-.808,2.295,3.529,3.529,0,0,0,.591,2.1,3.257,3.257,0,0,0,1.439,1.165,12.43,12.43,0,0,0,1.74.556,9.177,9.177,0,0,1,1.514.478.946.946,0,0,1,.69.862c0,.668-.3,1.464-1.75,1.464a2.089,2.089,0,0,1-1.635-.88c-.688-.685-1.074-.832-1.277-.832a1.216,1.216,0,0,0-.847.382c-.585.569-.708.9-.708,1.073a1.685,1.685,0,0,0,.435.956l.287.375a4.339,4.339,0,0,0,.979.784,4.873,4.873,0,0,0,1.585.641.126.126,0,0,1,.1.123V84.42a3.015,3.015,0,0,0,.144,1.073.543.543,0,0,0,.315.327,2.416,2.416,0,0,0,1.38,0,.646.646,0,0,0,.35-.355,2.735,2.735,0,0,0,.13-1.023v-1.4a.126.126,0,0,1,.1-.123,4.644,4.644,0,0,0,2.333-1.326,4.229,4.229,0,0,0,.52-4.54,2.449,2.449,0,0,0-1.054-1.038" transform="translate(-45.103 -41.113)" fill="#313e58"/><path d="M148.438,76.009a10.339,10.339,0,0,0-1.432-.531,11.1,11.1,0,0,0-1.433-.325,2.889,2.889,0,0,1-1.16-.414,1.025,1.025,0,0,1-.507-.887,1.007,1.007,0,0,1,.425-.857,1.677,1.677,0,0,1,1.018-.3,1.85,1.85,0,0,1,1.013.261q.138.1.3.231c.109.092.255.2.42.322a1,1,0,0,0,.6.175,1.312,1.312,0,0,0,1.028-.713,2.307,2.307,0,0,0,.494-1.031c0-.124-.088-.354-.508-.743l-.078-.055-.207-.185a4.105,4.105,0,0,0-.673-.375,4.869,4.869,0,0,0-1.093-.365.125.125,0,0,1-.1-.122V68.866a5.733,5.733,0,0,0-.043-.816.782.782,0,0,0-.3-.462,1.242,1.242,0,0,0-.808-.222c-.572,0-.925.152-1.049.451a3.068,3.068,0,0,0-.123,1.028v1.231a.125.125,0,0,1-.1.122A3.751,3.751,0,0,0,142,71.4c-.035.04-.077.073-.109.115a3.613,3.613,0,0,0-.808,2.295,3.529,3.529,0,0,0,.591,2.1,3.675,3.675,0,0,0,.327.35,3.155,3.155,0,0,0,1.113.815,12.479,12.479,0,0,0,1.74.556,9.178,9.178,0,0,1,1.514.478.946.946,0,0,1,.69.862c0,.668-.3,1.464-1.75,1.464a2.089,2.089,0,0,1-1.635-.88c-.688-.685-1.074-.832-1.277-.832a1.029,1.029,0,0,0-.395.087,1.435,1.435,0,0,0-.452.3c-.585.569-.708.9-.708,1.073a1.686,1.686,0,0,0,.435.956l.287.375a2.844,2.844,0,0,0,.438.4c.154.12.328.246.54.381a4.874,4.874,0,0,0,1.585.641.125.125,0,0,1,.1.123V84.42a2.983,2.983,0,0,0,.145,1.073.539.539,0,0,0,.314.327,2.416,2.416,0,0,0,1.38,0,.646.646,0,0,0,.35-.355,2.728,2.728,0,0,0,.132-1.023v-1.4a.126.126,0,0,1,.1-.123,4.634,4.634,0,0,0,2.333-1.326,4.229,4.229,0,0,0,.52-4.54,2.45,2.45,0,0,0-1.054-1.038" transform="translate(-42.752 -41.113)" fill="#313e58"/><path d="M159.215,77.047h0a2.436,2.436,0,0,0-1.054-1.038,10.223,10.223,0,0,0-1.432-.531,11.1,11.1,0,0,0-1.433-.325,2.889,2.889,0,0,1-1.16-.414,1.025,1.025,0,0,1-.507-.887,1.007,1.007,0,0,1,.425-.857,1.679,1.679,0,0,1,1.02-.3,1.849,1.849,0,0,1,1.012.261,3.479,3.479,0,0,1,.3.23c.109.093.255.2.42.323a1,1,0,0,0,.6.175,1.31,1.31,0,0,0,1.027-.713,2.318,2.318,0,0,0,.5-1.031c0-.124-.089-.354-.509-.743l-.077-.055-.207-.185a4.3,4.3,0,0,0-.673-.376,4.943,4.943,0,0,0-1.094-.364.125.125,0,0,1-.1-.122V68.866a5.967,5.967,0,0,0-.042-.816.784.784,0,0,0-.3-.462,1.241,1.241,0,0,0-.808-.222c-.573,0-.925.152-1.048.451a3.031,3.031,0,0,0-.123,1.028v1.229a.126.126,0,0,1-.1.123,3.728,3.728,0,0,0-2.234,1.318c-.02.025-.032.052-.052.077a3.61,3.61,0,0,0-.756,2.218,3.523,3.523,0,0,0,.592,2.1c.048.07.112.113.164.178a3.206,3.206,0,0,0,1.274.988,12.478,12.478,0,0,0,1.74.556,9.139,9.139,0,0,1,1.514.478.946.946,0,0,1,.692.862c0,.668-.3,1.464-1.751,1.464a2.1,2.1,0,0,1-1.635-.88c-.688-.685-1.074-.832-1.275-.832a1.1,1.1,0,0,0-.558.18,1.494,1.494,0,0,0-.289.2c-.585.569-.709.9-.709,1.073a1.689,1.689,0,0,0,.435.956l.287.375a2.643,2.643,0,0,0,.277.263,5.79,5.79,0,0,0,.7.52,4.9,4.9,0,0,0,1.586.641.126.126,0,0,1,.1.123V84.42a3.016,3.016,0,0,0,.144,1.073.54.54,0,0,0,.315.327,2.411,2.411,0,0,0,1.378,0,.656.656,0,0,0,.351-.355,2.734,2.734,0,0,0,.13-1.023V83.035a.126.126,0,0,1,.1-.122,4.635,4.635,0,0,0,2.332-1.326,4.229,4.229,0,0,0,.52-4.54" transform="translate(-40.401 -41.113)" fill="#313e58"/><path d="M132.2,94.373h31.276a1.3,1.3,0,0,0,0-2.6H132.2a1.3,1.3,0,0,0,0,2.6" transform="translate(-45.156 -33.985)" fill="#313e58"/><path d="M163.472,88.332a1.3,1.3,0,0,0,0-2.6H132.2a1.3,1.3,0,0,0,0,2.6Z" transform="translate(-45.156 -35.818)" fill="#313e58"/><path d="M216.105,109.6H63.152a1.3,1.3,0,0,0-1.3,1.3,10.342,10.342,0,0,0,10.342,10.342H207.065A10.342,10.342,0,0,0,217.407,110.9a1.3,1.3,0,0,0-1.3-1.3" transform="translate(-61.851 -27.304)" fill="#7a8293"/><path d="M137.8,112.78a3.839,3.839,0,0,0,3.537,2.846h24.122a3.839,3.839,0,0,0,3.537-2.846" transform="translate(-75.197 -28.326)" fill="#acb1bc"/><g transform="translate(27.589 19.081)"><path d="M85.369,83.176a1.3,1.3,0,0,0-1.3,1.3v18.175a1.3,1.3,0,0,0,2.6,0V84.477a1.3,1.3,0,0,0-1.3-1.3" transform="translate(-84.068 -55.085)" fill="#629d62"/><path d="M93.433,77.428a1.3,1.3,0,0,0-1.3,1.3v25.313a1.3,1.3,0,1,0,2.6,0V78.729a1.3,1.3,0,0,0-1.3-1.3" transform="translate(-82.118 -56.649)" fill="#629d62"/><path d="M101.5,69.629a1.3,1.3,0,0,0-1.3,1.3v35a1.3,1.3,0,0,0,2.6,0v-35a1.3,1.3,0,0,0-1.3-1.3" transform="translate(-80.168 -58.85)" fill="#629d62"/><path d="M109.561,75.546a1.3,1.3,0,0,0-1.3,1.3V104.5a1.3,1.3,0,0,0,2.6,0V76.847a1.3,1.3,0,0,0-1.3-1.3" transform="translate(-78.219 -57.171)" fill="#629d62"/><path d="M117.626,69.78a1.3,1.3,0,0,0-1.3,1.3v34.81a1.3,1.3,0,0,0,2.6,0V71.081a1.3,1.3,0,0,0-1.3-1.3" transform="translate(-76.268 -58.806)" fill="#629d62"/><path d="M126.034,67.71l1.3-4.837a.8.8,0,0,0-.982-.982l-4.837,1.3a.8.8,0,0,0-.36,1.342l.851.851-3.114,3.114-3.434,3.434-9.08-9.08a1.3,1.3,0,0,0-1.84,0L84.449,82.93a1.3,1.3,0,1,0,1.84,1.84l19.163-19.163,9.08,9.08a1.3,1.3,0,0,0,1.84,0l3.391-3.39,4.077-4.078.851.851a.8.8,0,0,0,1.342-.36" transform="translate(-84.068 -61.862)" fill="#629d62"/></g></g></g></g></svg>