<svg xmlns="http://www.w3.org/2000/svg" width="192.674" height="192.674" viewBox="0 0 192.674 192.674"><g transform="translate(-424 -704)"><circle cx="96.337" cy="96.337" r="96.337" transform="translate(424 704)" fill="none"/><g transform="translate(0 1)"><path d="M0,1.267,10.158,0,6.177,9.431Z" transform="matrix(0.995, 0.105, -0.105, 0.995, 578.465, 771.908)" fill="#629d62"/><path d="M10.955-.6,6.3,10.423-.921.878Zm-4.9,9.042L9.361.6.921,1.656Z" transform="matrix(0.995, 0.105, -0.105, 0.995, 578.465, 771.908)" fill="rgba(0,0,0,0)"/><path d="M35.493,91.6H26.139c-.848,0-1.535-.481-1.535-1.074V77.349c0-.593.687-1.074,1.535-1.074h9.355c.847,0,1.535.481,1.535,1.074V90.529c0,.593-.688,1.074-1.535,1.074" transform="translate(490.119 743.893)" fill="#a0d1a0"/><path d="M35.493,92.1H26.139A1.829,1.829,0,0,1,24.1,90.529V77.349a1.829,1.829,0,0,1,2.035-1.574h9.355a1.829,1.829,0,0,1,2.035,1.574V90.529A1.829,1.829,0,0,1,35.493,92.1ZM26.139,76.775c-.592,0-1.035.3-1.035.574V90.529c0,.271.443.574,1.035.574h9.355c.592,0,1.035-.3,1.035-.574V77.349c0-.271-.443-.574-1.035-.574Z" transform="translate(490.119 743.893)" fill="rgba(0,0,0,0)"/><path d="M54.855,99.456H45.5a1.557,1.557,0,0,1-1.535-1.578V65.169A1.557,1.557,0,0,1,45.5,63.591h9.354a1.557,1.557,0,0,1,1.535,1.578V97.878a1.557,1.557,0,0,1-1.535,1.578" transform="translate(512.138 736.04)" fill="#85cb85"/><path d="M54.855,99.956H45.5a2.059,2.059,0,0,1-2.035-2.078V65.169A2.059,2.059,0,0,1,45.5,63.091h9.354a2.059,2.059,0,0,1,2.035,2.078V97.878A2.059,2.059,0,0,1,54.855,99.956ZM45.5,64.091a1.058,1.058,0,0,0-1.035,1.078V97.878A1.058,1.058,0,0,0,45.5,98.956h9.354a1.058,1.058,0,0,0,1.035-1.078V65.169a1.058,1.058,0,0,0-1.035-1.078Z" transform="translate(512.138 736.04)" fill="rgba(0,0,0,0)"/><path d="M54.855,90.3H45.5a1.392,1.392,0,0,1-1.535-1.175V64.766A1.392,1.392,0,0,1,45.5,63.591h9.354a1.391,1.391,0,0,1,1.535,1.175V89.124" transform="translate(491.495 745.198)" fill="#a0d1a0"/><path d="M54.855,90.8H45.5a1.883,1.883,0,0,1-2.035-1.675V64.766A1.883,1.883,0,0,1,45.5,63.091h9.354a1.883,1.883,0,0,1,2.035,1.675V89.124h-1V64.766c0-.36-.484-.675-1.035-.675H45.5c-.551,0-1.035.315-1.035.675V89.124c0,.36.484.675,1.035.675h9.354Z" transform="translate(491.495 745.198)" fill="rgba(0,0,0,0)"/><path d="M74.219,94.869H64.865a1.48,1.48,0,0,1-1.535-1.417V48.422a1.48,1.48,0,0,1,1.535-1.417h9.355a1.48,1.48,0,0,1,1.535,1.417v45.03a1.48,1.48,0,0,1-1.535,1.417" transform="translate(513.416 740.628)" fill="#85cb85"/><path d="M74.219,95.369H64.865a1.981,1.981,0,0,1-2.035-1.917V48.422a1.981,1.981,0,0,1,2.035-1.917h9.355a1.981,1.981,0,0,1,2.035,1.917v45.03A1.981,1.981,0,0,1,74.219,95.369ZM64.865,47.505a.982.982,0,0,0-1.035.917v45.03a.982.982,0,0,0,1.035.917h9.355a.982.982,0,0,0,1.035-.917V48.422a.982.982,0,0,0-1.035-.917Z" transform="translate(513.416 740.628)" fill="rgba(0,0,0,0)"/><path d="M3,3V76H105V3H3M2,0H106a2,2,0,0,1,2,2V77a2,2,0,0,1-2,2H2a2,2,0,0,1-2-2V2A2,2,0,0,1,2,0Z" transform="translate(490 763)" fill="#acb1bc"/><path d="M12398.166,8399.811a1.5,1.5,0,0,1-.621-2.865l67.636-30.73a1.5,1.5,0,1,1,1.24,2.73l-67.636,30.73A1.488,1.488,0,0,1,12398.166,8399.811Z" transform="translate(-11881.625 -7591.455)" fill="#629d62"/></g><g transform="translate(437 734)"><path d="M30.306,93.733,23.373,89.71a3.6,3.6,0,0,1-1.362-1.384H19.493a2.418,2.418,0,0,1-2.325-1.758l-.054.008a2.2,2.2,0,0,1-.037-.4V60.716a32.251,32.251,0,1,1,30.1.132v25.06a2.419,2.419,0,0,1-2.42,2.419H42.241a3.619,3.619,0,0,1-1.362,1.384l-6.936,4.023a3.638,3.638,0,0,1-3.638,0Z" transform="translate(22.702 22.407)" fill="#ffd964"/><path d="M32.125,98.221A7.649,7.649,0,0,1,28.306,97.2l-6.94-4.027a7.568,7.568,0,0,1-1.185-.844h-.688a6.416,6.416,0,0,1-4.068-1.462l-1.482.216-.829-4.133-.037-.772V63.023a36.251,36.251,0,1,1,38.1.154V85.908a6.427,6.427,0,0,1-6.42,6.419H44.07a7.615,7.615,0,0,1-1.2.852L35.95,97.193A7.655,7.655,0,0,1,32.125,98.221ZM21.077,84.327h3.3l1.14,2.07,6.608,3.768,6.749-3.915,1.143-2.06,2.227.136h.938v-25.9L45.325,57.3a28.253,28.253,0,1,0-26.363-.116l2.116,1.13Z" transform="translate(22.702 22.407)" fill="#fff"/><path d="M0,18.244a4,4,0,0,1-4-4V0A4,4,0,0,1,0-4,4,4,0,0,1,4,0V14.244A4,4,0,0,1,0,18.244Z" transform="translate(54.327)" fill="#fff"/><path d="M10.073,14.073A3.987,3.987,0,0,1,7.245,12.9L-2.828,2.828a4,4,0,0,1,0-5.657,4,4,0,0,1,5.657,0L12.9,7.245a4,4,0,0,1-2.828,6.828Z" transform="translate(15.912 15.913)" fill="#fff"/><path d="M10.073,14.073A3.987,3.987,0,0,1,7.245,12.9L-2.828,2.828a4,4,0,0,1,0-5.657,4,4,0,0,1,5.657,0L12.9,7.245a4,4,0,0,1-2.828,6.828Z" transform="translate(82.671 82.672)" fill="#fff"/><path d="M14.244,4.051H14.23L-.014,4A4,4,0,0,1-4-.014,4,4,0,0,1,.014-4l14.244.051a4,4,0,0,1-.014,8Z" transform="translate(94.412 54.467)" fill="#fff"/><path d="M14.244,4.051H14.23L-.014,4A4,4,0,0,1-4-.014,4,4,0,0,1,.014-4l14.244.051a4,4,0,0,1-.014,8Z" transform="translate(0.001 54.139)" fill="#fff"/><path d="M0,14.038a3.987,3.987,0,0,1-2.838-1.181A4,4,0,0,1-2.819,7.2L7.29-2.838a4,4,0,0,1,5.657.02,4,4,0,0,1-.02,5.657L2.819,12.877A3.988,3.988,0,0,1,0,14.038Z" transform="translate(82.77 16.047)" fill="#fff"/><path d="M0,14.038a3.987,3.987,0,0,1-2.838-1.181A4,4,0,0,1-2.819,7.2L7.29-2.838a4,4,0,0,1,5.657.02,4,4,0,0,1-.02,5.657L2.819,12.877A3.988,3.988,0,0,1,0,14.038Z" transform="translate(15.781 82.575)" fill="#fff"/></g><g transform="translate(437 734)"><path d="M21.911,77.577a4.833,4.833,0,0,1-4.834-4.835V60.717a32.251,32.251,0,1,1,30.1.131V72.741a4.835,4.835,0,0,1-4.835,4.835Z" transform="translate(22.702 22.407)" fill="#ffd964"/><path d="M42.344,78.077H21.911a5.341,5.341,0,0,1-5.334-5.335V61.015A32.745,32.745,0,0,1-.5,32.252,32.76,32.76,0,0,1,62.429,19.5a32.815,32.815,0,0,1-2.3,29.95,32.881,32.881,0,0,1-12.449,11.7V72.741A5.341,5.341,0,0,1,42.344,78.077ZM32.252.5a31.758,31.758,0,0,0-27.1,48.309A31.894,31.894,0,0,0,17.312,60.276l.264.141V72.741a4.34,4.34,0,0,0,4.334,4.335H42.344a4.34,4.34,0,0,0,4.335-4.335v-12.2l.268-.14A31.747,31.747,0,0,0,64,32.252,31.724,31.724,0,0,0,32.252.5Z" transform="translate(22.702 22.407)" fill="rgba(0,0,0,0)"/><path d="M0,16.244a2,2,0,0,1-2-2V0A2,2,0,0,1,0-2,2,2,0,0,1,2,0V14.244A2,2,0,0,1,0,16.244Z" transform="translate(54.327 0)" fill="#ffd964"/><path d="M10.073,12.073a1.994,1.994,0,0,1-1.414-.586L-1.414,1.414a2,2,0,0,1,0-2.828,2,2,0,0,1,2.828,0L11.488,8.659a2,2,0,0,1-1.414,3.414Z" transform="translate(15.913 15.913)" fill="#ffd964"/><path d="M10.073,12.073a1.994,1.994,0,0,1-1.414-.586L-1.414,1.414a2,2,0,0,1,0-2.828,2,2,0,0,1,2.828,0L11.488,8.659a2,2,0,0,1-1.414,3.414Z" transform="translate(82.671 82.672)" fill="#ffd964"/><path d="M14.244,2.051h-.007L-.007,2A2,2,0,0,1-2-.007,2,2,0,0,1,.007-2l14.244.051a2,2,0,0,1-.007,4Z" transform="translate(94.412 54.467)" fill="#ffd964"/><path d="M14.244,2.051h-.007L-.007,2A2,2,0,0,1-2-.007,2,2,0,0,1,.007-2l14.244.051a2,2,0,0,1-.007,4Z" transform="translate(0.001 54.139)" fill="#ffd964"/><path d="M0,12.038a1.994,1.994,0,0,1-1.419-.591,2,2,0,0,1,.01-2.828L8.7-1.419a2,2,0,0,1,2.828.01,2,2,0,0,1-.01,2.828L1.409,11.457A1.994,1.994,0,0,1,0,12.038Z" transform="translate(82.77 16.047)" fill="#ffd964"/><path d="M0,12.038a1.994,1.994,0,0,1-1.419-.591,2,2,0,0,1,.01-2.828L8.7-1.419a2,2,0,0,1,2.828.01,2,2,0,0,1-.01,2.828L1.409,11.457A1.994,1.994,0,0,1,0,12.038Z" transform="translate(15.781 82.575)" fill="#ffd964"/><path d="M48.2,88.261a1.5,1.5,0,0,1-1.5-1.488l-.211-27.486a35.208,35.208,0,0,1-7.555-2.369,24.3,24.3,0,0,1-5.478-3.268,11.086,11.086,0,0,1-3.493-4.472c-.818-2.125-.983-5.391,2.882-8.888,3.361-3.041,6.43-4.012,9.121-2.887,2.931,1.226,5.083,4.906,6.4,10.937a54.417,54.417,0,0,1,1.105,8.271q0,.027,0,.053v.029c.684.068,1.345.1,1.971.1a1.5,1.5,0,1,1,0,3c-.627,0-1.279-.03-1.948-.087L49.7,86.749a1.5,1.5,0,0,1-1.488,1.511ZM39.712,39.955c-1.347,0-2.974.856-4.855,2.558-2.119,1.918-2.8,3.744-2.1,5.585.823,2.138,3.517,4.353,7.391,6.077a32.41,32.41,0,0,0,6.285,2.034,52.726,52.726,0,0,0-1.016-7.271c-1.062-4.856-2.7-7.97-4.614-8.77A2.812,2.812,0,0,0,39.712,39.955Z" transform="translate(4.046 5.603)" fill="#313e58"/><path d="M51.393,88.261h-.012a1.5,1.5,0,0,1-1.488-1.511L50.1,59.708c-.669.058-1.321.087-1.948.087a1.5,1.5,0,0,1,0-3c.626,0,1.286-.035,1.971-.1v-.029q0-.027,0-.053a54.414,54.414,0,0,1,1.105-8.271c1.312-6.032,3.464-9.711,6.4-10.937,2.691-1.125,5.76-.154,9.121,2.887,3.865,3.5,3.7,6.764,2.882,8.888a11.086,11.086,0,0,1-3.493,4.472,24.3,24.3,0,0,1-5.478,3.268A35.208,35.208,0,0,1,53.1,59.286l-.211,27.486A1.5,1.5,0,0,1,51.393,88.261ZM59.88,39.955a2.811,2.811,0,0,0-1.1.214c-1.919.8-3.561,3.93-4.622,8.807a52.611,52.611,0,0,0-1.008,7.233,32.412,32.412,0,0,0,6.285-2.034c3.874-1.725,6.568-3.94,7.391-6.077.709-1.841.024-3.668-2.1-5.585C62.854,40.811,61.227,39.955,59.88,39.955Z" transform="translate(7.626 5.603)" fill="#313e58"/><path d="M51.007,99.959a3.626,3.626,0,0,1-3.635,0l-6.935-4.022a3.626,3.626,0,0,1,1.813-6.768H56.13a3.626,3.626,0,0,1,1.813,6.768Z" transform="translate(5.639 16.181)" fill="#acb1bc"/><path d="M34.914,78.5h30.1V94.36A2.416,2.416,0,0,1,62.6,96.777H37.331a2.416,2.416,0,0,1-2.417-2.417Z" transform="translate(4.865 13.955)" fill="#acb1bc"/><path d="M34.914,93.085V90.232l30.1-4.34v3.263L34.951,93.487a2.128,2.128,0,0,1-.037-.4" transform="translate(4.865 15.497)" fill="#7a8293"/><path d="M34.914,84.32l30.1-4.342v3.263l-30.1,4.338Z" transform="translate(4.865 14.264)" fill="#7a8293"/></g></g></svg>