<svg xmlns="http://www.w3.org/2000/svg" width="192.674" height="192.674" viewBox="0 0 192.674 192.674"><g transform="translate(-424 -1168)"><circle cx="96.337" cy="96.337" r="96.337" transform="translate(424 1168)" fill="#fff"/><path d="M0,123.167H92.681V0H0Z" transform="translate(562.588 1325.387) rotate(180)" fill="#acb1bc"/><path d="M0,123.167H92.681V0H0Z" transform="translate(558.675 1321.453) rotate(180)" fill="#e4e6ea"/><rect width="11.148" height="20.055" rx="1" transform="translate(538.014 1275.708)" fill="#e88a2d"/><rect width="11.148" height="34.548" rx="1" transform="translate(518.634 1275.708)" fill="#f1b981"/><rect width="11.148" height="34.175" rx="1" transform="translate(498.362 1232.968)" fill="#85cb85"/><rect width="11.148" height="46.381" rx="1" transform="translate(478.092 1220.762)" fill="#629d62"/><path d="M10.187,11.131A3.216,3.216,0,0,1,9.02,13.723,5.8,5.8,0,0,1,5.753,14.9v2.08H4.363V14.936A11.281,11.281,0,0,1,.02,14.063V11.384a11.69,11.69,0,0,0,2.126.771,11.373,11.373,0,0,0,2.217.4V9.406l-.68-.264A7.588,7.588,0,0,1,.837,7.422,3.305,3.305,0,0,1,0,5.124,3,3,0,0,1,1.152,2.7,5.853,5.853,0,0,1,4.363,1.552V0h1.39V1.512a11.519,11.519,0,0,1,4.2.933L9,4.82a10.968,10.968,0,0,0-3.247-.791V7.021A15.605,15.605,0,0,1,8.569,8.34,3.852,3.852,0,0,1,9.8,9.568,3.045,3.045,0,0,1,10.187,11.131Zm-3.054.152a.912.912,0,0,0-.345-.72,4.524,4.524,0,0,0-1.035-.609V12.48Q7.133,12.247,7.133,11.283ZM3.054,5.124a.963.963,0,0,0,.309.736,3.674,3.674,0,0,0,1,.594V4.069Q3.054,4.262,3.054,5.124Z" transform="matrix(1, -0.017, 0.017, 1, 475.223, 1293.284)" fill="#7a8293"/><path d="M10.187,11.131A3.216,3.216,0,0,1,9.02,13.723,5.8,5.8,0,0,1,5.753,14.9v2.08H4.363V14.936A11.281,11.281,0,0,1,.02,14.063V11.384a11.69,11.69,0,0,0,2.126.771,11.373,11.373,0,0,0,2.217.4V9.406l-.68-.264A7.588,7.588,0,0,1,.837,7.422,3.305,3.305,0,0,1,0,5.124,3,3,0,0,1,1.152,2.7,5.853,5.853,0,0,1,4.363,1.552V0h1.39V1.512a11.519,11.519,0,0,1,4.2.933L9,4.82a10.968,10.968,0,0,0-3.247-.791V7.021A15.605,15.605,0,0,1,8.569,8.34,3.852,3.852,0,0,1,9.8,9.568,3.045,3.045,0,0,1,10.187,11.131Zm-3.054.152a.912.912,0,0,0-.345-.72,4.524,4.524,0,0,0-1.035-.609V12.48Q7.133,12.247,7.133,11.283ZM3.054,5.124a.963.963,0,0,0,.309.736,3.674,3.674,0,0,0,1,.594V4.069Q3.054,4.262,3.054,5.124Z" transform="matrix(1, -0.017, 0.017, 1, 488.538, 1293.283)" fill="#7a8293"/><path d="M10.187,11.131A3.216,3.216,0,0,1,9.02,13.723,5.8,5.8,0,0,1,5.753,14.9v2.08H4.363V14.936A11.281,11.281,0,0,1,.02,14.063V11.384a11.69,11.69,0,0,0,2.126.771,11.373,11.373,0,0,0,2.217.4V9.406l-.68-.264A7.588,7.588,0,0,1,.837,7.422,3.305,3.305,0,0,1,0,5.124,3,3,0,0,1,1.152,2.7,5.853,5.853,0,0,1,4.363,1.552V0h1.39V1.512a11.519,11.519,0,0,1,4.2.933L9,4.82a10.968,10.968,0,0,0-3.247-.791V7.021A15.605,15.605,0,0,1,8.569,8.34,3.852,3.852,0,0,1,9.8,9.568,3.045,3.045,0,0,1,10.187,11.131Zm-3.054.152a.912.912,0,0,0-.345-.72,4.524,4.524,0,0,0-1.035-.609V12.48Q7.133,12.247,7.133,11.283ZM3.054,5.124a.963.963,0,0,0,.309.736,3.674,3.674,0,0,0,1,.594V4.069Q3.054,4.262,3.054,5.124Z" transform="matrix(1, -0.017, 0.017, 1, 501.853, 1293.284)" fill="#7a8293"/><path d="M72.073,1.5H0A1.5,1.5,0,0,1-1.5,0,1.5,1.5,0,0,1,0-1.5H72.073a1.5,1.5,0,0,1,1.5,1.5A1.5,1.5,0,0,1,72.073,1.5Z" transform="translate(476.258 1271.342)" fill="#acb1bc"/><g transform="matrix(0.891, -0.454, 0.454, 0.891, 261.618, 1245.265)"><rect width="7.253" height="10.757" transform="translate(246.998 155.116) rotate(-45)" fill="#7a8293"/><path d="M0,0H7.253V6.866A14.668,14.668,0,0,1,3.5,7.471,11.757,11.757,0,0,1,0,6.866Z" transform="translate(246.638 154.755) rotate(-45)" fill="#313e58"/><path d="M41.971,20.986A20.985,20.985,0,1,1,20.985,0,20.986,20.986,0,0,1,41.971,20.986" transform="translate(203.946 136.613) rotate(-45)" fill="none"/><rect width="11.782" height="42.517" rx="4" transform="translate(252.641 163.961) rotate(-45)" fill="#e88a2d"/><path d="M2.054,0A2.06,2.06,0,0,0,0,2.054V40.463a2.06,2.06,0,0,0,2.054,2.054h2.5V0Z" transform="translate(252.641 163.961) rotate(-45)" fill="#cc7a29"/><path d="M41.971,20.986A20.985,20.985,0,1,1,20.985,0,20.986,20.986,0,0,1,41.971,20.986Z" transform="translate(203.946 136.613) rotate(-45)" fill="#fff" opacity="0.612"/><path d="M23.709-4.5A28.209,28.209,0,1,1-4.5,23.709,28.241,28.241,0,0,1,23.709-4.5Zm0,47.417A19.209,19.209,0,1,0,4.5,23.709,19.23,19.23,0,0,0,23.709,42.917Z" transform="translate(200.096 136.614) rotate(-45)" fill="#7a8293"/><path d="M20.985-2A22.979,22.979,0,0,1,37.239,37.239,22.986,22.986,0,1,1,12.038-.193,22.843,22.843,0,0,1,20.985-2Zm0,41.971A18.986,18.986,0,0,0,34.41,7.561,18.986,18.986,0,0,0,7.561,34.411,18.861,18.861,0,0,0,20.985,39.971Z" transform="translate(203.946 136.613) rotate(-45)" fill="#313e58"/></g></g></svg>