<svg xmlns="http://www.w3.org/2000/svg" width="192.674" height="192.674" viewBox="0 0 192.674 192.674"><g transform="translate(-1149.809 -938.979)"><circle cx="96.337" cy="96.337" r="96.337" transform="translate(1149.809 938.979)" fill="#fff"/><path d="M-220.352-3278.556s4.794,1.45,11.562-6.827,16.376,0,16.376,0-5.97,10.483-16.376,9.692S-220.352-3278.556-220.352-3278.556Z" transform="translate(1475.379 4335.824)" fill="#85cb85"/><path d="M.02,32.232s-1.11-11.206,13.123-17.974S28.4,8.24,32.546,0C32.565,42.31.02,32.232.02,32.232Z" transform="matrix(0.961, 0.276, -0.276, 0.961, 1292.937, 1045.29)" fill="#85cb85"/><path d="M-196.006-3308.341s-1-10.126,11.858-16.242,11.095-3.2,14.845-10.645C-173.185-3301.78-196.006-3308.341-196.006-3308.341Z" transform="translate(1483.952 4360.041)" fill="#85cb85"/><path d="M-231.609-3250.716H-247.17c-.007,0,24.341-24.588,28.831-46.828s-11.323-39.956-10.873-42.129l.25-1.209,1.2-.876,1.422,4.47a1.731,1.731,0,0,0,1-1.421c.008.33-.6-.156,8.552,12.536C-199.219-3294.988-231.173-3251.022-231.609-3250.716Z" transform="translate(1500.043 4362.216)" fill="#629d62"/><g transform="translate(1224.809 971.2) rotate(-9)"><g transform="translate(0 0)"><path d="M68.311,59.193a2.988,2.988,0,0,1-1.9-.683L-1.906,2.317a3,3,0,0,1-.411-4.223,3,3,0,0,1,4.223-.411L70.218,53.876a3,3,0,0,1-1.908,5.317Z" transform="translate(4.407 16.527)" fill="#edc95a"/><path d="M0,77.924a2.987,2.987,0,0,1-1.82-.617A3,3,0,0,1-2.383,73.1L54.911-1.822a3,3,0,0,1,4.205-.561,3,3,0,0,1,.561,4.205L2.383,76.746A3,3,0,0,1,0,77.924Z" transform="translate(9.916 6.611)" fill="#edc95a"/><path d="M0,33.852a3,3,0,0,1-2.786-1.887,3,3,0,0,1,1.671-3.9L76.013-2.785a3,3,0,0,1,3.9,1.671,3,3,0,0,1-1.671,3.9L1.114,33.636A2.992,2.992,0,0,1,0,33.852Z" transform="translate(0 28.647)" fill="#edc95a"/><path d="M66.113,11.815a3.026,3.026,0,0,1-.4-.027L-.4,2.974A3,3,0,0,1-2.974-.4,3,3,0,0,1,.4-2.974L66.505,5.841a3,3,0,0,1-.393,5.974Z" transform="translate(7.713 39.665)" fill="#edc95a"/><path d="M29.751,68.008a3,3,0,0,1-2.73-1.752L-2.728,1.248a3,3,0,0,1,1.48-3.976,3,3,0,0,1,3.976,1.48L32.477,63.759a3,3,0,0,1-2.726,4.249Z" transform="translate(22.036 8.815)" fill="#edc95a"/><path d="M0,76.822q-.09,0-.182-.005a3,3,0,0,1-2.816-3.173L1.413-.179A3,3,0,0,1,4.586-2.995,3,3,0,0,1,7.4.179L2.995,74A3,3,0,0,1,0,76.822Z" transform="translate(36.36 0)" fill="#edc95a"/></g><g transform="translate(20.634 19.908) rotate(8)"><circle cx="22.03" cy="22.03" r="22.03" transform="translate(0 0)" fill="#ffd964"/><path d="M17.443,19.059a5.507,5.507,0,0,1-2,4.439A9.927,9.927,0,0,1,9.851,25.5v3.562H7.471V25.573A19.316,19.316,0,0,1,.035,24.079V19.493a20.017,20.017,0,0,0,3.64,1.32,19.473,19.473,0,0,0,3.8.678V16.105l-1.164-.452a12.992,12.992,0,0,1-4.873-2.945A5.66,5.66,0,0,1,0,8.774,5.134,5.134,0,0,1,1.972,4.63a10.022,10.022,0,0,1,5.5-1.972V0h2.38V2.589a19.725,19.725,0,0,1,7.193,1.6L15.41,8.252A18.78,18.78,0,0,0,9.851,6.9v5.125a26.72,26.72,0,0,1,4.821,2.259,6.6,6.6,0,0,1,2.1,2.1A5.213,5.213,0,0,1,17.443,19.059Zm-5.229.261a1.562,1.562,0,0,0-.591-1.234,7.747,7.747,0,0,0-1.772-1.042v4.326Q12.213,20.97,12.213,19.319ZM5.229,8.774a1.649,1.649,0,0,0,.53,1.26,6.292,6.292,0,0,0,1.711,1.016V6.967Q5.229,7.3,5.229,8.774Z" transform="translate(12.946 7.54)" fill="#313e58"/></g></g><path d="M33.161,23.237a2,2,0,0,1-1.969-1.664,29.658,29.658,0,0,0-1.134-4.539,2,2,0,1,1,3.787-1.287,33.664,33.664,0,0,1,1.29,5.154,2,2,0,0,1-1.974,2.337ZM28.227,11.353a2,2,0,0,1-1.581-.773,19.51,19.51,0,0,0-3.171-3.226,2,2,0,0,1,2.508-3.116,23.515,23.515,0,0,1,3.822,3.889,2,2,0,0,1-1.578,3.227ZM17.762,3.94a2,2,0,0,1-.68-.12A29.046,29.046,0,0,0,12.571,2.6a2,2,0,1,1,.737-3.931A33.055,33.055,0,0,1,18.442.058a2,2,0,0,1-.68,3.881ZM0,2.428A2,2,0,0,1-1.967.783,2,2,0,0,1-.358-1.54a36.433,36.433,0,0,1,5.3-.451,2,2,0,0,1,.08,4A33.227,33.227,0,0,0,.355,2.4,2.013,2.013,0,0,1,0,2.428Z" transform="translate(1236.515 1072.771) rotate(4)" fill="#708daf"/><path d="M31.747,24.547a2,2,0,0,1-1.983-1.757,33.036,33.036,0,0,0-.891-4.625,2,2,0,1,1,3.86-1.049,37.044,37.044,0,0,1,1,5.187,2,2,0,0,1-1.742,2.228A2.021,2.021,0,0,1,31.747,24.547ZM27.6,12.346a2,2,0,0,1-1.675-.9,19.13,19.13,0,0,0-2.9-3.463,2,2,0,0,1,2.739-2.915,23.134,23.134,0,0,1,3.505,4.188,2,2,0,0,1-1.672,3.1ZM17.693,4.238a1.993,1.993,0,0,1-.767-.154A25.734,25.734,0,0,0,12.5,2.714a2,2,0,1,1,.846-3.91A29.739,29.739,0,0,1,18.462.391a2,2,0,0,1-.769,3.847ZM0,2.424A2,2,0,0,1-1.967.795,2,2,0,0,1-.372-1.542,33.92,33.92,0,0,1,4.948-2a2,2,0,0,1,.058,4,30.645,30.645,0,0,0-4.637.385A2.011,2.011,0,0,1,0,2.424Z" transform="matrix(0.934, 0.358, -0.358, 0.934, 1238.065, 1074.588)" fill="#708daf"/><path d="M26.75,27.32a2,2,0,0,1-2-1.914c-.05-1.159-.138-2.293-.261-3.371a2,2,0,0,1,3.974-.454c.134,1.171.229,2.4.283,3.653a2,2,0,0,1-1.912,2.084Zm-2-11.306a2,2,0,0,1-1.886-1.334,22.591,22.591,0,0,0-1.94-4.153,2,2,0,1,1,3.423-2.07,26.592,26.592,0,0,1,2.288,4.89,2,2,0,0,1-1.886,2.667ZM17.245,5.663A1.991,1.991,0,0,1,16.1,5.3a17.2,17.2,0,0,0-3.968-2.05A2,2,0,0,1,13.5-.506a21.2,21.2,0,0,1,4.89,2.529,2,2,0,0,1-1.147,3.64ZM-.006,2.42A2,2,0,0,1-1.954.855,2,2,0,0,1-.437-1.534,25.665,25.665,0,0,1,5-2a2,2,0,0,1-.052,4,22.155,22.155,0,0,0-4.515.369A2.006,2.006,0,0,1-.006,2.42Z" transform="translate(1235.307 1078.566) rotate(19)" fill="#708daf"/><path d="M2.041,51.036,29.933,3.779,27.069,0,0,35.366Z" transform="translate(1231.864 1048.818) rotate(67)" fill="#9183d8"/><path d="M2.041,47.256,29.933,0,0,31.587Z" transform="translate(1228.386 1050.295) rotate(67)" fill="#7468b4"/><path d="M27.452,41.687C26.092,41.07-5.776,26.375.925,9.11,2.665,4.628,5.5,1.757,9.358.579,17.881-2.026,28.121,4.99,28.552,5.29L26.048,8.9c-.089-.061-8.936-6.1-15.414-4.117C8.1,5.56,6.263,7.5,5.02,10.7.692,21.849,21.056,33.961,29.267,37.687Z" transform="translate(1209.402 993.092) rotate(67)" fill="#7468b4"/><path d="M5.339,17.573.2,12.947a.609.609,0,0,1-.2-.5L.966.561A.611.611,0,0,1,1.871.077,51.423,51.423,0,0,1,10.282,6.11a64.041,64.041,0,0,1,7.35,8.155.611.611,0,0,1-.361.96L5.879,17.716a.609.609,0,0,1-.539-.143Z" transform="translate(1247.583 1065.912) rotate(67)" fill="#9183d8"/><path d="M6.548,0H38.781C39.894,0,41.8.9,41.8,2.015l3.526,49.862a2.015,2.015,0,0,1-2.015,2.015H2.015A2.015,2.015,0,0,1,0,51.876L3.022,2.015C3.022.9,5.435,0,6.548,0Z" transform="translate(1218.086 1009.062) rotate(67)" fill="#7468b4"/></g></svg>