<svg xmlns="http://www.w3.org/2000/svg" width="192.674" height="192.674" viewBox="0 0 192.674 192.674"><g transform="translate(-1149.809 -1506.979)"><circle cx="96.337" cy="96.337" r="96.337" transform="translate(1149.809 1506.979)" fill="none"/><g transform="translate(0 3)"><g transform="translate(0.99 2.735)"><g transform="translate(1211.949 1516.755)"><path d="M99.228,61.181a115.712,115.712,0,0,0-5.312-26.058c-2.437-7.482-5.715-14.7-10.385-20.675S72.709,3.812,65.819,2.141A21.779,21.779,0,0,0,45.86,7.1a32.27,32.27,0,0,0-6.272,8.633c-8.143,15.376-9.963,34.166-7.63,51.9,5.065,1.2,5.915,1.912,30.57,1S99.228,61.181,99.228,61.181Z" transform="translate(-31.019 -1.499)" fill="#313e58"/><path d="M0,0,9.783,41.01h7.056L23.285,0Z" transform="translate(47.588 83.935) rotate(180)" fill="#e6b88e"/><path d="M.057,30.9S7.369,59.513,21.235,59.374,40.618,28.657,40.618,28.657,43-.575,21.235.009C-2.167-.538.057,30.9.057,30.9Z" transform="translate(9.772 5.161) rotate(-3)" fill="#efc6a1"/><path d="M40.147,41.859c-1.029-9.3-.441-16.537,2.67-25.313A71.748,71.748,0,0,0,51,16.6c1.046-.049.982-7.753.982-7.753s3.519,7.44,4.191,7.373A182.474,182.474,0,0,0,78.5,12.344c4.758,11.8,4.051,16.482,4.345,26.722,8.021-11.252,8.266-12.522,8.266-12.522S83.048,3.079,78.5-.639,69.149-10.713,56.631-9.92,40.806-1.926,37.436,4.39s-6.15,26.423-6.15,26.423Z" transform="translate(-28.346 11.052)" fill="#313e58"/><path d="M2204-581.8a3.892,3.892,0,0,1-2.028-1.267,15.723,15.723,0,0,1-1.62-2.016,32.069,32.069,0,0,1-1.7-2.752.947.947,0,0,1-.027-.846.948.948,0,0,1,.66-.53,64.174,64.174,0,0,1,10.591-1.415,6.045,6.045,0,0,1,3.155.592.946.946,0,0,1,.343.383c.01.021.02.042.029.064a7.906,7.906,0,0,1,1.251-.428,7.753,7.753,0,0,1,4.164.111,1.451,1.451,0,0,1,.041-.2.946.946,0,0,1,.274-.443c.45-.41,1.41-.994,4.517-1.318a56.862,56.862,0,0,1,5.729-.245h0c1.945,0,3.382.063,3.443.066a.947.947,0,0,1,.737.408.948.948,0,0,1,.122.833,31.774,31.774,0,0,1-1.18,3,15.448,15.448,0,0,1-1.234,2.26,3.84,3.84,0,0,1-1.776,1.593,13.167,13.167,0,0,1-3.593.394,24.358,24.358,0,0,1-3.183-.2,4.149,4.149,0,0,1-2.355-.769,5.737,5.737,0,0,1-1.263-2.844c-.024-.1-.059-.26-.1-.449a5.891,5.891,0,0,0-5.353.229c0,.288-.009.53-.016.671a5.7,5.7,0,0,1-.736,3.019c-.157.206-.636.831-3.54,1.529a21.315,21.315,0,0,1-4.483.633A5.4,5.4,0,0,1,2204-581.8Zm-3.032-5.819c.263.434.59.95.95,1.468,1.593,2.291,2.313,2.468,2.39,2.481a3.635,3.635,0,0,0,.566.035,19.156,19.156,0,0,0,3.868-.54,9.495,9.495,0,0,0,2.663-.9,5.143,5.143,0,0,0,.33-1.844,10.527,10.527,0,0,0-.027-1.638,7.1,7.1,0,0,0-1.83-.175A55.578,55.578,0,0,0,2200.972-587.615Zm20-.085a5.149,5.149,0,0,0,.659,1.76,5.3,5.3,0,0,0,1.5.328,23,23,0,0,0,2.779.161,11.256,11.256,0,0,0,2.975-.291c.029-.01.725-.275,1.9-2.836.263-.573.494-1.139.675-1.611-.563-.013-1.275-.024-2.066-.024-5.961,0-8.008.575-8.684.894.009.124.024.279.049.458a.953.953,0,0,1,.091.558C2220.875-588.115,2220.918-587.913,2220.969-587.7Z" transform="translate(-2184.252 624.903)" fill="#313e58"/></g><g transform="translate(1193 1589.405)"><rect width="23.711" height="67.161" transform="translate(40.506 0.79)" fill="#b1a8e3"/><path d="M1948.509,4954.952h-43.819c1.731-6.405,3.78-13.032,6.087-19.7,2.122-6.126,4.476-12.328,7-18.432A295.1,295.1,0,0,1,1931.988,4887h1.2c2.116.073,6.512.264,6.552.267l4.436,12.677c.2,6.576,1.113,21.456,4.334,55.007Z" transform="translate(-1895.039 -4887)" fill="#e88a2d"/><path d="M1949.059,4955.451h-45.022l.17-.63c1.734-6.415,3.785-13.053,6.1-19.729,2.123-6.13,4.481-12.341,7.009-18.459a295.606,295.606,0,0,1,14.237-29.876l.143-.257h1.509c2.049.07,6.476.262,6.565.267l.332.02,4.572,13.063,0,.077c.2,6.563,1.112,21.428,4.332,54.975Zm-43.715-1h42.614c-3.168-33.059-4.078-47.834-4.281-54.415l-4.3-12.285c-1.066-.046-4.431-.19-6.2-.251h-.9a295.618,295.618,0,0,0-14.044,29.515c-2.52,6.1-4.871,12.292-6.988,18.4C1909.021,4941.855,1907.036,4948.254,1905.344,4954.451Z" transform="translate(-1895.039 -4887)" fill="rgba(0,0,0,0)"/><path d="M2009.834,4954.951h-43.819c3.221-33.553,4.136-48.432,4.335-55.007l4.435-12.677.136-.005c2.9-.126,5.181-.219,6.416-.261h1.2a295.093,295.093,0,0,1,14.211,29.824c2.522,6.1,4.877,12.305,7,18.432,2.309,6.669,4.357,13.3,6.087,19.694Z" transform="translate(-1915.078 -4887)" fill="#e88a2d"/><path d="M2009.834,4955.451h-44.369l.053-.548c3.221-33.548,4.134-48.413,4.333-54.975l0-.077.026-.073,4.541-12.979.319-.03c.033,0,.124-.006.165-.007,2.809-.123,5.148-.218,6.417-.261h1.51l.143.257a295.644,295.644,0,0,1,14.237,29.876c2.523,6.106,4.881,12.316,7.009,18.459,2.313,6.681,4.364,13.318,6.1,19.728l.009.034.073.6Zm-43.268-1h42.615c-1.69-6.191-3.676-12.591-5.906-19.032-2.121-6.124-4.472-12.316-6.988-18.4a295.607,295.607,0,0,0-14.043-29.515h-.9c-1.238.042-3.489.134-6.2.252l-4.3,12.284C1970.645,4906.616,1969.734,4921.39,1966.566,4954.451Z" transform="translate(-1915.078 -4887)" fill="rgba(0,0,0,0)"/><path d="M1913.381,4954.951h-15.188a203.228,203.228,0,0,1,3.8-26.777c1.907-8.419,4.463-15.1,7.814-20.434a78.517,78.517,0,0,1,7.286-9.852,62.592,62.592,0,0,1,6.424-6.395,35.66,35.66,0,0,1,6.322-4.493l5.134,4.564a150.331,150.331,0,0,0-8.342,17.44c-2.659,6.442-5.053,13.174-7.117,20.008A218.491,218.491,0,0,0,1913.381,4954.951Z" transform="translate(-1892.13 -4887)" fill="#e88a2d"/><path d="M1897.646,4955.451l.049-.545a203.7,203.7,0,0,1,3.815-26.843c1.919-8.473,4.5-15.208,7.878-20.589a79.055,79.055,0,0,1,7.333-9.915,63.152,63.152,0,0,1,6.476-6.446,36.211,36.211,0,0,1,6.434-4.565l.3-.141,5.686,5.055-.21.361a152.121,152.121,0,0,0-8.307,17.372c-2.652,6.425-5.041,13.142-7.1,19.962a217.973,217.973,0,0,0-6.124,25.879l-.072.415Zm32.125-67.845a38.152,38.152,0,0,0-5.926,4.268,62.028,62.028,0,0,0-6.372,6.343,77.994,77.994,0,0,0-7.239,9.789c-3.321,5.284-5.856,11.917-7.749,20.278a200.363,200.363,0,0,0-3.745,26.167h14.22a219.079,219.079,0,0,1,6.08-25.582c2.068-6.852,4.468-13.6,7.133-20.055a156.308,156.308,0,0,1,8.167-17.146Z" transform="translate(-1892.13 -4887)" fill="rgba(0,0,0,0)"/><path d="M2020.644,4954.951h-16.086a218.509,218.509,0,0,0-6.138-25.938c-2.063-6.836-4.458-13.567-7.117-20.008a150.418,150.418,0,0,0-8.341-17.44L1988.1,4887a35.478,35.478,0,0,1,6.322,4.493,62.5,62.5,0,0,1,6.424,6.395,78.527,78.527,0,0,1,7.286,9.852c3.339,5.312,5.979,11.98,8.07,20.387a207.055,207.055,0,0,1,4.448,26.824Z" transform="translate(-1920.616 -4887)" fill="#e88a2d"/><path d="M2004.137,4955.451l-.072-.415a217.982,217.982,0,0,0-6.124-25.879c-2.058-6.817-4.447-13.534-7.1-19.962a150.3,150.3,0,0,0-8.309-17.376l-.21-.354,5.695-5.063.3.151a35.513,35.513,0,0,1,6.423,4.56,63.035,63.035,0,0,1,6.476,6.446,79.028,79.028,0,0,1,7.332,9.915c3.368,5.357,6.028,12.074,8.132,20.532a207.536,207.536,0,0,1,4.46,26.889l.062.556Zm-20.538-63.784a158.143,158.143,0,0,1,8.167,17.146c2.666,6.459,5.066,13.206,7.133,20.055a219.131,219.131,0,0,1,6.08,25.583h15.107a204.379,204.379,0,0,0-4.374-26.2c-2.078-8.354-4.7-14.975-8.008-20.241a77.991,77.991,0,0,0-7.239-9.789,61.972,61.972,0,0,0-6.372-6.343,38.128,38.128,0,0,0-5.926-4.268Z" transform="translate(-1920.616 -4887)" fill="rgba(0,0,0,0)"/><g transform="translate(0 11.661)"><path d="M8.548,58.681H7.289L1.008,65.64a1.552,1.552,0,0,0,1.123,2.6H103.768a1.551,1.551,0,0,0,1.123-2.6l-5.648-6.478H98.019" transform="translate(-0.004 -0.356)" fill="#acb1bc"/><rect width="105.893" height="67.879" transform="translate(0 0.001)" fill="none"/><path d="M99.929,65.941H6.017a1.491,1.491,0,0,1,0-2.982H99.929a1.491,1.491,0,0,1,0,2.982" transform="translate(-0.027 -0.382)" fill="#7a8293"/><rect width="105.893" height="67.879" transform="translate(0 0.001)" fill="none"/><path d="M99.9,60.2H5.989A1.491,1.491,0,0,1,4.5,58.834l-4.5-53.6A4.95,4.95,0,0,1,4.948,0h95.994a4.95,4.95,0,0,1,4.945,5.184l-4.5,53.649A1.492,1.492,0,0,1,99.9,60.2m-1.371-2.982Z" transform="translate(0 0)" fill="#acb1bc"/><path d="M20.344,1.5l22.2,57.218H6L1.578,6.033S.391,1.5,4.958,1.5H20.344Z" transform="translate(2.108 -0.009)" fill="#e4e6ea"/><path d="M54.888,37.995a6.069,6.069,0,1,1,6.069-6.07,6.077,6.077,0,0,1-6.069,6.07m0-9.157a3.088,3.088,0,1,0,3.087,3.087,3.091,3.091,0,0,0-3.087-3.087" transform="translate(-0.296 -0.157)" fill="#7a8293"/></g></g></g></g></g></svg>