<svg xmlns="http://www.w3.org/2000/svg" width="192.674" height="192.674" viewBox="0 0 192.674 192.674"><g transform="translate(-2038 -1168)"><circle cx="96.337" cy="96.337" r="96.337" transform="translate(2038 1168)" fill="none"/><g transform="translate(2.961 4.082)"><g transform="translate(2104.602 1182)"><g transform="translate(0 0)"><path d="M100.5,14.614A14.614,14.614,0,1,1,85.886,0,14.614,14.614,0,0,1,100.5,14.614" transform="translate(-71.272)" fill="#edc95a"/><path d="M99.4,15.76A12.363,12.363,0,1,1,87.031,3.4,12.364,12.364,0,0,1,99.4,15.76" transform="translate(-72.418 -1.145)" fill="#ffd964"/></g><path d="M9.021,9.857a2.848,2.848,0,0,1-1.033,2.3A5.134,5.134,0,0,1,5.095,13.19v1.842H3.864V13.226a9.99,9.99,0,0,1-3.846-.773V10.082a10.353,10.353,0,0,0,1.882.683,10.071,10.071,0,0,0,1.963.35V8.329l-.6-.234A6.719,6.719,0,0,1,.741,6.573,2.927,2.927,0,0,1,0,4.538,2.655,2.655,0,0,1,1.02,2.395a5.183,5.183,0,0,1,2.844-1.02V0H5.095V1.339a10.2,10.2,0,0,1,3.72.827l-.845,2.1a9.713,9.713,0,0,0-2.875-.7V6.218A13.819,13.819,0,0,1,7.588,7.386,3.411,3.411,0,0,1,8.675,8.473,2.7,2.7,0,0,1,9.021,9.857Zm-2.7.135a.808.808,0,0,0-.306-.638,4.007,4.007,0,0,0-.917-.539v2.237Q6.317,10.845,6.317,9.992ZM2.7,4.538a.853.853,0,0,0,.274.651,3.254,3.254,0,0,0,.885.526V3.6Q2.7,3.774,2.7,4.538Z" transform="matrix(1, -0.017, 0.017, 1, 9.742, 7.95)" fill="#313e58"/></g><path d="M11.709,186.808s-4.729,14.45-3.509,16.6,4.729,6.834,13.73,4.1c3.814-3.32,2.289-10.544,4.272-8.787s-14.493-11.911-14.493-11.911" transform="translate(2079.842 1119.096)" fill="#e88a2d"/><path d="M58.634,205.792s2.108,1.357,2.389,11.521c.141,5.077,12.3,5.314,17.149,2.538,4.779-2.734-.14-15.426,3.8-15.426,2.686,0-23.334,1.367-23.334,1.367" transform="translate(2068.952 1112.244)" fill="#e88a2d"/><path d="M112.649,195.941s1.595,1.435,1.808,12.181c.106,5.368,9.3,5.619,12.97,2.684,3.615-2.89-.106-16.311,2.87-16.311,2.031,0-17.648,1.446-17.648,1.446" transform="translate(2042.023 1115.139)" fill="#e88a2d"/><path d="M109.953,73.867s7.435-6.627,10.991-8.89,10.586-6.627,14.627-3.232-10.264,16-10.264,16Z" transform="translate(2041.586 1165.821)" fill="#eea55c"/><path d="M126.8,76.758s8.566-14.708,14.223-14.547-.808,25.053-.808,25.053Z" transform="translate(2035.402 1165.193)" fill="#e88a2d"/><path d="M103,116.847s2.909-16-12.446-32.487S38.022,70.945,31.072,73.531s-20.2,7.434-28.123,23.6-3.576,40.536,6.142,50.1c4.547,5.161,16.971,16.971,52.691,11.476S102.027,135.6,103,116.847" transform="translate(2082 1161.793)" fill="#f1b981"/><path d="M150.578,138.966s-.323-2.586-4.283-6.3a18.343,18.343,0,0,0-6.546-3.556s-13.727.19-14.442,12.861,2.966,15.909,4.744,17.364,6.142,1.131,6.142,1.131,10.667-5.01,12.284-7.434,2.1-14.062,2.1-14.062" transform="translate(2035.711 1140.643)" fill="#e88a2d"/><path d="M138.293,147.489s0-6.465,7.92-8.728,8.889,3.556,8.889,3.556,3.233,12.607-4.687,15.678-11.476-1.616-12.122-10.506" transform="translate(2031.186 1137.293)" fill="#f1b981"/><path d="M118.566,113.791c.6,2.544-.268,4.925-1.937,5.317s-3.506-1.351-4.105-3.9.268-4.925,1.937-5.318,3.506,1.352,4.105,3.9" transform="translate(2040.713 1148.917)" fill="#313e58"/><path d="M160.529,151c-.067,1.419-.876,2.533-1.807,2.489s-1.629-1.23-1.562-2.649.876-2.532,1.807-2.488,1.629,1.229,1.562,2.648" transform="translate(2024.266 1133.584)" fill="#cc7a29"/><path d="M148.593,153.454c.2,1.747-.564,3.27-1.709,3.4s-2.237-1.177-2.438-2.923.564-3.269,1.709-3.4,2.237,1.177,2.439,2.923" transform="translate(2028.942 1132.786)" fill="#cc7a29"/><path d="M151.244,107.391c.528,2.244.091,4.266-.978,4.518s-2.362-1.363-2.89-3.608-.091-4.266.978-4.518,2.362,1.363,2.89,3.607" transform="translate(2025.316 1151.484)" fill="#313e58"/><path d="M47.307,78.645S68.2,74.272,78.89,78.2c2.722-1.563,2.037-3.052,2.037-3.052s-11.912-3.431-30.334.368c-3.563.92-3.286,3.13-3.286,3.13" transform="translate(2064.576 1160.967)" fill="#ad641c"/><g transform="translate(2086.06 1197.091)"><g transform="translate(0 0)"><path d="M100.5,14.614A14.614,14.614,0,1,1,85.886,0,14.614,14.614,0,0,1,100.5,14.614" transform="translate(-71.272)" fill="#edc95a"/><path d="M99.4,15.76A12.363,12.363,0,1,1,87.031,3.4,12.364,12.364,0,0,1,99.4,15.76" transform="translate(-72.418 -1.145)" fill="#ffd964"/></g><path d="M9.021,9.857a2.848,2.848,0,0,1-1.033,2.3A5.134,5.134,0,0,1,5.095,13.19v1.842H3.864V13.226a9.99,9.99,0,0,1-3.846-.773V10.082a10.353,10.353,0,0,0,1.882.683,10.071,10.071,0,0,0,1.963.35V8.329l-.6-.234A6.719,6.719,0,0,1,.741,6.573,2.927,2.927,0,0,1,0,4.538,2.655,2.655,0,0,1,1.02,2.395a5.183,5.183,0,0,1,2.844-1.02V0H5.095V1.339a10.2,10.2,0,0,1,3.72.827l-.845,2.1a9.713,9.713,0,0,0-2.875-.7V6.218A13.819,13.819,0,0,1,7.588,7.386,3.411,3.411,0,0,1,8.675,8.473,2.7,2.7,0,0,1,9.021,9.857Zm-2.7.135a.808.808,0,0,0-.306-.638,4.007,4.007,0,0,0-.917-.539v2.237Q6.317,10.845,6.317,9.992ZM2.7,4.538a.853.853,0,0,0,.274.651,3.254,3.254,0,0,0,.885.526V3.6Q2.7,3.774,2.7,4.538Z" transform="matrix(1, -0.017, 0.017, 1, 9.742, 7.95)" fill="#313e58"/></g><g transform="translate(2114.116 1217.216)"><path d="M55.864,66.937a12.364,12.364,0,1,1,22.413-.267c.828.108,1.6.225,2.316.344a14.615,14.615,0,0,0-27.1-10.953,14.155,14.155,0,0,0-1.065,4.669,14.545,14.545,0,0,0,1.156,6.645c1.069-.252,2.192-.424,2.281-.437" transform="translate(-52.399 -47.001)" fill="#edc95a"/><path d="M69.013,50.422a12.44,12.44,0,0,0-12,17.784,84.368,84.368,0,0,1,22.605-.269A12.415,12.415,0,0,0,69.013,50.422" transform="translate(-53.646 -48.247)" fill="#ffd964"/><path d="M-11880.793-7587.253a10.372,10.372,0,0,0,1.9.65,10.06,10.06,0,0,0,1.967.317l-.047-2.787-.605-.221a6.7,6.7,0,0,1-2.547-1.48,2.933,2.933,0,0,1-.777-2.023,2.662,2.662,0,0,1,.982-2.16,5.183,5.183,0,0,1,2.826-1.07l-.025-1.375,1.232-.02.023,1.34a10.132,10.132,0,0,1,3.732.762l-.807,2.116a9.771,9.771,0,0,0-2.885-.651l.041,2.65a13.611,13.611,0,0,1,2.516,1.125,3.348,3.348,0,0,1,1.105,1.067,2.68,2.68,0,0,1,.371,1.378,2.956,2.956,0,0,1-.473,1.729c-2.57-.084-5.412-.056-8.5.148Zm5.094.88c.814-.151,1.215-.512,1.205-1.081a.806.806,0,0,0-.318-.631,3.913,3.913,0,0,0-.926-.522Zm-2.5-6.471a.846.846,0,0,0,.285.648,3.215,3.215,0,0,0,.895.509l-.039-2.11Q-11878.215-7593.606-11878.2-7592.844Z" transform="translate(11890.943 7605.005)" fill="#313e58"/><path d="M-11881.259-7585.223l-.048-2.826.728.343a9.949,9.949,0,0,0,1.8.617,11.247,11.247,0,0,0,1.337.257l-.032-1.89-.282-.1a7.109,7.109,0,0,1-2.742-1.61,3.435,3.435,0,0,1-.911-2.353,3.154,3.154,0,0,1,1.157-2.55,5.382,5.382,0,0,1,2.644-1.123l-.026-1.435,2.232-.035.024,1.369a10.46,10.46,0,0,1,3.436.78l.443.188-1.157,3.037-.47-.183a9.411,9.411,0,0,0-2.194-.564l.027,1.747a12.653,12.653,0,0,1,2.291,1.056,3.854,3.854,0,0,1,1.264,1.23,3.18,3.18,0,0,1,.442,1.628,3.463,3.463,0,0,1-.557,2.015l-.154.231-.278-.009c-.892-.029-1.8-.044-2.707-.044-1.886,0-3.818.064-5.745.192Zm.979-1.277,0,.211.536-.03Q-11880.021-7586.406-11880.28-7586.5Zm5.891.053c.617,0,1.233.016,1.844.034a2.559,2.559,0,0,0,.253-1.213,2.174,2.174,0,0,0-.3-1.125,2.878,2.878,0,0,0-.946-.905,13.2,13.2,0,0,0-2.418-1.077l-.323-.118-.006-.345-.05-3.195.543.038a10.272,10.272,0,0,1,2.559.513l.455-1.193a9.975,9.975,0,0,0-3.1-.547l-.479-.012-.023-1.32-.232,0,.024,1.327-.45.053a4.731,4.731,0,0,0-2.559.954,2.165,2.165,0,0,0-.808,1.772,2.431,2.431,0,0,0,.644,1.69,6.276,6.276,0,0,0,2.356,1.353l.924.337.05,2.988.232,0-.052-2.933.712.307a4.342,4.342,0,0,1,1.046.6,1.3,1.3,0,0,1,.5,1.009A1.379,1.379,0,0,1-11874.39-7586.448Zm-.834-1.323.013.708a.4.4,0,0,0,.217-.383.308.308,0,0,0-.135-.253C-11875.158-7587.723-11875.189-7587.747-11875.224-7587.771Zm-1.284-3.161-.706-.294a3.622,3.622,0,0,1-1.038-.6,1.348,1.348,0,0,1-.449-1.011c-.009-.444.183-1.226,1.559-1.454l.571-.095Z" transform="translate(11890.943 7605.005)" fill="rgba(0,0,0,0)"/></g><path d="M85.442,98.605s4.2-16.486,15.839-17.779C99.18,74.2,93.523,69.35,93.523,69.35s-7.6-1.778-8.081,29.255" transform="translate(2050.581 1162.58)" fill="#e88a2d"/><path d="M86.512,69.486s-.161-1.536-5.253-.566S68.814,80.315,66.389,89.851s11.96,8.485,11.96,8.485,3.394-25.861,8.162-28.85" transform="translate(2057.673 1162.847)" fill="#eea55c"/></g></g></svg>