<svg xmlns="http://www.w3.org/2000/svg" width="192.674" height="192.674" viewBox="0 0 192.674 192.674"><g transform="translate(-699.838 -944)"><g transform="translate(0 0.494)"><circle cx="96.337" cy="96.337" r="96.337" transform="translate(699.838 943.506)" fill="none"/><g transform="translate(0 -1)"><g transform="translate(746.894 969.032)"><path d="M37.677,113.039c-11.88.02-23.612.017-26.116-.071l-1.635-.005s-3.72.586-3.917-1.371C5.825,109.751.632,30.31,0,20.668a1.176,1.176,0,0,1,.871-1.212c1.621-.437,5.276-1.365,10.283-2.312a84.132,84.132,0,0,1,11.508-2.126V0H53.6V15.127a83.3,83.3,0,0,1,10.6,2.017c5.007.947,8.662,1.875,10.286,2.312a1.178,1.178,0,0,1,.868,1.212c-.632,9.641-5.822,89.083-6.006,90.923-.2,1.957-3.917,1.371-3.917,1.371l-1.635.005c-1.734.061-7.893.081-15.465.081C44.972,113.048,41.331,113.044,37.677,113.039Z" transform="translate(1.89 22.56)" fill="#eff0f2"/><path d="M39.512,118.561c11.882.02,31.725-1.106,31.921-3.1.158-1.605,3.981-61.188,5.477-84.532H2.619c1.5,23.345,5.319,82.927,5.477,84.532.2,2,19.535,3.124,31.416,3.1" transform="translate(0.215 20.414)" fill="#b1a8e3"/><path d="M-11876.516-7574.429h-.11l-10.425-1.664s-10.931-10.775-10.949-18.678a6.882,6.882,0,0,1,.572-2.859.135.135,0,0,1-.02-.063.122.122,0,0,1,.017-.062c.458-.83,10.659-1.245,20.86-1.245,10.7,0,21.407.457,20.858,1.371a6.851,6.851,0,0,1,.572,2.859c-.019,7.9-10.949,18.678-10.949,18.678l-10.424,1.664Z" transform="translate(11916.415 7599)" fill="#eff0f2"/><path d="M-11876.394-7572.929h-.352l-.117-.019-10.9-1.74-.342-.337a62.173,62.173,0,0,1-5.619-6.549c-3.825-5.149-5.769-9.588-5.777-13.193a8.522,8.522,0,0,1,.569-3.159,1.623,1.623,0,0,1,.19-.561c.451-.81,1.409-1.073,3.132-1.3,1.179-.156,2.818-.29,4.874-.4,3.781-.2,8.812-.313,14.164-.313s10.377.111,14.158.313c2.056.11,3.7.244,4.876.4,1.721.227,2.679.489,3.133,1.292a1.631,1.631,0,0,1,.2.579,8.485,8.485,0,0,1,.565,3.151c-.009,3.6-1.952,8.043-5.777,13.192a62.173,62.173,0,0,1-5.619,6.549l-.342.337-.475.076Zm-9.935-4.568,9.759,1.558,9.758-1.558a61.534,61.534,0,0,0,5.01-5.9c3.37-4.544,5.155-8.479,5.162-11.379a5.614,5.614,0,0,0-.3-1.879,47.211,47.211,0,0,0-6.484-.582c-3.613-.171-8.284-.266-13.15-.266s-9.536.095-13.149.266a47.19,47.19,0,0,0-6.484.582,5.671,5.671,0,0,0-.3,1.879c.007,2.9,1.792,6.834,5.162,11.378A61.6,61.6,0,0,0-11886.328-7577.5Z" transform="translate(11916.415 7599)" fill="#abb1bd"/><path d="M49.484,14.542c0,1.238-1.5,2.251-3.337,2.251H17.775c-1.834,0-3.335-1.013-3.335-2.251s1.5-2.251,3.335-2.251H46.147c1.836,0,3.337,1.013,3.337,2.251" transform="translate(7.752 8.114)" fill="#abb1bd"/><path d="M46.147,18.793H17.775c-2.992,0-5.335-1.867-5.335-4.251s2.343-4.251,5.335-4.251H46.147c2.993,0,5.337,1.867,5.337,4.251S49.139,18.793,46.147,18.793ZM16.654,14.542a2.414,2.414,0,0,0,1.121.251H46.147a2.419,2.419,0,0,0,1.123-.251,2.419,2.419,0,0,0-1.123-.251H17.775A2.414,2.414,0,0,0,16.654,14.542Z" transform="translate(7.752 8.114)" fill="#abb1bd"/><path d="M36.133,65.2c9.116.006,25.535-.349,25.686-.98.12-.507,1.859-19.315,3.007-26.684h-57c1.147,7.369,2.329,26.177,2.45,26.684.149.63,16.739.986,25.855.98" transform="translate(3.505 29.953)" fill="#9183d8"/><path d="M-11858.376-7483.223c6.366,0,14.027-.307,19.994-.8,3.334-.274,5.958-.59,7.8-.939l.018,0c.269-.049.5-.1.721-.144l.271-.059.277-.009a3.418,3.418,0,0,0,1.127-.188c.283-.114.293-.212.3-.263.124-1.294,2.2-32.748,5.852-88.568l.152-2.318a.076.076,0,0,0-.052-.064c-1.683-.453-5.238-1.353-10.14-2.285l-.1-.019-.1-.025a81.144,81.144,0,0,0-9.239-1.815l-2.587-.359V-7596h-28.709v14.918l-2.587.359a81.283,81.283,0,0,0-9.24,1.815l-.1.025-.1.019c-4.9.932-8.457,1.832-10.142,2.285a.075.075,0,0,0-.049.064c0,.071.046.7.118,1.8,3.56,54.481,5.76,87.784,5.886,89.089,0,.048.015.148.3.262a3.419,3.419,0,0,0,1.087.186l.275.01.269.061c.246.055.473.1.693.143l.023,0a76.422,76.422,0,0,0,7.623.938c5.845.494,13.405.8,19.73.8h.624m0,3h-.624c-6.4,0-14.054-.311-19.983-.812a79.275,79.275,0,0,1-7.94-.981c-.287-.053-.556-.11-.807-.167a6.337,6.337,0,0,1-2.075-.395,3.29,3.29,0,0,1-2.177-2.755c-.2-2.013-5.953-90.1-6.012-90.986a3.07,3.07,0,0,1,2.264-3.158c1.727-.465,5.36-1.384,10.359-2.335a84.027,84.027,0,0,1,9.582-1.883V-7599h34.709v15.306a83.9,83.9,0,0,1,9.582,1.883c5,.951,8.633,1.87,10.359,2.335a3.072,3.072,0,0,1,2.265,3.158l-.152,2.318c-2.592,39.643-5.713,87.207-5.859,88.668a3.292,3.292,0,0,1-2.178,2.755,6.389,6.389,0,0,1-2.14.4q-.385.084-.82.164c-1.951.37-4.682.7-8.112.981C-11844.185-7480.533-11851.939-7480.223-11858.376-7480.223Z" transform="translate(11898.001 7620.306)" fill="#abb1bd"/></g><path d="M121.859,76.559a7.931,7.931,0,0,0-3.068-5.194L78.914,41.316a7.8,7.8,0,0,0-5.795-1.485L45.927,43.655a7.867,7.867,0,0,0-6.68,8.864l3.822,27.193a7.833,7.833,0,0,0,3.067,5.2l39.877,30.048a7.8,7.8,0,0,0,5.795,1.483,7.668,7.668,0,0,0,5.156-3.063l23.373-31.017a7.673,7.673,0,0,0,1.523-5.8M55.412,62.705a5.884,5.884,0,1,1,5.009-6.646,5.884,5.884,0,0,1-5.009,6.646" transform="translate(751.789 957.819)" fill="#85cb85"/><path d="M90.695,118.519a9.856,9.856,0,0,1-5.883-1.963L44.934,86.507a9.833,9.833,0,0,1-3.847-6.52L37.266,52.8a9.867,9.867,0,0,1,8.378-11.122l27.194-3.824a9.8,9.8,0,0,1,7.276,1.866l39.88,30.051a9.873,9.873,0,0,1,3.844,6.5,9.721,9.721,0,0,1-1.913,7.3l-23.358,31a9.716,9.716,0,0,1-6.484,3.849A9.838,9.838,0,0,1,90.695,118.519ZM74.227,41.752a5.823,5.823,0,0,0-.824.059H73.4L46.206,45.636a5.867,5.867,0,0,0-4.978,6.61l3.821,27.188a5.872,5.872,0,0,0,2.284,3.872l.006,0,39.877,30.048a5.8,5.8,0,0,0,4.306,1.1l.017,0a5.7,5.7,0,0,0,3.811-2.264l.015-.021,23.388-31.037a5.7,5.7,0,0,0,1.126-4.289,5.9,5.9,0,0,0-2.295-3.886L77.71,42.913A5.84,5.84,0,0,0,74.227,41.752ZM54.586,64.763A7.885,7.885,0,0,1,53.5,49.071a7.966,7.966,0,0,1,1.1-.077,7.885,7.885,0,0,1,1.09,15.692A7.966,7.966,0,0,1,54.586,64.763Zm.014-11.77a3.953,3.953,0,0,0-.548.038,3.883,3.883,0,0,0-3.305,4.386,3.9,3.9,0,0,0,3.839,3.345,3.952,3.952,0,0,0,.548-.038,3.885,3.885,0,0,0-.534-7.731Z" transform="translate(751.789 957.819)" fill="#313e58"/><path d="M86.385,87.1a6.655,6.655,0,0,1-5.109,2.92,12,12,0,0,1-6.9-2.015l-2.531,3.481L69.517,89.8,72,86.381a23.355,23.355,0,0,1-6.208-6.75l3.265-4.489a24.127,24.127,0,0,0,2.62,3.879,23.552,23.552,0,0,0,3.23,3.362l3.827-5.261-.817-1.269a15.7,15.7,0,0,1-2.671-6.345,6.846,6.846,0,0,1,1.4-4.868,6.2,6.2,0,0,1,4.87-2.652,12.114,12.114,0,0,1,6.776,1.986l1.894-2.6,2.327,1.693L90.669,65.6a23.831,23.831,0,0,1,5.9,6.68L92.081,75.09a22.668,22.668,0,0,0-4.473-5.278l-3.645,5.011a32.338,32.338,0,0,1,3.109,5.638,7.979,7.979,0,0,1,.558,3.548A6.305,6.305,0,0,1,86.385,87.1m-5.3-3.464a1.887,1.887,0,0,0,.3-1.626,9.393,9.393,0,0,0-.991-2.279L77.32,83.962Q79.911,85.252,81.086,83.638Zm.669-15.279a2,2,0,0,0-.377,1.608,7.612,7.612,0,0,0,.95,2.211l2.9-3.992q-2.426-1.273-3.476.172" transform="translate(752.301 958.528)" fill="#313e58"/></g><path d="M12688.367,8615.377a34.145,34.145,0,0,1-5.224-.39,27.6,27.6,0,0,1-10.738-3.977,22.529,22.529,0,0,1-7.707-7.937l2.68-1.348,0,0a14.52,14.52,0,0,0,1.585,2.291,21.873,21.873,0,0,0,5.2,4.561,24.688,24.688,0,0,0,9.557,3.466,38.166,38.166,0,0,0,14.607-.935c3.467-2.566,2.979-4.669,2.956-4.759.008.028.014.044.014.044l2.852-.932a5.163,5.163,0,0,1-.062,2.877,10.229,10.229,0,0,1-4.247,5.379l-.232.165-.276.068A45.734,45.734,0,0,1,12688.367,8615.377Z" transform="translate(-11897 -7598)" fill="#2e3e5a"/></g></g></svg>