<svg xmlns="http://www.w3.org/2000/svg" width="192.674" height="192.674" viewBox="0 0 192.674 192.674"><g transform="translate(-171.809 -905.979)"><circle cx="96.337" cy="96.337" r="96.337" transform="translate(171.809 905.979)" fill="#fff"/><g transform="translate(0.752 0.224)"><path d="M78.515,9.492,50.733.04A.4.4,0,0,0,50.608.02L.387,0A.386.386,0,0,0,.114.114.382.382,0,0,0,0,.386L.224,115.213a.38.38,0,0,0,.141.294c4.286,3.535,15.606,13.013,16.5,14.414a.387.387,0,0,0,.328.178.358.358,0,0,0,.108-.016.384.384,0,0,0,.279-.37L17.466,10.242H78.39a.385.385,0,0,0,.125-.75" transform="translate(220.703 938.547)" fill="#9183d8"/><path d="M77.289,9.05H17.152a1.033,1.033,0,0,0-1.033,1.033V129.03a1.032,1.032,0,0,0,1.033,1.033H77.289a1.032,1.032,0,0,0,1.033-1.033V10.083A1.033,1.033,0,0,0,77.289,9.05" transform="translate(221.238 938.847)" fill="#b1a8e3"/><rect width="43.777" height="50.783" transform="translate(246.569 961.899)" fill="#e4e6ea"/><path d="M.2,2.556a2.2,2.2,0,0,1-.014-4.4L24.476-2A2.2,2.2,0,1,1,24.5,2.4L.214,2.556Z" transform="translate(275.773 993.771)" fill="#7a8293"/><path d="M45.974,52.012H17.164L1.154,40.917a2.124,2.124,0,0,0-.836-.34l.009,4.829L15.277,55.765a2.134,2.134,0,0,0,1.217.379h29.48a2.067,2.067,0,1,0,0-4.132" transform="translate(220.713 939.891)" fill="#7a8293"/><path d="M43.777,1.5H0A1.5,1.5,0,0,1-1.5,0,1.5,1.5,0,0,1,0-1.5H43.777a1.5,1.5,0,0,1,1.5,1.5A1.5,1.5,0,0,1,43.777,1.5Z" transform="translate(246.238 1021.714)" fill="#e4e6ea"/><path d="M34.049,1.5H0A1.5,1.5,0,0,1-1.5,0,1.5,1.5,0,0,1,0-1.5H34.049a1.5,1.5,0,0,1,1.5,1.5A1.5,1.5,0,0,1,34.049,1.5Z" transform="translate(246.238 1032.325)" fill="#e4e6ea"/><path d="M111.944,72.146a6.98,6.98,0,0,0-2.7-4.572l-35.1-26.445a6.869,6.869,0,0,0-5.1-1.307L45.117,43.187a6.924,6.924,0,0,0-5.879,7.8L42.6,74.921a6.894,6.894,0,0,0,2.7,4.573l35.1,26.445a6.862,6.862,0,0,0,5.1,1.3,6.748,6.748,0,0,0,4.538-2.7l20.57-27.3a6.753,6.753,0,0,0,1.341-5.106M53.465,59.953A5.179,5.179,0,1,1,57.873,54.1a5.178,5.178,0,0,1-4.408,5.849" transform="translate(223.521 937.996)" fill="#85cb85"/><path d="M84.517,109.314a8.916,8.916,0,0,1-5.322-1.776L44.1,81.092a8.951,8.951,0,0,1-3.479-5.9L37.257,51.267a8.924,8.924,0,0,1,7.577-10.06l23.934-3.366a8.867,8.867,0,0,1,6.581,1.688l35.1,26.448a8.927,8.927,0,0,1,3.476,5.882,8.8,8.8,0,0,1-1.73,6.605L91.638,105.742a8.792,8.792,0,0,1-5.867,3.482A8.9,8.9,0,0,1,84.517,109.314ZM70.024,41.752a4.883,4.883,0,0,0-.691.049h-.006L45.4,45.168a4.933,4.933,0,0,0-4.177,5.547l3.363,23.928A4.927,4.927,0,0,0,46.5,77.892l.006,0,35.1,26.445a4.863,4.863,0,0,0,3.611.923l.017,0a4.771,4.771,0,0,0,3.193-1.9l.015-.021,20.586-27.318a4.777,4.777,0,0,0,.943-3.594,4.951,4.951,0,0,0-1.927-3.263L72.945,42.726A4.9,4.9,0,0,0,70.024,41.752ZM52.738,62a7.179,7.179,0,0,1-.993-14.288,7.252,7.252,0,0,1,1.005-.07,7.179,7.179,0,0,1,.993,14.288A7.252,7.252,0,0,1,52.738,62Zm.012-10.358a3.237,3.237,0,0,0-.449.032,3.177,3.177,0,0,0-2.7,3.589A3.189,3.189,0,0,0,52.738,58a3.237,3.237,0,0,0,.449-.032,3.179,3.179,0,0,0-.436-6.327Z" transform="translate(223.521 937.996)" fill="#313e58"/><path d="M83.916,84.016a5.857,5.857,0,0,1-4.5,2.57,10.564,10.564,0,0,1-6.071-1.773L71.12,87.876l-2.05-1.489,2.185-3a20.555,20.555,0,0,1-5.464-5.94l2.874-3.95a21.234,21.234,0,0,0,2.306,3.414,20.728,20.728,0,0,0,2.843,2.959l3.368-4.63-.719-1.116a13.816,13.816,0,0,1-2.351-5.584,6.025,6.025,0,0,1,1.228-4.284,5.46,5.46,0,0,1,4.286-2.334,10.662,10.662,0,0,1,5.963,1.747l1.667-2.292,2.048,1.49-1.62,2.228a20.973,20.973,0,0,1,5.193,5.879l-3.95,2.476A19.95,19.95,0,0,0,84.992,68.8l-3.208,4.41a28.46,28.46,0,0,1,2.736,4.962,7.022,7.022,0,0,1,.491,3.122,5.549,5.549,0,0,1-1.1,2.722m-4.663-3.048a1.661,1.661,0,0,0,.265-1.431,8.267,8.267,0,0,0-.872-2.006l-2.707,3.722Q78.218,82.388,79.252,80.968Zm.589-13.446a1.757,1.757,0,0,0-.332,1.416,6.7,6.7,0,0,0,.836,1.946L82.9,67.37q-2.135-1.12-3.059.152" transform="translate(222.441 936.028)" fill="#313e58"/><path d="M44.864,58.1a16.685,16.685,0,0,1-8.737-2.3,2.2,2.2,0,0,1,2.427-3.669c.227.146,5.15,3.217,12.3.357a2.2,2.2,0,0,1,1.635,4.085A20.423,20.423,0,0,1,44.864,58.1" transform="translate(223.119 940.295)" fill="#7a8293"/></g></g></svg>