<svg xmlns="http://www.w3.org/2000/svg" width="192.674" height="192.674" viewBox="0 0 192.674 192.674"><g transform="translate(-56 -159.029)"><circle cx="96.337" cy="96.337" r="96.337" transform="translate(56 159.029)" fill="#fff"/><path d="M169.1,64.491h-16.54a3.8,3.8,0,0,1-3.8-3.793V58.365a3.8,3.8,0,0,1,3.8-3.793H169.1a3.8,3.8,0,0,1,3.8,3.793V60.7a3.8,3.8,0,0,1-3.8,3.793" transform="translate(-44.447 132.124)" fill="#313e58"/><path d="M-11844.826-7416.017v-144.4h14.633v150.1A95.733,95.733,0,0,1-11844.826-7416.017Z" transform="translate(11954 7758.029)" fill="#313e58"/><path d="M-11893.729-7540.532c-1.577,0-3.019-1.288-3.752-3.365-.158-.444-.049-51.6,0-51.735.733-2.078,2.175-3.369,3.752-3.369h131.428a4.043,4.043,0,0,1,3.386,2.5l16.483,22.9a8.946,8.946,0,0,1,0,7.66l-16.483,22.9a4.035,4.035,0,0,1-3.386,2.5Z" transform="translate(11974.914 7816.002)" fill="#85cb85"/><path d="M-11762.3-7540.032h-131.428c-1.8,0-3.418-1.417-4.224-3.7-.046-.13-.083-.234-.1-8.417-.014-5.605-.01-12.737,0-17.732.006-6.083.019-12.524.034-17.674.008-2.426.016-4.444.022-5.836a14.748,14.748,0,0,1,.049-2.409c.807-2.283,2.425-3.7,4.224-3.7h131.428a4.509,4.509,0,0,1,3.813,2.739l16.483,22.9.018.034a9.475,9.475,0,0,1,0,8.114l-.018.034-.021.031-16.462,22.874A4.5,4.5,0,0,1-11762.3-7540.032Zm-134.69-3.981c.666,1.841,1.912,2.981,3.263,2.981h131.428a3.555,3.555,0,0,0,2.94-2.228l.018-.034.021-.031,16.461-22.872a8.43,8.43,0,0,0,0-7.14l-16.482-22.9-.018-.034a3.561,3.561,0,0,0-2.94-2.229h-131.428c-1.346,0-2.589,1.135-3.256,2.966-.022,1-.06,12.636-.073,25.6C-11897.074-7554.49-11897.05-7544.85-11896.991-7544.013Z" transform="translate(11974.914 7816.002)" fill="rgba(0,0,0,0)"/><path d="M153.159,48.634H95.1a1.381,1.381,0,1,1,0-2.752h58.058a1.381,1.381,0,1,1,0,2.752" transform="translate(-5.75 192.045)" fill="#313e58"/><path d="M153.159,55.476H95.1a1.381,1.381,0,1,1,0-2.752h58.058a1.381,1.381,0,1,1,0,2.752" transform="translate(-5.75 198.769)" fill="#313e58"/><path d="M20,0C31.046,0,40,8.507,40,19S31.046,38,20,38,0,29.493,0,19,8.954,0,20,0Z" transform="translate(168 228)" fill="#ffe491"/><path d="M13.32,14.553a4.205,4.205,0,0,1-1.526,3.39,7.58,7.58,0,0,1-4.272,1.532v2.72H5.7V19.528A14.751,14.751,0,0,1,.027,18.387v-3.5a15.286,15.286,0,0,0,2.779,1.008,14.87,14.87,0,0,0,2.9.517V12.3l-.889-.345A9.921,9.921,0,0,1,1.095,9.7,4.322,4.322,0,0,1,0,6.7,3.92,3.92,0,0,1,1.506,3.536,7.653,7.653,0,0,1,5.7,2.03V0H7.522V1.977A15.062,15.062,0,0,1,13.015,3.2L11.768,6.3A14.341,14.341,0,0,0,7.522,5.267V9.18A20.4,20.4,0,0,1,11.2,10.905a5.036,5.036,0,0,1,1.605,1.605A3.981,3.981,0,0,1,13.32,14.553Zm-3.993.2a1.193,1.193,0,0,0-.451-.942,5.916,5.916,0,0,0-1.353-.8v3.3Q9.327,16.013,9.327,14.752ZM3.993,6.7a1.259,1.259,0,0,0,.4.962A4.8,4.8,0,0,0,5.7,8.438V5.32Q3.993,5.572,3.993,6.7Z" transform="matrix(1, -0.017, 0.017, 1, 181, 236.232)" fill="#313e58"/><g transform="translate(-0.39 -0.228)"><path d="M32.28,16.852c-8.827,1.325-17.4-3.693-19.986-11.676A2.8,2.8,0,0,0,9.61,2.661c-.5.008-2.288.28-4.062.57L5.331,1.857a.32.32,0,0,0-.221-.252.359.359,0,0,0-.343.066l-4.689,4a.313.313,0,0,0-.11.284A.317.317,0,0,0,.157,6.2L5.879,8.737a.358.358,0,0,0,.35-.034A.316.316,0,0,0,6.364,8.4L6.1,6.711C7.084,6.55,8.05,6.4,8.731,6.3c2.818,8.6,11.406,14.337,20.808,14.286a23.046,23.046,0,0,0,3.289-.254c10.683-1.6,18.7-10.461,18.656-20.607L47.74-.221c.039,8.405-6.607,15.745-15.46,17.073" transform="translate(158.645 243.74) rotate(9)" fill="#313e58"/><path d="M51.4,14.513a.318.318,0,0,0-.189-.241l-5.721-2.541a.36.36,0,0,0-.35.034.316.316,0,0,0-.135.307l.266,1.686c-.986.161-1.952.312-2.633.411-3.144-9.6-13.47-15.623-24.1-14.032C7.853,1.739-.168,10.6-.12,20.744l3.745-.055c-.039-8.406,6.607-15.745,15.46-17.073,8.821-1.322,17.4,3.693,19.985,11.676a2.805,2.805,0,0,0,2.656,2.515h.027c.5-.008,2.288-.28,4.062-.57l.217,1.374a.321.321,0,0,0,.221.252A.358.358,0,0,0,46.6,18.8l4.689-4a.313.313,0,0,0,.11-.285" transform="translate(169.063 222.362) rotate(9)" fill="#313e58"/></g></g></svg>