<svg xmlns="http://www.w3.org/2000/svg" xmlns:xlink="http://www.w3.org/1999/xlink" width="192.674" height="192.674" viewBox="0 0 192.674 192.674"><defs><clipPath id="a"><circle cx="96.337" cy="96.337" r="96.337" transform="translate(2639.353 947.204)" fill="#85cb85"/></clipPath></defs><g transform="translate(-2639.353 -947.204)"><circle cx="96.337" cy="96.337" r="96.337" transform="translate(2639.353 947.204)" fill="none"/><g clip-path="url(#a)"><g transform="translate(0 7)"><g transform="translate(2746.376 976.717)"><g transform="translate(0 1.339)"><path d="M-4285.606,5959.642s-10.588-3.844-6.39,3.691,8.655,7.82,8.655,7.82Z" transform="translate(4292.98 -5930.824)" fill="#b28b67"/><path d="M-4290.714,5959.642s10.588-3.844,6.39,3.691-8.655,7.82-8.655,7.82Z" transform="translate(4333.616 -5930.824)" fill="#b28b67"/><path d="M0,0,10.406,41.279h7.5L24.766,0Z" transform="translate(39.425 76.549) rotate(180)" fill="#997659"/><path d="M4436.189,733.82s5.216,29.128,22.526,28.66,20.616-30.919,20.616-30.919-5.467-24.894-21.657-24.99C4438.555,707.12,4436.189,733.82,4436.189,733.82Z" transform="translate(-4432.875 -706.571)" fill="#b28b67"/></g><path d="M4045.077,7217.205a17.147,17.147,0,0,1-.767-9.281c.677-3.625,2.389-6.949,5.9-10.925l3.241,7.071,2.22,4.988a21.672,21.672,0,0,1-7.8,9.408,4.936,4.936,0,0,1-1.84.672,3.982,3.982,0,0,0-.493-.876C4045.521,7218.266,4045.429,7217.994,4045.077,7217.205Zm10.593-8.147C4055.729,7208.919,4055.718,7209.168,4055.67,7209.058Z" transform="translate(-4042.324 -7189.056)" fill="#313e58"/><path d="M4083.547,7226.56c-1.086-1.429-3.564-6.1-4.988-7.127a17.3,17.3,0,0,0-2.936-1.83,8.457,8.457,0,0,0-2.126-.636l-2.794.351a13.5,13.5,0,0,1-8,1.929,38,38,0,0,1-9.342-2.07,8.785,8.785,0,0,1-2.674-1.18,9.653,9.653,0,0,1-2.169-2.564c-2.6-3.957-4.169-8.659-3.208-13.458.667.163,2.886.95,3.571,1.036a5.191,5.191,0,0,0,1.871.005,6.536,6.536,0,0,0,1.952-1.042c5.088-3.354,13.735-3.775,19.2-1.294a20.892,20.892,0,0,1,8.983,6.169c3.349,4,4.766,12.171,3.4,21.445C4084.245,7226.567,4083.914,7226.332,4083.547,7226.56Z" transform="translate(-4037.515 -7197.093)" fill="#313e58"/></g><path d="M2.56,1.638A63.21,63.21,0,0,0,15.78,2.95,49.548,49.548,0,0,0,28.1,1.638l2.666,107.375H0Z" transform="translate(2757.583 1040.993)" fill="#ffd964"/><path d="M0,107.638H55.159s-7.6-71.064-8.315-94.513L42.358.3A9.938,9.938,0,0,0,38.39.211C36.987.369,1.978,77.942,0,107.638Z" transform="translate(2717.921 1042.343)" fill="#96b7df"/><path d="M55.716,108.138H-.534L-.5,107.6c.456-6.851,2.7-16.745,6.657-29.407C9.4,67.834,13.7,55.878,18.946,42.663c5.509-13.885,10.307-24.745,12.676-29.982,1.7-3.757,3.2-6.955,4.349-9.25.552-1.106,1-1.968,1.344-2.562.511-.894.711-1.12,1.019-1.155a18.072,18.072,0,0,1,2.037-.126,6.984,6.984,0,0,1,2.154.243l.226.08,4.591,13.121,0,.077c.7,23.162,8.236,93.765,8.312,94.475Zm-55.178-1H54.6c-.711-6.694-7.571-71.739-8.256-93.921L41.975.721a8.162,8.162,0,0,0-1.6-.132,16.767,16.767,0,0,0-1.77.1c-.5.657-2.555,4.592-6.506,13.373-2.379,5.287-7.178,16.205-12.6,29.92-5.146,13.026-9.363,24.8-12.532,34.981C3.221,91,1.06,100.475.538,107.138Z" transform="translate(2717.921 1042.343)" fill="rgba(0,0,0,0)"/><path d="M55.159,107.638H0S7.6,36.574,8.315,13.124L12.8.3A9.938,9.938,0,0,1,16.769.211C18.172.369,53.181,77.942,55.159,107.638Z" transform="translate(2772.877 1042.343)" fill="#96b7df"/><path d="M55.694,108.138H-.556l.059-.553c.076-.71,7.609-71.313,8.312-94.476l0-.077L12.409-.089l.226-.08a6.984,6.984,0,0,1,2.154-.243,18.076,18.076,0,0,1,2.038.126c.307.035.507.261,1.018,1.155.34.594.792,1.456,1.344,2.562,1.146,2.295,2.649,5.493,4.349,9.25,2.37,5.237,7.167,16.1,12.676,29.982C41.457,55.878,45.759,67.834,49,78.2c3.961,12.662,6.2,22.556,6.657,29.407Zm-55.138-1H54.622C54.1,100.475,51.938,91,48.193,78.965,45.024,68.78,40.807,57.01,35.661,43.984c-5.419-13.715-10.218-24.633-12.6-29.921-3.951-8.781-6-12.716-6.506-13.373a16.767,16.767,0,0,0-1.77-.1,8.15,8.15,0,0,0-1.6.132l-4.373,12.5C8.127,35.4,1.267,100.444.556,107.138Z" transform="translate(2772.877 1042.343)" fill="rgba(0,0,0,0)"/><path d="M9.193,0s.21,47.274,9.193,62.354H0Z" transform="translate(2725.633 1087.941)" fill="rgba(0,0,0,0.1)"/><path d="M9.193,0S8.984,47.274,0,62.354H18.386Z" transform="translate(2801.937 1087.941)" fill="rgba(0,0,0,0.1)"/><path d="M53.059.285s-4.208.35-8.7,4.435C34.5,16.039,5.574,54.733,0,117.617H30C25.339,53.668,54.36,4.72,54.36,4.72Z" transform="translate(2703.251 1042.271)" fill="#96b7df"/><path d="M1.3.285s4.209.35,8.7,4.435c9.851,11.319,38.78,50.013,44.354,112.9h-30C29.021,53.668,0,4.72,0,4.72Z" transform="translate(2788.347 1042.271)" fill="#96b7df"/></g><g transform="translate(-12.317 -2.029)"><g transform="translate(2651.67 989.746)"><path d="M87.824,51.711A98.223,98.223,0,0,0,83.4,29.788a56.755,56.755,0,0,0-8.649-17.394C70.861,7.371,65.739,3.445,60,2.04A18,18,0,0,0,43.379,6.21a27.14,27.14,0,0,0-5.223,7.263c-6.781,12.937-8.3,28.745-6.354,43.661,4.218,1.008,4.926,1.608,25.459.843S87.824,51.711,87.824,51.711Z" transform="translate(0.611 -1.499)" fill="#313e58"/><path d="M0,0,8.84,37.056h6.376L21.04,0Z" transform="translate(71.061 72.761) rotate(180)" fill="#e6b88e"/><path d="M4506.3,785.262a11.124,11.124,0,0,1,2.514.754c2.524,1.67,7.739,3.448,17.258-.754,24.334,26.977,27.392,74.654,27.392,74.654l-65.9,7.37S4505.644,784.665,4506.3,785.262Z" transform="translate(-4456.194 -721.207)" fill="#ffe491"/><path d="M4436.19,734.831s6.608,25.854,19.137,25.728,17.514-27.755,17.514-27.755-10.562-1.337-18.245-9.3A46.726,46.726,0,0,1,4436.19,734.831Z" transform="translate(-4395.807 -706.326)" fill="#efc6a1"/><path d="M1478.322,5002.492h-73.647c.712-6.811,1.157-11.027,1.4-13.269a105.3,105.3,0,0,1,6.844-25.781c1.338-3.448,2.222-5.726,1.921-7.391-.428-2.369-.03-7.473,1.185-15.17.972-6.158,2.465-13.98,4.437-23.249,3.312-15.562,6.88-30.021,7.03-30.629l2.354,2.205,14.76-.38,2.54-1.826.015.024c.435.782,2.749,5,5.558,11.192a164.393,164.393,0,0,1,9.385,26.054c2.136,8.319,12.954,61.974,16.218,78.22Z" transform="translate(-1377.162 -4823.273)" fill="#ffe491"/><path d="M36.689.016c.549,3.611,26.035,63.713,13.785,67.919s-43.659-6.97-43.659-6.97L6.332,62S-.452,77.082.024,82.635c44.23,23.1,71.953,12.774,80.778-9.381C85.839,60.609,67.53,16.5,41.23,1.047A8.655,8.655,0,0,0,36.689.016Z" transform="matrix(0.995, -0.105, 0.105, 0.995, 32.961, 67.591)" fill="#ffd964"/><path d="M0,9.943l9.908,5.443s2.085,7.935,4.986,7.985c1.485.691-1.1-5.993,1.714-5.414s9.688,5.691,10.872,4.653c1.752-1.535.19-6.25-1.651-8.595C22.39,9.633,19.542,8.134,12.5,6.171,6.981,4.632.564,0,.564,0Z" transform="translate(78.136 126.961) rotate(-58)" fill="#efc6a1"/><path d="M51.254.7S21.055,65.467,33.3,69.673,76.964,62.7,76.964,62.7s7.346,15.2,6.792,21.669C23.968,115.6-5.658,85.743.894,48.269c2.492-10.835,5.65-14.5,14.543-24.117C26.955,11.692,30.9,9.562,39.851,3.7S51.254.7,51.254.7Z" transform="translate(0 72.811) rotate(-11)" fill="#ffd964"/><path d="M0,12.155S1.435.1,4.335.05c1.485-.691-1.1,5.993,1.714,5.414S15.738-.227,16.922.811c1.752,1.535.19,6.25-1.651,8.595-3.44,4.383-5.616,5.728-12.655,7.691C.923,14.13,1.04,15.178,0,12.155Z" transform="translate(36.582 142.954) rotate(-139)" fill="#efc6a1"/></g><path d="M2203.41-582.917a3.467,3.467,0,0,1-1.807-1.129,13.978,13.978,0,0,1-1.444-1.8,28.535,28.535,0,0,1-1.515-2.453.844.844,0,0,1-.024-.754.845.845,0,0,1,.589-.472,57.2,57.2,0,0,1,9.441-1.261,5.388,5.388,0,0,1,2.812.528.843.843,0,0,1,.306.341c.009.018.018.038.026.057a7.038,7.038,0,0,1,1.115-.382,6.911,6.911,0,0,1,3.711.1,1.279,1.279,0,0,1,.037-.179.84.84,0,0,1,.244-.395c.4-.366,1.257-.886,4.026-1.174a50.683,50.683,0,0,1,5.107-.218h0c1.733,0,3.015.056,3.069.059a.843.843,0,0,1,.657.363.846.846,0,0,1,.108.742,28.272,28.272,0,0,1-1.052,2.672,13.787,13.787,0,0,1-1.1,2.014,3.42,3.42,0,0,1-1.583,1.42,11.734,11.734,0,0,1-3.2.351,21.706,21.706,0,0,1-2.837-.177,3.7,3.7,0,0,1-2.1-.686,5.119,5.119,0,0,1-1.126-2.535c-.021-.091-.052-.231-.086-.4a5.25,5.25,0,0,0-4.771.2c0,.256-.009.472-.014.6a5.077,5.077,0,0,1-.656,2.691c-.14.183-.567.74-3.155,1.363a19,19,0,0,1-4,.565A4.817,4.817,0,0,1,2203.41-582.917Zm-2.7-5.186c.234.387.526.847.847,1.308,1.42,2.042,2.061,2.2,2.13,2.212a3.242,3.242,0,0,0,.505.031,17.078,17.078,0,0,0,3.448-.481,8.467,8.467,0,0,0,2.374-.8,4.579,4.579,0,0,0,.294-1.644,9.415,9.415,0,0,0-.024-1.46,6.326,6.326,0,0,0-1.631-.156A49.531,49.531,0,0,0,2200.708-588.1Zm17.825-.076a4.6,4.6,0,0,0,.587,1.569,4.723,4.723,0,0,0,1.334.292,20.494,20.494,0,0,0,2.477.144,10.03,10.03,0,0,0,2.651-.259c.026-.009.646-.245,1.692-2.528.235-.511.44-1.015.6-1.436-.5-.011-1.137-.021-1.842-.021-5.313,0-7.137.512-7.74.8.008.111.021.249.043.408a.849.849,0,0,1,.081.5C2218.449-588.549,2218.487-588.369,2218.533-588.18Z" transform="translate(495.494 1608.907)" fill="#313e58"/></g></g></g></svg>