<svg xmlns="http://www.w3.org/2000/svg" width="192.674" height="192.674" viewBox="0 0 192.674 192.674"><g transform="translate(-1670.324 -947.204)"><circle cx="96.337" cy="96.337" r="96.337" transform="translate(1670.324 947.204)" fill="none"/><path d="M13619.591,8668.568l-1.937-13.367h76.089l-4.794,13.367Z" transform="translate(-11897.059 -7602.243)" fill="#ffd964"/><path d="M246.065,131.84l4.382-16.329,73.01-.674s3.083-.224,3.083,2.02-2.467,12.346-3.7,13.244S267.8,132.01,267.8,132.01Z" transform="translate(1515.464 929.176)" fill="#313e58"/><rect width="88.208" height="17.698" transform="translate(1765.855 1027.89)" fill="#acb1bc"/><path d="M89.466,2.528c.732,7.274,2.545,27.737.8,36.775C88.116,50.4,87.237,54.6,87.237,54.6H37.6L3.738,42.236l-.1-.51s.1-9.308,4-15.174,33.177-8.033,33.177-8.033S64.454,1.007,70.482.539c0,0,15.052-.539,16.446-.539a2.476,2.476,0,0,1,2.539,2.528" transform="translate(1677.174 1005.774)" fill="#ffd964"/><path d="M199.941,84.657l6.72.023a1.015,1.015,0,0,1,1,1.024h0a1.014,1.014,0,0,1-1.011,1.017l-6.72-.023a1.014,1.014,0,0,1-1-1.024h0a1.014,1.014,0,0,1,1.011-1.017" transform="translate(1546.905 949.305)" fill="#313e58"/><path d="M153.16,183.445H100.048V181.52l80.337-.185,1.942,0v2.087Z" transform="translate(1612.865 884.818)" fill="#313e58"/><path d="M23.7,143.006q-.021-.454-.021-.913a19.266,19.266,0,1,1,38.531-.24c0,.08,0,.16,0,.24v.339c-2.081.218-12.685,1.268-24.16,1.268a132.07,132.07,0,0,1-14.35-.694" transform="translate(1663.805 923.923)" fill="#313e58"/><path d="M327.717,143.006q-.021-.454-.021-.913a19.266,19.266,0,1,1,38.531-.24c0,.08,0,.16,0,.24v.339c-2.081.218-12.685,1.268-24.16,1.268a132.069,132.069,0,0,1-14.35-.694" transform="translate(1461.012 923.923)" fill="#313e58"/><path d="M135.193,149.662h65.319s-2.2.591-2.737,8.193c-2.372.221-28.637,0-59.682.589-.027-6.7-2.9-8.782-2.9-8.782" transform="translate(1589.421 905.942)" fill="#313e58"/><path d="M30.934,127.183l-5.686-4.294L1.3,123.045s-1.358-.16-1.294,1.872,1.439,11.143,2.006,11.939,24.19.956,24.19.956Z" transform="translate(1679.602 923.802)" fill="#313e58"/><path d="M51.838,136.849a14.985,14.985,0,1,1-14.985,14.985,14.985,14.985,0,0,1,14.985-14.985" transform="translate(1655.019 914.489)" fill="#313e58"/><path d="M65.348,157.1a8.242,8.242,0,1,1-8.242,8.242,8.242,8.242,0,0,1,8.242-8.242" transform="translate(1641.509 900.979)" fill="#ffd964"/><path d="M68.35,160.6a7.743,7.743,0,1,1-7.743,7.743A7.752,7.752,0,0,1,68.35,160.6Zm0,13.487a5.743,5.743,0,1,0-5.743-5.744A5.75,5.75,0,0,0,68.35,174.09Z" transform="translate(1638.506 897.978)" fill="#7a8293"/><path d="M78.107,176.231a1.873,1.873,0,1,1-1.873,1.873,1.873,1.873,0,0,1,1.873-1.873" transform="translate(1628.75 888.221)" fill="#313e58"/><path d="M120.825,27.969l21.4-14s1.878-1.575,6.509-1.75,10.014-.35,10.014-.35l-1.5,14.262s-.751,3.238-6.634,3.5-28.289,1.225-28.289,1.225-4.131-.437-1.5-2.887" transform="translate(1599.59 997.857)" fill="#313e58"/><path d="M148.738,12.863c-4.631.175-6.509,1.75-6.509,1.75l-21.4,14c-2.629,2.45,1.5,2.888,1.5,2.888s10.053-.432,18.46-.8l8.715-17.87-.763.029" transform="translate(1599.59 997.214)" fill="#7a8293"/><path d="M356.6,136.849a14.985,14.985,0,1,1-14.985,14.985A14.985,14.985,0,0,1,356.6,136.849" transform="translate(1451.729 914.489)" fill="#313e58"/><path d="M370.109,157.1a8.242,8.242,0,1,1-8.242,8.242,8.242,8.242,0,0,1,8.242-8.242" transform="translate(1438.218 900.979)" fill="#ffd964"/><path d="M373.111,160.6a7.743,7.743,0,1,1-7.743,7.743A7.752,7.752,0,0,1,373.111,160.6Zm0,13.487a5.743,5.743,0,1,0-5.743-5.744A5.75,5.75,0,0,0,373.111,174.09Z" transform="translate(1435.216 897.978)" fill="#7a8293"/><path d="M382.868,176.231A1.873,1.873,0,1,1,381,178.1a1.873,1.873,0,0,1,1.873-1.873" transform="translate(1425.459 888.221)" fill="#313e58"/><path d="M10.5,98.343s5.8-5.965,4.594-6.473c-.72-.3-4.014.386-6.56.992-1.07.229-2.173.5-3.105.73a38.253,38.253,0,0,0-1.256,6.657l3.333-1.017Z" transform="translate(1676.816 944.541)" fill="#e88a2d"/></g></svg>